<?xml version="1.0" encoding="UTF-8" standalone="no"?>
<svg width="72px" height="50px" viewBox="0 0 72 50" version="1.1" xmlns="http://www.w3.org/2000/svg" xmlns:xlink="http://www.w3.org/1999/xlink" xmlns:sketch="http://www.bohemiancoding.com/sketch/ns">
    <!-- Generator: Sketch 3.3.2 (12043) - http://www.bohemiancoding.com/sketch -->
    <title>Group Copy</title>
    <desc>Created with Sketch.</desc>
    <defs></defs>
    <g id="Page-1" stroke="none" stroke-width="1" fill="none" fill-rule="evenodd" sketch:type="MSPage">
        <g id="Mobile_Events" sketch:type="MSArtboardGroup" transform="translate(-144.000000, -2.000000)" fill="#FFFFFF">
            <g id="Group-Copy" sketch:type="MSLayerGroup" transform="translate(144.000000, 2.000000)">
                <path d="M10.6772727,26.4396396 C10.2604545,26.527027 9.82454545,26.6153153 9.38227273,26.7013514 C9.56590909,26.2013514 9.71454545,25.8081081 9.79090909,25.6045045 C10.0254545,24.9779279 10.2890909,24.2869369 10.5522727,23.5968468 C10.9,23.5238739 11.2504545,23.45 11.6004545,23.3765766 C12.0840909,23.2747748 12.5936364,23.1725225 13.1086364,23.0734234 C12.8663636,23.7400901 12.665,24.2734234 12.5713636,24.5225225 C12.375,25.0468468 12.1586364,25.609009 11.9390909,26.1743243 C11.5218182,26.2621622 11.0990909,26.3509009 10.6772727,26.4396396 L10.6772727,26.4396396 Z M17.8086364,26.654955 C18.1972727,26.6112613 18.0018182,25.5072072 18.0018182,25.1981982 C18.0018182,25.0869369 17.9313636,25.0112613 17.7590909,25.0112613 C17.5613636,25.0112613 16.1027273,25.304955 14.1995455,25.7009009 C14.3354545,25.2806306 14.4495455,24.9297297 14.5272727,24.6905405 C14.6463636,24.3247748 14.9504545,23.5545045 15.3022727,22.6747748 C16.8231818,22.4157658 18.1218182,22.2333333 18.5972727,22.2333333 C18.9327273,22.2333333 18.7054545,21.4932432 18.5377273,21.0941441 C18.4154545,20.8022523 18.4145455,20.6337838 18.2318182,20.6337838 C17.8295455,20.6337838 17.0013636,20.8103604 15.9490909,21.0576577 C16.4504545,19.7963964 16.8863636,18.6612613 16.8863636,18.4481982 C16.8863636,18.1004505 15.375,17.5247748 14.9886364,17.5247748 C14.7363636,17.5247748 14.6540909,17.6067568 14.6581818,17.7675676 C14.6745455,18.3981982 14.1572727,20.0707207 13.6268182,21.6121622 C12.9409091,21.772973 12.2277273,21.9346847 11.5190909,22.0801802 C11.3777273,22.1094595 11.2368182,22.1378378 11.0959091,22.1657658 C11.6586364,20.6738739 12.1118182,19.4243243 12.1118182,19.1828829 C12.1118182,18.5927928 10.4609091,18.1675676 10.1954545,18.1675676 C10.0559091,18.1675676 9.97409091,18.2441441 9.94,18.4121622 C9.76772727,19.2603604 9.24363636,21.0067568 8.74863636,22.5864865 C6.85,22.895045 5.25318182,23.0846847 4.57136364,23.1612613 C4.18272727,23.204955 4.27636364,24.3085586 4.27636364,24.618018 C4.27636364,24.7288288 4.34636364,24.804955 4.51909091,24.804955 C4.72363636,24.804955 6.27727273,24.4905405 8.27590909,24.0738739 C8.09090909,24.6509009 7.93363636,25.1328829 7.835,25.4369369 C7.73181818,25.7527027 7.49272727,26.3716216 7.205,27.1018018 C5.58636364,27.3815315 4.17954545,27.5824324 3.68045455,27.5824324 C3.345,27.5824324 3.61272727,28.4626126 3.61272727,28.7220721 C3.61272727,29.1009009 3.73590909,29.1824324 3.91863636,29.1824324 C4.36,29.1824324 5.34590909,28.9698198 6.57909091,28.6837838 C6.02318182,30.0918919 5.50136364,31.4441441 5.50136364,31.6788288 C5.50136364,32.0265766 6.98727273,32.6022523 7.37363636,32.6022523 C7.62590909,32.6022523 7.70818182,32.5207207 7.70409091,32.3594595 C7.68636364,31.6788288 8.29090909,29.7842342 8.86181818,28.1509009 C9.48727273,28.0076577 10.1281818,27.8653153 10.7586364,27.7355856 C10.9654545,27.6932432 11.1727273,27.6518018 11.3790909,27.6121622 C10.7654545,29.1887387 10.2504545,30.5355856 10.2504545,30.7923423 C10.2504545,31.3828829 11.9013636,31.9594595 12.1668182,31.9594595 C12.3063636,31.9594595 12.3886364,31.8828829 12.4222727,31.7153153 C12.6068182,30.8058559 13.1954545,28.8653153 13.72,27.2031532 C15.5763636,26.9099099 17.1463636,26.7292793 17.8086364,26.654955 L17.8086364,26.654955 Z" id="Fill-2" sketch:type="MSShapeGroup"></path>
                <path d="M26.0063636,20.0324324 C25.6331818,20.0324324 25.2595455,19.740991 25.2595455,19.4013514 C25.2595455,18.0238739 27.09,17.4490991 28.7504545,17.1833333 C28.0836364,18.6536036 27.0027273,20.0324324 26.0063636,20.0324324 L26.0063636,20.0324324 Z M37.9572727,12.0144144 C38.4240909,12.0144144 38.6104545,12.245045 38.6104545,12.5846847 C38.6104545,13.5864865 37.3981818,14.3135135 35.9218182,14.8477477 C36.2172727,13.5166667 37.1318182,12.0144144 37.9572727,12.0144144 L37.9572727,12.0144144 Z M47.5918182,21.2256757 C46.565,21.2256757 45.6286364,20.9675676 45.6286364,20.3108108 C45.6286364,19.5671171 46.8218182,19.1630631 47.825,19.1630631 C48.7345455,19.1630631 49.6854545,19.3765766 50.67,19.6603604 C49.9145455,20.6135135 48.9272727,21.2256757 47.5918182,21.2256757 L47.5918182,21.2256757 Z M18.8581818,13.6121622 C20.4068182,13.5247748 21.8104545,12.9076577 22.8077273,12.0315315 C22.3745455,13.4522523 21.9018182,14.9130631 21.4563636,16.1882883 C20.7304545,18.2662162 20.2622727,19.7193694 20.2622727,20.1666667 C20.2622727,20.8581081 21.6368182,22.368018 22.3281818,22.368018 C22.4122727,22.368018 22.4768182,22.3490991 22.5090909,22.218018 C22.5609091,22.0036036 22.56,21.9076577 22.6940909,21.4630631 C22.7927273,21.1355856 22.905,20.7324324 23.0245455,20.2869369 C23.0259091,20.3027027 23.0268182,20.3112613 23.0268182,20.3112613 C23.8459091,17.5657658 26.0922727,12.6815315 28.2627273,12.6815315 C29.2895455,12.6815315 29.3945455,13.9162162 29.3945455,14.740991 C29.3945455,15.1662162 29.2931818,15.6873874 29.1177273,16.2351351 C26.7977273,16.5824324 24.0772727,17.3599099 24.0772727,19.6927928 C24.0772727,20.8166667 24.9986364,21.5738739 26.3013636,21.5738739 C28.78,21.5738739 31.2354545,19.4671171 32.0127273,16.7576577 C32.3931818,16.677027 32.8,16.5896396 33.2213636,16.4936937 C33.3527273,18.5743243 34.7113636,19.4504505 35.865,19.4504505 C38.3409091,19.4504505 39.9095455,16.4990991 40.9013636,14.1824324 C41.7981818,12.0873874 42.8877273,10.381982 44.215,10.381982 C44.6095455,10.381982 44.7790909,10.5599099 44.7790909,10.8621622 C44.7790909,11.9184685 41.3609091,13.7274775 41.3609091,16.2738739 C41.3609091,17.5837838 42.5845455,18.4527027 43.9681818,18.2292793 C45.1072727,18.0454955 45.6954545,17.5675676 46.5090909,16.8905405 C47.0959091,16.4022523 47.5604545,15.7797297 47.9190909,15.2675676 C48.1127273,16.6301802 48.9554545,17.1337838 49.9772727,17.1337838 C51.0336364,17.1337838 51.9422727,16.3355856 52.5759091,15.4815315 C52.2954545,16.3072072 52.08,16.904955 52.0309091,17.0414414 C51.8086364,17.6626126 51.5531818,18.2527027 51.2531818,18.7837838 C50.1718182,18.5247748 49.0777273,18.3031532 48.0636364,18.3031532 C45.655,18.3031532 44.5081818,19.1959459 44.5081818,20.3914414 C44.5081818,21.6788288 46.0868182,22.1725225 47.3936364,22.1725225 C49.5704545,22.1725225 51.2504545,21.3238739 52.3931818,20.1900901 C53.8459091,20.6427928 55.3586364,21.0734234 56.91,21.0734234 C60.7413636,21.0734234 63.6609091,19.0675676 63.6609091,15.704955 C63.6609091,13.486036 61.7759091,11.65 59.0640909,11.65 C58.8422727,11.65 58.8145455,11.7328829 58.8145455,11.8617117 C58.8145455,12.0846847 60.3536364,12.8346847 60.3536364,15.218018 C60.3536364,17.5576577 58.2359091,19.5896396 55.4981818,19.5896396 C54.8013636,19.5896396 54.0118182,19.445045 53.1781818,19.2531532 C53.44,18.8738739 53.6509091,18.4815315 53.8090909,18.0927928 C54.7604545,15.7513514 56.8290909,9.45495495 56.8290909,8.92117117 C56.8290909,8.38738739 54.2272727,7.44279279 54.2272727,7.88468468 C54.2272727,8.02477477 54.3604545,9.13108108 54.1059091,10.2963964 C54.0436364,10.5828829 53.97,10.8864865 53.8886364,11.2004505 C53.8831818,11.2126126 53.875,11.240991 53.8636364,11.2896396 C53.8563636,11.3211712 53.8486364,11.3527027 53.8404545,11.3851351 C53.8290909,11.427027 53.8181818,11.4684685 53.8068182,11.5103604 C53.3854545,13.0153153 52.0531818,15.4837838 50.8527273,15.4837838 C50.4322727,15.4837838 50.2109091,15.1927928 50.2109091,14.5617117 C50.2109091,13.372973 51.7704545,11.4563063 51.7704545,10.195045 C51.7704545,9.12747748 50.8581818,8.39954955 49.4468182,8.39954955 C49.3254545,8.39954955 49.265,8.4527027 49.265,8.58963964 C49.265,8.70585586 49.3118182,8.91801802 49.32,9.48828829 C49.3368182,10.6698198 48.6431818,11.9653153 48.2118182,13.1423423 C47.7386364,14.2391892 46.275,16.3918919 44.7659091,16.3918919 C44.295,16.3918919 44.0022727,16.209009 44.0022727,15.6941441 C44.0022727,14.6211712 47.215,12.8423423 47.215,10.9238739 C47.215,9.81081081 46.4813636,8.97072072 44.93,8.97072072 C42.585,8.97072072 41.395,11.2743243 40.2581818,13.7378378 C39.3045455,15.8036036 38.2095455,17.7157658 37.0490909,17.7157658 C36.2972727,17.7157658 35.8481818,17.2022523 35.825,15.7774775 C37.9686364,15.0468468 39.8327273,13.9297297 39.8327273,12.0423423 C39.8327273,11.1644144 39.2313636,10.4252252 37.8777273,10.4252252 C35.5059091,10.4252252 33.5327273,13.3009009 33.2459091,15.604955 C32.8759091,15.6900901 32.5245455,15.7662162 32.2068182,15.8342342 C32.245,15.5554054 32.265,15.2725225 32.265,14.9864865 C32.265,12.6576577 31.2804545,11.0220721 29.0868182,11.0220721 C27.2072727,11.0220721 25.7190909,12.5806306 24.6936364,14.1846847 C25.1418182,12.9977477 26.4468182,9.07072072 26.7404545,8.61216216 C26.8004545,8.51891892 26.8195455,8.47117117 26.8195455,8.39864865 C26.8195455,8.01351351 25.1495455,7.21126126 24.5086364,7.21126126 C24.2831818,7.21126126 24.125,7.26351351 24.0927273,7.4 C24.045,7.6027027 23.9922727,7.81891892 23.9345455,8.0463964 C23.9331818,8.03918919 23.9318182,8.03423423 23.9318182,8.03423423 C23.4804545,9.98783784 22.1654545,11.6022523 20.3631818,11.6022523 C19.2895455,11.6022523 18.3681818,10.9513514 18.3681818,9.85540541 C18.3681818,7.32927928 21.535,6.01306306 24.0936364,6.01306306 C29.3863636,6.01306306 33.3259091,8.07747748 38.9854545,8.07747748 C43.0668182,8.07747748 46.56,6.52972973 46.56,3.20135135 C46.56,1.59864865 45.17,0.382882883 43.8877273,0.382882883 C43.6545455,0.382882883 43.685,0.523423423 43.685,0.735135135 C43.685,3.65405405 40.4622727,5.3045045 36.4668182,5.3045045 C34.3490909,5.3045045 28.4254545,4.85900901 24.5836364,4.85900901 C19.2627273,4.85900901 15.0422727,6.95765766 15.0422727,10.5828829 C15.0422727,12.4707207 16.9009091,13.7225225 18.8581818,13.6121622 L18.8581818,13.6121622 Z" id="Fill-3" sketch:type="MSShapeGroup"></path>
                <path d="M58.1295455,24.6247748 C58.115,24.6972973 58.1,24.7738739 58.0845455,24.8531532 C57.9036364,25.4554054 56.3559091,28.1581081 54.6622727,30.8441441 C53.7063636,32.3608108 52.6836364,33.8707207 51.8622727,35.059009 C52.2304545,33.5175676 52.6204545,32.1076577 52.6759091,31.8666667 C52.8804545,30.9725225 53.755,27.5310811 54.0772727,27.0274775 C54.095,26.9990991 54.1022727,26.9689189 54.1022727,26.9369369 C54.1022727,26.5337838 52.4922727,25.7463964 51.7445455,25.7463964 C51.5709091,25.7463964 51.4540909,25.7968468 51.4318182,25.9099099 C51.1272727,27.4265766 50.5263636,30.3396396 49.9204545,32.8648649 C49.4068182,35.0072072 48.9086364,36.6369369 48.9086364,37.3081081 C48.9086364,38.1144144 50.1990909,39.2220721 50.7736364,39.2220721 C50.9086364,39.2220721 51.0027273,39.2121622 51.0236364,39.0171171 C51.0404545,38.859009 51.1081818,38.6896396 51.1613636,38.5315315 C51.6622727,37.3986486 53.5295455,34.5995495 55.2609091,31.8558559 C56.0181818,30.6558559 56.7659091,29.4990991 57.3795455,28.5495495 C57.1854545,29.5058559 56.9618182,30.5292793 56.7040909,31.5509009 C56.0640909,34.0882883 55.3804545,35.9806306 55.3804545,36.8761261 C55.3804545,37.4621622 56.8763636,38.1004505 57.4190909,38.1004505 C57.8377273,38.1004505 57.9986364,38.0851351 58.0113636,37.6364865 C58.0522727,36.1824324 58.9695455,32.6288288 59.5254545,30.304955 C59.7031818,29.5626126 60.4959091,26.4108108 60.7359091,25.7418919 C60.9372727,25.1797297 58.2527273,24.0112613 58.1295455,24.6247748" id="Fill-4" sketch:type="MSShapeGroup"></path>
                <path d="M22.8063636,37.6621622 C21.5268182,37.6621622 20.9563636,36.9563063 20.9563636,36.1567568 C20.9563636,34.8914414 21.5740909,34.1630631 22.3063636,34.1630631 C22.9677273,34.1630631 23.36,34.713964 23.36,35.7720721 C23.36,36.3833333 23.2936364,37.0144144 23.1709091,37.6400901 C23.0518182,37.6545045 22.93,37.6621622 22.8063636,37.6621622 L22.8063636,37.6621622 Z M32.755,31.0436937 C33.5754545,31.0436937 33.8177273,31.9900901 33.8177273,32.7878378 C33.8177273,34.9531532 32.2395455,38.3211712 30.2890909,38.3211712 C29.5009091,38.3211712 28.7936364,37.7144144 28.6936364,37.1594595 C28.7109091,37.1009009 28.7290909,37.0369369 28.7486364,36.968018 C29.6463636,34.3432432 30.8872727,31.0436937 32.755,31.0436937 L32.755,31.0436937 Z M47.7918182,41.0216216 C47.5586364,41.0216216 47.6118182,41.181982 47.5736364,41.3905405 C47.0713636,44.1522523 43.965,45.2603604 40.2168182,45.2603604 C38.0990909,45.2603604 31.1713636,43.9207207 29.0959091,43.8364865 C28.7468182,43.8225225 28.4118182,43.8162162 28.0890909,43.8171171 C28.0877273,43.8171171 28.0868182,43.8171171 28.0854545,43.8166667 C27.5709091,43.8108108 27.3559091,43.627027 27.3595455,43.1067568 C27.3681818,41.8648649 27.9331818,39.568018 28.2977273,38.336036 C28.8763636,39.3184685 30.0554545,39.8130631 30.8863636,39.8130631 C34.8181818,39.8130631 36.5945455,35.4216216 36.5945455,33.2459459 C36.5945455,30.9923423 35.5709091,29.5563063 33.4486364,29.5563063 C32.2068182,29.5563063 31.1836364,30.3085586 30.3754545,31.2972973 C30.4172727,30.8927928 28.945,30.3391892 28.1372727,30.3391892 C27.9686364,30.3391892 27.8536364,30.3896396 27.8295455,30.5045045 C27.665,31.2900901 27.4522727,32.4648649 27.1631818,33.7608108 C26.6527273,34.9486486 25.6854545,36.5720721 24.2877273,37.2923423 C24.375,36.7103604 24.4213636,36.1162162 24.4213636,35.5166667 C24.4213636,33.8720721 23.5409091,32.7567568 22.0009091,32.7567568 C20.2795455,32.7567568 19.1045455,34.4567568 19.1045455,35.9752252 C19.1045455,38.0540541 21.085,38.6058559 22.3463636,38.6058559 C22.5531818,38.6058559 22.7531818,38.5927928 22.9468182,38.568018 C22.1827273,41.2301802 20.4545455,43.568018 18.5613636,43.568018 C17.3609091,43.568018 16.6163636,42.2801802 16.6163636,40.5720721 C16.6163636,36.1220721 18.4109091,31.6684685 21.4372727,31.6684685 C21.8813636,31.6684685 22.1490909,31.7202703 22.3377273,31.7202703 C22.3868182,31.7202703 22.4709091,31.6648649 22.4990909,31.5779279 C22.5668182,31.3657658 21.1968182,29.8815315 19.1695455,29.8815315 C15.7727273,29.8815315 12.9559091,34.8626126 12.9559091,39.4301802 C12.9559091,43.1004505 15.3227273,45.140991 17.5759091,45.140991 C20.5431818,45.140991 23.205,42.0869369 24.1009091,38.2666667 C25.1245455,37.8518018 25.9109091,37.1166667 26.4859091,36.3972973 C26.4363636,36.5630631 26.3854545,36.7279279 26.3327273,36.8914414 C25.575,39.2441441 24.6963636,41.5923423 24.6963636,42.5707207 C24.6963636,43.1635135 25.2077273,43.6518018 25.625,43.9977477 C22.7845455,44.4527027 21.5354545,45.7166667 21.5354545,47.2400901 C21.5354545,48.6995495 23.2368182,49.7711712 25.0227273,49.8436937 C25.5018182,49.8630631 25.7718182,49.7171171 25.7827273,49.4531532 C25.7936364,49.1842342 24.4727273,48.8306306 24.4727273,47.3536036 C24.4727273,45.7648649 25.7895455,44.9436937 27.9113636,44.9436937 C32.7913636,45.1414414 38.0386364,48.4441441 43.0004545,48.4441441 C46.3609091,48.4441441 49.9768182,47.0441441 49.9768182,43.5045045 C49.9768182,41.9351351 48.3836364,41.0216216 47.7918182,41.0216216 L47.7918182,41.0216216 Z" id="Fill-5" sketch:type="MSShapeGroup"></path>
                <path d="M42.1909091,39.6490991 C41.83,39.6490991 41.5,39.4585586 41.5,39.0626126 C41.5,37.9846847 43.2481818,37.2045045 44.7118182,37.0963964 C44.1409091,38.5126126 43.1781818,39.6490991 42.1909091,39.6490991 L42.1909091,39.6490991 Z M46.2059091,29.6117117 C48.5772727,29.6117117 50.2368182,28.3567568 50.2368182,26.3445946 C50.2368182,25.1887387 49.1968182,24.3873874 48.1968182,24.3873874 C48.0454545,24.3873874 48.0654545,24.495045 48.0654545,24.6324324 C48.0654545,26.7297297 46.3627273,27.6684685 44.3609091,27.6684685 C42.9859091,27.6684685 41.55,27.5162162 40.2013636,27.5162162 C37.4268182,27.5162162 36.3518182,28.2747748 36.3518182,29.504955 C36.3518182,30.4653153 37.2440909,30.9761261 37.9727273,30.9761261 C38.1977273,30.9761261 38.2027273,30.8855856 38.2027273,30.7995495 C38.2027273,30.6675676 38.0431818,30.5238739 38.0431818,29.9815315 C38.0431818,29.1382883 38.6745455,28.5761261 40.0259091,28.477027 C39.7036364,30.3990991 38.8468182,32.7824324 38.2790909,34.8531532 C37.6086364,37.2986486 36.9186364,39.2436937 36.9186364,39.6 C36.9186364,40.7540541 38.3427273,41.6720721 38.7586364,41.6720721 C38.9645455,41.6720721 38.9727273,41.5225225 38.9754545,41.4193694 C38.98,41.2252252 39.0063636,41.0103604 39.0890909,40.6995495 C39.1572727,40.4423423 39.2304545,40.1513514 39.3063636,39.8391892 C40.1613636,37.1297297 42.0118182,32.7626126 44.0768182,32.7626126 C44.9140909,32.7626126 45.2395455,33.5342342 45.2395455,34.5387387 C45.2395455,35.0725225 45.1581818,35.6346847 45.0145455,36.1833333 C42.4627273,36.2671171 40.2622727,37.4941441 40.2622727,39.3828829 C40.2622727,40.4256757 41.2854545,41.136036 42.5572727,41.136036 C46.4140909,41.136036 48.03,37.3288288 48.03,34.9815315 C48.03,32.7554054 47.1531818,31.3743243 44.8781818,31.3743243 C43.1336364,31.3743243 41.6745455,32.8576577 40.65,34.3905405 C40.9913636,33.3738739 42.0195455,29.7576577 42.4209091,28.772973 C43.6595455,29.1135135 44.8940909,29.6117117 46.2059091,29.6117117 L46.2059091,29.6117117 Z" id="Fill-6" sketch:type="MSShapeGroup"></path>
                <path d="M31.7295455,23.0792793 C31.7295455,22.2045045 31.0413636,21.6617117 30.0163636,21.6617117 C28.9731818,21.6617117 28.1027273,22.5815315 28.1027273,23.2459459 C28.1027273,23.4490991 28.1936364,23.5364865 28.2790909,23.5364865 C28.3854545,23.5364865 28.4645455,23.4108108 28.5709091,23.290991 C28.7586364,23.0801802 29,22.8923423 29.3359091,22.8923423 C29.6631818,22.8923423 29.9118182,23.113964 29.9118182,23.3972973 C29.9118182,24.2094595 28.8390909,25.0225225 27.88,25.1391892 C27.7481818,25.1554054 27.705,25.2779279 27.705,25.4153153 C27.705,25.5153153 27.7127273,25.6774775 27.8904545,25.7279279 C28.5545455,25.9175676 28.93,26.2387387 28.93,26.8792793 C28.93,27.8896396 27.8081818,28.8 26.6436364,28.8 C25.2036364,28.8 24.4531818,27.6693694 24.4531818,26.3013514 C24.4531818,25.6990991 24.6436364,25.245045 24.7695455,24.9441441 C24.8468182,24.7594595 24.9027273,24.6256757 24.8945455,24.5175676 C24.8854545,24.4058559 24.7931818,24.3536036 24.7331818,24.3536036 C24.7077273,24.3536036 22.2045455,24.827027 22.2045455,26.895045 C22.2045455,28.6094595 23.7722727,29.5963964 26.1045455,29.5963964 C28.2245455,29.5963964 30.8981818,28.4900901 30.8981818,26.4986486 C30.8981818,26.0103604 30.5004545,25.2837838 29.8568182,25.0554054 C31.0995455,24.6554054 31.7295455,23.9581081 31.7295455,23.0792793" id="Fill-7" sketch:type="MSShapeGroup"></path>
                <path d="M34.3436364,24.8905405 C34.0418182,24.8905405 33.8386364,24.6405405 33.8336364,24.3581081 C33.8159091,23.3036036 34.8709091,22.1716216 36.0118182,22.1716216 C35.8022727,23.1198198 35.3381818,24.8905405 34.3436364,24.8905405 L34.3436364,24.8905405 Z M37.6836364,21.55 C37.6836364,21.3202703 36.8959091,21.0189189 36.5377273,21.0189189 L36.5263636,21.0189189 C36.3713636,21.0189189 36.3395455,21.1738739 36.2104545,21.4720721 C36.0690909,21.4612613 35.9413636,21.4585586 35.8531818,21.4585586 C35.8322727,21.4585586 35.8118182,21.459009 35.7927273,21.459009 C34.9786364,21.4711712 34.0168182,21.8184685 33.3059091,22.3882883 C32.5131818,23.0238739 32.0959091,23.9599099 32.0959091,24.7954955 C32.0959091,25.7716216 32.75,26.336036 33.6309091,26.336036 C34.7418182,26.3198198 35.4113636,25.5009009 35.7018182,24.8076577 C35.7018182,25.545045 36.5581818,26.4103604 37.9145455,26.4103604 C37.9286364,26.4103604 37.8918182,26.4099099 37.9063636,26.4099099 C40.4663636,26.4099099 43.08,24.2801802 43.08,22.0536036 C43.08,20.4824324 41.5418182,19.6351351 40.0454545,19.6351351 C39.875,19.6378378 39.8404545,19.7202703 39.8404545,19.827027 C39.8404545,20.0130631 40.8440909,20.4108108 40.8440909,22.0346847 C40.8440909,23.9783784 39.6186364,25.6468468 38.055,25.6468468 L38.0431818,25.6468468 C37.385,25.6468468 37.0227273,25.1013514 37.0077273,24.4004505 C36.9927273,23.6864865 37.2977273,22.6716216 37.48,22.1234234 C37.5840909,21.8108108 37.6836364,21.631982 37.6836364,21.55 L37.6836364,21.55 Z" id="Fill-8" sketch:type="MSShapeGroup"></path>
                <path d="M71.0913636,28.2459459 C71.0913636,28.0936937 70.3186364,28.0824324 68.8190909,27.7536036 C67.5490909,27.4752252 66.5318182,26.8063063 65.2545455,26.8063063 C62.0913636,26.8063063 60.3277273,30.6274775 60.3277273,32.9518018 C60.3277273,33.2941441 60.5090909,33.4563063 60.7604545,33.4563063 C61.1840909,33.4563063 61.5986364,32.5337838 63.0290909,32.5337838 C64.0777273,32.5337838 65.5368182,33.7126126 67.0104545,33.7126126 C67.3390909,33.7126126 67.4372727,33.6171171 67.4181818,33.45 C67.4059091,33.3436937 66.5054545,32.5662162 66.5054545,32.3076577 C66.5054545,32.0684685 69.5395455,32.9900901 69.5395455,32.1346847 C69.5395455,32.0490991 67.5881818,31.1891892 67.5881818,30.9315315 C67.5881818,30.7040541 70.4968182,30.9058559 70.4968182,29.9581081 C70.4968182,29.8671171 68.6004545,29.6445946 68.6004545,29.3711712 C68.6004545,29.0621622 71.0913636,29.1130631 71.0913636,28.2459459" id="Fill-9" sketch:type="MSShapeGroup"></path>
                <path d="M7.21636364,36.072973 C4.79454545,36.072973 3.53863636,38.0572072 2.16636364,39.2135135 C1.04818182,40.1554054 0.0595454545,40.5369369 0.0595454545,40.6824324 C0.0595454545,41.2846847 2.88727273,40.4256757 2.88727273,40.7441441 C2.88727273,41.0175676 1.37227273,41.9509009 1.37227273,42.0423423 C1.37227273,42.6864865 4.36681818,41.3351351 4.36681818,41.6342342 C4.36681818,42.018018 3.29272727,43.0400901 3.29272727,43.1707207 C3.29272727,43.6914414 5.67681818,42.2918919 5.96227273,42.3725225 C6.21318182,42.4432432 5.20045455,43.6936937 5.23818182,43.7936937 C5.29818182,43.9513514 5.8,43.8990991 6.11090909,43.7945946 C7.56636364,43.3054054 8.47136364,40.9481982 10.1540909,40.9481982 C10.8918182,40.9481982 11.2995455,41.2810811 11.6131818,41.2810811 C11.8640909,41.2810811 12.0336364,41.2166667 12.0336364,40.8072072 C12.0336364,38.8513514 10.1577273,36.072973 7.21636364,36.072973" id="Fill-10" sketch:type="MSShapeGroup"></path>
            </g>
        </g>
    </g>
</svg>