<?xml version="1.0" encoding="UTF-8" standalone="no"?>
<svg width="55px" height="51px" viewBox="0 0 55 51" version="1.1" xmlns="http://www.w3.org/2000/svg" xmlns:xlink="http://www.w3.org/1999/xlink" xmlns:sketch="http://www.bohemiancoding.com/sketch/ns">
    <!-- Generator: Sketch 3.3.3 (12072) - http://www.bohemiancoding.com/sketch -->
    <title>home copy 2</title>
    <desc>Created with Sketch.</desc>
    <defs></defs>
    <g id="Page-1" stroke="none" stroke-width="1" fill="none" fill-rule="evenodd" sketch:type="MSPage">
        <g id="Artboard-1" sketch:type="MSArtboardGroup" transform="translate(-62.000000, -443.000000)" fill="#00E676">
            <path d="M62.4329472,471.393244 C61.8556843,470.815612 61.8556843,469.879869 62.4329472,469.302606 L88.3026062,443.432947 C88.8802387,442.855684 89.8159812,442.855684 90.3932442,443.432947 L116.262903,469.302606 C116.840536,469.880239 116.840536,470.816351 116.262903,471.393244 C115.974272,471.681506 115.595835,471.826007 115.217769,471.826007 C114.839702,471.826007 114.461266,471.681506 114.172265,471.393244 L89.34811,446.568719 L64.5239548,471.393244 C63.9463223,471.970507 63.0105797,471.970507 62.4329472,471.393244 L62.4329472,471.393244 Z M88.5280418,486.36032 C82.7539339,482.510915 76.782847,478.530314 76.782847,472.195573 C76.782847,466.51164 80.5479911,463.537737 84.2673089,463.537737 C86.1679897,463.537737 88.0823445,464.333045 89.34811,465.883007 C90.6138754,464.333414 92.5278606,463.537737 94.428911,463.537737 C98.1482288,463.537737 101.913373,466.51164 101.913373,472.195573 C101.913373,478.530314 95.942286,482.510915 90.1681781,486.36032 C89.9198294,486.525516 89.6341545,486.608669 89.34811,486.608669 C89.062435,486.608669 88.7763905,486.525516 88.5280418,486.36032 L88.5280418,486.36032 Z M89.34811,483.352418 C94.2053232,480.10208 98.9568404,476.693937 98.9568404,472.195573 C98.9568404,468.257102 96.6825278,466.49427 94.428911,466.49427 C92.635774,466.49427 90.8263762,467.685752 90.8263762,470.34774 C90.8263762,471.164113 90.1644825,471.826007 89.34811,471.826007 C88.5317374,471.826007 87.8698437,471.164113 87.8698437,470.34774 C87.8698437,467.685752 86.0604459,466.49427 84.2673089,466.49427 C82.0136921,466.49427 79.7393795,468.257102 79.7393795,472.195573 C79.7393795,476.694676 84.4912663,480.10245 89.34811,483.352418 L89.34811,483.352418 Z M69.0219494,472.56514 C68.2055768,472.56514 67.5436831,473.227033 67.5436831,474.043406 L67.5436831,492.521734 C67.5436831,493.338106 68.2055768,494 69.0219494,494 L109.674271,494 C110.490643,494 111.152537,493.338106 111.152537,492.521734 L111.152537,474.043406 C111.152537,473.227033 110.490643,472.56514 109.674271,472.56514 C108.857898,472.56514 108.196004,473.227033 108.196004,474.043406 L108.196004,491.043468 L70.5002156,491.043468 L70.5002156,474.043406 C70.5002156,473.227033 69.8383219,472.56514 69.0219494,472.56514 L69.0219494,472.56514 Z" id="home-copy-2" sketch:type="MSShapeGroup"></path>
        </g>
    </g>
</svg>