<?xml version="1.0" encoding="UTF-8" standalone="no"?>
<svg width="46px" height="42px" viewBox="0 0 46 42" version="1.1" xmlns="http://www.w3.org/2000/svg" xmlns:xlink="http://www.w3.org/1999/xlink" xmlns:sketch="http://www.bohemiancoding.com/sketch/ns">
    <!-- Generator: Sketch 3.3.3 (12072) - http://www.bohemiancoding.com/sketch -->
    <title>home copy</title>
    <desc>Created with Sketch.</desc>
    <defs></defs>
    <g id="Page-1" stroke="none" stroke-width="1" fill="none" fill-rule="evenodd" sketch:type="MSPage">
        <g id="Artboard-1" sketch:type="MSArtboardGroup" transform="translate(-260.000000, -11.000000)" fill="#FFFFFF">
            <path d="M260.356545,34.3826717 C259.881152,33.9069743 259.881152,33.1363628 260.356545,32.6609698 L281.66097,11.3565448 C282.136667,10.8811517 282.907279,10.8811517 283.382672,11.3565448 L304.687097,32.6609698 C305.162794,33.1366672 305.162794,33.907583 304.687097,34.3826717 C304.4494,34.6200638 304.137747,34.7390643 303.826398,34.7390643 C303.515049,34.7390643 303.203396,34.6200638 302.965395,34.3826717 L282.521973,13.9389454 L262.078551,34.3826717 C261.602854,34.8580647 260.832242,34.8580647 260.356545,34.3826717 L260.356545,34.3826717 Z M281.846623,46.7084989 C277.091475,43.5384005 272.174109,40.2602582 272.174109,35.0434132 C272.174109,30.3625267 275.274816,27.9134308 278.337784,27.9134308 C279.90305,27.9134308 281.479578,28.5683897 282.521973,29.8448291 C283.564368,28.5686941 285.140591,27.9134308 286.706162,27.9134308 C289.76913,27.9134308 292.869836,30.3625267 292.869836,35.0434132 C292.869836,40.2602582 287.952471,43.5384005 283.197323,46.7084989 C282.992801,46.8445429 282.757539,46.9130214 282.521973,46.9130214 C282.286711,46.9130214 282.051145,46.8445429 281.846623,46.7084989 L281.846623,46.7084989 Z M282.521973,44.231403 C286.522031,41.5546542 290.435045,38.7479484 290.435045,35.0434132 C290.435045,31.7999667 288.562082,30.3482223 286.706162,30.3482223 C285.229461,30.3482223 283.739369,31.3294432 283.739369,33.5216686 C283.739369,34.1939753 283.19428,34.7390643 282.521973,34.7390643 C281.849666,34.7390643 281.304577,34.1939753 281.304577,33.5216686 C281.304577,31.3294432 279.814485,30.3482223 278.337784,30.3482223 C276.481864,30.3482223 274.608901,31.7999667 274.608901,35.0434132 C274.608901,38.7485571 278.522219,41.5549585 282.521973,44.231403 L282.521973,44.231403 Z M265.782782,35.3477621 C265.110475,35.3477621 264.565386,35.8928511 264.565386,36.5651578 L264.565386,51.7826043 C264.565386,52.4549111 265.110475,53 265.782782,53 L299.261164,53 C299.933471,53 300.47856,52.4549111 300.47856,51.7826043 L300.47856,36.5651578 C300.47856,35.8928511 299.933471,35.3477621 299.261164,35.3477621 C298.588857,35.3477621 298.043768,35.8928511 298.043768,36.5651578 L298.043768,50.5652086 L267.000178,50.5652086 L267.000178,36.5651578 C267.000178,35.8928511 266.455089,35.3477621 265.782782,35.3477621 L265.782782,35.3477621 Z" id="home-copy" sketch:type="MSShapeGroup"></path>
        </g>
    </g>
</svg>