<?xml version="1.0" encoding="UTF-8" standalone="no"?>
<svg width="200px" height="180px" viewBox="0 0 200 180" version="1.1" xmlns="http://www.w3.org/2000/svg" xmlns:xlink="http://www.w3.org/1999/xlink" xmlns:sketch="http://www.bohemiancoding.com/sketch/ns">
    <!-- Generator: Sketch 3.3.3 (12072) - http://www.bohemiancoding.com/sketch -->
    <title>logo_BP</title>
    <desc>Created with Sketch.</desc>
    <defs></defs>
    <g id="Page-1" stroke="none" stroke-width="1" fill="none" fill-rule="evenodd" sketch:type="MSPage">
        <g id="logo_BP" sketch:type="MSLayerGroup">
            <path d="M0.0355029586,0.35147929 L199.722485,0.35147929 L199.722485,179.049704 L0.0355029586,179.049704 L0.0355029586,0.35147929 Z" id="Fill-1" fill="#FFFFFF" sketch:type="MSShapeGroup"></path>
            <path d="M33.8852071,14.7183432 C33.8852071,15.0633136 33.8615385,15.2857988 33.8159763,15.3751479 C33.7710059,15.4692308 33.5946746,15.5136095 33.2940828,15.5136095 C32.9727811,15.5136095 31.5449704,15.464497 29.0065089,15.3579882 C26.4686391,15.2538462 25.0508876,15.2023669 24.7532544,15.2023669 C24.335503,15.2023669 23.3526627,15.3260355 21.7970414,15.583432 C20.2378698,15.8343195 18.6751479,16.1218935 17.1118343,16.4467456 C17.1118343,18.0852071 17.0047337,19.7976331 16.8011834,21.5822485 C16.5905325,23.3692308 16.3822485,25.1739645 16.1786982,26.995858 C17.4680473,26.7431953 18.7680473,26.5366864 20.0816568,26.3710059 C21.3994083,26.212426 22.4579882,26.135503 23.2668639,26.135503 C25.504142,26.135503 27.3988166,26.7952663 28.9550296,28.1195266 C30.5100592,29.4473373 31.2923077,31.1207101 31.2923077,33.1508876 C31.2923077,35.2745562 29.6390533,36.9928994 26.3443787,38.3065089 C23.8301775,39.2952663 21.5591716,39.7934911 19.5289941,39.7934911 C19.0242604,39.7934911 18.5331361,39.804142 18.0597633,39.8284024 C17.5857988,39.8485207 17.1431953,39.8733728 16.7284024,39.8976331 C15.8952663,39.8976331 15.2656805,39.8485207 14.8266272,39.7591716 C14.3869822,39.6650888 14.1698225,39.491716 14.1698225,39.2408284 C14.1698225,39.008284 14.2491124,38.8147929 14.4112426,38.6514793 C14.1591716,37.9153846 13.9757396,36.7923077 13.8585799,35.2775148 C13.7408284,33.7704142 13.6816568,31.916568 13.6816568,29.7278107 C13.2467456,29.7278107 12.9147929,29.7029586 12.6828402,29.6585799 C12.0159763,29.5195266 11.6798817,29.2195266 11.6798817,28.7633136 C11.6798817,28.3242604 11.8869822,28.0094675 12.3023669,27.8266272 C12.4621302,27.7568047 12.9248521,27.6431953 13.6816568,27.4769231 C13.6816568,26.8343195 13.7301775,25.9005917 13.8242604,24.6804734 C14.052071,21.612426 14.1698225,19.0686391 14.1698225,17.0343195 C13.5680473,16.9443787 13.2118343,16.8852071 13.0976331,16.8621302 C12.6343195,16.7236686 12.4023669,16.4467456 12.4023669,16.0319527 C12.4023669,15.804142 12.6272189,15.5615385 13.0804734,15.3059172 C13.5301775,15.0532544 13.9171598,14.9017751 14.2384615,14.8568047 C14.2384615,14.416568 14.3426036,14.0366864 14.5502959,13.7147929 C14.7573964,13.3899408 15.0236686,13.2313609 15.3449704,13.2313609 C15.8952663,13.2313609 16.295858,13.3278107 16.5384615,13.5260355 C16.7798817,13.7224852 16.9360947,14.0053254 17.0047337,14.3715976 C17.6065089,14.1656805 18.7059172,13.9745562 20.3071006,13.7988166 C21.9112426,13.6284024 23.1633136,13.5431953 24.0621302,13.5431953 C26.8278107,13.5431953 28.8680473,13.5905325 30.1857988,13.6804734 C32.6508876,13.8633136 33.8852071,14.2130178 33.8852071,14.7183432 L33.8852071,14.7183432 Z M29.1443787,33.1508876 C29.1443787,31.5846154 28.4526627,30.3224852 27.0710059,29.3656805 C25.687574,28.4071006 23.9786982,27.9301775 21.9497041,27.9301775 C20.7982249,27.9301775 19.7609467,28.0295858 18.8372781,28.2408284 C18.2639053,28.3792899 17.3751479,28.6591716 16.1786982,29.0710059 C15.9674556,30.5680473 15.8639053,32.3556213 15.8639053,34.4343195 C15.8639053,34.9627219 15.9159763,35.6792899 16.0195266,36.5769231 C16.1230769,37.4763314 16.1786982,38.0189349 16.1786982,38.2029586 L19.5289941,38.2029586 C21.0745562,38.2029586 22.9763314,37.7047337 25.2378698,36.7153846 C27.8443787,35.560355 29.1443787,34.3751479 29.1443787,33.1508876 L29.1443787,33.1508876 Z" id="Fill-3" fill="#1A1918" sketch:type="MSShapeGroup"></path>
            <path d="M58.639645,26.6118343 C58.639645,29.6828402 57.3840237,32.4248521 54.8704142,34.8485207 C52.3568047,37.2686391 49.4763314,38.4792899 46.2218935,38.4792899 C43.5946746,38.4792899 41.5852071,37.3721893 40.2059172,35.1609467 C38.9331361,33.1266272 38.3047337,30.443787 38.3047337,27.1 C38.3047337,24.9313609 39.0994083,22.6011834 40.6905325,20.0982249 C42.2804734,17.5946746 43.8473373,16.3426036 45.3928994,16.3426036 C46.2467456,16.3426036 46.847929,16.5088757 47.2076923,16.8449704 C47.5639053,17.1798817 47.743787,17.6810651 47.743787,18.347929 C47.743787,19.0887574 47.5988166,19.7005917 47.3112426,20.1816568 C47.0213018,20.6650888 46.6964497,20.9076923 46.3260355,20.9076923 C46.1846154,20.9076923 46.1189349,20.816568 46.1189349,20.6349112 C46.1189349,20.5656805 46.1532544,20.3923077 46.2218935,20.1118343 C46.2911243,19.8349112 46.3260355,19.6420118 46.3260355,19.5248521 C46.3260355,19.2964497 46.2331361,19.0887574 46.0497041,18.9023669 C45.7970414,18.6497041 45.4721893,18.5213018 45.0781065,18.5213018 C44.3207101,18.5213018 43.4319527,19.4136095 42.4189349,21.183432 C41.2881657,23.143787 40.7248521,25.139645 40.7248521,27.1692308 C40.7248521,29.3609467 41.0461538,31.2177515 41.6928994,32.7366864 C42.7301775,35.2053254 44.483432,36.439645 46.9485207,36.439645 C49.6005917,36.439645 51.8857988,35.4289941 53.8153846,33.4106509 C55.7378698,31.3934911 56.6994083,29.0710059 56.6994083,26.4402367 C56.6994083,24.8970414 56.3704142,23.456213 55.6964497,22.1207101 C55.1195266,20.9899408 53.7739645,19.8698225 51.6508876,18.7639053 C49.6911243,17.7502959 48.7118343,17.0905325 48.7118343,16.7928994 C48.7118343,16.5650888 48.7704142,16.3568047 48.8846154,16.1710059 C49.0017751,15.987574 49.1852071,15.8934911 49.4378698,15.8934911 C50.1532544,15.8934911 51.3159763,16.3426036 52.9331361,17.2420118 C54.9153846,18.347929 56.308284,19.5721893 57.1177515,20.9076923 C57.6946746,21.8349112 58.0928994,22.7325444 58.3106509,23.6047337 C58.5254438,24.4828402 58.639645,25.4857988 58.639645,26.6118343" id="Fill-4" fill="#1A1918" sketch:type="MSShapeGroup"></path>
            <path d="M84.9420118,39.1710059 C84.9420118,39.7029586 84.8,39.9650888 84.5230769,39.9650888 C84.2017751,39.9650888 83.8177515,39.6650888 83.3786982,39.0674556 C82.6662722,38.1230769 81.6053254,36.1869822 80.2011834,33.2579882 C79.4366864,31.6189349 78.6792899,29.9727811 77.9195266,28.3100592 C77.0650888,26.4431953 76.4840237,25.2017751 76.1869822,24.5792899 C75.360355,22.8266272 74.5272189,21.0597633 73.6970414,19.2863905 C73.0508876,20.8514793 72.4177515,22.4106509 71.7952663,23.9544379 C71.5431953,24.4857988 71.2627219,25.1639053 70.9656805,25.9970414 C70.2739645,27.8366864 69.8449704,28.9568047 69.6863905,29.3508876 L67.0934911,34.8485207 C66.8372781,35.3118343 66.5704142,35.9 66.2976331,36.6112426 C66.0177515,37.3278107 65.8786982,37.8461538 65.8786982,38.1680473 C65.8786982,38.4236686 65.7585799,38.6313609 65.516568,38.8118343 C65.2739645,38.9804734 65.039645,39.0674556 64.8076923,39.0674556 C64.5343195,39.0674556 64.2923077,38.9189349 64.0852071,38.6171598 C63.8733728,38.3213018 63.7733728,38.0065089 63.7733728,37.6846154 C63.7733728,37.2236686 64.2094675,35.9491124 65.0840237,33.8597633 C65.9621302,31.7751479 66.8272189,29.7177515 67.6810651,27.6923077 C67.9816568,26.9715976 68.8076923,25.0153846 70.1668639,21.8100592 C71.0905325,19.6633136 71.6467456,18.2928994 71.8301775,17.6911243 C71.9680473,16.9100592 72.1065089,16.1491124 72.2414201,15.4100592 C72.383432,14.6739645 72.635503,14.3023669 73.0053254,14.3023669 C73.3757396,14.3023669 73.7313609,14.4556213 74.0775148,14.7532544 C74.5615385,15.1674556 74.9213018,15.7449704 75.1491124,16.4810651 C75.864497,17.7994083 76.6502959,19.5869822 77.504142,21.8449704 C78.6792899,24.9781065 79.4615385,27.0106509 79.8556213,27.9301775 C80.4775148,29.3857988 81.1934911,30.9763314 81.9994083,32.7047337 C82.6662722,34.1573964 83.3230769,35.5893491 83.9704142,36.9928994 C84.6136095,38.4005917 84.9420118,39.1266272 84.9420118,39.1710059" id="Fill-5" fill="#1A1918" sketch:type="MSShapeGroup"></path>
            <path d="M107.663905,33.0715976 C107.663905,35.1940828 106.015385,36.9136095 102.720118,38.2230769 C100.207101,39.2189349 97.935503,39.7100592 95.9059172,39.7100592 L95.0757396,39.7100592 C94.5224852,39.7100592 93.9852071,39.6828402 93.464497,39.6278107 C92.9485207,39.5680473 92.5272189,39.4816568 92.2053254,39.3674556 C90.7745562,39.3674556 90.0597633,36.1278107 90.0597633,29.6485207 C89.6195266,29.6485207 89.2887574,29.6278107 89.056213,29.5786982 C88.3887574,29.4402367 88.0568047,29.1431953 88.0568047,28.6792899 C88.0568047,28.2408284 88.2609467,27.9301775 88.6798817,27.7467456 C88.8420118,27.6775148 89.2994083,27.560355 90.0597633,27.4005917 C90.0597633,26.7550296 90.152071,24.8076923 90.3384615,21.5573964 C90.5218935,18.3029586 90.6159763,16.0319527 90.6159763,14.7426036 C90.6159763,14.3715976 90.7224852,14.012426 90.9390533,13.6674556 C91.1615385,13.3248521 91.4213018,13.1491124 91.7218935,13.1491124 C92.2502959,13.1491124 92.6763314,13.4840237 93.0005917,14.1508876 C93.3213018,14.8224852 93.4846154,15.5615385 93.4846154,16.3668639 C93.4846154,17.0585799 93.3260355,18.9295858 93.0183432,21.9692308 C92.7065089,25.0153846 92.5502959,26.6508876 92.5502959,26.8822485 C93.4946746,26.7230769 94.4532544,26.5573964 95.4207101,26.3982249 C97.0360947,26.1656805 98.443787,26.052071 99.639645,26.052071 C101.876923,26.052071 103.773964,26.7159763 105.330769,28.039645 C106.886982,29.3656805 107.663905,31.0455621 107.663905,33.0715976 L107.663905,33.0715976 Z M105.521302,33.0715976 C105.521302,31.5047337 104.829586,30.2431953 103.442012,29.2857988 C102.063314,28.3272189 100.355621,27.8508876 98.3254438,27.8508876 C97.1704142,27.8508876 96.1337278,27.9544379 95.2130178,28.1609467 C94.639645,28.3 93.7514793,28.5769231 92.5502959,28.9911243 C92.3443787,30.4911243 92.2402367,32.2763314 92.2402367,34.3502959 L92.7236686,37.8781065 C93.3674556,37.9473373 93.9420118,38.0065089 94.4360947,38.0508876 C94.9295858,38.0988166 95.4207101,38.1230769 95.9059172,38.1230769 C97.447929,38.1230769 99.3532544,37.6278107 101.614793,36.6331361 C104.21716,35.4810651 105.521302,34.295858 105.521302,33.0715976 L105.521302,33.0715976 Z" id="Fill-6" fill="#1A1918" sketch:type="MSShapeGroup"></path>
            <path d="M140.167456,16.1431953 C139.498817,18.4 138.908284,20.5757396 138.404142,22.660355 C137.895858,24.7455621 137.642012,26.5497041 137.642012,28.0715976 L137.642012,37.2727811 C138.057988,37.3177515 138.29645,37.3426036 138.369822,37.3426036 C138.670414,37.3177515 138.853254,37.3076923 138.921302,37.3076923 C139.016568,37.3076923 139.064497,37.4461538 139.064497,37.7260355 C139.064497,38.3242604 138.990533,38.6905325 138.853254,38.8289941 C138.714793,38.9662722 138.392899,39.035503 137.884615,39.035503 C136.61716,39.035503 135.043195,38.9976331 133.16213,38.9147929 C131.284024,38.8349112 129.340237,38.7597633 127.336686,38.6905325 L117.131953,38.6905325 C116.762722,38.7136095 116.475148,38.7254438 116.268639,38.7254438 C115.808284,38.7254438 115.433728,38.6514793 115.143787,38.5201183 C114.856805,38.3792899 114.712426,38.1130178 114.712426,37.7260355 C114.712426,37.560355 114.842012,37.4213018 115.109467,37.3076923 C115.376331,37.1893491 115.714201,37.1343195 116.133136,37.1343195 C116.084024,36.9029586 116.060947,36.5467456 116.060947,36.0585799 C116.060947,34.7721893 116.104142,33.4106509 116.199408,31.9828402 C116.288757,30.5508876 116.475148,28.860355 116.75503,26.8964497 C117.166864,24.683432 117.466864,23.0573964 117.650296,22.0213018 C117.995266,20.1295858 118.168639,18.3769231 118.168639,16.7656805 C118.168639,16.5088757 118.286982,16.1710059 118.517751,15.7420118 C118.746154,15.3201183 118.973964,15.1053254 119.206509,15.1053254 C119.670414,15.1053254 119.967456,15.2710059 120.108876,15.6065089 C120.247929,15.9384615 120.316568,16.4289941 120.316568,17.0763314 L120.316568,18.1142012 C120.316568,18.8751479 120.059763,20.6035503 119.551479,23.3 C119.231361,24.983432 119.013018,26.3088757 118.89645,27.2763314 C118.642012,29.1431953 118.401183,31.0284024 118.168639,32.9325444 C117.937278,34.8343195 117.823669,36.2112426 117.823669,37.0650888 L120.002367,36.9609467 C120.810651,36.891716 121.606509,36.8615385 122.386982,36.8615385 C122.850888,36.8615385 123.484615,36.8686391 124.289941,36.891716 C125.098817,36.916568 125.651479,36.9236686 125.953254,36.9236686 C125.814793,36.2112426 125.70355,35.3538462 125.62426,34.3502959 C125.54497,33.3485207 125.502959,32.3035503 125.502959,31.2177515 C125.502959,30.6443787 125.6,29.5585799 125.797633,27.9674556 C125.994083,26.3769231 126.253846,24.7426036 126.574556,23.0573964 C126.802367,21.8372781 127.024852,20.5544379 127.232544,19.2201183 C127.34497,18.4810651 127.456213,17.7502959 127.556213,17.0213018 C127.663905,16.2946746 127.871006,15.7550296 128.182249,15.3952663 C128.494675,15.0402367 128.869822,14.8627219 129.305917,14.8627219 C129.490533,14.8627219 129.666864,14.9538462 129.825444,15.1372781 C129.984615,15.3230769 130.068047,15.5266272 130.068047,15.7621302 C130.068047,16.0798817 129.967456,16.8751479 129.756213,18.1491124 C129.548521,19.4136095 129.27574,21.0248521 128.947929,22.9710059 C128.607101,24.9189349 128.383432,26.239645 128.269231,26.9313609 C127.810059,29.4692308 127.577515,30.9 127.577515,31.2177515 C127.577515,32.0970414 127.567456,32.8230769 127.543195,33.4005917 C127.453254,35.7485207 127.405917,36.9378698 127.405917,36.9609467 C129.227811,36.9609467 130.792899,36.9715976 132.106509,36.995858 C133.42071,37.0201183 134.57574,37.0402367 135.568639,37.0650888 C135.519527,36.9029586 135.499408,36.7295858 135.499408,36.5467456 L135.499408,36.0976331 C135.499408,35.9343195 135.509467,35.6224852 135.53432,35.1633136 C135.554438,34.7029586 135.568639,34.2988166 135.568639,33.9538462 L135.568639,27.7988166 C135.568639,24.9142012 135.876331,22.1721893 136.501775,19.5668639 C137.217751,16.5431953 138.068047,15.0331361 139.064497,15.0331361 C139.336686,15.0331361 139.589941,15.1372781 139.822485,15.347929 C140.053254,15.5514793 140.167456,15.8171598 140.167456,16.1431953" id="Fill-7" fill="#1A1918" sketch:type="MSShapeGroup"></path>
            <path d="M166.489941,38.4177515 C166.489941,38.9485207 166.353254,39.2118343 166.078698,39.2118343 C165.750888,39.2118343 165.369822,38.9118343 164.934911,38.3136095 C164.381065,37.5727811 163.655621,36.3633136 162.756805,34.6828402 C161.856805,32.9946746 160.969231,31.1775148 160.089941,29.216568 C159.308876,29.3337278 157.915385,29.5863905 155.907101,29.9775148 C154.660947,30.2331361 153.289941,30.5059172 151.792308,30.8106509 C151.604734,30.8508876 151.491124,30.8757396 151.446154,30.8757396 C151.214793,30.8757396 150.85858,30.6443787 150.370414,30.1840237 L148.64497,34.0952663 C148.389349,34.5544379 148.123669,35.1431953 147.846746,35.8579882 C147.573964,36.5739645 147.435503,37.0893491 147.435503,37.4147929 C147.435503,37.6668639 147.313609,37.8810651 147.072781,38.0508876 C146.830178,38.2230769 146.595266,38.3136095 146.363905,38.3136095 C146.084024,38.3136095 145.844379,38.160355 145.633728,37.8633136 C145.429586,37.5633136 145.323077,37.2508876 145.323077,36.9307692 C145.323077,36.4674556 145.761538,35.1940828 146.639645,33.1059172 C147.514793,31.0213018 148.37929,28.9639053 149.232544,26.9343195 C149.530178,26.2177515 150.363314,24.2615385 151.723077,21.052071 C152.645562,18.908284 153.198817,17.539645 153.382249,16.9372781 C153.52071,16.1538462 153.659172,15.3952663 153.800592,14.656213 C153.934911,13.9153846 154.187574,13.5491124 154.557396,13.5491124 C154.92426,13.5491124 155.283432,13.6976331 155.630178,13.9994083 C156.113609,14.4136095 156.470414,14.9911243 156.701183,15.7272189 C157.30355,16.8349112 158.022485,18.4662722 158.862722,20.6207101 C159.707101,22.7775148 160.553254,24.9633136 161.407692,27.1763314 L163.171006,27.1763314 C163.492899,27.1763314 163.77574,27.2313609 164.017751,27.3485207 C164.260947,27.4621302 164.381065,27.6502959 164.381065,27.9029586 C164.381065,28.039645 164.323077,28.143787 164.204734,28.2130178 C163.83787,28.3272189 163.586391,28.3964497 163.448521,28.4207101 L162.129586,28.7313609 C162.223669,28.9639053 162.756805,30.1147929 163.72071,32.1934911 C165.567456,36.135503 166.489941,38.2094675 166.489941,38.4177515 L166.489941,38.4177515 Z M159.467456,27.556213 C158.61716,25.6893491 158.039645,24.4408284 157.742012,23.8183432 C156.909467,22.0686391 156.078698,20.3059172 155.253254,18.5284024 C154.60355,20.0982249 153.969822,21.6538462 153.347337,23.195858 C153.094675,23.7491124 152.776923,24.5313609 152.397633,25.5337278 C152.016568,26.5366864 151.631953,27.556213 151.23787,28.5940828 C151.954438,28.4804734 153.372189,28.2899408 155.491124,28.0224852 C157.615385,27.7568047 158.939053,27.6053254 159.467456,27.556213 L159.467456,27.556213 Z" id="Fill-8" fill="#1A1918" sketch:type="MSShapeGroup"></path>
            <path d="M188.045562,16.8100592 C187.769822,19.1408284 187.554438,21.183432 187.405917,22.947929 C187.254438,24.7106509 187.177515,26.2177515 187.177515,27.4621302 L186.592899,36.660355 C186.592899,38.3887574 186.302959,39.2538462 185.729586,39.2538462 C185.404734,39.2538462 185.165089,39.0183432 185.00355,38.5491124 C184.837278,38.0739645 184.757988,37.4213018 184.757988,36.5911243 L184.964497,29.8840237 C184.574556,30.208284 183.730178,30.8307692 182.440828,31.7502959 C180.594083,33.064497 179.478107,33.8597633 179.086982,34.1372781 C178.395266,34.6236686 177.163905,35.5331361 175.386391,36.8715976 C172.872781,38.7627219 171.328402,39.7029586 170.750296,39.7029586 C170.636686,39.7029586 170.507692,39.6550296 170.369822,39.5508876 C170.234911,39.4467456 170.176331,39.3473373 170.197633,39.2538462 C170.245562,39.0254438 171.687574,37.8059172 174.523077,35.5923077 C176.226627,34.2745562 177.565089,33.1928994 178.537278,32.3384615 C179.225444,31.7159763 179.91716,31.0934911 180.608876,30.4710059 C182.108876,29.1573964 183.008284,28.3372781 183.308284,28.016568 L182.85503,28.016568 C181.704142,28.016568 180.584615,27.947929 179.505325,27.8088757 C177.586982,27.4869822 176.214201,27.0307692 175.383432,26.4402367 C174.553254,25.8514793 174.139053,25.0627219 174.139053,24.0739645 C174.139053,21.7928994 175.511834,19.5869822 178.253846,17.4674556 C180.860947,15.4372781 183.330178,14.4207101 185.660355,14.4207101 C185.913018,14.4207101 186.108876,14.4337278 186.243787,14.4585799 C187.443195,14.5727811 188.045562,15.3579882 188.045562,16.8100592 L188.045562,16.8100592 Z M185.863905,17.6408284 C185.863905,17.3662722 185.801775,17.1035503 185.673373,16.8621302 C185.549112,16.6201183 185.35858,16.4988166 185.107101,16.4988166 C183.446746,16.4988166 181.604734,17.3112426 179.588166,18.9372781 C177.572781,20.5615385 176.563314,22.1248521 176.563314,23.6218935 C176.563314,24.2686391 176.666864,24.7325444 176.873373,25.008284 C177.312426,25.5609467 178.231953,25.9420118 179.644379,26.1485207 C180.100592,26.2177515 180.978698,26.3047337 182.267456,26.4088757 C183.560947,26.512426 184.480473,26.564497 185.03787,26.564497 C185.03787,26.3366864 185.127219,25.5130178 185.311243,24.1053254 C185.427811,23.2307692 185.487574,22.5940828 185.487574,22.204142 L185.863905,17.6408284 L185.863905,17.6408284 Z" id="Fill-9" fill="#1A1918" sketch:type="MSShapeGroup"></path>
            <path d="M11.1301775,44.6964497 L188.592899,44.6964497 L188.592899,138.130178 L11.1301775,138.130178 L11.1301775,44.6964497 Z" id="Fill-10" fill="#008CC1" sketch:type="MSShapeGroup"></path>
            <path d="M175.007101,79.2810651 C160.729586,74.1627219 143.807101,73.8349112 136.630178,74.1627219 C107.005325,75.4840237 99.3272189,84.3976331 99.3272189,84.3976331 C99.3272189,84.3976331 96.3544379,78.5372781 76.6331361,75.5656805 C41.0668639,70.7810651 23.9029586,79.1142012 23.9029586,79.1142012 L37.0218935,88.7680473 L23.9822485,128.21716 L44.2029586,99.6639053 C44.2029586,99.6639053 54.6798817,113.939645 62.1106509,124.008284 C84.6408284,125.412426 89.1775148,128.383432 99.2455621,133.994675 C109.809467,124.585799 136.134911,123.926627 136.134911,123.926627 L154.209467,99.5846154 L174.674556,127.805325 L161.386391,88.7680473 C161.386391,88.7680473 164.194083,86.6236686 175.007101,79.2810651 L175.007101,79.2810651 Z M61.9449704,123.265089 L50.9698225,87.2852071 L61.9449704,74.7431953 L61.9449704,123.265089 L61.9449704,123.265089 Z M136.134911,123.265089 L136.298225,74.9899408 L147.43787,87.2011834 L136.134911,123.265089 L136.134911,123.265089 Z" id="Fill-11" fill="#1A1918" sketch:type="MSShapeGroup"></path>
            <path d="M175.708284,74.6881657 C161.32426,69.5366864 144.284615,69.2047337 137.051479,69.5366864 C107.207692,70.8633136 99.4775148,79.843787 99.4775148,79.843787 C99.4775148,79.843787 96.4863905,73.9414201 76.6189349,70.9502959 C40.7911243,66.1266272 23.5017751,74.5224852 23.5017751,74.5224852 L36.7207101,84.2514793 L23.5846154,123.984024 L43.9538462,95.2195266 C43.9538462,95.2195266 54.5071006,109.604142 61.9893491,119.749112 C84.6857988,121.159763 89.2544379,124.154438 99.3940828,129.80355 C110.037278,120.330178 136.553254,119.662722 136.553254,119.662722 L154.76213,95.1402367 L175.373373,123.569231 L161.992899,84.2514793 C161.992899,84.2514793 164.816568,82.087574 175.708284,74.6881657 L175.708284,74.6881657 Z M61.8236686,118.995858 L50.7656805,82.7544379 L61.8236686,70.1171598 L61.8236686,118.995858 L61.8236686,118.995858 Z M136.553254,118.995858 L136.723669,70.3698225 L147.943195,82.6692308 L136.553254,118.995858 L136.553254,118.995858 Z" id="Fill-12" fill="#FFFFFF" sketch:type="MSShapeGroup"></path>
            <path d="M49.0331361,61.6177515 C49.0331361,65.1591716 46.160355,68.0325444 42.6189349,68.0325444 C39.0757396,68.0325444 36.2017751,65.1591716 36.2017751,61.6177515 C36.2017751,58.0704142 39.0757396,55.2 42.6189349,55.2 C46.160355,55.2 49.0331361,58.0704142 49.0331361,61.6177515" id="Fill-13" fill="#FFFFFF" sketch:type="MSShapeGroup"></path>
            <path d="M162.55858,61.6177515 C162.55858,65.1591716 159.689941,68.0325444 156.145562,68.0325444 C152.601183,68.0325444 149.730769,65.1591716 149.730769,61.6177515 C149.730769,58.0704142 152.601183,55.2 156.145562,55.2 C159.689941,55.2 162.55858,58.0704142 162.55858,61.6177515" id="Fill-14" fill="#FFFFFF" sketch:type="MSShapeGroup"></path>
            <path d="M31.0952663,145.660355 C31.0952663,145.985799 31.0704142,146.186391 31.0331361,146.272781 C30.987574,146.359763 30.8289941,146.401183 30.5449704,146.401183 L28.9100592,146.272781 C28.2455621,148.561538 27.6928994,150.687574 27.2431953,152.645562 C26.7934911,154.605917 26.5686391,156.255621 26.5686391,157.60355 C26.5686391,158.630178 26.6071006,159.876331 26.6828402,161.331361 C26.752071,162.784024 26.835503,164.325444 26.9218935,165.949704 L26.9218935,166.593491 C26.9218935,166.960355 26.8763314,167.208876 26.7934911,167.350888 C26.7076923,167.489349 26.4928994,167.55503 26.1502959,167.55503 C25.635503,167.55503 25.3207101,166.933136 25.2029586,165.681065 C25.0852071,164.429586 24.9923077,163.488166 24.9301775,162.856213 C24.8674556,162.223077 24.7988166,161.400592 24.739645,160.384024 C24.6739645,159.367456 24.6426036,158.344379 24.6426036,157.313609 C24.6426036,155.349704 24.9195266,153.174556 25.4798817,150.799408 C25.7982249,149.450888 26.2573964,147.866864 26.856213,146.047929 C26.2573964,145.98284 25.4970414,145.902959 24.5733728,145.806509 C23.6573964,145.709467 23.0242604,145.660355 22.6822485,145.660355 C22.1502959,145.660355 21.2473373,145.833728 19.9852071,146.17574 C19.1733728,146.414793 18.3704142,146.635503 17.5786982,146.850296 C16.8497041,149.036095 16.1579882,152.313609 15.4899408,156.691124 C14.8307692,161.068639 14.4982249,164.294083 14.4982249,166.368639 C14.4982249,166.670414 14.4047337,166.943195 14.2248521,167.188757 C14.0420118,167.43432 13.7994083,167.55503 13.4994083,167.55503 C13.2846154,167.55503 13.1289941,167.327219 13.0213018,166.871006 C12.9147929,166.407692 12.8585799,165.825444 12.8585799,165.116568 C12.8585799,164.284024 12.9248521,163.069822 13.0532544,161.472781 C13.1769231,159.87929 13.3360947,158.232544 13.5159763,156.531953 C13.6988166,154.826627 13.9727811,152.759763 14.3360947,150.318343 C14.4846154,149.291716 14.6467456,148.250888 14.8195266,147.202959 L14.2704142,147.202959 C13.947929,147.202959 13.6928994,147.15503 13.4994083,147.05858 C13.3088757,146.964497 13.2118343,146.766272 13.2118343,146.463905 C13.2118343,146.247929 13.4189349,146.027219 13.8378698,145.792308 C14.2556213,145.556213 14.6159763,145.405325 14.9136095,145.343195 C14.9136095,144.956213 15.0100592,144.612426 15.2035503,144.315385 C15.3970414,144.014793 15.6420118,143.863314 15.9431953,143.863314 C16.4307692,143.863314 16.7976331,143.950296 17.0331361,144.121893 C17.2674556,144.295266 17.4159763,144.56213 17.4816568,144.92426 C18.0597633,144.730769 18.8893491,144.55503 19.9715976,144.39645 C21.0538462,144.232544 21.9532544,144.153254 22.6822485,144.153254 C24.3727811,144.153254 26.1982249,144.319527 28.1591716,144.651479 C30.1136095,144.984024 31.0952663,145.318343 31.0952663,145.660355" id="Fill-15" fill="#1A1918" sketch:type="MSShapeGroup"></path>
            <path d="M55.5686391,146.864497 C55.5686391,146.988757 55.160355,147.050888 54.3449704,147.050888 C53.5739645,147.050888 52.6781065,147.033728 51.6508876,146.988757 C50.6242604,146.947337 49.787574,146.905325 49.147929,146.864497 C47.0278107,146.864497 44.7597633,147.120118 42.3426036,147.631361 C40.4130178,148.040237 38.9059172,148.489349 37.8136095,148.979882 C37.8136095,149.132544 37.7893491,149.498225 37.7307692,150.087574 C37.6822485,150.675148 37.6502959,151.089349 37.6502959,151.324852 L37.6502959,154.599408 C38.508284,154.430178 40.8112426,154.081065 44.556213,153.557988 C48.3005917,153.032544 50.4964497,152.769822 51.1360947,152.769822 C51.2431953,152.769822 51.391716,152.794675 51.5852071,152.849704 C51.7792899,152.901183 51.8757396,152.963314 51.8757396,153.025444 C51.8757396,153.495858 50.7384615,153.986982 48.4704142,154.502367 C47.4254438,154.73787 46.160355,154.98284 44.6840237,155.239053 L37.4295858,156.621893 L36.7899408,164.713018 C37.2360947,164.584615 38.1272189,164.484615 39.4662722,164.405325 C40.808284,164.333136 42.3218935,164.294083 44.0094675,164.294083 C45.4857988,164.294083 46.8964497,164.391124 48.2313609,164.581657 C49.5692308,164.774556 50.2402367,165.030769 50.2402367,165.35503 C50.2402367,165.694675 49.4242604,165.880473 47.795858,165.902367 C46.1704142,165.922485 44.9810651,165.932544 44.2343195,165.932544 C42.7372781,165.932544 41.4094675,166.071006 40.2544379,166.348521 C40.0609467,166.392899 39.2692308,166.618343 37.8786982,167.023077 C37.5994083,167.111834 37.1769231,167.281065 36.6106509,167.53787 C36.0431953,167.794083 35.6313609,167.921893 35.3757396,167.921893 C35.1159763,167.921893 34.860355,167.80355 34.6047337,167.568639 C34.3449704,167.333136 34.2171598,167.042604 34.2171598,166.70355 C34.2171598,166.423669 34.2591716,166.199408 34.3449704,166.030769 C34.5183432,165.771006 34.656213,165.550296 34.7639053,165.35503 C34.9781065,163.468047 35.147929,161.779882 35.2792899,160.28284 C35.4071006,158.785799 35.4686391,157.680473 35.4686391,156.973964 C35.2136095,156.973964 35.012426,156.824852 34.8775148,156.525444 C34.7390533,156.227811 34.6668639,155.915385 34.6668639,155.595266 C34.6668639,155.057988 35.0088757,154.760947 35.6934911,154.692899 C35.7177515,154.567456 35.7278107,154.388166 35.7278107,154.150296 C35.7278107,153.979882 35.7177515,153.67929 35.6934911,153.250296 C35.6733728,152.824852 35.6627219,152.479882 35.6627219,152.22426 C35.6627219,151.473373 35.6248521,150.702367 35.5485207,149.910059 C35.4763314,149.118343 35.4171598,148.413018 35.3757396,147.790533 C35.3757396,147.085207 35.8011834,146.733728 36.6585799,146.733728 C37.0005917,146.733728 37.2846154,146.750888 37.5053254,146.781065 C37.7307692,146.815385 37.8994083,146.881065 38.0071006,146.988757 C39.6319527,146.604734 41.0461538,146.28284 42.2426036,146.027219 C44.6420118,145.511834 46.3745562,145.256805 47.4467456,145.256805 C49.0301775,145.256805 50.5721893,145.353254 52.0656805,145.546746 C54.4,145.844379 55.5686391,146.28284 55.5686391,146.864497" id="Fill-16" fill="#1A1918" sketch:type="MSShapeGroup"></path>
            <path d="M70.0147929,150.432544 C70.0147929,151.760947 69.5100592,153.047337 68.5035503,154.284024 C67.5011834,155.528994 66.2568047,156.366272 64.7828402,156.790533 C64.0088757,157.001183 63.0887574,157.168047 62.0207101,157.285799 C60.952071,157.407101 60.0982249,157.464497 59.4550296,157.464497 C59.4550296,157.956213 59.416568,158.84497 59.3579882,160.127219 C59.1846154,163.57929 59.0988166,165.428402 59.0988166,165.681065 C59.0988166,166.497041 58.991716,167.133728 58.7804734,167.595858 C58.5627219,168.052071 58.2863905,168.284615 57.943787,168.284615 C57.6639053,168.284615 57.4905325,168.150296 57.4147929,167.883432 C57.3390533,167.617751 57.3005917,167.116568 57.3005917,166.389941 L57.3005917,165.778107 L57.3704142,156.790533 C57.3704142,155.719527 57.3218935,153.972189 57.235503,151.559763 C57.1485207,149.138462 57.1076923,147.54497 57.1076923,146.773964 C56.6822485,146.773964 56.387574,146.753846 56.2426036,146.708876 C55.8136095,146.580473 55.5994083,146.314793 55.5994083,145.905917 C55.5994083,145.370414 56.0976331,144.972189 57.0934911,144.70355 C58.0893491,144.436686 59.5343195,144.301775 61.4431953,144.301775 C64.3544379,144.301775 66.460355,144.706509 67.7674556,145.522485 C69.264497,146.463905 70.0147929,148.101775 70.0147929,150.432544 L70.0147929,150.432544 Z M68.2822485,150.432544 C68.2822485,148.914793 67.8260355,147.866864 66.916568,147.286391 C66.0076923,146.711834 64.3857988,146.421302 62.0514793,146.421302 C62.0106509,146.421302 61.6473373,146.436095 60.9621302,146.449112 C60.2745562,146.473373 59.7384615,146.517751 59.3579882,146.580473 L59.3579882,155.570414 C59.3994083,155.570414 59.6307692,155.581065 60.0597633,155.605325 C60.4887574,155.625444 60.8656805,155.633136 61.1840237,155.633136 C61.8272189,155.633136 62.4568047,155.598225 63.0786982,155.521302 C63.7011834,155.449112 64.2680473,155.315385 64.7828402,155.121893 C65.7443787,154.778107 66.5680473,154.142604 67.252071,153.213018 C67.9402367,152.27929 68.2822485,151.352071 68.2822485,150.432544 L68.2822485,150.432544 Z" id="Fill-17" fill="#1A1918" sketch:type="MSShapeGroup"></path>
            <path d="M94.6988166,146.864497 C94.6988166,146.988757 94.2946746,147.050888 93.4816568,147.050888 C92.7106509,147.050888 91.8112426,147.033728 90.7846154,146.988757 C89.7579882,146.947337 88.9224852,146.905325 88.2781065,146.864497 C86.1627219,146.864497 83.8934911,147.120118 81.4739645,147.631361 C79.547929,148.040237 78.039645,148.489349 76.947929,148.979882 C76.947929,149.132544 76.9195266,149.498225 76.8680473,150.087574 C76.812426,150.675148 76.7852071,151.089349 76.7852071,151.324852 L76.7852071,154.599408 C77.6420118,154.430178 79.9420118,154.081065 83.6899408,153.557988 C87.4343195,153.032544 89.6313609,152.769822 90.2692308,152.769822 C90.3763314,152.769822 90.5289941,152.794675 90.7195266,152.849704 C90.9136095,152.901183 91.008284,152.963314 91.008284,153.025444 C91.008284,153.495858 89.8769231,153.986982 87.6076923,154.502367 C86.5568047,154.73787 85.2940828,154.98284 83.8177515,155.239053 L76.5639053,156.621893 L75.9207101,164.713018 C76.3698225,164.584615 77.2621302,164.484615 78.6,164.405325 C79.9384615,164.333136 81.4526627,164.294083 83.143787,164.294083 C84.6195266,164.294083 86.0278107,164.391124 87.3650888,164.581657 C88.7035503,164.774556 89.3715976,165.030769 89.3715976,165.35503 C89.3715976,165.694675 88.5585799,165.880473 86.9331361,165.902367 C85.3076923,165.922485 84.1189349,165.932544 83.3680473,165.932544 C81.8710059,165.932544 80.5431953,166.071006 79.3887574,166.348521 C79.1911243,166.392899 78.4029586,166.618343 77.0094675,167.023077 C76.7331361,167.111834 76.3106509,167.281065 75.7443787,167.53787 C75.1739645,167.794083 74.7656805,167.921893 74.5065089,167.921893 C74.2538462,167.921893 73.9905325,167.80355 73.7390533,167.568639 C73.4792899,167.333136 73.3508876,167.042604 73.3508876,166.70355 C73.3508876,166.423669 73.3970414,166.199408 73.4828402,166.030769 C73.652071,165.771006 73.7911243,165.550296 73.8976331,165.35503 C74.112426,163.468047 74.2816568,161.779882 74.4094675,160.28284 C74.5372781,158.785799 74.6029586,157.680473 74.6029586,156.973964 C74.3473373,156.973964 74.1502959,156.824852 74.008284,156.525444 C73.8704142,156.227811 73.8011834,155.915385 73.8011834,155.595266 C73.8011834,155.057988 74.1431953,154.760947 74.8278107,154.692899 C74.8485207,154.567456 74.8591716,154.388166 74.8591716,154.150296 C74.8591716,153.979882 74.8485207,153.67929 74.8278107,153.250296 C74.8071006,152.824852 74.7964497,152.479882 74.7964497,152.22426 C74.7964497,151.473373 74.7591716,150.702367 74.6857988,149.910059 C74.6100592,149.118343 74.5508876,148.413018 74.5065089,147.790533 C74.5065089,147.085207 74.9349112,146.733728 75.7923077,146.733728 C76.1349112,146.733728 76.4183432,146.750888 76.6431953,146.781065 C76.8680473,146.815385 77.0307692,146.881065 77.1372781,146.988757 C78.7662722,146.604734 80.1769231,146.28284 81.3763314,146.027219 C83.7769231,145.511834 85.508284,145.256805 86.5769231,145.256805 C88.164497,145.256805 89.7035503,145.353254 91.2017751,145.546746 C93.5319527,145.844379 94.6988166,146.28284 94.6988166,146.864497" id="Fill-18" fill="#1A1918" sketch:type="MSShapeGroup"></path>
            <path d="M116.918343,148.489349 C116.918343,149.557396 116.876331,151.168639 116.789941,153.315976 C116.707692,155.469231 116.616568,157.593491 116.53432,159.692899 C116.447337,161.787574 116.405917,163.267456 116.405917,164.117751 C116.405917,164.397633 116.415976,164.710059 116.436095,165.052071 C116.457396,165.397041 116.47929,165.739053 116.499408,166.081065 C116.499408,166.531953 116.46213,166.871006 116.388166,167.108876 C116.316568,167.340237 116.156213,167.45858 115.921893,167.45858 C115.384615,167.45858 115.029586,166.866864 114.846746,165.676923 C114.666272,164.491716 114.576331,162.92071 114.576331,160.974556 L114.576331,158.181065 C114.576331,157.327811 114.588166,156.178698 114.608284,154.747929 C114.625444,153.313018 114.660355,151.773373 114.705325,150.124852 C114.469822,150.446746 113.791124,151.663905 112.67929,153.786391 C112.528994,154.063314 112.00355,155.045562 111.108284,156.736095 C110.01716,158.857988 109.34142,160.107101 109.085799,160.494083 C108.228402,161.777515 107.328994,162.420118 106.384615,162.420118 C105.59645,162.420118 104.708284,161.904142 103.726627,160.878107 C102.844379,159.978698 102.033136,158.834911 101.282249,157.444379 C100.791124,156.504734 100.392899,155.743787 100.095858,155.16213 C99.6467456,154.266864 99.2840237,153.453846 99.004142,152.722485 C98.7065089,154.544379 98.4568047,156.019527 98.2633136,157.154438 C97.7508876,160.04497 97.2887574,162.292899 96.887574,163.897041 C96.3071006,166.230178 95.8118343,167.397041 95.4076923,167.397041 C95.1923077,167.397041 95.0278107,167.347929 94.9094675,167.250888 C94.7911243,167.156805 94.7360947,166.946154 94.7360947,166.628402 L94.7360947,166.24142 C94.7360947,165.836095 94.912426,164.539645 95.2792899,162.35503 C95.6431953,160.172189 96.0153846,157.977515 96.4023669,155.774556 C96.8727811,152.990533 97.164497,151.130769 97.2674556,150.189941 C97.3118343,149.907101 97.3467456,149.509467 97.3639053,148.984024 C97.3840237,148.461538 97.3988166,148.092308 97.3988166,147.876923 L97.3988166,146.590533 C97.3988166,146.270414 97.4100592,146.013018 97.4331361,145.819527 C97.5402367,145.221893 97.7721893,144.921302 98.1349112,144.921302 C98.543787,144.879882 98.9378698,145.370414 99.3242604,146.401183 C99.6047337,147.27929 99.8816568,148.144379 100.16213,149.001775 C100.392899,149.575148 100.697633,150.380473 101.057396,151.406509 C101.594083,152.928402 102.170414,154.291716 102.792308,155.501183 C103.415976,156.711243 103.999408,157.735503 104.559763,158.565089 C105.414201,159.851479 106.078107,160.494083 106.547929,160.494083 C106.910059,160.494083 107.457396,159.905917 108.186391,158.726627 C108.763905,157.786391 109.34142,156.684024 109.918935,155.421893 C110.410059,154.284024 111.073964,152.970414 111.908284,151.470414 C112.595858,150.253254 113.279882,149.031953 113.964497,147.811834 C114.501183,146.954438 114.801775,146.484024 114.863905,146.401183 C115.230769,145.885799 115.513609,145.630178 115.731361,145.630178 C116.242604,145.630178 116.586391,145.744379 116.759763,145.96568 C116.926627,146.193491 117.013609,146.528402 117.013609,146.974556 C117.013609,147.23432 117.004734,147.492899 116.983432,147.750296 C116.961538,148.005325 116.938462,148.250888 116.918343,148.489349" id="Fill-19" fill="#1A1918" sketch:type="MSShapeGroup"></path>
            <path d="M143.27574,146.864497 C143.27574,146.988757 142.868639,147.050888 142.054438,147.050888 C141.283432,147.050888 140.385207,147.033728 139.357396,146.988757 C138.330769,146.947337 137.497633,146.905325 136.853846,146.864497 C134.731361,146.864497 132.468047,147.120118 130.046154,147.631361 C128.120118,148.040237 126.613609,148.489349 125.520118,148.979882 C125.520118,149.132544 125.492899,149.498225 125.440828,150.087574 C125.384615,150.675148 125.361538,151.089349 125.361538,151.324852 L125.361538,154.599408 C126.218935,154.430178 128.517751,154.081065 132.262722,153.557988 C136.007692,153.032544 138.199408,152.769822 138.843787,152.769822 C138.950296,152.769822 139.101775,152.794675 139.297041,152.849704 C139.485799,152.901183 139.58284,152.963314 139.58284,153.025444 C139.58284,153.495858 138.447929,153.986982 136.181065,154.502367 C135.130178,154.73787 133.868047,154.98284 132.391124,155.239053 L125.136095,156.621893 L124.494083,164.713018 C124.942604,164.584615 125.834911,164.484615 127.173373,164.405325 C128.511834,164.333136 130.024852,164.294083 131.71716,164.294083 C133.192308,164.294083 134.6,164.391124 135.938462,164.581657 C137.276923,164.774556 137.943787,165.030769 137.943787,165.35503 C137.943787,165.694675 137.130769,165.880473 135.505325,165.902367 C133.876923,165.922485 132.691716,165.932544 131.94497,165.932544 C130.443787,165.932544 129.116568,166.071006 127.961538,166.348521 C127.768047,166.392899 126.97574,166.618343 125.586982,167.023077 C125.306509,167.111834 124.885207,167.281065 124.315976,167.53787 C123.750296,167.794083 123.33432,167.921893 123.083432,167.921893 C122.823077,167.921893 122.568047,167.80355 122.312426,167.568639 C122.052663,167.333136 121.925444,167.042604 121.925444,166.70355 C121.925444,166.423669 121.968639,166.199408 122.052663,166.030769 C122.225444,165.771006 122.363905,165.550296 122.471006,165.35503 C122.684615,163.468047 122.857988,161.779882 122.985207,160.28284 C123.110651,158.785799 123.178698,157.680473 123.178698,156.973964 C122.920118,156.973964 122.721893,156.824852 122.581065,156.525444 C122.442012,156.227811 122.372781,155.915385 122.372781,155.595266 C122.372781,155.057988 122.716568,154.760947 123.40355,154.692899 C123.421302,154.567456 123.432544,154.388166 123.432544,154.150296 C123.432544,153.979882 123.421302,153.67929 123.40355,153.250296 C123.383432,152.824852 123.369231,152.479882 123.369231,152.22426 C123.369231,151.473373 123.331361,150.702367 123.256213,149.910059 C123.18284,149.118343 123.12071,148.413018 123.083432,147.790533 C123.083432,147.085207 123.510651,146.733728 124.365089,146.733728 C124.707101,146.733728 124.991716,146.750888 125.21716,146.781065 C125.440828,146.815385 125.607101,146.881065 125.713609,146.988757 C127.339645,146.604734 128.754438,146.28284 129.949704,146.027219 C132.346746,145.511834 134.081657,145.256805 135.150296,145.256805 C136.736686,145.256805 138.276331,145.353254 139.776331,145.546746 C142.110651,145.844379 143.27574,146.28284 143.27574,146.864497" id="Fill-20" fill="#1A1918" sketch:type="MSShapeGroup"></path>
            <path d="M163.64142,146.52071 C163.060947,148.620118 162.545562,150.598225 162.099408,152.459763 C161.584024,154.602367 161.32426,156.314201 161.32426,157.59645 C161.32426,158.627219 161.363314,159.868639 161.438462,161.32426 C161.514793,162.776331 161.594083,164.318343 161.680473,165.944379 L161.680473,166.586982 C161.680473,166.886982 161.666272,167.070414 161.646154,167.133728 C161.563905,167.409467 161.314201,167.550888 160.910059,167.550888 C160.418935,167.550888 160.101183,166.926036 159.962722,165.674556 C159.82426,164.422485 159.727219,163.510059 159.672781,162.942604 C159.62071,162.375148 159.561538,161.642012 159.499408,160.743787 C159.432544,159.847337 159.402367,159.128402 159.402367,158.592899 C158.371598,158.869822 157.317751,159.080473 156.234911,159.214793 C155.156213,159.356213 153.80355,159.425444 152.17929,159.425444 C151.06213,159.425444 150.149112,159.408284 149.430769,159.363314 C148.714201,159.321302 148.205917,159.224852 147.905917,159.076331 C147.905917,159.291124 147.797633,160.411834 147.586982,162.44497 C147.373373,164.477515 147.266272,165.785207 147.266272,166.361538 C147.266272,166.662722 147.175148,166.936095 146.992308,167.181065 C146.810059,167.426627 146.567456,167.550888 146.269822,167.550888 C146.05503,167.550888 145.895858,167.320118 145.789349,166.863905 C145.682249,166.400592 145.626036,165.818935 145.626036,165.113609 C145.626036,164.339053 145.675148,163.126036 145.771598,161.46568 C145.868639,159.809467 145.917751,158.944379 145.917751,158.88284 C145.615976,158.88284 145.333136,158.85503 145.063314,158.8 C144.8,158.747929 144.589349,158.723669 144.440828,158.723669 C144.139053,158.723669 143.880473,158.613018 143.669822,158.401775 C143.454438,158.188166 143.347929,157.942604 143.347929,157.662722 C143.347929,157.360947 143.548521,157.127219 143.957396,156.953846 C144.514201,156.721893 145.284024,156.601775 146.269822,156.601775 C146.525444,155.682249 146.781065,154.464497 147.04142,152.943195 C147.40355,150.782249 147.586982,148.86568 147.586982,147.195266 C147.586982,146.961538 147.694675,146.646746 147.905917,146.247929 C148.119527,145.853846 148.334911,145.653846 148.548521,145.653846 C148.974556,145.653846 149.257396,145.809467 149.381657,146.121302 C149.510059,146.431953 149.575148,146.885207 149.575148,147.482249 L149.575148,148.447337 C149.575148,149.264497 149.381657,150.791716 148.998817,153.039645 C148.742012,154.581657 148.49645,155.888166 148.260947,156.953846 C149.371598,157.147337 150.117751,157.271006 150.488757,157.327811 C150.868639,157.378107 151.515385,157.402959 152.431953,157.402959 C152.732544,157.402959 153.354438,157.42426 154.294675,157.45503 C155.236095,157.486982 156.016568,157.513609 156.639053,157.53432 C157.794083,157.53432 158.70355,157.459172 159.368047,157.310651 C159.990533,153.074556 160.321893,150.854438 160.364497,150.664497 C161.051479,147.21716 161.809467,145.494675 162.642012,145.494675 C162.901183,145.494675 163.130178,145.598817 163.333728,145.799408 C163.537278,146.002959 163.64142,146.245562 163.64142,146.52071" id="Fill-21" fill="#1A1918" sketch:type="MSShapeGroup"></path>
            <path d="M186.863314,167.305325 C186.863314,167.79645 186.736095,168.046154 186.478698,168.046154 C186.178698,168.046154 185.826627,167.766272 185.417751,167.208876 C184.906509,166.527811 184.232544,165.404142 183.397633,163.842012 C182.565089,162.278107 181.739053,160.585207 180.926627,158.76568 C180.197041,158.872189 178.90355,159.111243 177.039645,159.470414 C175.884615,159.705917 174.613018,159.96568 173.222485,160.24142 C173.049112,160.287574 172.942012,160.307692 172.901775,160.307692 C172.686982,160.307692 172.354438,160.092899 171.905917,159.663905 L170.301775,163.294675 C170.061538,163.72071 169.816568,164.269231 169.560947,164.930769 C169.301183,165.594675 169.176923,166.075148 169.176923,166.372781 C169.176923,166.611243 169.059763,166.807692 168.834911,166.966272 C168.613609,167.128994 168.392899,167.208876 168.178107,167.208876 C167.925444,167.208876 167.701183,167.070414 167.506509,166.794675 C167.313018,166.514201 167.216568,166.227219 167.216568,165.926627 C167.216568,165.498225 167.624852,164.311243 168.440237,162.378107 C169.249112,160.439053 170.052071,158.530178 170.847337,156.649704 C171.12426,155.985207 171.895266,154.162722 173.157396,151.190533 C174.010651,149.201183 174.526036,147.926036 174.694675,147.368639 C174.826036,146.639645 174.95503,145.93787 175.083432,145.252071 C175.210059,144.565089 175.445562,144.223077 175.787574,144.223077 C176.130178,144.223077 176.466864,144.361538 176.784024,144.637278 C177.233136,145.02426 177.565089,145.560947 177.779882,146.245562 C178.336095,147.272189 179.004734,148.786391 179.785799,150.788757 C180.566864,152.789941 181.35503,154.820118 182.147337,156.870414 L183.782249,156.870414 C184.084024,156.870414 184.342012,156.926036 184.567456,157.033136 C184.795858,157.140237 184.906509,157.310651 184.906509,157.548521 C184.906509,157.672781 184.854438,157.769231 184.746746,157.835503 C184.404734,157.942604 184.16568,158.005325 184.042012,158.029586 L182.817751,158.315385 C182.904142,158.530178 183.397633,159.601775 184.297633,161.527811 C186.009467,165.185799 186.863314,167.111834 186.863314,167.305325 L186.863314,167.305325 Z M180.348521,157.226627 C179.553254,155.494083 179.02071,154.339053 178.744379,153.756213 C177.973373,152.133136 177.198817,150.494083 176.427219,148.845562 C175.832544,150.301183 175.24497,151.746154 174.665089,153.178107 C174.428994,153.69645 174.134911,154.415385 173.782249,155.349704 C173.430178,156.279882 173.070414,157.226627 172.707101,158.191124 C173.371006,158.081065 174.685207,157.904142 176.655621,157.65858 C178.623669,157.410059 179.85503,157.264497 180.348521,157.226627 L180.348521,157.226627 Z" id="Fill-22" fill="#1A1918" sketch:type="MSShapeGroup"></path>
        </g>
    </g>
</svg>