<?xml version="1.0" encoding="UTF-8" standalone="no"?>
<svg width="206px" height="143px" viewBox="0 0 206 143" version="1.1" xmlns="http://www.w3.org/2000/svg" xmlns:xlink="http://www.w3.org/1999/xlink" xmlns:sketch="http://www.bohemiancoding.com/sketch/ns">
    <!-- Generator: Sketch 3.3.2 (12043) - http://www.bohemiancoding.com/sketch -->
    <title>Group</title>
    <desc>Created with Sketch.</desc>
    <defs></defs>
    <g id="Page-1" stroke="none" stroke-width="1" fill="none" fill-rule="evenodd" sketch:type="MSPage">
        <g id="Desktop_Home" sketch:type="MSArtboardGroup" transform="translate(-74.000000, -76.000000)" fill="#FFFFFF">
            <g id="Group" sketch:type="MSLayerGroup" transform="translate(74.000000, 76.000000)">
                <path d="M30.834367,75.1651369 C29.6306585,75.4167422 28.3718182,75.6709414 27.0946007,75.9186559 C27.624915,74.4790586 28.0541546,73.3468348 28.2746814,72.7606204 C28.9520136,70.9565844 29.713356,68.9670869 30.4733857,66.9801832 C31.4775701,66.7700798 32.4896304,66.5573826 33.5003781,66.3459822 C34.8970476,66.052875 36.3685387,65.7584709 37.8557816,65.4731453 C37.1561342,67.3926084 36.5746262,68.9281788 36.3042184,69.6453836 C35.7371495,71.1550154 35.1123237,72.7735897 34.4783093,74.4012425 C33.273288,74.6541447 32.0525149,74.9096408 30.834367,75.1651369 L30.834367,75.1651369 Z M51.4286788,75.7850716 C52.5510025,75.659269 51.986559,72.4804825 51.986559,71.5907854 C51.986559,71.2704426 51.7830969,71.0525576 51.285599,71.0525576 C50.7145922,71.0525576 46.5022685,71.8981589 41.006164,73.0381643 C41.3986491,71.8281244 41.7281266,70.8178124 41.9525913,70.1291402 C42.2965081,69.0760294 43.1746771,66.8582714 44.1906754,64.3253582 C48.5828335,63.5796209 52.3331011,63.0543624 53.7061427,63.0543624 C54.6748853,63.0543624 54.0185556,60.923499 53.5341844,59.774415 C53.181079,58.9340015 53.1784537,58.4489479 52.6507647,58.4489479 C51.4890612,58.4489479 49.0973959,58.9573463 46.0585896,59.6693633 C47.5064528,56.0379467 48.7652931,52.7696717 48.7652931,52.1562217 C48.7652931,51.1549882 44.4007009,49.4975059 43.2849405,49.4975059 C42.5564146,49.4975059 42.3188233,49.733548 42.3306372,50.1965536 C42.3778929,52.0122619 40.8840867,56.8277798 39.3522133,61.2658897 C37.3714104,61.7288953 35.3118479,62.1944948 33.2654121,62.6134047 C32.857175,62.6977054 32.4502506,62.7794123 32.0433263,62.8598222 C33.6683985,58.5643751 34.9771198,54.9666788 34.9771198,54.2715219 C34.9771198,52.5725376 30.2095412,51.3482315 29.4429482,51.3482315 C29.0399618,51.3482315 28.8036831,51.5687103 28.7052336,52.0524669 C28.2077358,54.4945946 26.6942396,59.5228097 25.2647536,64.0711591 C19.7817757,64.9595592 15.1704036,65.5055687 13.2014146,65.7260475 C12.0790909,65.8518502 12.3494987,69.0293397 12.3494987,69.9203338 C12.3494987,70.2393796 12.5516483,70.4585616 13.0504588,70.4585616 C13.6411555,70.4585616 18.127825,69.5533013 23.8995879,68.3536369 C23.3653356,70.01501 22.9111555,71.4027299 22.6263084,72.2781607 C22.3283347,73.1873118 21.637876,74.9692998 20.8069626,77.0716307 C16.1325828,77.877027 12.0699023,78.4554598 10.6286024,78.4554598 C9.65985981,78.4554598 10.4330161,80.9896699 10.4330161,81.7367042 C10.4330161,82.8274261 10.7887468,83.0621712 11.3164359,83.0621712 C12.591028,83.0621712 15.4381861,82.4500181 18.9994308,81.6264647 C17.3940484,85.680682 15.8871155,89.5740794 15.8871155,90.2497823 C15.8871155,91.2510158 20.1781988,92.9084981 21.2939592,92.9084981 C22.0224851,92.9084981 22.2600765,92.6737529 22.2482625,92.2094504 C22.1970688,90.2497823 23.9429057,84.7948757 25.5916058,80.0921912 C27.397825,79.679766 29.2486746,79.2699347 31.0693331,78.8964176 C31.666593,78.7745057 32.2651657,78.6551877 32.861113,78.5410575 C31.0890229,83.0803283 29.6017799,86.9581625 29.6017799,87.6974152 C29.6017799,89.3976964 34.3693585,91.0577725 35.1359516,91.0577725 C35.538938,91.0577725 35.7765293,90.8372937 35.8736661,90.354834 C36.4066058,87.7363232 38.1064996,82.1491293 39.6213084,77.363441 C44.982209,76.5191366 49.5161342,75.9990658 51.4286788,75.7850716 L51.4286788,75.7850716 Z" id="Fill-2" sketch:type="MSShapeGroup"></path>
                <path d="M75.1024894,56.7175404 C74.0247961,56.7175404 72.9457901,55.8784237 72.9457901,54.9005351 C72.9457901,50.9345093 78.2318692,49.2796209 83.0270136,48.5144295 C81.1013424,52.7476238 77.9798386,56.7175404 75.1024894,56.7175404 L75.1024894,56.7175404 Z M109.614928,33.6321059 C110.963029,33.6321059 111.501219,34.2961364 111.501219,35.274025 C111.501219,38.1584074 108.000357,40.2516597 103.736839,41.7898241 C104.590068,37.9573826 107.231138,33.6321059 109.614928,33.6321059 L109.614928,33.6321059 Z M137.438054,60.1531199 C134.472757,60.1531199 131.768679,59.4099764 131.768679,57.5190459 C131.768679,55.377807 135.21441,54.2144567 138.111449,54.2144567 C140.73808,54.2144567 143.484163,54.8292037 146.327383,55.6462724 C144.145743,58.3905859 141.294647,60.1531199 137.438054,60.1531199 L137.438054,60.1531199 Z M54.4596092,38.2323327 C58.9318394,37.9807274 62.9853314,36.2039271 65.8653059,33.6813894 C64.6143415,37.7719209 63.2491759,41.9778796 61.9627698,45.6495012 C59.8664528,51.6322601 58.5144138,55.8161709 58.5144138,57.1040268 C58.5144138,59.0948213 62.4838955,63.4421458 64.4804503,63.4421458 C64.7232923,63.4421458 64.9096899,63.3876746 65.0028887,63.0102666 C65.1525319,62.3929258 65.1499065,62.1166788 65.537141,60.8366044 C65.8219881,59.893733 66.146215,58.7329766 66.4914444,57.4503084 C66.4953823,57.4957011 66.4980076,57.5203428 66.4980076,57.5203428 C68.8634197,49.6155269 75.350582,35.552866 81.6185302,35.552866 C84.5838275,35.552866 84.8870518,39.1077635 84.8870518,41.4824506 C84.8870518,42.7067568 84.5943288,44.20731 84.0876423,45.7843824 C77.3878292,46.7843189 69.5315633,49.0228279 69.5315633,55.7396517 C69.5315633,58.9755034 72.1923237,61.1556503 75.9544053,61.1556503 C83.1123364,61.1556503 90.203322,55.0898875 92.4479694,47.2888264 C93.5466653,47.0566751 94.7214953,46.8050698 95.9383305,46.5288228 C96.317689,52.5193633 100.241228,55.041901 103.572757,55.041901 C110.722812,55.041901 115.252799,46.544386 118.117022,39.8742518 C120.706899,33.8422093 123.853343,28.9320152 127.686308,28.9320152 C128.825697,28.9320152 129.315319,29.4443044 129.315319,30.3145474 C129.315319,33.3558589 119.444121,38.5643479 119.444121,45.8959187 C119.444121,49.6674043 122.977799,52.169191 126.973534,51.5259115 C130.263059,50.9967622 131.96164,49.6207147 134.3113,47.6714221 C136.005943,46.2655451 137.347481,44.4731816 138.383169,42.998567 C138.942362,46.9217939 141.376032,48.3717667 144.32689,48.3717667 C147.377511,48.3717667 150.001517,46.0735988 151.831364,43.6146109 C151.021453,45.9918919 150.399252,47.712924 150.257485,48.1058952 C149.615595,49.8943679 148.87788,51.5933521 148.011525,53.1224379 C144.888709,52.3767005 141.729138,51.7386087 138.800595,51.7386087 C131.844813,51.7386087 128.532974,54.309133 128.532974,57.7511972 C128.532974,61.457836 133.091839,62.8792763 136.865735,62.8792763 C143.15206,62.8792763 148.003649,60.4358516 151.303675,57.1714674 C155.498934,58.4748866 159.867464,59.714756 164.34757,59.714756 C175.411975,59.714756 183.843186,53.9395066 183.843186,44.2578904 C183.843186,37.869191 178.399588,32.5828859 170.568263,32.5828859 C169.927685,32.5828859 169.847613,32.8215219 169.847613,33.1924451 C169.847613,33.8344277 174.292277,35.9938237 174.292277,42.8559042 C174.292277,49.5921821 168.176597,55.4426537 160.27045,55.4426537 C158.258144,55.4426537 155.978054,55.0263377 153.570637,54.4738436 C154.326729,53.3818248 154.935803,52.2521948 155.392608,51.1329403 C158.140004,44.3914747 164.113917,26.262924 164.113917,24.7260566 C164.113917,23.1891892 156.600255,20.4695175 156.600255,21.7418103 C156.600255,22.1451569 156.984864,25.3304281 156.249775,28.6855977 C156.069941,29.510448 155.85729,30.3845819 155.622324,31.2885453 C155.606572,31.3235625 155.582944,31.4052694 155.550127,31.5453383 C155.529125,31.6361237 155.50681,31.7269091 155.483182,31.8202884 C155.450365,31.9409033 155.418862,32.0602213 155.386045,32.1808362 C154.16921,36.5138944 150.321805,43.6210956 146.855072,43.6210956 C145.640862,43.6210956 145.001597,42.7832759 145.001597,40.9662706 C145.001597,37.5436604 149.505331,32.0252041 149.505331,28.3937874 C149.505331,25.3200526 146.870824,23.2242064 142.795017,23.2242064 C142.444537,23.2242064 142.269953,23.3772447 142.269953,23.7715128 C142.269953,24.1061219 142.405157,24.7169781 142.428785,26.3588972 C142.477353,29.7607564 140.474235,33.4907401 139.228522,36.87963 C137.862043,40.0376655 133.63528,46.2357156 129.277251,46.2357156 C127.917336,46.2357156 127.071984,45.7091602 127.071984,44.226764 C127.071984,41.137466 136.34986,36.0158716 136.34986,30.4922275 C136.34986,27.2875023 134.231228,24.8687194 129.751121,24.8687194 C122.979112,24.8687194 119.54257,31.5012425 116.259609,38.5941774 C113.50565,44.5419191 110.343454,50.0474061 106.992234,50.0474061 C104.821096,50.0474061 103.524189,48.5689008 103.457243,44.4666969 C109.647744,42.3630691 115.03096,39.1466715 115.03096,33.7125159 C115.03096,31.1847905 113.294312,29.056521 109.385212,29.056521 C102.535756,29.056521 96.8375021,37.3361509 96.0092141,43.969971 C94.9407094,44.2150916 93.9260238,44.4342735 93.0084749,44.6301106 C93.1187383,43.8273082 93.1764953,43.0128333 93.1764953,42.1892799 C93.1764953,35.4841284 90.3332753,30.7749592 83.9983815,30.7749592 C78.5705353,30.7749592 74.2728887,35.2623526 71.3115293,39.8807364 C72.6058114,36.463314 76.3744562,25.1566389 77.2224342,23.8363595 C77.3957052,23.5678941 77.4508369,23.430419 77.4508369,23.2216126 C77.4508369,22.1127335 72.6281266,19.8028932 70.777277,19.8028932 C70.126198,19.8028932 69.6693925,19.9533376 69.5761937,20.3463087 C69.4383645,20.9299293 69.286096,21.5524578 69.1193883,22.2074098 C69.1154503,22.1866588 69.1115123,22.1723925 69.1115123,22.1723925 C67.8080416,27.7971975 64.0105183,32.4454108 58.8058241,32.4454108 C55.7053229,32.4454108 53.0445624,30.5713405 53.0445624,27.4158988 C53.0445624,20.14269 62.1898598,16.3530473 69.578819,16.3530473 C84.863424,16.3530473 96.2402421,22.2968982 112.584163,22.2968982 C124.370531,22.2968982 134.458318,17.8406312 134.458318,8.25758208 C134.458318,3.64308906 130.444206,0.142662797 126.741194,0.142662797 C126.067799,0.142662797 126.155748,0.547306367 126.155748,1.15686559 C126.155748,9.56100127 116.848993,14.3129693 105.310718,14.3129693 C99.1950382,14.3129693 82.0884622,13.0303011 70.9938658,13.0303011 C55.627876,13.0303011 43.4398343,19.072719 43.4398343,29.510448 C43.4398343,34.9459006 48.8072982,38.5500816 54.4596092,38.2323327 L54.4596092,38.2323327 Z" id="Fill-3" sketch:type="MSShapeGroup"></path>
                <path d="M167.869435,69.9397878 C167.82743,70.1485942 167.784112,70.3690731 167.739482,70.5973336 C167.217043,72.331335 162.747438,80.1129421 157.85647,87.8465627 C155.095947,92.2133412 152.142464,96.5606657 149.770489,99.981979 C150.833743,95.543869 151.960004,91.484464 152.120149,90.790604 C152.710845,88.216189 155.236402,78.3076093 156.167077,76.8576365 C156.218271,76.7759296 156.239274,76.689035 156.239274,76.5969527 C156.239274,75.4361963 151.589834,73.1691547 149.43051,73.1691547 C148.929074,73.1691547 148.59172,73.3144114 148.5274,73.639942 C147.647918,78.0067205 145.912583,86.393996 144.162808,93.6646109 C142.679503,99.8328315 141.240828,104.525141 141.240828,106.457573 C141.240828,108.779086 144.967468,111.968248 146.626669,111.968248 C147.016529,111.968248 147.28825,111.939715 147.348632,111.378143 C147.397201,110.922919 147.592787,110.435271 147.746368,109.980047 C149.192918,106.718257 154.585323,98.6591058 159.585242,90.7594776 C161.772133,87.304444 163.931457,83.9739162 165.703547,81.2399782 C165.143042,83.9933702 164.497213,86.9400054 163.752935,89.8814529 C161.904711,97.1870851 159.930472,102.635507 159.930472,105.213813 C159.930472,106.901125 164.250433,108.738881 165.817749,108.738881 C167.026708,108.738881 167.491389,108.694785 167.528144,107.403038 C167.646283,103.216534 170.295229,92.9850172 171.900612,86.2941321 C172.413862,84.156784 174.703139,75.0821331 175.396223,73.1561854 C175.977732,71.5376111 168.225166,68.173363 167.869435,69.9397878" id="Fill-4" sketch:type="MSShapeGroup"></path>
                <path d="M65.8613679,107.476964 C62.1662319,107.476964 60.5188445,105.444667 60.5188445,103.142608 C60.5188445,99.4995193 62.3027485,97.4023762 64.4174427,97.4023762 C66.3273619,97.4023762 67.4601869,98.9885271 67.4601869,102.035026 C67.4601869,103.794966 67.2685387,105.611972 66.9141206,107.413414 C66.5702039,107.454916 66.2184112,107.476964 65.8613679,107.476964 L65.8613679,107.476964 Z M94.5915421,88.4211047 C96.9608921,88.4211047 97.6605395,91.1459641 97.6605395,93.4428351 C97.6605395,99.6771993 93.1029864,109.374379 87.4703653,109.374379 C85.1942141,109.374379 83.1517162,107.627408 82.8629312,106.029585 C82.9128122,105.860983 82.9653186,105.676818 83.021763,105.478387 C85.6142651,97.92115 89.197825,88.4211047 94.5915421,88.4211047 L94.5915421,88.4211047 Z M138.015624,117.149501 C137.34223,117.149501 137.495811,117.61121 137.385548,118.211691 C135.935059,126.163196 126.964346,129.353655 116.140157,129.353655 C110.024477,129.353655 90.018237,125.496572 84.0246347,125.254045 C83.0165123,125.21384 82.0490824,125.195683 81.1170943,125.198277 C81.1131563,125.198277 81.110531,125.198277 81.106593,125.19698 C79.6206627,125.18012 78.9997749,124.65097 79.0102761,123.153011 C79.0352167,119.577363 80.6668522,112.964293 81.7196049,109.417178 C83.3906202,112.245792 86.7956585,113.669826 89.1951997,113.669826 C100.549703,113.669826 105.679575,101.026011 105.679575,94.7618175 C105.679575,88.2732541 102.723466,84.1386269 96.5946602,84.1386269 C93.0084749,84.1386269 90.0536788,86.3045075 87.7197706,89.1512788 C87.8405353,87.9866316 83.5888318,86.3926991 81.2562362,86.3926991 C80.7692396,86.3926991 80.4371368,86.5379557 80.3675658,86.868674 C79.8923832,89.1305278 79.2780586,92.5129331 78.4432073,96.2442137 C76.9690909,99.66423 74.1757519,104.338382 70.1393246,106.41218 C70.3913551,104.736541 70.5252464,103.025884 70.5252464,101.299664 C70.5252464,96.5645565 67.9826253,93.3533466 63.5353356,93.3533466 C58.5642948,93.3533466 55.1710705,98.2479775 55.1710705,102.619944 C55.1710705,108.605297 60.8903271,110.194041 64.5329567,110.194041 C65.1302167,110.194041 65.7077867,110.15643 66.2669796,110.085099 C64.0603993,117.749982 59.0696686,124.481072 53.6024427,124.481072 C50.1357094,124.481072 47.9855735,120.773136 47.9855735,115.855161 C47.9855735,103.042744 53.1679524,90.2199528 61.9076381,90.2199528 C63.1901062,90.2199528 63.9632625,90.3691003 64.5080161,90.3691003 C64.6497833,90.3691003 64.8926253,90.2095774 64.9740102,89.959269 C65.1695964,89.3484128 61.2132413,85.0750136 55.3587808,85.0750136 C45.5492778,85.0750136 37.4147281,99.4165155 37.4147281,112.567432 C37.4147281,123.134854 44.2497451,129.009967 50.7565973,129.009967 C59.3256372,129.009967 67.0125701,120.216751 69.5998216,109.21745 C72.5559303,108.022973 74.8268309,105.906376 76.4873449,103.835171 C76.3442651,104.312443 76.1972472,104.787121 76.0449788,105.257909 C73.8567757,112.031798 71.3194053,118.792717 71.3194053,121.609659 C71.3194053,123.316425 72.796147,124.722302 74.0011682,125.718348 C65.7983602,127.028251 62.1911725,130.66745 62.1911725,135.053682 C62.1911725,139.25575 67.1044562,142.341157 72.2618946,142.549964 C73.6454376,142.605732 74.4251572,142.185525 74.456661,141.425521 C74.4881648,140.651252 70.6735769,139.633158 70.6735769,135.38051 C70.6735769,130.806222 74.4763509,128.44191 80.6038445,128.44191 C94.6965548,129.011264 109.849894,138.520388 124.178883,138.520388 C133.883373,138.520388 144.325578,134.489516 144.325578,124.298204 C144.325578,119.779684 139.724707,117.149501 138.015624,117.149501 L138.015624,117.149501 Z" id="Fill-5" sketch:type="MSShapeGroup"></path>
                <path d="M121.841037,113.197742 C120.798785,113.197742 119.845794,112.649138 119.845794,111.509133 C119.845794,108.405569 124.894282,106.159278 129.121045,105.848014 C127.472345,109.925576 124.692133,113.197742 121.841037,113.197742 L121.841037,113.197742 Z M133.435756,84.2981498 C140.2839,84.2981498 145.076419,80.6848903 145.076419,74.8914838 C145.076419,71.5635498 142.073054,69.2563033 139.185204,69.2563033 C138.748088,69.2563033 138.805845,69.5662706 138.805845,69.9618357 C138.805845,76.0003628 133.888624,78.7031743 128.107672,78.7031743 C124.136878,78.7031743 119.990187,78.2648104 116.095527,78.2648104 C108.083054,78.2648104 104.978615,80.4488482 104.978615,83.9907763 C104.978615,86.7558407 107.555365,88.2265645 109.659558,88.2265645 C110.309325,88.2265645 110.323764,87.9658806 110.323764,87.7181662 C110.323764,87.3381643 109.86302,86.9244422 109.86302,85.3629331 C109.86302,82.9350716 111.686304,81.3164974 115.58884,81.0311718 C114.658165,86.5651914 112.183802,93.4272719 110.544291,99.3892799 C108.608118,106.430337 106.615501,112.030501 106.615501,113.056376 C106.615501,116.379122 110.728063,119.022275 111.929146,119.022275 C112.523781,119.022275 112.547409,118.591692 112.555285,118.294694 C112.568411,117.735716 112.644545,117.117078 112.883449,116.222193 C113.080348,115.481643 113.291686,114.643824 113.510901,113.745048 C115.980013,105.943987 121.323849,93.3702068 127.28726,93.3702068 C129.705178,93.3702068 130.645042,95.5918556 130.645042,98.4840196 C130.645042,100.020887 130.410076,101.639461 129.995276,103.219128 C122.626007,103.460357 116.271423,106.993207 116.271423,112.431253 C116.271423,115.433657 119.226219,117.478923 122.89904,117.478923 C134.036954,117.478923 138.703458,106.517232 138.703458,99.7589062 C138.703458,93.3494558 136.171338,89.3730546 129.601478,89.3730546 C124.563492,89.3730546 120.349856,93.64386 117.391121,98.0573281 C118.376929,95.1301469 121.346164,84.7183566 122.505242,81.8832578 C126.082239,82.8637403 129.647421,84.2981498 133.435756,84.2981498 L133.435756,84.2981498 Z" id="Fill-6" sketch:type="MSShapeGroup"></path>
                <path d="M91.6301827,65.4900054 C91.6301827,62.9713586 89.6428165,61.4085525 86.6827698,61.4085525 C83.6702167,61.4085525 81.1564741,64.0568928 81.1564741,65.9698712 C81.1564741,66.5547887 81.4190059,66.806394 81.6657859,66.806394 C81.9729482,66.806394 82.2013509,66.4445492 82.5085132,66.0995647 C83.0506415,65.4925993 83.7476636,64.9517776 84.7177188,64.9517776 C85.6628335,64.9517776 86.3808581,65.5898694 86.3808581,66.4056412 C86.3808581,68.7440141 83.2829822,71.084981 80.513271,71.420887 C80.1325998,71.4675766 80.0078972,71.8203428 80.0078972,72.2159079 C80.0078972,72.5038273 80.0302124,72.9707237 80.5434622,73.1159804 C82.4612574,73.6619898 83.545514,74.5867042 83.545514,76.430945 C83.545514,79.3399692 80.3058709,81.9610738 76.9428377,81.9610738 C72.7843331,81.9610738 70.6171325,78.7057682 70.6171325,74.7669781 C70.6171325,73.0329766 71.1671368,71.7256666 71.5307434,70.8593143 C71.7538955,70.3275712 71.9153526,69.9423816 71.8917247,69.6311174 C71.8654715,69.3094776 71.5990017,69.1590332 71.4257307,69.1590332 C71.3522218,69.1590332 64.123407,70.5221114 64.123407,76.4763377 C64.123407,81.4124705 68.6507689,84.2540541 75.3860238,84.2540541 C81.5082668,84.2540541 89.2293288,81.0687829 89.2293288,75.3350354 C89.2293288,73.9291584 88.0807519,71.837203 86.2220263,71.1796572 C89.8108369,70.0279793 91.6301827,68.0203247 91.6301827,65.4900054" id="Fill-7" sketch:type="MSShapeGroup"></path>
                <path d="M99.1792863,70.7049791 C98.3076805,70.7049791 97.7209218,69.9851805 97.7064826,69.1720025 C97.6552889,66.1358788 100.701971,62.8766824 103.996746,62.8766824 C103.39161,65.6067295 102.051385,70.7049791 99.1792863,70.7049791 L99.1792863,70.7049791 Z M108.824707,61.0869128 C108.824707,60.4254761 106.549868,59.557827 105.515493,59.557827 L105.482676,59.557827 C105.035059,59.557827 104.943173,60.0039724 104.570378,60.8625431 C104.162141,60.8314167 103.793284,60.823635 103.538628,60.823635 C103.478246,60.823635 103.419176,60.824932 103.364044,60.824932 C101.013071,60.8599492 98.2354843,61.8598857 96.1824851,63.5005079 C93.8932073,65.3304825 92.6881861,68.0255124 92.6881861,70.431326 C92.6881861,73.2417831 94.5771028,74.866842 97.1210365,74.866842 C100.329176,74.8201524 102.262723,72.4623254 103.101512,70.4663432 C103.101512,72.589425 105.574562,75.0808362 109.491538,75.0808362 C109.53223,75.0808362 109.425905,75.0795393 109.46791,75.0795393 C116.860807,75.0795393 124.408598,68.9476329 124.408598,62.5368855 C124.408598,58.0131779 119.966559,55.5736441 115.645285,55.5736441 C115.153037,55.5814257 115.053275,55.8187647 115.053275,56.1261382 C115.053275,56.6617722 117.951627,57.8069654 117.951627,62.4824143 C117.951627,68.0786867 114.412698,72.8825322 109.89715,72.8825322 L109.86302,72.8825322 C107.96229,72.8825322 106.9161,71.3119445 106.872782,69.2939144 C106.829465,67.2382732 107.710259,64.3162797 108.236636,62.7379104 C108.537234,61.8378378 108.824707,61.3229548 108.824707,61.0869128 L108.824707,61.0869128 Z" id="Fill-8" sketch:type="MSShapeGroup"></path>
                <path d="M205.301228,80.3658444 C205.301228,79.9274805 203.069707,79.8950571 198.739244,78.9482949 C195.071674,78.1467894 192.133942,76.2208416 188.44537,76.2208416 C179.310573,76.2208416 174.217455,87.2227372 174.217455,93.9149193 C174.217455,94.9005895 174.741206,95.3674859 175.467107,95.3674859 C176.690506,95.3674859 177.887651,92.711364 182.01859,92.711364 C185.046895,92.711364 189.260531,96.1054417 193.516172,96.1054417 C194.465225,96.1054417 194.74876,95.8304916 194.693628,95.3493289 C194.658186,95.0432523 192.057808,92.8047433 192.057808,92.0603029 C192.057808,91.3716307 200.819809,94.0251587 200.819809,91.5622801 C200.819809,91.3158625 195.184562,88.8400145 195.184562,88.098168 C195.184562,87.443216 203.584269,88.0242427 203.584269,85.2954925 C203.584269,85.0335117 198.107855,84.392826 198.107855,83.6055868 C198.107855,82.7158897 205.301228,82.8624433 205.301228,80.3658444" id="Fill-9" sketch:type="MSShapeGroup"></path>
                <path d="M20.8397791,102.901379 C13.8459303,102.901379 10.2190527,108.614375 6.25613424,111.943606 C3.02699235,114.655496 0.171958369,115.754 0.171958369,116.172909 C0.171958369,117.906911 8.33801189,115.433657 8.33801189,116.35059 C8.33801189,117.137829 3.96291844,119.825077 3.96291844,120.088355 C3.96291844,121.942971 12.6107179,118.052168 12.6107179,118.913332 C12.6107179,120.01832 9.50890399,122.961065 9.50890399,123.337176 C9.50890399,124.836432 16.393802,120.806857 17.2181521,121.039008 C17.94274,121.242627 15.0181351,124.842917 15.1270858,125.130836 C15.3003568,125.584763 16.7495327,125.434319 17.6473917,125.13343 C21.8505268,123.724959 24.4640314,116.938101 29.3234962,116.938101 C31.4539422,116.938101 32.6313976,117.896535 33.5371325,117.896535 C34.2617205,117.896535 34.7513424,117.711074 34.7513424,116.53216 C34.7513424,110.900871 29.3339975,102.901379 20.8397791,102.901379" id="Fill-10" sketch:type="MSShapeGroup"></path>
            </g>
        </g>
    </g>
</svg>