<?xml version="1.0" encoding="UTF-8" standalone="no"?>
<svg width="82px" height="42px" viewBox="0 0 82 42" version="1.1" xmlns="http://www.w3.org/2000/svg" xmlns:xlink="http://www.w3.org/1999/xlink" xmlns:sketch="http://www.bohemiancoding.com/sketch/ns">
    <!-- Generator: Sketch 3.3.3 (12072) - http://www.bohemiancoding.com/sketch -->
    <title>Group</title>
    <desc>Created with Sketch.</desc>
    <defs></defs>
    <g id="Page-1" stroke="none" stroke-width="1" fill="none" fill-rule="evenodd" sketch:type="MSPage">
        <g id="Group" sketch:type="MSLayerGroup">
            <path d="M80.8139016,12.9089207 C73.2233241,10.1877762 64.2265598,10.0134971 60.4109805,10.1877762 C44.6610591,10.8902404 40.5790278,15.6291214 40.5790278,15.6291214 C40.5790278,15.6291214 38.9985619,12.5134896 28.5138192,10.9336529 C9.60516815,8.38993334 0.480053929,12.8202082 0.480053929,12.8202082 L7.45467755,17.9526328 L0.522208074,38.9255786 L11.272459,23.7453674 C11.272459,23.7453674 16.8424687,31.3350011 20.7930043,36.6879485 C32.7710733,37.4344543 35.1829825,39.0139765 40.5356153,41.9971688 C46.1518688,36.9949816 60.1476743,36.644536 60.1476743,36.644536 L69.7569321,23.7032132 L80.6371058,38.7066287 L73.5725114,17.9526328 C73.5725114,17.9526328 75.0652086,16.8125833 80.8139016,12.9089207 L80.8139016,12.9089207 Z M20.704921,36.292832 L14.8700322,17.1642873 L20.704921,10.4963823 L20.704921,36.292832 L20.704921,36.292832 Z M60.1476743,36.292832 L60.2344993,10.6275635 L66.1568422,17.1196165 L60.1476743,36.292832 L60.1476743,36.292832 Z" id="Fill-11" fill="#1A1918" sketch:type="MSShapeGroup"></path>
            <path d="M81.1866826,10.4671261 C73.5394802,7.72836492 64.4804284,7.55188375 60.6349637,7.72836492 C44.7686465,8.4336604 40.6589319,13.2080893 40.6589319,13.2080893 C40.6589319,13.2080893 39.068714,10.0701221 28.5062692,8.47990413 C9.45857239,5.91542207 0.266766534,10.3790428 0.266766534,10.3790428 L7.29455472,15.5514194 L0.310808179,36.6750506 L11.1400195,21.3825331 C11.1400195,21.3825331 16.7506104,29.0300502 20.7285147,34.4235788 C32.7949816,35.1735451 35.2238784,36.7656505 40.6145757,39.7689761 C46.2729833,34.7324994 60.3700846,34.3776496 60.3700846,34.3776496 L70.0507528,21.340379 L81.0086286,36.4545278 L73.8949592,15.5514194 C73.8949592,15.5514194 75.3961501,14.4009887 81.1866826,10.4671261 L81.1866826,10.4671261 Z M20.6404314,34.0231144 L14.761501,14.7555239 L20.6404314,8.03697101 L20.6404314,34.0231144 L20.6404314,34.0231144 Z M60.3700846,34.0231144 L60.4606846,8.17129803 L66.4254962,14.710224 L60.3700846,34.0231144 L60.3700846,34.0231144 Z" id="Fill-12" fill="#FFFFFF" sketch:type="MSShapeGroup"></path>
            <path d="M13.8404015,3.51829825 C13.8404015,5.40107857 12.3131001,6.92869448 10.4303198,6.92869448 C8.54659576,6.92869448 7.01866527,5.40107857 7.01866527,3.51829825 C7.01866527,1.63237211 8.54659576,0.106329114 10.4303198,0.106329114 C12.3131001,0.106329114 13.8404015,1.63237211 13.8404015,3.51829825" id="Fill-13" fill="#FFFFFF" sketch:type="MSShapeGroup"></path>
            <path d="M74.1957007,3.51829825 C74.1957007,5.40107857 72.6706015,6.92869448 70.7862482,6.92869448 C68.901895,6.92869448 67.375852,5.40107857 67.375852,3.51829825 C67.375852,1.63237211 68.901895,0.106329114 70.7862482,0.106329114 C72.6706015,0.106329114 74.1957007,1.63237211 74.1957007,3.51829825" id="Fill-14" fill="#FFFFFF" sketch:type="MSShapeGroup"></path>
        </g>
    </g>
</svg>