<?xml version="1.0" encoding="UTF-8" standalone="no"?>
<svg width="86px" height="60px" viewBox="0 0 86 60" version="1.1" xmlns="http://www.w3.org/2000/svg" xmlns:xlink="http://www.w3.org/1999/xlink" xmlns:sketch="http://www.bohemiancoding.com/sketch/ns">
    <!-- Generator: Sketch 3.3.2 (12043) - http://www.bohemiancoding.com/sketch -->
    <title>Group Copy</title>
    <desc>Created with Sketch.</desc>
    <defs></defs>
    <g id="Page-1" stroke="none" stroke-width="1" fill="none" fill-rule="evenodd" sketch:type="MSPage">
        <g id="Desktop_Home" sketch:type="MSArtboardGroup" transform="translate(-76.000000, -1859.000000)" fill="#F03B77">
            <g id="Подвал-Десктоп" sketch:type="MSLayerGroup" transform="translate(0.000000, 1849.000000)">
                <g id="Group-Copy" transform="translate(76.000000, 10.000000)" sketch:type="MSShapeGroup">
                    <path d="M12.8127273,31.7275676 C12.3125455,31.8324324 11.7894545,31.9383784 11.2587273,32.0416216 C11.4790909,31.4416216 11.6574545,30.9697297 11.7490909,30.7254054 C12.0305455,29.9735135 12.3469091,29.1443243 12.6627273,28.3162162 C13.08,28.2286486 13.5005455,28.14 13.9205455,28.0518919 C14.5009091,27.9297297 15.1123636,27.807027 15.7303636,27.6881081 C15.4396364,28.4881081 15.198,29.1281081 15.0856364,29.427027 C14.85,30.0562162 14.5903636,30.7308108 14.3269091,31.4091892 C13.8261818,31.5145946 13.3189091,31.6210811 12.8127273,31.7275676 L12.8127273,31.7275676 Z M21.3703636,31.9859459 C21.8367273,31.9335135 21.6021818,30.6086486 21.6021818,30.2378378 C21.6021818,30.1043243 21.5176364,30.0135135 21.3109091,30.0135135 C21.0736364,30.0135135 19.3232727,30.3659459 17.0394545,30.8410811 C17.2025455,30.3367568 17.3394545,29.9156757 17.4327273,29.6286486 C17.5756364,29.1897297 17.9405455,28.2654054 18.3627273,27.2097297 C20.1878182,26.8989189 21.7461818,26.68 22.3167273,26.68 C22.7192727,26.68 22.4465455,25.7918919 22.2452727,25.312973 C22.0985455,24.9627027 22.0974545,24.7605405 21.8781818,24.7605405 C21.3954545,24.7605405 20.4016364,24.9724324 19.1389091,25.2691892 C19.7405455,23.7556757 20.2636364,22.3935135 20.2636364,22.1378378 C20.2636364,21.7205405 18.45,21.0297297 17.9863636,21.0297297 C17.6836364,21.0297297 17.5849091,21.1281081 17.5898182,21.3210811 C17.6094545,22.0778378 16.9887273,24.0848649 16.3521818,25.9345946 C15.5290909,26.1275676 14.6732727,26.3216216 13.8229091,26.4962162 C13.6532727,26.5313514 13.4841818,26.5654054 13.3150909,26.5989189 C13.9903636,24.8086486 14.5341818,23.3091892 14.5341818,23.0194595 C14.5341818,22.3113514 12.5530909,21.8010811 12.2345455,21.8010811 C12.0670909,21.8010811 11.9689091,21.892973 11.928,22.0945946 C11.7212727,23.1124324 11.0923636,25.2081081 10.4983636,27.1037838 C8.22,27.4740541 6.30381818,27.7016216 5.48563636,27.7935135 C5.01927273,27.8459459 5.13163636,29.1702703 5.13163636,29.5416216 C5.13163636,29.6745946 5.21563636,29.7659459 5.42290909,29.7659459 C5.66836364,29.7659459 7.53272727,29.3886486 9.93109091,28.8886486 C9.70909091,29.5810811 9.52036364,30.1594595 9.402,30.5243243 C9.27818182,30.9032432 8.99127273,31.6459459 8.646,32.5221622 C6.70363636,32.8578378 5.01545455,33.0989189 4.41654545,33.0989189 C4.014,33.0989189 4.33527273,34.1551351 4.33527273,34.4664865 C4.33527273,34.9210811 4.48309091,35.0189189 4.70236364,35.0189189 C5.232,35.0189189 6.41509091,34.7637838 7.89490909,34.4205405 C7.22781818,36.1102703 6.60163636,37.732973 6.60163636,38.0145946 C6.60163636,38.4318919 8.38472727,39.1227027 8.84836364,39.1227027 C9.15109091,39.1227027 9.24981818,39.0248649 9.24490909,38.8313514 C9.22363636,38.0145946 9.94909091,35.7410811 10.6341818,33.7810811 C11.3847273,33.6091892 12.1538182,33.4383784 12.9103636,33.2827027 C13.1585455,33.2318919 13.4072727,33.1821622 13.6549091,33.1345946 C12.9185455,35.0264865 12.3005455,36.6427027 12.3005455,36.9508108 C12.3005455,37.6594595 14.2816364,38.3513514 14.6001818,38.3513514 C14.7676364,38.3513514 14.8663636,38.2594595 14.9067273,38.0583784 C15.1281818,36.967027 15.8345455,34.6383784 16.464,32.6437838 C18.6916364,32.2918919 20.5756364,32.0751351 21.3703636,31.9859459 L21.3703636,31.9859459 Z" id="Fill-2"></path>
                    <path d="M31.2076364,24.0389189 C30.7598182,24.0389189 30.3114545,23.6891892 30.3114545,23.2816216 C30.3114545,21.6286486 32.508,20.9389189 34.5005455,20.62 C33.7003636,22.3843243 32.4032727,24.0389189 31.2076364,24.0389189 L31.2076364,24.0389189 Z M45.5487273,14.4172973 C46.1089091,14.4172973 46.3325455,14.6940541 46.3325455,15.1016216 C46.3325455,16.3037838 44.8778182,17.1762162 43.1061818,17.8172973 C43.4607273,16.22 44.5581818,14.4172973 45.5487273,14.4172973 L45.5487273,14.4172973 Z M57.1101818,25.4708108 C55.878,25.4708108 54.7543636,25.1610811 54.7543636,24.372973 C54.7543636,23.4805405 56.1861818,22.9956757 57.39,22.9956757 C58.4814545,22.9956757 59.6225455,23.2518919 60.804,23.5924324 C59.8974545,24.7362162 58.7127273,25.4708108 57.1101818,25.4708108 L57.1101818,25.4708108 Z M22.6298182,16.3345946 C24.4881818,16.2297297 26.1725455,15.4891892 27.3692727,14.4378378 C26.8494545,16.1427027 26.2821818,17.8956757 25.7476364,19.4259459 C24.8765455,21.9194595 24.3147273,23.6632432 24.3147273,24.2 C24.3147273,25.0297297 25.9641818,26.8416216 26.7938182,26.8416216 C26.8947273,26.8416216 26.9721818,26.8189189 27.0109091,26.6616216 C27.0730909,26.4043243 27.072,26.2891892 27.2329091,25.7556757 C27.3512727,25.3627027 27.486,24.8789189 27.6294545,24.3443243 C27.6310909,24.3632432 27.6321818,24.3735135 27.6321818,24.3735135 C28.6150909,21.0789189 31.3107273,15.2178378 33.9152727,15.2178378 C35.1474545,15.2178378 35.2734545,16.6994595 35.2734545,17.6891892 C35.2734545,18.1994595 35.1518182,18.8248649 34.9412727,19.4821622 C32.1572727,19.8989189 28.8927273,20.8318919 28.8927273,23.6313514 C28.8927273,24.98 29.9983636,25.8886486 31.5616364,25.8886486 C34.536,25.8886486 37.4825455,23.3605405 38.4152727,20.1091892 C38.8718182,20.0124324 39.36,19.9075676 39.8656364,19.7924324 C40.0232727,22.2891892 41.6536364,23.3405405 43.038,23.3405405 C46.0090909,23.3405405 47.8914545,19.7989189 49.0816364,17.0189189 C50.1578182,14.5048649 51.4652727,12.4583784 53.058,12.4583784 C53.5314545,12.4583784 53.7349091,12.6718919 53.7349091,13.0345946 C53.7349091,14.3021622 49.6330909,16.472973 49.6330909,19.5286486 C49.6330909,21.1005405 51.1014545,22.1432432 52.7618182,21.8751351 C54.1287273,21.6545946 54.8345455,21.0810811 55.8109091,20.2686486 C56.5150909,19.6827027 57.0725455,18.9356757 57.5029091,18.3210811 C57.7352727,19.9562162 58.7465455,20.5605405 59.9727273,20.5605405 C61.2403636,20.5605405 62.3307273,19.6027027 63.0910909,18.5778378 C62.7545455,19.5686486 62.496,20.2859459 62.4370909,20.4497297 C62.1703636,21.1951351 61.8638182,21.9032432 61.5038182,22.5405405 C60.2061818,22.2297297 58.8932727,21.9637838 57.6763636,21.9637838 C54.786,21.9637838 53.4098182,23.0351351 53.4098182,24.4697297 C53.4098182,26.0145946 55.3041818,26.607027 56.8723636,26.607027 C59.4845455,26.607027 61.5005455,25.5886486 62.8718182,24.2281081 C64.6150909,24.7713514 66.4303636,25.2881081 68.292,25.2881081 C72.8896364,25.2881081 76.3930909,22.8810811 76.3930909,18.8459459 C76.3930909,16.1832432 74.1310909,13.98 70.8769091,13.98 C70.6107273,13.98 70.5774545,14.0794595 70.5774545,14.2340541 C70.5774545,14.5016216 72.4243636,15.4016216 72.4243636,18.2616216 C72.4243636,21.0691892 69.8830909,23.5075676 66.5978182,23.5075676 C65.7616364,23.5075676 64.8141818,23.3340541 63.8138182,23.1037838 C64.128,22.6486486 64.3810909,22.1778378 64.5709091,21.7113514 C65.7125455,18.9016216 68.1949091,11.3459459 68.1949091,10.7054054 C68.1949091,10.0648649 65.0727273,8.93135135 65.0727273,9.46162162 C65.0727273,9.62972973 65.2325455,10.9572973 64.9270909,12.3556757 C64.8523636,12.6994595 64.764,13.0637838 64.6663636,13.4405405 C64.6598182,13.4551351 64.65,13.4891892 64.6363636,13.5475676 C64.6276364,13.5854054 64.6183636,13.6232432 64.6085455,13.6621622 C64.5949091,13.7124324 64.5818182,13.7621622 64.5681818,13.8124324 C64.0625455,15.6183784 62.4638182,18.5805405 61.0232727,18.5805405 C60.5187273,18.5805405 60.2530909,18.2313514 60.2530909,17.4740541 C60.2530909,16.0475676 62.1245455,13.7475676 62.1245455,12.2340541 C62.1245455,10.952973 61.0298182,10.0794595 59.3361818,10.0794595 C59.1905455,10.0794595 59.118,10.1432432 59.118,10.3075676 C59.118,10.447027 59.1741818,10.7016216 59.184,11.3859459 C59.2041818,12.8037838 58.3718182,14.3583784 57.8541818,15.7708108 C57.2863636,17.087027 55.53,19.6702703 53.7190909,19.6702703 C53.154,19.6702703 52.8027273,19.4508108 52.8027273,18.832973 C52.8027273,17.5454054 56.658,15.4108108 56.658,13.1086486 C56.658,11.772973 55.7776364,10.7648649 53.916,10.7648649 C51.102,10.7648649 49.674,13.5291892 48.3098182,16.4854054 C47.1654545,18.9643243 45.8514545,21.2589189 44.4589091,21.2589189 C43.5567273,21.2589189 43.0178182,20.6427027 42.99,18.932973 C45.5623636,18.0562162 47.7992727,16.7156757 47.7992727,14.4508108 C47.7992727,13.3972973 47.0776364,12.5102703 45.4532727,12.5102703 C42.6070909,12.5102703 40.2392727,15.9610811 39.8950909,18.7259459 C39.4510909,18.8281081 39.0294545,18.9194595 38.6481818,19.0010811 C38.694,18.6664865 38.718,18.327027 38.718,17.9837838 C38.718,15.1891892 37.5365455,13.2264865 34.9041818,13.2264865 C32.6487273,13.2264865 30.8629091,15.0967568 29.6323636,17.0216216 C30.1701818,15.5972973 31.7361818,10.8848649 32.0885455,10.3345946 C32.1605455,10.2227027 32.1834545,10.1654054 32.1834545,10.0783784 C32.1834545,9.61621622 30.1794545,8.65351351 29.4103636,8.65351351 C29.1398182,8.65351351 28.95,8.71621622 28.9112727,8.88 C28.854,9.12324324 28.7907273,9.3827027 28.7214545,9.65567568 C28.7198182,9.64702703 28.7181818,9.64108108 28.7181818,9.64108108 C28.1765455,11.9854054 26.5985455,13.9227027 24.4358182,13.9227027 C23.1474545,13.9227027 22.0418182,13.1416216 22.0418182,11.8264865 C22.0418182,8.79513514 25.842,7.21567568 28.9123636,7.21567568 C35.2636364,7.21567568 39.9910909,9.69297297 46.7825455,9.69297297 C51.6801818,9.69297297 55.872,7.83567568 55.872,3.84162162 C55.872,1.91837838 54.204,0.459459459 52.6652727,0.459459459 C52.3854545,0.459459459 52.422,0.628108108 52.422,0.882162162 C52.422,4.38486486 48.5547273,6.36540541 43.7601818,6.36540541 C41.2189091,6.36540541 34.1105455,5.83081081 29.5003636,5.83081081 C23.1152727,5.83081081 18.0507273,8.34918919 18.0507273,12.6994595 C18.0507273,14.9648649 20.2810909,16.467027 22.6298182,16.3345946 L22.6298182,16.3345946 Z" id="Fill-3"></path>
                    <path d="M69.7554545,29.5497297 C69.738,29.6367568 69.72,29.7286486 69.7014545,29.8237838 C69.4843636,30.5464865 67.6270909,33.7897297 65.5947273,37.012973 C64.4476364,38.832973 63.2203636,40.6448649 62.2347273,42.0708108 C62.6765455,40.2210811 63.1445455,38.5291892 63.2110909,38.24 C63.4565455,37.167027 64.506,33.0372973 64.8927273,32.432973 C64.914,32.3989189 64.9227273,32.3627027 64.9227273,32.3243243 C64.9227273,31.8405405 62.9907273,30.8956757 62.0934545,30.8956757 C61.8850909,30.8956757 61.7449091,30.9562162 61.7181818,31.0918919 C61.3527273,32.9118919 60.6316364,36.4075676 59.9045455,39.4378378 C59.2881818,42.0086486 58.6903636,43.9643243 58.6903636,44.7697297 C58.6903636,45.7372973 60.2389091,47.0664865 60.9283636,47.0664865 C61.0903636,47.0664865 61.2032727,47.0545946 61.2283636,46.8205405 C61.2485455,46.6308108 61.3298182,46.4275676 61.3936364,46.2378378 C61.9947273,44.8783784 64.2354545,41.5194595 66.3130909,38.227027 C67.2218182,36.787027 68.1190909,35.3989189 68.8554545,34.2594595 C68.6225455,35.407027 68.3541818,36.6351351 68.0449091,37.8610811 C67.2769091,40.9059459 66.4565455,43.1767568 66.4565455,44.2513514 C66.4565455,44.9545946 68.2516364,45.7205405 68.9029091,45.7205405 C69.4052727,45.7205405 69.5983636,45.7021622 69.6136364,45.1637838 C69.6627273,43.4189189 70.7634545,39.1545946 71.4305455,36.3659459 C71.6438182,35.4751351 72.5950909,31.692973 72.8830909,30.8902703 C73.1247273,30.2156757 69.9032727,28.8135135 69.7554545,29.5497297" id="Fill-4"></path>
                    <path d="M27.3676364,45.1945946 C25.8321818,45.1945946 25.1476364,44.3475676 25.1476364,43.3881081 C25.1476364,41.8697297 25.8889091,40.9956757 26.7676364,40.9956757 C27.5612727,40.9956757 28.032,41.6567568 28.032,42.9264865 C28.032,43.66 27.9523636,44.4172973 27.8050909,45.1681081 C27.6621818,45.1854054 27.516,45.1945946 27.3676364,45.1945946 L27.3676364,45.1945946 Z M39.306,37.2524324 C40.2905455,37.2524324 40.5812727,38.3881081 40.5812727,39.3454054 C40.5812727,41.9437838 38.6874545,45.9854054 36.3469091,45.9854054 C35.4010909,45.9854054 34.5523636,45.2572973 34.4323636,44.5913514 C34.4530909,44.5210811 34.4749091,44.4443243 34.4983636,44.3616216 C35.5756364,41.2118919 37.0647273,37.2524324 39.306,37.2524324 L39.306,37.2524324 Z M57.3501818,49.2259459 C57.0703636,49.2259459 57.1341818,49.4183784 57.0883636,49.6686486 C56.4856364,52.9827027 52.758,54.3124324 48.2601818,54.3124324 C45.7189091,54.3124324 37.4056364,52.7048649 34.9150909,52.6037838 C34.4961818,52.587027 34.0941818,52.5794595 33.7069091,52.5805405 C33.7052727,52.5805405 33.7041818,52.5805405 33.7025455,52.58 C33.0850909,52.572973 32.8270909,52.3524324 32.8314545,51.7281081 C32.8418182,50.2378378 33.5198182,47.4816216 33.9572727,46.0032432 C34.6516364,47.1821622 36.0665455,47.7756757 37.0636364,47.7756757 C41.7818182,47.7756757 43.9134545,42.5059459 43.9134545,39.8951351 C43.9134545,37.1908108 42.6850909,35.4675676 40.1383636,35.4675676 C38.6481818,35.4675676 37.4203636,36.3702703 36.4505455,37.5567568 C36.5007273,37.0713514 34.734,36.407027 33.7647273,36.407027 C33.5623636,36.407027 33.4243636,36.4675676 33.3954545,36.6054054 C33.198,37.5481081 32.9427273,38.9578378 32.5958182,40.512973 C31.9832727,41.9383784 30.8225455,43.8864865 29.1452727,44.7508108 C29.25,44.0524324 29.3056364,43.3394595 29.3056364,42.62 C29.3056364,40.6464865 28.2490909,39.3081081 26.4010909,39.3081081 C24.3354545,39.3081081 22.9254545,41.3481081 22.9254545,43.1702703 C22.9254545,45.6648649 25.302,46.327027 26.8156364,46.327027 C27.0638182,46.327027 27.3038182,46.3113514 27.5361818,46.2816216 C26.6192727,49.4762162 24.5454545,52.2816216 22.2736364,52.2816216 C20.8330909,52.2816216 19.9396364,50.7362162 19.9396364,48.6864865 C19.9396364,43.3464865 22.0930909,38.0021622 25.7247273,38.0021622 C26.2576364,38.0021622 26.5789091,38.0643243 26.8052727,38.0643243 C26.8641818,38.0643243 26.9650909,37.9978378 26.9989091,37.8935135 C27.0801818,37.6389189 25.4361818,35.8578378 23.0034545,35.8578378 C18.9272727,35.8578378 15.5470909,41.8351351 15.5470909,47.3162162 C15.5470909,51.7205405 18.3872727,54.1691892 21.0910909,54.1691892 C24.6518182,54.1691892 27.846,50.5043243 28.9210909,45.92 C30.1494545,45.4221622 31.0930909,44.54 31.7830909,43.6767568 C31.7236364,43.8756757 31.6625455,44.0735135 31.5992727,44.2697297 C30.69,47.092973 29.6356364,49.9108108 29.6356364,51.0848649 C29.6356364,51.7962162 30.2492727,52.3821622 30.75,52.7972973 C27.3414545,53.3432432 25.8425455,54.86 25.8425455,56.6881081 C25.8425455,58.4394595 27.8841818,59.7254054 30.0272727,59.8124324 C30.6021818,59.8356757 30.9261818,59.6605405 30.9392727,59.3437838 C30.9523636,59.0210811 29.3672727,58.5967568 29.3672727,56.8243243 C29.3672727,54.9178378 30.9474545,53.9324324 33.4936364,53.9324324 C39.3496364,54.1697297 45.6463636,58.132973 51.6005455,58.132973 C55.6330909,58.132973 59.9721818,56.452973 59.9721818,52.2054054 C59.9721818,50.3221622 58.0603636,49.2259459 57.3501818,49.2259459 L57.3501818,49.2259459 Z" id="Fill-5"></path>
                    <path d="M50.6290909,47.5789189 C50.196,47.5789189 49.8,47.3502703 49.8,46.8751351 C49.8,45.5816216 51.8978182,44.6454054 53.6541818,44.5156757 C52.9690909,46.2151351 51.8138182,47.5789189 50.6290909,47.5789189 L50.6290909,47.5789189 Z M55.4470909,35.5340541 C58.2927273,35.5340541 60.2841818,34.0281081 60.2841818,31.6135135 C60.2841818,30.2264865 59.0361818,29.2648649 57.8361818,29.2648649 C57.6545455,29.2648649 57.6785455,29.3940541 57.6785455,29.5589189 C57.6785455,32.0756757 55.6352727,33.2021622 53.2330909,33.2021622 C51.5830909,33.2021622 49.86,33.0194595 48.2416364,33.0194595 C44.9121818,33.0194595 43.6221818,33.9297297 43.6221818,35.4059459 C43.6221818,36.5583784 44.6929091,37.1713514 45.5672727,37.1713514 C45.8372727,37.1713514 45.8432727,37.0627027 45.8432727,36.9594595 C45.8432727,36.8010811 45.6518182,36.6286486 45.6518182,35.9778378 C45.6518182,34.9659459 46.4094545,34.2913514 48.0310909,34.1724324 C47.6443636,36.4789189 46.6161818,39.3389189 45.9349091,41.8237838 C45.1303636,44.7583784 44.3023636,47.0924324 44.3023636,47.52 C44.3023636,48.9048649 46.0112727,50.0064865 46.5103636,50.0064865 C46.7574545,50.0064865 46.7672727,49.827027 46.7705455,49.7032432 C46.776,49.4702703 46.8076364,49.2124324 46.9069091,48.8394595 C46.9887273,48.5308108 47.0765455,48.1816216 47.1676364,47.807027 C48.1936364,44.5556757 50.4141818,39.3151351 52.8921818,39.3151351 C53.8969091,39.3151351 54.2874545,40.2410811 54.2874545,41.4464865 C54.2874545,42.087027 54.1898182,42.7616216 54.0174545,43.42 C50.9552727,43.5205405 48.3147273,44.992973 48.3147273,47.2594595 C48.3147273,48.5108108 49.5425455,49.3632432 51.0687273,49.3632432 C55.6969091,49.3632432 57.636,44.7945946 57.636,41.9778378 C57.636,39.3064865 56.5838182,37.6491892 53.8538182,37.6491892 C51.7603636,37.6491892 50.0094545,39.4291892 48.78,41.2686486 C49.1896364,40.0486486 50.4234545,35.7091892 50.9050909,34.5275676 C52.3914545,34.9362162 53.8729091,35.5340541 55.4470909,35.5340541 L55.4470909,35.5340541 Z" id="Fill-6"></path>
                    <path d="M38.0754545,27.6951351 C38.0754545,26.6454054 37.2496364,25.9940541 36.0196364,25.9940541 C34.7678182,25.9940541 33.7232727,27.0978378 33.7232727,27.8951351 C33.7232727,28.1389189 33.8323636,28.2437838 33.9349091,28.2437838 C34.0625455,28.2437838 34.1574545,28.092973 34.2850909,27.9491892 C34.5103636,27.6962162 34.8,27.4708108 35.2030909,27.4708108 C35.5958182,27.4708108 35.8941818,27.7367568 35.8941818,28.0767568 C35.8941818,29.0513514 34.6069091,30.027027 33.456,30.167027 C33.2978182,30.1864865 33.246,30.3335135 33.246,30.4983784 C33.246,30.6183784 33.2552727,30.812973 33.4685455,30.8735135 C34.2654545,31.1010811 34.716,31.4864865 34.716,32.2551351 C34.716,33.4675676 33.3698182,34.56 31.9723636,34.56 C30.2443636,34.56 29.3438182,33.2032432 29.3438182,31.5616216 C29.3438182,30.8389189 29.5723636,30.2940541 29.7234545,29.932973 C29.8161818,29.7113514 29.8832727,29.5508108 29.8734545,29.4210811 C29.8625455,29.287027 29.7518182,29.2243243 29.6798182,29.2243243 C29.6492727,29.2243243 26.6454545,29.7924324 26.6454545,32.2740541 C26.6454545,34.3313514 28.5267273,35.5156757 31.3254545,35.5156757 C33.8694545,35.5156757 37.0778182,34.1881081 37.0778182,31.7983784 C37.0778182,31.2124324 36.6005455,30.3405405 35.8281818,30.0664865 C37.3194545,29.5864865 38.0754545,28.7497297 38.0754545,27.6951351" id="Fill-7"></path>
                    <path d="M41.2123636,29.8686486 C40.8501818,29.8686486 40.6063636,29.5686486 40.6003636,29.2297297 C40.5790909,27.9643243 41.8450909,26.6059459 43.2141818,26.6059459 C42.9627273,27.7437838 42.4058182,29.8686486 41.2123636,29.8686486 L41.2123636,29.8686486 Z M45.2203636,25.86 C45.2203636,25.5843243 44.2750909,25.2227027 43.8452727,25.2227027 L43.8316364,25.2227027 C43.6456364,25.2227027 43.6074545,25.4086486 43.4525455,25.7664865 C43.2829091,25.7535135 43.1296364,25.7502703 43.0238182,25.7502703 C42.9987273,25.7502703 42.9741818,25.7508108 42.9512727,25.7508108 C41.9743636,25.7654054 40.8201818,26.1821622 39.9670909,26.8659459 C39.0158182,27.6286486 38.5150909,28.7518919 38.5150909,29.7545946 C38.5150909,30.9259459 39.3,31.6032432 40.3570909,31.6032432 C41.6901818,31.5837838 42.4936364,30.6010811 42.8421818,29.7691892 C42.8421818,30.6540541 43.8698182,31.6924324 45.4974545,31.6924324 C45.5143636,31.6924324 45.4701818,31.6918919 45.4876364,31.6918919 C48.5596364,31.6918919 51.696,29.1362162 51.696,26.4643243 C51.696,24.5789189 49.8501818,23.5621622 48.0545455,23.5621622 C47.85,23.5654054 47.8085455,23.6643243 47.8085455,23.7924324 C47.8085455,24.0156757 49.0129091,24.492973 49.0129091,26.4416216 C49.0129091,28.7740541 47.5423636,30.7762162 45.666,30.7762162 L45.6518182,30.7762162 C44.862,30.7762162 44.4272727,30.1216216 44.4092727,29.2805405 C44.3912727,28.4237838 44.7572727,27.2059459 44.976,26.5481081 C45.1009091,26.172973 45.2203636,25.9583784 45.2203636,25.86 L45.2203636,25.86 Z" id="Fill-8"></path>
                    <path d="M85.3096364,33.8951351 C85.3096364,33.7124324 84.3823636,33.6989189 82.5829091,33.3043243 C81.0589091,32.9702703 79.8381818,32.1675676 78.3054545,32.1675676 C74.5096364,32.1675676 72.3932727,36.752973 72.3932727,39.5421622 C72.3932727,39.952973 72.6109091,40.1475676 72.9125455,40.1475676 C73.4209091,40.1475676 73.9183636,39.0405405 75.6349091,39.0405405 C76.8932727,39.0405405 78.6441818,40.4551351 80.4125455,40.4551351 C80.8069091,40.4551351 80.9247273,40.3405405 80.9018182,40.14 C80.8870909,40.0124324 79.8065455,39.0794595 79.8065455,38.7691892 C79.8065455,38.4821622 83.4474545,39.5881081 83.4474545,38.5616216 C83.4474545,38.4589189 81.1058182,37.427027 81.1058182,37.1178378 C81.1058182,36.8448649 84.5961818,37.087027 84.5961818,35.9497297 C84.5961818,35.8405405 82.3205455,35.5735135 82.3205455,35.2454054 C82.3205455,34.8745946 85.3096364,34.9356757 85.3096364,33.8951351" id="Fill-9"></path>
                    <path d="M8.65963636,43.2875676 C5.75345455,43.2875676 4.24636364,45.6686486 2.59963636,47.0562162 C1.25781818,48.1864865 0.0714545455,48.6443243 0.0714545455,48.8189189 C0.0714545455,49.5416216 3.46472727,48.5108108 3.46472727,48.892973 C3.46472727,49.2210811 1.64672727,50.3410811 1.64672727,50.4508108 C1.64672727,51.2237838 5.24018182,49.6021622 5.24018182,49.9610811 C5.24018182,50.4216216 3.95127273,51.6481081 3.95127273,51.8048649 C3.95127273,52.4297297 6.81218182,50.7502703 7.15472727,50.847027 C7.45581818,50.9318919 6.24054545,52.4324324 6.28581818,52.5524324 C6.35781818,52.7416216 6.96,52.6789189 7.33309091,52.5535135 C9.07963636,51.9664865 10.1656364,49.1378378 12.1849091,49.1378378 C13.0701818,49.1378378 13.5594545,49.5372973 13.9358182,49.5372973 C14.2369091,49.5372973 14.4403636,49.46 14.4403636,48.9686486 C14.4403636,46.6216216 12.1892727,43.2875676 8.65963636,43.2875676" id="Fill-10"></path>
                </g>
            </g>
        </g>
    </g>
</svg>