<?xml version="1.0" encoding="UTF-8" standalone="no"?>
<svg width="352px" height="100px" viewBox="0 0 352 100" version="1.1" xmlns="http://www.w3.org/2000/svg" xmlns:xlink="http://www.w3.org/1999/xlink" xmlns:sketch="http://www.bohemiancoding.com/sketch/ns">
    <!-- Generator: Sketch 3.3.3 (12072) - http://www.bohemiancoding.com/sketch -->
    <title>home + Стартер + Смени логотип</title>
    <desc>Created with Sketch.</desc>
    <defs></defs>
    <g id="Page-1" stroke="none" stroke-width="1" fill="none" fill-rule="evenodd" sketch:type="MSPage">
        <g id="Artboard-1" sketch:type="MSArtboardGroup" transform="translate(-46.000000, -174.000000)" fill="#FFFFFF">
            <g id="home-+-Стартер-+-Смени-логотип" sketch:type="MSLayerGroup" transform="translate(46.000000, 174.000000)">
                <path d="M247.146834,54.5009641 C246.038775,53.3921957 246.038775,51.5960336 247.146834,50.4879747 L296.803764,0.831044201 C297.912532,-0.277014734 299.708695,-0.277014734 300.816754,0.831044201 L350.473684,50.4879747 C351.582452,51.596743 351.582452,53.3936145 350.473684,54.5009641 C349.919655,55.0542841 349.193245,55.3316536 348.467544,55.3316536 C347.741843,55.3316536 347.015434,55.0542841 346.460695,54.5009641 L298.810614,6.85017356 L251.160532,54.5009641 C250.051764,55.609023 248.255602,55.609023 247.146834,54.5009641 L247.146834,54.5009641 Z M297.236489,83.2303359 C286.153062,75.8413846 274.691533,68.2006018 274.691533,56.0410383 C274.691533,45.1307013 281.918745,39.4222824 289.057992,39.4222824 C292.706358,39.4222824 296.380971,40.9488783 298.810614,43.9240379 C301.240256,40.9495877 304.91416,39.4222824 308.563235,39.4222824 C315.702483,39.4222824 322.929694,45.1307013 322.929694,56.0410383 C322.929694,68.2006018 311.468165,75.8413846 300.384738,83.2303359 C299.908032,83.5474309 299.359677,83.7070424 298.810614,83.7070424 C298.262259,83.7070424 297.713195,83.5474309 297.236489,83.2303359 L297.236489,83.2303359 Z M298.810614,77.4566536 C308.134057,71.217615 317.254616,64.6756691 317.254616,56.0410383 C317.254616,48.4811253 312.889063,45.0973602 308.563235,45.0973602 C305.1213,45.0973602 301.648152,47.3844165 301.648152,52.4941147 C301.648152,54.0611455 300.377644,55.3316536 298.810614,55.3316536 C297.243583,55.3316536 295.973075,54.0611455 295.973075,52.4941147 C295.973075,47.3844165 292.499927,45.0973602 289.057992,45.0973602 C284.732164,45.0973602 280.366611,48.4811253 280.366611,56.0410383 C280.366611,64.6770879 289.48788,71.2183244 298.810614,77.4566536 L298.810614,77.4566536 Z M259.794454,56.750423 C258.227423,56.750423 256.956915,58.020931 256.956915,59.5879619 L256.956915,95.057198 C256.956915,96.6242288 258.227423,97.8947368 259.794454,97.8947368 L337.826773,97.8947368 C339.393804,97.8947368 340.664312,96.6242288 340.664312,95.057198 L340.664312,59.5879619 C340.664312,58.020931 339.393804,56.750423 337.826773,56.750423 C336.259742,56.750423 334.989234,58.020931 334.989234,59.5879619 L334.989234,92.2196591 L262.631993,92.2196591 L262.631993,59.5879619 C262.631993,58.020931 261.361485,56.750423 259.794454,56.750423 L259.794454,56.750423 Z" id="home" sketch:type="MSShapeGroup"></path>
                <path d="M30.8778947,82.4105263 C30.4708752,82.4105263 29.921407,82.430877 29.2294737,82.4715789 C28.5375404,82.5122809 27.7947408,82.5428069 27.0010526,82.5631579 C26.2073645,82.5835089 25.3933375,82.6140349 24.5589474,82.6547368 C23.7245572,82.6954388 22.961407,82.7157895 22.2694737,82.7157895 C19.5424425,82.7157895 16.8765043,82.2986007 14.2715789,81.4642105 C11.6666536,80.6298204 9.35685218,79.3273773 7.34210526,77.5568421 C5.32735835,75.7863069 3.69930445,73.5070315 2.45789474,70.7189474 C1.21648502,67.9308633 0.595789474,64.5831774 0.595789474,60.6757895 C0.595789474,57.0940172 1.27753704,53.9193121 2.64105263,51.1515789 C4.00456822,48.3838458 5.80560284,46.063869 8.04421053,44.1915789 C10.2828182,42.3192889 12.8063017,40.8947417 15.6147368,39.9178947 C18.4231719,38.9410477 21.2926169,38.4526316 24.2231579,38.4526316 C24.8743892,38.4526316 25.7596435,38.4933329 26.8789474,38.5747368 C27.9982512,38.6561408 29.1175383,38.7578941 30.2368421,38.88 C31.3561459,39.0021059 32.353329,39.1343853 33.2284211,39.2768421 C34.1035131,39.419299 34.6631567,39.5515783 34.9073684,39.6736842 C35.4364939,38.2491157 36.0266634,36.9873739 36.6778947,35.8884211 C37.3291261,34.7894682 38.2245557,33.9550906 39.3642105,33.3852632 C39.6898262,33.2631573 40.0561383,33.2428066 40.4631579,33.3242105 C40.8701775,33.4056144 41.0736842,33.6091212 41.0736842,33.9347368 C40.8701744,34.3010545 40.7175444,34.5249119 40.6157895,34.6063158 C40.5140346,34.6877197 40.3817552,34.7284211 40.2189474,34.7284211 C39.7305239,34.7284211 39.252283,34.9522785 38.7842105,35.4 C38.316138,35.8477215 37.8785985,36.4277157 37.4715789,37.14 C37.0645594,37.8522843 36.7084226,38.6663112 36.4031579,39.5821053 C36.0978932,40.4978993 35.8638605,41.423855 35.7010526,42.36 C35.6196487,42.8077215 35.5280707,43.3266637 35.4263158,43.9168421 C35.3245609,44.5070205 35.2329829,45.0870147 35.1515789,45.6568421 C35.070175,46.2266695 35.009123,46.7761377 34.9684211,47.3052632 C34.9277191,47.8343886 34.9073684,48.2821034 34.9073684,48.6484211 C34.9073684,48.8519308 34.8259657,49.0249116 34.6631579,49.1673684 C34.5003501,49.3098253 34.3375447,49.3810526 34.1747368,49.3810526 C33.9305251,49.3810526 33.6456157,49.2589486 33.32,49.0147368 C33.1571922,47.9971879 32.8214061,46.9796542 32.3126316,45.9621053 C31.8038571,44.9445563 31.0915835,44.028776 30.1757895,43.2147368 C29.2599954,42.4006977 28.1203577,41.7494761 26.7568421,41.2610526 C25.3933265,40.7726291 23.775448,40.5284211 21.9031579,40.5284211 C19.908762,40.5284211 18.128078,40.9964865 16.5610526,41.9326316 C14.9940273,42.8687766 13.6712335,44.1508691 12.5926316,45.7789474 C11.5140297,47.4070257 10.6898274,49.3403397 10.12,51.5789474 C9.55017259,53.8175551 9.26526316,56.2189345 9.26526316,58.7831579 C9.26526316,62.3242282 9.62139995,65.4684073 10.3336842,68.2157895 C11.0459685,70.9631716 12.0329761,73.2933238 13.2947368,75.2063158 C14.5564975,77.1193078 16.0624474,78.574381 17.8126316,79.5715789 C19.5628158,80.5687769 21.4757791,81.0673684 23.5515789,81.0673684 C24.9354455,81.0673684 26.2887653,80.843511 27.6115789,80.3957895 C28.9343926,79.9480679 30.155433,79.3375477 31.2747368,78.5642105 C32.3940407,77.7908733 33.3912237,76.8954437 34.2663158,75.8778947 C35.1414079,74.8603458 35.8231555,73.7817601 36.3115789,72.6421053 C36.3929829,72.4792974 36.6066649,72.3571934 36.9526316,72.2757895 C37.2985982,72.1943856 37.4715789,72.2350869 37.4715789,72.3978947 C37.4715789,72.9270202 37.2985982,73.6494691 36.9526316,74.5652632 C36.6066649,75.4810572 36.2098268,76.3968375 35.7621053,77.3126316 C35.3143837,78.2284256 34.8666689,79.0628033 34.4189474,79.8157895 C33.9712258,80.5687757 33.6659657,81.0673672 33.5031579,81.3115789 C33.381052,81.5964927 33.228422,81.9729801 33.0452632,82.4410526 C32.8621043,82.9091251 32.699299,83.4382427 32.5568421,84.0284211 C32.4143853,84.6185994 32.2821059,85.2291197 32.16,85.86 C32.0378941,86.4908803 31.9768421,87.1115759 31.9768421,87.7221053 C31.9768421,88.3733366 31.8954394,88.7803501 31.7326316,88.9431579 C31.5698237,89.1059657 31.2238623,89.1873684 30.6947368,89.1873684 C30.2470153,89.1873684 30.0435086,88.871933 30.0842105,88.2410526 C30.1249125,87.6101723 30.2266659,86.8877234 30.3894737,86.0736842 C30.5522815,85.2596451 30.7150869,84.4964948 30.8778947,83.7842105 C31.0407026,83.0719263 31.0407026,82.6140361 30.8778947,82.4105263 L30.8778947,82.4105263 Z M50.1094737,54.9368421 C49.1326267,54.9775441 48.1049177,55.0284207 47.0263158,55.0894737 C45.9477139,55.1505266 44.9301802,55.2319293 43.9736842,55.3336842 C43.0171882,55.4354391 42.1929859,55.5575431 41.5010526,55.7 C40.8091193,55.8424569 40.3817552,56.0154376 40.2189474,56.2189474 C40.0968415,56.3410532 39.9849128,56.5242093 39.8831579,56.7684211 C39.781403,57.0126328 39.689825,57.2568409 39.6084211,57.5010526 C39.5270171,57.7452644 39.4252638,57.9487711 39.3031579,58.1115789 C39.181052,58.2743868 38.997896,58.3557895 38.7536842,58.3557895 C38.4687705,58.3557895 38.3263158,58.2133348 38.3263158,57.9284211 C38.4484217,57.6842093 38.6112271,57.2670205 38.8147368,56.6768421 C39.0182466,56.0866637 39.242104,55.4252668 39.4863158,54.6926316 C39.7305275,53.9599963 39.9747356,53.1968461 40.2189474,52.4031579 C40.4631591,51.6094697 40.6870165,50.8463195 40.8905263,50.1136842 C40.9312283,49.9915783 41.012631,49.9101756 41.1347368,49.8694737 C41.2568427,49.8287717 41.3789468,49.8084211 41.5010526,49.8084211 C41.7859663,49.8084211 41.9284211,49.8694731 41.9284211,49.9915789 C41.8470171,50.3985985 41.7757898,50.7038586 41.7147368,50.9073684 C41.6536839,51.1108782 41.6231579,51.2533329 41.6231579,51.3347368 C41.7452638,51.4975447 42.1929786,51.6196487 42.9663158,51.7010526 C43.739653,51.7824565 44.6554333,51.8435086 45.7136842,51.8842105 C46.7719351,51.9249125 47.8810468,51.9554385 49.0410526,51.9757895 C50.2010584,51.9961405 51.2084168,52.0063158 52.0631579,52.0063158 L55.1768421,52.0063158 C57.9038733,52.0063158 60.0813954,51.9452638 61.7094737,51.8231579 C63.337552,51.701052 64.5992938,51.5280713 65.4947368,51.3042105 C66.3901799,51.0803498 67.0108755,50.8361417 67.3568421,50.5715789 C67.7028087,50.3070162 67.9368415,50.0322821 68.0589474,49.7473684 C68.1810532,49.5438586 68.323508,49.4421053 68.4863158,49.4421053 C68.6898256,49.4421053 68.7915789,49.5438586 68.7915789,49.7473684 C68.6287711,50.154388 68.4354397,50.7750835 68.2115789,51.6094737 C67.9877182,52.4438638 67.7638608,53.2985921 67.54,54.1736842 C67.3161392,55.0487763 67.1228078,55.8322772 66.96,56.5242105 C66.7971922,57.2161438 66.7157895,57.6028066 66.7157895,57.6842105 C66.4715777,57.7656144 66.2477203,57.8063158 66.0442105,57.8063158 C65.8814027,57.8063158 65.8,57.7249131 65.8,57.5621053 C65.8,57.4399994 65.8407013,57.2568433 65.9221053,57.0126316 C65.9628072,56.8091218 66.0136839,56.575089 66.0747368,56.3105263 C66.1357898,56.0459636 66.1256144,55.8526322 66.0442105,55.7305263 C65.9628066,55.5677185 65.6473712,55.4252638 65.0978947,55.3031579 C64.5484183,55.181052 63.8870214,55.0792987 63.1136842,54.9978947 C62.340347,54.9164908 61.5161447,54.8656141 60.6410526,54.8452632 C59.7659605,54.8249122 58.9621089,54.8147368 58.2294737,54.8147368 L57.1305263,54.8147368 C57.0084204,55.1403525 56.8964917,55.9340288 56.7947368,57.1957895 C56.6929819,58.4575502 56.6115793,59.9227987 56.5505263,61.5915789 C56.4894734,63.2603592 56.448772,65.0105172 56.4284211,66.8421053 C56.4080701,68.6736934 56.3978947,70.3017473 56.3978947,71.7263158 L56.3978947,77.0684211 C56.3978947,78.5947445 56.4385961,79.5207001 56.52,79.8463158 C56.6421059,80.3347393 56.9677167,80.6705254 57.4968421,80.8536842 C58.0259676,81.036843 58.8806959,81.1284211 60.0610526,81.1284211 C60.7529859,81.1284211 61.0989474,81.3319278 61.0989474,81.7389474 C61.0989474,82.1866689 60.8140379,82.4105263 60.2442105,82.4105263 C59.6336812,82.3291224 58.5652708,82.257895 57.0389474,82.1968421 C55.5126239,82.1357892 53.9557974,82.1052632 52.3684211,82.1052632 C51.2694682,82.1052632 50.0586031,82.1561398 48.7357895,82.2578947 C47.4129758,82.3596496 46.3242148,82.4105263 45.4694737,82.4105263 C45.2252619,82.4105263 45.0421059,82.3494743 44.92,82.2273684 C44.7978941,82.1052625 44.7368421,81.9424572 44.7368421,81.7389474 C44.7368421,81.3726297 45.0828036,81.1894737 45.7747368,81.1894737 C47.4435171,81.1894737 48.4203495,80.9452656 48.7052632,80.4568421 C49.0308788,79.8870147 49.3463143,78.2284348 49.6515789,75.4810526 C49.9568436,72.7336705 50.1094737,69.0196725 50.1094737,64.3389474 L50.1094737,54.9368421 Z M89.9768421,72.5810526 C89.8547362,71.8891193 89.7326322,71.1361444 89.6105263,70.3221053 C89.4884204,69.5080661 89.3663164,68.7347405 89.2442105,68.0021053 C89.1221047,67.26947 89.0101759,66.6385991 88.9084211,66.1094737 C88.8066662,65.5803482 88.7354388,65.2343868 88.6947368,65.0715789 C88.0435055,65.3157907 87.3108813,65.6007001 86.4968421,65.9263158 C85.6828029,66.2519315 84.868776,66.6080682 84.0547368,66.9947368 C83.2406977,67.3814054 82.4673721,67.7680682 81.7347368,68.1547368 C81.0021016,68.5414054 80.3915814,68.8975422 79.9031579,69.2231579 C78.9670129,69.8336873 78.2547393,70.4442075 77.7663158,71.0547368 C77.2778923,71.6652662 77.0336842,72.3978905 77.0336842,73.2526316 C77.0336842,74.4329884 77.3796457,75.4708727 78.0715789,76.3663158 C78.7635122,77.2617589 79.8420979,77.7094737 81.3073684,77.7094737 C82.0807056,77.7094737 82.8845572,77.567019 83.7189474,77.2821053 C84.5533375,76.9971916 85.3266631,76.6715808 86.0389474,76.3052632 C86.7512316,75.9389455 87.3719272,75.5726334 87.9010526,75.2063158 C88.4301781,74.8399982 88.7964902,74.5550887 89,74.3515789 C89.3256157,74.0259633 89.5799991,73.7512292 89.7631579,73.5273684 C89.9463167,73.3035077 90.0175441,72.9880722 89.9768421,72.5810526 L89.9768421,72.5810526 Z M106.583158,76.7326316 C106.501754,76.8140355 106.196494,77.0175422 105.667368,77.3431579 C105.138243,77.6687736 104.487021,78.0554364 103.713684,78.5031579 C102.940347,78.9508794 102.085619,79.4291203 101.149474,79.9378947 C100.213329,80.4466692 99.287373,80.92491 98.3715789,81.3726316 C97.4557849,81.8203531 96.6112319,82.1866652 95.8378947,82.4715789 C95.0645575,82.7564927 94.4540373,82.8989474 94.0063158,82.8989474 C93.4771903,82.8989474 93.0193002,82.6852653 92.6326316,82.2578947 C92.245963,81.8305242 91.9101769,81.2607053 91.6252632,80.5484211 C91.3403495,79.8361368 91.0961414,79.0119345 90.8926316,78.0757895 C90.6891218,77.1396444 90.5059657,76.1628121 90.3431579,75.1452632 C89.6105227,75.7557925 88.6743917,76.4782414 87.5347368,77.3126316 C86.395082,78.1470217 85.1536909,78.9305227 83.8105263,79.6631579 C82.4673617,80.3957931 81.0936912,81.0164887 79.6894737,81.5252632 C78.2852561,82.0340376 76.9319363,82.2884211 75.6294737,82.2884211 C74.5305208,82.2884211 73.5740392,82.1154403 72.76,81.7694737 C71.9459608,81.423507 71.2642133,80.9656169 70.7147368,80.3957895 C70.1652604,79.8259621 69.7582469,79.1645652 69.4936842,78.4115789 C69.2291215,77.6585927 69.0968421,76.8750918 69.0968421,76.0610526 C69.0968421,74.75859 69.4936802,73.6901796 70.2873684,72.8557895 C71.0810566,72.0213993 72.3122724,71.1564957 73.9810526,70.2610526 C74.7543898,69.8540331 75.8329755,69.3147402 77.2168421,68.6431579 C78.6007087,67.9715756 80.0150805,67.289828 81.46,66.5978947 C82.9049195,65.9059615 84.248064,65.2445646 85.4894737,64.6136842 C86.7308834,63.9828039 87.6364884,63.4842124 88.2063158,63.1178947 C87.962104,61.856134 87.6771946,60.7266717 87.3515789,59.7294737 C87.0259633,58.7322757 86.6189498,57.8978981 86.1305263,57.2263158 C85.6421028,56.5547335 85.0519333,56.0459666 84.36,55.7 C83.6680667,55.3540334 82.8133384,55.1810526 81.7957895,55.1810526 C80.9003464,55.1810526 80.0761441,55.343858 79.3231579,55.6694737 C78.5701717,55.9950893 77.9189501,56.3817521 77.3694737,56.8294737 C76.8199973,57.2771952 76.3926331,57.72491 76.0873684,58.1726316 C75.7821037,58.6203531 75.609123,58.9663146 75.5684211,59.2105263 C75.5277191,59.536142 75.344563,59.6989474 75.0189474,59.6989474 C74.44912,59.6989474 73.9200024,59.4954406 73.4315789,59.0884211 C72.9431555,58.6814015 72.6989474,58.1929853 72.6989474,57.6231579 C72.6989474,57.2975422 72.7396487,57.0533341 72.8210526,56.8905263 C73.7571977,56.3614009 74.8968354,55.791582 76.24,55.1810526 C77.5831646,54.5705233 78.9771858,54.0007044 80.4221053,53.4715789 C81.8670248,52.9424535 83.3017473,52.504914 84.7263158,52.1589474 C86.1508843,51.8129807 87.4329768,51.64 88.5726316,51.64 C90.2821138,51.64 91.5947323,51.8842081 92.5105263,52.3726316 C93.4263204,52.8610551 94.1080679,53.552978 94.5557895,54.4484211 C95.003511,55.3438641 95.2782451,56.3919238 95.38,57.5926316 C95.4817549,58.7933393 95.5733329,60.0856071 95.6547368,61.4694737 C95.7768427,63.5452735 95.9396481,65.5498149 96.1431579,67.4831579 C96.3466677,69.4165009 96.6519278,71.1259575 97.0589474,72.6115789 C97.4659669,74.0972004 97.9849091,75.2978902 98.6157895,76.2136842 C99.2466698,77.1294783 100.030171,77.5873684 100.966316,77.5873684 C101.414037,77.5873684 101.902453,77.5059657 102.431579,77.3431579 C102.960704,77.1803501 103.469471,76.9870187 103.957895,76.7631579 C104.446318,76.5392971 104.883858,76.3154397 105.270526,76.0915789 C105.657195,75.8677182 105.911578,75.7150881 106.033684,75.6336842 C106.400002,75.6336842 106.623859,75.8168403 106.705263,76.1831579 C106.705263,76.3866677 106.664562,76.5698237 106.583158,76.7326316 L106.583158,76.7326316 Z M126.730526,79.2968421 C125.428064,80.1108813 123.82036,80.8435055 121.907368,81.4947368 C119.994376,82.1459682 118.142465,82.4715789 116.351579,82.4715789 C115.781752,82.4715789 115.140705,82.4308776 114.428421,82.3494737 C113.716137,82.2680698 113.136143,82.1866671 112.688421,82.1052632 C112.647719,82.8786004 112.617193,83.6722766 112.596842,84.4863158 C112.576491,85.3003549 112.55614,86.0838559 112.535789,86.8368421 C112.515438,87.5898283 112.495088,88.2919266 112.474737,88.9431579 C112.454386,89.5943892 112.444211,90.1438574 112.444211,90.5915789 C112.444211,92.6673788 112.617191,94.0715753 112.963158,94.8042105 C113.309125,95.5368458 113.848417,95.9031579 114.581053,95.9031579 C114.94737,95.9031579 115.445962,95.8522812 116.076842,95.7505263 C116.707722,95.6487714 117.267366,95.4757907 117.755789,95.2315789 C117.837193,95.150175 117.928771,95.2315777 118.030526,95.4757895 C118.132281,95.7200012 118.183158,95.9438586 118.183158,96.1473684 C118.183158,96.1880704 117.898248,96.2999991 117.328421,96.4831579 C116.758594,96.6663167 116.036145,96.8901741 115.161053,97.1547368 C114.285961,97.4192996 113.339654,97.704209 112.322105,98.0094737 C111.304556,98.3147384 110.327724,98.5996478 109.391579,98.8642105 C108.455434,99.1287733 107.651582,99.3424553 106.98,99.5052632 C106.308418,99.668071 105.891229,99.7494737 105.728421,99.7494737 C105.484209,99.7494737 105.260352,99.729123 105.056842,99.6884211 C104.853332,99.6477191 104.751579,99.464563 104.751579,99.1389474 C104.751579,98.9354376 104.822806,98.8031582 104.965263,98.7421053 C105.10772,98.6810523 105.219649,98.5894743 105.301053,98.4673684 C105.504562,98.2231567 105.626666,97.7652665 105.667368,97.0936842 C105.70807,96.4221019 105.769122,95.760705 105.850526,95.1094737 C105.972632,93.5220973 106.104912,91.63966 106.247368,89.4621053 C106.389825,87.2845505 106.522105,85.0052751 106.644211,82.6242105 C106.766316,80.243146 106.878245,77.8621172 106.98,75.4810526 C107.081755,73.0999881 107.132632,70.9326413 107.132632,68.9789474 C107.132632,66.2112142 107.020703,64.0438675 106.796842,62.4768421 C106.572981,60.9098167 106.257546,59.7498283 105.850526,58.9968421 C105.443507,58.2438559 104.985617,57.7757904 104.476842,57.5926316 C103.968068,57.4094728 103.428775,57.3178947 102.858947,57.3178947 C102.736841,57.3178947 102.563861,57.3280701 102.34,57.3484211 C102.116139,57.368772 101.902457,57.3789474 101.698947,57.3789474 C101.53614,57.3789474 101.454737,57.2364927 101.454737,56.9515789 C101.454737,56.7480692 101.464912,56.6157898 101.485263,56.5547368 C101.505614,56.4936839 101.597192,56.4224565 101.76,56.3410526 C101.96351,56.2189468 102.339997,56.01544 102.889474,55.7305263 C103.43895,55.4456126 104.069821,55.1301772 104.782105,54.7842105 C105.49439,54.4382439 106.25754,54.0719318 107.071579,53.6852632 C107.885618,53.2985946 108.648768,52.9526331 109.361053,52.6473684 C110.073337,52.3421037 110.694032,52.0877203 111.223158,51.8842105 C111.752283,51.6807007 112.118595,51.5789474 112.322105,51.5789474 C112.932635,51.5789474 113.349823,51.8435061 113.573684,52.3726316 C113.797545,52.901757 113.929824,53.6140306 113.970526,54.5094737 C113.970526,54.8757913 113.960351,55.4557855 113.94,56.2494737 C113.919649,57.0431619 113.889123,57.9487668 113.848421,58.9663158 C114.377547,58.3964884 115.099995,57.6943901 116.015789,56.86 C116.931584,56.0256099 117.969468,55.2217583 119.129474,54.4484211 C120.289479,53.6750839 121.51052,53.013687 122.792632,52.4642105 C124.074743,51.9147341 125.32631,51.64 126.547368,51.64 C128.297553,51.64 129.854379,51.9554354 131.217895,52.5863158 C132.58141,53.2171961 133.710873,54.0515738 134.606316,55.0894737 C135.501759,56.1273736 136.183506,57.3077127 136.651579,58.6305263 C137.119651,59.9533399 137.353684,61.3066597 137.353684,62.6905263 C137.353684,64.6442203 137.058599,66.4452549 136.468421,68.0936842 C135.878243,69.7421135 135.155794,71.207362 134.301053,72.4894737 C133.446312,73.7715854 132.510181,74.8806971 131.492632,75.8168421 C130.475083,76.7529871 129.538952,77.4856114 128.684211,78.0147368 L126.730526,79.2968421 Z M112.993684,74.5957895 C113.11579,75.043511 113.441401,75.5014012 113.970526,75.9694737 C114.499652,76.4375462 115.181399,76.8649103 116.015789,77.2515789 C116.85018,77.6382475 117.806661,77.9638583 118.885263,78.2284211 C119.963865,78.4929838 121.113678,78.6252632 122.334737,78.6252632 C123.43369,78.6252632 124.481749,78.4115811 125.478947,77.9842105 C126.476145,77.55684 127.341049,76.8852677 128.073684,75.9694737 C128.806319,75.0536796 129.386314,73.8631652 129.813684,72.3978947 C130.241055,70.9326243 130.454737,69.1621156 130.454737,67.0863158 C130.454737,65.6210453 130.25123,64.2371995 129.844211,62.9347368 C129.437191,61.6322742 128.847021,60.4926365 128.073684,59.5157895 C127.300347,58.5389425 126.384567,57.7757922 125.326316,57.2263158 C124.268065,56.6768394 123.108076,56.4021053 121.846316,56.4021053 C121.195084,56.4021053 120.472636,56.54456 119.678947,56.8294737 C118.885259,57.1143874 118.122109,57.5010502 117.389474,57.9894737 C116.656838,58.4778972 115.975091,59.047716 115.344211,59.6989474 C114.71333,60.3501787 114.25544,61.0421016 113.970526,61.7747368 C113.767017,62.2631603 113.594036,63.0263106 113.451579,64.0642105 C113.309122,65.1021105 113.207369,66.2417482 113.146316,67.4831579 C113.085263,68.7245676 113.044562,69.976134 113.024211,71.2378947 C113.00386,72.4996554 112.993684,73.6189425 112.993684,74.5957895 L112.993684,74.5957895 Z M149.808421,54.9368421 C148.831574,54.9775441 147.803865,55.0284207 146.725263,55.0894737 C145.646661,55.1505266 144.629128,55.2319293 143.672632,55.3336842 C142.716136,55.4354391 141.891933,55.5575431 141.2,55.7 C140.508067,55.8424569 140.080703,56.0154376 139.917895,56.2189474 C139.795789,56.3410532 139.68386,56.5242093 139.582105,56.7684211 C139.48035,57.0126328 139.388772,57.2568409 139.307368,57.5010526 C139.225965,57.7452644 139.124211,57.9487711 139.002105,58.1115789 C138.879999,58.2743868 138.696843,58.3557895 138.452632,58.3557895 C138.167718,58.3557895 138.025263,58.2133348 138.025263,57.9284211 C138.147369,57.6842093 138.310174,57.2670205 138.513684,56.6768421 C138.717194,56.0866637 138.941051,55.4252668 139.185263,54.6926316 C139.429475,53.9599963 139.673683,53.1968461 139.917895,52.4031579 C140.162106,51.6094697 140.385964,50.8463195 140.589474,50.1136842 C140.630176,49.9915783 140.711578,49.9101756 140.833684,49.8694737 C140.95579,49.8287717 141.077894,49.8084211 141.2,49.8084211 C141.484914,49.8084211 141.627368,49.8694731 141.627368,49.9915789 C141.545965,50.3985985 141.474737,50.7038586 141.413684,50.9073684 C141.352631,51.1108782 141.322105,51.2533329 141.322105,51.3347368 C141.444211,51.4975447 141.891926,51.6196487 142.665263,51.7010526 C143.4386,51.7824565 144.354381,51.8435086 145.412632,51.8842105 C146.470882,51.9249125 147.579994,51.9554385 148.74,51.9757895 C149.900006,51.9961405 150.907364,52.0063158 151.762105,52.0063158 L154.875789,52.0063158 C157.602821,52.0063158 159.780343,51.9452638 161.408421,51.8231579 C163.036499,51.701052 164.298241,51.5280713 165.193684,51.3042105 C166.089127,51.0803498 166.709823,50.8361417 167.055789,50.5715789 C167.401756,50.3070162 167.635789,50.0322821 167.757895,49.7473684 C167.880001,49.5438586 168.022455,49.4421053 168.185263,49.4421053 C168.388773,49.4421053 168.490526,49.5438586 168.490526,49.7473684 C168.327718,50.154388 168.134387,50.7750835 167.910526,51.6094737 C167.686666,52.4438638 167.462808,53.2985921 167.238947,54.1736842 C167.015087,55.0487763 166.821755,55.8322772 166.658947,56.5242105 C166.49614,57.2161438 166.414737,57.6028066 166.414737,57.6842105 C166.170525,57.7656144 165.946668,57.8063158 165.743158,57.8063158 C165.58035,57.8063158 165.498947,57.7249131 165.498947,57.5621053 C165.498947,57.4399994 165.539649,57.2568433 165.621053,57.0126316 C165.661755,56.8091218 165.712631,56.575089 165.773684,56.3105263 C165.834737,56.0459636 165.824562,55.8526322 165.743158,55.7305263 C165.661754,55.5677185 165.346319,55.4252638 164.796842,55.3031579 C164.247366,55.181052 163.585969,55.0792987 162.812632,54.9978947 C162.039294,54.9164908 161.215092,54.8656141 160.34,54.8452632 C159.464908,54.8249122 158.661056,54.8147368 157.928421,54.8147368 L156.829474,54.8147368 C156.707368,55.1403525 156.595439,55.9340288 156.493684,57.1957895 C156.391929,58.4575502 156.310527,59.9227987 156.249474,61.5915789 C156.188421,63.2603592 156.147719,65.0105172 156.127368,66.8421053 C156.107017,68.6736934 156.096842,70.3017473 156.096842,71.7263158 L156.096842,77.0684211 C156.096842,78.5947445 156.137543,79.5207001 156.218947,79.8463158 C156.341053,80.3347393 156.666664,80.6705254 157.195789,80.8536842 C157.724915,81.036843 158.579643,81.1284211 159.76,81.1284211 C160.451933,81.1284211 160.797895,81.3319278 160.797895,81.7389474 C160.797895,82.1866689 160.512985,82.4105263 159.943158,82.4105263 C159.332629,82.3291224 158.264218,82.257895 156.737895,82.1968421 C155.211571,82.1357892 153.654745,82.1052632 152.067368,82.1052632 C150.968416,82.1052632 149.75755,82.1561398 148.434737,82.2578947 C147.111923,82.3596496 146.023162,82.4105263 145.168421,82.4105263 C144.924209,82.4105263 144.741053,82.3494743 144.618947,82.2273684 C144.496841,82.1052625 144.435789,81.9424572 144.435789,81.7389474 C144.435789,81.3726297 144.781751,81.1894737 145.473684,81.1894737 C147.142464,81.1894737 148.119297,80.9452656 148.404211,80.4568421 C148.729826,79.8870147 149.045262,78.2284348 149.350526,75.4810526 C149.655791,72.7336705 149.808421,69.0196725 149.808421,64.3389474 L149.808421,54.9368421 Z M176.427368,67.3915789 C176.427368,68.7754455 176.702103,70.0677133 177.251579,71.2684211 C177.801055,72.4691288 178.564206,73.5171885 179.541053,74.4126316 C180.5179,75.3080747 181.688063,76.0101729 183.051579,76.5189474 C184.415095,77.0277218 185.910869,77.2821053 187.538947,77.2821053 C189.004218,77.2821053 190.327012,77.1294752 191.507368,76.8242105 C192.687725,76.5189458 193.684908,76.1729844 194.498947,75.7863158 C195.312987,75.3996472 195.954033,75.0536857 196.422105,74.7484211 C196.890178,74.4431564 197.144561,74.2905263 197.185263,74.2905263 C197.348071,74.2905263 197.510876,74.3617537 197.673684,74.5042105 C197.836492,74.6466674 197.917895,74.7992974 197.917895,74.9621053 C197.470173,75.4505288 196.77825,76.122101 195.842105,76.9768421 C194.90596,77.8315832 193.776498,78.6863115 192.453684,79.5410526 C191.130871,80.3957937 189.655447,81.128418 188.027368,81.7389474 C186.39929,82.3494767 184.669483,82.6547368 182.837895,82.6547368 C181.169114,82.6547368 179.541061,82.4003534 177.953684,81.8915789 C176.366308,81.3828045 174.941761,80.6094789 173.68,79.5715789 C172.418239,78.533679 171.410881,77.2108852 170.657895,75.6031579 C169.904909,73.9954306 169.528421,72.0722919 169.528421,69.8336842 C169.528421,68.0020961 169.650525,66.4249189 169.894737,65.1021053 C170.138949,63.7792916 170.464559,62.6193032 170.871579,61.6221053 C171.278599,60.6249073 171.736489,59.770179 172.245263,59.0578947 C172.754038,58.3456105 173.27298,57.7045643 173.802105,57.1347368 C174.453337,56.4021016 175.247013,55.7101787 176.183158,55.0589474 C177.119303,54.407716 178.126661,53.8175465 179.205263,53.2884211 C180.283865,52.7592956 181.423503,52.3421068 182.624211,52.0368421 C183.824918,51.7315774 185.035783,51.5789474 186.256842,51.5789474 C188.454748,51.5789474 190.17438,51.9452595 191.415789,52.6778947 C192.657199,53.41053 193.277895,54.4280637 193.277895,55.7305263 C193.277895,56.8294792 193.054037,57.7859608 192.606316,58.6 C192.158594,59.4140392 191.385269,60.1873648 190.286316,60.92 C189.187363,61.6526352 187.722114,62.4361362 185.890526,63.2705263 C184.058938,64.1049165 181.779663,65.1122748 179.052632,66.2926316 L176.427368,67.3915789 Z M176.427368,65.6210526 C177.119302,65.3768409 177.902803,65.0817561 178.777895,64.7357895 C179.652987,64.3898228 180.507715,64.0133354 181.342105,63.6063158 C182.176495,63.1992962 182.939646,62.8126334 183.631579,62.4463158 C184.323512,62.0799982 184.85263,61.7543874 185.218947,61.4694737 C185.951583,60.9403482 186.317895,60.0449186 186.317895,58.7831579 C186.317895,58.2947344 186.226317,57.7859676 186.043158,57.2568421 C185.859999,56.7277167 185.585265,56.2494758 185.218947,55.8221053 C184.85263,55.3947347 184.404915,55.0487733 183.875789,54.7842105 C183.346664,54.5196478 182.756494,54.3873684 182.105263,54.3873684 C181.535436,54.3873684 180.924916,54.5806998 180.273684,54.9673684 C179.622453,55.354037 179.011933,55.9849079 178.442105,56.86 C177.872278,57.7350921 177.394037,58.8950805 177.007368,60.34 C176.6207,61.7849195 176.427368,63.5452528 176.427368,65.6210526 L176.427368,65.6210526 Z M221.178947,79.2968421 C219.876485,80.1108813 218.268781,80.8435055 216.355789,81.4947368 C214.442797,82.1459682 212.590886,82.4715789 210.8,82.4715789 C210.230173,82.4715789 209.589126,82.4308776 208.876842,82.3494737 C208.164558,82.2680698 207.584564,82.1866671 207.136842,82.1052632 C207.09614,82.8786004 207.065614,83.6722766 207.045263,84.4863158 C207.024912,85.3003549 207.004562,86.0838559 206.984211,86.8368421 C206.96386,87.5898283 206.943509,88.2919266 206.923158,88.9431579 C206.902807,89.5943892 206.892632,90.1438574 206.892632,90.5915789 C206.892632,92.6673788 207.065612,94.0715753 207.411579,94.8042105 C207.757546,95.5368458 208.296838,95.9031579 209.029474,95.9031579 C209.395791,95.9031579 209.894383,95.8522812 210.525263,95.7505263 C211.156144,95.6487714 211.715787,95.4757907 212.204211,95.2315789 C212.285614,95.150175 212.377192,95.2315777 212.478947,95.4757895 C212.580702,95.7200012 212.631579,95.9438586 212.631579,96.1473684 C212.631579,96.1880704 212.34667,96.2999991 211.776842,96.4831579 C211.207015,96.6663167 210.484566,96.8901741 209.609474,97.1547368 C208.734382,97.4192996 207.788075,97.704209 206.770526,98.0094737 C205.752977,98.3147384 204.776145,98.5996478 203.84,98.8642105 C202.903855,99.1287733 202.100003,99.3424553 201.428421,99.5052632 C200.756839,99.668071 200.33965,99.7494737 200.176842,99.7494737 C199.93263,99.7494737 199.708773,99.729123 199.505263,99.6884211 C199.301753,99.6477191 199.2,99.464563 199.2,99.1389474 C199.2,98.9354376 199.271227,98.8031582 199.413684,98.7421053 C199.556141,98.6810523 199.66807,98.5894743 199.749474,98.4673684 C199.952983,98.2231567 200.075088,97.7652665 200.115789,97.0936842 C200.156491,96.4221019 200.217543,95.760705 200.298947,95.1094737 C200.421053,93.5220973 200.553333,91.63966 200.695789,89.4621053 C200.838246,87.2845505 200.970526,85.0052751 201.092632,82.6242105 C201.214737,80.243146 201.326666,77.8621172 201.428421,75.4810526 C201.530176,73.0999881 201.581053,70.9326413 201.581053,68.9789474 C201.581053,66.2112142 201.469124,64.0438675 201.245263,62.4768421 C201.021402,60.9098167 200.705967,59.7498283 200.298947,58.9968421 C199.891928,58.2438559 199.434038,57.7757904 198.925263,57.5926316 C198.416489,57.4094728 197.877196,57.3178947 197.307368,57.3178947 C197.185263,57.3178947 197.012282,57.3280701 196.788421,57.3484211 C196.56456,57.368772 196.350878,57.3789474 196.147368,57.3789474 C195.984561,57.3789474 195.903158,57.2364927 195.903158,56.9515789 C195.903158,56.7480692 195.913333,56.6157898 195.933684,56.5547368 C195.954035,56.4936839 196.045613,56.4224565 196.208421,56.3410526 C196.411931,56.2189468 196.788418,56.01544 197.337895,55.7305263 C197.887371,55.4456126 198.518242,55.1301772 199.230526,54.7842105 C199.942811,54.4382439 200.705961,54.0719318 201.52,53.6852632 C202.334039,53.2985946 203.097189,52.9526331 203.809474,52.6473684 C204.521758,52.3421037 205.142453,52.0877203 205.671579,51.8842105 C206.200704,51.6807007 206.567017,51.5789474 206.770526,51.5789474 C207.381056,51.5789474 207.798244,51.8435061 208.022105,52.3726316 C208.245966,52.901757 208.378245,53.6140306 208.418947,54.5094737 C208.418947,54.8757913 208.408772,55.4557855 208.388421,56.2494737 C208.36807,57.0431619 208.337544,57.9487668 208.296842,58.9663158 C208.825968,58.3964884 209.548416,57.6943901 210.464211,56.86 C211.380005,56.0256099 212.417889,55.2217583 213.577895,54.4484211 C214.737901,53.6750839 215.958941,53.013687 217.241053,52.4642105 C218.523164,51.9147341 219.774731,51.64 220.995789,51.64 C222.745974,51.64 224.3028,51.9554354 225.666316,52.5863158 C227.029831,53.2171961 228.159294,54.0515738 229.054737,55.0894737 C229.95018,56.1273736 230.631927,57.3077127 231.1,58.6305263 C231.568073,59.9533399 231.802105,61.3066597 231.802105,62.6905263 C231.802105,64.6442203 231.50702,66.4452549 230.916842,68.0936842 C230.326664,69.7421135 229.604215,71.207362 228.749474,72.4894737 C227.894733,73.7715854 226.958602,74.8806971 225.941053,75.8168421 C224.923504,76.7529871 223.987373,77.4856114 223.132632,78.0147368 L221.178947,79.2968421 Z M207.442105,74.5957895 C207.564211,75.043511 207.889822,75.5014012 208.418947,75.9694737 C208.948073,76.4375462 209.62982,76.8649103 210.464211,77.2515789 C211.298601,77.6382475 212.255082,77.9638583 213.333684,78.2284211 C214.412286,78.4929838 215.562099,78.6252632 216.783158,78.6252632 C217.882111,78.6252632 218.93017,78.4115811 219.927368,77.9842105 C220.924566,77.55684 221.78947,76.8852677 222.522105,75.9694737 C223.254741,75.0536796 223.834735,73.8631652 224.262105,72.3978947 C224.689476,70.9326243 224.903158,69.1621156 224.903158,67.0863158 C224.903158,65.6210453 224.699651,64.2371995 224.292632,62.9347368 C223.885612,61.6322742 223.295442,60.4926365 222.522105,59.5157895 C221.748768,58.5389425 220.832988,57.7757922 219.774737,57.2263158 C218.716486,56.6768394 217.556498,56.4021053 216.294737,56.4021053 C215.643506,56.4021053 214.921057,56.54456 214.127368,56.8294737 C213.33368,57.1143874 212.57053,57.5010502 211.837895,57.9894737 C211.105259,58.4778972 210.423512,59.047716 209.792632,59.6989474 C209.161751,60.3501787 208.703861,61.0421016 208.418947,61.7747368 C208.215438,62.2631603 208.042457,63.0263106 207.9,64.0642105 C207.757543,65.1021105 207.65579,66.2417482 207.594737,67.4831579 C207.533684,68.7245676 207.492983,69.976134 207.472632,71.2378947 C207.452281,72.4996554 207.442105,73.6189425 207.442105,74.5957895 L207.442105,74.5957895 Z" id="Стартер" sketch:type="MSShapeGroup"></path>
                <path d="M64.2568421,28.6673684 C64.155789,28.2757875 64.016843,27.9157911 63.84,27.5873684 C63.663157,27.2589457 63.4357909,26.974738 63.1578947,26.7347368 C62.8799986,26.4947356 62.5547387,26.3084217 62.1821053,26.1757895 C61.8094718,26.0431572 61.3768446,25.9768421 60.8842105,25.9768421 C60.1642069,25.9768421 59.5421079,26.1221038 59.0178947,26.4126316 C58.4936816,26.7031593 58.0673701,27.0915765 57.7389474,27.5778947 C57.4105247,28.064213 57.1673692,28.616839 57.0094737,29.2357895 C56.8515782,29.8547399 56.7726316,30.4863126 56.7726316,31.1305263 C56.7726316,31.7747401 56.8515782,32.4063127 57.0094737,33.0252632 C57.1673692,33.6442136 57.4105247,34.1968397 57.7389474,34.6831579 C58.0673701,35.1694761 58.4936816,35.5578933 59.0178947,35.8484211 C59.5421079,36.1389488 60.1642069,36.2842105 60.8842105,36.2842105 C61.4147395,36.2842105 61.8821032,36.1926325 62.2863158,36.0094737 C62.6905283,35.8263149 63.0378933,35.5736858 63.3284211,35.2515789 C63.6189488,34.9294721 63.846315,34.5536864 64.0105263,34.1242105 C64.1747377,33.6947347 64.282105,33.2336867 64.3326316,32.7410526 L66.6442105,32.7410526 C66.593684,33.5494777 66.4200015,34.2884177 66.1231579,34.9578947 C65.8263143,35.6273718 65.4252657,36.2052607 64.92,36.6915789 C64.4147343,37.1778972 63.821056,37.5536829 63.1389474,37.8189474 C62.4568387,38.0842119 61.7052673,38.2168421 60.8842105,38.2168421 C59.8736792,38.2168421 58.9673724,38.0305282 58.1652632,37.6578947 C57.3631539,37.2852613 56.6842133,36.7768453 56.1284211,36.1326316 C55.5726288,35.4884178 55.1463173,34.7368464 54.8494737,33.8778947 C54.5526301,33.0189431 54.4042105,32.1031628 54.4042105,31.1305263 C54.4042105,30.1705215 54.5526301,29.2610569 54.8494737,28.4021053 C55.1463173,27.5431536 55.5726288,26.7915822 56.1284211,26.1473684 C56.6842133,25.5031547 57.3631539,24.9915808 58.1652632,24.6126316 C58.9673724,24.2336823 59.8736792,24.0442105 60.8842105,24.0442105 C61.6421091,24.0442105 62.3557861,24.14842 63.0252632,24.3568421 C63.6947402,24.5652642 64.2852606,24.8684191 64.7968421,25.2663158 C65.3084236,25.6642125 65.7221037,26.1473656 66.0378947,26.7157895 C66.3536858,27.2842134 66.5494733,27.9347332 66.6252632,28.6673684 L64.2568421,28.6673684 Z M69.758797,24.3663158 L73.0935338,24.3663158 L76.8261654,34.9578947 L76.8640602,34.9578947 L80.5019549,24.3663158 L83.798797,24.3663158 L83.798797,37.8947368 L81.5440602,37.8947368 L81.5440602,27.4547368 L81.5061654,27.4547368 L77.7545865,37.8947368 L75.8030075,37.8947368 L72.0514286,27.4547368 L72.0135338,27.4547368 L72.0135338,37.8947368 L69.758797,37.8947368 L69.758797,24.3663158 Z M87.6333835,24.3663158 L97.3723308,24.3663158 L97.3723308,26.4126316 L90.0018045,26.4126316 L90.0018045,29.9557895 L96.8228572,29.9557895 L96.8228572,31.8884211 L90.0018045,31.8884211 L90.0018045,35.8484211 L97.5049624,35.8484211 L97.5049624,37.8947368 L87.6333835,37.8947368 L87.6333835,24.3663158 Z M100.505865,24.3663158 L102.874286,24.3663158 L102.874286,29.7473684 L109.03218,29.7473684 L109.03218,24.3663158 L111.400602,24.3663158 L111.400602,37.8947368 L109.03218,37.8947368 L109.03218,31.7936842 L102.874286,31.7936842 L102.874286,37.8947368 L100.505865,37.8947368 L100.505865,24.3663158 Z M115.178346,24.3663158 L117.546767,24.3663158 L117.546767,34.4463158 L123.28782,24.3663158 L126.073083,24.3663158 L126.073083,37.8947368 L123.704662,37.8947368 L123.704662,27.7389474 L117.88782,37.8947368 L115.178346,37.8947368 L115.178346,24.3663158 Z M135.504361,35.9242105 C135.832784,35.9242105 136.113833,35.8547375 136.347519,35.7157895 C136.581204,35.5768414 136.78015,35.377896 136.944361,35.1189474 C137.108572,34.8599987 137.238045,34.5568438 137.332782,34.2094737 C137.427519,33.8621035 137.506466,33.4800021 137.569624,33.0631579 C137.620151,32.6463137 137.667519,32.2642123 137.711729,31.9168421 C137.75594,31.5694719 137.790677,31.222107 137.81594,30.8747368 C137.841203,30.5273667 137.863308,30.1610546 137.882256,29.7757895 C137.901203,29.3905244 137.913835,28.9452657 137.92015,28.44 C137.926466,27.9347343 137.932782,27.3536875 137.939098,26.6968421 C137.945414,26.0399967 137.948571,25.2631624 137.948571,24.3663158 L147.270677,24.3663158 L147.270677,37.8947368 L144.902256,37.8947368 L144.902256,26.4126316 L140.165414,26.4126316 C140.14015,27.24632 140.124361,27.9852599 140.118045,28.6294737 C140.111729,29.2736874 140.099098,29.8705236 140.08015,30.42 C140.061203,30.9694764 140.026466,31.4999974 139.97594,32.0115789 C139.925413,32.5231605 139.849625,33.0757865 139.748571,33.6694737 C139.685413,34.0610546 139.584362,34.5063133 139.445414,35.0052632 C139.306465,35.504213 139.088573,35.9715768 138.791729,36.4073684 C138.494886,36.8431601 138.106469,37.2126301 137.626466,37.5157895 C137.146464,37.8189489 136.533838,37.9705263 135.788571,37.9705263 C135.54857,37.9705263 135.349625,37.9642106 135.191729,37.9515789 C135.033834,37.9389473 134.879099,37.9200001 134.727519,37.8947368 L134.727519,35.8484211 C134.879099,35.8736843 135.011729,35.8926315 135.125414,35.9052632 C135.239098,35.9178948 135.365413,35.9242105 135.504361,35.9242105 L135.504361,35.9242105 Z M156.865263,25.9768421 C156.14526,25.9768421 155.523161,26.1221038 154.998947,26.4126316 C154.474734,26.7031593 154.048423,27.0915765 153.72,27.5778947 C153.391577,28.064213 153.148422,28.616839 152.990526,29.2357895 C152.832631,29.8547399 152.753684,30.4863126 152.753684,31.1305263 C152.753684,31.7747401 152.832631,32.4063127 152.990526,33.0252632 C153.148422,33.6442136 153.391577,34.1968397 153.72,34.6831579 C154.048423,35.1694761 154.474734,35.5578933 154.998947,35.8484211 C155.523161,36.1389488 156.14526,36.2842105 156.865263,36.2842105 C157.585267,36.2842105 158.207366,36.1389488 158.731579,35.8484211 C159.255792,35.5578933 159.682104,35.1694761 160.010526,34.6831579 C160.338949,34.1968397 160.582104,33.6442136 160.74,33.0252632 C160.897896,32.4063127 160.976842,31.7747401 160.976842,31.1305263 C160.976842,30.4863126 160.897896,29.8547399 160.74,29.2357895 C160.582104,28.616839 160.338949,28.064213 160.010526,27.5778947 C159.682104,27.0915765 159.255792,26.7031593 158.731579,26.4126316 C158.207366,26.1221038 157.585267,25.9768421 156.865263,25.9768421 L156.865263,25.9768421 Z M156.865263,24.0442105 C157.875795,24.0442105 158.782101,24.2336823 159.584211,24.6126316 C160.38632,24.9915808 161.06526,25.5031547 161.621053,26.1473684 C162.176845,26.7915822 162.603156,27.5431536 162.9,28.4021053 C163.196844,29.2610569 163.345263,30.1705215 163.345263,31.1305263 C163.345263,32.1031628 163.196844,33.0189431 162.9,33.8778947 C162.603156,34.7368464 162.176845,35.4884178 161.621053,36.1326316 C161.06526,36.7768453 160.38632,37.2852613 159.584211,37.6578947 C158.782101,38.0305282 157.875795,38.2168421 156.865263,38.2168421 C155.854732,38.2168421 154.948425,38.0305282 154.146316,37.6578947 C153.344207,37.2852613 152.665266,36.7768453 152.109474,36.1326316 C151.553681,35.4884178 151.12737,34.7368464 150.830526,33.8778947 C150.533683,33.0189431 150.385263,32.1031628 150.385263,31.1305263 C150.385263,30.1705215 150.533683,29.2610569 150.830526,28.4021053 C151.12737,27.5431536 151.553681,26.7915822 152.109474,26.1473684 C152.665266,25.5031547 153.344207,24.9915808 154.146316,24.6126316 C154.948425,24.2336823 155.854732,24.0442105 156.865263,24.0442105 L156.865263,24.0442105 Z M166.497744,24.3663158 L175.838797,24.3663158 L175.838797,26.4126316 L168.866165,26.4126316 L168.866165,37.8947368 L166.497744,37.8947368 L166.497744,24.3663158 Z M184.486015,25.9768421 C183.766011,25.9768421 183.143912,26.1221038 182.619699,26.4126316 C182.095486,26.7031593 181.669175,27.0915765 181.340752,27.5778947 C181.012329,28.064213 180.769174,28.616839 180.611278,29.2357895 C180.453383,29.8547399 180.374436,30.4863126 180.374436,31.1305263 C180.374436,31.7747401 180.453383,32.4063127 180.611278,33.0252632 C180.769174,33.6442136 181.012329,34.1968397 181.340752,34.6831579 C181.669175,35.1694761 182.095486,35.5578933 182.619699,35.8484211 C183.143912,36.1389488 183.766011,36.2842105 184.486015,36.2842105 C185.206019,36.2842105 185.828118,36.1389488 186.352331,35.8484211 C186.876544,35.5578933 187.302856,35.1694761 187.631278,34.6831579 C187.959701,34.1968397 188.202856,33.6442136 188.360752,33.0252632 C188.518647,32.4063127 188.597594,31.7747401 188.597594,31.1305263 C188.597594,30.4863126 188.518647,29.8547399 188.360752,29.2357895 C188.202856,28.616839 187.959701,28.064213 187.631278,27.5778947 C187.302856,27.0915765 186.876544,26.7031593 186.352331,26.4126316 C185.828118,26.1221038 185.206019,25.9768421 184.486015,25.9768421 L184.486015,25.9768421 Z M184.486015,24.0442105 C185.496546,24.0442105 186.402853,24.2336823 187.204962,24.6126316 C188.007072,24.9915808 188.686012,25.5031547 189.241805,26.1473684 C189.797597,26.7915822 190.223908,27.5431536 190.520752,28.4021053 C190.817596,29.2610569 190.966015,30.1705215 190.966015,31.1305263 C190.966015,32.1031628 190.817596,33.0189431 190.520752,33.8778947 C190.223908,34.7368464 189.797597,35.4884178 189.241805,36.1326316 C188.686012,36.7768453 188.007072,37.2852613 187.204962,37.6578947 C186.402853,38.0305282 185.496546,38.2168421 184.486015,38.2168421 C183.475484,38.2168421 182.569177,38.0305282 181.767068,37.6578947 C180.964958,37.2852613 180.286018,36.7768453 179.730226,36.1326316 C179.174433,35.4884178 178.748122,34.7368464 178.451278,33.8778947 C178.154435,33.0189431 178.006015,32.1031628 178.006015,31.1305263 C178.006015,30.1705215 178.154435,29.2610569 178.451278,28.4021053 C178.748122,27.5431536 179.174433,26.7915822 179.730226,26.1473684 C180.286018,25.5031547 180.964958,24.9915808 181.767068,24.6126316 C182.569177,24.2336823 183.475484,24.0442105 184.486015,24.0442105 L184.486015,24.0442105 Z M192.830075,24.3663158 L203.781654,24.3663158 L203.781654,26.4126316 L199.480602,26.4126316 L199.480602,37.8947368 L197.11218,37.8947368 L197.11218,26.4126316 L192.830075,26.4126316 L192.830075,24.3663158 Z M206.289925,24.3663158 L208.658346,24.3663158 L208.658346,34.4463158 L214.399399,24.3663158 L217.184662,24.3663158 L217.184662,37.8947368 L214.816241,37.8947368 L214.816241,27.7389474 L208.999399,37.8947368 L206.289925,37.8947368 L206.289925,24.3663158 Z M220.962406,24.3663158 L231.857143,24.3663158 L231.857143,37.8947368 L229.488722,37.8947368 L229.488722,26.4126316 L223.330827,26.4126316 L223.330827,37.8947368 L220.962406,37.8947368 L220.962406,24.3663158 Z" id="Смени-логотип" sketch:type="MSShapeGroup"></path>
            </g>
        </g>
    </g>
</svg>