<svg xmlns="http://www.w3.org/2000/svg" xmlns:xlink="http://www.w3.org/1999/xlink" xmlns:sketch="http://www.bohemiancoding.com/sketch/ns"><defs><path id="a" d="M3.05 7.427c0 .195-.052.378-.143.536L5.76 9.61c.186-.32.53-.534.927-.534.396 0 .74.215.926.535l2.854-1.65c-.092-.157-.145-.34-.145-.535s.053-.377.145-.534l-.76-.438c-.167.286-.263.618-.263.973 0 .167.023.328.062.482l-1.46.844c-.35-.342-.83-.554-1.36-.554-.528 0-1.007.212-1.358.555l-1.46-.844c.038-.153.062-.314.062-.48 0-.167-.024-.327-.063-.483l1.46-.843c.35.344.83.556 1.36.556.72 0 1.348-.394 1.685-.976l-.76-.44c-.185.32-.53.537-.925.537-.396 0-.74-.216-.926-.536L2.908 6.893c.09.157.144.34.144.535"/><path d="M9.707 2.96l.76-.44c.184.322.53.538.925.538.397 0 .743-.216.928-.537l.76.44c-.253.434-.667.763-1.16.903V5.55c.492.138.906.467 1.158.9l-.76.44c-.185-.32-.53-.536-.926-.536-.395 0-.74.216-.925.537l-.76-.438c.252-.435.665-.764 1.158-.902V3.863c-.493-.14-.907-.47-1.158-.903zm4.706.77c-.167.288-.263.62-.263.976 0 .354.096.687.262.973l.76-.44c-.09-.157-.144-.34-.144-.534 0-.196.053-.378.145-.536l-.76-.44zm-6.656.976c0 .195-.053.378-.144.535l.76.44c.165-.287.262-.62.262-.974 0-.355-.097-.687-.263-.975l-.76.44c.092.16.145.34.145.536z" id="b"/><path d="M14.15 10.143c0-.354.096-.686.262-.973l.76.44c-.09.157-.144.338-.144.533 0 .196.053.38.145.537l-.76.44c-.166-.288-.263-.62-.263-.977zm-2.758-1.646c-.395 0-.74-.216-.925-.536L7.613 9.61c.09.16.144.34.144.536 0 .195-.053.378-.144.535l.76.44c.166-.286.262-.618.262-.974 0-.166-.022-.326-.062-.48l1.46-.845c.23.225.515.392.832.48v3.26l.527.306.528-.306V9.3c.493-.137.906-.466 1.158-.9l-.76-.44c-.185.32-.53.537-.926.537z" id="c"/><path id="d" d="M.295 11.893l.76.44c.184-.322.53-.54.926-.54.397 0 .743.218.928.54l.76-.44c-.253-.435-.667-.764-1.16-.904V9.302c.318-.09.604-.257.834-.482l1.46.845c-.04.154-.064.315-.064.48 0 .357.097.69.264.976l.76-.44c-.092-.156-.145-.338-.145-.534 0-.194.053-.377.144-.535L2.908 7.964c-.185.32-.53.535-.926.535-.395 0-.74-.216-.925-.535l-.76.438c.252.435.666.764 1.16.903v1.686c-.495.14-.91.47-1.16.903"/><path d="M3.93 12.866c0 .355-.097.688-.264.975l-.76-.438c.092-.158.145-.34.145-.536 0-.195-.052-.377-.142-.534l.76-.44c.165.288.262.62.262.974zm2.757 1.648c.396 0 .74.216.926.537l3.78-2.184-.528-.306-2.82 1.63c-.35-.343-.83-.555-1.358-.555-.72 0-1.35.394-1.687.977l.76.44c.185-.32.53-.538.927-.538zm0-2.417c.72 0 1.348-.394 1.685-.977l-.76-.44c-.184.322-.53.537-.925.537-.396 0-.74-.215-.926-.536l-.758.44c.337.583.965.977 1.685.977z" id="e"/><path id="f" d="M21.332 10.99V9.3c.493-.138.906-.467 1.158-.902l-.76-.44c-.184.322-.53.54-.926.54s-.74-.218-.926-.54l-2.853 1.65c.09.158.143.34.143.535 0 .196-.053.38-.144.537l.76.44c.166-.29.263-.62.263-.977 0-.166-.023-.327-.062-.48l1.46-.844c.228.224.514.392.832.48v1.69c-.493.137-.906.466-1.158.9l.758.44c.185-.32.53-.537.926-.537s.74.216.926.536l.76-.44c-.252-.434-.666-.763-1.158-.9"/><path d="M19.878 13.4l-.76.44c-.166-.288-.263-.62-.263-.976 0-.355.097-.687.264-.974l.758.44c-.09.157-.144.34-.144.534 0 .196.053.378.144.536zm-5.14.788L11.92 12.56l-.528.306 3.78 2.184c.184-.32.53-.538.926-.538.397 0 .742.217.927.538l.76-.44c-.253-.434-.666-.763-1.16-.903V12.02c.493-.14.906-.468 1.158-.9l-.76-.44c-.185.32-.53.534-.925.534s-.74-.215-.925-.534l-.76.44c.253.432.666.76 1.158.9v1.687c-.316.09-.6.257-.83.48z" id="g"/><path d="M5.76 16.122l-2.852 1.65c-.184-.322-.53-.54-.927-.54-.396 0-.742.218-.927.54l-.76-.44c.338-.583.967-.978 1.688-.978.53 0 1.01.213 1.36.556l1.46-.844c-.04-.154-.062-.315-.062-.48 0-.355.097-.687.262-.974l.76.44c-.09.156-.143.338-.143.534 0 .195.053.378.144.536zm-3.78-1.306c.72 0 1.348-.393 1.686-.975l-.76-.438c-.185.32-.53.535-.925.535-.394 0-.74-.215-.924-.535l-.76.44c.338.58.966.974 1.685.974z" id="h"/><path d="M22.49 17.33l-.76.44c-.185-.32-.53-.537-.926-.537s-.74.216-.926.537l-2.854-1.65c.09-.158.144-.34.144-.536 0-.195-.052-.377-.143-.534l.76-.44c.165.287.262.62.262.974 0 .165-.023.326-.062.48l1.46.845c.353-.343.83-.556 1.36-.556.72 0 1.347.394 1.685.976zm-1.686-2.516c.72 0 1.348-.393 1.686-.975l-.76-.44c-.185.32-.53.535-.926.535s-.74-.216-.926-.535l-.76.44c.338.58.967.974 1.686.974z" id="i"/><path id="j" d="M11.393 16.356c-.528 0-1.007.212-1.36.554l-1.46-.844c.04-.154.062-.315.062-.48 0-.167-.022-.328-.062-.482l2.82-1.63 2.82 1.628c-.04.154-.063.315-.063.482 0 .356.097.688.264.975l.76-.44c-.093-.158-.146-.34-.146-.536 0-.195.053-.377.144-.534l-3.78-2.184-3.78 2.185c.092.158.145.34.145.536 0 .195-.053.378-.145.536l2.855 1.65c.185-.32.53-.537.926-.537s.74.215.925.536l.76-.44c-.338-.58-.966-.974-1.685-.974"/><path d="M17.784 20.05l-.76.44c-.184-.32-.53-.537-.925-.537-.398 0-.744.217-.928.537l-.76-.44c.337-.582.966-.976 1.687-.976.72 0 1.347.393 1.684.977zm1.95-1.745c0-.196.053-.378.144-.535l-2.854-1.65c-.186.32-.53.535-.926.535-.395 0-.74-.216-.925-.535l-.76.44c.338.58.966.974 1.685.974.53 0 1.01-.212 1.36-.556l1.46.844c-.04.155-.063.316-.063.483 0 .355.097.687.264.974l.758-.44c-.09-.158-.144-.34-.144-.535zm-7.27 0c0 .197-.054.38-.146.537l.76.44c.167-.288.263-.62.263-.976 0-.355-.095-.687-.262-.975l-.76.44c.092.158.145.34.145.536z" id="k"/><path id="l" d="M6.687 19.074c-.72 0-1.35.394-1.687.978l.76.44c.184-.322.53-.54.927-.54s.742.218.927.54l.76-.44c-.338-.584-.967-.978-1.687-.978"/><path id="m" d="M3.665 19.28c.167-.287.265-.62.265-.975 0-.167-.024-.327-.063-.48l1.46-.845c.352.344.83.556 1.36.556.53 0 1.008-.212 1.36-.556l1.46.844c-.04.155-.063.315-.063.482 0 .356.097.688.263.975l.76-.438c-.09-.158-.145-.34-.145-.536 0-.195.054-.377.145-.535l-2.855-1.648c-.185.32-.53.534-.925.534-.396 0-.74-.215-.926-.534l-2.852 1.65c.09.157.143.34.143.533 0 .195-.053.38-.144.537l.76.44"/><path d="M14.412 5.68l.76-.44c.185.32.53.537.927.537.395 0 .74-.216.925-.537l2.854 1.65c-.093.157-.146.34-.146.535 0 .196.053.377.144.534l-2.853 1.65c-.185-.322-.53-.538-.927-.538-.396 0-.742.216-.927.537l-.758-.44c.337-.583.966-.977 1.686-.977.53 0 1.01.212 1.36.555l1.46-.843c-.04-.154-.063-.314-.063-.48 0-.166.024-.328.063-.482l-1.46-.843c-.35.344-.83.556-1.36.556-.72 0-1.348-.394-1.686-.977zm-1.95 1.745c0 .196-.052.378-.144.536l.76.44c.167-.287.263-.62.263-.975s-.095-.687-.262-.974l-.76.44c.092.158.144.34.144.535z" id="n"/><path d="M5 3.732c.338-.583.967-.977 1.687-.977.72 0 1.348.394 1.685.976l-.76.44c-.185-.32-.53-.535-.925-.535-.396 0-.74.216-.926.536L5 3.733zm4.708-2.72c-.167.287-.265.62-.265.975 0 .354.097.686.264.973l.76-.44c-.092-.157-.145-.338-.145-.533 0-.196.054-.38.145-.536l-.76-.44z" id="o"/><path id="p" d="M1.055 6.892c.185-.32.53-.536.926-.536.397 0 .742.216.927.536l2.854-1.65c-.09-.158-.143-.34-.143-.536 0-.195.053-.377.144-.535L5 3.733c-.165.287-.262.62-.262.974 0 .166.023.325.062.48l-1.462.844c-.35-.342-.83-.554-1.357-.554-.72 0-1.347.394-1.685.977l.76.44"/><path id="q" d="M20.804 5.475c-.528 0-1.007.21-1.358.555l-1.46-.844c.038-.155.06-.314.06-.48 0-.356-.096-.688-.263-.975l-.76.44c.092.157.145.34.145.536 0 .195-.052.377-.143.534l2.854 1.65c.184-.32.53-.536.924-.536.396 0 .74.215.925.535l.76-.44c-.34-.582-.967-.975-1.686-.975"/><path d="M17.783 3.73l-.76.44c-.185-.32-.53-.535-.924-.535-.397 0-.742.215-.927.535l-.76-.44c.338-.58.966-.975 1.686-.975.718 0 1.345.394 1.683.976zm-5.32-1.743c0 .194-.053.376-.143.534l.76.44c.165-.287.26-.62.26-.973 0-.356-.096-.69-.263-.976l-.76.44c.092.158.145.34.145.537z" id="r"/><path d="M17.024 21.56c.09-.158.144-.34.144-.536 0-.194-.052-.377-.143-.534l.76-.44c.165.287.262.62.262.974 0 .356-.097.688-.264.976l-.76-.44zm5.466-2.28l-.76-.44c-.185.32-.53.536-.926.536s-.74-.216-.926-.536l-.76.44c.338.58.967.975 1.686.975.72 0 1.348-.394 1.686-.976z" id="s"/><path d="M.297 19.28l.76-.438c.185.32.53.534.924.534.396 0 .74-.215.926-.534l.76.44c-.34.58-.966.973-1.685.973-.718 0-1.345-.392-1.683-.974zm5.32 1.744c0-.194.052-.376.142-.533L5 20.053c-.166.287-.262.618-.262.972 0 .356.097.69.265.977l.76-.44c-.093-.157-.146-.34-.146-.536z" id="t"/><path id="u" d="M.91 18.305c0-.194.053-.376.143-.533l-.76-.44c-.165.287-.26.618-.26.973 0 .356.097.69.264.976l.76-.438c-.093-.158-.146-.34-.146-.537"/></defs><symbol id="icon-facebook" viewBox="0 0 15 32">
    <!-- Generator: Sketch 3.3.3 (12072) - http://www.bohemiancoding.com/sketch -->
    <title>Shape</title>
    <desc>Created with Sketch.</desc>
    
    <g id="Page-1" stroke="none" stroke-width="1" sketch:type="MSPage">
        <path d="M14.6599184,10.2158367 L9.66726531,10.2158367 L9.66726531,6.94138776 C9.66726531,5.71167347 10.4822857,5.42497959 11.0563265,5.42497959 L14.5795918,5.42497959 L14.5795918,0.0189387755 L9.72734694,0 C4.34089796,0 3.11510204,4.032 3.11510204,6.6122449 L3.11510204,10.2158367 L2.66453526e-15,10.2158367 L2.66453526e-15,15.786449 L3.11510204,15.786449 L3.11510204,31.5493878 L9.66726531,31.5493878 L9.66726531,15.786449 L14.0884898,15.786449 L14.6599184,10.2158367 L14.6599184,10.2158367 Z" id="Shape" sketch:type="MSShapeGroup"/>
    </g>
</symbol><symbol id="pic-favorite_border" viewBox="0 0 24 24"><path d="M0 0h24v24H0z" fill="none"/><path d="M16.5 3c-1.74 0-3.41.81-4.5 2.09C10.91 3.81 9.24 3 7.5 3 4.42 3 2 5.42 2 8.5c0 3.78 3.4 6.86 8.55 11.54L12 21.35l1.45-1.32C18.6 15.36 22 12.28 22 8.5 22 5.42 19.58 3 16.5 3zm-4.4 15.55l-.1.1-.1-.1C7.14 14.24 4 11.39 4 8.5 4 6.5 5.5 5 7.5 5c1.54 0 3.04.99 3.57 2.36h1.87C13.46 5.99 14.96 5 16.5 5c2 0 3.5 1.5 3.5 3.5 0 2.89-3.14 5.74-7.9 10.05z"/></symbol><symbol id="icon-instagram" viewBox="0 0 32 32">
    <!-- Generator: Sketch 3.3.3 (12072) - http://www.bohemiancoding.com/sketch -->
    <title>Shape</title>
    <desc>Created with Sketch.</desc>
    
    <g id="Page-1" stroke="none" stroke-width="1" sketch:type="MSPage">
        <path d="M25.5968,0 L6.13184,0 C2.75072,0 0,2.75008 0,6.1312 L0,12.608 L0,25.5968 C0,28.97792 2.75072,31.728 6.13184,31.728 L25.59744,31.728 C28.97856,31.728 31.72864,28.97792 31.72864,25.5968 L31.72864,12.60736 L31.72864,6.13056 C31.728,2.74944 28.97792,0 25.5968,0 L25.5968,0 Z M27.35552,3.65632 L28.05696,3.65376 L28.05696,4.352 L28.05696,9.03168 L22.69696,9.04896 L22.6784,3.67168 L27.35552,3.65632 L27.35552,3.65632 Z M11.33568,12.60736 C12.352,11.20128 14.00064,10.27904 15.86432,10.27904 C17.728,10.27904 19.37664,11.20128 20.39168,12.60736 C21.0528,13.52512 21.44896,14.64768 21.44896,15.86368 C21.44896,18.94272 18.94144,21.44768 15.86368,21.44768 C12.784,21.44768 10.27904,18.94272 10.27904,15.86368 C10.27968,14.64768 10.67456,13.52512 11.33568,12.60736 L11.33568,12.60736 Z M28.6368,25.59616 C28.6368,27.2736 27.27296,28.63616 25.5968,28.63616 L6.13184,28.63616 C4.45504,28.63616 3.0912,27.2736 3.0912,25.59616 L3.0912,12.60736 L7.8272,12.60736 C7.41824,13.61344 7.18848,14.71232 7.18848,15.86368 C7.18848,20.6464 11.07968,24.54016 15.86432,24.54016 C20.64832,24.54016 24.53952,20.6464 24.53952,15.86368 C24.53952,14.71232 24.30848,13.61344 23.89952,12.60736 L28.6368,12.60736 L28.6368,25.59616 L28.6368,25.59616 Z" id="Shape" sketch:type="MSShapeGroup"/>
    </g>
</symbol><symbol id="pic-logo-accent" viewBox="0 0 27 46"><title>Oval 1 Copy 2</title><path d="M12.53 23.28c-.967-.27-1.674-1.16-1.674-2.212 0-.186.022-.366.064-.54l-1.603-.925c-.413.395-.973.637-1.59.637-.638 0-1.216-.26-1.633-.68l-1.573.907c.052.192.08.393.08.6 0 1.27-1.03 2.3-2.3 2.3-1.27 0-2.3-1.03-2.3-2.3 0-1.27 1.03-2.3 2.3-2.3.597 0 1.14.228 1.55.6l1.63-.94c-.034-.158-.052-.32-.052-.487 0-1.27 1.03-2.3 2.3-2.3.613 0 1.17.24 1.582.63l3.202-1.848v-3.75c-.362-.105-.688-.297-.952-.552l-1.602 1c.046.18.07.37.07.564 0 1.27-1.03 2.3-2.3 2.3-1.27 0-2.3-1.03-2.3-2.3 0-.184.02-.362.062-.533l-1.668-.962c-.25.22-.55.39-.878.485v1.93c.957.28 1.656 1.162 1.656 2.21 0 1.27-1.03 2.3-2.3 2.3-1.27 0-2.3-1.03-2.3-2.3 0-1.048.7-1.93 1.656-2.21v-1.93C.7 10.393 0 9.51 0 8.463c0-1.27 1.03-2.3 2.3-2.3.643 0 1.225.265 1.643.69l1.533-.957c-.032-.15-.048-.308-.048-.468 0-1.27 1.03-2.3 2.3-2.3 1.27 0 2.3 1.03 2.3 2.3 0 1.27-1.03 2.3-2.3 2.3-.645 0-1.227-.265-1.645-.693l-1.53.957c.03.153.047.31.047.472 0 .22-.03.433-.09.635l1.618.932c.414-.4.978-.648 1.6-.648.61 0 1.165.238 1.577.626L10.92 9c-.042-.17-.064-.35-.064-.536 0-1.08.744-1.986 1.748-2.233V4.534C11.6 4.286 10.856 3.38 10.856 2.3c0-1.27 1.03-2.3 2.3-2.3 1.27 0 2.3 1.03 2.3 2.3 0 1.047-.7 1.93-1.656 2.21v1.745c.957.28 1.656 1.162 1.656 2.21 0 1.046-.7 1.93-1.656 2.208v3.802l3.05 1.76c.295-.298.67-.517 1.09-.62v-1.698c-1.004-.247-1.748-1.153-1.748-2.233 0-1.27 1.03-2.3 2.3-2.3.61 0 1.164.237 1.576.625l1.597-1c-.03-.146-.045-.298-.045-.454 0-.196.024-.386.07-.567l-1.65-.954c-.408.373-.95.6-1.548.6-1.27 0-2.3-1.03-2.3-2.3 0-1.27 1.03-2.3 2.3-2.3 1.27 0 2.3 1.03 2.3 2.3 0 .208-.028.41-.08.6l1.633.944c.412-.387.966-.624 1.575-.624 1.27 0 2.3 1.03 2.3 2.3 0 1.047-.7 1.93-1.656 2.21v1.745c.957.28 1.656 1.163 1.656 2.21 0 1.27-1.03 2.3-2.3 2.3-1.27 0-2.3-1.03-2.3-2.3 0-1.08.744-1.986 1.748-2.233V10.79c-.427-.106-.807-.33-1.102-.636l-1.544.965c.046.18.07.37.07.564 0 1.047-.7 1.93-1.656 2.21v1.745c.957.278 1.656 1.16 1.656 2.208 0 .216-.03.424-.085.622l1.622.937c.412-.396.973-.64 1.59-.64 1.27 0 2.3 1.03 2.3 2.3 0 1.27-1.03 2.3-2.3 2.3-1.27 0-2.3-1.03-2.3-2.3 0-.187.023-.37.065-.545l-1.66-.96c-.408.365-.944.586-1.533.586-1.27 0-2.3-1.03-2.3-2.3 0-.163.017-.323.05-.476l-3.132-1.808-3.15 1.818c.044.18.068.366.068.558 0 .19-.023.373-.066.55l1.6.92c.412-.397.974-.642 1.594-.642 1.27 0 2.3 1.03 2.3 2.3 0 1.068-.728 1.966-1.715 2.225v3.012l2.622-1.514c-.05-.19-.078-.388-.078-.594 0-1.27 1.03-2.3 2.3-2.3 1.27 0 2.3 1.03 2.3 2.3 0 1.27-1.03 2.3-2.3 2.3-.627 0-1.195-.25-1.61-.658l-3.233 1.868v5.5h11.892c.223 0 .404.18.404.404 0 .225-.18.405-.404.405h-11.85c.21 1.533 1.665 1.74 3.934 1.924 2.212.18 4.718.387 5.392 2.877.044.163-.05.33-.212.373-.027.007-.054.01-.08.01-.134 0-.256-.088-.292-.224-.508-1.877-2.335-2.205-4.238-2.378.05.057.1.116.145.177.365.492.933.72 1.535.963.755.303 1.534.617 1.888 1.478.063.155-.01.333-.166.396-.038.016-.077.023-.115.023-.12 0-.232-.07-.28-.19-.256-.623-.857-.864-1.552-1.144-.264-.105-.53-.213-.785-.346.075.283.135.57.19.852.102.507.2.986.382 1.39.07.15.003.33-.15.4-.04.02-.083.028-.125.028-.115 0-.225-.066-.276-.177-.214-.466-.32-1.003-.424-1.522-.25-1.24-.463-2.313-1.948-2.477-.004 0-.007 0-.01-.002-1.052-.12-2.033-.328-2.677-.893.302.706.75 1.22 1.19 1.724.183.21.366.42.538.64l.01.01c.18.235.39.434.615.646.3.282.612.58.867.98l.017.022c.336.537 1.33 1.632 1.958 1.987.146.082.198.267.116.413-.056.1-.16.155-.265.155-.05 0-.1-.013-.148-.04-.354-.2-.778-.57-1.167-.97.036.375.036.8-.017 1.297-.015.156-.146.27-.3.27H17.3c-.166-.018-.287-.168-.27-.334.15-1.392-.124-2.13-.54-2.672.184.946.064 2.197-.636 4.018-.046.12-.16.195-.283.195-.037 0-.074-.007-.11-.02-.156-.06-.234-.237-.174-.393 1.357-3.526.434-4.58-.634-5.803-.424-.484-.875-1.004-1.208-1.698.096 1.187.25 2.162.383 3.007.402 2.544.644 4.08-1.35 6.886-.06.083-.153.127-.247.127-.06 0-.122-.017-.176-.056-.136-.097-.168-.286-.07-.423 1.464-2.06 1.634-3.344 1.448-5.016-.123.214-.268.392-.41.568-.38.47-.737.912-.66 2.155.01.168-.118.312-.286.322h-.018c-.16 0-.293-.125-.303-.286-.09-1.48.38-2.06.796-2.573.414-.51.77-.953.556-2.395-.094-.628-.186-1.327-.254-2.12-.326.663-.865 1.386-1.758 2.14-1.067.9-.777 1.882-.443 3.017.22.744.447 1.513.306 2.313-.025.147-.154.25-.298.25-.017 0-.035 0-.053-.004-.165-.028-.275-.185-.246-.35.115-.66-.09-1.36-.29-2.036-.09-.306-.183-.623-.247-.945-.027.118-.053.236-.078.357-.224 1.048-.456 2.133-1.86 3.055-.052.034-.11.05-.167.05-.1 0-.196-.048-.254-.137-.092-.14-.052-.328.088-.42 1.196-.785 1.383-1.66 1.6-2.675.094-.44.195-.91.394-1.383l-.256.152c-.888.525-1.378.814-1.575 1.932-.025.147-.153.25-.297.25-.018 0-.035 0-.053-.004-.165-.03-.275-.186-.246-.352.244-1.392.922-1.794 1.862-2.35.495-.292 1.057-.624 1.72-1.183 1.048-.885 1.557-1.704 1.805-2.425-.08.1-.165.194-.26.283-.9.846-2.37 1.21-4.364 1.087-.887.164-.986.647-1.122 1.712-.122.967-.275 2.172-1.333 3.426-.06.07-.146.108-.232.108-.07 0-.14-.024-.195-.072-.128-.108-.144-.3-.036-.428.942-1.117 1.083-2.223 1.196-3.112.08-.617.156-1.212.506-1.642-.33.02-.63.06-.9.117-.776.322-.81.73-.868 1.464-.04.493-.09 1.105-.42 1.782-.05.108-.16.17-.27.17-.046 0-.09-.01-.134-.03-.15-.073-.213-.254-.14-.405.28-.575.322-1.1.36-1.565.025-.324.052-.64.154-.934-1.165.674-1.35 1.668-1.36 1.735-.025.148-.154.253-.3.253-.015 0-.032 0-.05-.004-.164-.028-.276-.183-.248-.35.15-.89.972-2.21 3.054-2.68.003 0 .005-.003.01-.004.035-.015.07-.022.108-.022.624-.128 1.358-.182 2.218-.126 1.817.12 3.184-.2 3.952-.92.43-.402.608-.86.675-1.255H.637c-.223 0-.404-.18-.404-.405 0-.223.18-.404.404-.404H12.53v-5.5l-3.243-1.874c-.254.25-.566.437-.914.544-.232.078-.48.12-.737.12-1.27 0-2.3-1.03-2.3-2.3 0-1.27 1.03-2.3 2.3-2.3.896 0 1.672.512 2.052 1.26.175.32.276.684.276 1.073 0 .19-.027.374-.07.55l2.635 1.525V23.28zm7.144 1.602c.125-.198.198-.434.198-.686 0-.71-.577-1.288-1.288-1.288-.494 0-.923.278-1.14.686l.037.02c-.104.182-.165.39-.165.615 0 .223.062.434.167.615.213.368.61.616 1.065.616.454 0 .85-.247 1.063-.615l.064.037zm-11.64.54c.516-.168.89-.653.89-1.226 0-.71-.577-1.288-1.288-1.288-.71 0-1.288.577-1.288 1.288 0 .262.078.505.212.708l.1-.057c.213.367.61.614 1.063.614.107 0 .21-.013.31-.04zm6.216-3.674c.123-.197.194-.43.194-.68 0-.71-.577-1.288-1.288-1.288-.71 0-1.288.577-1.288 1.288 0 .242.067.47.183.662l.02-.01c.213.367.61.616 1.065.616.455 0 .852-.25 1.065-.617l.05.028zM2.3 9.752c.71 0 1.288-.577 1.288-1.288 0-.71-.577-1.288-1.288-1.288-.71 0-1.288.577-1.288 1.288 0 .71.577 1.288 1.288 1.288zm0 6.348c.71 0 1.288-.577 1.288-1.288 0-.71-.577-1.288-1.288-1.288-.71 0-1.288.577-1.288 1.288 0 .71.577 1.288 1.288 1.288zm5.428-9.384c.71 0 1.288-.577 1.288-1.288 0-.71-.577-1.288-1.288-1.288-.71 0-1.288.577-1.288 1.288 0 .71.577 1.288 1.288 1.288zm5.428-3.128c.71 0 1.288-.577 1.288-1.288 0-.71-.577-1.288-1.288-1.288-.71 0-1.288.577-1.288 1.288 0 .71.577 1.288 1.288 1.288zm0 6.164c.71 0 1.288-.577 1.288-1.288 0-.71-.577-1.288-1.288-1.288-.71 0-1.288.577-1.288 1.288 0 .71.577 1.288 1.288 1.288zm-5.428 3.22c.71 0 1.288-.577 1.288-1.288 0-.71-.577-1.288-1.288-1.288-.71 0-1.288.577-1.288 1.288 0 .71.577 1.288 1.288 1.288zm10.764-6.348c.71 0 1.288-.577 1.288-1.288 0-.71-.577-1.288-1.288-1.288-.71 0-1.288.577-1.288 1.288 0 .71.577 1.288 1.288 1.288zm5.428 3.22c.71 0 1.288-.577 1.288-1.288 0-.71-.577-1.288-1.288-1.288-.71 0-1.288.577-1.288 1.288 0 .71.577 1.288 1.288 1.288zm0 6.164c.71 0 1.288-.577 1.288-1.288 0-.71-.577-1.288-1.288-1.288-.71 0-1.288.577-1.288 1.288 0 .71.577 1.288 1.288 1.288zm-5.428-3.036c.71 0 1.288-.577 1.288-1.288 0-.71-.577-1.288-1.288-1.288-.71 0-1.288.577-1.288 1.288 0 .71.577 1.288 1.288 1.288zm0 6.164c.71 0 1.288-.577 1.288-1.288 0-.71-.577-1.288-1.288-1.288-.71 0-1.288.577-1.288 1.288 0 .71.577 1.288 1.288 1.288zm5.428 3.22c.71 0 1.288-.577 1.288-1.288 0-.71-.577-1.288-1.288-1.288-.71 0-1.288.577-1.288 1.288 0 .71.577 1.288 1.288 1.288zM7.728 19.228c.71 0 1.288-.577 1.288-1.288 0-.71-.577-1.288-1.288-1.288-.71 0-1.288.577-1.288 1.288 0 .71.577 1.288 1.288 1.288zM2.3 22.356c.71 0 1.288-.577 1.288-1.288 0-.71-.577-1.288-1.288-1.288-.71 0-1.288.577-1.288 1.288 0 .71.577 1.288 1.288 1.288z" fill="#03E274" fill-rule="evenodd"/></symbol><symbol id="icon-ok" viewBox="0 0 19 32">
    <!-- Generator: Sketch 3.3.3 (12072) - http://www.bohemiancoding.com/sketch -->
    <title>odnoklassniki</title>
    <desc>Created with Sketch.</desc>
    
    <g id="Page-1" stroke="none" stroke-width="1" sketch:type="MSPage">
        <path d="M9.25001007,4.83066372 C11.1322373,4.83066372 12.6628262,6.3614992 12.6628262,8.24367713 C12.6628262,10.1239317 11.1322373,11.6549151 9.25001007,11.6549151 C7.3697555,11.6549151 5.83724323,10.1239317 5.83724323,8.24367713 C5.83724323,6.3614992 7.3697555,4.83066372 9.25001007,4.83066372 L9.25001007,4.83066372 L9.25001007,4.83066372 Z M9.25001007,16.4836554 C13.7965519,16.4836554 17.4925036,12.7876544 17.4925036,8.24367713 C17.4925036,3.69752985 13.7965519,0 9.25001007,0 C4.7045039,0 1.00756587,3.69752985 1.00756587,8.24367713 C1.00756587,12.7876544 4.7045039,16.4836554 9.25001007,16.4836554 L9.25001007,16.4836554 L9.25001007,16.4836554 Z M12.5848049,23.2076924 C14.2627564,22.8252794 15.881033,22.1616051 17.3711316,21.2251026 C18.4991364,20.5142308 18.8391357,19.023343 18.1282639,17.8953876 C17.4183291,16.7649168 15.9282304,16.4248682 14.7983022,17.1357401 C11.4221295,19.2591331 7.0750302,19.2581961 3.70078086,17.1357401 C2.57090199,16.4248682 1.08075401,16.7649168 0.371805568,17.8953876 C-0.339066283,19.0240828 -3.98381299e-06,20.5142308 1.12795148,21.2251026 C2.61809946,22.1604214 4.23632668,22.8252794 5.9143275,23.2076924 L1.30613797,27.8156353 C0.364111936,28.7586477 0.364111936,30.2873132 1.30712433,31.2303255 C1.77909905,31.7013632 2.39656232,31.9373506 3.01397627,31.9373506 C3.63237659,31.9373506 4.2507769,31.7013632 4.72280094,31.2303255 L9.24907302,26.70213 L13.7791919,31.2303255 C14.7212673,32.1733873 16.2499327,32.1733873 17.1929451,31.2303255 C18.1369439,30.2873132 18.1369439,28.7579079 17.1929451,27.8156353 L12.5848049,23.2076924 L12.5848049,23.2076924 Z" id="odnoklassniki" sketch:type="MSShapeGroup"/>
    </g>
</symbol><symbol id="pic-logo-small" viewBox="0 0 27 46"><title>Oval 1 Copy 2</title><path d="M12.53 23.28c-.967-.27-1.674-1.16-1.674-2.212 0-.186.022-.366.064-.54l-1.603-.925c-.413.395-.973.637-1.59.637-.638 0-1.216-.26-1.633-.68l-1.573.907c.052.192.08.393.08.6 0 1.27-1.03 2.3-2.3 2.3-1.27 0-2.3-1.03-2.3-2.3 0-1.27 1.03-2.3 2.3-2.3.597 0 1.14.228 1.55.6l1.63-.94c-.034-.158-.052-.32-.052-.487 0-1.27 1.03-2.3 2.3-2.3.613 0 1.17.24 1.582.63l3.202-1.848v-3.75c-.362-.105-.688-.297-.952-.552l-1.602 1c.046.18.07.37.07.564 0 1.27-1.03 2.3-2.3 2.3-1.27 0-2.3-1.03-2.3-2.3 0-.184.02-.362.062-.533l-1.668-.962c-.25.22-.55.39-.878.485v1.93c.957.28 1.656 1.162 1.656 2.21 0 1.27-1.03 2.3-2.3 2.3-1.27 0-2.3-1.03-2.3-2.3 0-1.048.7-1.93 1.656-2.21v-1.93C.7 10.393 0 9.51 0 8.463c0-1.27 1.03-2.3 2.3-2.3.643 0 1.225.265 1.643.69l1.533-.957c-.032-.15-.048-.308-.048-.468 0-1.27 1.03-2.3 2.3-2.3 1.27 0 2.3 1.03 2.3 2.3 0 1.27-1.03 2.3-2.3 2.3-.645 0-1.227-.265-1.645-.693l-1.53.957c.03.153.047.31.047.472 0 .22-.03.433-.09.635l1.618.932c.414-.4.978-.648 1.6-.648.61 0 1.165.238 1.577.626L10.92 9c-.042-.17-.064-.35-.064-.536 0-1.08.744-1.986 1.748-2.233V4.534C11.6 4.286 10.856 3.38 10.856 2.3c0-1.27 1.03-2.3 2.3-2.3 1.27 0 2.3 1.03 2.3 2.3 0 1.047-.7 1.93-1.656 2.21v1.745c.957.28 1.656 1.162 1.656 2.21 0 1.046-.7 1.93-1.656 2.208v3.802l3.05 1.76c.295-.298.67-.517 1.09-.62v-1.698c-1.004-.247-1.748-1.153-1.748-2.233 0-1.27 1.03-2.3 2.3-2.3.61 0 1.164.237 1.576.625l1.597-1c-.03-.146-.045-.298-.045-.454 0-.196.024-.386.07-.567l-1.65-.954c-.408.373-.95.6-1.548.6-1.27 0-2.3-1.03-2.3-2.3 0-1.27 1.03-2.3 2.3-2.3 1.27 0 2.3 1.03 2.3 2.3 0 .208-.028.41-.08.6l1.633.944c.412-.387.966-.624 1.575-.624 1.27 0 2.3 1.03 2.3 2.3 0 1.047-.7 1.93-1.656 2.21v1.745c.957.28 1.656 1.163 1.656 2.21 0 1.27-1.03 2.3-2.3 2.3-1.27 0-2.3-1.03-2.3-2.3 0-1.08.744-1.986 1.748-2.233V10.79c-.427-.106-.807-.33-1.102-.636l-1.544.965c.046.18.07.37.07.564 0 1.047-.7 1.93-1.656 2.21v1.745c.957.278 1.656 1.16 1.656 2.208 0 .216-.03.424-.085.622l1.622.937c.412-.396.973-.64 1.59-.64 1.27 0 2.3 1.03 2.3 2.3 0 1.27-1.03 2.3-2.3 2.3-1.27 0-2.3-1.03-2.3-2.3 0-.187.023-.37.065-.545l-1.66-.96c-.408.365-.944.586-1.533.586-1.27 0-2.3-1.03-2.3-2.3 0-.163.017-.323.05-.476l-3.132-1.808-3.15 1.818c.044.18.068.366.068.558 0 .19-.023.373-.066.55l1.6.92c.412-.397.974-.642 1.594-.642 1.27 0 2.3 1.03 2.3 2.3 0 1.068-.728 1.966-1.715 2.225v3.012l2.622-1.514c-.05-.19-.078-.388-.078-.594 0-1.27 1.03-2.3 2.3-2.3 1.27 0 2.3 1.03 2.3 2.3 0 1.27-1.03 2.3-2.3 2.3-.627 0-1.195-.25-1.61-.658l-3.233 1.868v5.5h11.892c.223 0 .404.18.404.404 0 .225-.18.405-.404.405h-11.85c.21 1.533 1.665 1.74 3.934 1.924 2.212.18 4.718.387 5.392 2.877.044.163-.05.33-.212.373-.027.007-.054.01-.08.01-.134 0-.256-.088-.292-.224-.508-1.877-2.335-2.205-4.238-2.378.05.057.1.116.145.177.365.492.933.72 1.535.963.755.303 1.534.617 1.888 1.478.063.155-.01.333-.166.396-.038.016-.077.023-.115.023-.12 0-.232-.07-.28-.19-.256-.623-.857-.864-1.552-1.144-.264-.105-.53-.213-.785-.346.075.283.135.57.19.852.102.507.2.986.382 1.39.07.15.003.33-.15.4-.04.02-.083.028-.125.028-.115 0-.225-.066-.276-.177-.214-.466-.32-1.003-.424-1.522-.25-1.24-.463-2.313-1.948-2.477-.004 0-.007 0-.01-.002-1.052-.12-2.033-.328-2.677-.893.302.706.75 1.22 1.19 1.724.183.21.366.42.538.64l.01.01c.18.235.39.434.615.646.3.282.612.58.867.98l.017.022c.336.537 1.33 1.632 1.958 1.987.146.082.198.267.116.413-.056.1-.16.155-.265.155-.05 0-.1-.013-.148-.04-.354-.2-.778-.57-1.167-.97.036.375.036.8-.017 1.297-.015.156-.146.27-.3.27H17.3c-.166-.018-.287-.168-.27-.334.15-1.392-.124-2.13-.54-2.672.184.946.064 2.197-.636 4.018-.046.12-.16.195-.283.195-.037 0-.074-.007-.11-.02-.156-.06-.234-.237-.174-.393 1.357-3.526.434-4.58-.634-5.803-.424-.484-.875-1.004-1.208-1.698.096 1.187.25 2.162.383 3.007.402 2.544.644 4.08-1.35 6.886-.06.083-.153.127-.247.127-.06 0-.122-.017-.176-.056-.136-.097-.168-.286-.07-.423 1.464-2.06 1.634-3.344 1.448-5.016-.123.214-.268.392-.41.568-.38.47-.737.912-.66 2.155.01.168-.118.312-.286.322h-.018c-.16 0-.293-.125-.303-.286-.09-1.48.38-2.06.796-2.573.414-.51.77-.953.556-2.395-.094-.628-.186-1.327-.254-2.12-.326.663-.865 1.386-1.758 2.14-1.067.9-.777 1.882-.443 3.017.22.744.447 1.513.306 2.313-.025.147-.154.25-.298.25-.017 0-.035 0-.053-.004-.165-.028-.275-.185-.246-.35.115-.66-.09-1.36-.29-2.036-.09-.306-.183-.623-.247-.945-.027.118-.053.236-.078.357-.224 1.048-.456 2.133-1.86 3.055-.052.034-.11.05-.167.05-.1 0-.196-.048-.254-.137-.092-.14-.052-.328.088-.42 1.196-.785 1.383-1.66 1.6-2.675.094-.44.195-.91.394-1.383l-.256.152c-.888.525-1.378.814-1.575 1.932-.025.147-.153.25-.297.25-.018 0-.035 0-.053-.004-.165-.03-.275-.186-.246-.352.244-1.392.922-1.794 1.862-2.35.495-.292 1.057-.624 1.72-1.183 1.048-.885 1.557-1.704 1.805-2.425-.08.1-.165.194-.26.283-.9.846-2.37 1.21-4.364 1.087-.887.164-.986.647-1.122 1.712-.122.967-.275 2.172-1.333 3.426-.06.07-.146.108-.232.108-.07 0-.14-.024-.195-.072-.128-.108-.144-.3-.036-.428.942-1.117 1.083-2.223 1.196-3.112.08-.617.156-1.212.506-1.642-.33.02-.63.06-.9.117-.776.322-.81.73-.868 1.464-.04.493-.09 1.105-.42 1.782-.05.108-.16.17-.27.17-.046 0-.09-.01-.134-.03-.15-.073-.213-.254-.14-.405.28-.575.322-1.1.36-1.565.025-.324.052-.64.154-.934-1.165.674-1.35 1.668-1.36 1.735-.025.148-.154.253-.3.253-.015 0-.032 0-.05-.004-.164-.028-.276-.183-.248-.35.15-.89.972-2.21 3.054-2.68.003 0 .005-.003.01-.004.035-.015.07-.022.108-.022.624-.128 1.358-.182 2.218-.126 1.817.12 3.184-.2 3.952-.92.43-.402.608-.86.675-1.255H.637c-.223 0-.404-.18-.404-.405 0-.223.18-.404.404-.404H12.53v-5.5l-3.243-1.874c-.254.25-.566.437-.914.544-.232.078-.48.12-.737.12-1.27 0-2.3-1.03-2.3-2.3 0-1.27 1.03-2.3 2.3-2.3.896 0 1.672.512 2.052 1.26.175.32.276.684.276 1.073 0 .19-.027.374-.07.55l2.635 1.525V23.28zm7.144 1.602c.125-.198.198-.434.198-.686 0-.71-.577-1.288-1.288-1.288-.494 0-.923.278-1.14.686l.037.02c-.104.182-.165.39-.165.615 0 .223.062.434.167.615.213.368.61.616 1.065.616.454 0 .85-.247 1.063-.615l.064.037zm-11.64.54c.516-.168.89-.653.89-1.226 0-.71-.577-1.288-1.288-1.288-.71 0-1.288.577-1.288 1.288 0 .262.078.505.212.708l.1-.057c.213.367.61.614 1.063.614.107 0 .21-.013.31-.04zm6.216-3.674c.123-.197.194-.43.194-.68 0-.71-.577-1.288-1.288-1.288-.71 0-1.288.577-1.288 1.288 0 .242.067.47.183.662l.02-.01c.213.367.61.616 1.065.616.455 0 .852-.25 1.065-.617l.05.028zM2.3 9.752c.71 0 1.288-.577 1.288-1.288 0-.71-.577-1.288-1.288-1.288-.71 0-1.288.577-1.288 1.288 0 .71.577 1.288 1.288 1.288zm0 6.348c.71 0 1.288-.577 1.288-1.288 0-.71-.577-1.288-1.288-1.288-.71 0-1.288.577-1.288 1.288 0 .71.577 1.288 1.288 1.288zm5.428-9.384c.71 0 1.288-.577 1.288-1.288 0-.71-.577-1.288-1.288-1.288-.71 0-1.288.577-1.288 1.288 0 .71.577 1.288 1.288 1.288zm5.428-3.128c.71 0 1.288-.577 1.288-1.288 0-.71-.577-1.288-1.288-1.288-.71 0-1.288.577-1.288 1.288 0 .71.577 1.288 1.288 1.288zm0 6.164c.71 0 1.288-.577 1.288-1.288 0-.71-.577-1.288-1.288-1.288-.71 0-1.288.577-1.288 1.288 0 .71.577 1.288 1.288 1.288zm-5.428 3.22c.71 0 1.288-.577 1.288-1.288 0-.71-.577-1.288-1.288-1.288-.71 0-1.288.577-1.288 1.288 0 .71.577 1.288 1.288 1.288zm10.764-6.348c.71 0 1.288-.577 1.288-1.288 0-.71-.577-1.288-1.288-1.288-.71 0-1.288.577-1.288 1.288 0 .71.577 1.288 1.288 1.288zm5.428 3.22c.71 0 1.288-.577 1.288-1.288 0-.71-.577-1.288-1.288-1.288-.71 0-1.288.577-1.288 1.288 0 .71.577 1.288 1.288 1.288zm0 6.164c.71 0 1.288-.577 1.288-1.288 0-.71-.577-1.288-1.288-1.288-.71 0-1.288.577-1.288 1.288 0 .71.577 1.288 1.288 1.288zm-5.428-3.036c.71 0 1.288-.577 1.288-1.288 0-.71-.577-1.288-1.288-1.288-.71 0-1.288.577-1.288 1.288 0 .71.577 1.288 1.288 1.288zm0 6.164c.71 0 1.288-.577 1.288-1.288 0-.71-.577-1.288-1.288-1.288-.71 0-1.288.577-1.288 1.288 0 .71.577 1.288 1.288 1.288zm5.428 3.22c.71 0 1.288-.577 1.288-1.288 0-.71-.577-1.288-1.288-1.288-.71 0-1.288.577-1.288 1.288 0 .71.577 1.288 1.288 1.288zM7.728 19.228c.71 0 1.288-.577 1.288-1.288 0-.71-.577-1.288-1.288-1.288-.71 0-1.288.577-1.288 1.288 0 .71.577 1.288 1.288 1.288zM2.3 22.356c.71 0 1.288-.577 1.288-1.288 0-.71-.577-1.288-1.288-1.288-.71 0-1.288.577-1.288 1.288 0 .71.577 1.288 1.288 1.288z" fill="#FFF" fill-rule="evenodd"/></symbol><symbol id="icon-telegram" viewBox="0 0 32 27">
    <!-- Generator: Sketch 3.3.3 (12072) - http://www.bohemiancoding.com/sketch -->
    <title>path9</title>
    <desc>Created with Sketch.</desc>
    
    <g id="Page-1" stroke="none" stroke-width="1" sketch:type="MSPage">
        <path d="M29.8395284,0.177464413 L1.4938725,11.1104417 C-0.440764139,11.8866545 -0.429290764,12.9657099 1.14124074,13.446869 L8.21073295,15.6534015 L10.9156866,23.9465813 C11.2445295,24.8542678 11.0824241,25.2142694 12.0355851,25.2142694 C12.7711661,25.2142694 13.0974833,24.8789005 13.5071685,24.4786884 C13.7676949,24.2237412 15.3145406,22.719841 17.0417047,21.0405748 L24.3953027,26.4737471 C25.7484637,27.2202744 26.7255191,26.8335367 27.0624675,25.2170062 L31.8895339,2.46999728 C32.3837459,0.48862376 31.1341629,-0.410115792 29.8395284,0.177464413 L29.8395284,0.177464413 Z M9.32020973,15.1464533 L25.2548843,5.09316247 C26.0503594,4.61074055 26.7797293,4.87010971 26.1808853,5.40168979 L12.5366383,17.7122492 L12.0053749,23.3785801 L9.32020973,15.1464533 L9.32020973,15.1464533 Z" id="path9" sketch:type="MSShapeGroup"/>
    </g>
</symbol><symbol id="pic-logo" viewBox="0 0 392 121"><title>&#x421;&#x43C;&#x435;&#x43D;&#x438; &#x43B;&#x43E;&#x433;&#x43E;&#x442;&#x438;&#x43F; + &#x422;&#x415;&#x41F;&#x41B;&#x418;&#x426;&#x410; &#x41F;&#x420;&#x415;&#x414;&#x423;&#x41F;&#x420;&#x415;&#x416;&#x414;&#x410;&#x415; + Oval 1</title><g fill="#FFF" fill-rule="evenodd"><path d="M106.696 77.176h-5.232c-.816 3.456-3.168 5.856-6.96 5.856-2.016 0-3.84-.768-5.04-2.064-1.68-1.824-2.064-3.792-2.064-10.656 0-6.864.384-8.832 2.064-10.656 1.2-1.296 3.024-2.064 5.04-2.064 3.792 0 6.096 2.4 6.912 5.856h5.28c-1.2-6.816-5.904-10.512-12.192-10.512-3.552 0-6.624 1.296-8.976 3.648-3.36 3.36-3.312 7.152-3.312 13.728s-.048 10.368 3.312 13.728c2.352 2.352 5.424 3.648 8.976 3.648 6.192 0 11.04-3.696 12.192-10.512zM136.144 87.4V63.064h-4.8l-7.248 14.496-7.296-14.496h-4.848V87.4h4.896V71.8l5.712 11.136h3.072l5.616-11.136v15.6h4.896zm26.088-10.704v-2.208c0-7.152-3.984-11.712-10.272-11.712-6.384 0-10.32 4.704-10.32 12.336 0 8.256 3.744 12.576 11.04 12.576 3.888 0 6.24-1.104 8.976-3.792l-3.072-2.928c-1.728 1.68-3.264 2.544-5.712 2.544-4.56 0-6.288-2.736-6.384-6.816h15.744zm-4.8-3.456h-10.944c.096-3.36 1.536-6.384 5.472-6.384 3.984 0 5.232 3.072 5.472 6.384zm29.736 14.16V63.064h-4.896v9.696h-9.696v-9.696h-4.896V87.4h4.896V77.032h9.696V87.4h4.896zm26.904 0V63.064h-4.896L198.76 79.576V63.064h-4.896V87.4h4.896l10.416-16.752V87.4h4.896zm36 0V63.064h-16.656v10.128c0 9.408-2.496 9.888-4.608 9.888h-.768v4.32h2.304c4.752 0 7.776-2.688 7.776-13.008v-7.056h7.056V87.4h4.896zm25.848-12.288c0-4.656-.816-7.344-2.832-9.456-1.824-1.872-4.368-2.88-7.296-2.88s-5.424 1.008-7.248 2.88c-2.064 2.16-2.88 4.8-2.88 9.552 0 4.8.816 7.44 2.88 9.6 1.824 1.872 4.32 2.88 7.248 2.88s5.472-1.008 7.296-2.88c2.064-2.16 2.832-4.8 2.832-9.696zm-4.848.192c0 2.832-.336 4.992-1.488 6.384-.864 1.008-2.16 1.632-3.792 1.632-1.536 0-2.784-.528-3.648-1.536-1.104-1.248-1.584-3.168-1.584-6.384 0-2.88.288-5.136 1.488-6.624.864-1.008 2.112-1.632 3.744-1.632 1.632 0 2.88.624 3.744 1.584 1.248 1.392 1.536 3.552 1.536 6.576zm26.424-7.968v-4.272h-15.792V87.4h4.896V67.336h10.896zm22.008 7.776c0-4.656-.816-7.344-2.832-9.456-1.824-1.872-4.368-2.88-7.296-2.88s-5.424 1.008-7.248 2.88c-2.064 2.16-2.88 4.8-2.88 9.552 0 4.8.816 7.44 2.88 9.6 1.824 1.872 4.32 2.88 7.248 2.88s5.472-1.008 7.296-2.88c2.064-2.16 2.832-4.8 2.832-9.696zm-4.848.192c0 2.832-.336 4.992-1.488 6.384-.864 1.008-2.16 1.632-3.792 1.632-1.536 0-2.784-.528-3.648-1.536-1.104-1.248-1.584-3.168-1.584-6.384 0-2.88.288-5.136 1.488-6.624.864-1.008 2.112-1.632 3.744-1.632 1.632 0 2.88.624 3.744 1.584 1.248 1.392 1.536 3.552 1.536 6.576zm26.664-7.968v-4.272h-20.064v4.272h7.728V87.4h4.896V67.336h7.44zM364.864 87.4V63.064h-4.896l-10.416 16.512V63.064h-4.896V87.4h4.896l10.416-16.752V87.4h4.896zm26.184 0V63.064H371.56V87.4h4.896V67.336h9.696V87.4h4.896zM87.702 26.18V25.04h-8.198v1.143h3.46V37h1.278V26.18h3.46zM97.362 37v-1.142h-6.148V31.54h5.24v-1.142h-5.24V26.18h6.148V25.04h-7.425V37h7.425zm10.87 0V25.038h-8.215V37h1.277V26.18h5.66V37h1.278zm11.39 0V25.038h-6.585v4.856c0 4.972-1.06 5.964-2.537 5.964h-.32V37h.606c2.284 0 3.494-1.68 3.494-6.72v-4.1h4.066V37h1.276zm12.03 0V25.038h-1.21l-6.082 9.744v-9.744h-1.277V37h1.21l6.08-9.76V37h1.278zm13.103 2.89v-4.032h-1.428v-10.82h-1.277v10.82h-5.66v-10.82h-1.278V37h8.383v2.89h1.26zM155.507 37l-4.385-11.962h-1.075L145.647 37h1.36l.957-2.705h5.225l.956 2.705h1.36zm-2.688-3.814h-4.47l2.252-6.316 2.217 6.316zM169.837 37V25.038h-8.216V37h1.277V26.18h5.66V37h1.278zm11.625-8.45c0-2.1-1.478-3.512-3.696-3.512h-4.452V37h1.277v-4.922h3.175c2.218 0 3.696-1.412 3.696-3.528zm-1.277 0c0 1.495-.94 2.385-2.536 2.385h-3.058V26.18h3.058c1.596 0 2.536.874 2.536 2.37zm11.14 8.45v-1.142h-6.15V31.54h5.242v-1.142h-5.242V26.18h6.15V25.04h-7.427V37h7.425zm1.36-1.142v4.032h1.26V37h8.013v2.89h1.26v-4.032h-1.43v-10.82h-6.534v4.032c0 2.924-.42 5.074-1.512 6.788h-1.058zm2.486 0c.958-1.68 1.294-3.78 1.294-5.998v-3.68h4.048v9.678h-5.342zm17.758-10.82h-1.36l-2.908 7.073-3.225-7.072h-1.36l3.947 8.5-.487 1.127c-.353.823-.756 1.193-1.58 1.193h-.755V37h1.04c1.194 0 1.883-.773 2.353-1.865l4.335-10.097zM223.026 37V25.038h-8.215V37h1.278V26.18h5.662V37h1.276zm11.626-8.45c0-2.1-1.478-3.512-3.696-3.512h-4.452V37h1.277v-4.922h3.176c2.218 0 3.696-1.412 3.696-3.528zm-1.277 0c0 1.495-.94 2.385-2.537 2.385h-3.057V26.18h3.058c1.596 0 2.537.874 2.537 2.37zm11.14 8.45v-1.142h-6.15V31.54h5.24v-1.142h-5.24V26.18h6.15V25.04h-7.427V37h7.426zm2.586 0l5.26-6.233V37h1.276v-6.233L258.894 37h1.68l-5.476-6.283 5.023-5.68h-1.612l-4.872 5.697v-5.696h-1.277v5.696l-4.89-5.696h-1.612l5.04 5.68L245.42 37h1.68zm13.894-1.142v4.032h1.26V37h8.014v2.89h1.26v-4.032H270.1v-10.82h-6.535v4.032c0 2.924-.42 5.074-1.512 6.788h-1.06zm2.487 0c.958-1.68 1.294-3.78 1.294-5.998v-3.68h4.05v9.678h-5.343zM282.28 37l-4.385-11.962h-1.075L272.418 37h1.36l.96-2.705h5.224L280.92 37h1.36zm-2.688-3.814h-4.47l2.252-6.316 2.218 6.316zM291.638 37v-1.142h-6.15V31.54h5.242v-1.142h-5.24V26.18h6.148V25.04h-7.426V37h7.426zm9.626-10.82V25.04h-8.198v1.143h3.46V37h1.277V26.18h3.46zM32.684 61.044c-2.518-.712-4.364-3.027-4.364-5.774 0-.485.057-.956.166-1.407l-4.182-2.414c-1.077 1.028-2.537 1.66-4.144 1.66-1.667 0-3.175-.68-4.263-1.777l-4.104 2.37c.135.5.207 1.025.207 1.567 0 3.314-2.686 6-6 6s-6-2.686-6-6 2.686-6 6-6c1.556 0 2.974.593 4.04 1.564l4.254-2.456c-.088-.41-.134-.833-.134-1.268 0-3.314 2.686-6 6-6 1.6 0 3.05.625 4.127 1.644l8.353-4.822v-9.78c-.945-.276-1.794-.777-2.484-1.443l-4.177 2.61c.117.47.18.963.18 1.47 0 3.314-2.686 6-6 6s-6-2.686-6-6c0-.48.056-.944.162-1.39l-4.35-2.513c-.653.577-1.433 1.015-2.292 1.265v5.036c2.496.727 4.32 3.03 4.32 5.762 0 3.314-2.686 6-6 6s-6-2.686-6-6c0-2.73 1.824-5.035 4.32-5.762v-5.036C1.824 27.425 0 25.122 0 22.39c0-3.314 2.686-6 6-6 1.68 0 3.196.69 4.285 1.8l4-2.5c-.082-.393-.125-.802-.125-1.22 0-3.314 2.686-6 6-6s6 2.686 6 6-2.686 6-6 6c-1.682 0-3.202-.692-4.29-1.807l-3.996 2.496c.082.397.126.808.126 1.23 0 .574-.08 1.13-.23 1.655l4.216 2.435c1.08-1.046 2.552-1.69 4.174-1.69 1.592 0 3.04.62 4.114 1.633l4.21-2.63c-.107-.45-.164-.92-.164-1.403 0-2.817 1.942-5.18 4.56-5.826v-4.428c-2.618-.645-4.56-3.01-4.56-5.826 0-3.314 2.686-6 6-6s6 2.686 6 6c0 2.73-1.824 5.035-4.32 5.762v4.556c2.496.727 4.32 3.03 4.32 5.762 0 2.73-1.824 5.035-4.32 5.762v9.918l7.96 4.596c.766-.78 1.744-1.352 2.84-1.622v-4.428c-2.618-.645-4.56-3.01-4.56-5.826 0-3.314 2.686-6 6-6 1.59 0 3.037.62 4.11 1.63l4.167-2.604c-.077-.384-.117-.78-.117-1.186 0-.51.064-1.006.184-1.48l-4.304-2.484c-1.066.97-2.484 1.564-4.04 1.564-3.314 0-6-2.686-6-6s2.686-6 6-6 6 2.686 6 6c0 .542-.072 1.068-.207 1.568l4.26 2.46c1.073-1.01 2.518-1.628 4.107-1.628 3.314 0 6 2.686 6 6 0 2.73-1.824 5.035-4.32 5.762v4.556c2.496.727 4.32 3.03 4.32 5.762 0 3.314-2.686 6-6 6s-6-2.686-6-6c0-2.817 1.942-5.18 4.56-5.826v-4.428c-1.113-.274-2.104-.86-2.876-1.658l-4.027 2.517c.12.472.183.966.183 1.475 0 2.73-1.824 5.035-4.32 5.762v4.556c2.496.727 4.32 3.03 4.32 5.762 0 .563-.077 1.107-.222 1.623l4.232 2.444c1.078-1.033 2.54-1.667 4.15-1.667 3.314 0 6 2.686 6 6s-2.686 6-6 6-6-2.686-6-6c0-.49.06-.967.17-1.423l-4.333-2.502c-1.06.948-2.462 1.525-3.997 1.525-3.314 0-6-2.686-6-6 0-.426.044-.842.13-1.243L34.2 40.91l-8.218 4.745c.116.466.178.953.178 1.455 0 .493-.06.972-.172 1.43l4.17 2.408c1.08-1.04 2.546-1.678 4.162-1.678 3.314 0 6 2.686 6 6 0 2.786-1.9 5.13-4.474 5.804v7.86l6.837-3.952c-.133-.495-.203-1.015-.203-1.552 0-3.314 2.686-6 6-6s6 2.686 6 6-2.686 6-6 6c-1.635 0-3.118-.654-4.2-1.716l-8.434 4.873v14.347h31.02c.582 0 1.054.473 1.054 1.055 0 .584-.472 1.055-1.054 1.055H35.954c.546 4 4.342 4.536 10.262 5.02 5.77.473 12.31 1.01 14.067 7.507.114.424-.135.858-.555.973-.07.018-.14.027-.21.027-.347 0-.666-.23-.76-.585-1.326-4.896-6.092-5.752-11.055-6.205.134.15.26.304.38.464.946 1.282 2.43 1.878 4 2.51 1.97.79 4.003 1.61 4.924 3.857.166.405-.027.868-.432 1.034-.098.04-.2.058-.3.058-.31 0-.606-.184-.73-.492-.67-1.628-2.236-2.258-4.05-2.987-.687-.276-1.382-.56-2.047-.905.197.74.352 1.49.498 2.223.265 1.322.515 2.573.994 3.623.182.398.007.867-.39 1.05-.107.047-.218.07-.328.07-.3 0-.587-.172-.72-.46-.556-1.22-.836-2.62-1.107-3.972-.648-3.238-1.207-6.035-5.08-6.463-.01 0-.017-.002-.026-.004-2.747-.31-5.306-.856-6.985-2.328.787 1.84 1.957 3.184 3.107 4.497.474.544.952 1.093 1.4 1.673.01.007.018.015.026.023.472.613 1.022 1.132 1.605 1.685.78.735 1.596 1.514 2.262 2.558.015.02.03.036.044.057.877 1.4 3.465 4.257 5.107 5.183.38.213.516.696.302 1.078-.146.258-.415.403-.69.403-.133 0-.265-.033-.388-.1-.924-.522-2.03-1.49-3.044-2.53.095.974.095 2.08-.043 3.38-.043.408-.385.707-.785.707-.028 0-.055 0-.084-.003-.433-.046-.75-.437-.702-.87.385-3.63-.326-5.554-1.414-6.972.48 2.466.17 5.73-1.657 10.48-.12.314-.42.507-.738.507-.095 0-.192-.018-.284-.052-.407-.16-.61-.616-.453-1.024 3.54-9.198 1.132-11.95-1.655-15.138-1.104-1.264-2.283-2.62-3.15-4.43.25 3.1.65 5.643.998 7.848 1.05 6.636 1.68 10.644-3.522 17.963-.154.216-.398.33-.645.33-.16 0-.318-.045-.458-.145-.356-.255-.44-.748-.185-1.104 3.822-5.376 4.266-8.725 3.78-13.086-.322.556-.7 1.022-1.07 1.48-.988 1.223-1.922 2.38-1.725 5.623.027.437-.305.813-.74.84h-.05c-.415 0-.763-.324-.79-.743-.232-3.86.994-5.375 2.076-6.714 1.08-1.335 2.01-2.488 1.45-6.25-.245-1.638-.485-3.46-.664-5.533-.85 1.73-2.255 3.62-4.586 5.587-2.782 2.347-2.027 4.907-1.155 7.868.572 1.942 1.164 3.948.797 6.034-.067.385-.402.654-.778.654-.046 0-.092-.004-.138-.01-.43-.077-.717-.487-.642-.918.303-1.72-.234-3.546-.754-5.31-.236-.8-.478-1.627-.646-2.466-.07.31-.136.62-.203.934-.583 2.734-1.187 5.565-4.854 7.97-.133.088-.284.13-.432.13-.257 0-.51-.125-.662-.357-.24-.367-.137-.857.228-1.096 3.122-2.048 3.61-4.332 4.174-6.98.246-1.15.51-2.373 1.03-3.607-.23.14-.457.273-.67.398-2.317 1.372-3.594 2.125-4.107 5.04-.067.386-.4.656-.777.656-.046 0-.09-.003-.137-.013-.43-.074-.718-.484-.643-.915.64-3.633 2.41-4.68 4.86-6.13 1.293-.764 2.76-1.63 4.488-3.09h.002c2.73-2.306 4.06-4.443 4.708-6.325-.21.258-.433.508-.68.74-2.35 2.205-6.18 3.153-11.385 2.833-2.31.427-2.57 1.687-2.925 4.465-.32 2.526-.72 5.67-3.482 8.94-.156.186-.378.28-.604.28-.18 0-.36-.06-.51-.187-.333-.28-.375-.78-.093-1.113 2.457-2.914 2.824-5.8 3.12-8.118.205-1.61.407-3.164 1.32-4.287-.86.055-1.642.16-2.352.305-2.02.84-2.107 1.903-2.262 3.82-.104 1.284-.232 2.88-1.092 4.647-.135.28-.417.445-.71.445-.116 0-.234-.025-.346-.08-.393-.19-.556-.664-.364-1.058.728-1.5.838-2.87.936-4.08.068-.846.138-1.673.404-2.438-3.04 1.76-3.52 4.352-3.55 4.526-.063.386-.4.66-.778.66-.043 0-.087-.003-.132-.01-.43-.072-.72-.48-.65-.91.39-2.326 2.537-5.772 7.97-6.995l.02-.01c.095-.04.19-.057.286-.058 1.63-.333 3.544-.474 5.786-.33 4.74.312 8.305-.52 10.31-2.4 1.118-1.048 1.587-2.243 1.76-3.272H1.662c-.582 0-1.054-.47-1.054-1.056 0-.583.472-1.056 1.054-1.056h31.02V72.587L24.228 67.7c-.662.646-1.477 1.14-2.385 1.416-.604.204-1.25.314-1.922.314-3.314 0-6-2.686-6-6s2.686-6 6-6c2.337 0 4.36 1.336 5.352 3.285.457.833.72 1.786.72 2.8 0 .5-.068.98-.185 1.44l6.876 3.976v-7.886zm18.64 4.176c.327-.518.516-1.132.516-1.79 0-1.856-1.504-3.36-3.36-3.36-1.29 0-2.408.725-2.97 1.79l.092.054c-.273.47-.43 1.018-.43 1.602 0 .586.16 1.134.433 1.608.557.96 1.59 1.607 2.777 1.607 1.185 0 2.22-.646 2.776-1.606l.166.096zm-30.367 1.407c1.348-.437 2.323-1.703 2.323-3.197 0-1.856-1.504-3.36-3.36-3.36-1.856 0-3.36 1.504-3.36 3.36 0 .683.204 1.318.554 1.848l.26-.15c.555.958 1.588 1.603 2.772 1.603.28 0 .552-.035.81-.103zm16.217-9.582c.32-.515.506-1.123.506-1.775 0-1.856-1.504-3.36-3.36-3.36-1.856 0-3.36 1.504-3.36 3.36 0 .632.174 1.222.477 1.727l.05-.028c.555.958 1.59 1.607 2.777 1.607 1.19 0 2.223-.65 2.778-1.608l.132.075zM6 25.75c1.856 0 3.36-1.504 3.36-3.36 0-1.856-1.504-3.36-3.36-3.36-1.856 0-3.36 1.504-3.36 3.36 0 1.856 1.504 3.36 3.36 3.36zm0 16.56c1.856 0 3.36-1.504 3.36-3.36 0-1.856-1.504-3.36-3.36-3.36-1.856 0-3.36 1.504-3.36 3.36 0 1.856 1.504 3.36 3.36 3.36zm14.16-24.48c1.856 0 3.36-1.504 3.36-3.36 0-1.856-1.504-3.36-3.36-3.36-1.856 0-3.36 1.504-3.36 3.36 0 1.856 1.504 3.36 3.36 3.36zm14.16-8.16c1.856 0 3.36-1.504 3.36-3.36 0-1.856-1.504-3.36-3.36-3.36-1.856 0-3.36 1.504-3.36 3.36 0 1.856 1.504 3.36 3.36 3.36zm0 16.08c1.856 0 3.36-1.504 3.36-3.36 0-1.856-1.504-3.36-3.36-3.36-1.856 0-3.36 1.504-3.36 3.36 0 1.856 1.504 3.36 3.36 3.36zm-14.16 8.4c1.856 0 3.36-1.504 3.36-3.36 0-1.856-1.504-3.36-3.36-3.36-1.856 0-3.36 1.504-3.36 3.36 0 1.856 1.504 3.36 3.36 3.36zm28.08-16.56c1.856 0 3.36-1.504 3.36-3.36 0-1.856-1.504-3.36-3.36-3.36-1.856 0-3.36 1.504-3.36 3.36 0 1.856 1.504 3.36 3.36 3.36zm14.16 8.4c1.856 0 3.36-1.504 3.36-3.36 0-1.856-1.504-3.36-3.36-3.36-1.856 0-3.36 1.504-3.36 3.36 0 1.856 1.504 3.36 3.36 3.36zm0 16.08c1.856 0 3.36-1.504 3.36-3.36 0-1.856-1.504-3.36-3.36-3.36-1.856 0-3.36 1.504-3.36 3.36 0 1.856 1.504 3.36 3.36 3.36zm-14.16-7.92c1.856 0 3.36-1.504 3.36-3.36 0-1.856-1.504-3.36-3.36-3.36-1.856 0-3.36 1.504-3.36 3.36 0 1.856 1.504 3.36 3.36 3.36zm0 16.08c1.856 0 3.36-1.504 3.36-3.36 0-1.856-1.504-3.36-3.36-3.36-1.856 0-3.36 1.504-3.36 3.36 0 1.856 1.504 3.36 3.36 3.36zm14.16 8.4c1.856 0 3.36-1.504 3.36-3.36 0-1.856-1.504-3.36-3.36-3.36-1.856 0-3.36 1.504-3.36 3.36 0 1.856 1.504 3.36 3.36 3.36zm-42.24-8.16c1.856 0 3.36-1.504 3.36-3.36 0-1.856-1.504-3.36-3.36-3.36-1.856 0-3.36 1.504-3.36 3.36 0 1.856 1.504 3.36 3.36 3.36zM6 58.63c1.856 0 3.36-1.504 3.36-3.36 0-1.856-1.504-3.36-3.36-3.36-1.856 0-3.36 1.504-3.36 3.36 0 1.856 1.504 3.36 3.36 3.36z"/></g></symbol><symbol id="icon-twitter" viewBox="0 0 32 26">
    <!-- Generator: Sketch 3.3.3 (12072) - http://www.bohemiancoding.com/sketch -->
    <title>Shape</title>
    <desc>Created with Sketch.</desc>
    
    <g id="Page-1" stroke="none" stroke-width="1" sketch:type="MSPage">
        <path d="M31.52832,3.03296 C30.36928,3.54816 29.12192,3.89568 27.81312,4.0512 C29.14944,3.2512 30.17408,1.984 30.65728,0.47232 C29.40736,1.21408 28.02368,1.75232 26.54976,2.04288 C25.37024,0.78592 23.68896,0 21.82848,0 C18.25664,0 15.36064,2.896 15.36064,6.46848 C15.36064,6.97472 15.4176,7.46816 15.52832,7.9424 C10.15232,7.67232 5.3856,5.0976 2.1952,1.184 C1.6384,2.13888 1.31968,3.24992 1.31968,4.43648 C1.31968,6.68032 2.46144,8.66048 4.19712,9.82016 C3.13728,9.78624 2.13952,9.49504 1.2672,9.01056 C1.26656,9.03744 1.26656,9.06496 1.26656,9.09248 C1.26656,12.22592 3.49632,14.83968 6.45568,15.43488 C5.91296,15.58208 5.34144,15.66144 4.75136,15.66144 C4.33408,15.66144 3.92896,15.62112 3.53408,15.54496 C4.35776,18.11456 6.74624,19.98528 9.57632,20.03712 C7.36256,21.77216 4.57408,22.8064 1.54304,22.8064 C1.02144,22.8064 0.50624,22.77568 0,22.71552 C2.86336,24.55168 6.26304,25.62176 9.91552,25.62176 C21.81376,25.62176 28.31936,15.76576 28.31936,7.21792 C28.31936,6.9376 28.3136,6.65792 28.30144,6.38016 C29.5648,5.47008 30.66176,4.33024 31.52832,3.03296 L31.52832,3.03296 Z" id="Shape" sketch:type="MSShapeGroup"/>
    </g>
</symbol><symbol id="pic-search" viewBox="0 0 24 24"><path d="M15.5 14h-.79l-.28-.27C15.41 12.59 16 11.11 16 9.5 16 5.91 13.09 3 9.5 3S3 5.91 3 9.5 5.91 16 9.5 16c1.61 0 3.09-.59 4.23-1.57l.27.28v.79l5 4.99L20.49 19l-4.99-5zm-6 0C7.01 14 5 11.99 5 9.5S7.01 5 9.5 5 14 7.01 14 9.5 11.99 14 9.5 14z"/><path d="M0 0h24v24H0z" fill="none"/></symbol><symbol id="icon-viber" viewBox="0 0 31 31">
    <!-- Generator: Sketch 3.3.3 (12072) - http://www.bohemiancoding.com/sketch -->
    <title>g15</title>
    <desc>Created with Sketch.</desc>
    
    <g id="Page-1" stroke="none" stroke-width="1" sketch:type="MSPage">
        <g id="g15" sketch:type="MSLayerGroup">
            <path d="M28.0456345,22.4253904 C27.1026948,21.6662774 26.094961,20.9848723 25.1030607,20.2887566 C23.1247626,18.8993327 21.315356,18.7914173 19.8391281,21.0267583 C19.0101677,22.2817653 17.8497129,22.3366775 16.6363672,21.7860959 C13.2912164,20.2694419 10.7082107,17.9323619 9.1951501,14.5324112 C8.52587289,13.0282219 8.53463189,11.679561 10.1006956,10.6156797 C10.9297684,10.0530826 11.7651296,9.38728656 11.6983142,8.15788273 C11.6110611,6.55487399 7.71892223,1.19773669 6.18194285,0.632332204 C5.54590491,0.398309772 4.91256206,0.413469575 4.26551923,0.630984666 C0.661416566,1.8429828 -0.831318648,4.80700491 0.59830687,8.31655533 C4.86326462,18.7871501 12.3690513,26.0764323 22.7010742,30.5254413 C23.2900606,30.7787785 23.9445149,30.8800684 24.275897,30.9709149 C26.6281368,30.9946091 29.3837398,28.7282748 30.1795732,26.4791216 C30.9457609,24.3153125 29.3264694,23.4563693 28.0456345,22.4253904 L28.0456345,22.4253904 Z" id="path17-6" sketch:type="MSShapeGroup"/>
            <path d="M16.4608504,1.70575851 C24.01425,2.86733626 27.497748,6.4589742 28.4596656,14.0667245 C28.5488277,14.7694656 28.2870684,15.8268338 29.2896367,15.8463731 C30.3374598,15.8663615 30.085021,14.8246024 30.09378,14.1211875 C30.1823806,6.95610343 23.9348576,0.313751763 16.6792638,0.0688367326 C16.1318265,0.14755541 14.9991085,-0.308698496 14.9284751,0.918234849 C14.8814236,1.74551088 15.8350313,1.60952184 16.4608504,1.70575851 L16.4608504,1.70575851 Z" id="path19-1" sketch:type="MSShapeGroup"/>
            <path d="M17.9383135,3.79174733 C17.2117659,3.70426965 16.2526558,3.36188271 16.082866,4.37006572 C15.9056647,5.42810763 16.9745992,5.32064148 17.6615067,5.4743731 C22.3266833,6.51703063 23.951028,8.2150408 24.7191247,12.8425986 C24.8313072,13.5172659 24.608402,14.5673349 25.7549322,14.3932779 C26.6046672,14.2639143 26.2977654,13.3637589 26.3688481,12.8379945 C26.4064668,8.395274 22.5994474,4.35142478 17.9383135,3.79174733 L17.9383135,3.79174733 Z" id="path21-2" sketch:type="MSShapeGroup"/>
            <path d="M18.3667183,7.42470976 C17.8817169,7.43672531 17.4056991,7.489167 17.2274872,8.00740765 C16.9597763,8.78201741 17.5229349,8.96674241 18.0962,9.05882417 C20.0099286,9.36606283 21.0171009,10.4945136 21.2082267,12.402852 C21.2598824,12.9208681 21.5885693,13.3405139 22.0889551,13.2814468 C22.7822634,13.1987978 22.8449239,12.5816254 22.8237002,11.9955586 C22.8579501,9.8515134 20.4346276,7.37339102 18.3667183,7.42470976 L18.3667183,7.42470976 Z" id="path23" sketch:type="MSShapeGroup"/>
        </g>
    </g>
</symbol><symbol id="pic-te-st" viewBox="0 0 87 40"><title>&#x422;&#x435;&#x43F;&#x43B;&#x438;&#x446;&#x430; + Group Copy</title><g fill="none" fill-rule="evenodd"><path d="M37.18 6.56v-.68H32.3v.68h2.06V13h.76V6.56h2.06zm4.21 4.17v-.33c0-1.47-.77-2.38-2.02-2.38s-2.02.94-2.02 2.49c0 1.67.75 2.55 2.17 2.55.36 0 .68-.06.95-.17.3-.12.47-.24.83-.59l-.49-.43c-.27.26-.4.35-.62.44-.18.07-.4.12-.63.12-.67 0-1.11-.26-1.34-.81-.1-.24-.13-.44-.15-.89h3.32zm-.72-.54h-2.6c.02-.44.05-.6.15-.82.2-.46.63-.74 1.15-.74.58 0 1.04.34 1.21.91.06.18.07.27.09.65zM46.74 13V8.08h-3.81V13h.71V8.7h2.38V13h.72zm5.46 0V8.08h-3.15v2.11c0 2.05-.6 2.19-1.04 2.19h-.16V13h.33c.9 0 1.56-.54 1.56-2.6V8.7h1.74V13h.72zm5.77 0V8.08h-.72l-2.53 3.79V8.08h-.71V13h.71l2.53-3.81V13h.72zm6.36 1.47v-2.09h-.74v-4.3h-.72v4.3h-2.38v-4.3h-.71V13h3.85v1.47h.7zM69.07 13V9.66c0-1.09-.67-1.64-1.99-1.64-.47 0-.82.06-1.1.2-.24.12-.36.23-.62.53l.49.45c.18-.24.28-.33.45-.41.2-.1.44-.15.76-.15.9 0 1.29.33 1.29 1.08v.47h-1.48c-1.06 0-1.7.53-1.7 1.42 0 .94.61 1.45 1.75 1.45.38 0 .64-.03.87-.13.2-.08.32-.17.56-.4V13h.72zm-.72-1.74c0 .84-.37 1.18-1.29 1.18-.83 0-1.19-.25-1.19-.84 0-.58.37-.87 1.1-.87h1.38v.53zM36.43 23.33l-.49-.47c-.26.27-.38.37-.58.46-.16.07-.33.1-.54.1-.97 0-1.47-.64-1.47-1.88 0-1.24.51-1.88 1.48-1.88.21 0 .39.04.55.11.19.08.31.18.56.44l.49-.46c-.33-.34-.49-.46-.76-.58-.24-.1-.51-.15-.83-.15-1.38 0-2.21.95-2.21 2.52s.83 2.52 2.21 2.52c.32 0 .59-.05.83-.15.27-.12.43-.24.76-.58zm5.13-1.82c0-.92-.18-1.51-.6-1.93-.36-.36-.86-.56-1.41-.56-.56 0-1.05.2-1.41.56-.42.43-.6 1.01-.6 1.96s.18 1.53.6 1.96c.36.36.85.56 1.41.56.56 0 1.05-.2 1.41-.56.43-.44.6-1.01.6-1.99zm-.72.06c0 .78-.11 1.2-.39 1.49-.22.23-.55.36-.9.36s-.67-.13-.89-.36c-.29-.3-.4-.72-.4-1.52s.11-1.23.4-1.52c.22-.23.55-.36.89-.36.35 0 .68.13.9.36.29.29.39.71.39 1.55zm6.82 3.9v-2.09h-.74v-4.3h-.72v4.3h-2.38v-4.3h-.71V24h3.85v1.47h.7zm5.2-1.47v-4.92h-.72l-2.53 3.79v-3.79h-.71V24h.71l2.53-3.81V24h.72zm5.31 0v-3.34c0-1.09-.67-1.64-1.99-1.64-.47 0-.82.06-1.1.2-.24.12-.36.23-.62.53l.49.45c.18-.24.28-.33.45-.41.2-.1.44-.15.76-.15.9 0 1.29.33 1.29 1.08v.47h-1.48c-1.06 0-1.7.53-1.7 1.42 0 .94.61 1.45 1.75 1.45.38 0 .64-.03.87-.13.2-.08.32-.17.56-.4V24h.72zm-.72-1.74c0 .84-.37 1.18-1.29 1.18-.83 0-1.19-.25-1.19-.84 0-.58.37-.87 1.1-.87h1.38v.53zM63.58 24v-4.92h-3.15v2.11c0 2.05-.6 2.19-1.04 2.19h-.16V24h.33c.9 0 1.56-.54 1.56-2.6v-1.7h1.74V24h.72zm5.56-1.48c0-.9-.62-1.49-1.56-1.49H66.1v-1.95h-.71V24h2.19c.94 0 1.56-.59 1.56-1.48zm-.72 0c0 .55-.32.86-.92.86h-1.4v-1.72h1.4c.6 0 .92.31.92.86zM74.26 24v-4.92h-.72v2.07h-2.38v-2.07h-.71V24h.71v-2.23h2.38V24h.72zm7.07 0v-4.92h-.72V24h.72zm-1.51-1.48c0-.9-.62-1.49-1.56-1.49h-1.48v-1.95h-.71V24h2.19c.94 0 1.56-.59 1.56-1.48zm-.72 0c0 .55-.32.86-.92.86h-1.4v-1.72h1.4c.6 0 .92.31.92.86zM86.79 24l-1.67-2.51 1.6-2.41h-.87l-1.11 1.82-1.13-1.82h-.87l1.6 2.41L82.67 24h.87l1.2-1.91L85.92 24h.87zm-50.66 6.7v-.62h-4.02v.62h1.69V35h.72v-4.3h1.61zm4.67 2.03v-.33c0-1.47-.77-2.38-2.02-2.38s-2.02.94-2.02 2.49c0 1.67.75 2.55 2.17 2.55.36 0 .68-.06.95-.17.3-.12.47-.24.83-.59l-.49-.43c-.27.26-.4.35-.62.44-.18.07-.4.12-.63.12-.67 0-1.11-.26-1.34-.81-.1-.24-.13-.44-.15-.89h3.32zm-.72-.54h-2.6c.02-.44.05-.6.15-.82.2-.46.63-.74 1.15-.74.58 0 1.04.34 1.21.91.06.18.07.27.09.65zm5.7 2.81l-1.67-2.51 1.6-2.41h-.87l-1.11 1.82-1.13-1.82h-.87l1.6 2.41L41.66 35h.87l1.2-1.91L44.91 35h.87zm5.05 0v-4.92h-.72v2.07h-2.38v-2.07h-.71V35h.71v-2.23h2.38V35h.72zm5.56-2.49c0-.92-.18-1.51-.6-1.93-.36-.36-.86-.56-1.41-.56-.56 0-1.05.2-1.41.56-.42.43-.6 1.01-.6 1.96s.18 1.53.6 1.96c.36.36.85.56 1.41.56.56 0 1.05-.2 1.41-.56.43-.44.6-1.01.6-1.99zm-.72.06c0 .78-.11 1.2-.39 1.49-.22.23-.55.36-.9.36s-.67-.13-.89-.36c-.29-.3-.4-.72-.4-1.52s.11-1.23.4-1.52c.22-.23.55-.36.89-.36.35 0 .68.13.9.36.29.29.39.71.39 1.55zM61.49 35v-4.92h-3.15v2.11c0 2.05-.6 2.19-1.04 2.19h-.16V35h.33c.9 0 1.56-.54 1.56-2.6v-1.7h1.74V35h.72zm5.56-2.49c0-.92-.18-1.51-.6-1.93-.36-.36-.86-.56-1.41-.56-.56 0-1.05.2-1.41.56-.42.43-.6 1.01-.6 1.96s.18 1.53.6 1.96c.36.36.85.56 1.41.56.56 0 1.05-.2 1.41-.56.43-.44.6-1.01.6-1.99zm-.72.06c0 .78-.11 1.2-.39 1.49-.22.23-.55.36-.9.36s-.67-.13-.89-.36c-.29-.3-.4-.72-.4-1.52s.11-1.23.4-1.52c.22-.23.55-.36.89-.36.35 0 .68.13.9.36.29.29.39.71.39 1.55zm5.42-1.87v-.62h-3.12V35h.72v-4.3h2.4zm4.98 4.3v-4.92h-.72l-2.53 3.79v-3.79h-.71V35h.71l2.53-3.81V35h.72zm5.25-7.04h-.64c-.04.5-.33.75-.82.75-.49 0-.78-.25-.82-.75h-.64c.06.9.63 1.26 1.46 1.26s1.4-.36 1.46-1.26zM82.5 35v-4.92h-.72l-2.53 3.79v-3.79h-.71V35h.71l2.53-3.81V35h.72z" fill="#111"/><g><use fill="#F38D06" xlink:href="#a"/><use fill="#DEDE02" xlink:href="#b"/><use fill="#DB9906" xlink:href="#c"/><use fill="#E6201E" xlink:href="#d"/><use fill="#BE0C39" xlink:href="#e"/><path d="M.91 12.866c0-.195.053-.377.144-.534l-.76-.44c-.165.288-.262.62-.262.974 0 .355.097.688.264.976l.76-.44c-.092-.158-.145-.34-.145-.536" fill="#B70E0B"/><use fill="#A9CA0F" xlink:href="#f"/><path d="M21.874 12.864c0 .196-.053.378-.144.536l.76.44c.166-.288.263-.62.263-.976 0-.355-.097-.688-.264-.974l-.76.44c.09.156.144.34.144.534" fill="#00A8B0"/><use fill="#419F62" xlink:href="#g"/><use fill="#E6005B" xlink:href="#h"/><use xlink:href="#h"/><use fill="#168B8F" xlink:href="#i"/><use fill="#AF0E79" xlink:href="#j"/><use fill="#1269B6" xlink:href="#k"/><use fill="#702282" xlink:href="#l"/><use fill="#7F1F82" xlink:href="#m"/><use fill="#6EB62A" xlink:href="#n"/><use fill="#FFD102" xlink:href="#o"/><path d="M10.467 1.45c.186-.32.53-.535.925-.535.396 0 .74.216.926.536l.76-.44c-.34-.58-.966-.974-1.686-.974s-1.347.393-1.684.975l.76.44" fill="#DEDC00"/><use fill="#F7AB02" xlink:href="#p"/><path d="M.91 7.427c0-.195.054-.378.145-.535l-.76-.44c-.166.288-.263.62-.263.975s.097.688.263.975l.76-.44c-.09-.157-.144-.34-.144-.535" fill="#ED6607"/><use fill="#DCDD02" xlink:href="#q"/><path d="M21.874 7.425c0 .196-.053.377-.143.534l.76.438c.166-.286.263-.618.263-.973s-.098-.688-.264-.975l-.76.44c.09.157.144.34.144.535" fill="#76B82A"/><use fill="#B8CF09" xlink:href="#r"/><use fill="#0E70BC" xlink:href="#s"/><use fill="#B80D79" xlink:href="#t"/><path d="M21.874 18.305c0 .195-.053.377-.144.535l.76.44c.166-.288.263-.62.263-.975s-.097-.688-.264-.975l-.76.44c.09.157.144.34.144.535" fill="#0090D7"/><use fill="#C52987" xlink:href="#u"/><path d="M22.26 28.83H11.92v-4.782l2.82-1.63c.35.344.83.556 1.36.556.718 0 1.346-.392 1.683-.974l-.76-.44c-.185.32-.53.536-.924.536-.397 0-.742-.216-.927-.536-.092-.158-.145-.34-.145-.536 0-.194.053-.377.144-.534l-.76-.44c-.166.288-.262.62-.262.974 0 .167.023.327.062.48L11.92 22.83v-2.648c.493-.14.906-.468 1.158-.9l-.76-.44c-.184.32-.53.536-.925.536-.396 0-.74-.217-.926-.536l-.76.44c.252.432.666.76 1.16.9v2.647l-2.293-1.326c.04-.154.06-.314.06-.48 0-.354-.095-.685-.26-.972l-.76.44c.09.156.143.338.143.532 0 .196-.054.38-.146.537-.184.32-.528.536-.923.536s-.74-.215-.925-.535l-.76.44c.338.582.966.974 1.685.974.53 0 1.01-.212 1.36-.556l2.82 1.63v4.782H.524c-.194 0-.35.158-.35.352 0 .195.156.352.35.352h10.32c-.056.343-.212.74-.585 1.09-.668.627-1.856.904-3.437.8-.747-.048-1.385 0-1.93.11-.03 0-.062.007-.093.02-.003 0-.005.002-.008.003-1.81.408-2.526 1.556-2.656 2.332-.024.143.073.278.217.302.014.002.03.004.044.004.126 0 .238-.092.26-.22.01-.06.17-.923 1.182-1.51-.09.256-.113.53-.135.813-.033.403-.07.86-.313 1.36-.063.13-.01.29.122.352.037.018.077.027.115.027.097 0 .19-.056.236-.15.287-.59.33-1.12.364-1.548.05-.64.08-.994.754-1.274.237-.048.497-.083.784-.102-.305.375-.372.892-.44 1.43-.1.772-.22 1.734-1.04 2.705-.094.112-.08.28.03.373.05.04.11.062.17.062.076 0 .15-.032.202-.094.92-1.09 1.054-2.137 1.16-2.98.118-.925.205-1.345.976-1.487 1.735.107 3.01-.21 3.795-.944.083-.08.157-.162.227-.248-.216.627-.66 1.34-1.57 2.108-.576.487-1.065.776-1.496 1.03-.816.484-1.406.833-1.62 2.044-.024.143.072.28.215.305.016.002.03.004.046.004.127 0 .238-.09.26-.22.17-.97.597-1.222 1.37-1.68.07-.04.146-.086.222-.132-.173.412-.26.82-.343 1.203-.19.882-.352 1.643-1.392 2.326-.122.08-.156.244-.076.366.05.078.135.12.22.12.05 0 .1-.015.145-.044 1.222-.802 1.423-1.745 1.618-2.657.022-.105.044-.208.068-.31.056.28.136.555.215.82.173.59.352 1.198.25 1.77-.024.145.072.28.215.307.016.002.03.003.046.003.125 0 .236-.09.258-.217.123-.696-.074-1.365-.265-2.012-.29-.987-.542-1.84.385-2.623.777-.656 1.245-1.285 1.53-1.862.058.692.138 1.3.22 1.846.187 1.253-.124 1.638-.483 2.083-.36.445-.77.95-.692 2.237.01.14.125.248.263.248h.016c.146-.01.256-.135.248-.28-.066-1.082.245-1.467.575-1.875.123-.153.25-.308.356-.493.163 1.453.015 2.57-1.26 4.362-.083.118-.056.282.063.367.046.033.1.048.153.048.082 0 .163-.038.214-.11 1.734-2.44 1.524-3.776 1.175-5.988-.116-.734-.25-1.582-.333-2.615.29.603.682 1.055 1.05 1.476.93 1.063 1.73 1.98.552 5.046-.053.136.015.288.15.34.032.013.064.02.095.02.105 0 .205-.066.246-.17.61-1.584.712-2.672.552-3.494.362.473.6 1.114.47 2.324-.014.145.09.275.235.29l.028.002c.134 0 .248-.1.263-.236.046-.434.046-.802.014-1.127.338.347.707.67 1.015.843.04.023.085.034.13.034.09 0 .18-.05.23-.134.07-.128.025-.29-.102-.36-.547-.308-1.41-1.26-1.703-1.727-.004-.008-.01-.014-.014-.02-.222-.348-.494-.608-.754-.853-.195-.184-.38-.357-.536-.56l-.008-.01c-.15-.192-.31-.375-.468-.557-.383-.437-.773-.885-1.035-1.5.56.492 1.413.674 2.328.777l.01.002c1.29.142 1.477 1.074 1.693 2.153.09.45.183.918.37 1.324.043.097.14.154.24.154.036 0 .073-.007.108-.023.134-.06.192-.217.13-.35-.158-.35-.242-.767-.33-1.207-.05-.245-.1-.495-.166-.74.22.114.453.21.682.3.605.244 1.127.454 1.35.996.042.103.14.164.244.164.033 0 .067-.006.1-.02.134-.054.2-.21.144-.344-.308-.75-.986-1.022-1.642-1.285-.523-.21-1.018-.41-1.334-.836-.04-.053-.08-.105-.126-.155 1.654.15 3.243.436 3.685 2.068.032.118.138.195.254.195.024 0 .047-.003.07-.01.14-.038.224-.182.185-.324-.586-2.166-2.765-2.345-4.688-2.503-1.974-.16-3.24-.34-3.42-1.673H22.26c.194 0 .35-.157.35-.352 0-.194-.156-.352-.35-.352" fill="#213A8F"/></g></g></symbol><symbol id="icon-vk" viewBox="0 0 32 21">
    <!-- Generator: Sketch 3.3.3 (12072) - http://www.bohemiancoding.com/sketch -->
    <title>vkontakte</title>
    <desc>Created with Sketch.</desc>
    
    <g id="Page-1" stroke="none" stroke-width="1" sketch:type="MSPage">
        <path d="M0.0054438677,1.52695383 C-0.213527289,0.190760493 6.24612006,1.01805207 6.24612006,1.01805207 C6.24612006,1.01805207 9.99600007,10.4350338 11.4740549,10.4350337 C12.9521098,10.4350335 12.2404538,2.44968778 12.2404538,2.44968778 C12.2404538,2.44968778 10.4065708,1.97247588 10.4065709,1.24075096 C10.4065709,0.509026033 12.2404538,0 12.2404538,0 C12.2404538,0 16.986418,6.3958816e-08 17.632617,0 C18.2788159,-6.48236808e-08 18.535979,1.04986625 18.5359797,1.74977699 C18.5359803,2.44968773 18.5359797,10.3077772 18.5359797,10.3077772 L20.0140346,10.3077772 C20.0140346,10.3077772 21.3297427,8.19306598 22.3678669,6.04468412 C23.4059912,3.89630234 24.6670634,1.01805207 24.6670634,1.01805207 L30.935111,1.01805207 C30.935111,1.01805207 32.0847093,1.04961765 31.9478523,2.00416573 C31.7616698,3.30274945 27.5915791,9.46950121 26.7199174,11.580218 C26.0630041,13.1709243 29.4795482,15.3239543 30.935111,17.6249021 C31.8797907,19.118248 31.9478523,20.8700673 31.9478523,20.8700673 L24.502942,20.8700673 L20.7803265,16.5432218 C20.7803265,16.5432218 20.0140346,16.2252048 19.4117571,16.6704783 C18.8094797,17.1157518 18.7822152,18.0066716 18.7822152,18.0066716 L18.7822152,20.8700673 L12.9521098,20.8700673 C12.9521098,20.8700673 8.49057378,19.3429892 4.7133224,12.6620226 C0.936070612,5.98105597 0.224414962,2.86314716 0.0054438677,1.52695383 L0.0054438677,1.52695383 Z" id="vkontakte" sketch:type="MSShapeGroup"/>
    </g>
</symbol><symbol id="icon-whatsup" viewBox="0 0 32 32">
    <!-- Generator: Sketch 3.3.3 (12072) - http://www.bohemiancoding.com/sketch -->
    <title>whatsup</title>
    <desc>Created with Sketch.</desc>
    
    <g id="Page-1" stroke="none" stroke-width="1" sketch:type="MSPage">
        <path d="M16.1717356,0.0001125236 C7.57912571,0.0001125236 0.613633177,6.96532685 0.613633177,15.5579368 C0.613633177,18.4970125 1.42934767,21.2458244 2.84603445,23.5908819 L0.0382519515,31.9377344 L8.65186327,29.1797431 C10.8806484,30.4124247 13.4439252,31.1149267 16.1717356,31.1149267 C24.7637893,31.1149267 31.7292818,24.1499905 31.7292818,15.5580759 C31.7294209,6.96532685 24.7639284,0.0001125236 16.1717356,0.0001125236 L16.1717356,0.0001125236 L16.1717356,0.0001125236 Z M16.1717356,28.6371852 C13.5147178,28.6371852 11.0408706,27.8402468 8.97536742,26.4740466 L3.94881369,28.0837789 L5.582468,23.2262095 C4.01668559,21.0698859 3.09151374,18.4202394 3.09151374,15.5575196 C3.09151374,8.34515699 8.95923393,2.47757585 16.1717356,2.47757585 C23.3838202,2.47757585 29.2516794,8.34515699 29.2516794,15.5575196 C29.2516794,22.7696041 23.3839592,28.6371852 16.1717356,28.6371852 L16.1717356,28.6371852 Z M12.5227867,9.122624 C12.2707706,8.51525396 12.0777251,8.49466985 11.6884353,8.47617198 C11.5549167,8.46977422 11.4101326,8.46365461 11.2517185,8.46365461 C10.7501897,8.46365461 10.230163,8.61135944 9.91681185,8.93194292 C9.5354497,9.32206721 8.58190515,10.2358344 8.58190515,12.1120473 C8.58190515,13.9885383 9.94852248,15.8017472 10.1389254,16.0562668 C10.3298846,16.3105082 12.8042882,20.2174538 16.6540712,21.8125825 C19.6589325,23.0572252 20.551142,22.946377 21.236676,22.7964469 C22.2341703,22.5786448 23.4867406,21.844015 23.8045424,20.9538917 C24.1223442,20.0632122 24.1223442,19.2997924 24.0270732,19.1412392 C23.9316632,18.9819906 23.6774217,18.8869978 23.2960596,18.6957603 C22.9146974,18.5050793 21.0394581,17.58255 20.6899456,17.4555683 C20.3402941,17.3284476 20.017068,17.3672514 19.748223,17.7390169 C19.3771529,18.2526459 19.0202691,18.7804612 18.7247204,19.0933951 C18.492732,19.3390135 18.1194366,19.3732276 17.7984359,19.2367884 C17.3763227,19.0569557 16.1881473,18.6429093 14.7312659,17.3441639 C13.5977496,16.3335958 12.8322436,15.085198 12.6097128,14.7032795 C12.387182,14.3219173 12.5901023,14.0942404 12.7615901,13.8867305 C12.957139,13.6498742 13.1375281,13.4797772 13.3282092,13.2573855 C13.5188902,13.0345765 13.6254269,12.9159398 13.7525476,12.661142 C13.8796683,12.4069006 13.794133,12.1444533 13.6987229,11.9534941 C13.6031738,11.7625348 12.8396149,9.88660011 12.5227867,9.122624 L12.5227867,9.122624 Z" id="whatsup" sketch:type="MSShapeGroup"/>
    </g>
</symbol></svg>