<svg xmlns="http://www.w3.org/2000/svg" xmlns:xlink="http://www.w3.org/1999/xlink" xmlns:sketch="http://www.bohemiancoding.com/sketch/ns"><defs><path id="a" d="M3.05 7.427c0 .195-.052.378-.143.536L5.76 9.61c.186-.32.53-.534.927-.534.396 0 .74.215.926.535l2.854-1.65c-.092-.157-.145-.34-.145-.535s.053-.377.145-.534l-.76-.438c-.167.286-.263.618-.263.973 0 .167.023.328.062.482l-1.46.844c-.35-.342-.83-.554-1.36-.554-.528 0-1.007.212-1.358.555l-1.46-.844c.038-.153.062-.314.062-.48 0-.167-.024-.327-.063-.483l1.46-.843c.35.344.83.556 1.36.556.72 0 1.348-.394 1.685-.976l-.76-.44c-.185.32-.53.537-.925.537-.396 0-.74-.216-.926-.536L2.908 6.893c.09.157.144.34.144.535"/><path d="M9.707 2.96l.76-.44c.184.322.53.538.925.538.397 0 .743-.216.928-.537l.76.44c-.253.434-.667.763-1.16.903V5.55c.492.138.906.467 1.158.9l-.76.44c-.185-.32-.53-.536-.926-.536-.395 0-.74.216-.925.537l-.76-.438c.252-.435.665-.764 1.158-.902V3.863c-.493-.14-.907-.47-1.158-.903zm4.706.77c-.167.288-.263.62-.263.976 0 .354.096.687.262.973l.76-.44c-.09-.157-.144-.34-.144-.534 0-.196.053-.378.145-.536l-.76-.44zm-6.656.976c0 .195-.053.378-.144.535l.76.44c.165-.287.262-.62.262-.974 0-.355-.097-.687-.263-.975l-.76.44c.092.16.145.34.145.536z" id="b"/><path d="M14.15 10.143c0-.354.096-.686.262-.973l.76.44c-.09.157-.144.338-.144.533 0 .196.053.38.145.537l-.76.44c-.166-.288-.263-.62-.263-.977zm-2.758-1.646c-.395 0-.74-.216-.925-.536L7.613 9.61c.09.16.144.34.144.536 0 .195-.053.378-.144.535l.76.44c.166-.286.262-.618.262-.974 0-.166-.022-.326-.062-.48l1.46-.845c.23.225.515.392.832.48v3.26l.527.306.528-.306V9.3c.493-.137.906-.466 1.158-.9l-.76-.44c-.185.32-.53.537-.926.537z" id="c"/><path id="d" d="M.295 11.893l.76.44c.184-.322.53-.54.926-.54.397 0 .743.218.928.54l.76-.44c-.253-.435-.667-.764-1.16-.904V9.302c.318-.09.604-.257.834-.482l1.46.845c-.04.154-.064.315-.064.48 0 .357.097.69.264.976l.76-.44c-.092-.156-.145-.338-.145-.534 0-.194.053-.377.144-.535L2.908 7.964c-.185.32-.53.535-.926.535-.395 0-.74-.216-.925-.535l-.76.438c.252.435.666.764 1.16.903v1.686c-.495.14-.91.47-1.16.903"/><path d="M3.93 12.866c0 .355-.097.688-.264.975l-.76-.438c.092-.158.145-.34.145-.536 0-.195-.052-.377-.142-.534l.76-.44c.165.288.262.62.262.974zm2.757 1.648c.396 0 .74.216.926.537l3.78-2.184-.528-.306-2.82 1.63c-.35-.343-.83-.555-1.358-.555-.72 0-1.35.394-1.687.977l.76.44c.185-.32.53-.538.927-.538zm0-2.417c.72 0 1.348-.394 1.685-.977l-.76-.44c-.184.322-.53.537-.925.537-.396 0-.74-.215-.926-.536l-.758.44c.337.583.965.977 1.685.977z" id="e"/><path id="f" d="M21.332 10.99V9.3c.493-.138.906-.467 1.158-.902l-.76-.44c-.184.322-.53.54-.926.54s-.74-.218-.926-.54l-2.853 1.65c.09.158.143.34.143.535 0 .196-.053.38-.144.537l.76.44c.166-.29.263-.62.263-.977 0-.166-.023-.327-.062-.48l1.46-.844c.228.224.514.392.832.48v1.69c-.493.137-.906.466-1.158.9l.758.44c.185-.32.53-.537.926-.537s.74.216.926.536l.76-.44c-.252-.434-.666-.763-1.158-.9"/><path d="M19.878 13.4l-.76.44c-.166-.288-.263-.62-.263-.976 0-.355.097-.687.264-.974l.758.44c-.09.157-.144.34-.144.534 0 .196.053.378.144.536zm-5.14.788L11.92 12.56l-.528.306 3.78 2.184c.184-.32.53-.538.926-.538.397 0 .742.217.927.538l.76-.44c-.253-.434-.666-.763-1.16-.903V12.02c.493-.14.906-.468 1.158-.9l-.76-.44c-.185.32-.53.534-.925.534s-.74-.215-.925-.534l-.76.44c.253.432.666.76 1.158.9v1.687c-.316.09-.6.257-.83.48z" id="g"/><path d="M5.76 16.122l-2.852 1.65c-.184-.322-.53-.54-.927-.54-.396 0-.742.218-.927.54l-.76-.44c.338-.583.967-.978 1.688-.978.53 0 1.01.213 1.36.556l1.46-.844c-.04-.154-.062-.315-.062-.48 0-.355.097-.687.262-.974l.76.44c-.09.156-.143.338-.143.534 0 .195.053.378.144.536zm-3.78-1.306c.72 0 1.348-.393 1.686-.975l-.76-.438c-.185.32-.53.535-.925.535-.394 0-.74-.215-.924-.535l-.76.44c.338.58.966.974 1.685.974z" id="h"/><path d="M22.49 17.33l-.76.44c-.185-.32-.53-.537-.926-.537s-.74.216-.926.537l-2.854-1.65c.09-.158.144-.34.144-.536 0-.195-.052-.377-.143-.534l.76-.44c.165.287.262.62.262.974 0 .165-.023.326-.062.48l1.46.845c.353-.343.83-.556 1.36-.556.72 0 1.347.394 1.685.976zm-1.686-2.516c.72 0 1.348-.393 1.686-.975l-.76-.44c-.185.32-.53.535-.926.535s-.74-.216-.926-.535l-.76.44c.338.58.967.974 1.686.974z" id="i"/><path id="j" d="M11.393 16.356c-.528 0-1.007.212-1.36.554l-1.46-.844c.04-.154.062-.315.062-.48 0-.167-.022-.328-.062-.482l2.82-1.63 2.82 1.628c-.04.154-.063.315-.063.482 0 .356.097.688.264.975l.76-.44c-.093-.158-.146-.34-.146-.536 0-.195.053-.377.144-.534l-3.78-2.184-3.78 2.185c.092.158.145.34.145.536 0 .195-.053.378-.145.536l2.855 1.65c.185-.32.53-.537.926-.537s.74.215.925.536l.76-.44c-.338-.58-.966-.974-1.685-.974"/><path d="M17.784 20.05l-.76.44c-.184-.32-.53-.537-.925-.537-.398 0-.744.217-.928.537l-.76-.44c.337-.582.966-.976 1.687-.976.72 0 1.347.393 1.684.977zm1.95-1.745c0-.196.053-.378.144-.535l-2.854-1.65c-.186.32-.53.535-.926.535-.395 0-.74-.216-.925-.535l-.76.44c.338.58.966.974 1.685.974.53 0 1.01-.212 1.36-.556l1.46.844c-.04.155-.063.316-.063.483 0 .355.097.687.264.974l.758-.44c-.09-.158-.144-.34-.144-.535zm-7.27 0c0 .197-.054.38-.146.537l.76.44c.167-.288.263-.62.263-.976 0-.355-.095-.687-.262-.975l-.76.44c.092.158.145.34.145.536z" id="k"/><path id="l" d="M6.687 19.074c-.72 0-1.35.394-1.687.978l.76.44c.184-.322.53-.54.927-.54s.742.218.927.54l.76-.44c-.338-.584-.967-.978-1.687-.978"/><path id="m" d="M3.665 19.28c.167-.287.265-.62.265-.975 0-.167-.024-.327-.063-.48l1.46-.845c.352.344.83.556 1.36.556.53 0 1.008-.212 1.36-.556l1.46.844c-.04.155-.063.315-.063.482 0 .356.097.688.263.975l.76-.438c-.09-.158-.145-.34-.145-.536 0-.195.054-.377.145-.535l-2.855-1.648c-.185.32-.53.534-.925.534-.396 0-.74-.215-.926-.534l-2.852 1.65c.09.157.143.34.143.533 0 .195-.053.38-.144.537l.76.44"/><path d="M14.412 5.68l.76-.44c.185.32.53.537.927.537.395 0 .74-.216.925-.537l2.854 1.65c-.093.157-.146.34-.146.535 0 .196.053.377.144.534l-2.853 1.65c-.185-.322-.53-.538-.927-.538-.396 0-.742.216-.927.537l-.758-.44c.337-.583.966-.977 1.686-.977.53 0 1.01.212 1.36.555l1.46-.843c-.04-.154-.063-.314-.063-.48 0-.166.024-.328.063-.482l-1.46-.843c-.35.344-.83.556-1.36.556-.72 0-1.348-.394-1.686-.977zm-1.95 1.745c0 .196-.052.378-.144.536l.76.44c.167-.287.263-.62.263-.975s-.095-.687-.262-.974l-.76.44c.092.158.144.34.144.535z" id="n"/><path d="M5 3.732c.338-.583.967-.977 1.687-.977.72 0 1.348.394 1.685.976l-.76.44c-.185-.32-.53-.535-.925-.535-.396 0-.74.216-.926.536L5 3.733zm4.708-2.72c-.167.287-.265.62-.265.975 0 .354.097.686.264.973l.76-.44c-.092-.157-.145-.338-.145-.533 0-.196.054-.38.145-.536l-.76-.44z" id="o"/><path id="p" d="M1.055 6.892c.185-.32.53-.536.926-.536.397 0 .742.216.927.536l2.854-1.65c-.09-.158-.143-.34-.143-.536 0-.195.053-.377.144-.535L5 3.733c-.165.287-.262.62-.262.974 0 .166.023.325.062.48l-1.462.844c-.35-.342-.83-.554-1.357-.554-.72 0-1.347.394-1.685.977l.76.44"/><path id="q" d="M20.804 5.475c-.528 0-1.007.21-1.358.555l-1.46-.844c.038-.155.06-.314.06-.48 0-.356-.096-.688-.263-.975l-.76.44c.092.157.145.34.145.536 0 .195-.052.377-.143.534l2.854 1.65c.184-.32.53-.536.924-.536.396 0 .74.215.925.535l.76-.44c-.34-.582-.967-.975-1.686-.975"/><path d="M17.783 3.73l-.76.44c-.185-.32-.53-.535-.924-.535-.397 0-.742.215-.927.535l-.76-.44c.338-.58.966-.975 1.686-.975.718 0 1.345.394 1.683.976zm-5.32-1.743c0 .194-.053.376-.143.534l.76.44c.165-.287.26-.62.26-.973 0-.356-.096-.69-.263-.976l-.76.44c.092.158.145.34.145.537z" id="r"/><path d="M17.024 21.56c.09-.158.144-.34.144-.536 0-.194-.052-.377-.143-.534l.76-.44c.165.287.262.62.262.974 0 .356-.097.688-.264.976l-.76-.44zm5.466-2.28l-.76-.44c-.185.32-.53.536-.926.536s-.74-.216-.926-.536l-.76.44c.338.58.967.975 1.686.975.72 0 1.348-.394 1.686-.976z" id="s"/><path d="M.297 19.28l.76-.438c.185.32.53.534.924.534.396 0 .74-.215.926-.534l.76.44c-.34.58-.966.973-1.685.973-.718 0-1.345-.392-1.683-.974zm5.32 1.744c0-.194.052-.376.142-.533L5 20.053c-.166.287-.262.618-.262.972 0 .356.097.69.265.977l.76-.44c-.093-.157-.146-.34-.146-.536z" id="t"/><path id="u" d="M.91 18.305c0-.194.053-.376.143-.533l-.76-.44c-.165.287-.26.618-.26.973 0 .356.097.69.264.976l.76-.438c-.093-.158-.146-.34-.146-.537"/></defs><symbol id="icon-facebook" viewBox="0 0 15 32">
    <!-- Generator: Sketch 3.3.3 (12072) - http://www.bohemiancoding.com/sketch -->
    <title>Shape</title>
    <desc>Created with Sketch.</desc>
    
    <g id="Page-1" stroke="none" stroke-width="1" sketch:type="MSPage">
        <path d="M14.6599184,10.2158367 L9.66726531,10.2158367 L9.66726531,6.94138776 C9.66726531,5.71167347 10.4822857,5.42497959 11.0563265,5.42497959 L14.5795918,5.42497959 L14.5795918,0.0189387755 L9.72734694,0 C4.34089796,0 3.11510204,4.032 3.11510204,6.6122449 L3.11510204,10.2158367 L2.66453526e-15,10.2158367 L2.66453526e-15,15.786449 L3.11510204,15.786449 L3.11510204,31.5493878 L9.66726531,31.5493878 L9.66726531,15.786449 L14.0884898,15.786449 L14.6599184,10.2158367 L14.6599184,10.2158367 Z" id="Shape" sketch:type="MSShapeGroup"/>
    </g>
</symbol><symbol id="pic-favorite_border" viewBox="0 0 24 24"><path d="M0 0h24v24H0z" fill="none"/><path d="M16.5 3c-1.74 0-3.41.81-4.5 2.09C10.91 3.81 9.24 3 7.5 3 4.42 3 2 5.42 2 8.5c0 3.78 3.4 6.86 8.55 11.54L12 21.35l1.45-1.32C18.6 15.36 22 12.28 22 8.5 22 5.42 19.58 3 16.5 3zm-4.4 15.55l-.1.1-.1-.1C7.14 14.24 4 11.39 4 8.5 4 6.5 5.5 5 7.5 5c1.54 0 3.04.99 3.57 2.36h1.87C13.46 5.99 14.96 5 16.5 5c2 0 3.5 1.5 3.5 3.5 0 2.89-3.14 5.74-7.9 10.05z"/></symbol><symbol id="icon-instagram" viewBox="0 0 32 32">
    <!-- Generator: Sketch 3.3.3 (12072) - http://www.bohemiancoding.com/sketch -->
    <title>Shape</title>
    <desc>Created with Sketch.</desc>
    
    <g id="Page-1" stroke="none" stroke-width="1" sketch:type="MSPage">
        <path d="M25.5968,0 L6.13184,0 C2.75072,0 0,2.75008 0,6.1312 L0,12.608 L0,25.5968 C0,28.97792 2.75072,31.728 6.13184,31.728 L25.59744,31.728 C28.97856,31.728 31.72864,28.97792 31.72864,25.5968 L31.72864,12.60736 L31.72864,6.13056 C31.728,2.74944 28.97792,0 25.5968,0 L25.5968,0 Z M27.35552,3.65632 L28.05696,3.65376 L28.05696,4.352 L28.05696,9.03168 L22.69696,9.04896 L22.6784,3.67168 L27.35552,3.65632 L27.35552,3.65632 Z M11.33568,12.60736 C12.352,11.20128 14.00064,10.27904 15.86432,10.27904 C17.728,10.27904 19.37664,11.20128 20.39168,12.60736 C21.0528,13.52512 21.44896,14.64768 21.44896,15.86368 C21.44896,18.94272 18.94144,21.44768 15.86368,21.44768 C12.784,21.44768 10.27904,18.94272 10.27904,15.86368 C10.27968,14.64768 10.67456,13.52512 11.33568,12.60736 L11.33568,12.60736 Z M28.6368,25.59616 C28.6368,27.2736 27.27296,28.63616 25.5968,28.63616 L6.13184,28.63616 C4.45504,28.63616 3.0912,27.2736 3.0912,25.59616 L3.0912,12.60736 L7.8272,12.60736 C7.41824,13.61344 7.18848,14.71232 7.18848,15.86368 C7.18848,20.6464 11.07968,24.54016 15.86432,24.54016 C20.64832,24.54016 24.53952,20.6464 24.53952,15.86368 C24.53952,14.71232 24.30848,13.61344 23.89952,12.60736 L28.6368,12.60736 L28.6368,25.59616 L28.6368,25.59616 Z" id="Shape" sketch:type="MSShapeGroup"/>
    </g>
</symbol><symbol id="pic-logo-accent" viewBox="0 0 39 42"><title>Fill 6 + Fill 8 + Fill 11</title><g fill="none" fill-rule="evenodd"><path d="M24.015.228c-3.846 0-6.974 3.13-6.974 6.974 0 3.846 3.13 6.974 6.975 6.974 3.845 0 6.974-3.128 6.974-6.974 0-3.845-3.13-6.974-6.975-6.974" fill="#0089C5"/><path d="M30.28 36.19c.21.338.49.614.82.817-2.297 2.167-5.14 3.74-8.167 4.46-2.26.552-4.61.685-6.892.353C7.446 41.017.58 33.268.09 25.223c-.45-4.33.8-8.92 3.35-12.433C5.975 9.25 9.766 6.808 13.78 5.946c.89-.2 1.78-.323 2.664-.382-.03.14-.058.282-.08.425-1.944.154-3.875.637-5.69 1.49C2.58 11.248-.542 20.53 1.652 28.853.313 21.73 2.983 14.77 7.78 10.872c2.43-2.046 5.395-3.307 8.487-3.688v.02c0 .105.003.21.007.316-3.755.612-7.208 2.478-9.11 5.244 2.152-2.06 4.725-3.492 7.62-4.21-1.302.513-2.61 1.183-4.076 2.19-1.474.99-2.787 2.326-3.43 3.374-.585.886-1.102 1.852-1.538 2.868-1.084 2.02-1.7 4.324-1.7 6.775 0 7.92 6.42 14.34 14.34 14.34 4.045 0 7.7-1.677 10.307-4.374.48.704 1.008 1.517 1.593 2.464m1.872-23.557c.194.207.395.424.598.644l.185-.096c-.662-.797-1.375-1.55-2.134-2.245-.04.076-.084.15-.128.225.514.467 1.008.958 1.48 1.473m3.533 7.54c.417 1.072.354 3.047.26 3.58-.09-.543-.532-1.42-.753-1.543.073.523.11 1.25-.02 1.668-.044-.39-.174-.835-.358-.987.104 1.214.107 2.955-.26 3.976-.1-1.03-.258-2.255-.628-3.03-.058.303-.072.61-.155.9-.13-.4-.08-1.114-.32-1.32.01 1.716-.105 3.104-.593 3.93.105-.73.138-1.718-.05-2.243.002.47-.024.896-.134 1.094-.01-.025-.115-.178-.13-.194-.096.61-.23 1.204-.4 1.786.185.43.39.89.607 1.383.484 1.09 1.024 2.304 1.6 3.736 1.1-1.833 2.203-4.62 2.35-7.23.226-2.67-.23-4.115-1.015-5.506" fill="#93C0E4"/><path d="M37.678 15.103c.3-.267 1.234-1.218.65-2.23-.442-.763-1.42-1.026-2.185-.585-6.535 3.774-9.305 4.49-12.128 4.49-2.824 0-5.594-.716-12.13-4.49-.367-.212-.798-.268-1.21-.157-.415.112-.76.376-.972.743-.585 1.012.348 1.963.648 2.23l1.48 1.31c3.602 3.18 5.586 4.934 5.89 7.028.234 1.618-.55 3.38-1.733 6.046-.555 1.25-1.184 2.666-1.856 4.384-.312.798-.36 1.928.54 2.482.397.247.87.323 1.327.215.46-.108.848-.387 1.094-.785 3.64-5.88 5.24-6.995 6.925-6.995 1.683 0 3.284 1.116 6.923 6.995.247.398.635.677 1.093.785.46.108.933.032 1.33-.215.897-.554.85-1.684.54-2.482-.673-1.718-1.302-3.133-1.857-4.383-1.184-2.666-1.966-4.427-1.732-6.045.303-2.096 2.29-3.85 5.892-7.03l1.476-1.31z" fill="#0089C5"/></g></symbol><symbol id="icon-lj" viewBox="0 0 32 32">
    <!-- Generator: Sketch 3.4 (15575) - http://www.bohemiancoding.com/sketch -->
    <title>Shape</title>
    <desc>Created with Sketch.</desc>
    
    <g id="Page-1" stroke="none" stroke-width="1" sketch:type="MSPage">
        <path d="M3.29246899,11.0894299 L0,7.80017411 C1.50110494,4.31688207 4.28366705,1.52039108 7.75517311,0 L7.76267327,0 L11.050961,3.28400188 C12.8735016,2.4964843 14.8814036,2.05611732 16.9943079,2.05611732 C25.2616353,2.05611732 31.9646421,8.76019554 31.9646421,17.0275229 C31.9646421,25.2969932 25.2605639,32 16.9943079,32 C8.72483761,32 2.0229023,25.2991361 2.0229023,17.0275229 C2.0229023,14.9081899 2.4964843,12.9195741 3.29150204,11.0938191 L3.29235984,11.0925324 C3.2918243,11.0909274 3.29214661,11.0901786 3.29246899,11.0894299 Z M3.29246899,11.0894299 L3.29364495,11.0906047 L3.29235984,11.0925324 L15.4685596,23.2462332 C16.968593,19.7629411 19.7532981,16.9664501 23.2237327,15.4449876 L23.2258756,15.4449876 L11.0531039,3.29043059 L11.0477466,3.28935914 C7.57484389,4.81049481 4.79273113,7.60504017 3.29246899,11.0894299 Z M24.095895,19.596866 C22.0794214,20.4797429 20.4636711,22.1072792 19.5904373,24.1280386 L25.2755642,25.303422 L24.095895,19.596866 Z" id="Shape" sketch:type="MSShapeGroup"/>
    </g>
</symbol><symbol id="pic-logo-small" viewBox="0 0 39 42"><title>Fill 6 + Fill 8 + Fill 11</title><g fill="#FFF" fill-rule="evenodd"><path d="M24.015.228c-3.846 0-6.974 3.13-6.974 6.974 0 3.846 3.13 6.974 6.975 6.974 3.845 0 6.974-3.128 6.974-6.974 0-3.845-3.13-6.974-6.975-6.974"/><path d="M30.28 36.19c.21.338.49.614.82.817-2.297 2.167-5.14 3.74-8.167 4.46-2.26.552-4.61.685-6.892.353C7.446 41.017.58 33.268.09 25.223c-.45-4.33.8-8.92 3.35-12.433C5.975 9.25 9.766 6.808 13.78 5.946c.89-.2 1.78-.323 2.664-.382-.03.14-.058.282-.08.425-1.944.154-3.875.637-5.69 1.49C2.58 11.248-.542 20.53 1.652 28.853.313 21.73 2.983 14.77 7.78 10.872c2.43-2.046 5.395-3.307 8.487-3.688v.02c0 .105.003.21.007.316-3.755.612-7.208 2.478-9.11 5.244 2.152-2.06 4.725-3.492 7.62-4.21-1.302.513-2.61 1.183-4.076 2.19-1.474.99-2.787 2.326-3.43 3.374-.585.886-1.102 1.852-1.538 2.868-1.084 2.02-1.7 4.324-1.7 6.775 0 7.92 6.42 14.34 14.34 14.34 4.045 0 7.7-1.677 10.307-4.374.48.704 1.008 1.517 1.593 2.464m1.872-23.557c.194.207.395.424.598.644l.185-.096c-.662-.797-1.375-1.55-2.134-2.245-.04.076-.084.15-.128.225.514.467 1.008.958 1.48 1.473m3.533 7.54c.417 1.072.354 3.047.26 3.58-.09-.543-.532-1.42-.753-1.543.073.523.11 1.25-.02 1.668-.044-.39-.174-.835-.358-.987.104 1.214.107 2.955-.26 3.976-.1-1.03-.258-2.255-.628-3.03-.058.303-.072.61-.155.9-.13-.4-.08-1.114-.32-1.32.01 1.716-.105 3.104-.593 3.93.105-.73.138-1.718-.05-2.243.002.47-.024.896-.134 1.094-.01-.025-.115-.178-.13-.194-.096.61-.23 1.204-.4 1.786.185.43.39.89.607 1.383.484 1.09 1.024 2.304 1.6 3.736 1.1-1.833 2.203-4.62 2.35-7.23.226-2.67-.23-4.115-1.015-5.506"/><path d="M37.678 15.103c.3-.267 1.234-1.218.65-2.23-.442-.763-1.42-1.026-2.185-.585-6.535 3.774-9.305 4.49-12.128 4.49-2.824 0-5.594-.716-12.13-4.49-.367-.212-.798-.268-1.21-.157-.415.112-.76.376-.972.743-.585 1.012.348 1.963.648 2.23l1.48 1.31c3.602 3.18 5.586 4.934 5.89 7.028.234 1.618-.55 3.38-1.733 6.046-.555 1.25-1.184 2.666-1.856 4.384-.312.798-.36 1.928.54 2.482.397.247.87.323 1.327.215.46-.108.848-.387 1.094-.785 3.64-5.88 5.24-6.995 6.925-6.995 1.683 0 3.284 1.116 6.923 6.995.247.398.635.677 1.093.785.46.108.933.032 1.33-.215.897-.554.85-1.684.54-2.482-.673-1.718-1.302-3.133-1.857-4.383-1.184-2.666-1.966-4.427-1.732-6.045.303-2.096 2.29-3.85 5.892-7.03l1.476-1.31z"/></g></symbol><symbol id="icon-ok" viewBox="0 0 19 32">
    <!-- Generator: Sketch 3.3.3 (12072) - http://www.bohemiancoding.com/sketch -->
    <title>odnoklassniki</title>
    <desc>Created with Sketch.</desc>
    
    <g id="Page-1" stroke="none" stroke-width="1" sketch:type="MSPage">
        <path d="M9.25001007,4.83066372 C11.1322373,4.83066372 12.6628262,6.3614992 12.6628262,8.24367713 C12.6628262,10.1239317 11.1322373,11.6549151 9.25001007,11.6549151 C7.3697555,11.6549151 5.83724323,10.1239317 5.83724323,8.24367713 C5.83724323,6.3614992 7.3697555,4.83066372 9.25001007,4.83066372 L9.25001007,4.83066372 L9.25001007,4.83066372 Z M9.25001007,16.4836554 C13.7965519,16.4836554 17.4925036,12.7876544 17.4925036,8.24367713 C17.4925036,3.69752985 13.7965519,0 9.25001007,0 C4.7045039,0 1.00756587,3.69752985 1.00756587,8.24367713 C1.00756587,12.7876544 4.7045039,16.4836554 9.25001007,16.4836554 L9.25001007,16.4836554 L9.25001007,16.4836554 Z M12.5848049,23.2076924 C14.2627564,22.8252794 15.881033,22.1616051 17.3711316,21.2251026 C18.4991364,20.5142308 18.8391357,19.023343 18.1282639,17.8953876 C17.4183291,16.7649168 15.9282304,16.4248682 14.7983022,17.1357401 C11.4221295,19.2591331 7.0750302,19.2581961 3.70078086,17.1357401 C2.57090199,16.4248682 1.08075401,16.7649168 0.371805568,17.8953876 C-0.339066283,19.0240828 -3.98381299e-06,20.5142308 1.12795148,21.2251026 C2.61809946,22.1604214 4.23632668,22.8252794 5.9143275,23.2076924 L1.30613797,27.8156353 C0.364111936,28.7586477 0.364111936,30.2873132 1.30712433,31.2303255 C1.77909905,31.7013632 2.39656232,31.9373506 3.01397627,31.9373506 C3.63237659,31.9373506 4.2507769,31.7013632 4.72280094,31.2303255 L9.24907302,26.70213 L13.7791919,31.2303255 C14.7212673,32.1733873 16.2499327,32.1733873 17.1929451,31.2303255 C18.1369439,30.2873132 18.1369439,28.7579079 17.1929451,27.8156353 L12.5848049,23.2076924 L12.5848049,23.2076924 Z" id="odnoklassniki" sketch:type="MSShapeGroup"/>
    </g>
</symbol><symbol id="pic-logo" viewBox="0 0 280 86"><title>Fill 1 + Fill 4 + Fill 6 + Fill 8 + Fill 11</title><g fill="none" fill-rule="evenodd"><path d="M263.515 57.407l1.99 15.698c-.795 1.08-1.517 1.997-2.154 2.755-.643.767-1.222 1.375-1.73 1.84-.51.458-.945.794-1.302 1-.36.216-.698.364-1.018.452-.323.09-.707.134-1.15.134-.41 0-.716-.134-.922-.413-.21-.28-.323-.66-.338-1.13h-1.63l-.902 3.92c.338.122.736.22 1.21.3.477.08.908.114 1.28.114.73 0 1.416-.085 2.065-.257.653-.18 1.317-.472 2.012-.885.694-.41 1.45-1.017 2.276-1.812 1.058-1.044 2.375-2.597 3.94-4.65 2.04-2.67 3.894-5.246 5.57-7.713 1.665-2.476 3.078-4.76 4.23-6.842 1.16-2.082 2.1-4.092 2.837-6.03l-.564-1.052h-5.41l-.206 1.03c.673.043 1.145.177 1.422.415.28.244.423.688.423 1.345 0 2.792-2.36 7.42-7.085 13.873l-1.597-16.662h-5.385l-.227 1.03c.63.043 1.077.17 1.355.387.284.214.49.53.61.942.13.408.26 1.147.402 2.212zm-21.055-4.57h6.21l-.984 3.854c-.21.84-.375 1.604-.48 2.29-.114.68-.172 1.29-.172 1.817 0 .31.034.61.107.903.07.293.18.56.336.788.15.236.36.414.63.55.266.13.595.194.98.194.53 0 1.072-.165 1.626-.5.55-.337 1.128-.817 1.732-1.447.78-.793 1.407-1.645 1.89-2.54.468-.893.82-1.84 1.042-2.848l.694-3.06h3.585l-3.15 14.36c-.292 1.345-.435 2.33-.435 2.975 0 .615.186 1.03.567 1.244.374.222.963.365 1.76.43l-.23 1.03h-6.497l2.824-11.633-.228-.087c-.493.643-1.01 1.247-1.56 1.803-.56.557-1.113 1.038-1.69 1.438-.572.4-1.152.714-1.73.944-.58.23-1.152.344-1.71.344-.81 0-1.48-.122-2.018-.38-.542-.25-.966-.58-1.278-.994-.32-.408-.538-.882-.66-1.417-.128-.53-.192-1.08-.192-1.652 0-.392.04-.837.114-1.34.08-.507.164-.98.265-1.428.042-.238.092-.488.14-.746.06-.257.12-.51.16-.767.047-.25.094-.486.12-.702.02-.212.037-.39.037-.527 0-.3-.03-.55-.095-.76-.064-.206-.172-.384-.32-.535-.16-.144-.358-.264-.61-.35-.25-.094-.573-.16-.963-.2l.183-1.052zm-14.418 9.22c1.286-.012 2.416-.085 3.383-.214.972-.135 1.81-.314 2.5-.552.702-.227 1.28-.497 1.75-.82.458-.322.824-.68 1.095-1.058.27-.388.464-.795.564-1.22.106-.426.158-.87.158-1.328 0-.85-.195-1.526-.594-2.002-.4-.48-.987-.724-1.774-.724-.976 0-1.942.35-2.88 1.057-.944.702-1.77 1.655-2.495 2.848-.724 1.195-1.287 2.532-1.708 4.015zm11.15 6.648c-1.032 1.13-2.023 2.024-2.976 2.682-.95.66-1.902 1.125-2.854 1.403-.944.278-1.993.422-3.142.422-1.1 0-2.05-.18-2.852-.537-.794-.356-1.453-.843-1.977-1.465-.527-.623-.914-1.36-1.164-2.218-.25-.867-.378-1.796-.378-2.806 0-1.495.27-3.097.805-4.807.54-1.713 1.356-3.25 2.444-4.61 1.094-1.365 2.392-2.418 3.92-3.17 1.522-.743 3.148-1.122 4.863-1.122 1.69 0 2.956.343 3.807 1.03.847.686 1.268 1.752 1.268 3.205 0 2.376-1.116 4.157-3.34 5.345-2.235 1.187-5.54 1.782-9.934 1.782-.162.836-.248 1.745-.248 2.725 0 1.47.286 2.533.856 3.2.575.664 1.512.993 2.814.993 1.286 0 2.452-.28 3.498-.836 1.052-.558 2.15-1.417 3.29-2.575l1.303 1.358zm-30.874-3.127c-.143.745-.23 1.31-.268 1.704-.033.385-.048.773-.048 1.15 0 1.09.228 1.884.7 2.377.466.5 1.275.743 2.42.743.714 0 1.375-.137 1.968-.415.598-.28 1.17-.688 1.71-1.216.534-.53 1.02-1.175 1.46-1.932.43-.752.82-1.63 1.158-2.625.345-1.003.6-2.025.78-3.086.17-1.053.257-2.046.257-2.97 0-1.466-.202-2.553-.617-3.277-.413-.723-1.063-1.08-1.958-1.08-.708 0-1.415.242-2.104.722-.695.488-1.454 1.252-2.273 2.32-.826 1.058-1.47 2.11-1.935 3.14-.458 1.037-.823 2.225-1.088 3.564l-.162.878zm-2.52 11.012c-.143.664-.23 1.187-.265 1.545-.036.366-.05.666-.05.902 0 .423.07.752.21.987.138.237.354.423.647.545.296.126.78.22 1.447.293l-.168 1.028h-6.473l5.303-23.31c.266-1.173.393-2.18.393-3.02 0-.392-.058-.692-.174-.91-.122-.22-.32-.377-.607-.483-.287-.1-.77-.18-1.46-.224l.25-1.107 4.758-.188h1.195l-1.398 5.455.246.078c2.585-3.787 5.16-5.68 7.713-5.68 1.524 0 2.713.578 3.557 1.746.845 1.16 1.268 2.788 1.268 4.9 0 1.51-.21 3.026-.615 4.55-.414 1.525-.988 2.898-1.724 4.13-.73 1.23-1.545 2.24-2.447 3.025-.9.796-1.853 1.384-2.856 1.777-1.003.394-2.05.585-3.154.585-1.858 0-3.397-.406-4.63-1.216l-.965 4.594zm-16.83-19.648c0-1.437-.354-2.54-1.056-3.298-.7-.758-1.716-1.144-3.06-1.144-1.298 0-2.587.464-3.858 1.395-1.267.93-2.547 2.352-3.837 4.262l-.25-.077 1.38-5.432h-1.17l-4.78.188-.25 1.107c.688.045 1.173.124 1.46.224.286.106.484.263.608.484.113.218.177.518.177.91 0 .423-.064.946-.177 1.576-.124.63-.217 1.1-.286 1.423l-3.186 14.317h3.627l1.902-9.08c.254-1.252.613-2.34 1.06-3.257.46-.914 1.06-1.844 1.818-2.796.753-.952 1.468-1.653 2.147-2.11.68-.45 1.296-.682 1.854-.682.756 0 1.31.216 1.668.637.356.43.536 1.144.536 2.154 0 .442-.05.98-.155 1.602-.11.623-.312 1.583-.605 2.884l-2.405 10.647h3.62l1.915-9.16c.277-1.302.65-2.402 1.12-3.305.468-.9 1.074-1.81 1.812-2.733.744-.923 1.454-1.61 2.124-2.055.68-.45 1.296-.673 1.84-.673.75 0 1.303.216 1.654.637.35.43.52 1.144.52 2.154 0 .644-.07 1.36-.213 2.145-.15.788-.322 1.568-.513 2.34l-2.64 10.647h6.584l.186-1.03c-.673-.066-1.152-.165-1.448-.294-.293-.122-.506-.307-.65-.544-.136-.238-.21-.567-.21-.98 0-.588.116-1.39.36-2.39l1.763-7.463c.277-1.26.414-2.34.414-3.235 0-1.466-.345-2.568-1.04-3.32-.684-.744-1.693-1.122-3.024-1.122-1.287 0-2.534.412-3.734 1.237-1.198.823-2.408 2.097-3.62 3.815.012-.11.02-.216.02-.317v-.293zm-21.456.922c-.03-1.056-.115-1.83-.26-2.304-.152-.472-.387-.83-.716-1.064-.33-.243-.794-.358-1.394-.358-1.41 0-2.676.558-3.8 1.688-1.13 1.124-2.047 2.72-2.763 4.78-.707 2.06-1.067 4.043-1.067 5.938 0 .588.052 1.14.158 1.66.1.517.288.96.544 1.34.26.378.604.67 1.033.893.42.214.966.32 1.624.32 1.266 0 2.37-.242 3.3-.722.928-.48 1.906-1.236 2.946-2.275l1.274 1.282c-1.307 1.452-2.633 2.51-3.97 3.184-1.33.672-2.77 1.01-4.308 1.01-2.026 0-3.563-.602-4.608-1.805-1.05-1.2-1.575-2.948-1.575-5.244 0-1.495.28-3.132.837-4.922.557-1.788 1.375-3.364 2.454-4.716 1.073-1.358 2.335-2.37 3.773-3.04 1.436-.672 2.974-1.008 4.614-1.008 1.116 0 2.088.064 2.92.192.835.122 1.572.272 2.218.437l-1.03 4.734h-2.203zm-21.385-3.704c-.91 0-1.746.205-2.52.615-.764.415-1.458.964-2.08 1.66-.623.687-1.165 1.495-1.625 2.417-.466.923-.836 1.904-1.132 2.935h1.508c1.678 0 3.088-.123 4.225-.38 1.136-.25 2.055-.593 2.754-1.024.702-.436 1.203-.93 1.503-1.502.3-.564.452-1.158.452-1.787 0-.336-.053-.68-.152-1.03-.1-.344-.264-.658-.494-.94-.23-.284-.543-.514-.943-.693-.396-.184-.895-.27-1.496-.27zm1.238 12.95c0-1.28-.43-2.204-1.28-2.76-.854-.566-2.062-.848-3.63-.848h-4.064c-.056.274-.112.56-.17.867-.05.306-.1.607-.145.916-.042.306-.07.608-.09.893-.022.287-.037.542-.037.765 0 .88.094 1.616.265 2.212.172.59.43 1.064.752 1.422.328.357.738.615 1.23.766.486.156 1.045.23 1.676.23.66 0 1.315-.074 1.975-.23.65-.15 1.243-.4 1.768-.744.52-.344.945-.802 1.266-1.375.32-.57.485-1.273.485-2.118zm5.388-10.19c0 1.317-.516 2.413-1.547 3.29-1.023.89-2.417 1.562-4.177 2.04v.23c1.214.28 2.167.81 2.846 1.582.687.77 1.03 1.707 1.03 2.796 0 .882-.2 1.703-.607 2.478-.41.764-.997 1.436-1.76 2.01-.775.57-1.717 1.03-2.843 1.364-1.124.33-2.41.502-3.85.502-1.41 0-2.588-.18-3.54-.52-.954-.35-1.71-.838-2.282-1.46-.573-.622-.982-1.36-1.232-2.21-.243-.854-.366-1.79-.366-2.815 0-.63.052-1.266.15-1.917.095-.65.223-1.302.374-1.96.395-1.702.996-3.17 1.796-4.408.803-1.238 1.732-2.26 2.79-3.06 1.053-.803 2.197-1.398 3.428-1.784 1.225-.386 2.456-.578 3.688-.578 1.143 0 2.108.115 2.883.336.77.22 1.398.53 1.874.922.477.394.814.858 1.028 1.403.208.552.315 1.138.315 1.76zM127.6 60.114c.12-.574.206-1.074.25-1.49.04-.42.064-.87.064-1.367 0-1.086-.237-1.88-.693-2.374-.466-.493-1.23-.744-2.305-.744-.586 0-1.152.093-1.68.278-.53.193-1.067.51-1.61.945-.552.443-1.066 1.017-1.57 1.733-.493.716-.944 1.58-1.35 2.597-.4 1.023-.717 2.116-.938 3.284-.23 1.168-.335 2.296-.335 3.406 0 1.45.192 2.54.595 3.256.398.72 1.062 1.08 2.002 1.08.428 0 .88-.092 1.352-.292.463-.195.988-.552 1.558-1.08.573-.525 1.224-1.297 1.953-2.312.65-.937 1.174-1.87 1.56-2.784.387-.916.702-1.99.952-3.235l.194-.9zm1.837-6.247l1.93-1.388 1.34.336-3.205 14.238c-.194.837-.33 1.482-.4 1.94-.066.45-.1.822-.1 1.114 0 .575.157.99.477 1.255.322.258.938.42 1.845.486l-.185 1.03h-5.997l1.32-5.26-.275-.084c-1.337 1.954-2.61 3.392-3.814 4.3-1.203.9-2.475 1.36-3.813 1.36-1.536 0-2.725-.58-3.576-1.74-.843-1.158-1.267-2.79-1.267-4.887 0-1.337.158-2.683.466-4.035.308-1.347.765-2.627 1.387-3.834.622-1.21 1.368-2.277 2.232-3.198.868-.925 1.876-1.653 3.013-2.196 1.138-.552 2.376-.824 3.72-.824.866 0 1.69.108 2.476.307.78.2 1.59.565 2.427 1.08zm-30.98 7.628h8.008l1.882-8.658h3.63l-3.29 14.804c-.11.528-.203.986-.26 1.38-.064.393-.1.72-.1 1.01 0 .34.05.628.148.843.1.214.244.394.438.522.2.136.442.236.745.295.3.063.65.12 1.035.156l-.185 1.03h-6.496l2.052-9.516H98.06l-2.055 9.517h-3.628l3.226-14.13c.174-.74.294-1.36.366-1.86.078-.51.115-.933.115-1.284 0-.322-.037-.586-.116-.793-.073-.216-.2-.38-.385-.493-.18-.123-.42-.21-.71-.266-.294-.056-.652-.09-1.073-.107l.228-1.107 5.117-.188h1.238l-1.927 8.846zM156.826 42.965c-3.418 2.93-6.65 4.4-9.674 4.4-1.68 0-3.012-.394-4.006-1.174-.992-.786-1.488-1.815-1.488-3.103 0-1.523.624-2.77 1.867-3.748 1.243-.98 3.132-1.937 5.68-2.875 1.95-.693 3.454-1.43 4.49-2.21 1.044-.773 1.556-1.702 1.556-2.796 0-1.66-.97-2.49-2.927-2.49-1.88 0-4.043.986-6.473 2.975l-1.346-1.574c1.725-1.38 3.248-2.345 4.582-2.887 1.334-.55 2.813-.824 4.43-.824 1.638 0 2.934.37 3.897 1.102.966.735 1.443 1.71 1.443 2.925 0 1.51-.578 2.78-1.736 3.81-1.16 1.04-3.19 2.082-6.093 3.14-2.082.746-3.576 1.488-4.477 2.24-.9.743-1.352 1.638-1.352 2.688 0 1.675.908 2.517 2.724 2.517 1.01 0 2.21-.343 3.61-1.022 1.413-.672 2.742-1.582 3.995-2.71l1.3 1.615zm-20.842-8.696c.123-.57.21-1.074.25-1.488.043-.422.065-.872.065-1.367 0-1.086-.237-1.88-.696-2.373-.464-.495-1.228-.744-2.303-.744-.585 0-1.148.093-1.678.28-.53.192-1.066.508-1.61.943-.55.444-1.065 1.015-1.567 1.73-.493.718-.944 1.583-1.35 2.597-.4 1.023-.715 2.116-.937 3.282-.23 1.164-.336 2.294-.336 3.403 0 1.455.192 2.54.593 3.255.4.72 1.064 1.08 2.002 1.08.43 0 .88-.092 1.35-.294.467-.192.988-.55 1.56-1.078.57-.523 1.224-1.296 1.952-2.31.65-.938 1.174-1.868 1.56-2.782.384-.917.7-1.99.95-3.233l.194-.9zm1.838-6.245l1.93-1.387 1.338.337-3.203 14.233c-.195.834-.33 1.48-.4 1.937-.066.45-.104.823-.104 1.115 0 .572.16.987.482 1.25.32.26.935.423 1.843.49l-.185 1.028h-5.993l1.315-5.256-.27-.088c-1.336 1.952-2.61 3.392-3.812 4.3-1.202.9-2.475 1.36-3.812 1.36-1.536 0-2.724-.58-3.576-1.74-.843-1.16-1.264-2.788-1.264-4.882 0-1.34.158-2.684.465-4.035.308-1.345.764-2.626 1.388-3.834.62-1.21 1.364-2.273 2.23-3.196.866-.922 1.875-1.654 3.012-2.194 1.137-.554 2.374-.825 3.717-.825.866 0 1.687.108 2.476.307.78.203 1.587.566 2.424 1.08zM103.06 43.3V43c0-.093.01-.2.02-.307-2.15 3.11-4.546 4.67-7.185 4.67-2.347 0-3.518-1.41-3.518-4.234 0-.908.156-2.082.48-3.517l1.78-7.373c.236-.982.357-1.775.357-2.39 0-.6-.157-1.04-.465-1.303-.308-.264-.918-.443-1.837-.522l.186-1.028h6.578l-2.64 10.64c-.557 2.252-.837 3.948-.837 5.094 0 1.457.595 2.18 1.783 2.18 1.043 0 2.223-.756 3.538-2.28 1.31-1.525 2.226-3.526 2.74-6.016l2.06-9.617h3.62l-2.402 10.64c-.582 2.532-.867 4.227-.867 5.094 0 1.457.602 2.18 1.803 2.18 1.26 0 2.554-.873 3.877-2.614 1.328-1.747 2.21-3.722 2.638-5.91l1.974-9.39h3.628l-3.19 14.31c-.31 1.387-.46 2.382-.46 2.997 0 .556.136.95.422 1.188.28.23.887.375 1.817.43l-.25 1.108h-5.907l1.127-4.378-.247-.085c-2.19 3.198-4.565 4.8-7.103 4.8-1.087 0-1.945-.366-2.575-1.1-.628-.73-.945-1.727-.945-2.964zM48.97.465c-7.84 0-14.22 6.38-14.22 14.222s6.38 14.22 14.22 14.22c7.843 0 14.224-6.378 14.224-14.22 0-7.842-6.38-14.222-14.223-14.222" fill="#0089C5"/><path d="M61.747 73.8c.427.688 1 1.25 1.673 1.665-4.684 4.42-10.483 7.63-16.655 9.095-4.608 1.125-9.4 1.397-14.055.72C15.18 83.643 1.182 67.84.184 51.435c-.918-8.83 1.63-18.19 6.834-25.354 5.165-7.22 12.895-12.196 21.077-13.954 1.815-.41 3.63-.66 5.434-.78-.063.287-.12.576-.165.868-3.963.314-7.902 1.3-11.602 3.042-16.5 7.678-22.87 26.604-18.392 43.58C.64 44.31 6.08 30.116 15.867 22.168c4.953-4.17 11-6.74 17.306-7.518l-.002.038c0 .216.008.432.017.647-7.657 1.25-14.7 5.053-18.58 10.693 4.39-4.2 9.636-7.12 15.54-8.585-2.655 1.046-5.32 2.413-8.31 4.465-3.007 2.018-5.683 4.744-6.995 6.882-1.194 1.807-2.247 3.775-3.136 5.848-2.21 4.116-3.47 8.818-3.47 13.816 0 16.147 13.095 29.242 29.242 29.242 8.252 0 15.705-3.42 21.02-8.92.98 1.433 2.056 3.093 3.25 5.023m3.817-48.04c.395.423.805.865 1.218 1.315l.38-.197c-1.35-1.627-2.805-3.16-4.353-4.578-.085.154-.172.306-.263.457 1.048.953 2.056 1.955 3.018 3.004m7.205 15.38c.85 2.183.722 6.21.53 7.3-.182-1.11-1.085-2.897-1.536-3.148.148 1.065.222 2.55-.04 3.4-.09-.794-.356-1.702-.73-2.013.21 2.473.217 6.024-.53 8.105-.205-2.1-.527-4.598-1.282-6.18-.118.62-.147 1.245-.317 1.835-.266-.812-.162-2.27-.65-2.687.017 3.496-.217 6.327-1.213 8.01.214-1.487.282-3.5-.103-4.573.004.958-.048 1.827-.273 2.23-.02-.05-.234-.362-.266-.395-.193 1.243-.47 2.457-.816 3.642.38.88.795 1.818 1.24 2.823.987 2.22 2.088 4.698 3.263 7.62 2.245-3.738 4.492-9.418 4.79-14.744.464-5.446-.466-8.39-2.067-11.227" fill="#93C0E4"/><path d="M76.833 30.798c.613-.544 2.516-2.483 1.324-4.547-.9-1.555-2.896-2.09-4.454-1.192-13.327 7.695-18.974 9.154-24.73 9.154-5.76 0-11.408-1.46-24.734-9.154-.753-.433-1.63-.547-2.474-.32-.845.225-1.55.764-1.98 1.513-1.193 2.065.71 4.004 1.323 4.548l3.014 2.672c7.345 6.487 11.39 10.06 12.01 14.332.477 3.297-1.12 6.89-3.533 12.327-1.13 2.55-2.414 5.435-3.784 8.938-.638 1.628-.733 3.93 1.1 5.062.81.503 1.77.657 2.706.438.937-.22 1.73-.79 2.23-1.6 7.42-11.99 10.686-14.264 14.12-14.264 3.432 0 6.697 2.274 14.118 14.264.502.81 1.293 1.38 2.23 1.6.937.22 1.898.065 2.71-.438 1.828-1.13 1.733-3.434 1.097-5.062-1.37-3.503-2.652-6.39-3.784-8.938-2.416-5.436-4.01-9.028-3.532-12.327.617-4.274 4.666-7.848 12.013-14.338l3.01-2.667z" fill="#0089C5"/></g></symbol><symbol id="icon-telegram" viewBox="0 0 32 27">
    <!-- Generator: Sketch 3.3.3 (12072) - http://www.bohemiancoding.com/sketch -->
    <title>path9</title>
    <desc>Created with Sketch.</desc>
    
    <g id="Page-1" stroke="none" stroke-width="1" sketch:type="MSPage">
        <path d="M29.8395284,0.177464413 L1.4938725,11.1104417 C-0.440764139,11.8866545 -0.429290764,12.9657099 1.14124074,13.446869 L8.21073295,15.6534015 L10.9156866,23.9465813 C11.2445295,24.8542678 11.0824241,25.2142694 12.0355851,25.2142694 C12.7711661,25.2142694 13.0974833,24.8789005 13.5071685,24.4786884 C13.7676949,24.2237412 15.3145406,22.719841 17.0417047,21.0405748 L24.3953027,26.4737471 C25.7484637,27.2202744 26.7255191,26.8335367 27.0624675,25.2170062 L31.8895339,2.46999728 C32.3837459,0.48862376 31.1341629,-0.410115792 29.8395284,0.177464413 L29.8395284,0.177464413 Z M9.32020973,15.1464533 L25.2548843,5.09316247 C26.0503594,4.61074055 26.7797293,4.87010971 26.1808853,5.40168979 L12.5366383,17.7122492 L12.0053749,23.3785801 L9.32020973,15.1464533 L9.32020973,15.1464533 Z" id="path9" sketch:type="MSShapeGroup"/>
    </g>
</symbol><symbol id="pic-search" viewBox="0 0 24 24"><path d="M15.5 14h-.79l-.28-.27C15.41 12.59 16 11.11 16 9.5 16 5.91 13.09 3 9.5 3S3 5.91 3 9.5 5.91 16 9.5 16c1.61 0 3.09-.59 4.23-1.57l.27.28v.79l5 4.99L20.49 19l-4.99-5zm-6 0C7.01 14 5 11.99 5 9.5S7.01 5 9.5 5 14 7.01 14 9.5 11.99 14 9.5 14z"/><path d="M0 0h24v24H0z" fill="none"/></symbol><symbol id="icon-twitter" viewBox="0 0 32 26">
    <!-- Generator: Sketch 3.3.3 (12072) - http://www.bohemiancoding.com/sketch -->
    <title>Shape</title>
    <desc>Created with Sketch.</desc>
    
    <g id="Page-1" stroke="none" stroke-width="1" sketch:type="MSPage">
        <path d="M31.52832,3.03296 C30.36928,3.54816 29.12192,3.89568 27.81312,4.0512 C29.14944,3.2512 30.17408,1.984 30.65728,0.47232 C29.40736,1.21408 28.02368,1.75232 26.54976,2.04288 C25.37024,0.78592 23.68896,0 21.82848,0 C18.25664,0 15.36064,2.896 15.36064,6.46848 C15.36064,6.97472 15.4176,7.46816 15.52832,7.9424 C10.15232,7.67232 5.3856,5.0976 2.1952,1.184 C1.6384,2.13888 1.31968,3.24992 1.31968,4.43648 C1.31968,6.68032 2.46144,8.66048 4.19712,9.82016 C3.13728,9.78624 2.13952,9.49504 1.2672,9.01056 C1.26656,9.03744 1.26656,9.06496 1.26656,9.09248 C1.26656,12.22592 3.49632,14.83968 6.45568,15.43488 C5.91296,15.58208 5.34144,15.66144 4.75136,15.66144 C4.33408,15.66144 3.92896,15.62112 3.53408,15.54496 C4.35776,18.11456 6.74624,19.98528 9.57632,20.03712 C7.36256,21.77216 4.57408,22.8064 1.54304,22.8064 C1.02144,22.8064 0.50624,22.77568 0,22.71552 C2.86336,24.55168 6.26304,25.62176 9.91552,25.62176 C21.81376,25.62176 28.31936,15.76576 28.31936,7.21792 C28.31936,6.9376 28.3136,6.65792 28.30144,6.38016 C29.5648,5.47008 30.66176,4.33024 31.52832,3.03296 L31.52832,3.03296 Z" id="Shape" sketch:type="MSShapeGroup"/>
    </g>
</symbol><symbol id="pic-te-st" viewBox="0 0 87 40"><title>&#x422;&#x435;&#x43F;&#x43B;&#x438;&#x446;&#x430; + Group Copy</title><g fill="none" fill-rule="evenodd"><path d="M37.18 6.56v-.68H32.3v.68h2.06V13h.76V6.56h2.06zm4.21 4.17v-.33c0-1.47-.77-2.38-2.02-2.38s-2.02.94-2.02 2.49c0 1.67.75 2.55 2.17 2.55.36 0 .68-.06.95-.17.3-.12.47-.24.83-.59l-.49-.43c-.27.26-.4.35-.62.44-.18.07-.4.12-.63.12-.67 0-1.11-.26-1.34-.81-.1-.24-.13-.44-.15-.89h3.32zm-.72-.54h-2.6c.02-.44.05-.6.15-.82.2-.46.63-.74 1.15-.74.58 0 1.04.34 1.21.91.06.18.07.27.09.65zM46.74 13V8.08h-3.81V13h.71V8.7h2.38V13h.72zm5.46 0V8.08h-3.15v2.11c0 2.05-.6 2.19-1.04 2.19h-.16V13h.33c.9 0 1.56-.54 1.56-2.6V8.7h1.74V13h.72zm5.77 0V8.08h-.72l-2.53 3.79V8.08h-.71V13h.71l2.53-3.81V13h.72zm6.36 1.47v-2.09h-.74v-4.3h-.72v4.3h-2.38v-4.3h-.71V13h3.85v1.47h.7zM69.07 13V9.66c0-1.09-.67-1.64-1.99-1.64-.47 0-.82.06-1.1.2-.24.12-.36.23-.62.53l.49.45c.18-.24.28-.33.45-.41.2-.1.44-.15.76-.15.9 0 1.29.33 1.29 1.08v.47h-1.48c-1.06 0-1.7.53-1.7 1.42 0 .94.61 1.45 1.75 1.45.38 0 .64-.03.87-.13.2-.08.32-.17.56-.4V13h.72zm-.72-1.74c0 .84-.37 1.18-1.29 1.18-.83 0-1.19-.25-1.19-.84 0-.58.37-.87 1.1-.87h1.38v.53zM36.43 23.33l-.49-.47c-.26.27-.38.37-.58.46-.16.07-.33.1-.54.1-.97 0-1.47-.64-1.47-1.88 0-1.24.51-1.88 1.48-1.88.21 0 .39.04.55.11.19.08.31.18.56.44l.49-.46c-.33-.34-.49-.46-.76-.58-.24-.1-.51-.15-.83-.15-1.38 0-2.21.95-2.21 2.52s.83 2.52 2.21 2.52c.32 0 .59-.05.83-.15.27-.12.43-.24.76-.58zm5.13-1.82c0-.92-.18-1.51-.6-1.93-.36-.36-.86-.56-1.41-.56-.56 0-1.05.2-1.41.56-.42.43-.6 1.01-.6 1.96s.18 1.53.6 1.96c.36.36.85.56 1.41.56.56 0 1.05-.2 1.41-.56.43-.44.6-1.01.6-1.99zm-.72.06c0 .78-.11 1.2-.39 1.49-.22.23-.55.36-.9.36s-.67-.13-.89-.36c-.29-.3-.4-.72-.4-1.52s.11-1.23.4-1.52c.22-.23.55-.36.89-.36.35 0 .68.13.9.36.29.29.39.71.39 1.55zm6.82 3.9v-2.09h-.74v-4.3h-.72v4.3h-2.38v-4.3h-.71V24h3.85v1.47h.7zm5.2-1.47v-4.92h-.72l-2.53 3.79v-3.79h-.71V24h.71l2.53-3.81V24h.72zm5.31 0v-3.34c0-1.09-.67-1.64-1.99-1.64-.47 0-.82.06-1.1.2-.24.12-.36.23-.62.53l.49.45c.18-.24.28-.33.45-.41.2-.1.44-.15.76-.15.9 0 1.29.33 1.29 1.08v.47h-1.48c-1.06 0-1.7.53-1.7 1.42 0 .94.61 1.45 1.75 1.45.38 0 .64-.03.87-.13.2-.08.32-.17.56-.4V24h.72zm-.72-1.74c0 .84-.37 1.18-1.29 1.18-.83 0-1.19-.25-1.19-.84 0-.58.37-.87 1.1-.87h1.38v.53zM63.58 24v-4.92h-3.15v2.11c0 2.05-.6 2.19-1.04 2.19h-.16V24h.33c.9 0 1.56-.54 1.56-2.6v-1.7h1.74V24h.72zm5.56-1.48c0-.9-.62-1.49-1.56-1.49H66.1v-1.95h-.71V24h2.19c.94 0 1.56-.59 1.56-1.48zm-.72 0c0 .55-.32.86-.92.86h-1.4v-1.72h1.4c.6 0 .92.31.92.86zM74.26 24v-4.92h-.72v2.07h-2.38v-2.07h-.71V24h.71v-2.23h2.38V24h.72zm7.07 0v-4.92h-.72V24h.72zm-1.51-1.48c0-.9-.62-1.49-1.56-1.49h-1.48v-1.95h-.71V24h2.19c.94 0 1.56-.59 1.56-1.48zm-.72 0c0 .55-.32.86-.92.86h-1.4v-1.72h1.4c.6 0 .92.31.92.86zM86.79 24l-1.67-2.51 1.6-2.41h-.87l-1.11 1.82-1.13-1.82h-.87l1.6 2.41L82.67 24h.87l1.2-1.91L85.92 24h.87zm-50.66 6.7v-.62h-4.02v.62h1.69V35h.72v-4.3h1.61zm4.67 2.03v-.33c0-1.47-.77-2.38-2.02-2.38s-2.02.94-2.02 2.49c0 1.67.75 2.55 2.17 2.55.36 0 .68-.06.95-.17.3-.12.47-.24.83-.59l-.49-.43c-.27.26-.4.35-.62.44-.18.07-.4.12-.63.12-.67 0-1.11-.26-1.34-.81-.1-.24-.13-.44-.15-.89h3.32zm-.72-.54h-2.6c.02-.44.05-.6.15-.82.2-.46.63-.74 1.15-.74.58 0 1.04.34 1.21.91.06.18.07.27.09.65zm5.7 2.81l-1.67-2.51 1.6-2.41h-.87l-1.11 1.82-1.13-1.82h-.87l1.6 2.41L41.66 35h.87l1.2-1.91L44.91 35h.87zm5.05 0v-4.92h-.72v2.07h-2.38v-2.07h-.71V35h.71v-2.23h2.38V35h.72zm5.56-2.49c0-.92-.18-1.51-.6-1.93-.36-.36-.86-.56-1.41-.56-.56 0-1.05.2-1.41.56-.42.43-.6 1.01-.6 1.96s.18 1.53.6 1.96c.36.36.85.56 1.41.56.56 0 1.05-.2 1.41-.56.43-.44.6-1.01.6-1.99zm-.72.06c0 .78-.11 1.2-.39 1.49-.22.23-.55.36-.9.36s-.67-.13-.89-.36c-.29-.3-.4-.72-.4-1.52s.11-1.23.4-1.52c.22-.23.55-.36.89-.36.35 0 .68.13.9.36.29.29.39.71.39 1.55zM61.49 35v-4.92h-3.15v2.11c0 2.05-.6 2.19-1.04 2.19h-.16V35h.33c.9 0 1.56-.54 1.56-2.6v-1.7h1.74V35h.72zm5.56-2.49c0-.92-.18-1.51-.6-1.93-.36-.36-.86-.56-1.41-.56-.56 0-1.05.2-1.41.56-.42.43-.6 1.01-.6 1.96s.18 1.53.6 1.96c.36.36.85.56 1.41.56.56 0 1.05-.2 1.41-.56.43-.44.6-1.01.6-1.99zm-.72.06c0 .78-.11 1.2-.39 1.49-.22.23-.55.36-.9.36s-.67-.13-.89-.36c-.29-.3-.4-.72-.4-1.52s.11-1.23.4-1.52c.22-.23.55-.36.89-.36.35 0 .68.13.9.36.29.29.39.71.39 1.55zm5.42-1.87v-.62h-3.12V35h.72v-4.3h2.4zm4.98 4.3v-4.92h-.72l-2.53 3.79v-3.79h-.71V35h.71l2.53-3.81V35h.72zm5.25-7.04h-.64c-.04.5-.33.75-.82.75-.49 0-.78-.25-.82-.75h-.64c.06.9.63 1.26 1.46 1.26s1.4-.36 1.46-1.26zM82.5 35v-4.92h-.72l-2.53 3.79v-3.79h-.71V35h.71l2.53-3.81V35h.72z" fill="#111"/><g><use fill="#F38D06" xlink:href="#a"/><use fill="#DEDE02" xlink:href="#b"/><use fill="#DB9906" xlink:href="#c"/><use fill="#E6201E" xlink:href="#d"/><use fill="#BE0C39" xlink:href="#e"/><path d="M.91 12.866c0-.195.053-.377.144-.534l-.76-.44c-.165.288-.262.62-.262.974 0 .355.097.688.264.976l.76-.44c-.092-.158-.145-.34-.145-.536" fill="#B70E0B"/><use fill="#A9CA0F" xlink:href="#f"/><path d="M21.874 12.864c0 .196-.053.378-.144.536l.76.44c.166-.288.263-.62.263-.976 0-.355-.097-.688-.264-.974l-.76.44c.09.156.144.34.144.534" fill="#00A8B0"/><use fill="#419F62" xlink:href="#g"/><use fill="#E6005B" xlink:href="#h"/><use xlink:href="#h"/><use fill="#168B8F" xlink:href="#i"/><use fill="#AF0E79" xlink:href="#j"/><use fill="#1269B6" xlink:href="#k"/><use fill="#702282" xlink:href="#l"/><use fill="#7F1F82" xlink:href="#m"/><use fill="#6EB62A" xlink:href="#n"/><use fill="#FFD102" xlink:href="#o"/><path d="M10.467 1.45c.186-.32.53-.535.925-.535.396 0 .74.216.926.536l.76-.44c-.34-.58-.966-.974-1.686-.974s-1.347.393-1.684.975l.76.44" fill="#DEDC00"/><use fill="#F7AB02" xlink:href="#p"/><path d="M.91 7.427c0-.195.054-.378.145-.535l-.76-.44c-.166.288-.263.62-.263.975s.097.688.263.975l.76-.44c-.09-.157-.144-.34-.144-.535" fill="#ED6607"/><use fill="#DCDD02" xlink:href="#q"/><path d="M21.874 7.425c0 .196-.053.377-.143.534l.76.438c.166-.286.263-.618.263-.973s-.098-.688-.264-.975l-.76.44c.09.157.144.34.144.535" fill="#76B82A"/><use fill="#B8CF09" xlink:href="#r"/><use fill="#0E70BC" xlink:href="#s"/><use fill="#B80D79" xlink:href="#t"/><path d="M21.874 18.305c0 .195-.053.377-.144.535l.76.44c.166-.288.263-.62.263-.975s-.097-.688-.264-.975l-.76.44c.09.157.144.34.144.535" fill="#0090D7"/><use fill="#C52987" xlink:href="#u"/><path d="M22.26 28.83H11.92v-4.782l2.82-1.63c.35.344.83.556 1.36.556.718 0 1.346-.392 1.683-.974l-.76-.44c-.185.32-.53.536-.924.536-.397 0-.742-.216-.927-.536-.092-.158-.145-.34-.145-.536 0-.194.053-.377.144-.534l-.76-.44c-.166.288-.262.62-.262.974 0 .167.023.327.062.48L11.92 22.83v-2.648c.493-.14.906-.468 1.158-.9l-.76-.44c-.184.32-.53.536-.925.536-.396 0-.74-.217-.926-.536l-.76.44c.252.432.666.76 1.16.9v2.647l-2.293-1.326c.04-.154.06-.314.06-.48 0-.354-.095-.685-.26-.972l-.76.44c.09.156.143.338.143.532 0 .196-.054.38-.146.537-.184.32-.528.536-.923.536s-.74-.215-.925-.535l-.76.44c.338.582.966.974 1.685.974.53 0 1.01-.212 1.36-.556l2.82 1.63v4.782H.524c-.194 0-.35.158-.35.352 0 .195.156.352.35.352h10.32c-.056.343-.212.74-.585 1.09-.668.627-1.856.904-3.437.8-.747-.048-1.385 0-1.93.11-.03 0-.062.007-.093.02-.003 0-.005.002-.008.003-1.81.408-2.526 1.556-2.656 2.332-.024.143.073.278.217.302.014.002.03.004.044.004.126 0 .238-.092.26-.22.01-.06.17-.923 1.182-1.51-.09.256-.113.53-.135.813-.033.403-.07.86-.313 1.36-.063.13-.01.29.122.352.037.018.077.027.115.027.097 0 .19-.056.236-.15.287-.59.33-1.12.364-1.548.05-.64.08-.994.754-1.274.237-.048.497-.083.784-.102-.305.375-.372.892-.44 1.43-.1.772-.22 1.734-1.04 2.705-.094.112-.08.28.03.373.05.04.11.062.17.062.076 0 .15-.032.202-.094.92-1.09 1.054-2.137 1.16-2.98.118-.925.205-1.345.976-1.487 1.735.107 3.01-.21 3.795-.944.083-.08.157-.162.227-.248-.216.627-.66 1.34-1.57 2.108-.576.487-1.065.776-1.496 1.03-.816.484-1.406.833-1.62 2.044-.024.143.072.28.215.305.016.002.03.004.046.004.127 0 .238-.09.26-.22.17-.97.597-1.222 1.37-1.68.07-.04.146-.086.222-.132-.173.412-.26.82-.343 1.203-.19.882-.352 1.643-1.392 2.326-.122.08-.156.244-.076.366.05.078.135.12.22.12.05 0 .1-.015.145-.044 1.222-.802 1.423-1.745 1.618-2.657.022-.105.044-.208.068-.31.056.28.136.555.215.82.173.59.352 1.198.25 1.77-.024.145.072.28.215.307.016.002.03.003.046.003.125 0 .236-.09.258-.217.123-.696-.074-1.365-.265-2.012-.29-.987-.542-1.84.385-2.623.777-.656 1.245-1.285 1.53-1.862.058.692.138 1.3.22 1.846.187 1.253-.124 1.638-.483 2.083-.36.445-.77.95-.692 2.237.01.14.125.248.263.248h.016c.146-.01.256-.135.248-.28-.066-1.082.245-1.467.575-1.875.123-.153.25-.308.356-.493.163 1.453.015 2.57-1.26 4.362-.083.118-.056.282.063.367.046.033.1.048.153.048.082 0 .163-.038.214-.11 1.734-2.44 1.524-3.776 1.175-5.988-.116-.734-.25-1.582-.333-2.615.29.603.682 1.055 1.05 1.476.93 1.063 1.73 1.98.552 5.046-.053.136.015.288.15.34.032.013.064.02.095.02.105 0 .205-.066.246-.17.61-1.584.712-2.672.552-3.494.362.473.6 1.114.47 2.324-.014.145.09.275.235.29l.028.002c.134 0 .248-.1.263-.236.046-.434.046-.802.014-1.127.338.347.707.67 1.015.843.04.023.085.034.13.034.09 0 .18-.05.23-.134.07-.128.025-.29-.102-.36-.547-.308-1.41-1.26-1.703-1.727-.004-.008-.01-.014-.014-.02-.222-.348-.494-.608-.754-.853-.195-.184-.38-.357-.536-.56l-.008-.01c-.15-.192-.31-.375-.468-.557-.383-.437-.773-.885-1.035-1.5.56.492 1.413.674 2.328.777l.01.002c1.29.142 1.477 1.074 1.693 2.153.09.45.183.918.37 1.324.043.097.14.154.24.154.036 0 .073-.007.108-.023.134-.06.192-.217.13-.35-.158-.35-.242-.767-.33-1.207-.05-.245-.1-.495-.166-.74.22.114.453.21.682.3.605.244 1.127.454 1.35.996.042.103.14.164.244.164.033 0 .067-.006.1-.02.134-.054.2-.21.144-.344-.308-.75-.986-1.022-1.642-1.285-.523-.21-1.018-.41-1.334-.836-.04-.053-.08-.105-.126-.155 1.654.15 3.243.436 3.685 2.068.032.118.138.195.254.195.024 0 .047-.003.07-.01.14-.038.224-.182.185-.324-.586-2.166-2.765-2.345-4.688-2.503-1.974-.16-3.24-.34-3.42-1.673H22.26c.194 0 .35-.157.35-.352 0-.194-.156-.352-.35-.352" fill="#213A8F"/></g></g></symbol><symbol id="icon-viber" viewBox="0 0 31 31">
    <!-- Generator: Sketch 3.3.3 (12072) - http://www.bohemiancoding.com/sketch -->
    <title>g15</title>
    <desc>Created with Sketch.</desc>
    
    <g id="Page-1" stroke="none" stroke-width="1" sketch:type="MSPage">
        <g id="g15" sketch:type="MSLayerGroup">
            <path d="M28.0456345,22.4253904 C27.1026948,21.6662774 26.094961,20.9848723 25.1030607,20.2887566 C23.1247626,18.8993327 21.315356,18.7914173 19.8391281,21.0267583 C19.0101677,22.2817653 17.8497129,22.3366775 16.6363672,21.7860959 C13.2912164,20.2694419 10.7082107,17.9323619 9.1951501,14.5324112 C8.52587289,13.0282219 8.53463189,11.679561 10.1006956,10.6156797 C10.9297684,10.0530826 11.7651296,9.38728656 11.6983142,8.15788273 C11.6110611,6.55487399 7.71892223,1.19773669 6.18194285,0.632332204 C5.54590491,0.398309772 4.91256206,0.413469575 4.26551923,0.630984666 C0.661416566,1.8429828 -0.831318648,4.80700491 0.59830687,8.31655533 C4.86326462,18.7871501 12.3690513,26.0764323 22.7010742,30.5254413 C23.2900606,30.7787785 23.9445149,30.8800684 24.275897,30.9709149 C26.6281368,30.9946091 29.3837398,28.7282748 30.1795732,26.4791216 C30.9457609,24.3153125 29.3264694,23.4563693 28.0456345,22.4253904 L28.0456345,22.4253904 Z" id="path17-6" sketch:type="MSShapeGroup"/>
            <path d="M16.4608504,1.70575851 C24.01425,2.86733626 27.497748,6.4589742 28.4596656,14.0667245 C28.5488277,14.7694656 28.2870684,15.8268338 29.2896367,15.8463731 C30.3374598,15.8663615 30.085021,14.8246024 30.09378,14.1211875 C30.1823806,6.95610343 23.9348576,0.313751763 16.6792638,0.0688367326 C16.1318265,0.14755541 14.9991085,-0.308698496 14.9284751,0.918234849 C14.8814236,1.74551088 15.8350313,1.60952184 16.4608504,1.70575851 L16.4608504,1.70575851 Z" id="path19-1" sketch:type="MSShapeGroup"/>
            <path d="M17.9383135,3.79174733 C17.2117659,3.70426965 16.2526558,3.36188271 16.082866,4.37006572 C15.9056647,5.42810763 16.9745992,5.32064148 17.6615067,5.4743731 C22.3266833,6.51703063 23.951028,8.2150408 24.7191247,12.8425986 C24.8313072,13.5172659 24.608402,14.5673349 25.7549322,14.3932779 C26.6046672,14.2639143 26.2977654,13.3637589 26.3688481,12.8379945 C26.4064668,8.395274 22.5994474,4.35142478 17.9383135,3.79174733 L17.9383135,3.79174733 Z" id="path21-2" sketch:type="MSShapeGroup"/>
            <path d="M18.3667183,7.42470976 C17.8817169,7.43672531 17.4056991,7.489167 17.2274872,8.00740765 C16.9597763,8.78201741 17.5229349,8.96674241 18.0962,9.05882417 C20.0099286,9.36606283 21.0171009,10.4945136 21.2082267,12.402852 C21.2598824,12.9208681 21.5885693,13.3405139 22.0889551,13.2814468 C22.7822634,13.1987978 22.8449239,12.5816254 22.8237002,11.9955586 C22.8579501,9.8515134 20.4346276,7.37339102 18.3667183,7.42470976 L18.3667183,7.42470976 Z" id="path23" sketch:type="MSShapeGroup"/>
        </g>
    </g>
</symbol><symbol id="icon-vk" viewBox="0 0 32 21">
    <!-- Generator: Sketch 3.3.3 (12072) - http://www.bohemiancoding.com/sketch -->
    <title>vkontakte</title>
    <desc>Created with Sketch.</desc>
    
    <g id="Page-1" stroke="none" stroke-width="1" sketch:type="MSPage">
        <path d="M0.0054438677,1.52695383 C-0.213527289,0.190760493 6.24612006,1.01805207 6.24612006,1.01805207 C6.24612006,1.01805207 9.99600007,10.4350338 11.4740549,10.4350337 C12.9521098,10.4350335 12.2404538,2.44968778 12.2404538,2.44968778 C12.2404538,2.44968778 10.4065708,1.97247588 10.4065709,1.24075096 C10.4065709,0.509026033 12.2404538,0 12.2404538,0 C12.2404538,0 16.986418,6.3958816e-08 17.632617,0 C18.2788159,-6.48236808e-08 18.535979,1.04986625 18.5359797,1.74977699 C18.5359803,2.44968773 18.5359797,10.3077772 18.5359797,10.3077772 L20.0140346,10.3077772 C20.0140346,10.3077772 21.3297427,8.19306598 22.3678669,6.04468412 C23.4059912,3.89630234 24.6670634,1.01805207 24.6670634,1.01805207 L30.935111,1.01805207 C30.935111,1.01805207 32.0847093,1.04961765 31.9478523,2.00416573 C31.7616698,3.30274945 27.5915791,9.46950121 26.7199174,11.580218 C26.0630041,13.1709243 29.4795482,15.3239543 30.935111,17.6249021 C31.8797907,19.118248 31.9478523,20.8700673 31.9478523,20.8700673 L24.502942,20.8700673 L20.7803265,16.5432218 C20.7803265,16.5432218 20.0140346,16.2252048 19.4117571,16.6704783 C18.8094797,17.1157518 18.7822152,18.0066716 18.7822152,18.0066716 L18.7822152,20.8700673 L12.9521098,20.8700673 C12.9521098,20.8700673 8.49057378,19.3429892 4.7133224,12.6620226 C0.936070612,5.98105597 0.224414962,2.86314716 0.0054438677,1.52695383 L0.0054438677,1.52695383 Z" id="vkontakte" sketch:type="MSShapeGroup"/>
    </g>
</symbol><symbol id="icon-whatsup" viewBox="0 0 32 32">
    <!-- Generator: Sketch 3.3.3 (12072) - http://www.bohemiancoding.com/sketch -->
    <title>whatsup</title>
    <desc>Created with Sketch.</desc>
    
    <g id="Page-1" stroke="none" stroke-width="1" sketch:type="MSPage">
        <path d="M16.1717356,0.0001125236 C7.57912571,0.0001125236 0.613633177,6.96532685 0.613633177,15.5579368 C0.613633177,18.4970125 1.42934767,21.2458244 2.84603445,23.5908819 L0.0382519515,31.9377344 L8.65186327,29.1797431 C10.8806484,30.4124247 13.4439252,31.1149267 16.1717356,31.1149267 C24.7637893,31.1149267 31.7292818,24.1499905 31.7292818,15.5580759 C31.7294209,6.96532685 24.7639284,0.0001125236 16.1717356,0.0001125236 L16.1717356,0.0001125236 L16.1717356,0.0001125236 Z M16.1717356,28.6371852 C13.5147178,28.6371852 11.0408706,27.8402468 8.97536742,26.4740466 L3.94881369,28.0837789 L5.582468,23.2262095 C4.01668559,21.0698859 3.09151374,18.4202394 3.09151374,15.5575196 C3.09151374,8.34515699 8.95923393,2.47757585 16.1717356,2.47757585 C23.3838202,2.47757585 29.2516794,8.34515699 29.2516794,15.5575196 C29.2516794,22.7696041 23.3839592,28.6371852 16.1717356,28.6371852 L16.1717356,28.6371852 Z M12.5227867,9.122624 C12.2707706,8.51525396 12.0777251,8.49466985 11.6884353,8.47617198 C11.5549167,8.46977422 11.4101326,8.46365461 11.2517185,8.46365461 C10.7501897,8.46365461 10.230163,8.61135944 9.91681185,8.93194292 C9.5354497,9.32206721 8.58190515,10.2358344 8.58190515,12.1120473 C8.58190515,13.9885383 9.94852248,15.8017472 10.1389254,16.0562668 C10.3298846,16.3105082 12.8042882,20.2174538 16.6540712,21.8125825 C19.6589325,23.0572252 20.551142,22.946377 21.236676,22.7964469 C22.2341703,22.5786448 23.4867406,21.844015 23.8045424,20.9538917 C24.1223442,20.0632122 24.1223442,19.2997924 24.0270732,19.1412392 C23.9316632,18.9819906 23.6774217,18.8869978 23.2960596,18.6957603 C22.9146974,18.5050793 21.0394581,17.58255 20.6899456,17.4555683 C20.3402941,17.3284476 20.017068,17.3672514 19.748223,17.7390169 C19.3771529,18.2526459 19.0202691,18.7804612 18.7247204,19.0933951 C18.492732,19.3390135 18.1194366,19.3732276 17.7984359,19.2367884 C17.3763227,19.0569557 16.1881473,18.6429093 14.7312659,17.3441639 C13.5977496,16.3335958 12.8322436,15.085198 12.6097128,14.7032795 C12.387182,14.3219173 12.5901023,14.0942404 12.7615901,13.8867305 C12.957139,13.6498742 13.1375281,13.4797772 13.3282092,13.2573855 C13.5188902,13.0345765 13.6254269,12.9159398 13.7525476,12.661142 C13.8796683,12.4069006 13.794133,12.1444533 13.6987229,11.9534941 C13.6031738,11.7625348 12.8396149,9.88660011 12.5227867,9.122624 L12.5227867,9.122624 Z" id="whatsup" sketch:type="MSShapeGroup"/>
    </g>
</symbol></svg>