<svg xmlns="http://www.w3.org/2000/svg" xmlns:xlink="http://www.w3.org/1999/xlink" xmlns:sketch="http://www.bohemiancoding.com/sketch/ns"><symbol id="icon-facebook" viewBox="0 0 15 32">
    <!-- Generator: Sketch 3.3.3 (12072) - http://www.bohemiancoding.com/sketch -->
    <title>Shape</title>
    <desc>Created with Sketch.</desc>
    
    <g id="Page-1" stroke="none" stroke-width="1" sketch:type="MSPage">
        <path d="M14.6599184,10.2158367 L9.66726531,10.2158367 L9.66726531,6.94138776 C9.66726531,5.71167347 10.4822857,5.42497959 11.0563265,5.42497959 L14.5795918,5.42497959 L14.5795918,0.0189387755 L9.72734694,0 C4.34089796,0 3.11510204,4.032 3.11510204,6.6122449 L3.11510204,10.2158367 L2.66453526e-15,10.2158367 L2.66453526e-15,15.786449 L3.11510204,15.786449 L3.11510204,31.5493878 L9.66726531,31.5493878 L9.66726531,15.786449 L14.0884898,15.786449 L14.6599184,10.2158367 L14.6599184,10.2158367 Z" id="Shape" sketch:type="MSShapeGroup"/>
    </g>
</symbol><symbol id="pic-favorite_border" viewBox="0 0 24 24"><path d="M0 0h24v24H0z" fill="none"/><path d="M16.5 3c-1.74 0-3.41.81-4.5 2.09C10.91 3.81 9.24 3 7.5 3 4.42 3 2 5.42 2 8.5c0 3.78 3.4 6.86 8.55 11.54L12 21.35l1.45-1.32C18.6 15.36 22 12.28 22 8.5 22 5.42 19.58 3 16.5 3zm-4.4 15.55l-.1.1-.1-.1C7.14 14.24 4 11.39 4 8.5 4 6.5 5.5 5 7.5 5c1.54 0 3.04.99 3.57 2.36h1.87C13.46 5.99 14.96 5 16.5 5c2 0 3.5 1.5 3.5 3.5 0 2.89-3.14 5.74-7.9 10.05z"/></symbol><symbol id="icon-instagram" viewBox="0 0 32 32">
    <!-- Generator: Sketch 3.3.3 (12072) - http://www.bohemiancoding.com/sketch -->
    <title>Shape</title>
    <desc>Created with Sketch.</desc>
    
    <g id="Page-1" stroke="none" stroke-width="1" sketch:type="MSPage">
        <path d="M25.5968,0 L6.13184,0 C2.75072,0 0,2.75008 0,6.1312 L0,12.608 L0,25.5968 C0,28.97792 2.75072,31.728 6.13184,31.728 L25.59744,31.728 C28.97856,31.728 31.72864,28.97792 31.72864,25.5968 L31.72864,12.60736 L31.72864,6.13056 C31.728,2.74944 28.97792,0 25.5968,0 L25.5968,0 Z M27.35552,3.65632 L28.05696,3.65376 L28.05696,4.352 L28.05696,9.03168 L22.69696,9.04896 L22.6784,3.67168 L27.35552,3.65632 L27.35552,3.65632 Z M11.33568,12.60736 C12.352,11.20128 14.00064,10.27904 15.86432,10.27904 C17.728,10.27904 19.37664,11.20128 20.39168,12.60736 C21.0528,13.52512 21.44896,14.64768 21.44896,15.86368 C21.44896,18.94272 18.94144,21.44768 15.86368,21.44768 C12.784,21.44768 10.27904,18.94272 10.27904,15.86368 C10.27968,14.64768 10.67456,13.52512 11.33568,12.60736 L11.33568,12.60736 Z M28.6368,25.59616 C28.6368,27.2736 27.27296,28.63616 25.5968,28.63616 L6.13184,28.63616 C4.45504,28.63616 3.0912,27.2736 3.0912,25.59616 L3.0912,12.60736 L7.8272,12.60736 C7.41824,13.61344 7.18848,14.71232 7.18848,15.86368 C7.18848,20.6464 11.07968,24.54016 15.86432,24.54016 C20.64832,24.54016 24.53952,20.6464 24.53952,15.86368 C24.53952,14.71232 24.30848,13.61344 23.89952,12.60736 L28.6368,12.60736 L28.6368,25.59616 L28.6368,25.59616 Z" id="Shape" sketch:type="MSShapeGroup"/>
    </g>
</symbol><symbol id="pic-logo-accent" viewBox="0 0 56 51"><title>logo_BP</title><g fill="none" fill-rule="evenodd"><path d="M.01.098h55.912v50.036H.01V.098z" fill="#FFF"/><path d="M9.488 4.12c0 .098-.007.16-.02.185-.012.026-.06.04-.146.04-.09 0-.49-.015-1.2-.045s-1.108-.043-1.19-.043c-.118 0-.393.034-.83.106-.435.07-.873.15-1.31.242 0 .46-.03.938-.088 1.438-.06.5-.117 1.006-.174 1.516.36-.072.725-.13 1.093-.176.37-.045.665-.066.892-.066.626 0 1.157.185 1.592.555.436.372.655.84.655 1.41 0 .594-.463 1.075-1.386 1.443-.704.277-1.34.416-1.908.416-.14 0-.28.003-.41.01-.134.006-.258.013-.374.02-.233 0-.41-.014-.533-.04-.122-.026-.182-.074-.182-.145 0-.065.022-.12.067-.165-.07-.206-.122-.52-.155-.944-.033-.422-.05-.94-.05-1.554-.12 0-.214-.007-.28-.02-.186-.04-.28-.123-.28-.25 0-.123.058-.21.175-.263.044-.018.174-.05.386-.096 0-.18.014-.442.04-.783.065-.86.098-1.57.098-2.14-.17-.026-.27-.042-.3-.05-.13-.037-.195-.115-.195-.23 0-.065.063-.133.19-.204.125-.07.234-.114.324-.126 0-.123.03-.23.087-.32.058-.09.133-.135.223-.135.154 0 .266.027.334.082.068.055.112.134.13.237.17-.058.478-.11.926-.16.45-.048.8-.072 1.05-.072.776 0 1.347.013 1.716.04.69.05 1.036.148 1.036.29zM8.16 9.283c0-.438-.193-.792-.58-1.06-.387-.268-.866-.402-1.434-.402-.322 0-.613.028-.872.087-.16.04-.41.118-.744.233-.06.42-.088.92-.088 1.502 0 .148.014.348.043.6.03.25.045.403.045.455h.938c.433 0 .965-.14 1.6-.417.728-.323 1.092-.655 1.092-.998zM16.42 7.45c0 .86-.352 1.63-1.056 2.308-.704.677-1.51 1.016-2.422 1.016-.735 0-1.298-.31-1.684-.93-.357-.57-.533-1.32-.533-2.256 0-.607.223-1.26.668-1.96.446-.7.884-1.052 1.317-1.052.24 0 .407.046.508.14.1.094.15.235.15.42 0 .21-.04.38-.12.515-.082.136-.173.204-.277.204-.038 0-.057-.025-.057-.076 0-.02.01-.068.03-.147.02-.076.028-.13.028-.163 0-.064-.025-.122-.076-.174-.07-.07-.162-.107-.272-.107-.212 0-.46.25-.745.745-.316.55-.474 1.11-.474 1.677 0 .614.09 1.134.27 1.56.29.69.782 1.036 1.473 1.036.742 0 1.382-.283 1.922-.848s.808-1.215.808-1.952c0-.432-.092-.835-.28-1.21-.163-.316-.54-.63-1.134-.94-.548-.283-.823-.468-.823-.55 0-.065.016-.123.048-.175.032-.05.084-.078.155-.078.2 0 .525.126.978.378.556.31.946.652 1.173 1.026.162.26.273.51.334.755.06.245.092.526.092.84M23.784 10.968c0 .15-.04.222-.118.222-.09 0-.197-.084-.32-.25-.2-.266-.497-.808-.89-1.628-.214-.46-.426-.92-.64-1.385-.238-.523-.4-.87-.484-1.045L20.635 5.4c-.18.438-.358.875-.532 1.307-.07.15-.15.34-.233.572-.193.514-.313.828-.358.938l-.726 1.54c-.072.13-.146.294-.223.493-.078.202-.117.347-.117.437 0 .072-.034.13-.1.18-.07.048-.135.072-.2.072-.076 0-.144-.043-.202-.127-.06-.083-.087-.17-.087-.26 0-.13.122-.487.367-1.072l.727-1.726c.085-.202.316-.75.697-1.647.258-.6.414-.985.465-1.153l.116-.64c.04-.205.11-.31.213-.31.105 0 .205.044.302.127.135.117.236.28.3.485.2.37.42.87.66 1.502.328.877.547 1.446.658 1.703.174.408.374.853.6 1.337.187.407.37.808.552 1.2.18.395.272.598.272.61M30.146 9.26c0 .594-.462 1.076-1.384 1.442-.704.28-1.34.417-1.908.417h-.233c-.154 0-.304-.01-.45-.024-.144-.017-.262-.04-.353-.073-.4 0-.6-.907-.6-2.72-.124 0-.216-.007-.28-.02-.188-.04-.28-.123-.28-.253 0-.123.056-.21.173-.26.046-.02.174-.053.387-.098 0-.18.026-.726.078-1.636.05-.91.077-1.547.077-1.908 0-.104.03-.205.09-.3.063-.097.136-.146.22-.146.148 0 .267.094.358.28.09.188.136.395.136.62 0 .194-.045.718-.13 1.57-.088.852-.132 1.31-.132 1.375l.804-.135c.452-.066.846-.097 1.18-.097.628 0 1.16.185 1.595.556.435.372.653.843.653 1.41zm-.6 0c0-.44-.194-.792-.582-1.06-.386-.268-.864-.402-1.433-.402-.322 0-.613.03-.87.087-.16.04-.41.117-.746.233-.058.42-.087.92-.087 1.5l.136.988c.18.02.34.036.48.048.137.014.275.02.41.02.432 0 .966-.138 1.6-.417.728-.322 1.093-.654 1.093-.997zM39.247 4.52c-.187.632-.353 1.24-.494 1.825-.142.584-.213 1.09-.213 1.515v2.576c.116.013.183.02.204.02.084-.007.135-.01.154-.01.027 0 .04.04.04.117 0 .168-.02.27-.06.31-.038.038-.128.057-.27.057-.355 0-.796-.01-1.323-.034-.525-.022-1.07-.043-1.63-.063h-2.858c-.103.007-.184.01-.242.01-.13 0-.234-.02-.315-.057-.08-.04-.12-.114-.12-.223 0-.046.036-.085.11-.117.075-.033.17-.048.287-.048-.013-.065-.02-.165-.02-.302 0-.36.012-.74.04-1.14.024-.402.076-.875.154-1.425.117-.62.2-1.074.252-1.364.097-.53.145-1.02.145-1.472 0-.072.033-.166.098-.286.064-.118.128-.18.193-.18.13 0 .213.048.252.142.04.093.06.23.06.41v.292c0 .213-.073.697-.216 1.452-.09.47-.15.842-.183 1.113-.07.523-.138 1.05-.203 1.584s-.096.92-.096 1.158l.61-.03c.227-.018.45-.027.668-.027.13 0 .308.003.533.01.228.007.382.01.467.01-.04-.2-.07-.44-.092-.722-.022-.28-.034-.573-.034-.877 0-.16.028-.464.083-.91.055-.444.128-.902.218-1.374.065-.342.127-.7.185-1.074.032-.207.063-.412.09-.616.03-.203.09-.355.176-.455.09-.1.194-.148.316-.148.05 0 .1.025.145.076.046.052.07.11.07.175 0 .09-.03.312-.088.67-.058.353-.135.804-.227 1.35-.095.544-.158.914-.19 1.108-.128.71-.193 1.112-.193 1.2 0 .247-.003.45-.01.612l-.038.997c.51 0 .948.002 1.316.01.368.006.69.01.97.018-.015-.045-.02-.094-.02-.145v-.126c0-.045.003-.133.01-.26.005-.13.01-.243.01-.34V7.784c0-.808.085-1.576.26-2.305.2-.848.44-1.27.718-1.27.076 0 .147.028.212.087.065.057.097.132.097.223M46.617 10.757c0 .15-.038.222-.115.222-.092 0-.198-.085-.32-.252-.155-.208-.358-.546-.61-1.017-.252-.47-.5-.98-.747-1.53-.22.033-.61.104-1.17.214l-1.153.233c-.053.01-.084.018-.097.018-.065 0-.165-.065-.3-.193l-.484 1.095c-.07.128-.145.293-.223.493-.076.2-.115.345-.115.436 0 .07-.034.13-.102.178-.068.048-.133.074-.198.074-.078 0-.146-.043-.205-.126-.057-.084-.087-.172-.087-.26 0-.13.123-.488.37-1.072l.725-1.728c.083-.2.317-.75.697-1.647.26-.6.414-.984.465-1.153l.117-.638c.038-.208.11-.31.212-.31.103 0 .203.04.3.126.136.116.236.278.3.484.17.31.37.767.606 1.37.236.604.473 1.216.712 1.835h.494c.09 0 .17.015.237.048.068.03.102.084.102.155 0 .038-.017.067-.05.087-.102.032-.173.05-.21.058l-.37.087c.026.065.175.387.445.97.517 1.103.775 1.684.775 1.742zm-1.966-3.04c-.237-.524-.4-.874-.482-1.048-.233-.49-.466-.984-.697-1.482-.18.44-.358.875-.533 1.307-.07.155-.16.374-.266.654l-.323.856c.2-.03.597-.085 1.19-.16.595-.074.966-.117 1.114-.13zM52.653 4.707c-.077.652-.138 1.224-.18 1.718-.042.494-.063.916-.063 1.264l-.164 2.575c0 .484-.08.726-.242.726-.09 0-.158-.065-.203-.196-.046-.133-.068-.316-.068-.548l.058-1.878c-.11.09-.346.265-.707.522l-.94.668c-.192.137-.537.39-1.035.766-.704.53-1.136.793-1.298.793-.032 0-.068-.014-.106-.043-.038-.03-.055-.057-.05-.083.015-.063.42-.404 1.212-1.024.477-.37.852-.672 1.124-.91.193-.176.387-.35.58-.524.42-.368.672-.598.756-.687H51.2c-.323 0-.636-.02-.94-.06-.536-.09-.92-.216-1.153-.382-.232-.165-.348-.385-.348-.662 0-.638.383-1.256 1.15-1.85.73-.568 1.422-.852 2.075-.852.07 0 .125.003.163.01.336.032.505.252.505.66zm-.61.232c0-.077-.02-.15-.054-.22-.036-.066-.09-.1-.16-.1-.465 0-.98.227-1.545.682-.565.455-.847.893-.847 1.312 0 .18.03.31.087.388.122.155.38.262.775.32.128.02.374.043.735.072.362.03.62.044.776.044 0-.064.026-.294.077-.69.033-.243.05-.422.05-.53l.105-1.28z" fill="#1A1918"/><path d="M3.116 12.515h49.69v26.16H3.116v-26.16z" fill="#008CC1"/><path d="M49.002 22.2c-3.998-1.434-8.736-1.526-10.746-1.434-8.295.37-10.444 2.865-10.444 2.865s-.833-1.64-6.355-2.472c-9.958-1.34-14.764.994-14.764.994l3.673 2.703L6.716 35.9l5.66-7.994s2.934 3.997 5.015 6.816c6.31.393 7.58 1.225 10.4 2.797 2.957-2.636 10.328-2.82 10.328-2.82l5.06-6.816 5.73 7.9-3.72-10.93s.786-.6 3.814-2.655zM17.345 34.513L14.272 24.44l3.073-3.512v13.586zm20.773 0l.046-13.517 3.12 3.42-3.166 10.097z" fill="#1A1918"/><path d="M49.198 20.913C45.17 19.47 40.4 19.377 38.374 19.47c-8.356.372-10.52 2.886-10.52 2.886s-.838-1.652-6.4-2.49c-10.032-1.35-14.874 1-14.874 1l3.702 2.724-3.678 11.126 5.703-8.055s2.955 4.03 5.05 6.87c6.355.395 7.634 1.233 10.473 2.815 2.98-2.653 10.405-2.84 10.405-2.84l5.098-6.866 5.772 7.96-3.747-11.01s.79-.605 3.84-2.677zM17.31 33.32l-3.096-10.15 3.097-3.537V33.32zm20.925 0l.048-13.616 3.14 3.443-3.188 10.172zM13.73 17.253c0 .992-.805 1.796-1.797 1.796-.992 0-1.797-.805-1.797-1.797 0-.993.805-1.797 1.797-1.797.992 0 1.796.804 1.796 1.797M45.516 17.253c0 .992-.803 1.796-1.795 1.796-.992 0-1.795-.805-1.795-1.797 0-.993.803-1.797 1.796-1.797s1.796.804 1.796 1.797" fill="#FFF"/><path d="M8.707 40.785c0 .09-.007.147-.018.17-.013.026-.058.037-.137.037l-.458-.036c-.186.64-.34 1.237-.467 1.785-.126.55-.19 1.012-.19 1.39 0 .286.012.635.033 1.043.02.407.044.838.068 1.293v.18c0 .103-.013.172-.036.212-.024.04-.084.057-.18.057-.144 0-.232-.174-.265-.524-.033-.35-.06-.613-.077-.79-.017-.178-.036-.408-.053-.692-.018-.285-.027-.572-.027-.86 0-.55.077-1.16.234-1.824.09-.378.218-.82.386-1.33-.168-.02-.38-.04-.64-.068-.256-.027-.433-.04-.53-.04-.148 0-.4.047-.754.143-.227.066-.452.128-.674.188-.204.612-.398 1.53-.585 2.756-.184 1.225-.277 2.128-.277 2.71 0 .084-.027.16-.077.23-.05.068-.12.1-.203.1-.06 0-.104-.062-.134-.19-.03-.13-.046-.293-.046-.49 0-.234.02-.574.055-1.022.035-.446.08-.907.13-1.383.05-.48.127-1.057.23-1.74.04-.288.086-.58.134-.873h-.154c-.09 0-.162-.014-.216-.04-.054-.027-.08-.082-.08-.167 0-.06.057-.122.175-.188.117-.066.217-.11.3-.126 0-.108.028-.205.082-.288.054-.084.123-.126.207-.126.137 0 .24.024.305.072.065.05.106.123.125.225.162-.055.394-.105.697-.15.303-.045.555-.067.76-.067.472 0 .984.046 1.533.14.547.093.822.186.822.282M15.56 41.122c0 .035-.115.052-.343.052-.216 0-.467-.005-.755-.017-.287-.012-.52-.024-.7-.035-.594 0-1.23.072-1.906.215-.54.114-.962.24-1.268.377 0 .043-.007.146-.023.31-.014.165-.023.28-.023.347v.918c.24-.048.885-.145 1.934-.292 1.048-.147 1.663-.22 1.842-.22.03 0 .072.007.126.022.054.014.08.032.08.05 0 .13-.317.268-.952.413-.293.067-.647.135-1.06.207l-2.032.387-.18 2.266c.126-.036.376-.064.75-.087.376-.02.8-.03 1.273-.03.413 0 .808.027 1.182.08.374.054.562.126.562.216 0 .095-.228.147-.684.153-.455.005-.788.008-.997.008-.42 0-.79.04-1.115.118-.053.012-.275.075-.664.188-.078.025-.196.073-.355.145-.158.072-.273.108-.345.108-.073 0-.144-.033-.216-.1-.073-.065-.11-.146-.11-.24 0-.08.013-.142.037-.19.048-.072.087-.134.117-.19.06-.527.107-1 .144-1.42.036-.418.053-.727.053-.925-.07 0-.127-.042-.164-.126-.04-.083-.06-.17-.06-.26 0-.15.096-.234.288-.253.007-.035.01-.085.01-.152 0-.048-.003-.132-.01-.252-.005-.12-.008-.216-.008-.287 0-.21-.01-.426-.032-.648-.02-.222-.037-.42-.05-.594 0-.196.12-.295.36-.295.096 0 .176.005.237.014.065.008.112.027.142.057.455-.108.85-.198 1.186-.27.672-.144 1.157-.215 1.457-.215.443 0 .875.027 1.293.08.654.084.98.207.98.37M19.604 42.12c0 .373-.14.733-.423 1.08-.28.348-.628.583-1.04.7-.218.06-.475.107-.774.14-.3.034-.538.05-.72.05 0 .138-.01.387-.026.746-.048.966-.072 1.484-.072 1.555 0 .23-.03.407-.09.537-.06.128-.138.193-.234.193-.078 0-.127-.038-.148-.113-.02-.074-.032-.214-.032-.418v-.172l.02-2.517c0-.3-.014-.788-.038-1.463-.024-.678-.036-1.124-.036-1.34-.12 0-.2-.006-.242-.02-.12-.034-.18-.11-.18-.223 0-.15.14-.262.418-.337.28-.075.684-.113 1.218-.113.815 0 1.405.114 1.77.342.42.264.63.722.63 1.375zm-.485 0c0-.424-.13-.717-.383-.88-.255-.16-.71-.242-1.363-.242-.01 0-.113.004-.305.008-.193.007-.343.02-.45.037v2.517l.197.01c.12.005.225.007.315.007.18 0 .356-.01.53-.03.174-.02.333-.06.477-.113.268-.096.5-.274.69-.534.193-.262.29-.52.29-.78zM26.516 41.122c0 .035-.113.052-.34.052-.217 0-.47-.005-.756-.017-.288-.012-.522-.024-.702-.035-.592 0-1.228.072-1.905.215-.54.114-.962.24-1.268.377 0 .043-.008.146-.022.31-.016.165-.023.28-.023.347v.918c.24-.048.884-.145 1.933-.292 1.05-.147 1.664-.22 1.842-.22.03 0 .073.007.126.022.056.014.082.032.082.05 0 .13-.316.268-.952.413-.294.067-.648.135-1.06.207l-2.032.387-.18 2.266c.126-.036.375-.064.75-.087.375-.02.8-.03 1.272-.03.413 0 .808.027 1.182.08.375.054.562.126.562.216 0 .095-.228.147-.683.153-.454.005-.787.008-.997.008-.42 0-.79.04-1.114.118-.056.012-.277.075-.667.188-.078.025-.196.073-.355.145-.16.072-.274.108-.346.108-.07 0-.145-.033-.215-.1-.073-.065-.11-.146-.11-.24 0-.08.014-.142.038-.19.048-.072.087-.134.116-.19.06-.527.11-1 .145-1.42.035-.418.054-.727.054-.925-.073 0-.128-.042-.168-.126-.038-.083-.058-.17-.058-.26 0-.15.096-.234.288-.253.006-.035.01-.085.01-.152 0-.048-.004-.132-.01-.252s-.01-.216-.01-.287c0-.21-.01-.426-.03-.648-.02-.222-.038-.42-.05-.594 0-.196.12-.295.36-.295.096 0 .175.005.238.014.063.008.11.027.138.057.457-.108.852-.198 1.187-.27.673-.144 1.157-.215 1.457-.215.444 0 .875.027 1.294.08.653.084.98.207.98.37M32.737 41.577c0 .3-.012.75-.036 1.35-.022.604-.047 1.2-.07 1.787-.025.587-.036 1-.036 1.24 0 .077.002.165.008.26l.018.29c0 .125-.01.22-.03.286-.02.065-.066.098-.132.098-.15 0-.25-.165-.3-.498-.05-.332-.077-.772-.077-1.317v-.782c0-.238.005-.56.01-.96.005-.402.015-.833.027-1.295-.065.09-.255.43-.567 1.025-.042.078-.19.353-.44.826-.305.594-.494.944-.566 1.052-.24.36-.492.54-.756.54-.22 0-.47-.145-.745-.432-.247-.252-.474-.572-.684-.962-.138-.263-.25-.476-.333-.64-.126-.25-.227-.477-.306-.682-.082.51-.152.923-.206 1.24-.144.81-.273 1.44-.385 1.89-.164.652-.303.98-.416.98-.06 0-.106-.015-.14-.042-.032-.026-.048-.085-.048-.174v-.108c0-.114.05-.477.152-1.09.102-.61.206-1.224.315-1.84.13-.78.213-1.3.242-1.565.012-.08.022-.19.027-.337.006-.147.01-.25.01-.31v-.36c0-.09.003-.162.01-.217.03-.168.094-.252.196-.252.114-.012.225.126.333.414l.235.728c.065.16.15.387.25.674.15.426.313.808.487 1.146.174.34.338.626.495.858.24.36.425.54.556.54.102 0 .255-.164.46-.495.16-.263.323-.57.484-.925.138-.318.324-.686.557-1.106.193-.34.384-.683.576-1.025.15-.24.234-.37.252-.395.103-.144.182-.216.243-.216.143 0 .24.032.288.094.046.064.07.158.07.283 0 .073-.002.145-.008.217l-.018.207M40.117 41.122c0 .035-.114.052-.342.052-.216 0-.467-.005-.755-.017-.287-.012-.52-.024-.7-.035-.595 0-1.23.072-1.907.215-.54.114-.96.24-1.267.377 0 .043-.008.146-.023.31-.015.165-.022.28-.022.347v.918c.24-.048.885-.145 1.934-.292 1.048-.147 1.662-.22 1.842-.22.03 0 .072.007.127.022.053.014.08.032.08.05 0 .13-.318.268-.952.413-.294.067-.647.135-1.06.207l-2.032.387-.18 2.266c.126-.036.376-.064.75-.087.375-.02.8-.03 1.273-.03.414 0 .808.027 1.183.08.375.054.56.126.56.216 0 .095-.226.147-.682.153-.454.005-.786.008-.995.008-.42 0-.792.04-1.116.118-.055.012-.277.075-.666.188-.078.025-.196.073-.356.145-.158.072-.274.108-.345.108-.073 0-.144-.033-.216-.1-.072-.065-.108-.146-.108-.24 0-.08.01-.142.035-.19.048-.072.087-.134.117-.19.06-.527.108-1 .144-1.42.035-.418.054-.727.054-.925-.072 0-.128-.042-.167-.126-.04-.083-.06-.17-.06-.26 0-.15.098-.234.29-.253.005-.035.008-.085.008-.152 0-.048-.002-.132-.007-.252-.006-.12-.01-.216-.01-.287 0-.21-.01-.426-.03-.648-.022-.222-.04-.42-.05-.594 0-.196.12-.295.36-.295.095 0 .175.005.238.014.063.008.11.027.14.057.455-.108.85-.198 1.186-.27.67-.144 1.157-.215 1.456-.215.444 0 .875.027 1.295.08.654.084.98.207.98.37M45.82 41.026c-.163.588-.307 1.142-.432 1.663-.144.6-.217 1.078-.217 1.437 0 .29.012.636.033 1.044.02.407.043.84.068 1.294v.18c0 .084-.003.136-.01.153-.022.078-.092.117-.205.117-.138 0-.227-.175-.265-.525-.04-.352-.066-.607-.082-.766-.014-.16-.03-.364-.048-.616-.02-.25-.027-.452-.027-.602-.29.078-.584.137-.887.174-.302.04-.68.06-1.136.06-.313 0-.568-.006-.77-.018-.2-.012-.342-.04-.426-.08 0 .06-.03.373-.09.943s-.09.935-.09 1.096c0 .086-.025.162-.076.23-.05.07-.12.104-.202.104-.06 0-.105-.064-.135-.192-.03-.13-.045-.293-.045-.49 0-.217.014-.557.04-1.022.028-.463.042-.706.042-.723-.085 0-.164-.008-.24-.023-.073-.015-.132-.02-.174-.02-.084 0-.156-.032-.215-.092-.06-.06-.09-.128-.09-.206 0-.085.056-.15.17-.2.156-.064.372-.098.648-.098.07-.257.143-.598.216-1.024.1-.605.152-1.142.152-1.61 0-.065.03-.153.09-.265.06-.11.12-.167.18-.167.12 0 .198.044.233.13.036.088.054.215.054.382v.27c0 .23-.053.657-.16 1.286-.072.433-.14.8-.207 1.097.31.054.52.09.624.105.106.014.287.02.544.02.085 0 .26.007.523.015l.656.023c.322 0 .577-.02.763-.063.174-1.186.267-1.808.28-1.86.19-.966.404-1.448.637-1.448.072 0 .136.028.193.084.057.057.087.125.087.202M52.322 46.845c0 .138-.036.208-.108.208-.084 0-.183-.078-.297-.235-.143-.19-.332-.505-.566-.942-.232-.438-.463-.912-.69-1.422-.205.03-.567.097-1.09.198l-1.068.216c-.048.013-.078.018-.09.018-.06 0-.153-.06-.278-.18l-.45 1.017c-.067.12-.135.272-.207.458-.073.187-.107.32-.107.404 0 .067-.033.122-.096.167-.062.046-.124.068-.184.068-.07 0-.134-.038-.188-.115-.054-.08-.08-.16-.08-.244 0-.12.113-.453.34-.994l.675-1.604.647-1.53c.24-.556.383-.913.43-1.07.037-.203.073-.4.11-.59.035-.194.1-.29.197-.29.096 0 .19.04.28.116.125.11.218.26.278.45.156.288.343.712.562 1.273.22.56.44 1.13.66 1.704h.46c.084 0 .156.015.22.045.063.03.094.077.094.144 0 .034-.015.06-.045.08-.097.03-.164.047-.198.054l-.343.08c.023.06.16.36.413.9.48 1.024.72 1.563.72 1.617zm-1.824-2.822c-.223-.485-.372-.808-.45-.97l-.648-1.376c-.167.407-.33.812-.494 1.213-.066.145-.148.346-.247.608-.1.26-.2.525-.302.796.186-.03.554-.08 1.106-.15.55-.07.895-.11 1.034-.12z" fill="#1A1918"/></g></symbol><symbol id="icon-ok" viewBox="0 0 19 32">
    <!-- Generator: Sketch 3.3.3 (12072) - http://www.bohemiancoding.com/sketch -->
    <title>odnoklassniki</title>
    <desc>Created with Sketch.</desc>
    
    <g id="Page-1" stroke="none" stroke-width="1" sketch:type="MSPage">
        <path d="M9.25001007,4.83066372 C11.1322373,4.83066372 12.6628262,6.3614992 12.6628262,8.24367713 C12.6628262,10.1239317 11.1322373,11.6549151 9.25001007,11.6549151 C7.3697555,11.6549151 5.83724323,10.1239317 5.83724323,8.24367713 C5.83724323,6.3614992 7.3697555,4.83066372 9.25001007,4.83066372 L9.25001007,4.83066372 L9.25001007,4.83066372 Z M9.25001007,16.4836554 C13.7965519,16.4836554 17.4925036,12.7876544 17.4925036,8.24367713 C17.4925036,3.69752985 13.7965519,0 9.25001007,0 C4.7045039,0 1.00756587,3.69752985 1.00756587,8.24367713 C1.00756587,12.7876544 4.7045039,16.4836554 9.25001007,16.4836554 L9.25001007,16.4836554 L9.25001007,16.4836554 Z M12.5848049,23.2076924 C14.2627564,22.8252794 15.881033,22.1616051 17.3711316,21.2251026 C18.4991364,20.5142308 18.8391357,19.023343 18.1282639,17.8953876 C17.4183291,16.7649168 15.9282304,16.4248682 14.7983022,17.1357401 C11.4221295,19.2591331 7.0750302,19.2581961 3.70078086,17.1357401 C2.57090199,16.4248682 1.08075401,16.7649168 0.371805568,17.8953876 C-0.339066283,19.0240828 -3.98381299e-06,20.5142308 1.12795148,21.2251026 C2.61809946,22.1604214 4.23632668,22.8252794 5.9143275,23.2076924 L1.30613797,27.8156353 C0.364111936,28.7586477 0.364111936,30.2873132 1.30712433,31.2303255 C1.77909905,31.7013632 2.39656232,31.9373506 3.01397627,31.9373506 C3.63237659,31.9373506 4.2507769,31.7013632 4.72280094,31.2303255 L9.24907302,26.70213 L13.7791919,31.2303255 C14.7212673,32.1733873 16.2499327,32.1733873 17.1929451,31.2303255 C18.1369439,30.2873132 18.1369439,28.7579079 17.1929451,27.8156353 L12.5848049,23.2076924 L12.5848049,23.2076924 Z" id="odnoklassniki" sketch:type="MSShapeGroup"/>
    </g>
</symbol><symbol id="pic-logo-small" viewBox="0 0 82 42"><title>Group</title><g fill="none" fill-rule="evenodd"><path d="M80.814 12.91c-7.59-2.722-16.587-2.897-20.403-2.722-15.75.702-19.83 5.44-19.83 5.44S39 12.514 28.513 10.935C9.604 8.39.48 12.82.48 12.82l6.975 5.133L.522 38.926l10.75-15.18s5.57 7.59 9.52 12.942c11.98.746 14.39 2.326 19.744 5.31 5.616-5.003 19.612-5.353 19.612-5.353l9.61-12.942 10.88 15.004-7.065-20.754s1.492-1.14 7.24-5.044zm-60.11 23.383l-5.834-19.13 5.835-6.667v25.797zm39.444 0l.086-25.665 5.923 6.492-6.01 19.173z" fill="#1A1918"/><path d="M81.187 10.467c-7.648-2.74-16.707-2.915-20.552-2.74-15.866.707-19.976 5.48-19.976 5.48S39.07 10.07 28.505 8.48C9.46 5.915.266 10.38.266 10.38l7.03 5.17L.31 36.676l10.83-15.292s5.61 7.647 9.59 13.04c12.065.75 14.494 2.343 19.885 5.346 5.658-5.038 19.755-5.392 19.755-5.392l9.68-13.038 10.96 15.115-7.115-20.904s1.5-1.15 7.292-5.083zM20.64 34.023l-5.878-19.267 5.878-6.72v25.987zm39.73 0l.09-25.852 5.965 6.54-6.055 19.313zM13.84 3.518c0 1.883-1.527 3.41-3.41 3.41-1.883 0-3.41-1.527-3.41-3.41 0-1.886 1.527-3.412 3.41-3.412 1.883 0 3.41 1.526 3.41 3.412M74.196 3.518c0 1.883-1.525 3.41-3.41 3.41-1.884 0-3.41-1.527-3.41-3.41 0-1.886 1.526-3.412 3.41-3.412 1.885 0 3.41 1.526 3.41 3.412" fill="#FFF"/></g></symbol><symbol id="icon-twitter" viewBox="0 0 32 26">
    <!-- Generator: Sketch 3.3.3 (12072) - http://www.bohemiancoding.com/sketch -->
    <title>Shape</title>
    <desc>Created with Sketch.</desc>
    
    <g id="Page-1" stroke="none" stroke-width="1" sketch:type="MSPage">
        <path d="M31.52832,3.03296 C30.36928,3.54816 29.12192,3.89568 27.81312,4.0512 C29.14944,3.2512 30.17408,1.984 30.65728,0.47232 C29.40736,1.21408 28.02368,1.75232 26.54976,2.04288 C25.37024,0.78592 23.68896,0 21.82848,0 C18.25664,0 15.36064,2.896 15.36064,6.46848 C15.36064,6.97472 15.4176,7.46816 15.52832,7.9424 C10.15232,7.67232 5.3856,5.0976 2.1952,1.184 C1.6384,2.13888 1.31968,3.24992 1.31968,4.43648 C1.31968,6.68032 2.46144,8.66048 4.19712,9.82016 C3.13728,9.78624 2.13952,9.49504 1.2672,9.01056 C1.26656,9.03744 1.26656,9.06496 1.26656,9.09248 C1.26656,12.22592 3.49632,14.83968 6.45568,15.43488 C5.91296,15.58208 5.34144,15.66144 4.75136,15.66144 C4.33408,15.66144 3.92896,15.62112 3.53408,15.54496 C4.35776,18.11456 6.74624,19.98528 9.57632,20.03712 C7.36256,21.77216 4.57408,22.8064 1.54304,22.8064 C1.02144,22.8064 0.50624,22.77568 0,22.71552 C2.86336,24.55168 6.26304,25.62176 9.91552,25.62176 C21.81376,25.62176 28.31936,15.76576 28.31936,7.21792 C28.31936,6.9376 28.3136,6.65792 28.30144,6.38016 C29.5648,5.47008 30.66176,4.33024 31.52832,3.03296 L31.52832,3.03296 Z" id="Shape" sketch:type="MSShapeGroup"/>
    </g>
</symbol><symbol id="pic-logo" viewBox="0 0 200 180"><title>logo_BP</title><g fill="none" fill-rule="evenodd"><path d="M.036.35h199.686v178.7H.036V.35z" fill="#FFF"/><path d="M33.885 14.718c0 .345-.023.568-.07.657-.044.094-.22.14-.52.14-.322 0-1.75-.05-4.288-.157-2.538-.104-3.956-.156-4.254-.156-.417 0-1.4.124-2.956.38-1.56.252-3.122.54-4.685.865 0 1.638-.107 3.35-.31 5.135-.21 1.787-.42 3.592-.623 5.414 1.288-.253 2.588-.46 3.902-.625 1.317-.158 2.376-.234 3.185-.234 2.237 0 4.132.66 5.688 1.984 1.555 1.327 2.337 3 2.337 5.03 0 2.125-1.653 3.843-4.948 5.157-2.514.988-4.785 1.486-6.815 1.486-.506 0-.997.01-1.47.035-.474.02-.917.045-1.332.07-.833 0-1.462-.05-1.9-.14-.44-.093-.658-.266-.658-.517 0-.232.08-.425.24-.59-.25-.735-.434-1.858-.55-3.372-.12-1.508-.178-3.36-.178-5.55-.435 0-.767-.025-1-.07-.666-.138-1.002-.438-1.002-.895 0-.44.207-.754.622-.936.16-.07.623-.184 1.38-.35 0-.643.048-1.576.142-2.797.228-3.068.346-5.61.346-7.646-.602-.09-.958-.15-1.072-.172-.464-.138-.696-.415-.696-.83 0-.228.225-.47.678-.726.45-.253.837-.404 1.158-.45 0-.44.105-.82.312-1.14.207-.326.474-.485.795-.485.55 0 .95.098 1.193.296.242.196.398.48.467.846.602-.206 1.7-.397 3.302-.573 1.604-.172 2.856-.257 3.755-.257 2.766 0 4.806.048 6.124.137 2.465.183 3.7.533 3.7 1.038zm-4.74 18.433c0-1.565-.692-2.828-2.074-3.784-1.382-.96-3.09-1.436-5.12-1.436-1.152 0-2.19.1-3.113.31-.573.14-1.462.42-2.658.83-.213 1.498-.316 3.286-.316 5.364 0 .53.052 1.245.156 2.143.103.9.16 1.442.16 1.626h3.35c1.545 0 3.446-.498 5.708-1.488 2.606-1.155 3.906-2.34 3.906-3.564zM58.64 26.612c0 3.07-1.256 5.813-3.77 8.237-2.513 2.42-5.394 3.63-8.648 3.63-2.627 0-4.637-1.108-6.016-3.32-1.273-2.033-1.9-4.716-1.9-8.06 0-2.17.793-4.5 2.385-7.002 1.59-2.503 3.157-3.755 4.703-3.755.854 0 1.455.166 1.815.502.356.335.536.836.536 1.503 0 .74-.145 1.353-.433 1.834-.29.483-.614.726-.984.726-.14 0-.207-.09-.207-.273 0-.07.033-.243.102-.523.07-.277.104-.47.104-.587 0-.23-.093-.436-.276-.623-.253-.252-.578-.38-.972-.38-.757 0-1.646.892-2.66 2.66-1.13 1.962-1.693 3.958-1.693 5.987 0 2.19.32 4.048.968 5.567 1.037 2.468 2.79 3.703 5.256 3.703 2.65 0 4.936-1.01 6.865-3.03 1.923-2.017 2.884-4.34 2.884-6.97 0-1.543-.33-2.984-1.004-4.32-.576-1.13-1.922-2.25-4.045-3.356-1.96-1.014-2.938-1.673-2.938-1.97 0-.23.058-.437.173-.623.117-.182.3-.277.553-.277.715 0 1.878.45 3.495 1.35 1.982 1.105 3.375 2.33 4.185 3.665.577.927.975 1.825 1.193 2.697.215.878.33 1.88.33 3.007M84.942 39.17c0 .533-.142.795-.42.795-.32 0-.704-.3-1.143-.898-.714-.944-1.775-2.88-3.18-5.81-.763-1.638-1.52-3.284-2.28-4.947-.855-1.867-1.436-3.108-1.733-3.73-.827-1.753-1.66-3.52-2.49-5.294-.646 1.565-1.28 3.125-1.902 4.668-.252.532-.532 1.21-.83 2.043-.69 1.84-1.12 2.96-1.28 3.354l-2.592 5.5c-.256.462-.523 1.05-.795 1.76-.28.718-.42 1.236-.42 1.558 0 .256-.12.463-.36.644-.244.168-.478.255-.71.255-.274 0-.516-.148-.723-.45-.212-.296-.312-.61-.312-.932 0-.46.436-1.736 1.31-3.825.88-2.085 1.744-4.142 2.598-6.168.302-.72 1.128-2.677 2.487-5.882.924-2.147 1.48-3.517 1.663-4.12.138-.78.277-1.54.41-2.28.143-.736.396-1.108.765-1.108.37 0 .726.154 1.073.45.484.415.843.993 1.07 1.73.716 1.317 1.502 3.105 2.356 5.363 1.175 3.133 1.958 5.166 2.352 6.085.622 1.456 1.337 3.046 2.143 4.775.666 1.452 1.323 2.884 1.97 4.288.644 1.408.972 2.134.972 2.178M107.664 33.072c0 2.122-1.65 3.842-4.944 5.15-2.513.997-4.784 1.488-6.814 1.488h-.83c-.554 0-1.09-.027-1.612-.082-.515-.06-.937-.146-1.26-.26-1.43 0-2.144-3.24-2.144-9.72-.44 0-.77-.02-1.004-.07-.667-.138-1-.435-1-.9 0-.437.205-.748.624-.93.162-.07.62-.188 1.38-.347 0-.645.092-2.592.278-5.843.184-3.254.278-5.525.278-6.814 0-.37.106-.73.323-1.076.222-.342.48-.518.782-.518.528 0 .954.334 1.28 1 .32.672.483 1.412.483 2.217 0 .692-.16 2.563-.467 5.602-.31 3.045-.468 4.68-.468 4.912.945-.16 1.903-.325 2.87-.484 1.616-.232 3.024-.346 4.22-.346 2.237 0 4.134.664 5.69 1.988 1.557 1.326 2.334 3.006 2.334 5.032zm-2.143 0c0-1.567-.69-2.83-2.078-3.786-1.38-.96-3.086-1.435-5.117-1.435-1.155 0-2.19.104-3.112.31-.573.14-1.462.417-2.663.83-.206 1.5-.31 3.286-.31 5.36l.484 3.528c.643.07 1.218.13 1.712.173.494.05.985.073 1.47.073 1.542 0 3.447-.495 5.71-1.49 2.6-1.152 3.905-2.337 3.905-3.56zM140.167 16.143c-.668 2.257-1.26 4.433-1.763 6.517-.508 2.086-.762 3.89-.762 5.412v9.2c.416.046.654.07.728.07.3-.024.483-.034.55-.034.097 0 .144.138.144.418 0 .598-.073.965-.21 1.103-.14.136-.46.206-.97.206-1.267 0-2.84-.038-4.722-.12-1.878-.08-3.822-.156-5.825-.225h-10.205c-.37.024-.657.035-.863.035-.462 0-.836-.074-1.126-.205-.287-.14-.432-.407-.432-.794 0-.166.13-.305.397-.418.266-.12.604-.174 1.023-.174-.05-.23-.072-.587-.072-1.075 0-1.288.044-2.65.14-4.077.09-1.432.275-3.123.555-5.087.412-2.213.712-3.84.895-4.875.345-1.89.52-3.643.52-5.254 0-.257.117-.595.348-1.024.228-.422.456-.637.69-.637.462 0 .76.166.9.502.14.33.21.822.21 1.47v1.037c0 .76-.258 2.49-.767 5.186-.32 1.683-.537 3.01-.654 3.976-.254 1.867-.495 3.752-.727 5.657-.233 1.9-.346 3.278-.346 4.132l2.178-.104c.81-.068 1.605-.098 2.385-.098.464 0 1.098.007 1.903.03.81.025 1.36.032 1.663.032-.138-.713-.25-1.57-.33-2.574-.078-1-.12-2.046-.12-3.132 0-.574.097-1.66.295-3.25.196-1.59.456-3.225.777-4.91.227-1.22.45-2.504.658-3.838.112-.74.223-1.47.323-2.2.108-.725.315-1.265.626-1.625.313-.355.688-.532 1.124-.532.185 0 .36.09.52.274.16.186.242.39.242.625 0 .318-.1 1.113-.312 2.387-.207 1.264-.48 2.875-.808 4.82-.34 1.95-.565 3.27-.68 3.96-.458 2.54-.69 3.97-.69 4.288 0 .88-.01 1.605-.035 2.183l-.137 3.56c1.822 0 3.387.012 4.7.036 1.315.024 2.47.044 3.463.07-.05-.163-.07-.336-.07-.52V36.1c0-.164.01-.476.034-.935.02-.46.035-.864.035-1.21V27.8c0-2.886.306-5.628.932-8.233.716-3.024 1.566-4.534 2.562-4.534.273 0 .526.104.758.315.23.203.345.47.345.795M166.49 38.418c0 .53-.137.794-.41.794-.33 0-.71-.3-1.145-.898-.554-.74-1.28-1.95-2.178-3.63-.9-1.69-1.788-3.506-2.667-5.467-.78.117-2.175.37-4.183.76-1.246.256-2.617.53-4.115.834-.187.04-.3.066-.346.066-.23 0-.587-.232-1.076-.692l-1.725 3.91c-.256.46-.52 1.05-.798 1.764-.273.716-.41 1.23-.41 1.557 0 .252-.123.466-.364.636-.243.173-.478.264-.71.264-.28 0-.52-.154-.73-.45-.203-.3-.31-.613-.31-.933 0-.463.44-1.736 1.317-3.824l2.593-6.172c.297-.716 1.13-2.672 2.49-5.882.923-2.144 1.476-3.512 1.66-4.115.138-.783.276-1.542.418-2.28.135-.742.388-1.108.757-1.108.367 0 .726.148 1.073.45.484.414.84.99 1.07 1.727.604 1.108 1.322 2.74 2.163 4.894.844 2.158 1.69 4.343 2.545 6.556h1.763c.323 0 .606.055.848.173.243.112.363.3.363.553 0 .137-.057.24-.175.31-.367.114-.62.183-.756.208l-1.32.31c.094.234.627 1.385 1.59 3.463 1.847 3.943 2.77 6.016 2.77 6.225zm-7.023-10.862c-.85-1.867-1.427-3.115-1.725-3.738-.833-1.75-1.663-3.512-2.49-5.29-.648 1.57-1.282 3.126-1.905 4.668-.252.553-.57 1.335-.95 2.338-.38 1.003-.765 2.022-1.16 3.06.717-.114 2.135-.304 4.254-.572 2.125-.265 3.45-.417 3.977-.466zM188.046 16.81c-.276 2.33-.492 4.373-.64 6.138-.152 1.763-.228 3.27-.228 4.514l-.585 9.198c0 1.73-.29 2.594-.863 2.594-.325 0-.565-.236-.726-.705-.167-.476-.246-1.13-.246-1.96l.206-6.706c-.39.324-1.234.947-2.523 1.866-1.846 1.314-2.962 2.11-3.353 2.387-.692.487-1.923 1.396-3.7 2.735-2.514 1.89-4.06 2.83-4.637 2.83-.113 0-.242-.047-.38-.15-.135-.105-.194-.205-.172-.298.048-.23 1.49-1.448 4.325-3.662 1.704-1.317 3.042-2.4 4.014-3.254.688-.622 1.38-1.245 2.072-1.867 1.5-1.313 2.398-2.133 2.698-2.453h-.453c-1.15 0-2.27-.07-3.35-.208-1.918-.323-3.29-.78-4.122-1.37-.83-.59-1.244-1.377-1.244-2.366 0-2.28 1.372-4.487 4.114-6.607 2.607-2.03 5.076-3.046 7.406-3.046.253 0 .45.014.584.04 1.2.113 1.802.898 1.802 2.35zm-2.182.83c0-.274-.062-.536-.19-.778-.125-.242-.315-.363-.567-.363-1.66 0-3.502.81-5.52 2.437-2.014 1.625-3.024 3.188-3.024 4.685 0 .647.104 1.11.31 1.386.44.553 1.36.934 2.77 1.14.458.07 1.336.157 2.624.26 1.294.104 2.213.156 2.77.156 0-.227.09-1.05.274-2.46.118-.873.178-1.51.178-1.9l.376-4.563z" fill="#1A1918"/><path d="M11.13 44.696h177.463v93.434H11.13V44.696z" fill="#008CC1"/><path d="M175.007 79.28c-14.277-5.117-31.2-5.445-38.377-5.117-29.625 1.32-37.303 10.235-37.303 10.235s-2.973-5.86-22.694-8.832c-35.566-4.785-52.73 3.548-52.73 3.548l13.12 9.654-13.04 39.45 20.22-28.554S54.68 113.94 62.11 124.008c22.53 1.404 27.068 4.375 37.136 9.987 10.563-9.41 36.89-10.068 36.89-10.068l18.073-24.342 20.465 28.22-13.29-39.037s2.81-2.144 13.622-9.487zM61.945 123.266L50.97 87.285l10.975-12.542v48.522zm74.19 0l.163-48.275 11.14 12.21-11.303 36.065z" fill="#1A1918"/><path d="M175.708 74.688c-14.384-5.15-31.423-5.483-38.657-5.15C107.21 70.862 99.48 79.843 99.48 79.843s-2.992-5.903-22.86-8.894c-35.827-4.823-53.116 3.572-53.116 3.572l13.22 9.73-13.137 39.732 20.37-28.764s10.552 14.384 18.034 24.53c22.696 1.41 27.264 4.404 37.404 10.054 10.643-9.474 37.16-10.14 37.16-10.14L154.76 95.14l20.61 28.43-13.38-39.32s2.825-2.162 13.716-9.562zM61.824 118.996L50.766 82.754l11.058-12.637v48.88zm74.73 0l.17-48.626 11.22 12.3-11.39 36.326zM49.033 61.618c0 3.54-2.873 6.415-6.414 6.415-3.544 0-6.418-2.874-6.418-6.415 0-3.548 2.874-6.418 6.417-6.418 3.54 0 6.413 2.87 6.413 6.418M162.56 61.618c0 3.54-2.87 6.415-6.414 6.415-3.545 0-6.415-2.874-6.415-6.415 0-3.548 2.87-6.418 6.416-6.418 3.544 0 6.413 2.87 6.413 6.418" fill="#FFF"/><path d="M31.095 145.66c0 .326-.025.526-.062.613-.045.087-.204.128-.488.128l-1.635-.127c-.664 2.29-1.217 4.415-1.667 6.373-.45 1.96-.674 3.61-.674 4.958 0 1.026.037 2.272.113 3.727.07 1.454.153 2.995.24 4.62v.643c0 .367-.047.616-.13.758-.085.14-.3.205-.643.205-.514 0-.83-.622-.947-1.874-.118-1.25-.21-2.192-.273-2.824-.063-.633-.13-1.455-.19-2.472-.066-1.017-.097-2.04-.097-3.07 0-1.964.277-4.14.837-6.515.318-1.35.777-2.933 1.376-4.752-.6-.065-1.36-.145-2.283-.24-.916-.1-1.55-.148-1.89-.148-.533 0-1.436.174-2.698.516-.812.24-1.615.46-2.406.674-.73 2.186-1.422 5.464-2.09 9.84-.66 4.38-.992 7.604-.992 9.68 0 .3-.093.573-.273.82-.183.244-.426.365-.726.365-.215 0-.37-.228-.48-.684-.105-.462-.16-1.045-.16-1.753 0-.833.065-2.047.193-3.644.124-1.594.283-3.24.463-4.94.183-1.706.457-3.773.82-6.215.15-1.026.31-2.067.484-3.115h-.55c-.322 0-.577-.048-.77-.144-.19-.096-.288-.294-.288-.596 0-.216.207-.437.626-.672.418-.236.778-.387 1.076-.45 0-.386.096-.73.29-1.027.193-.3.438-.452.74-.452.487 0 .854.087 1.09.26.233.172.382.44.448.8.578-.192 1.407-.368 2.49-.527 1.082-.163 1.98-.243 2.71-.243 1.69 0 3.516.167 5.477.498 1.954.334 2.935.668 2.935 1.01M55.57 146.864c0 .125-.41.187-1.225.187-.77 0-1.667-.016-2.694-.06-1.026-.043-1.862-.085-2.502-.126-2.12 0-4.388.256-6.805.767-1.93.41-3.437.86-4.53 1.35 0 .153-.024.518-.082 1.108-.048.587-.08 1-.08 1.237v3.274c.858-.17 3.16-.52 6.906-1.042 3.745-.525 5.94-.788 6.58-.788.107 0 .256.025.45.08.193.05.29.113.29.175 0 .47-1.138.962-3.406 1.477-1.045.236-2.31.48-3.786.737l-7.254 1.382-.64 8.09c.446-.127 1.337-.227 2.676-.307 1.342-.072 2.856-.11 4.543-.11 1.476 0 2.886.096 4.22.287 1.34.193 2.01.45 2.01.773 0 .34-.816.525-2.444.547-1.626.02-2.815.03-3.562.03-1.497 0-2.825.14-3.98.417-.193.043-.985.268-2.375.673-.28.09-.703.258-1.27.515-.567.256-.98.384-1.234.384-.26 0-.516-.118-.77-.353-.26-.237-.39-.527-.39-.866 0-.28.043-.505.13-.673.172-.26.31-.48.418-.675.214-1.887.384-3.575.515-5.072.127-1.497.19-2.603.19-3.31-.256 0-.458-.148-.592-.448-.14-.297-.21-.61-.21-.93 0-.537.34-.834 1.025-.902.025-.126.035-.305.035-.543 0-.17-.01-.47-.035-.9-.02-.425-.03-.77-.03-1.026 0-.75-.038-1.522-.114-2.314-.074-.792-.133-1.497-.174-2.12 0-.705.425-1.056 1.283-1.056.34 0 .625.017.845.047.226.035.394.1.502.21 1.625-.385 3.04-.707 4.236-.963 2.4-.515 4.132-.77 5.204-.77 1.583 0 3.125.096 4.62.29 2.333.297 3.502.736 3.502 1.317M70.015 150.433c0 1.328-.505 2.614-1.51 3.85-1.004 1.246-2.248 2.083-3.722 2.508-.774.21-1.694.378-2.762.496-1.068.12-1.922.178-2.565.178 0 .492-.038 1.38-.097 2.663-.173 3.452-.26 5.3-.26 5.554 0 .817-.106 1.454-.318 1.916-.217.456-.494.69-.836.69-.28 0-.453-.136-.53-.403-.075-.265-.113-.766-.113-1.493v-.612l.07-8.987c0-1.07-.048-2.818-.134-5.23-.087-2.422-.128-4.015-.128-4.786-.426 0-.72-.02-.865-.065-.43-.13-.644-.395-.644-.804 0-.536.498-.934 1.493-1.202.996-.267 2.44-.402 4.35-.402 2.91 0 5.017.405 6.324 1.22 1.497.942 2.248 2.58 2.248 4.91zm-1.733 0c0-1.518-.456-2.566-1.365-3.147-.91-.574-2.53-.865-4.866-.865-.04 0-.403.016-1.088.03-.687.023-1.224.068-1.604.13v8.99c.04 0 .273.01.702.035.43.02.806.028 1.124.028.643 0 1.273-.035 1.895-.112.62-.07 1.188-.205 1.703-.398.96-.344 1.785-.98 2.47-1.91.687-.933 1.03-1.86 1.03-2.78zM94.7 146.864c0 .125-.405.187-1.218.187-.77 0-1.67-.016-2.697-.06-1.027-.043-1.863-.085-2.507-.126-2.115 0-4.385.256-6.804.767-1.926.41-3.434.86-4.526 1.35 0 .153-.028.518-.08 1.108-.056.587-.083 1-.083 1.237v3.274c.857-.17 3.157-.52 6.905-1.042 3.744-.525 5.94-.788 6.58-.788.106 0 .26.025.45.08.194.05.288.113.288.175 0 .47-1.13.962-3.4 1.477-1.05.236-2.314.48-3.79.737l-7.254 1.382-.643 8.09c.45-.127 1.342-.227 2.68-.307 1.338-.072 2.853-.11 4.544-.11 1.476 0 2.884.096 4.22.287 1.34.193 2.008.45 2.008.773 0 .34-.813.525-2.44.547-1.624.02-2.813.03-3.564.03-1.497 0-2.825.14-3.98.417-.197.043-.985.268-2.38.673-.275.09-.697.258-1.264.515-.57.256-.978.384-1.237.384-.253 0-.516-.118-.768-.353-.26-.237-.39-.527-.39-.866 0-.28.047-.505.133-.673.17-.26.308-.48.415-.675.214-1.887.384-3.575.51-5.072.13-1.497.195-2.603.195-3.31-.256 0-.453-.148-.595-.448-.138-.297-.207-.61-.207-.93 0-.537.343-.834 1.028-.902.02-.126.03-.305.03-.543 0-.17-.01-.47-.03-.9-.02-.425-.032-.77-.032-1.026 0-.75-.037-1.522-.11-2.314-.076-.792-.135-1.497-.18-2.12 0-.705.43-1.056 1.286-1.056.343 0 .626.017.85.047.226.035.39.1.495.21 1.63-.385 3.04-.707 4.24-.963 2.4-.515 4.13-.77 5.2-.77 1.587 0 3.127.096 4.625.29 2.33.297 3.497.736 3.497 1.317M116.918 148.49c0 1.067-.042 2.68-.128 4.826-.082 2.153-.173 4.277-.256 6.377-.087 2.095-.128 3.574-.128 4.425 0 .28.01.592.03.934.02.345.043.687.063 1.03 0 .45-.038.79-.112 1.027-.07.23-.232.35-.466.35-.537 0-.892-.593-1.075-1.783-.18-1.185-.27-2.756-.27-4.702v-2.794c0-.852.01-2 .03-3.432.018-1.435.053-2.975.098-4.623-.235.322-.914 1.54-2.026 3.66-.15.278-.676 1.26-1.572 2.95-1.09 2.123-1.767 3.372-2.022 3.76-.858 1.283-1.757 1.925-2.7 1.925-.79 0-1.678-.516-2.66-1.542-.882-.9-1.693-2.043-2.444-3.434-.49-.94-.89-1.7-1.186-2.282-.45-.895-.812-1.708-1.092-2.44-.297 1.822-.547 3.298-.74 4.432-.513 2.89-.975 5.14-1.376 6.743-.58 2.333-1.076 3.5-1.48 3.5-.216 0-.38-.05-.5-.146-.117-.093-.172-.304-.172-.622v-.387c0-.404.176-1.7.543-3.885.363-2.183.735-4.377 1.122-6.58.47-2.784.762-4.644.865-5.585.045-.283.08-.68.097-1.206.02-.522.035-.892.035-1.107v-1.286c0-.32.01-.577.033-.77.107-.598.34-.9.702-.9.41-.04.803.45 1.19 1.48.28.88.557 1.744.837 2.602.23.573.536 1.378.895 2.405.537 1.52 1.113 2.885 1.735 4.094.624 1.21 1.207 2.236 1.768 3.065.854 1.286 1.518 1.93 1.988 1.93.362 0 .91-.59 1.638-1.768.578-.94 1.155-2.043 1.733-3.305.49-1.138 1.154-2.452 1.988-3.952.688-1.217 1.372-2.438 2.056-3.658.537-.858.838-1.328.9-1.41.367-.516.65-.772.867-.772.513 0 .856.114 1.03.336.167.227.254.562.254 1.01 0 .258-.01.517-.03.774-.022.255-.046.5-.066.74M143.276 146.864c0 .125-.407.187-1.222.187-.77 0-1.67-.016-2.697-.06-1.026-.043-1.86-.085-2.503-.126-2.123 0-4.386.256-6.808.767-1.926.41-3.432.86-4.526 1.35 0 .153-.027.518-.08 1.108-.055.587-.078 1-.078 1.237v3.274c.857-.17 3.156-.52 6.9-1.042 3.746-.525 5.937-.788 6.582-.788.106 0 .258.025.453.08.19.05.286.113.286.175 0 .47-1.135.962-3.402 1.477-1.05.236-2.312.48-3.79.737l-7.254 1.382-.642 8.09c.45-.127 1.34-.227 2.68-.307 1.338-.072 2.85-.11 4.543-.11 1.475 0 2.883.096 4.22.287 1.34.193 2.007.45 2.007.773 0 .34-.813.525-2.44.547-1.627.02-2.812.03-3.56.03-1.5 0-2.827.14-3.982.417-.194.043-.986.268-2.375.673-.28.09-.702.258-1.27.515-.567.256-.983.384-1.234.384-.26 0-.515-.118-.77-.353-.26-.237-.388-.527-.388-.866 0-.28.044-.505.128-.673.172-.26.31-.48.418-.675.215-1.887.388-3.575.515-5.072.126-1.497.194-2.603.194-3.31-.26 0-.458-.148-.6-.448-.138-.297-.207-.61-.207-.93 0-.537.344-.834 1.03-.902.018-.126.03-.305.03-.543 0-.17-.012-.47-.03-.9-.02-.425-.034-.77-.034-1.026 0-.75-.04-1.522-.114-2.314-.073-.792-.135-1.497-.173-2.12 0-.705.428-1.056 1.282-1.056.342 0 .627.017.852.047.224.035.39.1.497.21 1.626-.385 3.04-.707 4.236-.963 2.397-.515 4.132-.77 5.2-.77 1.587 0 3.126.096 4.626.29 2.335.297 3.5.736 3.5 1.317M163.64 146.52c-.58 2.1-1.094 4.078-1.54 5.94-.516 2.142-.776 3.854-.776 5.136 0 1.03.04 2.273.114 3.728l.242 4.62v.643c0 .3-.014.483-.034.547-.082.275-.332.417-.736.417-.49 0-.81-.624-.947-1.875-.14-1.253-.236-2.165-.29-2.732-.052-.568-.11-1.3-.174-2.2-.067-.896-.098-1.615-.098-2.15-1.03.277-2.084.487-3.167.622-1.08.14-2.43.21-4.056.21-1.118 0-2.03-.017-2.75-.062-.716-.042-1.224-.138-1.524-.287 0 .215-.108 1.336-.32 3.37-.213 2.032-.32 3.34-.32 3.916 0 .3-.09.574-.274.82-.182.245-.425.37-.722.37-.215 0-.374-.232-.48-.688-.108-.463-.164-1.045-.164-1.75 0-.775.05-1.988.146-3.648.097-1.657.146-2.522.146-2.583-.302 0-.585-.028-.855-.083-.263-.052-.474-.076-.622-.076-.3 0-.56-.11-.77-.322-.216-.214-.322-.46-.322-.74 0-.3.2-.535.61-.708.556-.232 1.326-.352 2.312-.352.255-.92.51-2.138.77-3.66.364-2.16.547-4.076.547-5.747 0-.233.108-.548.32-.947.213-.394.428-.594.642-.594.425 0 .707.155.832.467.128.312.193.765.193 1.362v.965c0 .817-.193 2.345-.576 4.593-.258 1.542-.504 2.848-.74 3.914 1.112.193 1.858.317 2.23.374.38.05 1.025.075 1.942.075.3 0 .922.02 1.863.052.94.032 1.722.06 2.344.08 1.154 0 2.064-.076 2.728-.224.623-4.235.954-6.456.996-6.646.687-3.447 1.445-5.17 2.278-5.17.26 0 .488.105.692.305.203.203.307.446.307.72M186.863 167.305c0 .49-.127.74-.384.74-.3 0-.653-.28-1.062-.836-.51-.682-1.185-1.806-2.02-3.368-.833-1.564-1.66-3.257-2.47-5.076-.73.106-2.024.345-3.888.704-1.155.236-2.427.496-3.818.77-.173.048-.28.068-.32.068-.215 0-.548-.215-.996-.644l-1.604 3.63c-.24.427-.485.975-.74 1.637-.26.665-.385 1.145-.385 1.443 0 .238-.117.435-.342.593-.22.163-.442.243-.657.243-.253 0-.477-.14-.67-.415-.195-.28-.29-.568-.29-.868 0-.43.407-1.616 1.222-3.55.81-1.938 1.612-3.847 2.407-5.727.277-.665 1.048-2.487 2.31-5.46.854-1.99 1.37-3.264 1.538-3.82.13-.73.26-1.432.388-2.118.127-.687.363-1.03.705-1.03.342 0 .68.14.996.415.45.387.78.924.996 1.61.556 1.025 1.225 2.54 2.006 4.542.78 2 1.57 4.03 2.36 6.08h1.636c.302 0 .56.056.785.163.23.107.34.278.34.516 0 .123-.053.22-.16.286-.342.107-.58.17-.705.194l-1.224.285c.086.215.58 1.287 1.48 3.213 1.71 3.658 2.565 5.584 2.565 5.777zm-6.514-10.078c-.797-1.733-1.33-2.888-1.606-3.47-.77-1.624-1.545-3.263-2.317-4.91-.594 1.454-1.182 2.9-1.762 4.33-.236.52-.53 1.238-.883 2.173-.352.93-.712 1.877-1.075 2.84.664-.11 1.978-.286 3.95-.53 1.967-.25 3.198-.396 3.692-.433z" fill="#1A1918"/></g></symbol><symbol id="icon-vk" viewBox="0 0 32 21">
    <!-- Generator: Sketch 3.3.3 (12072) - http://www.bohemiancoding.com/sketch -->
    <title>vkontakte</title>
    <desc>Created with Sketch.</desc>
    
    <g id="Page-1" stroke="none" stroke-width="1" sketch:type="MSPage">
        <path d="M0.0054438677,1.52695383 C-0.213527289,0.190760493 6.24612006,1.01805207 6.24612006,1.01805207 C6.24612006,1.01805207 9.99600007,10.4350338 11.4740549,10.4350337 C12.9521098,10.4350335 12.2404538,2.44968778 12.2404538,2.44968778 C12.2404538,2.44968778 10.4065708,1.97247588 10.4065709,1.24075096 C10.4065709,0.509026033 12.2404538,0 12.2404538,0 C12.2404538,0 16.986418,6.3958816e-08 17.632617,0 C18.2788159,-6.48236808e-08 18.535979,1.04986625 18.5359797,1.74977699 C18.5359803,2.44968773 18.5359797,10.3077772 18.5359797,10.3077772 L20.0140346,10.3077772 C20.0140346,10.3077772 21.3297427,8.19306598 22.3678669,6.04468412 C23.4059912,3.89630234 24.6670634,1.01805207 24.6670634,1.01805207 L30.935111,1.01805207 C30.935111,1.01805207 32.0847093,1.04961765 31.9478523,2.00416573 C31.7616698,3.30274945 27.5915791,9.46950121 26.7199174,11.580218 C26.0630041,13.1709243 29.4795482,15.3239543 30.935111,17.6249021 C31.8797907,19.118248 31.9478523,20.8700673 31.9478523,20.8700673 L24.502942,20.8700673 L20.7803265,16.5432218 C20.7803265,16.5432218 20.0140346,16.2252048 19.4117571,16.6704783 C18.8094797,17.1157518 18.7822152,18.0066716 18.7822152,18.0066716 L18.7822152,20.8700673 L12.9521098,20.8700673 C12.9521098,20.8700673 8.49057378,19.3429892 4.7133224,12.6620226 C0.936070612,5.98105597 0.224414962,2.86314716 0.0054438677,1.52695383 L0.0054438677,1.52695383 Z" id="vkontakte" sketch:type="MSShapeGroup"/>
    </g>
</symbol><symbol id="pic-search" viewBox="0 0 24 24"><path d="M15.5 14h-.79l-.28-.27C15.41 12.59 16 11.11 16 9.5 16 5.91 13.09 3 9.5 3S3 5.91 3 9.5 5.91 16 9.5 16c1.61 0 3.09-.59 4.23-1.57l.27.28v.79l5 4.99L20.49 19l-4.99-5zm-6 0C7.01 14 5 11.99 5 9.5S7.01 5 9.5 5 14 7.01 14 9.5 11.99 14 9.5 14z"/><path d="M0 0h24v24H0z" fill="none"/></symbol></svg>