<svg xmlns="http://www.w3.org/2000/svg" xmlns:xlink="http://www.w3.org/1999/xlink" xmlns:sketch="http://www.bohemiancoding.com/sketch/ns"><defs><path id="a" d="M3.51 8.54c0 .226-.062.435-.167.617l3.282 1.896c.213-.37.61-.616 1.065-.616.455 0 .85.247 1.065.615l3.282-1.897c-.106-.18-.166-.39-.166-.616 0-.225.06-.435.167-.616l-.874-.505c-.19.33-.303.71-.303 1.12 0 .19.027.375.072.553l-1.68.97C8.85 9.67 8.3 9.426 7.69 9.426c-.608 0-1.16.244-1.562.638l-1.68-.97c.044-.178.07-.362.07-.552 0-.192-.026-.376-.07-.555l1.678-.97c.403.395.955.64 1.564.64.828 0 1.55-.453 1.938-1.122l-.873-.505c-.214.368-.61.616-1.065.616-.455 0-.852-.248-1.065-.616L3.343 7.925c.105.18.166.39.166.616"/><path d="M11.163 3.404l.872-.505c.213.368.61.616 1.066.616.457 0 .855-.248 1.068-.617l.872.504c-.29.5-.765.878-1.333 1.038v1.94c.567.16 1.043.538 1.333 1.037l-.874.503c-.213-.367-.61-.615-1.065-.615-.454 0-.85.248-1.063.616l-.874-.505c.29-.5.765-.878 1.332-1.038v-1.94c-.567-.16-1.043-.54-1.332-1.038zm5.412.886c-.192.33-.303.713-.303 1.122 0 .407.11.79.302 1.12l.874-.505c-.105-.18-.166-.39-.166-.615 0-.225.062-.435.167-.617l-.875-.505zM8.92 5.412c0 .224-.06.434-.165.616l.873.504c.19-.33.303-.712.303-1.12 0-.41-.11-.79-.302-1.12l-.874.504c.105.182.166.392.166.616z" id="b"/><path d="M16.272 11.664c0-.407.11-.788.302-1.118l.873.505c-.104.182-.165.39-.165.614 0 .226.062.436.167.617l-.874.506c-.192-.33-.304-.712-.304-1.122zm-3.17-1.893c-.456 0-.853-.247-1.065-.615l-3.282 1.897c.104.182.165.392.165.616 0 .225-.06.435-.165.616l.873.504c.192-.33.303-.71.303-1.12 0-.19-.026-.376-.07-.553l1.68-.97c.263.256.59.448.955.55v3.75l.606.35.608-.35v-3.75c.566-.158 1.042-.536 1.332-1.036l-.874-.505c-.213.368-.61.616-1.065.616z" id="c"/><path id="d" d="M.34 13.677l.872.504c.213-.367.61-.616 1.066-.616.456 0 .853.25 1.066.617l.873-.503c-.29-.5-.765-.88-1.333-1.04V10.7c.366-.104.694-.297.96-.556l1.677.97c-.044.178-.07.363-.07.554 0 .41.11.79.302 1.12l.873-.504c-.105-.18-.166-.39-.166-.616 0-.224.06-.433.165-.615L3.343 9.157c-.213.368-.61.616-1.065.616-.455 0-.852-.248-1.065-.616l-.873.505c.29.5.765.876 1.332 1.037v1.938c-.568.16-1.044.54-1.333 1.04"/><path d="M4.52 14.796c0 .408-.112.79-.304 1.122l-.874-.505c.106-.182.167-.392.167-.617 0-.224-.062-.434-.166-.615l.873-.503c.19.33.302.71.302 1.12zm3.17 1.895c.456 0 .853.25 1.065.618l4.346-2.512-.606-.35-3.24 1.873c-.405-.396-.956-.64-1.564-.64-.83 0-1.552.453-1.94 1.124l.874.505c.213-.37.61-.62 1.066-.62zm0-2.778c.828 0 1.55-.454 1.938-1.124l-.873-.504c-.213.368-.61.616-1.065.616-.455 0-.852-.248-1.065-.616l-.873.505c.388.668 1.11 1.122 1.938 1.122z" id="e"/><path id="f" d="M24.53 12.637v-1.94c.57-.16 1.044-.54 1.334-1.04l-.873-.504c-.212.37-.61.618-1.065.618-.456 0-.853-.248-1.066-.617l-3.28 1.897c.103.18.164.39.164.614 0 .226-.062.436-.167.617l.873.506c.192-.33.304-.712.304-1.122 0-.19-.027-.375-.072-.552l1.678-.97c.265.26.593.45.96.554v1.94c-.568.16-1.044.54-1.334 1.038l.874.505c.213-.37.61-.62 1.065-.62.455 0 .85.25 1.065.618l.873-.505c-.29-.498-.765-.877-1.332-1.036"/><path d="M22.86 15.41l-.873.505c-.192-.33-.303-.713-.303-1.12 0-.41.11-.79.302-1.12l.874.504c-.105.18-.166.39-.166.614 0 .225.06.434.166.616zm-5.91.906l-3.242-1.87-.607.35 4.348 2.51c.212-.368.61-.617 1.065-.617.456 0 .853.248 1.066.617l.872-.505c-.29-.5-.765-.878-1.333-1.038v-1.942c.566-.16 1.04-.537 1.33-1.036l-.873-.505c-.213.37-.61.616-1.064.616-.455 0-.85-.247-1.064-.615l-.874.506c.29.5.765.877 1.33 1.036v1.942c-.364.103-.69.295-.956.552z" id="g"/><path d="M6.626 18.54l-3.282 1.897c-.212-.37-.61-.62-1.066-.62-.456 0-.854.25-1.067.62l-.872-.504c.388-.672 1.11-1.126 1.94-1.126.608 0 1.16.245 1.563.64l1.68-.97c-.045-.178-.07-.363-.07-.554 0-.408.11-.79.3-1.12l.874.506c-.104.18-.165.39-.165.613 0 .226.06.435.166.617zm-4.348-1.5c.827 0 1.55-.453 1.938-1.122l-.874-.506c-.213.368-.61.615-1.064.615-.455 0-.85-.247-1.064-.614l-.873.505c.39.67 1.11 1.12 1.938 1.12z" id="h"/><path d="M25.863 19.93l-.873.505c-.214-.368-.61-.617-1.065-.617-.456 0-.852.25-1.065.617l-3.283-1.897c.105-.18.167-.392.167-.617 0-.223-.06-.432-.166-.613l.874-.505c.19.33.302.71.302 1.12 0 .19-.027.374-.072.55l1.68.973c.405-.393.956-.638 1.563-.638.827 0 1.55.453 1.938 1.123zm-1.938-2.894c.828 0 1.55-.452 1.938-1.12l-.873-.506c-.213.367-.61.616-1.065.616-.455 0-.852-.25-1.065-.616l-.873.505c.388.67 1.11 1.12 1.938 1.12z" id="i"/><path id="j" d="M13.1 18.81c-.606 0-1.157.243-1.56.637l-1.68-.97c.044-.178.07-.363.07-.554 0-.19-.026-.376-.07-.553l3.24-1.875 3.244 1.872c-.045.178-.072.363-.072.554 0 .41.112.793.304 1.123l.873-.505c-.106-.18-.168-.392-.168-.617 0-.223.06-.432.166-.613l-4.347-2.51-4.345 2.51c.105.183.165.392.165.616 0 .225-.06.435-.166.617l3.283 1.897c.213-.368.61-.617 1.064-.617.457 0 .853.248 1.066.617l.874-.506c-.39-.668-1.11-1.12-1.94-1.12"/><path d="M20.452 23.058l-.874.506c-.212-.37-.61-.618-1.065-.618-.456 0-.853.25-1.065.618l-.874-.505c.388-.672 1.11-1.125 1.94-1.125.827 0 1.55.452 1.938 1.123zm2.242-2.008c0-.224.06-.434.166-.615l-3.283-1.897c-.213.367-.61.615-1.064.615-.455 0-.85-.248-1.064-.615l-.874.505c.388.67 1.11 1.12 1.937 1.12.608 0 1.16-.243 1.564-.64l1.68.972c-.047.178-.073.363-.073.555 0 .41.11.79.303 1.12l.873-.504c-.105-.182-.166-.39-.166-.616zm-8.362.002c0 .225-.06.434-.166.616l.874.505c.192-.33.303-.712.303-1.12 0-.41-.112-.792-.303-1.122l-.874.507c.106.18.166.39.166.615z" id="k"/><path id="l" d="M7.69 21.935c-.83 0-1.553.454-1.94 1.125l.873.505c.213-.37.61-.62 1.067-.62.456 0 .854.25 1.066.62l.874-.505c-.388-.672-1.112-1.125-1.94-1.125"/><path id="m" d="M4.215 22.173c.192-.33.304-.713.304-1.123 0-.19-.028-.375-.073-.553l1.68-.97c.404.395.955.64 1.563.64s1.16-.245 1.563-.64l1.68.97c-.046.178-.073.363-.073.555 0 .41.112.79.303 1.12l.874-.504c-.105-.182-.166-.39-.166-.616 0-.224.062-.434.167-.615L8.754 18.54c-.213.367-.61.615-1.064.615-.455 0-.85-.248-1.064-.615l-3.282 1.897c.104.18.165.39.165.613 0 .225-.063.436-.168.62l.873.503"/><path d="M16.574 6.53l.874-.503c.212.368.61.617 1.065.617.456 0 .853-.25 1.066-.617l3.28 1.896c-.105.18-.166.392-.166.616 0 .224.06.433.165.613l-3.28 1.897c-.214-.368-.61-.617-1.067-.617-.456 0-.853.25-1.066.617l-.873-.504c.388-.67 1.11-1.125 1.94-1.125.607 0 1.16.246 1.563.64l1.678-.97c-.045-.176-.07-.36-.07-.55 0-.192.025-.378.07-.555l-1.677-.97c-.404.395-.956.64-1.565.64-.828 0-1.55-.453-1.94-1.124zm-2.242 2.01c0 .224-.06.433-.166.615l.874.504c.19-.33.302-.712.302-1.12 0-.41-.11-.79-.302-1.12l-.874.503c.105.182.166.392.166.616z" id="n"/><path d="M5.75 4.292c.39-.67 1.112-1.124 1.94-1.124.827 0 1.55.454 1.938 1.123l-.873.506c-.214-.368-.61-.616-1.065-.616-.455 0-.852.248-1.065.616l-.874-.504zm5.414-3.13c-.192.332-.304.714-.304 1.123 0 .408.11.79.303 1.12l.873-.506c-.105-.182-.166-.39-.166-.615 0-.225.062-.435.167-.617l-.873-.505z" id="o"/><path id="p" d="M1.213 7.925c.213-.367.61-.616 1.065-.616.455 0 .852.248 1.065.615l3.282-1.897c-.105-.182-.166-.392-.166-.616 0-.224.06-.434.165-.616l-.874-.504c-.19.33-.3.712-.3 1.12 0 .19.025.374.07.552l-1.68.97c-.405-.392-.955-.636-1.562-.636-.828 0-1.55.453-1.94 1.123l.875.505"/><path id="q" d="M23.925 6.296c-.607 0-1.158.243-1.562.638l-1.68-.97c.045-.178.07-.36.07-.552 0-.41-.11-.79-.303-1.122l-.873.505c.105.18.167.392.167.617 0 .224-.06.433-.165.615l3.28 1.896c.214-.368.61-.616 1.065-.616.455 0 .85.248 1.064.615l.872-.505c-.388-.67-1.11-1.12-1.937-1.12"/><path d="M20.45 4.29l-.873.505c-.213-.367-.61-.615-1.064-.615-.455 0-.85.248-1.064.615l-.875-.505c.39-.67 1.11-1.122 1.938-1.122.827 0 1.55.453 1.937 1.122zm-6.118-2.005c0 .223-.06.433-.164.614l.872.504c.192-.33.302-.71.302-1.12 0-.408-.11-.79-.303-1.122l-.875.506c.106.182.167.392.167.617z" id="r"/><path d="M19.577 24.794c.105-.18.167-.392.167-.616 0-.224-.06-.434-.166-.614l.874-.506c.19.33.302.712.302 1.12 0 .41-.112.79-.304 1.122l-.873-.506zm6.286-2.623l-.873-.504c-.214.368-.61.616-1.065.616-.456 0-.852-.248-1.065-.616l-.873.505c.388.67 1.11 1.123 1.938 1.123.828 0 1.55-.452 1.938-1.122z" id="s"/><path d="M.34 22.173l.875-.504c.213.365.61.612 1.063.612.454 0 .85-.247 1.064-.613l.873.503c-.388.67-1.11 1.12-1.937 1.12-.826 0-1.548-.45-1.937-1.12zm6.12 2.005c0-.224.06-.432.163-.613l-.873-.505c-.19.33-.3.71-.3 1.118 0 .41.11.792.303 1.123l.874-.505c-.106-.18-.168-.392-.168-.617z" id="t"/><path id="u" d="M1.047 21.05c0-.223.06-.432.164-.613l-.872-.504c-.19.33-.3.71-.3 1.117 0 .41.11.793.303 1.123l.875-.504c-.106-.184-.168-.394-.168-.62"/><path id="a" d="M3.51 8.54c0 .226-.062.435-.167.617l3.282 1.896c.213-.37.61-.616 1.065-.616.455 0 .85.247 1.065.615l3.282-1.897c-.106-.18-.166-.39-.166-.616 0-.225.06-.435.167-.616l-.874-.505c-.19.33-.303.71-.303 1.12 0 .19.027.375.072.553l-1.68.97C8.85 9.67 8.3 9.426 7.69 9.426c-.608 0-1.16.244-1.562.638l-1.68-.97c.044-.178.07-.362.07-.552 0-.192-.026-.376-.07-.555l1.678-.97c.403.395.955.64 1.564.64.828 0 1.55-.453 1.938-1.122l-.873-.505c-.214.368-.61.616-1.065.616-.455 0-.852-.248-1.065-.616L3.343 7.925c.105.18.166.39.166.616"/><path d="M11.163 3.404l.872-.505c.213.368.61.616 1.066.616.457 0 .855-.248 1.068-.617l.872.504c-.29.5-.765.878-1.333 1.038v1.94c.567.16 1.043.538 1.333 1.037l-.874.503c-.213-.367-.61-.615-1.065-.615-.454 0-.85.248-1.063.616l-.874-.505c.29-.5.765-.878 1.332-1.038v-1.94c-.567-.16-1.043-.54-1.332-1.038zm5.412.886c-.192.33-.303.713-.303 1.122 0 .407.11.79.302 1.12l.874-.505c-.105-.18-.166-.39-.166-.615 0-.225.062-.435.167-.617l-.875-.505zM8.92 5.412c0 .224-.06.434-.165.616l.873.504c.19-.33.303-.712.303-1.12 0-.41-.11-.79-.302-1.12l-.874.504c.105.182.166.392.166.616z" id="b"/><path d="M16.272 11.664c0-.407.11-.788.302-1.118l.873.505c-.104.182-.165.39-.165.614 0 .226.062.436.167.617l-.874.506c-.192-.33-.304-.712-.304-1.122zm-3.17-1.893c-.456 0-.853-.247-1.065-.615l-3.282 1.897c.104.182.165.392.165.616 0 .225-.06.435-.165.616l.873.504c.192-.33.303-.71.303-1.12 0-.19-.026-.376-.07-.553l1.68-.97c.263.256.59.448.955.55v3.75l.606.35.608-.35v-3.75c.566-.158 1.042-.536 1.332-1.036l-.874-.505c-.213.368-.61.616-1.065.616z" id="c"/><path id="d" d="M.34 13.677l.872.504c.213-.367.61-.616 1.066-.616.456 0 .853.25 1.066.617l.873-.503c-.29-.5-.765-.88-1.333-1.04V10.7c.366-.104.694-.297.96-.556l1.677.97c-.044.178-.07.363-.07.554 0 .41.11.79.302 1.12l.873-.504c-.105-.18-.166-.39-.166-.616 0-.224.06-.433.165-.615L3.343 9.157c-.213.368-.61.616-1.065.616-.455 0-.852-.248-1.065-.616l-.873.505c.29.5.765.876 1.332 1.037v1.938c-.568.16-1.044.54-1.333 1.04"/><path d="M4.52 14.796c0 .408-.112.79-.304 1.122l-.874-.505c.106-.182.167-.392.167-.617 0-.224-.062-.434-.166-.615l.873-.503c.19.33.302.71.302 1.12zm3.17 1.895c.456 0 .853.25 1.065.618l4.346-2.512-.606-.35-3.24 1.873c-.405-.396-.956-.64-1.564-.64-.83 0-1.552.453-1.94 1.124l.874.505c.213-.37.61-.62 1.066-.62zm0-2.778c.828 0 1.55-.454 1.938-1.124l-.873-.504c-.213.368-.61.616-1.065.616-.455 0-.852-.248-1.065-.616l-.873.505c.388.668 1.11 1.122 1.938 1.122z" id="e"/><path id="f" d="M24.53 12.637v-1.94c.57-.16 1.044-.54 1.334-1.04l-.873-.504c-.212.37-.61.618-1.065.618-.456 0-.853-.248-1.066-.617l-3.28 1.897c.103.18.164.39.164.614 0 .226-.062.436-.167.617l.873.506c.192-.33.304-.712.304-1.122 0-.19-.027-.375-.072-.552l1.678-.97c.265.26.593.45.96.554v1.94c-.568.16-1.044.54-1.334 1.038l.874.505c.213-.37.61-.62 1.065-.62.455 0 .85.25 1.065.618l.873-.505c-.29-.498-.765-.877-1.332-1.036"/><path d="M22.86 15.41l-.873.505c-.192-.33-.303-.713-.303-1.12 0-.41.11-.79.302-1.12l.874.504c-.105.18-.166.39-.166.614 0 .225.06.434.166.616zm-5.91.906l-3.242-1.87-.607.35 4.348 2.51c.212-.368.61-.617 1.065-.617.456 0 .853.248 1.066.617l.872-.505c-.29-.5-.765-.878-1.333-1.038v-1.942c.566-.16 1.04-.537 1.33-1.036l-.873-.505c-.213.37-.61.616-1.064.616-.455 0-.85-.247-1.064-.615l-.874.506c.29.5.765.877 1.33 1.036v1.942c-.364.103-.69.295-.956.552z" id="g"/><path d="M6.626 18.54l-3.282 1.897c-.212-.37-.61-.62-1.066-.62-.456 0-.854.25-1.067.62l-.872-.504c.388-.672 1.11-1.126 1.94-1.126.608 0 1.16.245 1.563.64l1.68-.97c-.045-.178-.07-.363-.07-.554 0-.408.11-.79.3-1.12l.874.506c-.104.18-.165.39-.165.613 0 .226.06.435.166.617zm-4.348-1.5c.827 0 1.55-.453 1.938-1.122l-.874-.506c-.213.368-.61.615-1.064.615-.455 0-.85-.247-1.064-.614l-.873.505c.39.67 1.11 1.12 1.938 1.12z" id="h"/><path d="M25.863 19.93l-.873.505c-.214-.368-.61-.617-1.065-.617-.456 0-.852.25-1.065.617l-3.283-1.897c.105-.18.167-.392.167-.617 0-.223-.06-.432-.166-.613l.874-.505c.19.33.302.71.302 1.12 0 .19-.027.374-.072.55l1.68.973c.405-.393.956-.638 1.563-.638.827 0 1.55.453 1.938 1.123zm-1.938-2.894c.828 0 1.55-.452 1.938-1.12l-.873-.506c-.213.367-.61.616-1.065.616-.455 0-.852-.25-1.065-.616l-.873.505c.388.67 1.11 1.12 1.938 1.12z" id="i"/><path id="j" d="M13.1 18.81c-.606 0-1.157.243-1.56.637l-1.68-.97c.044-.178.07-.363.07-.554 0-.19-.026-.376-.07-.553l3.24-1.875 3.244 1.872c-.045.178-.072.363-.072.554 0 .41.112.793.304 1.123l.873-.505c-.106-.18-.168-.392-.168-.617 0-.223.06-.432.166-.613l-4.347-2.51-4.345 2.51c.105.183.165.392.165.616 0 .225-.06.435-.166.617l3.283 1.897c.213-.368.61-.617 1.064-.617.457 0 .853.248 1.066.617l.874-.506c-.39-.668-1.11-1.12-1.94-1.12"/><path d="M20.452 23.058l-.874.506c-.212-.37-.61-.618-1.065-.618-.456 0-.853.25-1.065.618l-.874-.505c.388-.672 1.11-1.125 1.94-1.125.827 0 1.55.452 1.938 1.123zm2.242-2.008c0-.224.06-.434.166-.615l-3.283-1.897c-.213.367-.61.615-1.064.615-.455 0-.85-.248-1.064-.615l-.874.505c.388.67 1.11 1.12 1.937 1.12.608 0 1.16-.243 1.564-.64l1.68.972c-.047.178-.073.363-.073.555 0 .41.11.79.303 1.12l.873-.504c-.105-.182-.166-.39-.166-.616zm-8.362.002c0 .225-.06.434-.166.616l.874.505c.192-.33.303-.712.303-1.12 0-.41-.112-.792-.303-1.122l-.874.507c.106.18.166.39.166.615z" id="k"/><path id="l" d="M7.69 21.935c-.83 0-1.553.454-1.94 1.125l.873.505c.213-.37.61-.62 1.067-.62.456 0 .854.25 1.066.62l.874-.505c-.388-.672-1.112-1.125-1.94-1.125"/><path id="m" d="M4.215 22.173c.192-.33.304-.713.304-1.123 0-.19-.028-.375-.073-.553l1.68-.97c.404.395.955.64 1.563.64s1.16-.245 1.563-.64l1.68.97c-.046.178-.073.363-.073.555 0 .41.112.79.303 1.12l.874-.504c-.105-.182-.166-.39-.166-.616 0-.224.062-.434.167-.615L8.754 18.54c-.213.367-.61.615-1.064.615-.455 0-.85-.248-1.064-.615l-3.282 1.897c.104.18.165.39.165.613 0 .225-.063.436-.168.62l.873.503"/><path d="M16.574 6.53l.874-.503c.212.368.61.617 1.065.617.456 0 .853-.25 1.066-.617l3.28 1.896c-.105.18-.166.392-.166.616 0 .224.06.433.165.613l-3.28 1.897c-.214-.368-.61-.617-1.067-.617-.456 0-.853.25-1.066.617l-.873-.504c.388-.67 1.11-1.125 1.94-1.125.607 0 1.16.246 1.563.64l1.678-.97c-.045-.176-.07-.36-.07-.55 0-.192.025-.378.07-.555l-1.677-.97c-.404.395-.956.64-1.565.64-.828 0-1.55-.453-1.94-1.124zm-2.242 2.01c0 .224-.06.433-.166.615l.874.504c.19-.33.302-.712.302-1.12 0-.41-.11-.79-.302-1.12l-.874.503c.105.182.166.392.166.616z" id="n"/><path d="M5.75 4.292c.39-.67 1.112-1.124 1.94-1.124.827 0 1.55.454 1.938 1.123l-.873.506c-.214-.368-.61-.616-1.065-.616-.455 0-.852.248-1.065.616l-.874-.504zm5.414-3.13c-.192.332-.304.714-.304 1.123 0 .408.11.79.303 1.12l.873-.506c-.105-.182-.166-.39-.166-.615 0-.225.062-.435.167-.617l-.873-.505z" id="o"/><path id="p" d="M1.213 7.925c.213-.367.61-.616 1.065-.616.455 0 .852.248 1.065.615l3.282-1.897c-.105-.182-.166-.392-.166-.616 0-.224.06-.434.165-.616l-.874-.504c-.19.33-.3.712-.3 1.12 0 .19.025.374.07.552l-1.68.97c-.405-.392-.955-.636-1.562-.636-.828 0-1.55.453-1.94 1.123l.875.505"/><path id="q" d="M23.925 6.296c-.607 0-1.158.243-1.562.638l-1.68-.97c.045-.178.07-.36.07-.552 0-.41-.11-.79-.303-1.122l-.873.505c.105.18.167.392.167.617 0 .224-.06.433-.165.615l3.28 1.896c.214-.368.61-.616 1.065-.616.455 0 .85.248 1.064.615l.872-.505c-.388-.67-1.11-1.12-1.937-1.12"/><path d="M20.45 4.29l-.873.505c-.213-.367-.61-.615-1.064-.615-.455 0-.85.248-1.064.615l-.875-.505c.39-.67 1.11-1.122 1.938-1.122.827 0 1.55.453 1.937 1.122zm-6.118-2.005c0 .223-.06.433-.164.614l.872.504c.192-.33.302-.71.302-1.12 0-.408-.11-.79-.303-1.122l-.875.506c.106.182.167.392.167.617z" id="r"/><path d="M19.577 24.794c.105-.18.167-.392.167-.616 0-.224-.06-.434-.166-.614l.874-.506c.19.33.302.712.302 1.12 0 .41-.112.79-.304 1.122l-.873-.506zm6.286-2.623l-.873-.504c-.214.368-.61.616-1.065.616-.456 0-.852-.248-1.065-.616l-.873.505c.388.67 1.11 1.123 1.938 1.123.828 0 1.55-.452 1.938-1.122z" id="s"/><path d="M.34 22.173l.875-.504c.213.365.61.612 1.063.612.454 0 .85-.247 1.064-.613l.873.503c-.388.67-1.11 1.12-1.937 1.12-.826 0-1.548-.45-1.937-1.12zm6.12 2.005c0-.224.06-.432.163-.613l-.873-.505c-.19.33-.3.71-.3 1.118 0 .41.11.792.303 1.123l.874-.505c-.106-.18-.168-.392-.168-.617z" id="t"/><path id="u" d="M1.047 21.05c0-.223.06-.432.164-.613l-.872-.504c-.19.33-.3.71-.3 1.117 0 .41.11.793.303 1.123l.875-.504c-.106-.184-.168-.394-.168-.62"/><path id="a" d="M7.63 18.568c0 .488-.135.944-.362 1.338l7.134 4.123c.462-.803 1.324-1.34 2.314-1.34s1.852.537 2.316 1.337l7.134-4.125c-.228-.393-.36-.85-.36-1.34 0-.486.132-.942.36-1.335l-1.9-1.098c-.415.716-.657 1.546-.657 2.433 0 .416.057.818.156 1.203l-3.65 2.112c-.88-.857-2.077-1.39-3.4-1.39-1.32 0-2.517.533-3.395 1.388l-3.65-2.11c.096-.385.154-.785.154-1.198 0-.42-.058-.82-.157-1.21l3.65-2.108c.877.86 2.077 1.39 3.4 1.39 1.8 0 3.37-.984 4.214-2.44l-1.898-1.097c-.464.8-1.325 1.34-2.316 1.34-.99 0-1.85-.54-2.314-1.34L7.267 17.23c.228.392.362.85.362 1.338"/><path d="M24.266 7.4l1.898-1.097c.462.802 1.327 1.34 2.317 1.34.992 0 1.857-.538 2.32-1.342l1.896 1.1c-.628 1.085-1.664 1.908-2.897 2.257v4.217c1.23.347 2.265 1.17 2.895 2.253l-1.9 1.097c-.462-.8-1.324-1.338-2.314-1.338-.988 0-1.85.54-2.314 1.34l-1.9-1.097c.632-1.086 1.665-1.91 2.897-2.256V9.657c-1.233-.35-2.267-1.172-2.897-2.256zm11.767 1.927c-.417.718-.66 1.55-.66 2.438 0 .886.242 1.716.657 2.433l1.9-1.097c-.228-.392-.36-.848-.36-1.335 0-.49.134-.945.362-1.34l-1.9-1.098zm-16.64 2.438c0 .488-.134.944-.36 1.338L20.93 14.2c.416-.717.66-1.548.66-2.435 0-.89-.244-1.718-.66-2.437l-1.9 1.1c.23.393.362.85.362 1.337z" id="b"/><path d="M35.374 25.358c0-.886.24-1.715.656-2.432l1.898 1.098c-.226.393-.358.847-.358 1.334 0 .49.134.946.362 1.34l-1.898 1.1c-.417-.718-.66-1.55-.66-2.44zM28.48 21.24c-.988 0-1.85-.538-2.314-1.338l-7.134 4.125c.227.395.36.85.36 1.338 0 .488-.132.946-.36 1.34l1.9 1.096c.415-.716.657-1.546.657-2.435 0-.415-.06-.816-.158-1.203l3.652-2.11c.574.56 1.286.977 2.08 1.2v8.15h-.002l1.32.762L29.8 31.4v-8.147c1.23-.346 2.265-1.17 2.896-2.254l-1.9-1.098c-.463.8-1.325 1.34-2.315 1.34z" id="c"/><path id="d" d="M.736 29.732l1.9 1.097c.462-.802 1.325-1.344 2.316-1.344.99 0 1.855.542 2.317 1.343l1.897-1.098c-.63-1.087-1.663-1.91-2.897-2.258v-4.216c.795-.224 1.51-.643 2.085-1.206l3.647 2.11c-.098.385-.156.788-.156 1.203 0 .89.242 1.72.658 2.437l1.898-1.098c-.228-.393-.36-.85-.36-1.34 0-.485.132-.94.36-1.335l-7.134-4.124c-.463.8-1.326 1.34-2.316 1.34-.99 0-1.852-.54-2.315-1.34L.74 21.003c.628 1.086 1.662 1.907 2.895 2.255v4.216c-1.234.35-2.27 1.173-2.9 2.258"/><path d="M9.824 32.164c0 .89-.242 1.72-.66 2.44l-1.898-1.098c.23-.395.363-.852.363-1.342 0-.486-.134-.942-.36-1.335l1.897-1.098c.416.717.657 1.545.657 2.432zm6.892 4.12c.992 0 1.855.542 2.317 1.342l9.448-5.462-1.318-.763-7.047 4.076c-.878-.858-2.076-1.388-3.4-1.388-1.8 0-3.37.985-4.214 2.443l1.9 1.098c.463-.8 1.326-1.343 2.316-1.343zm0-6.04c1.8 0 3.372-.986 4.215-2.443l-1.898-1.096c-.463.8-1.325 1.34-2.316 1.34-.99 0-1.85-.54-2.314-1.34l-1.898 1.098c.843 1.456 2.414 2.44 4.212 2.44z" id="e"/><path id="f" d="M53.33 27.47v-4.217c1.232-.348 2.266-1.17 2.896-2.258l-1.9-1.097c-.462.803-1.324 1.343-2.315 1.343-.99 0-1.854-.54-2.316-1.342l-7.132 4.124c.227.393.36.85.36 1.336 0 .49-.134.946-.363 1.34l1.898 1.1c.416-.72.66-1.55.66-2.44 0-.416-.058-.817-.156-1.202l3.647-2.108c.574.562 1.288.98 2.083 1.205v4.218c-1.233.348-2.266 1.17-2.897 2.256l1.9 1.097c.462-.8 1.325-1.342 2.315-1.342s1.852.542 2.315 1.34l1.898-1.096c-.63-1.083-1.662-1.906-2.894-2.253"/><path d="M49.696 33.5l-1.9 1.097c-.415-.718-.657-1.55-.657-2.436 0-.888.24-1.717.656-2.434l1.9 1.097c-.228.394-.36.85-.36 1.338 0 .49.132.945.36 1.34zM36.85 35.47L29.8 31.4l-1.32.764 9.45 5.46c.46-.8 1.325-1.343 2.316-1.343.99 0 1.854.543 2.316 1.344l1.9-1.098c-.632-1.086-1.665-1.91-2.9-2.257v-4.222c1.234-.346 2.266-1.168 2.896-2.25l-1.9-1.1c-.462.8-1.324 1.338-2.312 1.338-.99 0-1.85-.54-2.313-1.337l-1.898 1.097c.63 1.083 1.662 1.905 2.893 2.25v4.222c-.793.223-1.505.64-2.08 1.2z" id="g"/><path d="M14.404 40.305L7.27 44.43c-.46-.804-1.325-1.347-2.318-1.347-.992 0-1.856.543-2.32 1.346L.735 43.33c.843-1.46 2.416-2.447 4.218-2.447 1.32 0 2.52.532 3.4 1.39l3.65-2.11c-.1-.385-.156-.787-.156-1.2 0-.888.24-1.717.655-2.434l1.9 1.098c-.226.393-.358.847-.358 1.336 0 .49.133.945.362 1.34zM4.952 37.04c1.8 0 3.37-.982 4.213-2.437l-1.9-1.1c-.462.8-1.324 1.34-2.313 1.34-.988 0-1.85-.54-2.313-1.337l-1.9 1.097c.845 1.455 2.414 2.437 4.212 2.437z" id="h"/><path d="M56.224 43.325l-1.9 1.098c-.462-.8-1.324-1.34-2.314-1.34s-1.852.54-2.314 1.342L42.56 40.3c.228-.394.36-.85.36-1.34 0-.487-.13-.943-.358-1.336l1.9-1.098c.414.715.656 1.546.656 2.433 0 .413-.058.814-.156 1.2l3.653 2.11c.88-.853 2.075-1.385 3.395-1.385 1.8 0 3.37.984 4.214 2.44zm-4.213-6.29c1.8 0 3.37-.983 4.214-2.438l-1.9-1.098c-.46.798-1.323 1.338-2.313 1.338-.99 0-1.85-.54-2.314-1.34l-1.9 1.1c.844 1.455 2.415 2.438 4.215 2.438z" id="i"/><path id="j" d="M28.48 40.89c-1.318 0-2.516.53-3.395 1.385l-3.653-2.11c.1-.385.157-.787.157-1.2 0-.418-.06-.82-.158-1.205l7.05-4.074 7.05 4.07c-.1.385-.158.787-.158 1.203 0 .89.243 1.72.66 2.438l1.898-1.097c-.228-.394-.362-.85-.362-1.34 0-.487.132-.942.36-1.336l-9.45-5.46-9.447 5.462c.227.395.36.85.36 1.338 0 .488-.134.945-.363 1.34l7.136 4.124c.463-.8 1.326-1.34 2.315-1.34.99 0 1.853.538 2.316 1.34l1.9-1.1c-.845-1.454-2.415-2.438-4.215-2.438"/><path d="M44.46 50.127l-1.898 1.098c-.463-.802-1.326-1.343-2.316-1.343-.99 0-1.855.542-2.316 1.343l-1.9-1.097c.843-1.458 2.415-2.444 4.216-2.444 1.8 0 3.372.984 4.215 2.443zm4.875-4.366c0-.487.132-.942.36-1.335L42.56 40.3c-.464.798-1.326 1.337-2.314 1.337-.99 0-1.85-.54-2.314-1.336L36.034 41.4c.845 1.455 2.414 2.437 4.212 2.437 1.322 0 2.52-.53 3.4-1.39l3.65 2.11c-.1.387-.157.79-.157 1.206 0 .89.24 1.72.657 2.438l1.9-1.098c-.23-.395-.362-.85-.362-1.34zm-18.178.006c0 .488-.132.944-.36 1.338l1.9 1.097c.416-.715.657-1.545.657-2.434 0-.89-.242-1.72-.658-2.438l-1.9 1.1c.23.393.36.85.36 1.338z" id="k"/><path id="l" d="M16.716 47.684c-1.8 0-3.375.987-4.217 2.447l1.898 1.098c.463-.804 1.326-1.346 2.318-1.346.993 0 1.857.542 2.32 1.345l1.898-1.097c-.843-1.46-2.416-2.446-4.218-2.446"/><path id="m" d="M9.163 48.203c.417-.72.66-1.55.66-2.442 0-.414-.057-.815-.155-1.2l3.65-2.11c.88.86 2.077 1.39 3.398 1.39 1.323 0 2.52-.53 3.4-1.39l3.65 2.11c-.098.386-.157.79-.157 1.206 0 .89.242 1.72.658 2.435l1.898-1.096c-.227-.394-.36-.85-.36-1.338 0-.488.133-.944.36-1.338l-7.136-4.124c-.463.8-1.324 1.336-2.314 1.336-.988 0-1.848-.537-2.312-1.335L7.27 44.43c.227.392.36.846.36 1.33 0 .49-.137.95-.366 1.346l1.9 1.097"/><path d="M36.03 14.198l1.9-1.097c.46.802 1.325 1.342 2.316 1.342.99 0 1.854-.54 2.317-1.34l7.134 4.122c-.23.394-.362.85-.362 1.34 0 .487.132.942.36 1.334l-7.133 4.124c-.462-.8-1.326-1.343-2.316-1.343-.992 0-1.855.54-2.318 1.342l-1.898-1.096c.843-1.46 2.415-2.444 4.216-2.444 1.32 0 2.52.53 3.4 1.39l3.648-2.11c-.098-.384-.155-.785-.155-1.2 0-.415.057-.818.156-1.204l-3.65-2.108c-.877.86-2.077 1.39-3.4 1.39-1.8 0-3.372-.984-4.216-2.442zm-4.874 4.365c0 .488-.132.944-.36 1.34l1.9 1.096c.416-.718.656-1.548.656-2.437 0-.887-.24-1.717-.657-2.436l-1.9 1.097c.23.396.36.85.36 1.34z" id="n"/><path d="M12.503 9.33c.843-1.457 2.414-2.442 4.213-2.442 1.8 0 3.37.985 4.215 2.44l-1.898 1.1c-.464-.802-1.325-1.34-2.316-1.34-.99 0-1.852.54-2.314 1.34l-1.9-1.098zm11.766-6.8c-.418.717-.66 1.548-.66 2.438 0 .885.24 1.715.656 2.433l1.9-1.097c-.23-.395-.36-.85-.36-1.335 0-.49.133-.947.362-1.342l-1.9-1.097z" id="o"/><path id="p" d="M2.637 17.23c.462-.8 1.325-1.34 2.315-1.34s1.852.54 2.315 1.34l7.136-4.127c-.23-.394-.36-.85-.36-1.338 0-.488.13-.944.36-1.338l-1.9-1.097c-.415.718-.657 1.548-.657 2.435 0 .415.057.814.155 1.2l-3.654 2.11c-.878-.854-2.075-1.384-3.394-1.384-1.8 0-3.37.985-4.214 2.442l1.9 1.097"/><path id="q" d="M52.01 13.687c-1.32 0-2.517.53-3.395 1.387l-3.653-2.11c.1-.385.156-.784.156-1.2 0-.89-.244-1.72-.66-2.437l-1.9 1.097c.23.394.363.852.363 1.34 0 .488-.13.943-.357 1.337l7.134 4.124c.464-.8 1.325-1.34 2.314-1.34.99 0 1.85.54 2.314 1.338l1.898-1.098c-.844-1.454-2.413-2.437-4.21-2.437"/><path d="M44.458 9.327l-1.9 1.097c-.462-.798-1.324-1.337-2.312-1.337-.99 0-1.85.54-2.314 1.337l-1.9-1.097c.846-1.456 2.416-2.44 4.214-2.44 1.798 0 3.368.984 4.212 2.44zm-13.302-4.36c0 .486-.13.94-.357 1.334l1.896 1.1c.417-.717.656-1.547.656-2.432 0-.89-.242-1.723-.66-2.44l-1.898 1.098c.23.395.362.852.362 1.342z" id="r"/><path d="M42.56 53.9c.228-.394.36-.852.36-1.34 0-.486-.13-.942-.358-1.335l1.9-1.098c.413.716.656 1.546.656 2.433 0 .89-.244 1.72-.66 2.44l-1.9-1.1zm13.664-5.703l-1.9-1.097c-.462.8-1.324 1.34-2.314 1.34s-1.85-.54-2.314-1.34l-1.9 1.098c.844 1.455 2.415 2.44 4.214 2.44 1.8 0 3.37-.985 4.214-2.44z" id="s"/><path d="M.742 48.203l1.9-1.097c.463.797 1.323 1.333 2.31 1.333.987 0 1.848-.537 2.312-1.334l1.9 1.097c-.845 1.454-2.414 2.434-4.212 2.434-1.796 0-3.365-.98-4.21-2.434zm13.3 4.357c0-.486.13-.94.356-1.332l-1.9-1.097c-.413.718-.652 1.545-.652 2.43 0 .89.242 1.723.66 2.443l1.9-1.1c-.23-.394-.364-.853-.364-1.343z" id="t"/><path id="u" d="M2.277 45.76c0-.484.13-.938.356-1.33l-1.9-1.098c-.412.716-.652 1.544-.652 2.43 0 .89.244 1.723.662 2.44l1.9-1.096c-.23-.396-.365-.854-.365-1.345"/><path id="a" d="M3.05 7.427c0 .195-.052.378-.143.536L5.76 9.61c.186-.32.53-.534.927-.534.396 0 .74.215.926.535l2.854-1.65c-.092-.157-.145-.34-.145-.535s.053-.377.145-.534l-.76-.438c-.167.286-.263.618-.263.973 0 .167.023.328.062.482l-1.46.844c-.35-.342-.83-.554-1.36-.554-.528 0-1.007.212-1.358.555l-1.46-.844c.038-.153.062-.314.062-.48 0-.167-.024-.327-.063-.483l1.46-.843c.35.344.83.556 1.36.556.72 0 1.348-.394 1.685-.976l-.76-.44c-.185.32-.53.537-.925.537-.396 0-.74-.216-.926-.536L2.908 6.893c.09.157.144.34.144.535"/><path d="M9.707 2.96l.76-.44c.184.322.53.538.925.538.397 0 .743-.216.928-.537l.76.44c-.253.434-.667.763-1.16.903V5.55c.492.138.906.467 1.158.9l-.76.44c-.185-.32-.53-.536-.926-.536-.395 0-.74.216-.925.537l-.76-.438c.252-.435.665-.764 1.158-.902V3.863c-.493-.14-.907-.47-1.158-.903zm4.706.77c-.167.288-.263.62-.263.976 0 .354.096.687.262.973l.76-.44c-.09-.157-.144-.34-.144-.534 0-.196.053-.378.145-.536l-.76-.44zm-6.656.976c0 .195-.053.378-.144.535l.76.44c.165-.287.262-.62.262-.974 0-.355-.097-.687-.263-.975l-.76.44c.092.16.145.34.145.536z" id="b"/><path d="M14.15 10.143c0-.354.096-.686.262-.973l.76.44c-.09.157-.144.338-.144.533 0 .196.053.38.145.537l-.76.44c-.166-.288-.263-.62-.263-.977zm-2.758-1.646c-.395 0-.74-.216-.925-.536L7.613 9.61c.09.16.144.34.144.536 0 .195-.053.378-.144.535l.76.44c.166-.286.262-.618.262-.974 0-.166-.022-.326-.062-.48l1.46-.845c.23.225.515.392.832.48v3.26l.527.306.528-.306V9.3c.493-.137.906-.466 1.158-.9l-.76-.44c-.185.32-.53.537-.926.537z" id="c"/><path id="d" d="M.295 11.893l.76.44c.184-.322.53-.54.926-.54.397 0 .743.218.928.54l.76-.44c-.253-.435-.667-.764-1.16-.904V9.302c.318-.09.604-.257.834-.482l1.46.845c-.04.154-.064.315-.064.48 0 .357.097.69.264.976l.76-.44c-.092-.156-.145-.338-.145-.534 0-.194.053-.377.144-.535L2.908 7.964c-.185.32-.53.535-.926.535-.395 0-.74-.216-.925-.535l-.76.438c.252.435.666.764 1.16.903v1.686c-.495.14-.91.47-1.16.903"/><path d="M3.93 12.866c0 .355-.097.688-.264.975l-.76-.438c.092-.158.145-.34.145-.536 0-.195-.052-.377-.142-.534l.76-.44c.165.288.262.62.262.974zm2.757 1.648c.396 0 .74.216.926.537l3.78-2.184-.528-.306-2.82 1.63c-.35-.343-.83-.555-1.358-.555-.72 0-1.35.394-1.687.977l.76.44c.185-.32.53-.538.927-.538zm0-2.417c.72 0 1.348-.394 1.685-.977l-.76-.44c-.184.322-.53.537-.925.537-.396 0-.74-.215-.926-.536l-.758.44c.337.583.965.977 1.685.977z" id="e"/><path id="f" d="M21.332 10.99V9.3c.493-.138.906-.467 1.158-.902l-.76-.44c-.184.322-.53.54-.926.54s-.74-.218-.926-.54l-2.853 1.65c.09.158.143.34.143.535 0 .196-.053.38-.144.537l.76.44c.166-.29.263-.62.263-.977 0-.166-.023-.327-.062-.48l1.46-.844c.228.224.514.392.832.48v1.69c-.493.137-.906.466-1.158.9l.758.44c.185-.32.53-.537.926-.537s.74.216.926.536l.76-.44c-.252-.434-.666-.763-1.158-.9"/><path d="M19.878 13.4l-.76.44c-.166-.288-.263-.62-.263-.976 0-.355.097-.687.264-.974l.758.44c-.09.157-.144.34-.144.534 0 .196.053.378.144.536zm-5.14.788L11.92 12.56l-.528.306 3.78 2.184c.184-.32.53-.538.926-.538.397 0 .742.217.927.538l.76-.44c-.253-.434-.666-.763-1.16-.903V12.02c.493-.14.906-.468 1.158-.9l-.76-.44c-.185.32-.53.534-.925.534s-.74-.215-.925-.534l-.76.44c.253.432.666.76 1.158.9v1.687c-.316.09-.6.257-.83.48z" id="g"/><path d="M5.76 16.122l-2.852 1.65c-.184-.322-.53-.54-.927-.54-.396 0-.742.218-.927.54l-.76-.44c.338-.583.967-.978 1.688-.978.53 0 1.01.213 1.36.556l1.46-.844c-.04-.154-.062-.315-.062-.48 0-.355.097-.687.262-.974l.76.44c-.09.156-.143.338-.143.534 0 .195.053.378.144.536zm-3.78-1.306c.72 0 1.348-.393 1.686-.975l-.76-.438c-.185.32-.53.535-.925.535-.394 0-.74-.215-.924-.535l-.76.44c.338.58.966.974 1.685.974z" id="h"/><path d="M22.49 17.33l-.76.44c-.185-.32-.53-.537-.926-.537s-.74.216-.926.537l-2.854-1.65c.09-.158.144-.34.144-.536 0-.195-.052-.377-.143-.534l.76-.44c.165.287.262.62.262.974 0 .165-.023.326-.062.48l1.46.845c.353-.343.83-.556 1.36-.556.72 0 1.347.394 1.685.976zm-1.686-2.516c.72 0 1.348-.393 1.686-.975l-.76-.44c-.185.32-.53.535-.926.535s-.74-.216-.926-.535l-.76.44c.338.58.967.974 1.686.974z" id="i"/><path id="j" d="M11.393 16.356c-.528 0-1.007.212-1.36.554l-1.46-.844c.04-.154.062-.315.062-.48 0-.167-.022-.328-.062-.482l2.82-1.63 2.82 1.628c-.04.154-.063.315-.063.482 0 .356.097.688.264.975l.76-.44c-.093-.158-.146-.34-.146-.536 0-.195.053-.377.144-.534l-3.78-2.184-3.78 2.185c.092.158.145.34.145.536 0 .195-.053.378-.145.536l2.855 1.65c.185-.32.53-.537.926-.537s.74.215.925.536l.76-.44c-.338-.58-.966-.974-1.685-.974"/><path d="M17.784 20.05l-.76.44c-.184-.32-.53-.537-.925-.537-.398 0-.744.217-.928.537l-.76-.44c.337-.582.966-.976 1.687-.976.72 0 1.347.393 1.684.977zm1.95-1.745c0-.196.053-.378.144-.535l-2.854-1.65c-.186.32-.53.535-.926.535-.395 0-.74-.216-.925-.535l-.76.44c.338.58.966.974 1.685.974.53 0 1.01-.212 1.36-.556l1.46.844c-.04.155-.063.316-.063.483 0 .355.097.687.264.974l.758-.44c-.09-.158-.144-.34-.144-.535zm-7.27 0c0 .197-.054.38-.146.537l.76.44c.167-.288.263-.62.263-.976 0-.355-.095-.687-.262-.975l-.76.44c.092.158.145.34.145.536z" id="k"/><path id="l" d="M6.687 19.074c-.72 0-1.35.394-1.687.978l.76.44c.184-.322.53-.54.927-.54s.742.218.927.54l.76-.44c-.338-.584-.967-.978-1.687-.978"/><path id="m" d="M3.665 19.28c.167-.287.265-.62.265-.975 0-.167-.024-.327-.063-.48l1.46-.845c.352.344.83.556 1.36.556.53 0 1.008-.212 1.36-.556l1.46.844c-.04.155-.063.315-.063.482 0 .356.097.688.263.975l.76-.438c-.09-.158-.145-.34-.145-.536 0-.195.054-.377.145-.535l-2.855-1.648c-.185.32-.53.534-.925.534-.396 0-.74-.215-.926-.534l-2.852 1.65c.09.157.143.34.143.533 0 .195-.053.38-.144.537l.76.44"/><path d="M14.412 5.68l.76-.44c.185.32.53.537.927.537.395 0 .74-.216.925-.537l2.854 1.65c-.093.157-.146.34-.146.535 0 .196.053.377.144.534l-2.853 1.65c-.185-.322-.53-.538-.927-.538-.396 0-.742.216-.927.537l-.758-.44c.337-.583.966-.977 1.686-.977.53 0 1.01.212 1.36.555l1.46-.843c-.04-.154-.063-.314-.063-.48 0-.166.024-.328.063-.482l-1.46-.843c-.35.344-.83.556-1.36.556-.72 0-1.348-.394-1.686-.977zm-1.95 1.745c0 .196-.052.378-.144.536l.76.44c.167-.287.263-.62.263-.975s-.095-.687-.262-.974l-.76.44c.092.158.144.34.144.535z" id="n"/><path d="M5 3.732c.338-.583.967-.977 1.687-.977.72 0 1.348.394 1.685.976l-.76.44c-.185-.32-.53-.535-.925-.535-.396 0-.74.216-.926.536L5 3.733zm4.708-2.72c-.167.287-.265.62-.265.975 0 .354.097.686.264.973l.76-.44c-.092-.157-.145-.338-.145-.533 0-.196.054-.38.145-.536l-.76-.44z" id="o"/><path id="p" d="M1.055 6.892c.185-.32.53-.536.926-.536.397 0 .742.216.927.536l2.854-1.65c-.09-.158-.143-.34-.143-.536 0-.195.053-.377.144-.535L5 3.733c-.165.287-.262.62-.262.974 0 .166.023.325.062.48l-1.462.844c-.35-.342-.83-.554-1.357-.554-.72 0-1.347.394-1.685.977l.76.44"/><path id="q" d="M20.804 5.475c-.528 0-1.007.21-1.358.555l-1.46-.844c.038-.155.06-.314.06-.48 0-.356-.096-.688-.263-.975l-.76.44c.092.157.145.34.145.536 0 .195-.052.377-.143.534l2.854 1.65c.184-.32.53-.536.924-.536.396 0 .74.215.925.535l.76-.44c-.34-.582-.967-.975-1.686-.975"/><path d="M17.783 3.73l-.76.44c-.185-.32-.53-.535-.924-.535-.397 0-.742.215-.927.535l-.76-.44c.338-.58.966-.975 1.686-.975.718 0 1.345.394 1.683.976zm-5.32-1.743c0 .194-.053.376-.143.534l.76.44c.165-.287.26-.62.26-.973 0-.356-.096-.69-.263-.976l-.76.44c.092.158.145.34.145.537z" id="r"/><path d="M17.024 21.56c.09-.158.144-.34.144-.536 0-.194-.052-.377-.143-.534l.76-.44c.165.287.262.62.262.974 0 .356-.097.688-.264.976l-.76-.44zm5.466-2.28l-.76-.44c-.185.32-.53.536-.926.536s-.74-.216-.926-.536l-.76.44c.338.58.967.975 1.686.975.72 0 1.348-.394 1.686-.976z" id="s"/><path d="M.297 19.28l.76-.438c.185.32.53.534.924.534.396 0 .74-.215.926-.534l.76.44c-.34.58-.966.973-1.685.973-.718 0-1.345-.392-1.683-.974zm5.32 1.744c0-.194.052-.376.142-.533L5 20.053c-.166.287-.262.618-.262.972 0 .356.097.69.265.977l.76-.44c-.093-.157-.146-.34-.146-.536z" id="t"/><path id="u" d="M.91 18.305c0-.194.053-.376.143-.533l-.76-.44c-.165.287-.26.618-.26.973 0 .356.097.69.264.976l.76-.438c-.093-.158-.146-.34-.146-.537"/></defs><symbol id="icon-facebook" viewBox="0 0 15 32">
    <!-- Generator: Sketch 3.3.3 (12072) - http://www.bohemiancoding.com/sketch -->
    <title>Shape</title>
    <desc>Created with Sketch.</desc>
    
    <g id="Page-1" stroke="none" stroke-width="1" sketch:type="MSPage">
        <path d="M14.6599184,10.2158367 L9.66726531,10.2158367 L9.66726531,6.94138776 C9.66726531,5.71167347 10.4822857,5.42497959 11.0563265,5.42497959 L14.5795918,5.42497959 L14.5795918,0.0189387755 L9.72734694,0 C4.34089796,0 3.11510204,4.032 3.11510204,6.6122449 L3.11510204,10.2158367 L2.66453526e-15,10.2158367 L2.66453526e-15,15.786449 L3.11510204,15.786449 L3.11510204,31.5493878 L9.66726531,31.5493878 L9.66726531,15.786449 L14.0884898,15.786449 L14.6599184,10.2158367 L14.6599184,10.2158367 Z" id="Shape" sketch:type="MSShapeGroup"/>
    </g>
</symbol><symbol id="pic-favorite_border" viewBox="0 0 24 24"><path d="M0 0h24v24H0z" fill="none"/><path d="M16.5 3c-1.74 0-3.41.81-4.5 2.09C10.91 3.81 9.24 3 7.5 3 4.42 3 2 5.42 2 8.5c0 3.78 3.4 6.86 8.55 11.54L12 21.35l1.45-1.32C18.6 15.36 22 12.28 22 8.5 22 5.42 19.58 3 16.5 3zm-4.4 15.55l-.1.1-.1-.1C7.14 14.24 4 11.39 4 8.5 4 6.5 5.5 5 7.5 5c1.54 0 3.04.99 3.57 2.36h1.87C13.46 5.99 14.96 5 16.5 5c2 0 3.5 1.5 3.5 3.5 0 2.89-3.14 5.74-7.9 10.05z"/></symbol><symbol id="icon-instagram" viewBox="0 0 32 32">
    <!-- Generator: Sketch 3.3.3 (12072) - http://www.bohemiancoding.com/sketch -->
    <title>Shape</title>
    <desc>Created with Sketch.</desc>
    
    <g id="Page-1" stroke="none" stroke-width="1" sketch:type="MSPage">
        <path d="M25.5968,0 L6.13184,0 C2.75072,0 0,2.75008 0,6.1312 L0,12.608 L0,25.5968 C0,28.97792 2.75072,31.728 6.13184,31.728 L25.59744,31.728 C28.97856,31.728 31.72864,28.97792 31.72864,25.5968 L31.72864,12.60736 L31.72864,6.13056 C31.728,2.74944 28.97792,0 25.5968,0 L25.5968,0 Z M27.35552,3.65632 L28.05696,3.65376 L28.05696,4.352 L28.05696,9.03168 L22.69696,9.04896 L22.6784,3.67168 L27.35552,3.65632 L27.35552,3.65632 Z M11.33568,12.60736 C12.352,11.20128 14.00064,10.27904 15.86432,10.27904 C17.728,10.27904 19.37664,11.20128 20.39168,12.60736 C21.0528,13.52512 21.44896,14.64768 21.44896,15.86368 C21.44896,18.94272 18.94144,21.44768 15.86368,21.44768 C12.784,21.44768 10.27904,18.94272 10.27904,15.86368 C10.27968,14.64768 10.67456,13.52512 11.33568,12.60736 L11.33568,12.60736 Z M28.6368,25.59616 C28.6368,27.2736 27.27296,28.63616 25.5968,28.63616 L6.13184,28.63616 C4.45504,28.63616 3.0912,27.2736 3.0912,25.59616 L3.0912,12.60736 L7.8272,12.60736 C7.41824,13.61344 7.18848,14.71232 7.18848,15.86368 C7.18848,20.6464 11.07968,24.54016 15.86432,24.54016 C20.64832,24.54016 24.53952,20.6464 24.53952,15.86368 C24.53952,14.71232 24.30848,13.61344 23.89952,12.60736 L28.6368,12.60736 L28.6368,25.59616 L28.6368,25.59616 Z" id="Shape" sketch:type="MSShapeGroup"/>
    </g>
</symbol><symbol id="pic-logo-accent" viewBox="0 0 27 46"><title>Group Copy 2</title><g fill="none" fill-rule="evenodd"><use fill="#00E676" xlink:href="#a"/><use fill="#00E676" xlink:href="#b"/><use fill="#00E676" xlink:href="#c"/><use fill="#00E676" xlink:href="#d"/><use fill="#00E676" xlink:href="#e"/><path d="M1.047 14.796c0-.224.06-.434.165-.615l-.873-.503c-.192.33-.303.71-.303 1.12 0 .407.112.79.304 1.12l.874-.504c-.105-.182-.167-.392-.167-.617" fill="#00E676"/><use fill="#00E676" xlink:href="#f"/><path d="M25.155 14.794c0 .225-.06.434-.165.616l.873.505c.192-.33.303-.713.303-1.12 0-.41-.11-.792-.303-1.122l-.873.505c.104.18.165.39.165.616" fill="#00E676"/><use fill="#00E676" xlink:href="#g"/><use fill="#00E676" xlink:href="#h"/><use xlink:href="#h"/><use fill="#00E676" xlink:href="#i"/><use fill="#00E676" xlink:href="#j"/><use fill="#00E676" xlink:href="#k"/><use fill="#00E676" xlink:href="#l"/><use fill="#00E676" xlink:href="#m"/><use fill="#00E676" xlink:href="#n"/><use fill="#00E676" xlink:href="#o"/><path d="M12.037 1.668c.214-.368.61-.615 1.064-.615.456 0 .852.247 1.065.615l.874-.506c-.39-.67-1.112-1.12-1.94-1.12-.826 0-1.548.45-1.936 1.12l.873.506" fill="#00E676"/><use fill="#00E676" xlink:href="#p"/><path d="M1.047 8.54c0-.224.06-.433.166-.615L.34 7.42c-.192.33-.303.713-.303 1.12 0 .41.11.792.303 1.122l.873-.505c-.105-.182-.166-.39-.166-.616" fill="#00E676"/><use fill="#00E676" xlink:href="#q"/><path d="M25.155 8.54c0 .224-.06.433-.164.613l.874.505c.19-.33.302-.71.302-1.12 0-.408-.112-.79-.304-1.12l-.874.504c.106.182.167.392.167.617" fill="#00E676"/><use fill="#00E676" xlink:href="#r"/><use fill="#00E676" xlink:href="#s"/><use fill="#00E676" xlink:href="#t"/><path d="M25.155 21.05c0 .225-.06.434-.165.616l.873.505c.192-.33.303-.712.303-1.12 0-.408-.11-.79-.303-1.12l-.874.505c.104.18.165.39.165.615" fill="#00E676"/><use fill="#00E676" xlink:href="#u"/><path d="M25.6 33.155H13.707v-5.5l3.242-1.873c.404.395.955.64 1.563.64.827 0 1.55-.453 1.937-1.122l-.873-.506c-.213.368-.61.616-1.064.616-.455 0-.85-.248-1.064-.616-.106-.18-.168-.392-.168-.616 0-.224.06-.434.166-.614l-.874-.505c-.19.33-.302.71-.302 1.118 0 .19.027.375.072.553l-2.636 1.524V23.21c.567-.16 1.042-.54 1.332-1.037l-.874-.505c-.212.368-.61.616-1.065.616-.454 0-.85-.248-1.063-.616l-.874.505c.29.498.766.877 1.333 1.036v3.043L9.86 24.73c.044-.177.07-.36.07-.552 0-.408-.11-.79-.3-1.118l-.874.504c.104.18.164.39.164.614 0 .225-.06.436-.167.617-.213.368-.61.615-1.063.615-.454 0-.85-.247-1.063-.615l-.874.506c.388.67 1.11 1.12 1.937 1.12.608 0 1.16-.244 1.564-.64l3.24 1.875v5.5H.605c-.223 0-.404.18-.404.404 0 .223.18.404.404.404h11.87c-.067.394-.246.852-.675 1.254-.77.72-2.136 1.04-3.953.92-.86-.055-1.594 0-2.218.126-.038 0-.074.008-.11.022l-.01.005c-2.08.47-2.904 1.79-3.053 2.682-.028.165.084.32.25.35.016.002.033.003.05.003.144 0 .273-.105.298-.253.01-.067.194-1.06 1.36-1.735-.102.293-.13.61-.155.934-.037.465-.08.99-.36 1.565-.072.152-.01.333.14.406.044.022.09.032.134.032.112 0 .22-.063.272-.17.33-.678.378-1.29.418-1.782.06-.735.093-1.143.868-1.465.272-.055.572-.095.9-.117-.35.43-.426 1.026-.505 1.643-.113.89-.254 1.996-1.196 3.113-.107.128-.09.32.037.427.056.048.126.072.195.072.086 0 .172-.036.23-.108 1.06-1.253 1.213-2.458 1.336-3.427.136-1.064.235-1.547 1.122-1.71 1.995.122 3.463-.242 4.364-1.087.094-.09.18-.185.26-.284-.248.722-.757 1.54-1.804 2.425-.664.56-1.226.892-1.722 1.186-.94.555-1.617.957-1.863 2.35-.028.164.082.322.247.35.018.004.035.006.052.006.145 0 .273-.104.298-.252.197-1.117.686-1.406 1.575-1.932l.256-.153c-.2.474-.3.942-.394 1.383-.218 1.015-.405 1.89-1.602 2.676-.14.09-.18.28-.087.42.06.09.156.137.255.137.057 0 .115-.016.166-.05 1.406-.92 1.638-2.006 1.862-3.054.025-.12.05-.24.078-.358.064.32.157.638.247.945.2.676.405 1.376.29 2.035-.03.166.08.323.245.352.018.003.036.004.053.004.144 0 .272-.103.298-.25.14-.8-.086-1.57-.305-2.313-.334-1.134-.624-2.116.442-3.016.894-.754 1.433-1.478 1.76-2.14.067.793.16 1.492.253 2.12.215 1.442-.142 1.884-.555 2.396-.415.513-.885 1.094-.796 2.573.01.16.144.285.303.285h.018c.168-.01.295-.154.285-.322-.076-1.244.282-1.686.66-2.155.143-.175.288-.354.41-.567.187 1.672.017 2.956-1.448 5.017-.097.136-.066.325.07.423.054.038.115.056.176.056.095 0 .19-.045.247-.128 1.995-2.806 1.753-4.342 1.35-6.886-.132-.845-.286-1.82-.382-3.008.334.694.785 1.213 1.21 1.698 1.067 1.222 1.99 2.277.633 5.802-.06.157.018.332.174.393.036.014.072.02.11.02.12 0 .235-.073.282-.194.7-1.82.818-3.07.634-4.017.417.543.69 1.28.542 2.672-.018.166.103.316.27.333l.03.002c.155 0 .286-.115.302-.27.053-.5.053-.924.017-1.298.388.4.812.77 1.167.97.047.026.098.038.148.038.106 0 .21-.055.264-.154.082-.146.03-.33-.115-.413-.63-.354-1.623-1.45-1.96-1.986l-.016-.022c-.255-.4-.57-.7-.867-.98-.224-.212-.435-.41-.616-.646 0-.003-.005-.006-.008-.01-.172-.22-.355-.432-.537-.64-.44-.503-.89-1.02-1.19-1.724.643.564 1.623.774 2.676.893h.01c1.485.165 1.7 1.238 1.948 2.48.104.517.21 1.054.425 1.52.05.112.16.178.276.178.04 0 .084-.01.124-.027.153-.07.22-.25.15-.403-.184-.402-.28-.882-.38-1.388-.057-.28-.117-.57-.192-.852.255.132.52.24.785.347.695.28 1.296.52 1.552 1.145.047.118.16.188.28.188.037 0 .076-.007.114-.022.155-.063.23-.24.166-.395-.354-.862-1.133-1.176-1.888-1.48-.602-.24-1.17-.47-1.534-.96-.045-.062-.094-.122-.145-.18 1.902.175 3.73.503 4.238 2.38.037.135.16.224.293.224.026 0 .052-.004.08-.01.16-.045.256-.212.212-.374-.674-2.49-3.18-2.696-5.392-2.878-2.27-.185-3.725-.39-3.934-1.924H25.6c.222 0 .403-.18.403-.405 0-.224-.18-.405-.404-.405" fill="#00E676"/></g></symbol><symbol id="icon-ok" viewBox="0 0 19 32">
    <!-- Generator: Sketch 3.3.3 (12072) - http://www.bohemiancoding.com/sketch -->
    <title>odnoklassniki</title>
    <desc>Created with Sketch.</desc>
    
    <g id="Page-1" stroke="none" stroke-width="1" sketch:type="MSPage">
        <path d="M9.25001007,4.83066372 C11.1322373,4.83066372 12.6628262,6.3614992 12.6628262,8.24367713 C12.6628262,10.1239317 11.1322373,11.6549151 9.25001007,11.6549151 C7.3697555,11.6549151 5.83724323,10.1239317 5.83724323,8.24367713 C5.83724323,6.3614992 7.3697555,4.83066372 9.25001007,4.83066372 L9.25001007,4.83066372 L9.25001007,4.83066372 Z M9.25001007,16.4836554 C13.7965519,16.4836554 17.4925036,12.7876544 17.4925036,8.24367713 C17.4925036,3.69752985 13.7965519,0 9.25001007,0 C4.7045039,0 1.00756587,3.69752985 1.00756587,8.24367713 C1.00756587,12.7876544 4.7045039,16.4836554 9.25001007,16.4836554 L9.25001007,16.4836554 L9.25001007,16.4836554 Z M12.5848049,23.2076924 C14.2627564,22.8252794 15.881033,22.1616051 17.3711316,21.2251026 C18.4991364,20.5142308 18.8391357,19.023343 18.1282639,17.8953876 C17.4183291,16.7649168 15.9282304,16.4248682 14.7983022,17.1357401 C11.4221295,19.2591331 7.0750302,19.2581961 3.70078086,17.1357401 C2.57090199,16.4248682 1.08075401,16.7649168 0.371805568,17.8953876 C-0.339066283,19.0240828 -3.98381299e-06,20.5142308 1.12795148,21.2251026 C2.61809946,22.1604214 4.23632668,22.8252794 5.9143275,23.2076924 L1.30613797,27.8156353 C0.364111936,28.7586477 0.364111936,30.2873132 1.30712433,31.2303255 C1.77909905,31.7013632 2.39656232,31.9373506 3.01397627,31.9373506 C3.63237659,31.9373506 4.2507769,31.7013632 4.72280094,31.2303255 L9.24907302,26.70213 L13.7791919,31.2303255 C14.7212673,32.1733873 16.2499327,32.1733873 17.1929451,31.2303255 C18.1369439,30.2873132 18.1369439,28.7579079 17.1929451,27.8156353 L12.5848049,23.2076924 L12.5848049,23.2076924 Z" id="odnoklassniki" sketch:type="MSShapeGroup"/>
    </g>
</symbol><symbol id="pic-logo-small" viewBox="0 0 27 46"><title>Group Copy</title><g fill="none" fill-rule="evenodd"><use fill="#FFF" xlink:href="#a"/><use fill="#FFF" xlink:href="#b"/><use fill="#FFF" xlink:href="#c"/><use fill="#FFF" xlink:href="#d"/><use fill="#FFF" xlink:href="#e"/><path d="M1.047 14.796c0-.224.06-.434.165-.615l-.873-.503c-.192.33-.303.71-.303 1.12 0 .407.112.79.304 1.12l.874-.504c-.105-.182-.167-.392-.167-.617" fill="#FFF"/><use fill="#FFF" xlink:href="#f"/><path d="M25.155 14.794c0 .225-.06.434-.165.616l.873.505c.192-.33.303-.713.303-1.12 0-.41-.11-.792-.303-1.122l-.873.505c.104.18.165.39.165.616" fill="#FFF"/><use fill="#FFF" xlink:href="#g"/><use fill="#FFF" xlink:href="#h"/><use xlink:href="#h"/><use fill="#FFF" xlink:href="#i"/><use fill="#FFF" xlink:href="#j"/><use fill="#FFF" xlink:href="#k"/><use fill="#FFF" xlink:href="#l"/><use fill="#FFF" xlink:href="#m"/><use fill="#FFF" xlink:href="#n"/><use fill="#FFF" xlink:href="#o"/><path d="M12.037 1.668c.214-.368.61-.615 1.064-.615.456 0 .852.247 1.065.615l.874-.506c-.39-.67-1.112-1.12-1.94-1.12-.826 0-1.548.45-1.936 1.12l.873.506" fill="#FFF"/><use fill="#FFF" xlink:href="#p"/><path d="M1.047 8.54c0-.224.06-.433.166-.615L.34 7.42c-.192.33-.303.713-.303 1.12 0 .41.11.792.303 1.122l.873-.505c-.105-.182-.166-.39-.166-.616" fill="#FFF"/><use fill="#FFF" xlink:href="#q"/><path d="M25.155 8.54c0 .224-.06.433-.164.613l.874.505c.19-.33.302-.71.302-1.12 0-.408-.112-.79-.304-1.12l-.874.504c.106.182.167.392.167.617" fill="#FFF"/><use fill="#FFF" xlink:href="#r"/><use fill="#FFF" xlink:href="#s"/><use fill="#FFF" xlink:href="#t"/><path d="M25.155 21.05c0 .225-.06.434-.165.616l.873.505c.192-.33.303-.712.303-1.12 0-.408-.11-.79-.303-1.12l-.874.505c.104.18.165.39.165.615" fill="#FFF"/><use fill="#FFF" xlink:href="#u"/><path d="M25.6 33.155H13.707v-5.5l3.242-1.873c.404.395.955.64 1.563.64.827 0 1.55-.453 1.937-1.122l-.873-.506c-.213.368-.61.616-1.064.616-.455 0-.85-.248-1.064-.616-.106-.18-.168-.392-.168-.616 0-.224.06-.434.166-.614l-.874-.505c-.19.33-.302.71-.302 1.118 0 .19.027.375.072.553l-2.636 1.524V23.21c.567-.16 1.042-.54 1.332-1.037l-.874-.505c-.212.368-.61.616-1.065.616-.454 0-.85-.248-1.063-.616l-.874.505c.29.498.766.877 1.333 1.036v3.043L9.86 24.73c.044-.177.07-.36.07-.552 0-.408-.11-.79-.3-1.118l-.874.504c.104.18.164.39.164.614 0 .225-.06.436-.167.617-.213.368-.61.615-1.063.615-.454 0-.85-.247-1.063-.615l-.874.506c.388.67 1.11 1.12 1.937 1.12.608 0 1.16-.244 1.564-.64l3.24 1.875v5.5H.605c-.223 0-.404.18-.404.404 0 .223.18.404.404.404h11.87c-.067.394-.246.852-.675 1.254-.77.72-2.136 1.04-3.953.92-.86-.055-1.594 0-2.218.126-.038 0-.074.008-.11.022l-.01.005c-2.08.47-2.904 1.79-3.053 2.682-.028.165.084.32.25.35.016.002.033.003.05.003.144 0 .273-.105.298-.253.01-.067.194-1.06 1.36-1.735-.102.293-.13.61-.155.934-.037.465-.08.99-.36 1.565-.072.152-.01.333.14.406.044.022.09.032.134.032.112 0 .22-.063.272-.17.33-.678.378-1.29.418-1.782.06-.735.093-1.143.868-1.465.272-.055.572-.095.9-.117-.35.43-.426 1.026-.505 1.643-.113.89-.254 1.996-1.196 3.113-.107.128-.09.32.037.427.056.048.126.072.195.072.086 0 .172-.036.23-.108 1.06-1.253 1.213-2.458 1.336-3.427.136-1.064.235-1.547 1.122-1.71 1.995.122 3.463-.242 4.364-1.087.094-.09.18-.185.26-.284-.248.722-.757 1.54-1.804 2.425-.664.56-1.226.892-1.722 1.186-.94.555-1.617.957-1.863 2.35-.028.164.082.322.247.35.018.004.035.006.052.006.145 0 .273-.104.298-.252.197-1.117.686-1.406 1.575-1.932l.256-.153c-.2.474-.3.942-.394 1.383-.218 1.015-.405 1.89-1.602 2.676-.14.09-.18.28-.087.42.06.09.156.137.255.137.057 0 .115-.016.166-.05 1.406-.92 1.638-2.006 1.862-3.054.025-.12.05-.24.078-.358.064.32.157.638.247.945.2.676.405 1.376.29 2.035-.03.166.08.323.245.352.018.003.036.004.053.004.144 0 .272-.103.298-.25.14-.8-.086-1.57-.305-2.313-.334-1.134-.624-2.116.442-3.016.894-.754 1.433-1.478 1.76-2.14.067.793.16 1.492.253 2.12.215 1.442-.142 1.884-.555 2.396-.415.513-.885 1.094-.796 2.573.01.16.144.285.303.285h.018c.168-.01.295-.154.285-.322-.076-1.244.282-1.686.66-2.155.143-.175.288-.354.41-.567.187 1.672.017 2.956-1.448 5.017-.097.136-.066.325.07.423.054.038.115.056.176.056.095 0 .19-.045.247-.128 1.995-2.806 1.753-4.342 1.35-6.886-.132-.845-.286-1.82-.382-3.008.334.694.785 1.213 1.21 1.698 1.067 1.222 1.99 2.277.633 5.802-.06.157.018.332.174.393.036.014.072.02.11.02.12 0 .235-.073.282-.194.7-1.82.818-3.07.634-4.017.417.543.69 1.28.542 2.672-.018.166.103.316.27.333l.03.002c.155 0 .286-.115.302-.27.053-.5.053-.924.017-1.298.388.4.812.77 1.167.97.047.026.098.038.148.038.106 0 .21-.055.264-.154.082-.146.03-.33-.115-.413-.63-.354-1.623-1.45-1.96-1.986l-.016-.022c-.255-.4-.57-.7-.867-.98-.224-.212-.435-.41-.616-.646 0-.003-.005-.006-.008-.01-.172-.22-.355-.432-.537-.64-.44-.503-.89-1.02-1.19-1.724.643.564 1.623.774 2.676.893h.01c1.485.165 1.7 1.238 1.948 2.48.104.517.21 1.054.425 1.52.05.112.16.178.276.178.04 0 .084-.01.124-.027.153-.07.22-.25.15-.403-.184-.402-.28-.882-.38-1.388-.057-.28-.117-.57-.192-.852.255.132.52.24.785.347.695.28 1.296.52 1.552 1.145.047.118.16.188.28.188.037 0 .076-.007.114-.022.155-.063.23-.24.166-.395-.354-.862-1.133-1.176-1.888-1.48-.602-.24-1.17-.47-1.534-.96-.045-.062-.094-.122-.145-.18 1.902.175 3.73.503 4.238 2.38.037.135.16.224.293.224.026 0 .052-.004.08-.01.16-.045.256-.212.212-.374-.674-2.49-3.18-2.696-5.392-2.878-2.27-.185-3.725-.39-3.934-1.924H25.6c.222 0 .403-.18.403-.405 0-.224-.18-.405-.404-.405" fill="#FFF"/></g></symbol><symbol id="icon-telegram" viewBox="0 0 32 27">
    <!-- Generator: Sketch 3.3.3 (12072) - http://www.bohemiancoding.com/sketch -->
    <title>path9</title>
    <desc>Created with Sketch.</desc>
    
    <g id="Page-1" stroke="none" stroke-width="1" sketch:type="MSPage">
        <path d="M29.8395284,0.177464413 L1.4938725,11.1104417 C-0.440764139,11.8866545 -0.429290764,12.9657099 1.14124074,13.446869 L8.21073295,15.6534015 L10.9156866,23.9465813 C11.2445295,24.8542678 11.0824241,25.2142694 12.0355851,25.2142694 C12.7711661,25.2142694 13.0974833,24.8789005 13.5071685,24.4786884 C13.7676949,24.2237412 15.3145406,22.719841 17.0417047,21.0405748 L24.3953027,26.4737471 C25.7484637,27.2202744 26.7255191,26.8335367 27.0624675,25.2170062 L31.8895339,2.46999728 C32.3837459,0.48862376 31.1341629,-0.410115792 29.8395284,0.177464413 L29.8395284,0.177464413 Z M9.32020973,15.1464533 L25.2548843,5.09316247 C26.0503594,4.61074055 26.7797293,4.87010971 26.1808853,5.40168979 L12.5366383,17.7122492 L12.0053749,23.3785801 L9.32020973,15.1464533 L9.32020973,15.1464533 Z" id="path9" sketch:type="MSShapeGroup"/>
    </g>
</symbol><symbol id="icon-twitter" viewBox="0 0 32 26">
    <!-- Generator: Sketch 3.3.3 (12072) - http://www.bohemiancoding.com/sketch -->
    <title>Shape</title>
    <desc>Created with Sketch.</desc>
    
    <g id="Page-1" stroke="none" stroke-width="1" sketch:type="MSPage">
        <path d="M31.52832,3.03296 C30.36928,3.54816 29.12192,3.89568 27.81312,4.0512 C29.14944,3.2512 30.17408,1.984 30.65728,0.47232 C29.40736,1.21408 28.02368,1.75232 26.54976,2.04288 C25.37024,0.78592 23.68896,0 21.82848,0 C18.25664,0 15.36064,2.896 15.36064,6.46848 C15.36064,6.97472 15.4176,7.46816 15.52832,7.9424 C10.15232,7.67232 5.3856,5.0976 2.1952,1.184 C1.6384,2.13888 1.31968,3.24992 1.31968,4.43648 C1.31968,6.68032 2.46144,8.66048 4.19712,9.82016 C3.13728,9.78624 2.13952,9.49504 1.2672,9.01056 C1.26656,9.03744 1.26656,9.06496 1.26656,9.09248 C1.26656,12.22592 3.49632,14.83968 6.45568,15.43488 C5.91296,15.58208 5.34144,15.66144 4.75136,15.66144 C4.33408,15.66144 3.92896,15.62112 3.53408,15.54496 C4.35776,18.11456 6.74624,19.98528 9.57632,20.03712 C7.36256,21.77216 4.57408,22.8064 1.54304,22.8064 C1.02144,22.8064 0.50624,22.77568 0,22.71552 C2.86336,24.55168 6.26304,25.62176 9.91552,25.62176 C21.81376,25.62176 28.31936,15.76576 28.31936,7.21792 C28.31936,6.9376 28.3136,6.65792 28.30144,6.38016 C29.5648,5.47008 30.66176,4.33024 31.52832,3.03296 L31.52832,3.03296 Z" id="Shape" sketch:type="MSShapeGroup"/>
    </g>
</symbol><symbol id="icon-viber" viewBox="0 0 31 31">
    <!-- Generator: Sketch 3.3.3 (12072) - http://www.bohemiancoding.com/sketch -->
    <title>g15</title>
    <desc>Created with Sketch.</desc>
    
    <g id="Page-1" stroke="none" stroke-width="1" sketch:type="MSPage">
        <g id="g15" sketch:type="MSLayerGroup">
            <path d="M28.0456345,22.4253904 C27.1026948,21.6662774 26.094961,20.9848723 25.1030607,20.2887566 C23.1247626,18.8993327 21.315356,18.7914173 19.8391281,21.0267583 C19.0101677,22.2817653 17.8497129,22.3366775 16.6363672,21.7860959 C13.2912164,20.2694419 10.7082107,17.9323619 9.1951501,14.5324112 C8.52587289,13.0282219 8.53463189,11.679561 10.1006956,10.6156797 C10.9297684,10.0530826 11.7651296,9.38728656 11.6983142,8.15788273 C11.6110611,6.55487399 7.71892223,1.19773669 6.18194285,0.632332204 C5.54590491,0.398309772 4.91256206,0.413469575 4.26551923,0.630984666 C0.661416566,1.8429828 -0.831318648,4.80700491 0.59830687,8.31655533 C4.86326462,18.7871501 12.3690513,26.0764323 22.7010742,30.5254413 C23.2900606,30.7787785 23.9445149,30.8800684 24.275897,30.9709149 C26.6281368,30.9946091 29.3837398,28.7282748 30.1795732,26.4791216 C30.9457609,24.3153125 29.3264694,23.4563693 28.0456345,22.4253904 L28.0456345,22.4253904 Z" id="path17-6" sketch:type="MSShapeGroup"/>
            <path d="M16.4608504,1.70575851 C24.01425,2.86733626 27.497748,6.4589742 28.4596656,14.0667245 C28.5488277,14.7694656 28.2870684,15.8268338 29.2896367,15.8463731 C30.3374598,15.8663615 30.085021,14.8246024 30.09378,14.1211875 C30.1823806,6.95610343 23.9348576,0.313751763 16.6792638,0.0688367326 C16.1318265,0.14755541 14.9991085,-0.308698496 14.9284751,0.918234849 C14.8814236,1.74551088 15.8350313,1.60952184 16.4608504,1.70575851 L16.4608504,1.70575851 Z" id="path19-1" sketch:type="MSShapeGroup"/>
            <path d="M17.9383135,3.79174733 C17.2117659,3.70426965 16.2526558,3.36188271 16.082866,4.37006572 C15.9056647,5.42810763 16.9745992,5.32064148 17.6615067,5.4743731 C22.3266833,6.51703063 23.951028,8.2150408 24.7191247,12.8425986 C24.8313072,13.5172659 24.608402,14.5673349 25.7549322,14.3932779 C26.6046672,14.2639143 26.2977654,13.3637589 26.3688481,12.8379945 C26.4064668,8.395274 22.5994474,4.35142478 17.9383135,3.79174733 L17.9383135,3.79174733 Z" id="path21-2" sketch:type="MSShapeGroup"/>
            <path d="M18.3667183,7.42470976 C17.8817169,7.43672531 17.4056991,7.489167 17.2274872,8.00740765 C16.9597763,8.78201741 17.5229349,8.96674241 18.0962,9.05882417 C20.0099286,9.36606283 21.0171009,10.4945136 21.2082267,12.402852 C21.2598824,12.9208681 21.5885693,13.3405139 22.0889551,13.2814468 C22.7822634,13.1987978 22.8449239,12.5816254 22.8237002,11.9955586 C22.8579501,9.8515134 20.4346276,7.37339102 18.3667183,7.42470976 L18.3667183,7.42470976 Z" id="path23" sketch:type="MSShapeGroup"/>
        </g>
    </g>
</symbol><symbol id="pic-logo" viewBox="0 0 336 100"><title>Group Copy + &#x421;&#x43C;&#x435;&#x43D;&#x438; &#x43B;&#x43E;&#x433;&#x43E;&#x442;&#x438;&#x43F; + &#x422;&#x415;&#x41F;&#x41B;&#x418;&#x426;&#x410; &#x41F;&#x420;&#x415;&#x414;&#x423;&#x41F;&#x420;&#x415;&#x416;&#x414;&#x410;&#x415;</title><g fill="none" fill-rule="evenodd"><g><use fill="#FFF" xlink:href="#a"/><use fill="#FFF" xlink:href="#b"/><use fill="#FFF" xlink:href="#c"/><use fill="#FFF" xlink:href="#d"/><use fill="#FFF" xlink:href="#e"/><path d="M2.277 32.164c0-.486.13-.942.358-1.335l-1.9-1.098c-.413.717-.654 1.545-.654 2.432 0 .89.243 1.72.66 2.44l1.9-1.098c-.23-.395-.363-.852-.363-1.342" fill="#FFF"/><use fill="#FFF" xlink:href="#f"/><path d="M54.685 32.16c0 .49-.132.945-.36 1.34l1.9 1.097c.415-.718.657-1.55.657-2.436 0-.888-.242-1.72-.66-2.436l-1.897 1.097c.228.396.36.852.36 1.34" fill="#FFF"/><use fill="#FFF" xlink:href="#g"/><use fill="#FFF" xlink:href="#h"/><use xlink:href="#h"/><use fill="#FFF" xlink:href="#i"/><use fill="#FFF" xlink:href="#j"/><use fill="#FFF" xlink:href="#k"/><use fill="#FFF" xlink:href="#l"/><use fill="#FFF" xlink:href="#m"/><use fill="#FFF" xlink:href="#n"/><use fill="#FFF" xlink:href="#o"/><path d="M26.168 3.626c.464-.8 1.324-1.338 2.313-1.338.99 0 1.85.54 2.314 1.338l1.9-1.1C31.848 1.074 30.278.09 28.48.09c-1.797 0-3.367.983-4.21 2.44l1.898 1.096" fill="#FFF"/><use fill="#FFF" xlink:href="#p"/><path d="M2.277 18.568c0-.49.132-.945.36-1.34l-1.9-1.096c-.414.718-.656 1.55-.656 2.436 0 .888.243 1.72.66 2.437l1.897-1.1c-.228-.393-.36-.85-.36-1.337" fill="#FFF"/><use fill="#FFF" xlink:href="#q"/><path d="M54.685 18.563c0 .488-.13.943-.358 1.335l1.9 1.097c.413-.715.655-1.544.655-2.432 0-.888-.243-1.72-.66-2.44l-1.9 1.1c.23.395.363.85.363 1.34" fill="#FFF"/><use fill="#FFF" xlink:href="#r"/><use fill="#FFF" xlink:href="#s"/><use fill="#FFF" xlink:href="#t"/><path d="M54.685 45.76c0 .49-.132.945-.36 1.34l1.9 1.097c.415-.717.657-1.55.657-2.436 0-.886-.242-1.718-.66-2.435l-1.898 1.098c.23.395.36.85.36 1.338" fill="#FFF"/><use fill="#FFF" xlink:href="#u"/><path d="M55.65 72.075H29.8V60.12l7.047-4.072c.88.858 2.077 1.388 3.4 1.388 1.797 0 3.367-.982 4.21-2.437l-1.898-1.1c-.464.8-1.326 1.34-2.314 1.34-.99 0-1.85-.54-2.314-1.34-.228-.394-.362-.852-.362-1.34 0-.486.132-.942.36-1.335l-1.9-1.097c-.415.717-.656 1.545-.656 2.432 0 .417.058.817.157 1.203l-5.73 3.31v-6.618c1.232-.347 2.266-1.17 2.896-2.254l-1.9-1.096c-.462.8-1.324 1.34-2.315 1.34-.988 0-1.85-.54-2.314-1.34L24.268 48.2c.63 1.085 1.664 1.908 2.897 2.255v6.617l-5.73-3.313c.096-.385.154-.785.154-1.2 0-.885-.242-1.714-.656-2.43l-1.9 1.097c.227.393.358.847.358 1.333 0 .49-.134.95-.364 1.343-.463.8-1.324 1.336-2.312 1.336-.986 0-1.847-.538-2.31-1.337l-1.9 1.1c.845 1.45 2.414 2.433 4.21 2.433 1.323 0 2.523-.532 3.4-1.39l7.048 4.073v11.955H1.314c-.486 0-.88.395-.88.88 0 .487.394.88.88.88h25.802c-.144.857-.534 1.853-1.465 2.725-1.67 1.568-4.64 2.26-8.592 2-1.87-.12-3.464-.002-4.822.276-.08 0-.16.015-.237.048l-.02.01c-4.526 1.018-6.316 3.89-6.64 5.827-.06.36.184.7.542.76.037.006.074.01.11.01.315 0 .596-.23.65-.552.022-.144.422-2.305 2.956-3.77-.222.636-.28 1.326-.337 2.03-.08 1.01-.172 2.15-.78 3.4-.158.33-.022.724.305.883.093.046.19.067.288.067.244 0 .48-.137.592-.37.717-1.473.823-2.804.91-3.873.13-1.598.202-2.483 1.885-3.184.592-.12 1.243-.208 1.96-.254-.76.936-.93 2.23-1.1 3.57-.247 1.934-.552 4.338-2.6 6.766-.236.28-.2.694.077.93.123.104.274.156.425.156.187 0 .373-.08.503-.235 2.3-2.725 2.634-5.345 2.902-7.45.294-2.315.51-3.365 2.437-3.72 4.338.267 7.53-.524 9.488-2.36.205-.195.39-.403.566-.618-.54 1.568-1.647 3.35-3.923 5.27 0 0 0 .002-.002.002-1.44 1.216-2.663 1.937-3.74 2.574-2.042 1.21-3.517 2.082-4.05 5.11-.063.358.177.7.535.763.04.008.077.01.115.01.314 0 .592-.225.648-.545.428-2.43 1.492-3.058 3.424-4.2.176-.106.365-.217.557-.333-.432 1.03-.652 2.048-.857 3.007-.47 2.205-.877 4.11-3.48 5.816-.302.2-.388.607-.19.913.128.194.34.298.553.298.123 0 .25-.035.36-.107 3.056-2.004 3.56-4.363 4.046-6.642.056-.262.11-.52.17-.778.14.7.34 1.39.537 2.055.433 1.47.88 2.992.628 4.425-.063.36.176.7.535.764.038.006.077.01.115.01.314 0 .592-.225.648-.545.306-1.74-.187-3.412-.663-5.03-.727-2.467-1.356-4.6.96-6.556h.002c1.942-1.64 3.114-3.214 3.822-4.656.148 1.726.348 3.246.553 4.612.467 3.133-.31 4.094-1.208 5.207-.9 1.116-1.923 2.38-1.73 5.594.022.35.313.62.66.62h.04c.363-.02.64-.335.617-.7-.165-2.703.613-3.665 1.437-4.685.31-.38.623-.77.89-1.233.406 3.634.036 6.425-3.15 10.906-.21.296-.14.707.156.92.116.083.248.12.38.12.207 0 .41-.095.538-.275 4.336-6.1 3.81-9.44 2.936-14.97-.29-1.837-.624-3.956-.832-6.54.723 1.51 1.705 2.64 2.626 3.692 2.323 2.657 4.328 4.95 1.38 12.615-.132.34.037.72.377.853.077.03.157.044.237.044.264 0 .514-.16.615-.423 1.52-3.96 1.78-6.678 1.38-8.733.906 1.183 1.5 2.785 1.178 5.81-.04.362.224.688.585.726.024 0 .047.003.07.003.333 0 .618-.25.654-.59.116-1.084.116-2.006.036-2.818.845.867 1.767 1.674 2.537 2.11.102.055.213.083.322.083.23 0 .454-.12.575-.336.178-.32.066-.72-.25-.9-1.37-.77-3.527-3.152-4.26-4.318-.01-.018-.022-.032-.035-.048-.555-.87-1.235-1.52-1.885-2.13-.486-.462-.944-.894-1.337-1.404l-.02-.02c-.375-.483-.773-.94-1.17-1.394-.957-1.094-1.932-2.215-2.588-3.748 1.4 1.227 3.532 1.683 5.82 1.94.007.002.014.004.022.004 3.227.357 3.693 2.688 4.233 5.386.226 1.127.46 2.295.923 3.31.11.24.35.385.6.385.092 0 .184-.02.273-.06.33-.152.476-.543.325-.875-.4-.874-.608-1.917-.828-3.02-.122-.61-.252-1.236-.416-1.85.555.287 1.134.524 1.706.754 1.512.608 2.818 1.132 3.375 2.49.104.256.35.41.61.41.082 0 .167-.017.248-.05.338-.138.5-.524.36-.86-.767-1.874-2.462-2.556-4.102-3.215-1.308-.526-2.544-1.024-3.334-2.092-.098-.133-.204-.262-.316-.386 4.136.376 8.108 1.09 9.212 5.17.08.294.345.487.636.487.057 0 .114-.008.173-.023.35-.095.56-.457.463-.81-1.464-5.415-6.914-5.862-11.72-6.256-4.935-.404-8.1-.85-8.553-4.183h25.76c.485 0 .878-.393.878-.88 0-.485-.393-.88-.878-.88" fill="#FFF"/></g><path d="M98.08 63.48h-4.36c-.68 2.88-2.64 4.88-5.8 4.88-1.68 0-3.2-.64-4.2-1.72-1.4-1.52-1.72-3.16-1.72-8.88 0-5.72.32-7.36 1.72-8.88 1-1.08 2.52-1.72 4.2-1.72 3.16 0 5.08 2 5.76 4.88h4.4c-1-5.68-4.92-8.76-10.16-8.76-2.96 0-5.52 1.08-7.48 3.04-2.8 2.8-2.76 5.96-2.76 11.44 0 5.48-.04 8.64 2.76 11.44 1.96 1.96 4.52 3.04 7.48 3.04 5.16 0 9.2-3.08 10.16-8.76zM122.62 72V51.72h-4l-6.04 12.08-6.08-12.08h-4.04V72h4.08V59l4.76 9.28h2.56l4.68-9.28v13h4.08zm21.74-8.92v-1.84c0-5.96-3.32-9.76-8.56-9.76-5.32 0-8.6 3.92-8.6 10.28 0 6.88 3.12 10.48 9.2 10.48 3.24 0 5.2-.92 7.48-3.16l-2.56-2.44c-1.44 1.4-2.72 2.12-4.76 2.12-3.8 0-5.24-2.28-5.32-5.68h13.12zm-4-2.88h-9.12c.08-2.8 1.28-5.32 4.56-5.32 3.32 0 4.36 2.56 4.56 5.32zM165.14 72V51.72h-4.08v8.08h-8.08v-8.08h-4.08V72h4.08v-8.64h8.08V72h4.08zm22.42 0V51.72h-4.08l-8.68 13.76V51.72h-4.08V72h4.08l8.68-13.96V72h4.08zm30 0V51.72h-13.88v8.44c0 7.84-2.08 8.24-3.84 8.24h-.64V72h1.92c3.96 0 6.48-2.24 6.48-10.84v-5.88h5.88V72h4.08zm21.54-10.24c0-3.88-.68-6.12-2.36-7.88-1.52-1.56-3.64-2.4-6.08-2.4s-4.52.84-6.04 2.4c-1.72 1.8-2.4 4-2.4 7.96 0 4 .68 6.2 2.4 8 1.52 1.56 3.6 2.4 6.04 2.4s4.56-.84 6.08-2.4c1.72-1.8 2.36-4 2.36-8.08zm-4.04.16c0 2.36-.28 4.16-1.24 5.32-.72.84-1.8 1.36-3.16 1.36-1.28 0-2.32-.44-3.04-1.28-.92-1.04-1.32-2.64-1.32-5.32 0-2.4.24-4.28 1.24-5.52.72-.84 1.76-1.36 3.12-1.36s2.4.52 3.12 1.32c1.04 1.16 1.28 2.96 1.28 5.48zm22.02-6.64v-3.56h-13.16V72H248V55.28h9.08zm18.34 6.48c0-3.88-.68-6.12-2.36-7.88-1.52-1.56-3.64-2.4-6.08-2.4s-4.52.84-6.04 2.4c-1.72 1.8-2.4 4-2.4 7.96 0 4 .68 6.2 2.4 8 1.52 1.56 3.6 2.4 6.04 2.4s4.56-.84 6.08-2.4c1.72-1.8 2.36-4 2.36-8.08zm-4.04.16c0 2.36-.28 4.16-1.24 5.32-.72.84-1.8 1.36-3.16 1.36-1.28 0-2.32-.44-3.04-1.28-.92-1.04-1.32-2.64-1.32-5.32 0-2.4.24-4.28 1.24-5.52.72-.84 1.76-1.36 3.12-1.36s2.4.52 3.12 1.32c1.04 1.16 1.28 2.96 1.28 5.48zm22.22-6.64v-3.56h-16.72v3.56h6.44V72h4.08V55.28h6.2zM313.22 72V51.72h-4.08l-8.68 13.76V51.72h-4.08V72h4.08l8.68-13.96V72h4.08zm21.82 0V51.72H318.8V72h4.08V55.28h8.08V72h4.08zM82.252 20.984v-.952H75.42v.952h2.884V30h1.064v-9.016h2.884zM90.302 30v-.952h-5.124V25.45h4.368v-.952h-4.368v-3.514h5.124v-.952h-6.188V30h6.188zm9.058 0v-9.968h-6.846V30h1.064v-9.016h4.718V30h1.064zm9.492 0v-9.968h-5.488v4.046c0 4.144-.882 4.97-2.114 4.97h-.266V30h.504c1.904 0 2.912-1.4 2.912-5.6v-3.416h3.388V30h1.064zm10.024 0v-9.968h-1.008l-5.068 8.12v-8.12h-1.064V30h1.008l5.068-8.134V30h1.064zm10.92 2.408v-3.36h-1.19v-9.016h-1.064v9.016h-4.718v-9.016h-1.064V30h6.986v2.408h1.05zm8.96-2.408l-3.654-9.968h-.896L130.538 30h1.134l.798-2.254h4.354l.798 2.254h1.134zm-2.24-3.178h-3.724l1.876-5.264 1.848 5.264zM150.698 30v-9.968h-6.846V30h1.064v-9.016h4.718V30h1.064zm9.688-7.042c0-1.75-1.232-2.926-3.08-2.926h-3.71V30h1.064v-4.102h2.646c1.848 0 3.08-1.176 3.08-2.94zm-1.064 0c0 1.246-.784 1.988-2.114 1.988h-2.548v-3.962h2.548c1.33 0 2.114.728 2.114 1.974zM168.604 30v-.952h-5.124V25.45h4.368v-.952h-4.368v-3.514h5.124v-.952h-6.188V30h6.188zm1.134-.952v3.36h1.05V30h6.678v2.408h1.05v-3.36h-1.19v-9.016h-5.446v3.36c0 2.436-.35 4.228-1.26 5.656h-.882zm2.072 0c.798-1.4 1.078-3.15 1.078-4.998v-3.066h3.374v8.064h-4.452zm14.798-9.016h-1.134l-2.422 5.894-2.688-5.894h-1.134l3.29 7.084-.406.938c-.294.686-.63.994-1.316.994h-.63V30h.868c.994 0 1.568-.644 1.96-1.554l3.612-8.414zM195.022 30v-9.968h-6.846V30h1.064v-9.016h4.718V30h1.064zm9.688-7.042c0-1.75-1.232-2.926-3.08-2.926h-3.71V30h1.064v-4.102h2.646c1.848 0 3.08-1.176 3.08-2.94zm-1.064 0c0 1.246-.784 1.988-2.114 1.988h-2.548v-3.962h2.548c1.33 0 2.114.728 2.114 1.974zM212.928 30v-.952h-5.124V25.45h4.368v-.952h-4.368v-3.514h5.124v-.952h-6.188V30h6.188zm2.156 0l4.382-5.194V30h1.064v-5.194L224.912 30h1.4l-4.564-5.236 4.186-4.732h-1.344l-4.06 4.746v-4.746h-1.064v4.746l-4.074-4.746h-1.344l4.2 4.732L213.684 30h1.4zm11.578-.952v3.36h1.05V30h6.678v2.408h1.05v-3.36h-1.19v-9.016h-5.446v3.36c0 2.436-.35 4.228-1.26 5.656h-.882zm2.072 0c.798-1.4 1.078-3.15 1.078-4.998v-3.066h3.374v8.064h-4.452zM244.4 30l-3.654-9.968h-.896L236.182 30h1.134l.798-2.254h4.354l.798 2.254h1.134zm-2.24-3.178h-3.724l1.876-5.264 1.848 5.264zM252.198 30v-.952h-5.124V25.45h4.368v-.952h-4.368v-3.514h5.124v-.952h-6.188V30h6.188zm8.022-9.016v-.952h-6.832v.952h2.884V30h1.064v-9.016h2.884z" fill="#FFF"/></g></symbol><symbol id="icon-vk" viewBox="0 0 32 21">
    <!-- Generator: Sketch 3.3.3 (12072) - http://www.bohemiancoding.com/sketch -->
    <title>vkontakte</title>
    <desc>Created with Sketch.</desc>
    
    <g id="Page-1" stroke="none" stroke-width="1" sketch:type="MSPage">
        <path d="M0.0054438677,1.52695383 C-0.213527289,0.190760493 6.24612006,1.01805207 6.24612006,1.01805207 C6.24612006,1.01805207 9.99600007,10.4350338 11.4740549,10.4350337 C12.9521098,10.4350335 12.2404538,2.44968778 12.2404538,2.44968778 C12.2404538,2.44968778 10.4065708,1.97247588 10.4065709,1.24075096 C10.4065709,0.509026033 12.2404538,0 12.2404538,0 C12.2404538,0 16.986418,6.3958816e-08 17.632617,0 C18.2788159,-6.48236808e-08 18.535979,1.04986625 18.5359797,1.74977699 C18.5359803,2.44968773 18.5359797,10.3077772 18.5359797,10.3077772 L20.0140346,10.3077772 C20.0140346,10.3077772 21.3297427,8.19306598 22.3678669,6.04468412 C23.4059912,3.89630234 24.6670634,1.01805207 24.6670634,1.01805207 L30.935111,1.01805207 C30.935111,1.01805207 32.0847093,1.04961765 31.9478523,2.00416573 C31.7616698,3.30274945 27.5915791,9.46950121 26.7199174,11.580218 C26.0630041,13.1709243 29.4795482,15.3239543 30.935111,17.6249021 C31.8797907,19.118248 31.9478523,20.8700673 31.9478523,20.8700673 L24.502942,20.8700673 L20.7803265,16.5432218 C20.7803265,16.5432218 20.0140346,16.2252048 19.4117571,16.6704783 C18.8094797,17.1157518 18.7822152,18.0066716 18.7822152,18.0066716 L18.7822152,20.8700673 L12.9521098,20.8700673 C12.9521098,20.8700673 8.49057378,19.3429892 4.7133224,12.6620226 C0.936070612,5.98105597 0.224414962,2.86314716 0.0054438677,1.52695383 L0.0054438677,1.52695383 Z" id="vkontakte" sketch:type="MSShapeGroup"/>
    </g>
</symbol><symbol id="icon-whatsup" viewBox="0 0 32 32">
    <!-- Generator: Sketch 3.3.3 (12072) - http://www.bohemiancoding.com/sketch -->
    <title>whatsup</title>
    <desc>Created with Sketch.</desc>
    
    <g id="Page-1" stroke="none" stroke-width="1" sketch:type="MSPage">
        <path d="M16.1717356,0.0001125236 C7.57912571,0.0001125236 0.613633177,6.96532685 0.613633177,15.5579368 C0.613633177,18.4970125 1.42934767,21.2458244 2.84603445,23.5908819 L0.0382519515,31.9377344 L8.65186327,29.1797431 C10.8806484,30.4124247 13.4439252,31.1149267 16.1717356,31.1149267 C24.7637893,31.1149267 31.7292818,24.1499905 31.7292818,15.5580759 C31.7294209,6.96532685 24.7639284,0.0001125236 16.1717356,0.0001125236 L16.1717356,0.0001125236 L16.1717356,0.0001125236 Z M16.1717356,28.6371852 C13.5147178,28.6371852 11.0408706,27.8402468 8.97536742,26.4740466 L3.94881369,28.0837789 L5.582468,23.2262095 C4.01668559,21.0698859 3.09151374,18.4202394 3.09151374,15.5575196 C3.09151374,8.34515699 8.95923393,2.47757585 16.1717356,2.47757585 C23.3838202,2.47757585 29.2516794,8.34515699 29.2516794,15.5575196 C29.2516794,22.7696041 23.3839592,28.6371852 16.1717356,28.6371852 L16.1717356,28.6371852 Z M12.5227867,9.122624 C12.2707706,8.51525396 12.0777251,8.49466985 11.6884353,8.47617198 C11.5549167,8.46977422 11.4101326,8.46365461 11.2517185,8.46365461 C10.7501897,8.46365461 10.230163,8.61135944 9.91681185,8.93194292 C9.5354497,9.32206721 8.58190515,10.2358344 8.58190515,12.1120473 C8.58190515,13.9885383 9.94852248,15.8017472 10.1389254,16.0562668 C10.3298846,16.3105082 12.8042882,20.2174538 16.6540712,21.8125825 C19.6589325,23.0572252 20.551142,22.946377 21.236676,22.7964469 C22.2341703,22.5786448 23.4867406,21.844015 23.8045424,20.9538917 C24.1223442,20.0632122 24.1223442,19.2997924 24.0270732,19.1412392 C23.9316632,18.9819906 23.6774217,18.8869978 23.2960596,18.6957603 C22.9146974,18.5050793 21.0394581,17.58255 20.6899456,17.4555683 C20.3402941,17.3284476 20.017068,17.3672514 19.748223,17.7390169 C19.3771529,18.2526459 19.0202691,18.7804612 18.7247204,19.0933951 C18.492732,19.3390135 18.1194366,19.3732276 17.7984359,19.2367884 C17.3763227,19.0569557 16.1881473,18.6429093 14.7312659,17.3441639 C13.5977496,16.3335958 12.8322436,15.085198 12.6097128,14.7032795 C12.387182,14.3219173 12.5901023,14.0942404 12.7615901,13.8867305 C12.957139,13.6498742 13.1375281,13.4797772 13.3282092,13.2573855 C13.5188902,13.0345765 13.6254269,12.9159398 13.7525476,12.661142 C13.8796683,12.4069006 13.794133,12.1444533 13.6987229,11.9534941 C13.6031738,11.7625348 12.8396149,9.88660011 12.5227867,9.122624 L12.5227867,9.122624 Z" id="whatsup" sketch:type="MSShapeGroup"/>
    </g>
</symbol><symbol id="pic-search" viewBox="0 0 24 24"><path d="M15.5 14h-.79l-.28-.27C15.41 12.59 16 11.11 16 9.5 16 5.91 13.09 3 9.5 3S3 5.91 3 9.5 5.91 16 9.5 16c1.61 0 3.09-.59 4.23-1.57l.27.28v.79l5 4.99L20.49 19l-4.99-5zm-6 0C7.01 14 5 11.99 5 9.5S7.01 5 9.5 5 14 7.01 14 9.5 11.99 14 9.5 14z"/><path d="M0 0h24v24H0z" fill="none"/></symbol><symbol id="pic-te-st" viewBox="0 0 87 40"><title>&#x422;&#x435;&#x43F;&#x43B;&#x438;&#x446;&#x430; + Group Copy</title><g fill="none" fill-rule="evenodd"><path d="M37.18 6.56v-.68H32.3v.68h2.06V13h.76V6.56h2.06zm4.21 4.17v-.33c0-1.47-.77-2.38-2.02-2.38s-2.02.94-2.02 2.49c0 1.67.75 2.55 2.17 2.55.36 0 .68-.06.95-.17.3-.12.47-.24.83-.59l-.49-.43c-.27.26-.4.35-.62.44-.18.07-.4.12-.63.12-.67 0-1.11-.26-1.34-.81-.1-.24-.13-.44-.15-.89h3.32zm-.72-.54h-2.6c.02-.44.05-.6.15-.82.2-.46.63-.74 1.15-.74.58 0 1.04.34 1.21.91.06.18.07.27.09.65zM46.74 13V8.08h-3.81V13h.71V8.7h2.38V13h.72zm5.46 0V8.08h-3.15v2.11c0 2.05-.6 2.19-1.04 2.19h-.16V13h.33c.9 0 1.56-.54 1.56-2.6V8.7h1.74V13h.72zm5.77 0V8.08h-.72l-2.53 3.79V8.08h-.71V13h.71l2.53-3.81V13h.72zm6.36 1.47v-2.09h-.74v-4.3h-.72v4.3h-2.38v-4.3h-.71V13h3.85v1.47h.7zM69.07 13V9.66c0-1.09-.67-1.64-1.99-1.64-.47 0-.82.06-1.1.2-.24.12-.36.23-.62.53l.49.45c.18-.24.28-.33.45-.41.2-.1.44-.15.76-.15.9 0 1.29.33 1.29 1.08v.47h-1.48c-1.06 0-1.7.53-1.7 1.42 0 .94.61 1.45 1.75 1.45.38 0 .64-.03.87-.13.2-.08.32-.17.56-.4V13h.72zm-.72-1.74c0 .84-.37 1.18-1.29 1.18-.83 0-1.19-.25-1.19-.84 0-.58.37-.87 1.1-.87h1.38v.53zM36.43 23.33l-.49-.47c-.26.27-.38.37-.58.46-.16.07-.33.1-.54.1-.97 0-1.47-.64-1.47-1.88 0-1.24.51-1.88 1.48-1.88.21 0 .39.04.55.11.19.08.31.18.56.44l.49-.46c-.33-.34-.49-.46-.76-.58-.24-.1-.51-.15-.83-.15-1.38 0-2.21.95-2.21 2.52s.83 2.52 2.21 2.52c.32 0 .59-.05.83-.15.27-.12.43-.24.76-.58zm5.13-1.82c0-.92-.18-1.51-.6-1.93-.36-.36-.86-.56-1.41-.56-.56 0-1.05.2-1.41.56-.42.43-.6 1.01-.6 1.96s.18 1.53.6 1.96c.36.36.85.56 1.41.56.56 0 1.05-.2 1.41-.56.43-.44.6-1.01.6-1.99zm-.72.06c0 .78-.11 1.2-.39 1.49-.22.23-.55.36-.9.36s-.67-.13-.89-.36c-.29-.3-.4-.72-.4-1.52s.11-1.23.4-1.52c.22-.23.55-.36.89-.36.35 0 .68.13.9.36.29.29.39.71.39 1.55zm6.82 3.9v-2.09h-.74v-4.3h-.72v4.3h-2.38v-4.3h-.71V24h3.85v1.47h.7zm5.2-1.47v-4.92h-.72l-2.53 3.79v-3.79h-.71V24h.71l2.53-3.81V24h.72zm5.31 0v-3.34c0-1.09-.67-1.64-1.99-1.64-.47 0-.82.06-1.1.2-.24.12-.36.23-.62.53l.49.45c.18-.24.28-.33.45-.41.2-.1.44-.15.76-.15.9 0 1.29.33 1.29 1.08v.47h-1.48c-1.06 0-1.7.53-1.7 1.42 0 .94.61 1.45 1.75 1.45.38 0 .64-.03.87-.13.2-.08.32-.17.56-.4V24h.72zm-.72-1.74c0 .84-.37 1.18-1.29 1.18-.83 0-1.19-.25-1.19-.84 0-.58.37-.87 1.1-.87h1.38v.53zM63.58 24v-4.92h-3.15v2.11c0 2.05-.6 2.19-1.04 2.19h-.16V24h.33c.9 0 1.56-.54 1.56-2.6v-1.7h1.74V24h.72zm5.56-1.48c0-.9-.62-1.49-1.56-1.49H66.1v-1.95h-.71V24h2.19c.94 0 1.56-.59 1.56-1.48zm-.72 0c0 .55-.32.86-.92.86h-1.4v-1.72h1.4c.6 0 .92.31.92.86zM74.26 24v-4.92h-.72v2.07h-2.38v-2.07h-.71V24h.71v-2.23h2.38V24h.72zm7.07 0v-4.92h-.72V24h.72zm-1.51-1.48c0-.9-.62-1.49-1.56-1.49h-1.48v-1.95h-.71V24h2.19c.94 0 1.56-.59 1.56-1.48zm-.72 0c0 .55-.32.86-.92.86h-1.4v-1.72h1.4c.6 0 .92.31.92.86zM86.79 24l-1.67-2.51 1.6-2.41h-.87l-1.11 1.82-1.13-1.82h-.87l1.6 2.41L82.67 24h.87l1.2-1.91L85.92 24h.87zm-50.66 6.7v-.62h-4.02v.62h1.69V35h.72v-4.3h1.61zm4.67 2.03v-.33c0-1.47-.77-2.38-2.02-2.38s-2.02.94-2.02 2.49c0 1.67.75 2.55 2.17 2.55.36 0 .68-.06.95-.17.3-.12.47-.24.83-.59l-.49-.43c-.27.26-.4.35-.62.44-.18.07-.4.12-.63.12-.67 0-1.11-.26-1.34-.81-.1-.24-.13-.44-.15-.89h3.32zm-.72-.54h-2.6c.02-.44.05-.6.15-.82.2-.46.63-.74 1.15-.74.58 0 1.04.34 1.21.91.06.18.07.27.09.65zm5.7 2.81l-1.67-2.51 1.6-2.41h-.87l-1.11 1.82-1.13-1.82h-.87l1.6 2.41L41.66 35h.87l1.2-1.91L44.91 35h.87zm5.05 0v-4.92h-.72v2.07h-2.38v-2.07h-.71V35h.71v-2.23h2.38V35h.72zm5.56-2.49c0-.92-.18-1.51-.6-1.93-.36-.36-.86-.56-1.41-.56-.56 0-1.05.2-1.41.56-.42.43-.6 1.01-.6 1.96s.18 1.53.6 1.96c.36.36.85.56 1.41.56.56 0 1.05-.2 1.41-.56.43-.44.6-1.01.6-1.99zm-.72.06c0 .78-.11 1.2-.39 1.49-.22.23-.55.36-.9.36s-.67-.13-.89-.36c-.29-.3-.4-.72-.4-1.52s.11-1.23.4-1.52c.22-.23.55-.36.89-.36.35 0 .68.13.9.36.29.29.39.71.39 1.55zM61.49 35v-4.92h-3.15v2.11c0 2.05-.6 2.19-1.04 2.19h-.16V35h.33c.9 0 1.56-.54 1.56-2.6v-1.7h1.74V35h.72zm5.56-2.49c0-.92-.18-1.51-.6-1.93-.36-.36-.86-.56-1.41-.56-.56 0-1.05.2-1.41.56-.42.43-.6 1.01-.6 1.96s.18 1.53.6 1.96c.36.36.85.56 1.41.56.56 0 1.05-.2 1.41-.56.43-.44.6-1.01.6-1.99zm-.72.06c0 .78-.11 1.2-.39 1.49-.22.23-.55.36-.9.36s-.67-.13-.89-.36c-.29-.3-.4-.72-.4-1.52s.11-1.23.4-1.52c.22-.23.55-.36.89-.36.35 0 .68.13.9.36.29.29.39.71.39 1.55zm5.42-1.87v-.62h-3.12V35h.72v-4.3h2.4zm4.98 4.3v-4.92h-.72l-2.53 3.79v-3.79h-.71V35h.71l2.53-3.81V35h.72zm5.25-7.04h-.64c-.04.5-.33.75-.82.75-.49 0-.78-.25-.82-.75h-.64c.06.9.63 1.26 1.46 1.26s1.4-.36 1.46-1.26zM82.5 35v-4.92h-.72l-2.53 3.79v-3.79h-.71V35h.71l2.53-3.81V35h.72z" fill="#111"/><g><use fill="#F38D06" xlink:href="#a"/><use fill="#DEDE02" xlink:href="#b"/><use fill="#DB9906" xlink:href="#c"/><use fill="#E6201E" xlink:href="#d"/><use fill="#BE0C39" xlink:href="#e"/><path d="M.91 12.866c0-.195.053-.377.144-.534l-.76-.44c-.165.288-.262.62-.262.974 0 .355.097.688.264.976l.76-.44c-.092-.158-.145-.34-.145-.536" fill="#B70E0B"/><use fill="#A9CA0F" xlink:href="#f"/><path d="M21.874 12.864c0 .196-.053.378-.144.536l.76.44c.166-.288.263-.62.263-.976 0-.355-.097-.688-.264-.974l-.76.44c.09.156.144.34.144.534" fill="#00A8B0"/><use fill="#419F62" xlink:href="#g"/><use fill="#E6005B" xlink:href="#h"/><use xlink:href="#h"/><use fill="#168B8F" xlink:href="#i"/><use fill="#AF0E79" xlink:href="#j"/><use fill="#1269B6" xlink:href="#k"/><use fill="#702282" xlink:href="#l"/><use fill="#7F1F82" xlink:href="#m"/><use fill="#6EB62A" xlink:href="#n"/><use fill="#FFD102" xlink:href="#o"/><path d="M10.467 1.45c.186-.32.53-.535.925-.535.396 0 .74.216.926.536l.76-.44c-.34-.58-.966-.974-1.686-.974s-1.347.393-1.684.975l.76.44" fill="#DEDC00"/><use fill="#F7AB02" xlink:href="#p"/><path d="M.91 7.427c0-.195.054-.378.145-.535l-.76-.44c-.166.288-.263.62-.263.975s.097.688.263.975l.76-.44c-.09-.157-.144-.34-.144-.535" fill="#ED6607"/><use fill="#DCDD02" xlink:href="#q"/><path d="M21.874 7.425c0 .196-.053.377-.143.534l.76.438c.166-.286.263-.618.263-.973s-.098-.688-.264-.975l-.76.44c.09.157.144.34.144.535" fill="#76B82A"/><use fill="#B8CF09" xlink:href="#r"/><use fill="#0E70BC" xlink:href="#s"/><use fill="#B80D79" xlink:href="#t"/><path d="M21.874 18.305c0 .195-.053.377-.144.535l.76.44c.166-.288.263-.62.263-.975s-.097-.688-.264-.975l-.76.44c.09.157.144.34.144.535" fill="#0090D7"/><use fill="#C52987" xlink:href="#u"/><path d="M22.26 28.83H11.92v-4.782l2.82-1.63c.35.344.83.556 1.36.556.718 0 1.346-.392 1.683-.974l-.76-.44c-.185.32-.53.536-.924.536-.397 0-.742-.216-.927-.536-.092-.158-.145-.34-.145-.536 0-.194.053-.377.144-.534l-.76-.44c-.166.288-.262.62-.262.974 0 .167.023.327.062.48L11.92 22.83v-2.648c.493-.14.906-.468 1.158-.9l-.76-.44c-.184.32-.53.536-.925.536-.396 0-.74-.217-.926-.536l-.76.44c.252.432.666.76 1.16.9v2.647l-2.293-1.326c.04-.154.06-.314.06-.48 0-.354-.095-.685-.26-.972l-.76.44c.09.156.143.338.143.532 0 .196-.054.38-.146.537-.184.32-.528.536-.923.536s-.74-.215-.925-.535l-.76.44c.338.582.966.974 1.685.974.53 0 1.01-.212 1.36-.556l2.82 1.63v4.782H.524c-.194 0-.35.158-.35.352 0 .195.156.352.35.352h10.32c-.056.343-.212.74-.585 1.09-.668.627-1.856.904-3.437.8-.747-.048-1.385 0-1.93.11-.03 0-.062.007-.093.02-.003 0-.005.002-.008.003-1.81.408-2.526 1.556-2.656 2.332-.024.143.073.278.217.302.014.002.03.004.044.004.126 0 .238-.092.26-.22.01-.06.17-.923 1.182-1.51-.09.256-.113.53-.135.813-.033.403-.07.86-.313 1.36-.063.13-.01.29.122.352.037.018.077.027.115.027.097 0 .19-.056.236-.15.287-.59.33-1.12.364-1.548.05-.64.08-.994.754-1.274.237-.048.497-.083.784-.102-.305.375-.372.892-.44 1.43-.1.772-.22 1.734-1.04 2.705-.094.112-.08.28.03.373.05.04.11.062.17.062.076 0 .15-.032.202-.094.92-1.09 1.054-2.137 1.16-2.98.118-.925.205-1.345.976-1.487 1.735.107 3.01-.21 3.795-.944.083-.08.157-.162.227-.248-.216.627-.66 1.34-1.57 2.108-.576.487-1.065.776-1.496 1.03-.816.484-1.406.833-1.62 2.044-.024.143.072.28.215.305.016.002.03.004.046.004.127 0 .238-.09.26-.22.17-.97.597-1.222 1.37-1.68.07-.04.146-.086.222-.132-.173.412-.26.82-.343 1.203-.19.882-.352 1.643-1.392 2.326-.122.08-.156.244-.076.366.05.078.135.12.22.12.05 0 .1-.015.145-.044 1.222-.802 1.423-1.745 1.618-2.657.022-.105.044-.208.068-.31.056.28.136.555.215.82.173.59.352 1.198.25 1.77-.024.145.072.28.215.307.016.002.03.003.046.003.125 0 .236-.09.258-.217.123-.696-.074-1.365-.265-2.012-.29-.987-.542-1.84.385-2.623.777-.656 1.245-1.285 1.53-1.862.058.692.138 1.3.22 1.846.187 1.253-.124 1.638-.483 2.083-.36.445-.77.95-.692 2.237.01.14.125.248.263.248h.016c.146-.01.256-.135.248-.28-.066-1.082.245-1.467.575-1.875.123-.153.25-.308.356-.493.163 1.453.015 2.57-1.26 4.362-.083.118-.056.282.063.367.046.033.1.048.153.048.082 0 .163-.038.214-.11 1.734-2.44 1.524-3.776 1.175-5.988-.116-.734-.25-1.582-.333-2.615.29.603.682 1.055 1.05 1.476.93 1.063 1.73 1.98.552 5.046-.053.136.015.288.15.34.032.013.064.02.095.02.105 0 .205-.066.246-.17.61-1.584.712-2.672.552-3.494.362.473.6 1.114.47 2.324-.014.145.09.275.235.29l.028.002c.134 0 .248-.1.263-.236.046-.434.046-.802.014-1.127.338.347.707.67 1.015.843.04.023.085.034.13.034.09 0 .18-.05.23-.134.07-.128.025-.29-.102-.36-.547-.308-1.41-1.26-1.703-1.727-.004-.008-.01-.014-.014-.02-.222-.348-.494-.608-.754-.853-.195-.184-.38-.357-.536-.56l-.008-.01c-.15-.192-.31-.375-.468-.557-.383-.437-.773-.885-1.035-1.5.56.492 1.413.674 2.328.777l.01.002c1.29.142 1.477 1.074 1.693 2.153.09.45.183.918.37 1.324.043.097.14.154.24.154.036 0 .073-.007.108-.023.134-.06.192-.217.13-.35-.158-.35-.242-.767-.33-1.207-.05-.245-.1-.495-.166-.74.22.114.453.21.682.3.605.244 1.127.454 1.35.996.042.103.14.164.244.164.033 0 .067-.006.1-.02.134-.054.2-.21.144-.344-.308-.75-.986-1.022-1.642-1.285-.523-.21-1.018-.41-1.334-.836-.04-.053-.08-.105-.126-.155 1.654.15 3.243.436 3.685 2.068.032.118.138.195.254.195.024 0 .047-.003.07-.01.14-.038.224-.182.185-.324-.586-2.166-2.765-2.345-4.688-2.503-1.974-.16-3.24-.34-3.42-1.673H22.26c.194 0 .35-.157.35-.352 0-.194-.156-.352-.35-.352" fill="#213A8F"/></g></g></symbol></svg>