<svg xmlns="http://www.w3.org/2000/svg" xmlns:xlink="http://www.w3.org/1999/xlink"><defs><path id="a" d="M.782 810H530.68V.388H.782V810z"/></defs><symbol id="pic-banner" viewBox="0 0 160 194"><g fill="none" fill-rule="evenodd"><path fill="#D12138" d="M0 193.256h159.93V0H0z"/><text font-family="DINCondensed-Regular, DIN Condensed" font-size="48" font-style="condensed" letter-spacing="-1.4" fill="#FFF"><tspan x="15.088" y="132">AIDS DAY</tspan> <tspan x="144.912" y="132"> </tspan></text><text font-family="DINCondensed-Bold, DIN Condensed" font-size="20.786" font-weight="bold" letter-spacing=".099" fill="#FFF"><tspan x="19" y="172">1 DECEMBER 2016 </tspan></text><path d="M13.792 145.27h131.872" stroke="#FFF" stroke-width="1.485"/><text font-family="DINCondensed-Bold, DIN Condensed" font-size="50" font-weight="bold" letter-spacing=".379" fill="#FFF"><tspan x="23.138" y="80">WORLD </tspan></text></g></symbol><symbol id="icon-whatsapp" viewBox="0 0 32 32"><path d="M16.172 0C7.579 0 .614 6.965.614 15.558c0 2.939.815 5.688 2.232 8.033L.038 31.938l8.614-2.758a15.49 15.49 0 0 0 7.52 1.935c8.592 0 15.557-6.965 15.557-15.557C31.73 6.965 24.764 0 16.172 0zm0 28.637c-2.657 0-5.131-.797-7.197-2.163l-5.026 1.61 1.633-4.858a13.009 13.009 0 0 1-2.49-7.668c0-7.213 5.867-13.08 13.08-13.08 7.212 0 13.08 5.867 13.08 13.08 0 7.212-5.868 13.08-13.08 13.08zm-3.65-19.514c-.251-.608-.444-.628-.834-.647a8.936 8.936 0 0 0-.436-.012c-.502 0-1.022.147-1.335.468-.382.39-1.335 1.304-1.335 3.18 0 1.877 1.367 3.69 1.557 3.944.19.255 2.665 4.161 6.515 5.757 3.005 1.244 3.897 1.133 4.583.983.997-.217 2.25-.952 2.568-1.842.317-.89.317-1.654.222-1.813-.095-.159-.35-.254-.73-.445-.382-.19-2.258-1.113-2.607-1.24-.35-.128-.673-.089-.942.283-.37.514-.728 1.041-1.023 1.354-.232.246-.606.28-.927.144-.422-.18-1.61-.594-3.067-1.893-1.133-1.01-1.899-2.259-2.121-2.64-.223-.382-.02-.61.152-.817.195-.237.376-.407.566-.63.19-.222.297-.341.425-.596.127-.254.041-.517-.054-.708-.096-.19-.86-2.066-1.176-2.83z"/></symbol><symbol id="pic-hand" viewBox="0 0 486 810"><g fill="none" fill-rule="evenodd"><g><mask id="b" fill="#fff"><use xlink:href="#a"/></mask><path d="M292.068 1144.24H530.68s-99.733-268.32-110.463-308.902c-10.731-40.584-23.113-95.157-30.245-136.708-9.925-57.824-1.607-63.991 1.576-71.358 3.184-7.367 17.602-50.445 19.723-69.111 2.12-18.667-1.317-81.118 3.489-95.477 4.806-14.36 6.862-67.675 7.986-76.748 1.123-9.074 12.295-38.167 13.98-51.777 1.685-13.61 5.989-57.561 14.353-77.727 8.364-20.165 23.01-51.056 25.75-59.06 6.825-19.93 13.01-47.636 4.582-62.12-8.43-14.482-15.692-14.94-21.414-13.566-5.723 1.374-22.412 9.783-31.463 33.965-9.05 24.182-25.268 77.596-34.293 92.968-9.025 15.372-24.692 53.248-27.855 58.409-3.163 5.16-12.651 20.644-19.811 9.158-7.16-11.487-9.242-38.498-8.662-72.752.58-34.253-2.68-79.916-2.863-92.14-.183-12.222-4.723-54.05-6.16-66.911-1.437-12.86-5.832-35.151-18.608-50.005-9.414-10.945-17.97-11.092-21.705-10.195-5.203 1.249-17.397 10.045-17.521 23.28-.12 12.746-1.494 48.78-1.563 56.132-.034 3.589 4.152 60.079 4.029 73.314-.124 13.235 3.062 93.603 3.71 97.967 1.792 12.042-10.39 19.368-12.88 8.228-5.265-23.548-10.68-65.114-11.804-69.796-1.124-4.683-4.125-58.435-5.624-64.678-1.5-6.243-6.81-62.742-7.122-70.92-.313-8.178 1.12-36.584-4.187-51.817-5.308-15.232-21.508-29.317-41.296-24.567-19.787 4.75-15.827 27.277-15.452 42.593.376 15.316-1.245 49.819-1.993 60.453s8.038 70.15 9.037 74.313c.999 4.162 7.933 53.668 7.663 68.589-.27 14.92 6.018 41.107-1.786 42.98-7.804 1.874-13.341-21.191-19.773-41.105-6.431-19.915-25.471-78.648-27.13-88.134-2.577-14.727-21.354-86.947-21.354-86.947-8.833-17.678-11.338-19.094-21.577-20.487-10.24-1.394-18.21 4.37-21.892 9.657-3.683 5.286-4.285 14.234-4.868 20.977-.582 6.743 3.605 58.559 5.603 66.883 1.999 8.324 15.12 64.599 17.869 76.044 2.747 11.445 26.323 82.817 30.07 98.425l11.74 48.902s15.272 46.02 4.535 47.332c-18.668 2.28-34.978-25.167-39.952-34.427-4.975-9.26-31.467-60.691-35.008-67.894-6.452-13.123-13.321-37.152-28.305-44.56-14.984-7.406-24.057-8.53-31.632-3.41-7.574 5.12-12.293 12.863-7.218 36.398 3.422 15.869 13.134 38.664 15.299 43.097 1.643 3.365 14.653 42.7 24.602 61.22 9.948 18.52 22.354 51.858 24.727 61.743 2.373 9.884 15.278 45.302 18.982 51.566 3.705 6.263 41.334 62.157 46.079 68.17 4.745 6.014 43.455 43.49 54.069 60.2 10.615 16.71 43.102 134.508 58.399 211.978 15.549 78.749 47.015 278.359 47.015 278.359" fill="#FFF" mask="url(#b)"/></g><text transform="rotate(-9 291.487 803.246)" font-family="Zhizn" font-size="60" letter-spacing="-4.72" fill="#D02139"><tspan x="242.117" y="375.472">&#x41F;&#x440;&#x430;&#x432;&#x43E; </tspan> <tspan x="289.437" y="453.472">&#x43D;&#x430;</tspan> <tspan x="189.037" y="531.472">&#x437;&#x434;&#x43E;&#x440;&#x43E;&#x432;&#x44C;</tspan> <tspan x="413.937" y="531.472">&#x435;</tspan></text></g></symbol><symbol id="pic-ribbon" viewBox="0 0 74 74"><g fill="none" fill-rule="evenodd"><circle fill="#FFF" cx="37" cy="37" r="37"/><g fill="#D02139"><path d="M43.916 37.458c4.21-5.815 8.716-12.576 9.856-16.301-.119-1.006-1.736-6.23-3.17-10.674l-.226-.7a17.665 17.665 0 0 1-1.092 3.434c-.037.227-.216.63-.272.604-.128.275-.262.545-.4.81-.897 1.725-1.983 3.271-3.045 4.668a3828.845 3828.845 0 0 0-6.358 8.419c-2.058 2.728-4.422 5.864-6.82 9.046l-.699.926-14.333 19.024c.575 1.288 3.18 7.153 4.011 9.502 2.52-2.66 9.227-11.348 12.578-15.69l.905-1.172c.278-.359.511-.66.694-.894.131-.17.239-.305.313-.399a300.741 300.741 0 0 0 8.058-10.603zM43.675 39.35a297.575 297.575 0 0 1-7.101 9.273c-.14.175-.389.493-.723.925.567 2.003 1.018 3.522 1.262 4.236.267.784.672 1.901 1.142 3.195 2.008 5.537 3.836 10.72 4.324 13.514 1.39-2.19 2.515-3.524 3.79-5.034 1.145-1.358 2.44-2.893 4.182-5.36-1.285-3.563-2.4-7.193-3.385-10.402-.993-3.238-1.932-6.297-2.881-8.766l-.61-1.58z"/><path d="M38.829 26.712c-1.82-4.813-3.48-9.318-4.666-12.777-.101-.297-.199-.585-.293-.866a83.201 83.201 0 0 1-1.009-3.166c-.06-.21-.118-.411-.17-.6l-.71 2.033-.454 1.296c-1.168 3.336-2.523 7.216-2.812 8.102-.088.572.76 4.794 3.382 14.906l6.732-8.928zM41.135 11.77a24.9 24.9 0 0 1 7.039 1.691c.79-1.683 1.373-3.53 1.558-5.559-1.497-2.158-2.929-2.722-5.175-3.038-.572-.08-1.196-.144-1.856-.212-3.344-.343-7.426 1.338-9.425 3.137.112.81.65 2.6 1.442 4.946 1.733-.636 4.004-1.178 6.417-.966z"/></g></g></symbol><symbol id="pic-words" viewBox="0 0 253 90"><g fill="none" fill-rule="evenodd" font-size="47" font-family="DINCondensed-Bold, DIN Condensed" font-weight="bold"><text letter-spacing="-.138" fill="#FFF" transform="translate(0 1)"><tspan x="0" y="33">HANDS UP FOR</tspan></text><text letter-spacing=".678" fill="#D12138" transform="translate(0 1)"><tspan x="0" y="88">#HIVPREVENTION</tspan></text></g></symbol></svg>