<svg xmlns="http://www.w3.org/2000/svg" xmlns:xlink="http://www.w3.org/1999/xlink"><defs><path id="a" d="M.782 810H530.68V.388H.782V810z"/></defs><symbol id="icon-whatsapp" viewBox="0 0 32 32"><path d="M16.172 0C7.579 0 .614 6.965.614 15.558c0 2.939.815 5.688 2.232 8.033L.038 31.938l8.614-2.758a15.49 15.49 0 0 0 7.52 1.935c8.592 0 15.557-6.965 15.557-15.557C31.73 6.965 24.764 0 16.172 0zm0 28.637c-2.657 0-5.131-.797-7.197-2.163l-5.026 1.61 1.633-4.858a13.009 13.009 0 0 1-2.49-7.668c0-7.213 5.867-13.08 13.08-13.08 7.212 0 13.08 5.867 13.08 13.08 0 7.212-5.868 13.08-13.08 13.08zm-3.65-19.514c-.251-.608-.444-.628-.834-.647a8.936 8.936 0 0 0-.436-.012c-.502 0-1.022.147-1.335.468-.382.39-1.335 1.304-1.335 3.18 0 1.877 1.367 3.69 1.557 3.944.19.255 2.665 4.161 6.515 5.757 3.005 1.244 3.897 1.133 4.583.983.997-.217 2.25-.952 2.568-1.842.317-.89.317-1.654.222-1.813-.095-.159-.35-.254-.73-.445-.382-.19-2.258-1.113-2.607-1.24-.35-.128-.673-.089-.942.283-.37.514-.728 1.041-1.023 1.354-.232.246-.606.28-.927.144-.422-.18-1.61-.594-3.067-1.893-1.133-1.01-1.899-2.259-2.121-2.64-.223-.382-.02-.61.152-.817.195-.237.376-.407.566-.63.19-.222.297-.341.425-.596.127-.254.041-.517-.054-.708-.096-.19-.86-2.066-1.176-2.83z"/></symbol><symbol id="pic-banner" viewBox="0 0 160 194"><g fill="none" fill-rule="evenodd"><path fill="#D12138" d="M0 193.256h159.93V0H0z"/><path d="M34.48 132l-7.344-33.6h-4.224L15.568 132h4.8l1.584-7.2h6.144l1.584 7.2h4.8zm-6.96-11.472h-5.088l2.496-12.768 2.592 12.768zM36.44 98.4V132h4.8V98.4h-4.8zm9.16 0V132h7.152c1.872 0 4.656-.336 6.768-2.64 1.92-2.112 2.16-4.56 2.16-6.864v-14.832c0-1.44-.144-4.992-2.592-7.248-2.112-1.92-4.992-2.016-7.008-2.016H45.6zm4.8 4.704h2.448c1.2 0 2.208 0 3.12 1.104.768.96.912 2.16.912 3.12v14.88c0 1.104-.096 2.832-1.104 3.936-.96 1.008-2.208 1.152-3.216 1.152H50.4v-24.192zm26.536 4.608h4.8v-1.104c0-5.568-3.216-8.688-8.016-8.688-2.208 0-4.224.528-5.808 2.064-1.392 1.344-2.496 3.456-2.496 6.24v.96c0 1.68.048 3.36.72 4.896.96 2.256 2.688 3.12 4.416 3.744l3.504 1.248c.528.192 1.68.624 2.304 1.488.624.864.768 2.304.768 3.456v1.248c0 1.008-.048 2.4-.768 3.312-.384.48-1.2 1.2-3.024 1.2-.624 0-1.824-.096-2.64-1.104-.672-.864-.768-2.208-.768-2.976v-.912h-4.8v1.104c0 .432 0 3.6 1.536 5.664 1.104 1.536 3.312 2.928 6.72 2.928 2.784 0 4.992-.912 6.24-2.208 1.392-1.44 2.304-4.032 2.304-7.44v-1.152c0-2.112-.144-4.032-1.44-5.808-1.248-1.728-2.928-2.352-4.368-2.88l-2.928-1.056c-.72-.288-1.68-.672-2.208-1.488-.624-.912-.768-2.592-.768-3.504 0-1.104.096-2.448 1.008-3.408.768-.768 1.68-.912 2.352-.912 1.392 0 2.112.576 2.544 1.104.768.96.816 2.352.816 3.072v.912zM95.352 98.4V132h7.152c1.872 0 4.656-.336 6.768-2.64 1.92-2.112 2.16-4.56 2.16-6.864v-14.832c0-1.44-.144-4.992-2.592-7.248-2.112-1.92-4.992-2.016-7.008-2.016h-6.48zm4.8 4.704h2.448c1.2 0 2.208 0 3.12 1.104.768.96.912 2.16.912 3.12v14.88c0 1.104-.096 2.832-1.104 3.936-.96 1.008-2.208 1.152-3.216 1.152h-2.16v-24.192zM130.768 132l-7.344-33.6H119.2l-7.344 33.6h4.8l1.584-7.2h6.144l1.584 7.2h4.8zm-6.96-11.472h-5.088l2.496-12.768 2.592 12.768zM145.832 98.4h-5.088l-4.08 13.344h-.288L132.2 98.4h-5.28l7.056 19.296V132h4.8v-14.16l7.056-19.44zM22.222 159.445l-2.12 1.56v-2.246l2.12-1.559h2.12V172h-2.12v-12.555zm9.572-2.245h3.139c1.205 0 2.127.336 2.764 1.008.638.672.956 1.611.956 2.817v6.922c0 1.385-.336 2.407-1.008 3.066-.672.658-1.638.987-2.9.987h-2.951v-14.8zm2.12 12.805h.977c.596 0 1.019-.15 1.268-.447.25-.298.374-.766.374-1.403v-7.13c0-.582-.118-1.032-.353-1.351-.236-.319-.665-.478-1.289-.478h-.977v10.809zm6.834-12.805h6.319v1.996h-4.2v4.344h3.66v1.995h-3.66v4.345h4.2V172h-6.32v-14.8zm14.524 11.495a3.433 3.433 0 0 1-.977 2.4 3.545 3.545 0 0 1-1.07.75c-.41.186-.85.28-1.32.28-.402 0-.811-.056-1.227-.167a2.976 2.976 0 0 1-1.122-.571 3.084 3.084 0 0 1-.821-1.07c-.215-.444-.323-1.005-.323-1.684v-8.149c0-.485.084-.935.25-1.35a3.18 3.18 0 0 1 1.798-1.799c.422-.173.89-.26 1.403-.26.485 0 .935.087 1.351.26a3.232 3.232 0 0 1 1.798 1.85c.173.437.26.911.26 1.424v.832h-2.12v-.707c0-.416-.118-.776-.354-1.081-.235-.305-.554-.457-.956-.457-.526 0-.876.163-1.05.488-.173.326-.26.738-.26 1.237v7.566c0 .43.094.79.281 1.081.187.291.523.437 1.008.437.139 0 .288-.025.447-.073.16-.049.305-.128.437-.24.131-.11.239-.263.322-.457.083-.194.125-.436.125-.727v-.728h2.12v.915zm1.824-11.495h6.319v1.996h-4.199v4.344h3.658v1.995h-3.658v4.345h4.199V172h-6.32v-14.8zm7.79 0h2.036l2.723 7.837h.042l2.702-7.837h2.058V172h-2.12v-9h-.042l-2.1 6.36h-1.06L67.048 163h-.041v9h-2.12v-14.8zm11.655 0h3.097c.68 0 1.258.104 1.736.312.478.208.87.485 1.174.831.305.347.524.745.655 1.196.132.45.198.918.198 1.403v.54c0 .402-.031.742-.094 1.019a2.45 2.45 0 0 1-.28.727 2.334 2.334 0 0 1-.458.551c-.18.16-.388.308-.623.447.499.236.866.585 1.101 1.05.236.464.354 1.084.354 1.86v.831c0 1.303-.316 2.3-.946 2.994-.63.693-1.639 1.039-3.024 1.039h-2.89v-14.8zm2.12 12.68h.915c.43 0 .766-.063 1.008-.187a1.29 1.29 0 0 0 .551-.52c.125-.222.201-.485.229-.79.027-.305.041-.637.041-.998 0-.374-.02-.7-.062-.976a1.606 1.606 0 0 0-.26-.697 1.223 1.223 0 0 0-.55-.426c-.236-.097-.548-.145-.936-.145h-.936v4.739zm0-6.61h.957c.706 0 1.181-.177 1.423-.53.243-.354.364-.87.364-1.549 0-.665-.135-1.164-.405-1.496-.27-.333-.759-.5-1.466-.5h-.873v4.075zm6.834-6.07h6.319v1.996h-4.199v4.344h3.658v1.995h-3.658v4.345h4.199V172h-6.32v-14.8zm9.91 6.61h1.205c.374 0 .672-.052.894-.156.222-.104.392-.253.51-.447.117-.194.197-.433.238-.717.042-.284.063-.613.063-.987s-.021-.703-.063-.987a1.781 1.781 0 0 0-.26-.728c-.131-.2-.315-.35-.55-.447-.236-.097-.548-.145-.936-.145h-1.101v4.614zm-2.12-6.61h3.408c2.495 0 3.742 1.448 3.742 4.345 0 .859-.135 1.597-.405 2.213-.27.617-.745 1.112-1.424 1.486l2.286 6.756h-2.245l-1.974-6.319h-1.268V172h-2.12v-14.8zm12.627 12.805l3.825-7.213c.194-.36.305-.676.332-.946a10.158 10.158 0 0 0 .021-1.58 1.707 1.707 0 0 0-.114-.53.902.902 0 0 0-.302-.384c-.138-.104-.34-.156-.602-.156-.32 0-.572.09-.76.27-.186.18-.28.443-.28.79v1.205h-2.12v-1.164c0-.443.083-.859.25-1.247a3.237 3.237 0 0 1 1.684-1.715c.387-.173.803-.26 1.246-.26.555 0 1.03.101 1.424.302.395.2.72.475.977.821s.444.741.561 1.185c.118.443.177.914.177 1.413 0 .36-.007.662-.02.904a5.471 5.471 0 0 1-.084.697c-.041.221-.11.443-.208.665a13.56 13.56 0 0 1-.395.81l-3.118 6.008h3.825V172h-6.319v-1.995zm7.831-9.75c0-.498.087-.942.26-1.33.173-.388.405-.72.696-.997a2.996 2.996 0 0 1 1.009-.634c.38-.146.78-.218 1.195-.218.416 0 .814.072 1.195.218.381.145.717.357 1.008.634.291.277.523.61.696.997.174.388.26.832.26 1.33v8.69c0 .498-.086.942-.26 1.33-.173.388-.405.72-.696.997a2.996 2.996 0 0 1-1.008.634c-.381.146-.78.219-1.195.219-.416 0-.814-.073-1.195-.219a2.996 2.996 0 0 1-1.009-.634 3.113 3.113 0 0 1-.696-.997 3.232 3.232 0 0 1-.26-1.33v-8.69zm2.12 8.69c0 .304.097.557.291.758.194.201.444.302.749.302s.554-.1.748-.302c.194-.2.291-.454.291-.759v-8.688c0-.305-.097-.558-.29-.759a.994.994 0 0 0-.75-.301c-.304 0-.554.1-.748.301-.194.201-.29.454-.29.759v8.688zm8.227-9.5l-2.12 1.56v-2.246l2.12-1.559h2.12V172h-2.12v-12.555zm8.454 3.97l.042.042a.83.83 0 0 1 .322-.135 2.55 2.55 0 0 1 .572-.052c.374 0 .72.09 1.04.27a2.11 2.11 0 0 1 .976 1.143c.055.153.1.354.135.603.035.25.059.565.073.946a41.099 41.099 0 0 1 0 2.64 7.035 7.035 0 0 1-.073.79 2.528 2.528 0 0 1-.145.55 3.84 3.84 0 0 1-.24.478c-.277.458-.647.811-1.111 1.06-.465.25-.988.375-1.57.375a3.133 3.133 0 0 1-1.559-.385 3.02 3.02 0 0 1-1.101-1.05 2.742 2.742 0 0 1-.26-.478 2.528 2.528 0 0 1-.146-.55 7.036 7.036 0 0 1-.073-.79c-.013-.312-.02-.71-.02-1.196 0-.457.007-.834.02-1.132.014-.298.035-.555.063-.77.028-.214.07-.408.125-.581.055-.174.117-.357.187-.551l2.785-7.442h2.37l-2.412 6.215zm1.06 2.786c0-.32-.103-.575-.311-.77a1.033 1.033 0 0 0-.728-.29c-.277 0-.52.097-.727.29-.208.195-.312.45-.312.77v2.743c0 .32.104.576.312.77.208.194.45.29.727.29.277 0 .52-.096.728-.29.208-.194.311-.45.311-.77v-2.743z" fill="#FFF"/><path d="M13.792 145.27h131.872" stroke="#FFF" stroke-width="1.485"/><path d="M46.688 80h-4.8l-3.9-23.1h-.1L34.038 80h-4.8l-5.3-35.6h5.4l2.55 22.6h.1l4-22.6h3.9l4.15 23.15h.1l2.45-23.15h5.4l-5.3 35.6zm7.98-27.2c0-1.433.25-2.7.75-3.8.5-1.1 1.157-2.008 1.974-2.725a8.513 8.513 0 0 1 2.75-1.625 9.006 9.006 0 0 1 3.075-.55c1.034 0 2.058.183 3.075.55a8.513 8.513 0 0 1 2.75 1.625c.817.717 1.475 1.625 1.975 2.725s.75 2.367.75 3.8v18.8c0 1.467-.25 2.742-.75 3.825-.5 1.083-1.158 1.983-1.975 2.7a8.513 8.513 0 0 1-2.75 1.625 9.006 9.006 0 0 1-3.075.55 9.006 9.006 0 0 1-3.075-.55 8.513 8.513 0 0 1-2.75-1.625c-.817-.717-1.475-1.617-1.975-2.7-.5-1.083-.75-2.358-.75-3.825V52.8zm5.1 18.8c0 1.233.34 2.142 1.024 2.725.684.583 1.492.875 2.425.875.934 0 1.742-.292 2.425-.875.684-.583 1.025-1.492 1.025-2.725V52.8c0-1.233-.341-2.142-1.025-2.725-.683-.583-1.491-.875-2.425-.875-.933 0-1.741.292-2.425.875-.683.583-1.025 1.492-1.025 2.725v18.8zm21.978-11.3h2.9c.9 0 1.617-.125 2.15-.375.533-.25.942-.608 1.225-1.075.283-.467.475-1.042.575-1.725.1-.683.15-1.475.15-2.375 0-.9-.05-1.692-.15-2.375-.1-.683-.308-1.267-.625-1.75a2.825 2.825 0 0 0-1.325-1.075c-.567-.233-1.317-.35-2.25-.35h-2.65v11.1zm-5.1-15.9h8.2c6 0 9 3.483 9 10.45 0 2.067-.325 3.842-.975 5.325-.65 1.483-1.792 2.675-3.425 3.575l5.5 16.25h-5.4l-4.75-15.2h-3.05V80h-5.1V44.4zm21.679 0h5.1v30.5h10.1V80h-15.2V44.4zm18.879 0h7.55c2.9 0 5.117.808 6.65 2.425 1.533 1.617 2.3 3.875 2.3 6.775v16.65c0 3.333-.808 5.792-2.425 7.375-1.617 1.583-3.942 2.375-6.975 2.375h-7.1V44.4zm5.1 30.8h2.35c1.433 0 2.45-.358 3.05-1.075.6-.717.9-1.842.9-3.375V53.6c0-1.4-.283-2.483-.85-3.25-.567-.767-1.6-1.15-3.1-1.15h-2.35v26z" fill="#FFF"/></g></symbol><symbol id="pic-hand" viewBox="0 0 486 810"><g fill="none" fill-rule="evenodd"><g><mask id="b" fill="#fff"><use xlink:href="#a"/></mask><path d="M292.068 1144.24H530.68s-99.733-268.32-110.463-308.902c-10.731-40.584-23.113-95.157-30.245-136.708-9.925-57.824-1.607-63.991 1.576-71.358 3.184-7.367 17.602-50.445 19.723-69.111 2.12-18.667-1.317-81.118 3.489-95.477 4.806-14.36 6.862-67.675 7.986-76.748 1.123-9.074 12.295-38.167 13.98-51.777 1.685-13.61 5.989-57.561 14.353-77.727 8.364-20.165 23.01-51.056 25.75-59.06 6.825-19.93 13.01-47.636 4.582-62.12-8.43-14.482-15.692-14.94-21.414-13.566-5.723 1.374-22.412 9.783-31.463 33.965-9.05 24.182-25.268 77.596-34.293 92.968-9.025 15.372-24.692 53.248-27.855 58.409-3.163 5.16-12.651 20.644-19.811 9.158-7.16-11.487-9.242-38.498-8.662-72.752.58-34.253-2.68-79.916-2.863-92.14-.183-12.222-4.723-54.05-6.16-66.911-1.437-12.86-5.832-35.151-18.608-50.005-9.414-10.945-17.97-11.092-21.705-10.195-5.203 1.249-17.397 10.045-17.521 23.28-.12 12.746-1.494 48.78-1.563 56.132-.034 3.589 4.152 60.079 4.029 73.314-.124 13.235 3.062 93.603 3.71 97.967 1.792 12.042-10.39 19.368-12.88 8.228-5.265-23.548-10.68-65.114-11.804-69.796-1.124-4.683-4.125-58.435-5.624-64.678-1.5-6.243-6.81-62.742-7.122-70.92-.313-8.178 1.12-36.584-4.187-51.817-5.308-15.232-21.508-29.317-41.296-24.567-19.787 4.75-15.827 27.277-15.452 42.593.376 15.316-1.245 49.819-1.993 60.453s8.038 70.15 9.037 74.313c.999 4.162 7.933 53.668 7.663 68.589-.27 14.92 6.018 41.107-1.786 42.98-7.804 1.874-13.341-21.191-19.773-41.105-6.431-19.915-25.471-78.648-27.13-88.134-2.577-14.727-21.354-86.947-21.354-86.947-8.833-17.678-11.338-19.094-21.577-20.487-10.24-1.394-18.21 4.37-21.892 9.657-3.683 5.286-4.285 14.234-4.868 20.977-.582 6.743 3.605 58.559 5.603 66.883 1.999 8.324 15.12 64.599 17.869 76.044 2.747 11.445 26.323 82.817 30.07 98.425l11.74 48.902s15.272 46.02 4.535 47.332c-18.668 2.28-34.978-25.167-39.952-34.427-4.975-9.26-31.467-60.691-35.008-67.894-6.452-13.123-13.321-37.152-28.305-44.56-14.984-7.406-24.057-8.53-31.632-3.41-7.574 5.12-12.293 12.863-7.218 36.398 3.422 15.869 13.134 38.664 15.299 43.097 1.643 3.365 14.653 42.7 24.602 61.22 9.948 18.52 22.354 51.858 24.727 61.743 2.373 9.884 15.278 45.302 18.982 51.566 3.705 6.263 41.334 62.157 46.079 68.17 4.745 6.014 43.455 43.49 54.069 60.2 10.615 16.71 43.102 134.508 58.399 211.978 15.549 78.749 47.015 278.359 47.015 278.359" fill="#FFF" mask="url(#b)"/></g><text transform="rotate(-9 291.487 803.246)" font-family="Zhizn" font-size="60" letter-spacing="-4.72" fill="#D02139"><tspan x="242.117" y="375.472">&#x41F;&#x440;&#x430;&#x432;&#x43E; </tspan> <tspan x="289.437" y="453.472">&#x43D;&#x430;</tspan> <tspan x="189.037" y="531.472">&#x437;&#x434;&#x43E;&#x440;&#x43E;&#x432;&#x44C;</tspan> <tspan x="413.937" y="531.472">&#x435;</tspan></text></g></symbol><symbol id="pic-ribbon" viewBox="0 0 74 74"><g fill="none" fill-rule="evenodd"><circle fill="#FFF" cx="37" cy="37" r="37"/><g fill="#D02139"><path d="M43.916 37.458c4.21-5.815 8.716-12.576 9.856-16.301-.119-1.006-1.736-6.23-3.17-10.674l-.226-.7a17.665 17.665 0 0 1-1.092 3.434c-.037.227-.216.63-.272.604-.128.275-.262.545-.4.81-.897 1.725-1.983 3.271-3.045 4.668a3828.845 3828.845 0 0 0-6.358 8.419c-2.058 2.728-4.422 5.864-6.82 9.046l-.699.926-14.333 19.024c.575 1.288 3.18 7.153 4.011 9.502 2.52-2.66 9.227-11.348 12.578-15.69l.905-1.172c.278-.359.511-.66.694-.894.131-.17.239-.305.313-.399a300.741 300.741 0 0 0 8.058-10.603zM43.675 39.35a297.575 297.575 0 0 1-7.101 9.273c-.14.175-.389.493-.723.925.567 2.003 1.018 3.522 1.262 4.236.267.784.672 1.901 1.142 3.195 2.008 5.537 3.836 10.72 4.324 13.514 1.39-2.19 2.515-3.524 3.79-5.034 1.145-1.358 2.44-2.893 4.182-5.36-1.285-3.563-2.4-7.193-3.385-10.402-.993-3.238-1.932-6.297-2.881-8.766l-.61-1.58z"/><path d="M38.829 26.712c-1.82-4.813-3.48-9.318-4.666-12.777-.101-.297-.199-.585-.293-.866a83.201 83.201 0 0 1-1.009-3.166c-.06-.21-.118-.411-.17-.6l-.71 2.033-.454 1.296c-1.168 3.336-2.523 7.216-2.812 8.102-.088.572.76 4.794 3.382 14.906l6.732-8.928zM41.135 11.77a24.9 24.9 0 0 1 7.039 1.691c.79-1.683 1.373-3.53 1.558-5.559-1.497-2.158-2.929-2.722-5.175-3.038-.572-.08-1.196-.144-1.856-.212-3.344-.343-7.426 1.338-9.425 3.137.112.81.65 2.6 1.442 4.946 1.733-.636 4.004-1.178 6.417-.966z"/></g></g></symbol><symbol id="pic-words" viewBox="0 0 253 90"><g fill="none" fill-rule="evenodd"><path d="M2.256.536H7.05v14.335h5.922V.536h4.794V34h-4.794V19.101H7.05V34H2.256V.536zm27.216 9.635h-.094l-2.35 12.126h4.795l-2.35-12.126zM27.453.536h3.994L38.92 34h-4.793l-1.41-7.191h-6.534L24.773 34H19.98L27.451.536zm13.492 0h4.606l7.238 20.163h.094V.536h4.794V34h-4.512l-7.332-20.116h-.094V34h-4.794V.536zm20.918 0h7.098c2.726 0 4.81.76 6.25 2.28 1.442 1.52 2.163 3.642 2.163 6.368v15.651c0 3.133-.76 5.444-2.28 6.932C73.573 33.256 71.388 34 68.537 34h-6.675V.536zm4.794 28.952h2.21c1.347 0 2.302-.337 2.867-1.01.564-.674.846-1.732.846-3.173V9.184c0-1.316-.267-2.334-.8-3.055-.532-.72-1.503-1.081-2.913-1.081h-2.21v24.44zm30.601-19.317h-4.794V9.09c0-1.097-.258-2.044-.775-2.843-.518-.8-1.387-1.199-2.609-1.199-.658 0-1.198.125-1.621.376-.424.25-.752.572-.987.963-.236.392-.4.846-.494 1.364a9.052 9.052 0 0 0-.141 1.621c0 .658.023 1.214.07 1.668.048.455.165.846.353 1.176.188.329.462.618.823.869.36.25.853.501 1.48.752l3.666 1.457c1.065.407 1.927.885 2.585 1.433a5.823 5.823 0 0 1 1.528 1.927c.36.737.603 1.583.728 2.538.125.956.188 2.045.188 3.267 0 1.41-.141 2.718-.423 3.925-.282 1.206-.744 2.24-1.386 3.101-.643.862-1.497 1.544-2.562 2.045-1.065.501-2.366.752-3.901.752-1.16 0-2.24-.204-3.243-.611a7.902 7.902 0 0 1-2.585-1.669 7.872 7.872 0 0 1-1.715-2.514 7.8 7.8 0 0 1-.635-3.149v-1.786h4.794v1.504c0 .877.258 1.668.775 2.373.518.706 1.387 1.058 2.609 1.058.815 0 1.45-.117 1.903-.352a2.423 2.423 0 0 0 1.034-.988c.236-.423.384-.947.447-1.574.063-.627.094-1.316.094-2.068 0-.877-.031-1.598-.094-2.162-.063-.564-.196-1.018-.4-1.363a2.43 2.43 0 0 0-.845-.846c-.36-.22-.839-.454-1.434-.705l-3.431-1.41c-2.068-.846-3.454-1.966-4.16-3.36-.705-1.395-1.057-3.142-1.057-5.241 0-1.253.172-2.444.517-3.572.345-1.128.854-2.1 1.528-2.914.673-.815 1.527-1.465 2.561-1.95 1.034-.486 2.24-.729 3.619-.729 1.19 0 2.28.22 3.267.658a8.12 8.12 0 0 1 2.537 1.739 7.73 7.73 0 0 1 1.622 2.42c.376.894.564 1.81.564 2.75v2.35zm27.549 16.309a7.6 7.6 0 0 1-.611 3.055 7.89 7.89 0 0 1-1.668 2.467 7.89 7.89 0 0 1-2.468 1.669 7.483 7.483 0 0 1-3.008.611 7.483 7.483 0 0 1-3.008-.611 7.89 7.89 0 0 1-2.468-1.669 7.89 7.89 0 0 1-1.668-2.467 7.6 7.6 0 0 1-.611-3.055V.536h4.794V26.01c0 1.19.282 2.068.846 2.632.564.564 1.269.846 2.115.846.846 0 1.551-.282 2.115-.846.564-.564.846-1.441.846-2.632V.536h4.794V26.48zM129.18.536h7.191c1.317 0 2.476.172 3.478.517 1.003.345 1.912.956 2.727 1.833a7.168 7.168 0 0 1 1.692 3.079c.313 1.175.47 2.765.47 4.77 0 1.473-.087 2.734-.259 3.784a7.965 7.965 0 0 1-1.105 2.937 6.997 6.997 0 0 1-2.631 2.561c-1.097.612-2.538.917-4.325.917h-2.444V34h-4.793V.536zm4.794 15.886h2.304c.97 0 1.723-.141 2.256-.423.532-.282.924-.666 1.174-1.152.251-.485.4-1.073.447-1.762.047-.69.07-1.457.07-2.303 0-.783-.023-1.527-.07-2.232-.047-.706-.188-1.316-.423-1.834a2.689 2.689 0 0 0-1.105-1.221c-.5-.298-1.221-.447-2.162-.447h-2.49v11.374zM156.778.536h14.288v4.512h-9.494V15.2h8.272v4.512h-8.272V34h-4.794V.536zm16.97 7.896c0-1.347.235-2.538.705-3.572.47-1.034 1.089-1.888 1.857-2.562a8.003 8.003 0 0 1 2.584-1.527 8.466 8.466 0 0 1 2.891-.517c.971 0 1.935.172 2.89.517a8.003 8.003 0 0 1 2.585 1.528c.768.673 1.387 1.527 1.857 2.561s.705 2.225.705 3.572v17.672c0 1.379-.235 2.577-.705 3.596-.47 1.018-1.089 1.864-1.857 2.537a8.003 8.003 0 0 1-2.584 1.528 8.466 8.466 0 0 1-2.891.517 8.466 8.466 0 0 1-2.89-.517 8.003 8.003 0 0 1-2.585-1.528c-.768-.673-1.387-1.52-1.857-2.538-.47-1.018-.705-2.216-.705-3.595V8.432zm4.794 17.672c0 1.16.321 2.013.964 2.562.642.548 1.402.822 2.279.822s1.637-.274 2.28-.822c.642-.549.963-1.403.963-2.562V8.432c0-1.16-.321-2.013-.963-2.562-.643-.548-1.403-.822-2.28-.822-.877 0-1.637.274-2.28.822-.642.549-.963 1.403-.963 2.562v17.672zm20.167-10.622h2.726c.846 0 1.52-.117 2.02-.352a2.596 2.596 0 0 0 1.152-1.011c.266-.439.446-.98.54-1.621.095-.643.142-1.387.142-2.233 0-.846-.048-1.59-.142-2.232-.094-.643-.29-1.191-.587-1.645a2.655 2.655 0 0 0-1.245-1.011c-.533-.22-1.238-.329-2.115-.329h-2.492v10.434zM193.913.536h7.708c5.64 0 8.46 3.274 8.46 9.823 0 1.943-.306 3.611-.917 5.005-.611 1.395-1.684 2.515-3.22 3.361L211.115 34h-5.076l-4.464-14.288h-2.867V34h-4.794V.536z" fill="#FFF"/><path d="M9.823 78.895H5.875L4.512 89H1.316l1.363-10.105H.282v-2.82h2.773l1.034-7.614h-2.35v-2.82h2.726l1.363-10.105h3.196L7.661 65.641h3.948l1.363-10.105h3.196l-1.363 10.105h2.397v2.82h-2.773l-1.034 7.614h2.35v2.82h-2.726L11.656 89H8.46l1.363-10.105zm1.41-10.434H7.285l-1.034 7.614h3.948l1.034-7.614zm9.185-12.925h4.794v14.335h5.922V55.536h4.794V89h-4.794V74.101h-5.922V89h-4.794V55.536zm20.842 0h4.794V89H41.26V55.536zM60.785 89h-4.23L49.74 55.536h5.076l3.807 23.359h.094l3.854-23.359h5.076L60.785 89zm10.407-33.464h7.191c1.316 0 2.476.172 3.478.517 1.003.345 1.912.956 2.726 1.833a7.168 7.168 0 0 1 1.692 3.078c.314 1.176.47 2.766.47 4.771 0 1.473-.086 2.734-.258 3.784a7.965 7.965 0 0 1-1.105 2.937 6.997 6.997 0 0 1-2.632 2.561c-1.096.612-2.538.917-4.324.917h-2.444V89h-4.794V55.536zm4.794 15.886h2.303c.972 0 1.724-.141 2.256-.423.533-.282.925-.666 1.175-1.151.25-.486.4-1.074.447-1.763.047-.69.07-1.457.07-2.303 0-.783-.023-1.527-.07-2.232-.047-.706-.188-1.316-.423-1.833a2.689 2.689 0 0 0-1.105-1.222c-.501-.298-1.222-.447-2.162-.447h-2.49v11.374zm19.808-.94h2.726c.846 0 1.52-.117 2.02-.353a2.596 2.596 0 0 0 1.152-1.01c.266-.439.447-.98.54-1.621.095-.643.142-1.387.142-2.233 0-.846-.047-1.59-.141-2.233-.095-.642-.29-1.19-.588-1.644a2.655 2.655 0 0 0-1.245-1.011c-.533-.22-1.238-.329-2.115-.329h-2.491v10.434zM91 55.536h7.708c5.64 0 8.46 3.274 8.46 9.823 0 1.943-.306 3.611-.917 5.006-.611 1.394-1.684 2.514-3.22 3.36L108.201 89h-5.075L98.66 74.712h-2.867V89H91V55.536zm20.7 0h14.288v4.512h-9.494v9.823h8.272v4.512h-8.272v9.823h9.494V89H111.7V55.536zM139.168 89h-4.23l-6.815-33.464h5.076l3.807 23.359h.094l3.854-23.359h5.076L139.168 89zm10.407-33.464h14.288v4.512h-9.494v9.823h8.272v4.512h-8.272v9.823h9.494V89h-14.288V55.536zm17.88 0h4.607l7.238 20.163h.094V55.536h4.794V89h-4.512l-7.332-20.116h-.094V89h-4.794V55.536zm24.884 4.512h-5.546v-4.512h15.886v4.512h-5.546V89h-4.794V60.048zm13.274-4.512h4.794V89h-4.794V55.536zm9.844 7.896c0-1.347.235-2.538.705-3.572.47-1.034 1.088-1.888 1.856-2.562a8.003 8.003 0 0 1 2.585-1.527 8.466 8.466 0 0 1 2.89-.517c.972 0 1.935.172 2.891.517a8.003 8.003 0 0 1 2.585 1.527c.768.674 1.387 1.528 1.857 2.562.47 1.034.705 2.225.705 3.572v17.672c0 1.379-.235 2.577-.705 3.596-.47 1.018-1.09 1.864-1.857 2.537a8.003 8.003 0 0 1-2.585 1.528 8.466 8.466 0 0 1-2.89.517 8.466 8.466 0 0 1-2.89-.517 8.003 8.003 0 0 1-2.586-1.528c-.768-.673-1.386-1.52-1.856-2.537-.47-1.019-.705-2.217-.705-3.596V63.432zm4.794 17.672c0 1.16.32 2.013.963 2.561.642.549 1.402.823 2.28.823.877 0 1.637-.274 2.28-.823.641-.548.963-1.402.963-2.561V63.432c0-1.16-.322-2.013-.964-2.562-.642-.548-1.402-.822-2.28-.822-.877 0-1.637.274-2.279.822-.642.549-.963 1.403-.963 2.562v17.672zm16-25.568h4.606l7.238 20.163h.094V55.536h4.794V89h-4.512l-7.332-20.116h-.094V89h-4.794V55.536z" fill="#D12138"/></g></symbol></svg>