<?xml version="1.0" encoding="UTF-8" standalone="no"?>
<svg width="336px" height="100px" viewBox="0 0 336 100" version="1.1" xmlns="http://www.w3.org/2000/svg" xmlns:xlink="http://www.w3.org/1999/xlink" xmlns:sketch="http://www.bohemiancoding.com/sketch/ns">
    <!-- Generator: Sketch 3.3.3 (12072) - http://www.bohemiancoding.com/sketch -->
    <title>Group Copy + Смени логотип + ТЕПЛИЦА ПРЕДУПРЕЖДАЕ</title>
    <desc>Created with Sketch.</desc>
    <defs>
        <path id="path-1" d="M7.62850276,18.5680373 C7.62850276,19.0560307 7.49504126,19.5118056 7.26815669,19.9062865 L14.4020668,24.0286915 C14.8644717,23.2271564 15.726476,22.6888706 16.7164464,22.6888706 C17.7072018,22.6888706 18.5684211,23.2271564 19.031611,24.0271199 L26.1663062,19.9015716 C25.9378515,19.5086623 25.8059601,19.0513158 25.8059601,18.5633224 C25.8059601,18.0761148 25.9378515,17.6195541 26.1663062,17.2266447 L24.2672274,16.128856 C23.8511416,16.8455227 23.6093407,17.676133 23.6093407,18.5633224 C23.6093407,18.9790205 23.6674357,19.3813596 23.7655692,19.7664108 L20.1150044,21.8779057 C19.2365137,21.0205775 18.0385004,20.489364 16.7164464,20.489364 C15.3959625,20.489364 14.1987343,21.0205775 13.3210286,21.8763341 L9.6688937,19.7648392 C9.76624209,19.3813596 9.8243371,18.9805921 9.8243371,18.5680373 C9.8243371,18.1484101 9.76624209,17.7468567 9.66653849,17.3578765 L13.3163182,15.2495249 C14.1940239,16.1092105 15.3936073,16.6412098 16.7164464,16.6412098 C18.5166066,16.6412098 20.087527,15.6557931 20.9306897,14.2012427 L19.031611,13.1034539 C18.5684211,13.9034174 17.7072018,14.442489 16.7164464,14.442489 C15.7272611,14.442489 14.8652567,13.9034174 14.4020668,13.1034539 L7.26658656,17.2290022 C7.49504126,17.6219115 7.62850276,18.079258 7.62850276,18.5680373"></path>
        <path d="M24.2664424,7.40076754 L26.163951,6.3029788 C26.6263558,7.10451389 27.4907154,7.64437135 28.4806857,7.64437135 C29.4722262,7.64437135 30.3365858,7.10451389 30.7989906,6.30140716 L32.6964992,7.39919591 C32.06766,8.48519737 31.0321557,9.30794956 29.7988144,9.65685307 L29.7988144,13.8743421 C31.0305856,14.2208882 32.0645197,15.0436404 32.6949291,16.1272844 L30.7958504,17.2242873 C30.3334455,16.4251096 29.4714412,15.886038 28.4806857,15.886038 C27.4915004,15.886038 26.628711,16.4251096 26.1663062,17.2266447 L24.2672274,16.128856 C24.8976368,15.0436404 25.9307859,14.2208882 27.1633421,13.8743421 L27.1633421,9.65685307 C25.9300008,9.30794956 24.8960667,8.48519737 24.2664424,7.40076754 L24.2664424,7.40076754 Z M36.0330369,9.32680921 C35.616166,10.0450475 35.3743651,10.8764437 35.3743651,11.7652047 C35.3743651,12.6508224 35.6153809,13.4814327 36.0298967,14.1980994 L37.9297605,13.1010965 C37.7020908,12.7081871 37.5701995,12.2516265 37.5701995,11.7652047 C37.5701995,11.2756396 37.703661,10.8198648 37.9321157,10.4238121 L36.0330369,9.32680921 L36.0330369,9.32680921 Z M19.3919571,11.7652047 C19.3919571,12.2531981 19.2592806,12.708973 19.031611,13.1034539 L20.9306897,14.1996711 C21.3459905,13.4830044 21.5885765,12.652394 21.5885765,11.7652047 C21.5885765,10.8764437 21.3459905,10.0466192 20.9306897,9.32838085 L19.0308259,10.4269554 C19.2592806,10.8214364 19.3919571,11.2772113 19.3919571,11.7652047 L19.3919571,11.7652047 Z" id="path-3"></path>
        <path d="M35.3743651,25.357511 C35.3743651,24.4718933 35.6153809,23.6428545 36.0298967,22.9261879 L37.9281903,24.0239766 C37.7020908,24.416886 37.5701995,24.8710892 37.5701995,25.357511 C37.5701995,25.847076 37.703661,26.3044225 37.9321157,26.6989035 L36.033822,27.7966923 C35.6169511,27.0800256 35.3743651,26.2478436 35.3743651,25.357511 L35.3743651,25.357511 Z M28.4806857,21.2413925 C27.4915004,21.2413925 26.628711,20.7023209 26.1663062,19.9015716 L19.031611,24.0271199 C19.2592806,24.4216009 19.3919571,24.8773757 19.3919571,25.3653692 C19.3919571,25.8533626 19.2600657,26.3107091 19.031611,26.7036184 L20.9306897,27.8006213 C21.3467756,27.0839547 21.5885765,26.2541301 21.5885765,25.3653692 C21.5885765,24.9496711 21.5312665,24.5489035 21.432348,24.1622807 L25.0836978,22.0515716 C25.6583674,22.6118604 26.3696387,23.0291301 27.1633421,23.2530885 L27.1641272,31.4012427 L27.161772,31.4012427 L28.4806857,32.1642727 L29.8003845,31.4012427 L29.7995995,31.4004569 L29.7988144,23.2530885 C31.0313707,22.9065424 32.0653048,22.0837902 32.6957142,20.9985746 L30.7958504,19.9015716 C30.3334455,20.7023209 29.4714412,21.2413925 28.4806857,21.2413925 L28.4806857,21.2413925 Z" id="path-5"></path>
        <path id="path-7" d="M0.736393495,29.7321637 L2.63468717,30.8291667 C3.09787711,30.0284174 3.96145157,29.4862025 4.952207,29.4862025 C5.94296243,29.4862025 6.80653689,30.0284174 7.26894176,30.8291667 L9.16723544,29.7321637 C8.53761115,28.6453765 7.503677,27.8226243 6.26955059,27.4737208 L6.26955059,23.2578034 C7.06482416,23.033845 7.77923576,22.6150037 8.35469038,22.0515716 L12.0021149,24.1622807 C11.9039814,24.5473319 11.8458864,24.9496711 11.8458864,25.3653692 C11.8458864,26.2541301 12.0876873,27.0839547 12.5037731,27.802193 L14.4020668,26.7036184 C14.1743972,26.3107091 14.0417207,25.8549342 14.0417207,25.3653692 C14.0417207,24.8789474 14.1743972,24.4231725 14.4020668,24.0286915 L7.26815669,19.9062865 C6.80496675,20.7054642 5.94217736,21.2461075 4.952207,21.2461075 C3.96302171,21.2461075 3.10023232,20.7054642 2.63704238,19.9062865 L0.738748698,21.0032895 C1.36837299,22.0885051 2.40230714,22.9096857 3.63486341,23.2578034 L3.63486341,27.4737208 C2.400737,27.8226243 1.36601778,28.6469481 0.736393495,29.7321637"></path>
        <path d="M9.8243371,32.1642727 C9.8243371,33.0530336 9.58175118,33.8852156 9.16488024,34.6034539 L7.26580149,33.5056652 C7.49504126,33.1111842 7.62850276,32.6538377 7.62850276,32.1642727 C7.62850276,31.6778509 7.49582632,31.222076 7.26894176,30.8291667 L9.16723544,29.7321637 C9.58253625,30.4488304 9.8243371,31.2770833 9.8243371,32.1642727 L9.8243371,32.1642727 Z M16.7164464,36.285106 C17.7079869,36.285106 18.5707763,36.8257493 19.0331811,37.6264985 L28.4806857,32.1642727 L27.161772,31.4012427 L20.1150044,35.4764985 C19.2365137,34.6183845 18.0385004,34.0879569 16.7164464,34.0879569 C14.9155011,34.0879569 13.3437956,35.0725877 12.5006329,36.5310673 L14.4004967,37.6280702 C14.8629015,36.8273209 15.7256909,36.285106 16.7164464,36.285106 L16.7164464,36.285106 Z M16.7164464,30.2429459 C18.5166066,30.2429459 20.087527,29.2575292 20.9306897,27.8006213 L19.031611,26.7036184 C18.5692061,27.5051535 17.7072018,28.0434393 16.7164464,28.0434393 C15.7272611,28.0434393 14.8652567,27.5051535 14.4020668,26.7036184 L12.5037731,27.802193 C13.3469358,29.2575292 14.9178563,30.2429459 16.7164464,30.2429459 L16.7164464,30.2429459 Z" id="path-9"></path>
        <path id="path-11" d="M53.3288633,27.4713633 L53.3288633,23.2530885 C54.5622046,22.9049708 55.5961387,22.0822186 56.225763,20.9954313 L54.3274694,19.8984284 C53.8642794,20.7007493 53.0022751,21.2413925 52.0107346,21.2413925 C51.0199792,21.2413925 50.1564047,20.7007493 49.6939998,19.8984284 L42.5624449,24.022405 C42.7893295,24.4153143 42.9212209,24.8710892 42.9212209,25.357511 C42.9212209,25.847076 42.7877594,26.3044225 42.5593047,26.6989035 L44.4575983,27.7966923 C44.8744693,27.0784539 45.1178403,26.2478436 45.1178403,25.357511 C45.1178403,24.9418129 45.0597453,24.5410453 44.9616118,24.1559942 L48.6090363,22.0484284 C49.1837058,22.6102887 49.8981174,23.0291301 50.6926059,23.2530885 L50.6926059,27.4713633 C49.4600497,27.8179094 48.4269006,28.6406615 47.7964912,29.7258772 L49.69557,30.8228801 C50.1579748,30.0221308 51.0207642,29.4814876 52.0107346,29.4814876 C52.9999199,29.4814876 53.8619242,30.0221308 54.3251142,30.8213085 L56.2234078,29.7243056 C55.5937835,28.6406615 54.5606345,27.8179094 53.3288633,27.4713633"></path>
        <path d="M49.69557,33.4993787 L47.7972763,34.5971674 C47.3811904,33.8789291 47.1386045,33.0483187 47.1386045,32.1611294 C47.1386045,31.2723684 47.3804054,30.4425439 47.7964912,29.7258772 L49.69557,30.8228801 C49.4679003,31.2173611 49.3352239,31.673136 49.3352239,32.1611294 C49.3352239,32.6491228 49.4679003,33.1048977 49.69557,33.4993787 L49.69557,33.4993787 Z M36.8487223,35.470212 L29.8003845,31.4012427 L28.4806857,32.1642727 L37.9297605,37.6241411 C38.3905952,36.822606 39.2549547,36.2811769 40.2457102,36.2811769 C41.2364656,36.2811769 42.1000401,36.822606 42.5624449,37.6241411 L44.4607386,36.5263523 C43.8303292,35.4395651 42.7971802,34.6168129 41.5630538,34.2686952 L41.5630538,30.0480629 C42.79561,29.7015168 43.827974,28.8803363 44.4575983,27.7966923 L42.5593047,26.6989035 C42.0961147,27.4972953 41.2341104,28.0355811 40.2457102,28.0355811 C39.2573099,28.0355811 38.3960907,27.4972953 37.9329007,26.6989035 L36.0346071,27.7966923 C36.6642314,28.8803363 37.6973804,29.7015168 38.9283666,30.0480629 L38.9283666,34.2686952 C38.1346631,34.4926535 37.4233918,34.9099232 36.8487223,35.470212 L36.8487223,35.470212 Z" id="path-13"></path>
        <path d="M14.4036369,40.3053545 L7.2705119,44.4293311 C6.80889209,43.6262244 5.94453256,43.0832237 4.952207,43.0832237 C3.95988144,43.0832237 3.09552191,43.6262244 2.63311704,44.4293311 L0.734038292,43.3315424 C1.57720099,41.872277 3.15047665,40.8852887 4.952207,40.8852887 C6.27347593,40.8852887 7.47227429,41.4165022 8.35076504,42.2738304 L12.0013298,40.1654788 C11.9031963,39.7804276 11.8458864,39.3780885 11.8458864,38.963962 C11.8458864,38.0767727 12.0869022,37.2477339 12.5006329,36.5310673 L14.4004967,37.6280702 C14.1736121,38.0209795 14.0417207,38.4751827 14.0417207,38.963962 C14.0417207,39.453527 14.1751822,39.9093019 14.4036369,40.3053545 L14.4036369,40.3053545 Z M4.952207,37.0402778 C6.75079708,37.0402778 8.32093247,36.0580044 9.16488024,34.6034539 L7.26580149,33.5040936 C6.80261155,34.304057 5.94139229,34.8423428 4.952207,34.8423428 C3.96380678,34.8423428 3.10258752,34.304057 2.63939758,33.5056652 L0.740318834,34.6034539 C1.58505167,36.0580044 3.15440199,37.0402778 4.952207,37.0402778 L4.952207,37.0402778 Z" id="path-15"></path>
        <path d="M56.2241929,43.3252558 L54.3251142,44.4230446 C53.8619242,43.6230811 52.9999199,43.0832237 52.0099495,43.0832237 C51.0199792,43.0832237 50.1579748,43.6230811 49.69557,44.4246162 L42.5593047,40.3006396 C42.7877594,39.9061586 42.9212209,39.4488121 42.9212209,38.9592471 C42.9212209,38.4728253 42.7893295,38.0170504 42.5616599,37.6241411 L44.4607386,36.5263523 C44.8760394,37.2414474 45.1178403,38.0720577 45.1178403,38.9592471 C45.1178403,39.3733735 45.0597453,39.7741411 44.9616118,40.1591923 L48.6153168,42.271473 C49.4938076,41.4165022 50.6902507,40.8852887 52.0099495,40.8852887 C53.8093247,40.8852887 55.3802451,41.8691338 56.2241929,43.3252558 L56.2241929,43.3252558 Z M52.0107346,37.0355629 C53.8101097,37.0355629 55.3810302,36.0517178 56.2241929,34.5971674 L54.3251142,33.4993787 C53.8627093,34.2977705 53.000705,34.8384137 52.0107346,34.8384137 C51.0207642,34.8384137 50.1587599,34.2977705 49.69557,33.4993787 L47.7972763,34.5971674 C48.640439,36.0532895 50.2113594,37.0355629 52.0107346,37.0355629 L52.0107346,37.0355629 Z" id="path-16"></path>
        <path id="path-18" d="M28.4814708,40.8900037 C27.161772,40.8900037 25.9637587,41.4196455 25.085268,42.275402 L21.432348,40.1654788 C21.5312665,39.7804276 21.5885765,39.3780885 21.5885765,38.963962 C21.5885765,38.5474781 21.5312665,38.1459247 21.432348,37.7600877 L28.4814708,33.6856177 L35.5305936,37.7553728 C35.4324601,38.1412098 35.3743651,38.5427632 35.3743651,38.9592471 C35.3743651,39.8487939 35.6169511,40.6794042 36.033822,41.3976425 L37.9321157,40.3006396 C37.703661,39.9061586 37.5701995,39.4488121 37.5701995,38.9592471 C37.5701995,38.4728253 37.7020908,38.0178363 37.9297605,37.6241411 L28.4806857,32.1642727 L19.0331811,37.6264985 C19.2600657,38.0209795 19.3919571,38.4751827 19.3919571,38.963962 C19.3919571,39.4519554 19.2592806,39.9093019 19.0300409,40.3037829 L26.1663062,44.4277595 C26.6294961,43.6277961 27.4922855,43.0879386 28.4814708,43.0879386 C29.4714412,43.0879386 30.3334455,43.6262244 30.7958504,44.4277595 L32.6957142,43.3283991 C31.8509813,41.8738487 30.280846,40.8900037 28.4814708,40.8900037"></path>
        <path d="M44.4607386,50.1265168 L42.5616599,51.2250914 C42.099255,50.4227705 41.2364656,49.8821272 40.2464952,49.8821272 C39.2549547,49.8821272 38.3905952,50.4243421 37.9297605,51.2250914 L36.0298967,50.1280885 C36.8730594,48.6696089 38.4447649,47.6841923 40.2464952,47.6841923 C42.0466555,47.6841923 43.6175759,48.6680373 44.4607386,50.1265168 L44.4607386,50.1265168 Z M49.3352239,45.7612939 C49.3352239,45.2733004 49.4671153,44.8175256 49.69557,44.4246162 L42.5593047,40.3006396 C42.0961147,41.0982456 41.2341104,41.6373173 40.2457102,41.6373173 C39.2573099,41.6373173 38.3960907,41.0982456 37.9321157,40.3006396 L36.033822,41.3976425 C36.8785548,42.8529788 38.4479052,43.8352522 40.2457102,43.8352522 C41.5677642,43.8352522 42.7673476,43.3040387 43.6466234,42.4443531 L47.295618,44.5550621 C47.1966995,44.9416849 47.1386045,45.3440241 47.1386045,45.7612939 C47.1386045,46.6500548 47.3811904,47.4798794 47.7972763,48.1981177 L49.69557,47.0995431 C49.4679003,46.7050621 49.3352239,46.2492873 49.3352239,45.7612939 L49.3352239,45.7612939 Z M31.1569815,45.7660088 C31.1569815,46.2540022 31.0250901,46.709777 30.7958504,47.104258 L32.6957142,48.201261 C33.1125851,47.4845943 33.3536009,46.6547697 33.3536009,45.7660088 C33.3536009,44.8772478 33.1118,44.0466374 32.6957142,43.3283991 L30.7958504,44.4277595 C31.0250901,44.8206689 31.1569815,45.2780154 31.1569815,45.7660088 L31.1569815,45.7660088 Z" id="path-20"></path>
        <path id="path-22" d="M16.7164464,47.6841923 C14.914716,47.6841923 13.3414404,48.6711806 12.4990627,50.1312317 L14.3981415,51.2282346 C14.8605463,50.4243421 15.7241208,49.8821272 16.7164464,49.8821272 C17.7087719,49.8821272 18.5731315,50.4243421 19.0347513,51.226663 L20.93383,50.1296601 C20.0906673,48.6696089 18.5181767,47.6841923 16.7164464,47.6841923"></path>
        <path id="path-24" d="M9.16252503,48.2028326 C9.58018105,47.4830227 9.8243371,46.6516265 9.8243371,45.7612939 C9.8243371,45.3455958 9.76624209,44.9448282 9.66810863,44.559777 L13.3186734,42.4506396 C14.1971641,43.3087537 15.3951774,43.8399671 16.7164464,43.8399671 C18.0392854,43.8399671 19.2372987,43.3087537 20.1157895,42.4506396 L23.7663542,44.559777 C23.6682208,44.9463999 23.6093407,45.348739 23.6093407,45.7660088 C23.6093407,46.6547697 23.8519266,47.4845943 24.2680125,48.201261 L26.1663062,47.104258 C25.9394216,46.709777 25.8059601,46.2540022 25.8059601,45.7660088 C25.8059601,45.2780154 25.9394216,44.8222405 26.1663062,44.4277595 L19.0300409,40.3037829 C18.5668509,41.1029605 17.7064167,41.6404605 16.7164464,41.6404605 C15.7280461,41.6404605 14.867612,41.1029605 14.4036369,40.3053545 L7.2705119,44.4293311 C7.49661139,44.8222405 7.62850276,45.2764437 7.62850276,45.7612939 C7.62850276,46.2508589 7.49347112,46.709777 7.26423135,47.1058297 L9.16252503,48.2028326"></path>
        <path d="M36.0298967,14.1980994 L37.9297605,13.1010965 C38.3913803,13.9018458 39.2549547,14.442489 40.2464952,14.442489 C41.2364656,14.442489 42.1000401,13.9018458 42.56323,13.1010965 L49.6971401,17.2235015 C49.4679003,17.6179825 49.3352239,18.0753289 49.3352239,18.5633224 C49.3352239,19.0513158 49.4671153,19.505519 49.6939998,19.8984284 L42.5624449,24.022405 C42.1000401,23.2208699 41.2364656,22.6794408 40.2457102,22.6794408 C39.2541697,22.6794408 38.3905952,23.2208699 37.9281903,24.022405 L36.0298967,22.9261879 C36.8730594,21.4669225 38.4447649,20.4815058 40.2457102,20.4815058 C41.5669791,20.4815058 42.7665625,21.0127193 43.6450533,21.8708333 L47.2940479,19.7616959 C47.1959144,19.3782164 47.1386045,18.9774488 47.1386045,18.5633224 C47.1386045,18.1468385 47.1966995,17.7437135 47.295618,17.3578765 L43.6474085,15.2495249 C42.7689177,16.1092105 41.5685492,16.6412098 40.2464952,16.6412098 C38.4455499,16.6412098 36.8738444,15.6557931 36.0298967,14.1980994 L36.0298967,14.1980994 Z M31.1561964,18.5633224 C31.1561964,19.0513158 31.0243051,19.5070906 30.7958504,19.9015716 L32.6957142,20.9985746 C33.1118,20.2819079 33.3520308,19.4520833 33.3520308,18.5633224 C33.3520308,17.676133 33.1118,16.8455227 32.6949291,16.1272844 L30.7958504,17.2242873 C31.0243051,17.6195541 31.1561964,18.0753289 31.1561964,18.5633224 L31.1561964,18.5633224 Z" id="path-26"></path>
        <path d="M12.5029881,9.32995249 C13.3461508,7.87304459 14.9170712,6.88762792 16.7164464,6.88762792 C18.5158215,6.88762792 20.086742,7.87304459 20.9306897,9.32838085 L19.031611,10.4269554 C18.5684211,9.62620614 17.7072018,9.0871345 16.7164464,9.0871345 C15.7272611,9.0871345 14.8644717,9.62699196 14.4020668,10.4269554 L12.5029881,9.32995249 L12.5029881,9.32995249 Z M24.2687976,2.52869152 C23.8519266,3.24692982 23.6085556,4.0775402 23.6085556,4.96787281 C23.6085556,5.8534905 23.8503565,6.68331506 24.2664424,7.40076754 L26.164736,6.3029788 C25.9370664,5.90849781 25.805175,5.45429459 25.805175,4.96787281 C25.805175,4.47830775 25.9394216,4.02096126 26.1678763,3.62648026 L24.2687976,2.52869152 L24.2687976,2.52869152 Z" id="path-28"></path>
        <path id="path-30" d="M2.63704238,17.2290022 C3.09944725,16.4298246 3.96223664,15.8891813 4.952207,15.8891813 C5.94217736,15.8891813 6.80418169,16.4298246 7.26737163,17.2290022 L14.4028519,13.1034539 C14.1743972,12.708973 14.0417207,12.2531981 14.0417207,11.7652047 C14.0417207,11.2772113 14.1743972,10.8214364 14.4020668,10.4269554 L12.5029881,9.32995249 C12.0876873,10.0481908 11.8458864,10.8780154 11.8458864,11.7652047 C11.8458864,12.180117 11.9031963,12.578527 12.0005447,12.964364 L8.34605463,15.0758589 C7.46756389,14.2208882 6.27112072,13.6912463 4.952207,13.6912463 C3.15283185,13.6912463 1.5819114,14.6750914 0.737963631,16.1319993 L2.63704238,17.2290022"></path>
        <path id="path-32" d="M52.0107346,13.6873173 C50.6902507,13.6873173 49.4930225,14.2161732 48.6145318,15.0742873 L44.9616118,12.964364 C45.0605303,12.578527 45.1178403,12.180117 45.1178403,11.7652047 C45.1178403,10.8748721 44.8744693,10.0450475 44.4575983,9.32680921 L42.5593047,10.4238121 C42.7877594,10.8182931 42.9212209,11.2756396 42.9212209,11.7652047 C42.9212209,12.2516265 42.7893295,12.7066155 42.56323,13.1010965 L49.6971401,17.2235015 C50.1611151,16.423538 51.0215493,15.8844664 52.0107346,15.8844664 C52.9991348,15.8844664 53.8603541,16.423538 54.323544,17.2219298 L56.2218377,16.1241411 C55.3778899,14.6695906 53.8085396,13.6873173 52.0107346,13.6873173"></path>
        <path d="M44.4575983,9.32680921 L42.5593047,10.4238121 C42.0961147,9.62620614 41.2341104,9.0871345 40.2464952,9.0871345 C39.2573099,9.0871345 38.3960907,9.62620614 37.9321157,10.4238121 L36.0330369,9.32680921 C36.8777698,7.87147295 38.4479052,6.88762792 40.2464952,6.88762792 C42.0443002,6.88762792 43.6136506,7.87147295 44.4575983,9.32680921 L44.4575983,9.32680921 Z M31.1561964,4.96787281 C31.1561964,5.45272295 31.0250901,5.90849781 30.7989906,6.30140716 L32.6964992,7.39919591 C33.1125851,6.68252924 33.3520308,5.8534905 33.3520308,4.96787281 C33.3520308,4.0775402 33.1102299,3.24535819 32.693359,2.52711988 L30.7942802,3.62648026 C31.02352,4.02096126 31.1561964,4.47830775 31.1561964,4.96787281 L31.1561964,4.96787281 Z" id="path-34"></path>
        <path d="M42.5593047,53.9000183 C42.7877594,53.5055373 42.9212209,53.0481908 42.9212209,52.5601974 C42.9212209,52.0737756 42.7893295,51.6180007 42.5616599,51.2250914 L44.4607386,50.1265168 C44.8752543,50.8431835 45.1178403,51.673008 45.1178403,52.5601974 C45.1178403,53.4489583 44.8744693,54.2811404 44.4575983,54.9993787 L42.5593047,53.9000183 L42.5593047,53.9000183 Z M56.2241929,48.1973319 L54.3251142,47.0995431 C53.8619242,47.8995066 52.9999199,48.439364 52.0099495,48.439364 C51.0199792,48.439364 50.1587599,47.8995066 49.69557,47.0995431 L47.7972763,48.1981177 C48.640439,49.6534539 50.2113594,50.637299 52.0099495,50.637299 C53.8101097,50.637299 55.3810302,49.6534539 56.2241929,48.1973319 L56.2241929,48.1973319 Z" id="path-36"></path>
        <path d="M0.741888969,48.2028326 L2.64096772,47.1058297 C3.10494272,47.9026499 3.96459184,48.439364 4.952207,48.439364 C5.93903709,48.439364 6.80025635,47.9026499 7.26423135,47.1058297 L9.16252503,48.2028326 C8.31857727,49.6565972 6.75001202,50.637299 4.952207,50.637299 C3.15597212,50.637299 1.58662181,49.6565972 0.741888969,48.2028326 L0.741888969,48.2028326 Z M14.0417207,52.5601974 C14.0417207,52.0737756 14.172827,51.621144 14.3981415,51.2282346 L12.4990627,50.1312317 C12.0853321,50.8478984 11.8458864,51.6745797 11.8458864,52.5601974 C11.8458864,53.45053 12.0884723,54.282712 12.5069134,55.0025219 L14.4059921,53.9031615 C14.1759673,53.5086806 14.0417207,53.0497624 14.0417207,52.5601974 L14.0417207,52.5601974 Z" id="path-38"></path>
        <path id="path-40" d="M2.27669631,45.7612939 C2.27669631,45.2764437 2.40701754,44.8222405 2.63311704,44.4293311 L0.734038292,43.3315424 C0.321092686,44.0482091 0.0808619723,44.8756762 0.0808619723,45.7612939 C0.0808619723,46.6516265 0.324232957,47.4845943 0.741888969,48.2028326 L2.64096772,47.1058297 C2.41094288,46.709777 2.27669631,46.2524306 2.27669631,45.7612939"></path>
    </defs>
    <g id="Page-1" stroke="none" stroke-width="1" fill="none" fill-rule="evenodd" sketch:type="MSPage">
        <g id="Artboard-4" sketch:type="MSArtboardGroup" transform="translate(-45.000000, -177.000000)">
            <g id="Group-Copy-+-Смени-логотип-+-ТЕПЛИЦА-ПРЕДУПРЕЖДАЕ" sketch:type="MSLayerGroup" transform="translate(45.000000, 177.000000)">
                <g id="Group-Copy">
                    <mask id="mask-2" sketch:name="Clip 2" fill="white">
                        <use xlink:href="#path-1"></use>
                    </mask>
                    <use id="Clip-2" fill="#FFFFFF" sketch:type="MSShapeGroup" xlink:href="#path-1"></use>
                    <mask id="mask-4" sketch:name="Clip 5" fill="white">
                        <use xlink:href="#path-3"></use>
                    </mask>
                    <use id="Clip-5" fill="#FFFFFF" sketch:type="MSShapeGroup" xlink:href="#path-3"></use>
                    <mask id="mask-6" sketch:name="Clip 8" fill="white">
                        <use xlink:href="#path-5"></use>
                    </mask>
                    <use id="Clip-8" fill="#FFFFFF" sketch:type="MSShapeGroup" xlink:href="#path-5"></use>
                    <mask id="mask-8" sketch:name="Clip 11" fill="white">
                        <use xlink:href="#path-7"></use>
                    </mask>
                    <use id="Clip-11" fill="#FFFFFF" sketch:type="MSShapeGroup" xlink:href="#path-7"></use>
                    <mask id="mask-10" sketch:name="Clip 14" fill="white">
                        <use xlink:href="#path-9"></use>
                    </mask>
                    <use id="Clip-14" fill="#FFFFFF" sketch:type="MSShapeGroup" xlink:href="#path-9"></use>
                    <path d="M2.27669631,32.1642727 C2.27669631,31.6778509 2.40780261,31.222076 2.63468717,30.8291667 L0.736393495,29.7321637 C0.321877754,30.4488304 0.0808619723,31.2770833 0.0808619723,32.1642727 C0.0808619723,33.0530336 0.323447889,33.8852156 0.740318834,34.6050256 L2.63939758,33.5056652 C2.41015781,33.1111842 2.27669631,32.6538377 2.27669631,32.1642727" id="Fill-16" fill="#FFFFFF" sketch:type="MSShapeGroup"></path>
                    <mask id="mask-12" sketch:name="Clip 19" fill="white">
                        <use xlink:href="#path-11"></use>
                    </mask>
                    <use id="Clip-19" fill="#FFFFFF" sketch:type="MSShapeGroup" xlink:href="#path-11"></use>
                    <path d="M54.6854602,32.1611294 C54.6854602,32.6491228 54.5527838,33.1048977 54.3251142,33.4993787 L56.2241929,34.5971674 C56.6402788,33.8789291 56.8820796,33.0483187 56.8820796,32.1611294 C56.8820796,31.2723684 56.6402788,30.4409722 56.2234078,29.7243056 L54.3251142,30.8213085 C54.5527838,31.2157895 54.6854602,31.6715643 54.6854602,32.1611294" id="Fill-21" fill="#FFFFFF" sketch:type="MSShapeGroup"></path>
                    <mask id="mask-14" sketch:name="Clip 23" fill="white">
                        <use xlink:href="#path-13"></use>
                    </mask>
                    <use id="Clip-23" fill="#FFFFFF" sketch:type="MSShapeGroup" xlink:href="#path-13"></use>
                    <g id="Fill-17">
                        <use fill="#FFFFFF" fill-rule="evenodd" sketch:type="MSShapeGroup" xlink:href="#path-15"></use>
                        <use fill="none" xlink:href="#path-15"></use>
                    </g>
                    <mask id="mask-17" sketch:name="Clip 26" fill="white">
                        <use xlink:href="#path-16"></use>
                    </mask>
                    <use id="Clip-26" fill="#FFFFFF" sketch:type="MSShapeGroup" xlink:href="#path-16"></use>
                    <mask id="mask-19" sketch:name="Clip 29" fill="white">
                        <use xlink:href="#path-18"></use>
                    </mask>
                    <use id="Clip-29" fill="#FFFFFF" sketch:type="MSShapeGroup" xlink:href="#path-18"></use>
                    <mask id="mask-21" sketch:name="Clip 32" fill="white">
                        <use xlink:href="#path-20"></use>
                    </mask>
                    <use id="Clip-32" fill="#FFFFFF" sketch:type="MSShapeGroup" xlink:href="#path-20"></use>
                    <mask id="mask-23" sketch:name="Clip 35" fill="white">
                        <use xlink:href="#path-22"></use>
                    </mask>
                    <use id="Clip-35" fill="#FFFFFF" sketch:type="MSShapeGroup" xlink:href="#path-22"></use>
                    <mask id="mask-25" sketch:name="Clip 38" fill="white">
                        <use xlink:href="#path-24"></use>
                    </mask>
                    <use id="Clip-38" fill="#FFFFFF" sketch:type="MSShapeGroup" xlink:href="#path-24"></use>
                    <mask id="mask-27" sketch:name="Clip 41" fill="white">
                        <use xlink:href="#path-26"></use>
                    </mask>
                    <use id="Clip-41" fill="#FFFFFF" sketch:type="MSShapeGroup" xlink:href="#path-26"></use>
                    <mask id="mask-29" sketch:name="Clip 44" fill="white">
                        <use xlink:href="#path-28"></use>
                    </mask>
                    <use id="Clip-44" fill="#FFFFFF" sketch:type="MSShapeGroup" xlink:href="#path-28"></use>
                    <path d="M26.1678763,3.62648026 C26.6318513,2.82651681 27.4922855,2.28823099 28.4806857,2.28823099 C29.469086,2.28823099 30.3310903,2.82651681 30.7942802,3.62648026 L32.693359,2.52711988 C31.8486261,1.07256944 30.2792758,0.0902960526 28.4806857,0.0902960526 C26.6828807,0.0902960526 25.1127453,1.07256944 24.2687976,2.52869152 L26.1678763,3.62648026" id="Fill-46" fill="#FFFFFF" sketch:type="MSShapeGroup"></path>
                    <mask id="mask-31" sketch:name="Clip 48" fill="white">
                        <use xlink:href="#path-30"></use>
                    </mask>
                    <use id="Clip-48" fill="#FFFFFF" sketch:type="MSShapeGroup" xlink:href="#path-30"></use>
                    <path d="M2.27669631,18.5680373 C2.27669631,18.079258 2.40937275,17.6234832 2.63704238,17.2290022 L0.737963631,16.1319993 C0.322662821,16.8502376 0.0808619723,17.680848 0.0808619723,18.5680373 C0.0808619723,19.4560124 0.322662821,20.2866228 0.738748698,21.0048611 L2.63704238,19.9062865 C2.40937275,19.5118056 2.27669631,19.0560307 2.27669631,18.5680373" id="Fill-50" fill="#FFFFFF" sketch:type="MSShapeGroup"></path>
                    <mask id="mask-33" sketch:name="Clip 52" fill="white">
                        <use xlink:href="#path-32"></use>
                    </mask>
                    <use id="Clip-52" fill="#FFFFFF" sketch:type="MSShapeGroup" xlink:href="#path-32"></use>
                    <path d="M54.6854602,18.5633224 C54.6854602,19.0513158 54.5535689,19.505519 54.3274694,19.8984284 L56.225763,20.9954313 C56.6402788,20.2803363 56.8820796,19.4505117 56.8820796,18.5633224 C56.8820796,17.6745614 56.6387086,16.8423794 56.2218377,16.1241411 L54.322759,17.2219298 C54.5519987,17.6179825 54.6854602,18.0737573 54.6854602,18.5633224" id="Fill-54" fill="#FFFFFF" sketch:type="MSShapeGroup"></path>
                    <mask id="mask-35" sketch:name="Clip 56" fill="white">
                        <use xlink:href="#path-34"></use>
                    </mask>
                    <use id="Clip-56" fill="#FFFFFF" sketch:type="MSShapeGroup" xlink:href="#path-34"></use>
                    <mask id="mask-37" sketch:name="Clip 59" fill="white">
                        <use xlink:href="#path-36"></use>
                    </mask>
                    <use id="Clip-59" fill="#FFFFFF" sketch:type="MSShapeGroup" xlink:href="#path-36"></use>
                    <mask id="mask-39" sketch:name="Clip 63" fill="white">
                        <use xlink:href="#path-38"></use>
                    </mask>
                    <use id="Clip-63" fill="#FFFFFF" sketch:type="MSShapeGroup" xlink:href="#path-38"></use>
                    <path d="M54.6854602,45.7612939 C54.6854602,46.2492873 54.5527838,46.7050621 54.3251142,47.0995431 L56.2241929,48.1973319 C56.6402788,47.4798794 56.8820796,46.6484832 56.8820796,45.7612939 C56.8820796,44.8741045 56.6402788,44.0419225 56.2234078,43.3252558 L54.3243291,44.4230446 C54.5527838,44.8175256 54.6854602,45.2733004 54.6854602,45.7612939" id="Path" fill="#FFFFFF" sketch:type="MSShapeGroup"></path>
                    <mask id="mask-41" sketch:name="Clip 66" fill="white">
                        <use xlink:href="#path-40"></use>
                    </mask>
                    <use id="Clip-66" fill="#FFFFFF" sketch:type="MSShapeGroup" xlink:href="#path-40"></use>
                    <path d="M55.6495234,72.0752193 L29.7995995,72.0752193 L29.7995995,60.1189876 L36.8471521,56.0476608 C37.7264279,56.9057749 38.9244412,57.4362025 40.2464952,57.4362025 C42.0443002,57.4362025 43.6144356,56.4539291 44.4575983,54.9993787 L42.5593047,53.9000183 C42.0961147,54.6999817 41.2341104,55.2390534 40.2464952,55.2390534 C39.2573099,55.2390534 38.3960907,54.6999817 37.9321157,53.9000183 C37.703661,53.5055373 37.5701995,53.0481908 37.5701995,52.5601974 C37.5701995,52.0737756 37.7020908,51.6180007 37.9297605,51.2250914 L36.0298967,50.1280885 C35.6153809,50.8447551 35.3743651,51.673008 35.3743651,52.5601974 C35.3743651,52.9766813 35.4324601,53.376663 35.5305936,53.7625 L29.7995995,57.0739401 L29.7995995,50.454989 C31.0321557,50.1076572 32.0660899,49.284905 32.6957142,48.201261 L30.7966354,47.104258 C30.3342306,47.9034357 29.4722262,48.4440789 28.4814708,48.4440789 C27.4922855,48.4440789 26.6294961,47.9034357 26.1663062,47.104258 L24.2680125,48.201261 C24.8984219,49.284905 25.9315709,50.1076572 27.1649123,50.454989 L27.1641272,57.0723684 L21.4339181,53.7593567 C21.5312665,53.3750914 21.5885765,52.9751096 21.5885765,52.5601974 C21.5885765,51.6745797 21.3475607,50.8463268 20.93383,50.1296601 L19.0347513,51.226663 C19.2608508,51.6195724 19.3919571,52.0737756 19.3919571,52.5601974 C19.3919571,53.0497624 19.2584956,53.5086806 19.0284707,53.9031615 C18.5652808,54.7015534 17.7040615,55.2390534 16.7164464,55.2390534 C15.7296163,55.2390534 14.8691821,54.7015534 14.4059921,53.9031615 L12.5069134,55.0025219 C13.3508612,56.4539291 14.9202115,57.4362025 16.7164464,57.4362025 C18.0392854,57.4362025 19.2388689,56.9042032 20.1173596,56.0460892 L27.1641272,60.1189876 L27.1641272,72.0752193 L1.31341825,72.0752193 C0.828246415,72.0752193 0.434927501,72.4697003 0.434927501,72.9545504 C0.434927501,73.441758 0.828246415,73.8346674 1.31341825,73.8346674 L27.1162381,73.8346674 C26.9717856,74.6919956 26.581607,75.6876279 25.6505167,76.5598867 C23.9791076,78.1283808 21.0091965,78.8206871 17.0579508,78.561367 C15.1894897,78.4411367 13.5942322,78.5582237 12.236065,78.8356177 C12.1567732,78.8371893 12.0774814,78.8513341 11.9989746,78.8835526 C11.991909,78.8866959 11.9871986,78.8898392 11.980133,78.8929825 C7.45421774,79.9121893 5.6642634,82.7835709 5.34081551,84.7213999 C5.28115036,85.0813048 5.52373628,85.4199927 5.88172715,85.4797149 C5.91862533,85.4860015 5.95552351,85.4891447 5.99163663,85.4891447 C6.30723384,85.4891447 6.587503,85.2604715 6.64088761,84.9382858 C6.66443964,84.7936952 7.06403909,82.6326937 9.5982376,81.1671418 C9.37606345,81.8044408 9.31796844,82.4936038 9.26144356,83.1976974 C9.17979652,84.2074744 9.0879436,85.349269 8.48108628,86.5987208 C8.32171754,86.927193 8.45753425,87.321674 8.78490747,87.4811952 C8.87833053,87.5259868 8.97646399,87.5472039 9.07302732,87.5472039 C9.31718337,87.5472039 9.55191861,87.4104715 9.66496836,87.1762975 C10.3817352,85.7036732 10.4877193,84.3732822 10.5748618,83.3037829 C10.7036129,81.7062135 10.7766242,80.8205958 12.4598093,80.1204313 C13.0517504,79.9994152 13.7033566,79.9121893 14.4201234,79.865826 C13.6586077,80.8017361 13.4906032,82.0959795 13.3194585,83.4373721 C13.0729472,85.3697003 12.7675559,87.7743056 10.7185292,90.2024854 C10.483794,90.4806652 10.519122,90.8963633 10.797036,91.1313231 C10.9202916,91.235837 11.0710246,91.287701 11.2217576,91.287701 C11.4093888,91.287701 11.5946647,91.2083333 11.724986,91.0527412 C14.0252343,88.3283077 14.3588881,85.7083882 14.6265962,83.6031798 C14.9209966,81.2881579 15.1376752,80.2383041 17.0642314,79.8823282 C21.4017304,80.1495066 24.5930305,79.358973 26.5517744,77.5217288 C26.7574621,77.3284174 26.9419531,77.1201754 27.1178082,76.9048611 C26.5776816,78.4733553 25.4707362,80.2540205 23.194825,82.1753472 C23.194825,82.1753472 23.1940399,82.1769189 23.1932548,82.1769189 C21.7518705,83.3925804 20.5303052,84.113962 19.4531923,84.751261 C17.4112313,85.9590643 15.9360891,86.8321089 15.4030281,89.8590826 C15.3402227,90.2182018 15.5804534,90.5600329 15.9384443,90.6228984 C15.9776977,90.6307566 16.0145959,90.6338999 16.0530642,90.6338999 C16.3670912,90.6338999 16.6450052,90.4083699 16.700745,90.0877558 C17.1278218,87.6580044 18.1923736,87.0301352 20.1236402,85.886769 C20.3002804,85.7822551 20.4894817,85.6706689 20.6810382,85.5551535 C20.2476808,86.5837902 20.0278619,87.6029971 19.8229592,88.5616959 C19.3519186,90.767489 18.9460386,92.670742 16.3443243,94.3775402 C16.0405031,94.5771382 15.9549307,94.9849781 16.1543379,95.2906615 C16.2807338,95.483973 16.491917,95.5884868 16.7062405,95.5884868 C16.8294961,95.5884868 16.955892,95.553125 17.0665866,95.4808297 C20.12207,93.4762061 20.6252984,91.1171784 21.1120404,88.8383041 C21.1677802,88.5758406 21.2227349,88.3180921 21.281615,88.0603436 C21.421357,88.7597222 21.6231194,89.4488852 21.8193864,90.1152595 C22.2527437,91.5855263 22.7002323,93.1068713 22.4482256,94.5402047 C22.3854202,94.8993238 22.6240807,95.241155 22.9828567,95.3040205 C23.021325,95.310307 23.0597933,95.3134503 23.0982616,95.3134503 C23.4115036,95.3134503 23.6902027,95.089492 23.7459425,94.7688779 C24.0521189,93.0298611 23.5590964,91.3584247 23.0825603,89.740424 C22.3555876,87.2729532 21.7267484,85.1394554 24.0442682,83.1835526 L24.0450533,83.1835526 C25.9873107,81.543549 27.1586317,79.9703399 27.8667628,78.5275768 C28.0151406,80.2540205 28.2153329,81.7737939 28.4202355,83.1395468 C28.8865657,86.2733918 28.1109188,87.2344481 27.2120163,88.3471674 C26.3107586,89.46303 25.2886005,90.7258406 25.4832973,93.9414108 C25.5044941,94.2911001 25.7949692,94.5614218 26.141184,94.5614218 C26.1545302,94.5614218 26.1678763,94.5614218 26.1812225,94.5598501 C26.5447088,94.538633 26.8210526,94.2250914 26.7990707,93.8612573 C26.6349916,91.1572551 27.4129937,90.1946272 28.2365297,89.1754203 C28.5458464,88.7935124 28.8598734,88.405318 29.1283666,87.9416849 C29.5326764,91.5760965 29.1629096,94.3665387 25.9778899,98.8480629 C25.7667067,99.1443165 25.8357927,99.5552997 26.1325483,99.7674708 C26.2487383,99.8507675 26.3814147,99.8884868 26.5140912,99.8884868 C26.7197789,99.8884868 26.9231114,99.7934028 27.0510775,99.6126645 C31.3862213,93.5131396 30.8602259,90.1734101 29.9864456,84.6436038 C29.6967556,82.8063596 29.3623168,80.6870066 29.1542738,78.1040205 C29.8773212,79.6127924 30.8594408,80.7420139 31.7795402,81.795011 C34.1025555,84.451864 36.1084034,86.744883 33.1589041,94.4097588 C33.0277978,94.7500183 33.1973724,95.1311404 33.5373067,95.2631579 C33.6142434,95.2922332 33.6943203,95.3071637 33.7736121,95.3071637 C34.0381799,95.3071637 34.2878315,95.1460709 34.3891052,94.8836075 C35.9113514,90.9254386 36.1704238,88.20572 35.7700393,86.1508041 C36.6760074,87.3326754 37.2687335,88.9349598 36.9476408,91.9603618 C36.9091725,92.3218385 37.1721702,92.6479532 37.5333013,92.6856725 C37.5568533,92.6872442 37.5796203,92.6888158 37.6031723,92.6888158 C37.936041,92.6888158 38.2210206,92.4389254 38.2571337,92.0994518 C38.3725387,91.0158077 38.3725387,90.0940424 38.2932468,89.2815058 C39.1379797,90.1490497 40.0596491,90.9560855 40.8298005,91.3906433 C40.9318593,91.4472222 41.0425539,91.4747259 41.1524634,91.4747259 C41.3824882,91.4747259 41.6062325,91.3537098 41.7271329,91.1391813 C41.9053433,90.8209247 41.7930786,90.4185855 41.4759112,90.2409905 C40.1075383,89.4693165 37.9501722,87.0882858 37.2184891,85.9221308 C37.2074982,85.904057 37.1949371,85.8899123 37.182376,85.8741959 C36.6273332,85.0042946 35.9466795,84.3552083 35.2974285,83.7430556 C34.8114716,83.28178 34.3529921,82.8495797 33.9596732,82.3395833 C33.9533926,82.332511 33.9455419,82.3262244 33.9392614,82.3199379 C33.5647841,81.8366594 33.1667548,81.3793129 32.7710807,80.9258955 C31.8132981,79.8320358 30.838244,78.7114583 30.1819274,77.178326 C31.5817031,78.404989 33.713947,78.8607639 36.0024193,79.1185124 C36.0094849,79.1200841 36.0157654,79.1216557 36.0244012,79.1224415 C39.2510294,79.4792032 39.7173596,81.8099415 40.2574862,84.508443 C40.4828006,85.635307 40.7159657,86.8030336 41.1799407,87.8175256 C41.2906353,88.0587719 41.5292958,88.2025768 41.7797324,88.2025768 C41.8715854,88.2025768 41.9642233,88.1829313 42.052936,88.1428545 C42.3842346,87.9911915 42.5294721,87.5998538 42.377954,87.2682383 C41.9791396,86.3936221 41.7703116,85.3508406 41.5497076,84.2491228 C41.4280221,83.6385417 41.2984859,83.0122442 41.1344068,82.3977339 C41.6886646,82.6853436 42.2680445,82.921875 42.8403589,83.1521199 C44.3523993,83.7595577 45.6579668,84.2844846 46.2145798,85.6408077 C46.3189938,85.8977705 46.56472,86.0510051 46.8245774,86.0510051 C46.9070095,86.0510051 46.9917968,86.0352887 47.0734439,86.0022844 C47.411023,85.8639803 47.5719619,85.4781433 47.43379,85.141027 C46.6659938,83.2684211 44.9710326,82.5855446 43.3310262,81.9270285 C42.0223184,81.40053 40.7858367,80.9031067 39.9960586,79.8351791 C39.8979252,79.7015899 39.791941,79.5727156 39.6804614,79.4485563 C43.816198,79.8257493 47.7878555,80.5392727 48.8924457,84.6192434 C48.9717376,84.9139254 49.2370904,85.1072368 49.5275655,85.1072368 C49.5848754,85.1072368 49.6421854,85.0993787 49.7010654,85.0844481 C50.0512056,84.9885782 50.2592486,84.6271016 50.1634703,84.2734832 C48.698534,78.8591923 43.2493792,78.4120614 38.4416246,78.0175804 C33.5082592,77.6144554 30.3444364,77.1673246 29.8898822,73.8346674 L55.6495234,73.8346674 C56.1346952,73.8346674 56.5280141,73.441758 56.5280141,72.9545504 C56.5280141,72.4697003 56.1346952,72.0752193 55.6495234,72.0752193" id="Fill-68" fill="#FFFFFF" sketch:type="MSShapeGroup"></path>
                </g>
                <path d="M98.08,63.48 L93.72,63.48 C93.04,66.36 91.08,68.36 87.92,68.36 C86.24,68.36 84.72,67.72 83.72,66.64 C82.32,65.12 82,63.48 82,57.76 C82,52.04 82.32,50.4 83.72,48.88 C84.72,47.8 86.24,47.16 87.92,47.16 C91.08,47.16 93,49.16 93.68,52.04 L98.08,52.04 C97.08,46.36 93.16,43.28 87.92,43.28 C84.96,43.28 82.4,44.36 80.44,46.32 C77.64,49.12 77.68,52.28 77.68,57.76 C77.68,63.24 77.64,66.4 80.44,69.2 C82.4,71.16 84.96,72.24 87.92,72.24 C93.08,72.24 97.12,69.16 98.08,63.48 L98.08,63.48 Z M122.62,72 L122.62,51.72 L118.62,51.72 L112.58,63.8 L106.5,51.72 L102.46,51.72 L102.46,72 L106.54,72 L106.54,59 L111.3,68.28 L113.86,68.28 L118.54,59 L118.54,72 L122.62,72 Z M144.36,63.08 L144.36,61.24 C144.36,55.28 141.04,51.48 135.8,51.48 C130.48,51.48 127.2,55.4 127.2,61.76 C127.2,68.64 130.32,72.24 136.4,72.24 C139.64,72.24 141.6,71.32 143.88,69.08 L141.32,66.64 C139.88,68.04 138.6,68.76 136.56,68.76 C132.76,68.76 131.32,66.48 131.24,63.08 L144.36,63.08 Z M140.36,60.2 L131.24,60.2 C131.32,57.4 132.52,54.88 135.8,54.88 C139.12,54.88 140.16,57.44 140.36,60.2 L140.36,60.2 Z M165.14,72 L165.14,51.72 L161.06,51.72 L161.06,59.8 L152.98,59.8 L152.98,51.72 L148.9,51.72 L148.9,72 L152.98,72 L152.98,63.36 L161.06,63.36 L161.06,72 L165.14,72 Z M187.56,72 L187.56,51.72 L183.48,51.72 L174.8,65.48 L174.8,51.72 L170.72,51.72 L170.72,72 L174.8,72 L183.48,58.04 L183.48,72 L187.56,72 Z M217.56,72 L217.56,51.72 L203.68,51.72 L203.68,60.16 C203.68,68 201.6,68.4 199.84,68.4 L199.2,68.4 L199.2,72 L201.12,72 C205.08,72 207.6,69.76 207.6,61.16 L207.6,55.28 L213.48,55.28 L213.48,72 L217.56,72 Z M239.1,61.76 C239.1,57.88 238.42,55.64 236.74,53.88 C235.22,52.32 233.1,51.48 230.66,51.48 C228.22,51.48 226.14,52.32 224.62,53.88 C222.9,55.68 222.22,57.88 222.22,61.84 C222.22,65.84 222.9,68.04 224.62,69.84 C226.14,71.4 228.22,72.24 230.66,72.24 C233.1,72.24 235.22,71.4 236.74,69.84 C238.46,68.04 239.1,65.84 239.1,61.76 L239.1,61.76 Z M235.06,61.92 C235.06,64.28 234.78,66.08 233.82,67.24 C233.1,68.08 232.02,68.6 230.66,68.6 C229.38,68.6 228.34,68.16 227.62,67.32 C226.7,66.28 226.3,64.68 226.3,62 C226.3,59.6 226.54,57.72 227.54,56.48 C228.26,55.64 229.3,55.12 230.66,55.12 C232.02,55.12 233.06,55.64 233.78,56.44 C234.82,57.6 235.06,59.4 235.06,61.92 L235.06,61.92 Z M257.08,55.28 L257.08,51.72 L243.92,51.72 L243.92,72 L248,72 L248,55.28 L257.08,55.28 Z M275.42,61.76 C275.42,57.88 274.74,55.64 273.06,53.88 C271.54,52.32 269.42,51.48 266.98,51.48 C264.54,51.48 262.46,52.32 260.94,53.88 C259.22,55.68 258.54,57.88 258.54,61.84 C258.54,65.84 259.22,68.04 260.94,69.84 C262.46,71.4 264.54,72.24 266.98,72.24 C269.42,72.24 271.54,71.4 273.06,69.84 C274.78,68.04 275.42,65.84 275.42,61.76 L275.42,61.76 Z M271.38,61.92 C271.38,64.28 271.1,66.08 270.14,67.24 C269.42,68.08 268.34,68.6 266.98,68.6 C265.7,68.6 264.66,68.16 263.94,67.32 C263.02,66.28 262.62,64.68 262.62,62 C262.62,59.6 262.86,57.72 263.86,56.48 C264.58,55.64 265.62,55.12 266.98,55.12 C268.34,55.12 269.38,55.64 270.1,56.44 C271.14,57.6 271.38,59.4 271.38,61.92 L271.38,61.92 Z M293.6,55.28 L293.6,51.72 L276.88,51.72 L276.88,55.28 L283.32,55.28 L283.32,72 L287.4,72 L287.4,55.28 L293.6,55.28 Z M313.22,72 L313.22,51.72 L309.14,51.72 L300.46,65.48 L300.46,51.72 L296.38,51.72 L296.38,72 L300.46,72 L309.14,58.04 L309.14,72 L313.22,72 Z M335.04,72 L335.04,51.72 L318.8,51.72 L318.8,72 L322.88,72 L322.88,55.28 L330.96,55.28 L330.96,72 L335.04,72 Z" id="Смени-логотип" fill="#FFFFFF" sketch:type="MSShapeGroup"></path>
                <path d="M82.252,20.984 L82.252,20.032 L75.42,20.032 L75.42,20.984 L78.304,20.984 L78.304,30 L79.368,30 L79.368,20.984 L82.252,20.984 Z M90.302,30 L90.302,29.048 L85.178,29.048 L85.178,25.45 L89.546,25.45 L89.546,24.498 L85.178,24.498 L85.178,20.984 L90.302,20.984 L90.302,20.032 L84.114,20.032 L84.114,30 L90.302,30 Z M99.36,30 L99.36,20.032 L92.514,20.032 L92.514,30 L93.578,30 L93.578,20.984 L98.296,20.984 L98.296,30 L99.36,30 Z M108.852,30 L108.852,20.032 L103.364,20.032 L103.364,24.078 C103.364,28.222 102.482,29.048 101.25,29.048 L100.984,29.048 L100.984,30 L101.488,30 C103.392,30 104.4,28.6 104.4,24.4 L104.4,20.984 L107.788,20.984 L107.788,30 L108.852,30 Z M118.876,30 L118.876,20.032 L117.868,20.032 L112.8,28.152 L112.8,20.032 L111.736,20.032 L111.736,30 L112.744,30 L117.812,21.866 L117.812,30 L118.876,30 Z M129.796,32.408 L129.796,29.048 L128.606,29.048 L128.606,20.032 L127.542,20.032 L127.542,29.048 L122.824,29.048 L122.824,20.032 L121.76,20.032 L121.76,30 L128.746,30 L128.746,32.408 L129.796,32.408 Z M138.756,30 L135.102,20.032 L134.206,20.032 L130.538,30 L131.672,30 L132.47,27.746 L136.824,27.746 L137.622,30 L138.756,30 Z M136.516,26.822 L132.792,26.822 L134.668,21.558 L136.516,26.822 Z M150.698,30 L150.698,20.032 L143.852,20.032 L143.852,30 L144.916,30 L144.916,20.984 L149.634,20.984 L149.634,30 L150.698,30 Z M160.386,22.958 C160.386,21.208 159.154,20.032 157.306,20.032 L153.596,20.032 L153.596,30 L154.66,30 L154.66,25.898 L157.306,25.898 C159.154,25.898 160.386,24.722 160.386,22.958 L160.386,22.958 Z M159.322,22.958 C159.322,24.204 158.538,24.946 157.208,24.946 L154.66,24.946 L154.66,20.984 L157.208,20.984 C158.538,20.984 159.322,21.712 159.322,22.958 L159.322,22.958 Z M168.604,30 L168.604,29.048 L163.48,29.048 L163.48,25.45 L167.848,25.45 L167.848,24.498 L163.48,24.498 L163.48,20.984 L168.604,20.984 L168.604,20.032 L162.416,20.032 L162.416,30 L168.604,30 Z M169.738,29.048 L169.738,32.408 L170.788,32.408 L170.788,30 L177.466,30 L177.466,32.408 L178.516,32.408 L178.516,29.048 L177.326,29.048 L177.326,20.032 L171.88,20.032 L171.88,23.392 C171.88,25.828 171.53,27.62 170.62,29.048 L169.738,29.048 Z M171.81,29.048 C172.608,27.648 172.888,25.898 172.888,24.05 L172.888,20.984 L176.262,20.984 L176.262,29.048 L171.81,29.048 Z M186.608,20.032 L185.474,20.032 L183.052,25.926 L180.364,20.032 L179.23,20.032 L182.52,27.116 L182.114,28.054 C181.82,28.74 181.484,29.048 180.798,29.048 L180.168,29.048 L180.168,30 L181.036,30 C182.03,30 182.604,29.356 182.996,28.446 L186.608,20.032 Z M195.022,30 L195.022,20.032 L188.176,20.032 L188.176,30 L189.24,30 L189.24,20.984 L193.958,20.984 L193.958,30 L195.022,30 Z M204.71,22.958 C204.71,21.208 203.478,20.032 201.63,20.032 L197.92,20.032 L197.92,30 L198.984,30 L198.984,25.898 L201.63,25.898 C203.478,25.898 204.71,24.722 204.71,22.958 L204.71,22.958 Z M203.646,22.958 C203.646,24.204 202.862,24.946 201.532,24.946 L198.984,24.946 L198.984,20.984 L201.532,20.984 C202.862,20.984 203.646,21.712 203.646,22.958 L203.646,22.958 Z M212.928,30 L212.928,29.048 L207.804,29.048 L207.804,25.45 L212.172,25.45 L212.172,24.498 L207.804,24.498 L207.804,20.984 L212.928,20.984 L212.928,20.032 L206.74,20.032 L206.74,30 L212.928,30 Z M215.084,30 L219.466,24.806 L219.466,30 L220.53,30 L220.53,24.806 L224.912,30 L226.312,30 L221.748,24.764 L225.934,20.032 L224.59,20.032 L220.53,24.778 L220.53,20.032 L219.466,20.032 L219.466,24.778 L215.392,20.032 L214.048,20.032 L218.248,24.764 L213.684,30 L215.084,30 Z M226.662,29.048 L226.662,32.408 L227.712,32.408 L227.712,30 L234.39,30 L234.39,32.408 L235.44,32.408 L235.44,29.048 L234.25,29.048 L234.25,20.032 L228.804,20.032 L228.804,23.392 C228.804,25.828 228.454,27.62 227.544,29.048 L226.662,29.048 Z M228.734,29.048 C229.532,27.648 229.812,25.898 229.812,24.05 L229.812,20.984 L233.186,20.984 L233.186,29.048 L228.734,29.048 Z M244.4,30 L240.746,20.032 L239.85,20.032 L236.182,30 L237.316,30 L238.114,27.746 L242.468,27.746 L243.266,30 L244.4,30 Z M242.16,26.822 L238.436,26.822 L240.312,21.558 L242.16,26.822 Z M252.198,30 L252.198,29.048 L247.074,29.048 L247.074,25.45 L251.442,25.45 L251.442,24.498 L247.074,24.498 L247.074,20.984 L252.198,20.984 L252.198,20.032 L246.01,20.032 L246.01,30 L252.198,30 Z M260.22,20.984 L260.22,20.032 L253.388,20.032 L253.388,20.984 L256.272,20.984 L256.272,30 L257.336,30 L257.336,20.984 L260.22,20.984 Z" id="ТЕПЛИЦА-ПРЕДУПРЕЖДАЕ" fill="#FFFFFF" sketch:type="MSShapeGroup"></path>
            </g>
        </g>
    </g>
</svg>