<?xml version="1.0" encoding="UTF-8" standalone="no"?>
<svg width="138px" height="42px" viewBox="0 0 138 42" version="1.1" xmlns="http://www.w3.org/2000/svg" xmlns:xlink="http://www.w3.org/1999/xlink" xmlns:sketch="http://www.bohemiancoding.com/sketch/ns">
    <!-- Generator: Sketch 3.4 (15575) - http://www.bohemiancoding.com/sketch -->
    <title>Fill 1 + Fill 4 + Fill 6 + Fill 8 + Fill 11</title>
    <desc>Created with Sketch.</desc>
    <defs></defs>
    <g id="Page-2" stroke="none" stroke-width="1" fill="none" fill-rule="evenodd" sketch:type="MSPage">
        <g id="Artboard-2" sketch:type="MSArtboardGroup" transform="translate(-148.000000, -273.000000)">
            <g id="Fill-1-+-Fill-4-+-Fill-6-+-Fill-8-+-Fill-11" sketch:type="MSLayerGroup" transform="translate(148.000000, 273.000000)">
                <path d="M129.223855,28.1514369 L130.199871,35.8493908 C129.809917,36.3789138 129.455502,36.8286369 129.143086,37.2008215 C128.82744,37.5768831 128.543778,37.87476 128.29404,38.1025292 C128.044948,38.3273908 127.831071,38.49216 127.655963,38.5936062 C127.479563,38.6992523 127.313825,38.7719446 127.156809,38.8149138 C126.998502,38.8591754 126.810148,38.8808215 126.592394,38.8808215 C126.391763,38.8808215 126.241855,38.8149138 126.140732,38.6782523 C126.037348,38.5402985 125.982425,38.3551754 125.974994,38.1235292 L125.175378,38.1235292 L124.733409,40.04616 C124.898825,40.1059292 125.094286,40.1543908 125.327225,40.1938062 C125.560486,40.2322523 125.771778,40.2493754 125.953994,40.2493754 C126.312609,40.2493754 126.648932,40.2073754 126.96684,40.1233754 C127.287332,40.0354985 127.612671,39.8920523 127.953517,39.68916 C128.29404,39.4888523 128.665255,39.1906523 129.069748,38.8006985 C129.588286,38.2886215 130.233794,37.5271292 131.002071,36.5200985 C132.001994,35.2106677 132.910809,33.9480831 133.732717,32.7378369 C134.549455,31.5240369 135.242132,30.4045754 135.806871,29.3830062 C136.376455,28.3620831 136.837486,27.3763754 137.198363,26.4258831 L136.921809,25.9099292 L134.268702,25.9099292 L134.167578,26.4148985 C134.497763,26.4362215 134.729086,26.5018062 134.865102,26.6184369 C135.003055,26.7376523 135.07284,26.9554062 135.07284,27.2775138 C135.07284,28.6467138 133.915255,30.9166523 131.598471,34.0808677 L130.815332,25.9099292 L128.174502,25.9099292 L128.062717,26.4148985 C128.371902,26.4362215 128.591271,26.4988985 128.727609,26.6048677 C128.866855,26.7098677 128.967978,26.8642985 129.026132,27.0665446 C129.090425,27.2668523 129.153425,27.6293446 129.223855,28.1514369 L129.223855,28.1514369 Z M118.89864,25.9099292 L121.944286,25.9099292 L121.461286,27.8005754 C121.358548,28.2118523 121.277455,28.5862985 121.225763,28.9229446 C121.169871,29.2570062 121.14144,29.5552062 121.14144,29.8139908 C121.14144,29.96616 121.15824,30.1134831 121.194102,30.2566062 C121.228025,30.4003754 121.281978,30.5308985 121.358548,30.6433292 C121.431563,30.7589908 121.534948,30.8462215 121.667732,30.9130985 C121.797932,30.9760985 121.959148,31.00776 122.147825,31.00776 C122.407578,31.00776 122.673471,30.9269908 122.945178,30.7628677 C123.214302,30.5974523 123.498286,30.3619292 123.794548,30.0533908 C124.176748,29.6644062 124.48464,29.2463446 124.721132,28.8079292 C124.95084,28.3695138 125.12304,27.9055754 125.232563,27.4109446 L125.572763,25.9099292 L127.330625,25.9099292 L125.786317,32.9517138 C125.642871,33.61176 125.572763,34.0950831 125.572763,34.4110523 C125.572763,34.7128062 125.664194,34.9163446 125.850932,35.0213446 C126.03444,35.1302215 126.323271,35.2003292 126.713225,35.2323138 L126.600794,35.7376062 L123.414932,35.7376062 L124.799963,30.0323908 L124.688178,29.9897446 C124.446194,30.3050677 124.193548,30.6013292 123.923132,30.8743292 C123.649163,31.1479754 123.377455,31.3838215 123.095086,31.5796062 C122.813686,31.7753908 122.529702,31.9301446 122.24604,32.0428985 C121.962055,32.1553292 121.681302,32.2115446 121.407655,32.2115446 C121.010271,32.2115446 120.681702,32.1517754 120.418071,32.0254523 C120.152178,31.90236 119.944117,31.7411446 119.790978,31.5376062 C119.634932,31.3372985 119.527348,31.1053292 119.468225,30.8426677 C119.404902,30.5832369 119.373563,30.3124985 119.373563,30.0323908 C119.373563,29.84016 119.393271,29.6220831 119.429455,29.3755754 C119.468225,29.1271292 119.509578,28.89516 119.559009,28.6751446 C119.580009,28.5585138 119.60424,28.4357446 119.627825,28.3094215 C119.657548,28.1837446 119.685978,28.0596831 119.705686,27.9336831 C119.729271,27.8112369 119.752209,27.6955754 119.765132,27.5896062 C119.775471,27.4852523 119.783548,27.3980215 119.783548,27.3308215 C119.783548,27.1834985 119.768363,27.0610523 119.736702,26.9586369 C119.705686,26.8568677 119.653025,26.7696369 119.580009,26.6956523 C119.502148,26.6248985 119.404902,26.5660985 119.281486,26.5237754 C119.158394,26.4778985 119.000086,26.4455908 118.809148,26.4258831 L118.89864,25.9099292 Z M111.828425,30.43236 C112.458748,30.4258985 113.013148,30.39036 113.487102,30.3267138 C113.963963,30.2604831 114.374917,30.1729292 114.713825,30.0562985 C115.057578,29.9445138 115.341563,29.8117292 115.571594,29.6530985 C115.796132,29.49576 115.97544,29.3200062 116.108225,29.13456 C116.241332,28.9445908 116.335671,28.7449292 116.384778,28.5371908 C116.436794,28.3275138 116.46264,28.1091138 116.46264,27.8852215 C116.46264,27.4681292 116.367009,27.1369754 116.170902,26.9033908 C115.97544,26.6678677 115.686932,26.5483292 115.301178,26.5483292 C114.822702,26.5483292 114.349071,26.7202062 113.889009,27.0665446 C113.42604,27.4109446 113.020902,27.8784369 112.665194,28.4635292 C112.310778,29.0492677 112.034548,29.7051138 111.828425,30.43236 L111.828425,30.43236 Z M117.296502,33.6918831 C116.789917,34.2462831 116.304009,34.6843754 115.836517,35.0071292 C115.371286,35.3311754 114.903794,35.5589446 114.437271,35.69496 C113.974302,35.8316215 113.459963,35.9020523 112.896517,35.9020523 C112.357302,35.9020523 111.891102,35.8144985 111.497594,35.6387446 C111.108286,35.4642831 110.785209,35.2255292 110.52804,34.9202215 C110.269578,34.6145908 110.079609,34.2533908 109.957163,33.8324215 C109.834717,33.4075754 109.771717,32.9517138 109.771717,32.4564369 C109.771717,31.7236985 109.904502,30.9376523 110.166194,30.0992677 C110.430794,29.2599138 110.831409,28.5061754 111.364809,27.8396677 C111.90144,27.1699292 112.537902,26.6533292 113.286794,26.2840523 C114.033748,25.9202677 114.830778,25.7344985 115.672071,25.7344985 C116.501086,25.7344985 117.121394,25.9028215 117.538809,26.2397908 C117.954286,26.5761138 118.160409,27.0988523 118.160409,27.8112369 C118.160409,28.9762523 117.613117,29.8495292 116.522409,30.43236 C115.426855,31.0145446 113.806625,31.30596 111.651378,31.30596 C111.571255,31.7162677 111.528932,32.1621138 111.528932,32.6425292 C111.528932,33.3626677 111.669471,33.8844369 111.948932,34.2110677 C112.230655,34.5373754 112.690394,34.6985908 113.328794,34.6985908 C113.95944,34.6985908 114.531286,34.5619292 115.044009,34.2886062 C115.559963,34.01496 116.097886,33.5936677 116.658102,33.0256985 L117.296502,33.6918831 Z M102.156148,32.15856 C102.085717,32.52396 102.042425,32.8008369 102.024655,32.9940369 C102.008502,33.1830369 102.000748,33.3730062 102.000748,33.5584523 C102.000748,34.0924985 102.112855,34.4818062 102.344178,34.7234677 C102.572917,34.9690062 102.969332,35.0885446 103.53084,35.0885446 C103.881055,35.0885446 104.205102,35.0213446 104.496194,34.8850062 C104.789225,34.7483446 105.069978,34.5477138 105.334902,34.2886062 C105.596271,34.0291754 105.835348,33.71256 106.05084,33.3413446 C106.261163,32.9727138 106.453071,32.5414062 106.618486,32.0538831 C106.787455,31.56216 106.912809,31.0610677 107.001332,30.5405908 C107.085009,30.0246369 107.127009,29.53776 107.127009,29.0848062 C107.127009,28.36596 107.027825,27.8328831 106.824286,27.4778215 C106.621717,27.1234062 106.303163,26.9476523 105.864102,26.9476523 C105.517117,26.9476523 105.170132,27.0665446 104.832517,27.3020677 C104.491671,27.5414677 104.119486,27.9162369 103.717578,28.4392985 C103.312763,28.9588062 102.997117,29.47476 102.769025,29.9797292 C102.544486,30.4882523 102.365178,31.07076 102.235302,31.7272523 L102.156148,32.15856 Z M100.920055,37.5587908 C100.850271,37.8841292 100.807948,38.1406523 100.790178,38.3164062 C100.772409,38.4957138 100.765948,38.6427138 100.765948,38.7583754 C100.765948,38.9657908 100.800517,39.1273292 100.868363,39.2426677 C100.936532,39.3589754 101.042178,39.4500831 101.185948,39.5098523 C101.331332,39.5722062 101.568794,39.6187292 101.895748,39.6539446 L101.813363,40.1579446 L98.6394554,40.1579446 L101.239902,28.7268369 C101.370102,28.1514369 101.432778,27.6571292 101.432778,27.2458523 C101.432778,27.0536215 101.404348,26.9062985 101.347486,26.8000062 C101.287717,26.6917754 101.191117,26.61456 101.049932,26.5625446 C100.909394,26.5134369 100.671932,26.4746677 100.334317,26.4530215 L100.456763,25.9099292 L102.790025,25.8178523 L103.37544,25.8178523 L102.689871,28.4926062 L102.810378,28.5310523 C104.078132,26.6736831 105.340717,25.74516 106.592963,25.74516 C107.34024,25.74516 107.923394,26.0288215 108.337255,26.6016369 C108.75144,27.1699292 108.959178,27.9685754 108.959178,29.00436 C108.959178,29.7442062 108.855794,30.4882523 108.656778,31.2358523 C108.453886,31.9834523 108.172486,32.6567446 107.811609,33.2602523 C107.452671,33.8634369 107.053348,34.35936 106.611055,34.7444677 C106.169086,35.1340985 105.702563,35.4222831 105.210517,35.61516 C104.718794,35.80836 104.205102,35.9020523 103.663948,35.9020523 C102.752548,35.9020523 101.99784,35.7030369 101.393686,35.3059754 L100.920055,37.5587908 Z M92.6664092,27.9236677 C92.6664092,27.2187138 92.49324,26.67756 92.1491631,26.3060215 C91.8054092,25.9344831 91.3078708,25.74516 90.6484708,25.74516 C90.0120092,25.74516 89.3800708,25.9726062 88.7565323,26.4291138 C88.1352554,26.8852985 87.5075169,27.5828215 86.8749323,28.5194215 L86.7524862,28.4812985 L87.4296554,25.8178523 L86.8558708,25.8178523 L84.5109785,25.9099292 L84.3885323,26.4530215 C84.7261477,26.4746677 84.9642554,26.5134369 85.1044708,26.5625446 C85.2450092,26.61456 85.3419323,26.6917754 85.4029938,26.8000062 C85.45824,26.9062985 85.4899015,27.0536215 85.4899015,27.2458523 C85.4899015,27.4532677 85.45824,27.7094677 85.4029938,28.0186523 C85.3419323,28.3275138 85.2967015,28.5585138 85.2627785,28.7164985 L83.7007015,35.7376062 L85.47924,35.7376062 L86.41164,31.2846369 C86.5360246,30.6711138 86.7124246,30.1380369 86.9317938,29.6879908 C87.1563323,29.23956 87.4519477,28.7833754 87.8231631,28.3168523 C88.1921169,27.8500062 88.5426554,27.5062523 88.8760708,27.2813908 C89.2094862,27.0610523 89.51124,26.9476523 89.7852092,26.9476523 C90.1554554,26.9476523 90.4274862,27.0536215 90.6025938,27.2600677 C90.7770554,27.4710369 90.8652554,27.8215754 90.8652554,28.3168523 C90.8652554,28.5333138 90.8403785,28.7975908 90.7893323,29.1022523 C90.7357015,29.4078831 90.63684,29.8786062 90.4930708,30.5166831 L89.31384,35.7376062 L91.0894708,35.7376062 L92.0280092,31.2465138 C92.1640246,30.6074677 92.3465631,30.0679292 92.5778862,29.6253138 C92.8066246,29.1839908 93.1038554,28.7374985 93.4657015,28.2848677 C93.8304554,27.8328831 94.1787323,27.4952677 94.5073015,27.2775138 C94.8403938,27.0571754 95.1424708,26.9476523 95.4086862,26.9476523 C95.77764,26.9476523 96.0483785,27.0536215 96.2202554,27.2600677 C96.3921323,27.4710369 96.4758092,27.8215754 96.4758092,28.3168523 C96.4758092,28.6324985 96.4415631,28.9830369 96.3708092,29.3687908 C96.2961785,29.7555138 96.2125015,30.1380369 96.1188092,30.5166831 L94.82424,35.7376062 L98.0527477,35.7376062 L98.1435323,35.2323138 C97.8133477,35.2003292 97.5787938,35.1518677 97.4337323,35.0885446 C97.2899631,35.0287754 97.1856092,34.9379908 97.1148554,34.8216831 C97.0479785,34.7053754 97.01244,34.54416 97.01244,34.3412677 C97.01244,34.0534062 97.0686554,33.6602215 97.1885169,33.1694677 L98.0527477,29.5099754 C98.18844,28.8916062 98.2553169,28.3620831 98.2553169,27.9236677 C98.2553169,27.2044985 98.0863477,26.6639908 97.7455015,26.2956831 C97.4098246,25.9306062 96.9151938,25.74516 96.2622554,25.74516 C95.6312862,25.74516 95.0200246,25.9470831 94.4313785,26.3518985 C93.8437015,26.7554215 93.2505323,27.3799292 92.6557477,28.2225138 C92.6618862,28.1688831 92.6664092,28.1168677 92.6664092,28.0671138 L92.6664092,27.9236677 Z M82.1454092,28.3756523 C82.1305477,27.85776 82.0888708,27.4778215 82.0181169,27.2458523 C81.9431631,27.0145292 81.8281477,26.8394215 81.6669323,26.7240831 C81.5053938,26.6048677 81.2773015,26.5483292 80.9829785,26.5483292 C80.29224,26.5483292 79.67064,26.8219754 79.1201169,27.3763754 C78.56604,27.9272215 78.1159938,28.7100369 77.7648092,29.7199754 C77.4184708,30.73056 77.2420708,31.7026985 77.2420708,32.6321908 C77.2420708,32.9206985 77.2675938,33.1907908 77.3196092,33.4463446 C77.3683938,33.6996369 77.4601477,33.9173908 77.5855015,34.1028369 C77.7127938,34.2886062 77.8817631,34.4317292 78.0924092,34.5412523 C78.2985323,34.6462523 78.56604,34.6985908 78.8887938,34.6985908 C79.5091015,34.6985908 80.0502554,34.5793754 80.5061169,34.3438523 C80.9616554,34.1092985 81.4411015,33.73776 81.95124,33.2282677 L82.5757477,33.8572985 C81.9347631,34.5690369 81.2847323,35.0885446 80.6285631,35.4184062 C79.9765938,35.7482677 79.2713169,35.91336 78.5166092,35.91336 C77.5231477,35.91336 76.7690862,35.6183908 76.2566862,35.0287754 C75.7413785,34.43916 75.4845323,33.58236 75.4845323,32.4564369 C75.4845323,31.7236985 75.6221631,30.9205292 75.8954862,30.0427292 C76.1684862,29.1662215 76.5694246,28.3930985 77.0986246,27.7301446 C77.6242708,27.0642831 78.2432862,26.5686831 78.9485631,26.2397908 C79.6528708,25.9099292 80.4069323,25.74516 81.2110708,25.74516 C81.7583631,25.74516 82.2352246,25.7764985 82.6426246,25.8394985 C83.0526092,25.8989446 83.4138092,25.9726062 83.7307477,26.0536985 L83.2257785,28.3756523 L82.1454092,28.3756523 Z M71.6586554,26.5589908 C71.2124862,26.5589908 70.8021785,26.6597908 70.4225631,26.8607446 C70.0477938,27.0642831 69.7079169,27.3337292 69.4022862,27.6742523 C69.0973015,28.0115446 68.8314092,28.40796 68.6055785,28.8599446 C68.3774862,29.3128985 68.1955938,29.7936369 68.0508554,30.2995754 L68.7903785,30.2995754 C69.6132554,30.2995754 70.3043169,30.23916 70.8622708,30.1134831 C71.4192554,29.9897446 71.8696246,29.8223908 72.2127323,29.6110985 C72.5568092,29.3972215 72.8023477,29.1549138 72.9496708,28.87416 C73.0966708,28.5972831 73.1713015,28.3058677 73.1713015,27.9973292 C73.1713015,27.8328831 73.1454554,27.6639138 73.0966708,27.4920369 C73.0482092,27.3237138 72.9671169,27.1699292 72.8543631,27.0319754 C72.7422554,26.8920831 72.5881477,26.7796523 72.39204,26.6917754 C72.1978708,26.6016369 71.9533015,26.5589908 71.6586554,26.5589908 L71.6586554,26.5589908 Z M72.2653938,32.9093908 C72.2653938,32.2816523 72.0544246,31.8286985 71.6376554,31.5556985 C71.2189477,31.2784985 70.6267477,31.1405446 69.8578246,31.1405446 L67.8647631,31.1405446 C67.8369785,31.2749446 67.8095169,31.41516 67.7807631,31.5653908 C67.7565323,31.7162677 67.7323015,31.8635908 67.7100092,32.0151138 C67.6893323,32.1653446 67.6760862,32.3133138 67.6657477,32.4532062 C67.6550862,32.5943908 67.6476554,32.7194215 67.6476554,32.8286215 C67.6476554,33.2602523 67.6935323,33.6214523 67.7775323,33.9135138 C67.8618554,34.2033138 67.9885015,34.4352831 68.1461631,34.6110369 C68.3070554,34.7864677 68.5083323,34.9127908 68.7496708,34.9870985 C68.9877785,35.0636677 69.2620708,35.0995292 69.5712554,35.0995292 C69.8940092,35.0995292 70.2157938,35.0636677 70.5395169,34.9870985 C70.8587169,34.9127908 71.1491631,34.7903446 71.4063323,34.6220215 C71.6618862,34.4533754 71.8696246,34.2288369 72.0272862,33.9480831 C72.1849477,33.6679754 72.2653938,33.3235754 72.2653938,32.9093908 L72.2653938,32.9093908 Z M74.90784,27.9130062 C74.90784,28.5585138 74.6548708,29.0957908 74.1489323,29.5267754 C73.6475169,29.9626062 72.9638862,30.2921446 72.1006246,30.5270215 L72.1006246,30.6391292 C72.6963785,30.7764369 73.1638708,31.0358677 73.49664,31.41516 C73.8336092,31.7928369 74.0016092,32.2522523 74.0016092,32.7862985 C74.0016092,33.2188985 73.90404,33.6214523 73.7043785,34.0010677 C73.5040708,34.3758369 73.2158862,34.7053754 72.84144,34.9870985 C72.4615015,35.2672062 71.9995015,35.4927138 71.4476862,35.6558677 C70.8961938,35.8180523 70.2661938,35.9020523 69.5602708,35.9020523 C68.8685631,35.9020523 68.2902554,35.8144985 67.8240554,35.6468215 C67.3559169,35.4749446 66.9843785,35.2361908 66.7045938,34.93056 C66.4235169,34.6258985 66.2228862,34.2640523 66.10044,33.8466369 C65.9812246,33.4285754 65.9211323,32.96916 65.9211323,32.4670985 C65.9211323,32.15856 65.9463323,31.8461446 65.9947938,31.5269446 C66.0409938,31.2080677 66.1036708,30.8885446 66.1776554,30.5657908 C66.3711785,29.73096 66.6658246,29.0114677 67.0583631,28.4040831 C67.4518708,27.7970215 67.9074092,27.2952831 68.4262708,26.9033908 C68.9425477,26.50956 69.5037323,26.2181446 70.10724,26.0288215 C70.7081631,25.8394985 71.3116708,25.74516 71.9158246,25.74516 C72.4763631,25.74516 72.9496708,25.8016985 73.3296092,25.9099292 C73.7072862,26.0178369 74.0151785,26.16936 74.24844,26.3622369 C74.4829938,26.5551138 74.6480862,26.7828831 74.7530862,27.0500677 C74.8551785,27.32016 74.90784,27.6076985 74.90784,27.9130062 L74.90784,27.9130062 Z M62.57244,29.4783138 C62.6318862,29.1969138 62.6738862,28.9520215 62.6952092,28.7471908 C62.7158862,28.5413908 62.7271938,28.3207292 62.7271938,28.0774523 C62.7271938,27.5446985 62.6108862,27.1550677 62.3869938,26.9134062 C62.1582554,26.6714215 61.7834862,26.5483292 61.2565477,26.5483292 C60.9690092,26.5483292 60.6914862,26.5942062 60.4323785,26.6849908 C60.1719785,26.7796523 59.9093169,26.9347292 59.6424554,27.14796 C59.3723631,27.3650677 59.12004,27.6464677 58.8735323,27.9973292 C58.6315477,28.3485138 58.41024,28.7727138 58.2112246,29.2712215 C58.0144708,29.7726369 57.8597169,30.3086215 57.7511631,30.8814369 C57.6390554,31.4542523 57.58704,32.00736 57.58704,32.5517446 C57.58704,33.2634831 57.6810554,33.7975292 57.8784554,34.1483908 C58.0739169,34.5015138 58.3995785,34.6782369 58.8602862,34.6782369 C59.0706092,34.6782369 59.2919169,34.6326831 59.5238862,34.5347908 C59.7506862,34.43916 60.0081785,34.2640523 60.28764,34.0049446 C60.5687169,33.7477754 60.8879169,33.3691292 61.2455631,32.8712677 C61.5650862,32.4118523 61.8212862,31.9543754 62.0102862,31.5062677 C62.2002554,31.0571908 62.3550092,30.5308985 62.4774554,29.9196369 L62.57244,29.4783138 Z M63.4741477,26.4148985 L64.4207631,25.7344985 L65.0769323,25.8989446 L63.5058092,32.8812831 C63.4105015,33.2919138 63.3442708,33.6078831 63.3090554,33.8324215 C63.2773938,34.0534062 63.2605938,34.2356215 63.2605938,34.3790677 C63.2605938,34.6611138 63.3374862,34.8640062 63.4945015,34.9942062 C63.6528092,35.1205292 63.9548862,35.2003292 64.3997631,35.2323138 L64.3089785,35.7376062 L61.3680092,35.7376062 L62.0148092,33.1584831 L61.8807323,33.1164831 C61.2252092,34.0750523 60.6003785,34.7800062 60.01044,35.2255292 C59.4205015,35.6671754 58.79664,35.8917138 58.1404708,35.8917138 C57.3867323,35.8917138 56.8035785,35.6077292 56.3861631,35.0387908 C55.9729477,34.4711446 55.7652092,33.6712062 55.7652092,32.6425292 C55.7652092,31.9866831 55.8427477,31.3266369 55.9936246,30.6636831 C56.1445015,30.0033138 56.3687169,29.3755754 56.6737015,28.7833754 C56.9786862,28.1908523 57.3447323,27.6671446 57.7682862,27.21516 C58.1937785,26.76156 58.6884092,26.40456 59.2457169,26.1383446 C59.8039938,25.8676062 60.4107323,25.7344985 61.0704554,25.7344985 C61.4946554,25.7344985 61.8985015,25.78716 62.2842554,25.8847292 C62.6664554,25.9832677 63.0628708,26.1619292 63.4741477,26.4148985 L63.4741477,26.4148985 Z M48.2821015,30.1554831 L52.2087785,30.1554831 L53.1314862,25.9099292 L54.9119631,25.9099292 L53.2978708,33.1694677 C53.24424,33.4285754 53.1990092,33.6531138 53.1705785,33.8466369 C53.1395631,34.0388677 53.1217938,34.2000831 53.1217938,34.3412677 C53.1217938,34.5089446 53.1463477,34.6498062 53.1944862,34.7551292 C53.24424,34.8601292 53.3140246,34.9480062 53.4093323,35.0110062 C53.5069015,35.0778831 53.6261169,35.1266677 53.7747323,35.1557446 C53.9223785,35.18676 54.09264,35.2145446 54.2822862,35.2323138 L54.1915015,35.7376062 L51.00564,35.7376062 L52.0123477,31.07076 L48.08664,31.07076 L47.0792862,35.7376062 L45.3004246,35.7376062 L46.8822092,28.8079292 C46.9675015,28.4464062 47.0266246,28.1410985 47.0615169,27.8958831 C47.1002862,27.6464677 47.1183785,27.4390523 47.1183785,27.2668523 C47.1183785,27.1091908 47.1002862,26.9793138 47.0615169,26.8778677 C47.0266246,26.7722215 46.9636246,26.6917754 46.8734862,26.6362062 C46.7849631,26.5761138 46.6680092,26.5334677 46.5258554,26.5056831 C46.3811169,26.4778985 46.2056862,26.4610985 45.9989169,26.4530215 L46.1110246,25.9099292 L48.6203631,25.8178523 L49.2271015,25.8178523 L48.2821015,30.1554831 Z" id="Fill-1" fill="#0089C5" sketch:type="MSShapeGroup"></path>
                <path d="M76.9052631,21.0692031 C75.2288169,22.5068954 73.6438015,23.2263877 72.1608785,23.2263877 C71.3367092,23.2263877 70.6840938,23.0338338 70.1965708,22.6513108 C69.71034,22.2652338 69.46674,21.7609108 69.46674,21.1292954 C69.46674,20.3823415 69.7726938,19.77108 70.38234,19.2913108 C70.9919862,18.8115415 71.9182477,18.3417877 73.1675862,17.8820492 C74.1242169,17.5418492 74.8614785,17.1809723 75.3690323,16.79748 C75.8817554,16.4191569 76.1327862,15.9636185 76.1327862,15.4269877 C76.1327862,14.61348 75.6559246,14.2064031 74.6967092,14.2064031 C73.7749708,14.2064031 72.7143092,14.6900492 71.5228015,15.6654185 L70.8627554,14.8935877 C71.7082477,14.2167415 72.4552015,13.7431108 73.1094323,13.4772185 C73.7636631,13.2071262 74.4889708,13.0733723 75.2814785,13.0733723 C76.0852938,13.0733723 76.7204631,13.2552646 77.1928015,13.61388 C77.6664323,13.9744338 77.9006631,14.4532338 77.9006631,15.0486646 C77.9006631,15.7881877 77.6170015,16.4120492 77.0490323,16.9173415 C76.4810631,17.4265108 75.48534,17.9379415 74.06154,18.45648 C73.0402938,18.8222031 72.3075554,19.1863108 71.8659092,19.5549415 C71.4249092,19.9193723 71.2029554,20.3581108 71.2029554,20.8734185 C71.2029554,21.69468 71.6481554,22.1075723 72.5385554,22.1075723 C73.0335092,22.1075723 73.6221554,21.9392492 74.3096631,21.6061569 C75.0020169,21.2766185 75.6536631,20.8307723 76.2678323,20.2779877 L76.9052631,21.0692031 Z M66.6844015,16.8049108 C66.7448169,16.5260954 66.7868169,16.2786185 66.8065246,16.0757262 C66.8281708,15.8689569 66.8388323,15.6479723 66.8388323,15.4056646 C66.8388323,14.8729108 66.7231708,14.48328 66.4979862,14.2416185 C66.27054,13.9989877 65.8957708,13.8768646 65.3688323,13.8768646 C65.0812938,13.8768646 64.8050631,13.9224185 64.5453092,14.0135262 C64.2849092,14.1085108 64.0225708,14.2632646 63.7560323,14.4768185 C63.48594,14.6939262 63.2336169,14.9737108 62.9874323,15.3252185 C62.7457708,15.6764031 62.5244631,16.1006031 62.3257708,16.5981415 C62.1286938,17.09988 61.9745862,17.6358646 61.8657092,18.2073877 C61.7532785,18.7785877 61.7012631,19.3329877 61.7012631,19.8767262 C61.7012631,20.59008 61.7952785,21.1225108 61.9920323,21.4730492 C62.1884631,21.8261723 62.5138015,22.0019262 62.9738631,22.0019262 C63.1848323,22.0019262 63.4048477,21.9573415 63.6361708,21.85848 C63.8649092,21.7641415 64.1204631,21.5890338 64.4005708,21.3299262 C64.6806785,21.07308 65.0008477,20.6941108 65.3578477,20.1968954 C65.6773708,19.7368338 65.9342169,19.2809723 66.1232169,18.8325415 C66.3118938,18.3831415 66.4666477,17.8574954 66.58974,17.2472031 L66.6844015,16.8049108 Z M67.5857862,13.7431108 L68.5320785,13.0630338 L69.1885708,13.2281262 L67.6174477,20.20788 C67.52214,20.6168954 67.4552631,20.9331877 67.42134,21.1577262 C67.3893554,21.3777415 67.3706169,21.5612492 67.3706169,21.7043723 C67.3706169,21.9851262 67.4488015,22.1886646 67.6071092,22.3178954 C67.7638015,22.4448646 68.0655554,22.5249877 68.5107554,22.5572954 L68.4199708,23.0619415 L65.4812631,23.0619415 L66.1258015,20.4841108 L65.9930169,20.4411415 C65.33814,21.3984185 64.7129862,22.1043415 64.1240169,22.5492185 C63.5347246,22.9905415 62.9102169,23.2166954 62.2546938,23.2166954 C61.5009554,23.2166954 60.9184477,22.9320646 60.5007092,22.3631262 C60.0871708,21.7951569 59.8807246,20.9965108 59.8807246,19.9694492 C59.8807246,19.3119877 59.9585862,18.6532338 60.1088169,17.9909262 C60.2596938,17.3312031 60.4835862,16.7031415 60.78954,16.1106185 C61.0938785,15.5174492 61.4586323,14.9960031 61.8831554,14.5433723 C62.3080015,14.0913877 62.8026323,13.7321262 63.35994,13.4675262 C63.9175708,13.1958185 64.5243092,13.0630338 65.18274,13.0630338 C65.6075862,13.0630338 66.01014,13.1156954 66.3968631,13.2132646 C66.7793862,13.3127723 67.1751554,13.4907877 67.5857862,13.7431108 L67.5857862,13.7431108 Z M50.5392785,21.2339723 L50.5392785,21.0866492 C50.5392785,21.0407723 50.5438015,20.98908 50.5492938,20.9357723 C49.4941246,22.4613415 48.31974,23.2263877 47.0254938,23.2263877 C45.8746938,23.2263877 45.3002631,22.5350031 45.3002631,21.1496492 C45.3002631,20.7050954 45.3768323,20.1293723 45.5357862,19.4257108 L46.4090631,15.8098338 C46.5240785,15.3284492 46.5835246,14.9394646 46.5835246,14.6373877 C46.5835246,14.3430646 46.5066323,14.1285415 46.3557554,13.9989877 C46.2048785,13.8694338 45.9060323,13.78188 45.4550169,13.7431108 L45.5464477,13.2387877 L48.7726938,13.2387877 L47.4781246,18.45648 C47.2048015,19.56108 47.0674938,20.39268 47.0674938,20.9545108 C47.0674938,21.6688338 47.3589092,22.0229262 47.9414169,22.0229262 C48.4528477,22.0229262 49.0314785,21.65268 49.6766631,20.9044338 C50.3186169,20.1571569 50.7673708,19.1759723 51.02034,17.9550646 L52.0299554,13.2387877 L53.8042938,13.2387877 L52.6270015,18.45648 C52.3417246,19.6983877 52.2021554,20.5293415 52.2021554,20.9545108 C52.2021554,21.6688338 52.4964785,22.0229262 53.0857708,22.0229262 C53.7028477,22.0229262 54.3380169,21.5948492 54.9867554,20.74128 C55.6380785,19.88448 56.0700323,18.9162185 56.2803554,17.84328 L57.2482938,13.2387877 L59.0274785,13.2387877 L57.4628169,20.2560185 C57.31194,20.9357723 57.2376323,21.4239415 57.2376323,21.7253723 C57.2376323,21.9980492 57.3045092,22.1918954 57.4447246,22.30788 C57.5817092,22.4199877 57.8795862,22.4913877 58.3357708,22.5185262 L58.2130015,23.0619415 L55.31694,23.0619415 L55.8697246,20.9150954 L55.7482477,20.8734185 C54.6740169,22.4416338 53.5099708,23.2263877 52.2651554,23.2263877 C51.7320785,23.2263877 51.3114323,23.0477262 51.0022477,22.6871723 C50.6943554,22.3298492 50.5392785,21.8407108 50.5392785,21.2339723 L50.5392785,21.2339723 Z" id="Fill-4" fill="#0089C5" sketch:type="MSShapeGroup"></path>
                <g id="Fill-6-+-Fill-8-+-Fill-11" sketch:type="MSShapeGroup">
                    <path d="M24.01476,0.228221538 C20.1691754,0.228221538 17.0408215,3.35657538 17.0408215,7.20248308 C17.0408215,11.0477446 20.1691754,14.1760985 24.01476,14.1760985 C27.8603446,14.1760985 30.9893446,11.0477446 30.9893446,7.20248308 C30.9893446,3.35657538 27.8603446,0.228221538 24.01476,0.228221538" id="Fill-6" fill="#0089C5"></path>
                    <path d="M30.2799969,36.1896554 C30.4890277,36.5275938 30.7704277,36.8038246 31.0999662,37.00704 C28.8032123,39.1739169 25.9594892,40.7482708 22.9329046,41.4671169 C20.6729815,42.0186092 18.32292,42.15204 16.0407046,41.82024 C7.44459692,41.0173938 0.579858462,33.2680708 0.0903969231,25.2231323 C-0.359972308,20.8926092 0.890012308,16.3023323 3.44135077,12.78984 C5.97427385,9.24891692 9.76493538,6.80839385 13.7775508,5.94642462 C14.6676277,5.74579385 15.5573815,5.62270154 16.4422892,5.56422462 C16.41192,5.70476308 16.3844585,5.84627077 16.3618431,5.98939385 C14.4182123,6.14350154 12.4868585,6.62682462 10.6721354,7.48136308 C2.58035077,11.2465015 -0.542187692,20.5275323 1.65312,28.8522554 C0.312996923,21.7287323 2.98096615,14.7686862 7.78027385,10.8707631 C10.2091662,8.82568615 13.1750123,7.56536308 16.2668585,7.18413231 C16.2668585,7.19027077 16.2662123,7.19608615 16.2662123,7.20254769 C16.2662123,7.30884 16.2700892,7.41448615 16.2742892,7.51980923 C12.5194892,8.13236308 9.06612,9.99813231 7.16352,12.7636708 C9.31553538,10.7040554 11.88852,9.27153231 14.7842585,8.55365538 C13.4816123,9.06670154 12.1754123,9.73708615 10.7079969,10.7434708 C9.23379692,11.7327323 7.92145846,13.0699477 7.27821231,14.1180092 C6.69279692,15.0042092 6.17619692,15.9695631 5.74036615,16.9859631 C4.65612,19.0045477 4.03872,21.3100246 4.03872,23.7612092 C4.03872,31.6791785 10.46052,38.1009785 18.3788123,38.1009785 C22.4253508,38.1009785 26.0799969,36.42324 28.6869046,33.7261938 C29.16732,34.4295323 29.6945815,35.2433631 30.2799969,36.1896554 M32.1519046,12.6328246 C32.3457508,12.8399169 32.5470277,13.0567015 32.7495969,13.2773631 C32.8113046,13.2450554 32.8726892,13.2133938 32.9350431,13.1807631 C32.2730585,12.3827631 31.5603508,11.6312862 30.80112,10.9353785 C30.7594431,11.0109785 30.7164738,11.0856092 30.6722123,11.1599169 C31.1859046,11.6270862 31.6802123,12.1184862 32.1519046,12.6328246 M35.6853969,20.1737631 C36.10152,21.2450862 36.0391662,23.2200554 35.9451508,23.7537785 C35.8559815,23.2097169 35.4133662,22.3335323 35.1917354,22.21044 C35.2647508,22.7328554 35.3006123,23.4613938 35.1726738,23.8775169 C35.1277662,23.4885323 34.9978892,23.0433323 34.8140585,22.8905169 C34.9177662,24.1036708 34.9209969,25.8453785 34.5549508,26.8656554 C34.4541508,25.8353631 34.2958431,24.6109015 33.92592,23.8348708 C33.8680892,24.1392092 33.8535508,24.4458092 33.77052,24.7349631 C33.6396738,24.3369323 33.6910431,23.6219631 33.45132,23.4174554 C33.45972,25.1317015 33.3453508,26.5199631 32.8565354,27.3457477 C32.9618585,26.6159169 32.9948123,25.6282708 32.8064585,25.1026246 C32.80872,25.5723785 32.7831969,25.99884 32.6727046,26.1965631 C32.6623662,26.1720092 32.5583354,26.0188708 32.5425046,26.0027169 C32.4471969,26.61204 32.3115046,27.2074708 32.1415662,27.7886862 C32.3276585,28.22064 32.53152,28.6800554 32.7502431,29.1730708 C33.2338892,30.26184 33.7737508,31.4769323 34.35012,32.9094554 C35.4508431,31.07664 36.5528585,28.2910708 36.6988892,25.6793169 C36.9263354,23.0090862 36.4701508,21.5646092 35.6853969,20.1737631" id="Fill-8" fill="#93C0E4"></path>
                    <path d="M37.6778123,15.1030708 C37.9782738,14.8358862 38.9116431,13.8853938 38.3271969,12.8731938 C37.8861969,12.1100862 36.9066277,11.8474246 36.1428738,12.2881015 C29.6076738,16.06164 26.8382585,16.7772554 24.0148892,16.7772554 C21.1908738,16.7772554 18.4211354,16.06164 11.8862585,12.2881015 C11.5176277,12.0755169 11.0872892,12.0196246 10.6737508,12.1310862 C10.2595662,12.2415785 9.91419692,12.5058554 9.70290462,12.8731938 C9.11781231,13.8853938 10.0508585,14.8358862 10.35132,15.1030708 L11.8300431,16.4131477 C15.4320277,19.5944862 17.41572,21.3468554 17.7190892,23.4413631 C17.9536431,25.0583631 17.1705046,26.8204246 15.9870738,29.4864554 C15.4320277,30.7367631 14.8026738,32.1521631 14.1309969,33.86964 C13.8179354,34.6682862 13.7714123,35.7977631 14.6705354,36.3521631 C15.0672738,36.5986708 15.5386431,36.6745938 15.9974123,36.5670092 C16.4568277,36.4587785 16.8451662,36.1799631 17.0907046,35.7822554 C20.72952,29.9025785 22.3310123,28.7873169 24.0148892,28.7873169 C25.69812,28.7873169 27.2992892,29.9025785 30.9384277,35.7822554 C31.1846123,36.1799631 31.5726277,36.4587785 32.0313969,36.5670092 C32.4914585,36.6745938 32.9625046,36.5986708 33.3602123,36.3521631 C34.2573969,35.7977631 34.2108738,34.6682862 33.8987815,33.86964 C33.2271046,32.1521631 32.5980738,30.7367631 32.0430277,29.4867785 C30.8586277,26.8210708 30.0767815,25.0596554 30.3110123,23.4420092 C30.6130892,21.3458862 32.5990431,19.5931938 36.2016738,16.4105631 L37.6778123,15.1030708 Z" id="Fill-11" fill="#0089C5"></path>
                </g>
            </g>
        </g>
    </g>
</svg>