<?xml version="1.0" encoding="UTF-8" standalone="no"?>
<svg width="27px" height="46px" viewBox="0 0 27 46" version="1.1" xmlns="http://www.w3.org/2000/svg" xmlns:xlink="http://www.w3.org/1999/xlink" xmlns:sketch="http://www.bohemiancoding.com/sketch/ns">
    <!-- Generator: Sketch 3.3.3 (12072) - http://www.bohemiancoding.com/sketch -->
    <title>Group Copy</title>
    <desc>Created with Sketch.</desc>
    <defs>
        <path id="path-1" d="M3.50911127,8.54129715 C3.50911127,8.76577412 3.44771898,8.97543056 3.34335208,9.15689181 L6.62495073,11.0531981 C6.83765697,10.684492 7.23417896,10.4368805 7.68956533,10.4368805 C8.14531283,10.4368805 8.54147368,10.684492 8.75454106,11.0524751 L12.0365008,9.15472295 C11.9314117,8.97398465 11.8707416,8.76360526 11.8707416,8.53912829 C11.8707416,8.31501279 11.9314117,8.10499488 12.0365008,7.92425658 L11.1629246,7.41927376 C10.9715251,7.74894042 10.8602967,8.1310212 10.8602967,8.53912829 C10.8602967,8.73034942 10.8870204,8.91542544 10.9321618,9.09254898 L9.25290203,10.0638366 C8.84879628,9.66946564 8.29771017,9.42510746 7.68956533,9.42510746 C7.08214275,9.42510746 6.53141777,9.66946564 6.12767316,10.0631137 L4.4476911,9.09182602 C4.49247136,8.91542544 4.51919507,8.73107237 4.51919507,8.54129715 C4.51919507,8.34826864 4.49247136,8.16355409 4.44660771,7.98462317 L6.12550637,7.01478143 C6.52925098,7.41023684 7.08105936,7.65495651 7.68956533,7.65495651 C8.51763903,7.65495651 9.24026244,7.20166484 9.62811728,6.53257164 L8.75454106,6.02758882 C8.54147368,6.395572 8.14531283,6.64354496 7.68956533,6.64354496 C7.23454009,6.64354496 6.8380181,6.395572 6.62495073,6.02758882 L3.34262982,7.92534101 C3.44771898,8.10607931 3.50911127,8.3164587 3.50911127,8.54129715"></path>
        <path d="M11.1625635,3.40435307 L12.0354174,2.89937025 C12.2481237,3.26807639 12.6457291,3.51641082 13.1011154,3.51641082 C13.5572241,3.51641082 13.9548294,3.26807639 14.1675357,2.8986473 L15.0403896,3.40363012 C14.7511236,3.90319079 14.2747916,4.2816568 13.7074546,4.44215241 L13.7074546,6.38219737 C14.2740694,6.54160855 14.7496791,6.92007456 15.0396674,7.4185508 L14.1660912,7.92317215 C13.9533849,7.55555044 13.5568629,7.30757749 13.1011154,7.30757749 C12.6460902,7.30757749 12.2492071,7.55555044 12.0365008,7.92425658 L11.1629246,7.41927376 C11.4529129,6.92007456 11.9281615,6.54160855 12.4951374,6.38219737 L12.4951374,4.44215241 C11.9278004,4.2816568 11.4521907,3.90319079 11.1625635,3.40435307 L11.1625635,3.40435307 Z M16.575197,4.29033224 C16.3834364,4.62072186 16.272208,5.00316411 16.272208,5.41199415 C16.272208,5.81937829 16.3830752,6.20145906 16.5737525,6.53112573 L17.4476898,6.02650439 C17.3429618,5.84576608 17.2822918,5.63574817 17.2822918,5.41199415 C17.2822918,5.18679423 17.3436841,4.97713779 17.4487732,4.79495358 L16.575197,4.29033224 L16.575197,4.29033224 Z M8.92030025,5.41199415 C8.92030025,5.63647113 8.85926909,5.84612756 8.75454106,6.02758882 L9.62811728,6.53184868 C9.81915565,6.20218202 9.93074517,5.82010124 9.93074517,5.41199415 C9.93074517,5.00316411 9.81915565,4.62144481 9.62811728,4.29105519 L8.75417992,4.79639949 C8.85926909,4.97786075 8.92030025,5.18751718 8.92030025,5.41199415 L8.92030025,5.41199415 Z" id="path-3"></path>
        <path d="M16.272208,11.664455 C16.272208,11.2570709 16.3830752,10.8757131 16.5737525,10.5460464 L17.4469676,11.0510292 C17.3429618,11.2317675 17.2822918,11.440701 17.2822918,11.664455 C17.2822918,11.889655 17.3436841,12.1000344 17.4487732,12.2814956 L16.5755581,12.7864784 C16.3837975,12.4568118 16.272208,12.074008 16.272208,11.664455 L16.272208,11.664455 Z M13.1011154,9.77104057 C12.6460902,9.77104057 12.2492071,9.52306762 12.0365008,9.15472295 L8.75454106,11.0524751 C8.85926909,11.2339364 8.92030025,11.4435928 8.92030025,11.6680698 C8.92030025,11.8925468 8.85963022,12.1029262 8.75454106,12.2836645 L9.62811728,12.7882858 C9.81951678,12.4586192 9.93074517,12.0768999 9.93074517,11.6680698 C9.93074517,11.4768487 9.9043826,11.2924956 9.85888008,11.1146491 L11.538501,10.143723 C11.802849,10.4014558 12.1300338,10.5933999 12.4951374,10.6964207 L12.4954985,14.4445716 L12.4944151,14.4445716 L13.1011154,14.7955654 L13.7081769,14.4445716 L13.7078157,14.4442102 L13.7074546,10.6964207 C14.2744305,10.5370095 14.7500402,10.1585435 15.0400285,9.6593443 L14.1660912,9.15472295 C13.9533849,9.52306762 13.5568629,9.77104057 13.1011154,9.77104057 L13.1011154,9.77104057 Z" id="path-5"></path>
        <path id="path-7" d="M0.338741008,13.6767953 L1.2119561,14.1814167 C1.42502347,13.813072 1.82226772,13.5636531 2.27801522,13.5636531 C2.73376272,13.5636531 3.13100697,13.813072 3.34371321,14.1814167 L4.2169283,13.6767953 C3.92730113,13.1768732 3.45169142,12.7984072 2.88399327,12.6379115 L2.88399327,10.6985895 C3.24981911,10.5955687 3.57844845,10.4029017 3.84315757,10.143723 L5.52097284,11.1146491 C5.47583145,11.2917727 5.44910775,11.4768487 5.44910775,11.6680698 C5.44910775,12.0768999 5.56033614,12.4586192 5.75173564,12.7890088 L6.62495073,12.2836645 C6.5202227,12.1029262 6.45919154,11.8932697 6.45919154,11.6680698 C6.45919154,11.4443158 6.5202227,11.2346594 6.62495073,11.0531981 L3.34335208,9.15689181 C3.13028471,9.52451352 2.73340159,9.77320943 2.27801522,9.77320943 C1.82298999,9.77320943 1.42610687,9.52451352 1.21303949,9.15689181 L0.339824401,9.66151316 C0.629451574,10.1607124 1.10506128,10.5384554 1.67203717,10.6985895 L1.67203717,12.6379115 C1.10433902,12.7984072 0.628368181,13.1775961 0.338741008,13.6767953"></path>
        <path d="M4.51919507,14.7955654 C4.51919507,15.2043955 4.40760554,15.5871992 4.21584491,15.9175888 L3.34226869,15.412606 C3.44771898,15.2311447 3.50911127,15.0207654 3.50911127,14.7955654 C3.50911127,14.5718114 3.44808011,14.362155 3.34371321,14.1814167 L4.2169283,13.6767953 C4.40796667,14.006462 4.51919507,14.3874583 4.51919507,14.7955654 L4.51919507,14.7955654 Z M7.68956533,16.6911488 C8.14567396,16.6911488 8.54255708,16.9398447 8.75526332,17.3081893 L13.1011154,14.7955654 L12.4944151,14.4445716 L9.25290203,16.3191893 C8.84879628,15.9244569 8.29771017,15.6804602 7.68956533,15.6804602 C6.8611305,15.6804602 6.13814596,16.1333904 5.75029112,16.8042909 L6.62422847,17.3089123 C6.83693471,16.9405676 7.23381783,16.6911488 7.68956533,16.6911488 L7.68956533,16.6911488 Z M7.68956533,13.9117551 C8.51763903,13.9117551 9.24026244,13.4584635 9.62811728,12.7882858 L8.75454106,12.2836645 C8.54183482,12.6523706 8.14531283,12.8999821 7.68956533,12.8999821 C7.23454009,12.8999821 6.8380181,12.6523706 6.62495073,12.2836645 L5.75173564,12.7890088 C6.13959048,13.4584635 6.86221389,13.9117551 7.68956533,13.9117551 L7.68956533,13.9117551 Z" id="path-9"></path>
        <path id="path-11" d="M24.5312771,12.6368271 L24.5312771,10.6964207 C25.0986141,10.5362865 25.5742238,10.1578205 25.863851,9.65789839 L24.9906359,9.15327705 C24.7775685,9.52234466 24.3810465,9.77104057 23.9249379,9.77104057 C23.4691904,9.77104057 23.0719462,9.52234466 22.8592399,9.15327705 L19.5787247,11.0503063 C19.6830916,11.2310446 19.7437616,11.440701 19.7437616,11.664455 C19.7437616,11.889655 19.6823693,12.1000344 19.5772801,12.2814956 L20.4504952,12.7864784 C20.6422559,12.4560888 20.7542065,12.074008 20.7542065,11.664455 C20.7542065,11.4732339 20.7274828,11.2888808 20.6823414,11.1117573 L22.3601567,10.142277 C22.6245047,10.4007328 22.953134,10.5933999 23.3185987,10.6964207 L23.3185987,12.6368271 C22.7516228,12.7962383 22.2763743,13.1747043 21.986386,13.6739035 L22.8599622,14.1785249 C23.0726684,13.8101802 23.4695516,13.5614843 23.9249379,13.5614843 C24.3799631,13.5614843 24.7764851,13.8101802 24.9895525,14.1778019 L25.8627676,13.6731806 C25.5731404,13.1747043 25.0978919,12.7962383 24.5312771,12.6368271"></path>
        <path d="M22.8599622,15.4097142 L21.9867471,15.914697 C21.7953476,15.5843074 21.6837581,15.2022266 21.6837581,14.7941195 C21.6837581,14.3852895 21.7949865,14.0035702 21.986386,13.6739035 L22.8599622,14.1785249 C22.7552342,14.3599861 22.694203,14.5696425 22.694203,14.7941195 C22.694203,15.0185965 22.7552342,15.2282529 22.8599622,15.4097142 L22.8599622,15.4097142 Z M16.9504122,16.3162975 L13.7081769,14.4445716 L13.1011154,14.7955654 L17.4476898,17.3071049 C17.6596738,16.9383988 18.0572792,16.6893414 18.5130267,16.6893414 C18.9687742,16.6893414 19.3660184,16.9383988 19.5787247,17.3071049 L20.4519398,16.8021221 C20.1619515,16.3021999 19.6867029,15.9237339 19.1190047,15.7635998 L19.1190047,13.8221089 C19.6859806,13.6626977 20.1608681,13.2849547 20.4504952,12.7864784 L19.5772801,12.2814956 C19.3642128,12.6487558 18.9676908,12.8963673 18.5130267,12.8963673 C18.0583626,12.8963673 17.6622017,12.6487558 17.4491343,12.2814956 L16.5759193,12.7864784 C16.8655464,13.2849547 17.340795,13.6626977 17.9070486,13.8221089 L17.9070486,15.7635998 C17.541945,15.8666206 17.2147602,16.0585647 16.9504122,16.3162975 L16.9504122,16.3162975 Z" id="path-13"></path>
        <path d="M6.625673,18.5404631 L3.34443547,20.4374923 C3.13209036,20.0680632 2.73448498,19.8182829 2.27801522,19.8182829 C1.82154546,19.8182829 1.42394008,20.0680632 1.21123384,20.4374923 L0.337657614,19.9325095 C0.725512457,19.2612474 1.44921926,18.8072328 2.27801522,18.8072328 C2.88579893,18.8072328 3.43724617,19.051591 3.84135192,19.445962 L5.52061171,18.4761202 C5.47547032,18.2989967 5.44910775,18.1139207 5.44910775,17.9234225 C5.44910775,17.5153154 5.55997501,17.1339576 5.75029112,16.8042909 L6.62422847,17.3089123 C6.51986157,17.4896506 6.45919154,17.6985841 6.45919154,17.9234225 C6.45919154,18.1486224 6.52058383,18.3582789 6.625673,18.5404631 L6.625673,18.5404631 Z M2.27801522,17.0385278 C3.10536666,17.0385278 3.82762894,16.586682 4.21584491,15.9175888 L3.34226869,15.411883 C3.12920131,15.7798662 2.73304046,16.0274777 2.27801522,16.0274777 C1.82335112,16.0274777 1.42719026,15.7798662 1.21412289,15.412606 L0.340546663,15.9175888 C0.729123768,16.586682 1.45102491,17.0385278 2.27801522,17.0385278 L2.27801522,17.0385278 Z" id="path-15"></path>
        <path d="M25.8631287,19.9296177 L24.9895525,20.4346005 C24.7764851,20.0666173 24.3799631,19.8182829 23.9245768,19.8182829 C23.4691904,19.8182829 23.0726684,20.0666173 22.8599622,20.4353235 L19.5772801,18.5382942 C19.6823693,18.356833 19.7437616,18.1464536 19.7437616,17.9212537 C19.7437616,17.6974996 19.6830916,17.4878432 19.5783635,17.3071049 L20.4519398,16.8021221 C20.6429781,17.1310658 20.7542065,17.5131466 20.7542065,17.9212537 C20.7542065,18.1117518 20.7274828,18.2961049 20.6823414,18.4732284 L22.3630457,19.4448776 C22.7671515,19.051591 23.3175153,18.8072328 23.9245768,18.8072328 C24.7522894,18.8072328 25.4749128,19.2598015 25.8631287,19.9296177 L25.8631287,19.9296177 Z M23.9249379,17.0363589 C24.7526505,17.0363589 25.4752739,16.5837902 25.8631287,15.914697 L24.9895525,15.4097142 C24.7768463,15.7769744 24.3803243,16.0256703 23.9249379,16.0256703 C23.4695516,16.0256703 23.0730296,15.7769744 22.8599622,15.4097142 L21.9867471,15.914697 C22.3746019,16.5845132 23.0972253,17.0363589 23.9249379,17.0363589 L23.9249379,17.0363589 Z" id="path-16"></path>
        <path id="path-18" d="M13.1014766,18.8094017 C12.4944151,18.8094017 11.943329,19.0530369 11.5392233,19.4466849 L9.85888008,18.4761202 C9.9043826,18.2989967 9.93074517,18.1139207 9.93074517,17.9234225 C9.93074517,17.7318399 9.9043826,17.5471254 9.85888008,17.3696404 L13.1014766,15.4953841 L16.3440731,17.3674715 C16.2989317,17.5449565 16.272208,17.7296711 16.272208,17.9212537 C16.272208,18.3304452 16.3837975,18.712526 16.5755581,19.0429156 L17.4487732,18.5382942 C17.3436841,18.356833 17.2822918,18.1464536 17.2822918,17.9212537 C17.2822918,17.6974996 17.3429618,17.4882047 17.4476898,17.3071049 L13.1011154,14.7955654 L8.75526332,17.3081893 C8.85963022,17.4896506 8.92030025,17.6985841 8.92030025,17.9234225 C8.92030025,18.1478995 8.85926909,18.3582789 8.75381879,18.5397401 L12.0365008,20.4367694 C12.2495682,20.0687862 12.6464513,19.8204518 13.1014766,19.8204518 C13.5568629,19.8204518 13.9533849,20.0680632 14.1660912,20.4367694 L15.0400285,19.9310636 C14.6514514,19.2619704 13.9291891,18.8094017 13.1014766,18.8094017"></path>
        <path d="M20.4519398,23.0581977 L19.5783635,23.563542 C19.3656573,23.1944744 18.9687742,22.9457785 18.5133878,22.9457785 C18.0572792,22.9457785 17.6596738,23.1951974 17.4476898,23.563542 L16.5737525,23.0589207 C16.9616073,22.3880201 17.6845918,21.9347284 18.5133878,21.9347284 C19.3414615,21.9347284 20.0640849,22.3872971 20.4519398,23.0581977 L20.4519398,23.0581977 Z M22.694203,21.0501952 C22.694203,20.8257182 22.754873,20.6160618 22.8599622,20.4353235 L19.5772801,18.5382942 C19.3642128,18.905193 18.9676908,19.1531659 18.5130267,19.1531659 C18.0583626,19.1531659 17.6622017,18.905193 17.4487732,18.5382942 L16.5755581,19.0429156 C16.9641352,19.7123702 17.6860364,20.164216 18.5130267,20.164216 C19.1211715,20.164216 19.6729799,19.9198578 20.0774468,19.5244024 L21.7559843,20.4953286 C21.7104818,20.6731751 21.6837581,20.8582511 21.6837581,21.0501952 C21.6837581,21.4590252 21.7953476,21.8407445 21.9867471,22.1711341 L22.8599622,21.6657898 C22.7552342,21.4843286 22.694203,21.2746721 22.694203,21.0501952 L22.694203,21.0501952 Z M14.3322115,21.052364 C14.3322115,21.276841 14.2715415,21.4864974 14.1660912,21.6679587 L15.0400285,22.17258 C15.2317892,21.8429134 15.3426564,21.4611941 15.3426564,21.052364 C15.3426564,20.643534 15.231428,20.2614532 15.0400285,19.9310636 L14.1660912,20.4367694 C14.2715415,20.6175077 14.3322115,20.8278871 14.3322115,21.052364 L14.3322115,21.052364 Z" id="path-20"></path>
        <path id="path-22" d="M7.68956533,21.9347284 C6.86076937,21.9347284 6.13706257,22.3887431 5.74956885,23.0603666 L6.62314508,23.5649879 C6.83585132,23.1951974 7.23309557,22.9457785 7.68956533,22.9457785 C8.14603509,22.9457785 8.54364047,23.1951974 8.75598558,23.564265 L9.6295618,23.0596436 C9.24170696,22.3880201 8.51836129,21.9347284 7.68956533,21.9347284"></path>
        <path id="path-24" d="M4.21476152,22.173303 C4.40688328,21.8421904 4.51919507,21.4597482 4.51919507,21.0501952 C4.51919507,20.858974 4.49247136,20.674621 4.44732997,20.4974974 L6.12658976,19.5272942 C6.53069551,19.9220267 7.08178162,20.1663849 7.68956533,20.1663849 C8.2980713,20.1663849 8.84915741,19.9220267 9.25326316,19.5272942 L10.932523,20.4974974 C10.8873816,20.6753439 10.8602967,20.86042 10.8602967,21.052364 C10.8602967,21.4611941 10.9718862,21.8429134 11.1632857,22.17258 L12.0365008,21.6679587 C11.9321339,21.4864974 11.8707416,21.276841 11.8707416,21.052364 C11.8707416,20.8278871 11.9321339,20.6182306 12.0365008,20.4367694 L8.75381879,18.5397401 C8.54075142,18.9073618 8.14495169,19.1546118 7.68956533,19.1546118 C7.23490123,19.1546118 6.8391015,18.9073618 6.625673,18.5404631 L3.34443547,20.4374923 C3.44844124,20.6182306 3.50911127,20.8271641 3.50911127,21.0501952 C3.50911127,21.2753951 3.44699672,21.4864974 3.34154642,21.6686817 L4.21476152,22.173303"></path>
        <path d="M16.5737525,6.53112573 L17.4476898,6.02650439 C17.6600349,6.39484905 18.0572792,6.64354496 18.5133878,6.64354496 C18.9687742,6.64354496 19.3660184,6.39484905 19.5790858,6.02650439 L22.8606845,7.92281067 C22.7552342,8.10427193 22.694203,8.31465132 22.694203,8.53912829 C22.694203,8.76360526 22.754873,8.97253874 22.8592399,9.15327705 L19.5787247,11.0503063 C19.3660184,10.6816001 18.9687742,10.4325428 18.5130267,10.4325428 C18.056918,10.4325428 17.6596738,10.6816001 17.4469676,11.0503063 L16.5737525,10.5460464 C16.9616073,9.87478436 17.6845918,9.42149269 18.5130267,9.42149269 C19.1208104,9.42149269 19.6726188,9.66585088 20.0767245,10.0605833 L21.755262,9.09038012 C21.7101206,8.91397953 21.6837581,8.72962646 21.6837581,8.53912829 C21.6837581,8.34754569 21.7104818,8.16210819 21.7559843,7.98462317 L20.0778079,7.01478143 C19.6737022,7.41023684 19.1215326,7.65495651 18.5133878,7.65495651 C17.684953,7.65495651 16.9619684,7.20166484 16.5737525,6.53112573 L16.5737525,6.53112573 Z M14.3318504,8.53912829 C14.3318504,8.76360526 14.2711803,8.9732617 14.1660912,9.15472295 L15.0400285,9.6593443 C15.231428,9.32967763 15.3419342,8.94795833 15.3419342,8.53912829 C15.3419342,8.1310212 15.231428,7.74894042 15.0396674,7.4185508 L14.1660912,7.92317215 C14.2711803,8.10499488 14.3318504,8.31465132 14.3318504,8.53912829 L14.3318504,8.53912829 Z" id="path-26"></path>
        <path d="M5.75137451,4.29177814 C6.13922935,3.62160051 6.86185276,3.16830885 7.68956533,3.16830885 C8.5172779,3.16830885 9.23990131,3.62160051 9.62811728,4.29105519 L8.75454106,4.79639949 C8.54147368,4.42805482 8.14531283,4.18008187 7.68956533,4.18008187 C7.23454009,4.18008187 6.83765697,4.4284163 6.62495073,4.79639949 L5.75137451,4.29177814 L5.75137451,4.29177814 Z M11.1636469,1.1631981 C10.9718862,1.49358772 10.8599356,1.87566849 10.8599356,2.28522149 C10.8599356,2.69260563 10.971164,3.07432493 11.1625635,3.40435307 L12.0357786,2.89937025 C11.9310505,2.71790899 11.8703805,2.50897551 11.8703805,2.28522149 C11.8703805,2.06002156 11.9321339,1.84964218 12.0372231,1.66818092 L11.1636469,1.1631981 L11.1636469,1.1631981 Z" id="path-28"></path>
        <path id="path-30" d="M1.21303949,7.92534101 C1.42574573,7.5577193 1.82262886,7.30902339 2.27801522,7.30902339 C2.73340159,7.30902339 3.12992358,7.5577193 3.34299095,7.92534101 L6.62531186,6.02758882 C6.5202227,5.84612756 6.45919154,5.63647113 6.45919154,5.41199415 C6.45919154,5.18751718 6.5202227,4.97786075 6.62495073,4.79639949 L5.75137451,4.29177814 C5.56033614,4.62216776 5.44910775,5.00388706 5.44910775,5.41199415 C5.44910775,5.6028538 5.47547032,5.78612244 5.52025058,5.96360746 L3.83918513,6.9348951 C3.43507939,6.54160855 2.88471553,6.29797332 2.27801522,6.29797332 C1.45030265,6.29797332 0.727679244,6.75054203 0.33946327,7.42071966 L1.21303949,7.92534101"></path>
        <path id="path-32" d="M23.9249379,6.29616594 C23.3175153,6.29616594 22.7667904,6.53943969 22.3626846,6.93417215 L20.6823414,5.96360746 C20.7278439,5.78612244 20.7542065,5.6028538 20.7542065,5.41199415 C20.7542065,5.00244115 20.6422559,4.62072186 20.4504952,4.29033224 L19.5772801,4.79495358 C19.6823693,4.97641484 19.7437616,5.18679423 19.7437616,5.41199415 C19.7437616,5.63574817 19.6830916,5.84504313 19.5790858,6.02650439 L22.8606845,7.92281067 C23.074113,7.55482749 23.4699127,7.30685453 23.9249379,7.30685453 C24.379602,7.30685453 24.7757629,7.55482749 24.9888302,7.92208772 L25.8620453,7.4171049 C25.4738294,6.7480117 24.7519282,6.29616594 23.9249379,6.29616594"></path>
        <path d="M20.4504952,4.29033224 L19.5772801,4.79495358 C19.3642128,4.42805482 18.9676908,4.18008187 18.5133878,4.18008187 C18.0583626,4.18008187 17.6622017,4.42805482 17.4487732,4.79495358 L16.575197,4.29033224 C16.9637741,3.62087756 17.6860364,3.16830885 18.5133878,3.16830885 C19.3403781,3.16830885 20.0622793,3.62087756 20.4504952,4.29033224 L20.4504952,4.29033224 Z M14.3318504,2.28522149 C14.3318504,2.50825256 14.2715415,2.71790899 14.1675357,2.8986473 L15.0403896,3.40363012 C15.2317892,3.07396345 15.3419342,2.69260563 15.3419342,2.28522149 C15.3419342,1.87566849 15.2307058,1.49286477 15.0389451,1.16247515 L14.1653689,1.66818092 C14.2708192,1.84964218 14.3318504,2.06002156 14.3318504,2.28522149 L14.3318504,2.28522149 Z" id="path-34"></path>
        <path d="M19.5772801,24.7940084 C19.6823693,24.6125471 19.7437616,24.4021678 19.7437616,24.1776908 C19.7437616,23.9539368 19.6830916,23.7442803 19.5783635,23.563542 L20.4519398,23.0581977 C20.642617,23.3878644 20.7542065,23.7695837 20.7542065,24.1776908 C20.7542065,24.5865208 20.6422559,24.9693246 20.4504952,25.2997142 L19.5772801,24.7940084 L19.5772801,24.7940084 Z M25.8631287,22.1707727 L24.9895525,21.6657898 C24.7764851,22.033773 24.3799631,22.2821075 23.9245768,22.2821075 C23.4691904,22.2821075 23.0730296,22.033773 22.8599622,21.6657898 L21.9867471,22.1711341 C22.3746019,22.8405888 23.0972253,23.2931575 23.9245768,23.2931575 C24.7526505,23.2931575 25.4752739,22.8405888 25.8631287,22.1707727 L25.8631287,22.1707727 Z" id="path-36"></path>
        <path d="M0.341268926,22.173303 L1.21484515,21.6686817 C1.42827365,22.0352189 1.82371225,22.2821075 2.27801522,22.2821075 C2.73195706,22.2821075 3.12811792,22.0352189 3.34154642,21.6686817 L4.21476152,22.173303 C3.82654554,22.8420347 3.10500553,23.2931575 2.27801522,23.2931575 C1.45174718,23.2931575 0.729846031,22.8420347 0.341268926,22.173303 L0.341268926,22.173303 Z M6.45919154,24.1776908 C6.45919154,23.9539368 6.51950044,23.7457262 6.62314508,23.5649879 L5.74956885,23.0603666 C5.55925274,23.3900333 5.44910775,23.7703067 5.44910775,24.1776908 C5.44910775,24.5872438 5.56069727,24.9700475 5.75318017,25.3011601 L6.62675639,24.7954543 C6.52094497,24.6139931 6.45919154,24.4028907 6.45919154,24.1776908 L6.45919154,24.1776908 Z" id="path-38"></path>
        <path id="path-40" d="M1.0472803,21.0501952 C1.0472803,20.8271641 1.10722807,20.6182306 1.21123384,20.4374923 L0.337657614,19.9325095 C0.147702636,20.2621762 0.0371965072,20.642811 0.0371965072,21.0501952 C0.0371965072,21.4597482 0.14914716,21.8429134 0.341268926,22.173303 L1.21484515,21.6686817 C1.10903373,21.4864974 1.0472803,21.2761181 1.0472803,21.0501952"></path>
    </defs>
    <g id="Page-1" stroke="none" stroke-width="1" fill="none" fill-rule="evenodd" sketch:type="MSPage">
        <g id="Artboard-4" sketch:type="MSArtboardGroup" transform="translate(-44.000000, -179.000000)">
            <g id="Group-Copy" sketch:type="MSLayerGroup" transform="translate(44.000000, 179.000000)">
                <mask id="mask-2" sketch:name="Clip 2" fill="white">
                    <use xlink:href="#path-1"></use>
                </mask>
                <use id="Clip-2" fill="#FFFFFF" sketch:type="MSShapeGroup" xlink:href="#path-1"></use>
                <mask id="mask-4" sketch:name="Clip 5" fill="white">
                    <use xlink:href="#path-3"></use>
                </mask>
                <use id="Clip-5" fill="#FFFFFF" sketch:type="MSShapeGroup" xlink:href="#path-3"></use>
                <mask id="mask-6" sketch:name="Clip 8" fill="white">
                    <use xlink:href="#path-5"></use>
                </mask>
                <use id="Clip-8" fill="#FFFFFF" sketch:type="MSShapeGroup" xlink:href="#path-5"></use>
                <mask id="mask-8" sketch:name="Clip 11" fill="white">
                    <use xlink:href="#path-7"></use>
                </mask>
                <use id="Clip-11" fill="#FFFFFF" sketch:type="MSShapeGroup" xlink:href="#path-7"></use>
                <mask id="mask-10" sketch:name="Clip 14" fill="white">
                    <use xlink:href="#path-9"></use>
                </mask>
                <use id="Clip-14" fill="#FFFFFF" sketch:type="MSShapeGroup" xlink:href="#path-9"></use>
                <path d="M1.0472803,14.7955654 C1.0472803,14.5718114 1.1075892,14.362155 1.2119561,14.1814167 L0.338741008,13.6767953 C0.148063767,14.006462 0.0371965072,14.3874583 0.0371965072,14.7955654 C0.0371965072,15.2043955 0.148786029,15.5871992 0.340546663,15.9183118 L1.21412289,15.412606 C1.10867259,15.2311447 1.0472803,15.0207654 1.0472803,14.7955654" id="Fill-16" fill="#FFFFFF" sketch:type="MSShapeGroup"></path>
                <mask id="mask-12" sketch:name="Clip 19" fill="white">
                    <use xlink:href="#path-11"></use>
                </mask>
                <use id="Clip-19" fill="#FFFFFF" sketch:type="MSShapeGroup" xlink:href="#path-11"></use>
                <path d="M25.1553117,14.7941195 C25.1553117,15.0185965 25.0942805,15.2282529 24.9895525,15.4097142 L25.8631287,15.914697 C26.0545282,15.5843074 26.1657566,15.2022266 26.1657566,14.7941195 C26.1657566,14.3852895 26.0545282,14.0028472 25.8627676,13.6731806 L24.9895525,14.1778019 C25.0942805,14.3592632 25.1553117,14.5689196 25.1553117,14.7941195" id="Fill-21" fill="#FFFFFF" sketch:type="MSShapeGroup"></path>
                <mask id="mask-14" sketch:name="Clip 23" fill="white">
                    <use xlink:href="#path-13"></use>
                </mask>
                <use id="Clip-23" fill="#FFFFFF" sketch:type="MSShapeGroup" xlink:href="#path-13"></use>
                <g id="Fill-17">
                    <use fill="#FFFFFF" fill-rule="evenodd" sketch:type="MSShapeGroup" xlink:href="#path-15"></use>
                    <use fill="none" xlink:href="#path-15"></use>
                </g>
                <mask id="mask-17" sketch:name="Clip 26" fill="white">
                    <use xlink:href="#path-16"></use>
                </mask>
                <use id="Clip-26" fill="#FFFFFF" sketch:type="MSShapeGroup" xlink:href="#path-16"></use>
                <mask id="mask-19" sketch:name="Clip 29" fill="white">
                    <use xlink:href="#path-18"></use>
                </mask>
                <use id="Clip-29" fill="#FFFFFF" sketch:type="MSShapeGroup" xlink:href="#path-18"></use>
                <mask id="mask-21" sketch:name="Clip 32" fill="white">
                    <use xlink:href="#path-20"></use>
                </mask>
                <use id="Clip-32" fill="#FFFFFF" sketch:type="MSShapeGroup" xlink:href="#path-20"></use>
                <mask id="mask-23" sketch:name="Clip 35" fill="white">
                    <use xlink:href="#path-22"></use>
                </mask>
                <use id="Clip-35" fill="#FFFFFF" sketch:type="MSShapeGroup" xlink:href="#path-22"></use>
                <mask id="mask-25" sketch:name="Clip 38" fill="white">
                    <use xlink:href="#path-24"></use>
                </mask>
                <use id="Clip-38" fill="#FFFFFF" sketch:type="MSShapeGroup" xlink:href="#path-24"></use>
                <mask id="mask-27" sketch:name="Clip 41" fill="white">
                    <use xlink:href="#path-26"></use>
                </mask>
                <use id="Clip-41" fill="#FFFFFF" sketch:type="MSShapeGroup" xlink:href="#path-26"></use>
                <mask id="mask-29" sketch:name="Clip 44" fill="white">
                    <use xlink:href="#path-28"></use>
                </mask>
                <use id="Clip-44" fill="#FFFFFF" sketch:type="MSShapeGroup" xlink:href="#path-28"></use>
                <path d="M12.0372231,1.66818092 C12.2506516,1.30019773 12.6464513,1.05258626 13.1011154,1.05258626 C13.5557795,1.05258626 13.9523015,1.30019773 14.1653689,1.66818092 L15.0389451,1.16247515 C14.650368,0.493381944 13.9284669,0.0415361842 13.1011154,0.0415361842 C12.2741251,0.0415361842 11.5518629,0.493381944 11.1636469,1.1631981 L12.0372231,1.66818092" id="Fill-46" fill="#FFFFFF" sketch:type="MSShapeGroup"></path>
                <mask id="mask-31" sketch:name="Clip 48" fill="white">
                    <use xlink:href="#path-30"></use>
                </mask>
                <use id="Clip-48" fill="#FFFFFF" sketch:type="MSShapeGroup" xlink:href="#path-30"></use>
                <path d="M1.0472803,8.54129715 C1.0472803,8.3164587 1.10831146,8.10680227 1.21303949,7.92534101 L0.33946327,7.42071966 C0.148424898,7.75110928 0.0371965072,8.13319006 0.0371965072,8.54129715 C0.0371965072,8.94976572 0.148424898,9.33184649 0.339824401,9.66223611 L1.21303949,9.15689181 C1.10831146,8.97543056 1.0472803,8.76577412 1.0472803,8.54129715" id="Fill-50" fill="#FFFFFF" sketch:type="MSShapeGroup"></path>
                <mask id="mask-33" sketch:name="Clip 52" fill="white">
                    <use xlink:href="#path-32"></use>
                </mask>
                <use id="Clip-52" fill="#FFFFFF" sketch:type="MSShapeGroup" xlink:href="#path-32"></use>
                <path d="M25.1553117,8.53912829 C25.1553117,8.76360526 25.0946417,8.97253874 24.9906359,9.15327705 L25.863851,9.65789839 C26.0545282,9.32895468 26.1657566,8.94723538 26.1657566,8.53912829 C26.1657566,8.13029825 26.053806,7.74749452 25.8620453,7.4171049 L24.9884691,7.92208772 C25.0939194,8.10427193 25.1553117,8.31392836 25.1553117,8.53912829" id="Fill-54" fill="#FFFFFF" sketch:type="MSShapeGroup"></path>
                <mask id="mask-35" sketch:name="Clip 56" fill="white">
                    <use xlink:href="#path-34"></use>
                </mask>
                <use id="Clip-56" fill="#FFFFFF" sketch:type="MSShapeGroup" xlink:href="#path-34"></use>
                <mask id="mask-37" sketch:name="Clip 59" fill="white">
                    <use xlink:href="#path-36"></use>
                </mask>
                <use id="Clip-59" fill="#FFFFFF" sketch:type="MSShapeGroup" xlink:href="#path-36"></use>
                <mask id="mask-39" sketch:name="Clip 63" fill="white">
                    <use xlink:href="#path-38"></use>
                </mask>
                <use id="Clip-63" fill="#FFFFFF" sketch:type="MSShapeGroup" xlink:href="#path-38"></use>
                <path d="M25.1553117,21.0501952 C25.1553117,21.2746721 25.0942805,21.4843286 24.9895525,21.6657898 L25.8631287,22.1707727 C26.0545282,21.8407445 26.1657566,21.4583023 26.1657566,21.0501952 C26.1657566,20.6420881 26.0545282,20.2592844 25.8627676,19.9296177 L24.9891914,20.4346005 C25.0942805,20.6160618 25.1553117,20.8257182 25.1553117,21.0501952" id="Path" fill="#FFFFFF" sketch:type="MSShapeGroup"></path>
                <mask id="mask-41" sketch:name="Clip 66" fill="white">
                    <use xlink:href="#path-40"></use>
                </mask>
                <use id="Clip-66" fill="#FFFFFF" sketch:type="MSShapeGroup" xlink:href="#path-40"></use>
                <path d="M25.5987807,33.1546009 L13.7078157,33.1546009 L13.7078157,27.6547343 L16.94969,25.781924 C17.3541569,26.1766564 17.905243,26.4206531 18.5133878,26.4206531 C19.3403781,26.4206531 20.0626404,25.9688074 20.4504952,25.2997142 L19.5772801,24.7940084 C19.3642128,25.1619916 18.9676908,25.4099645 18.5133878,25.4099645 C18.0583626,25.4099645 17.6622017,25.1619916 17.4487732,24.7940084 C17.3436841,24.6125471 17.2822918,24.4021678 17.2822918,24.1776908 C17.2822918,23.9539368 17.3429618,23.7442803 17.4476898,23.563542 L16.5737525,23.0589207 C16.3830752,23.3885874 16.272208,23.7695837 16.272208,24.1776908 C16.272208,24.3692734 16.2989317,24.553265 16.3440731,24.73075 L13.7078157,26.2540124 L13.7078157,23.209295 C14.2747916,23.0495223 14.7504013,22.6710563 15.0400285,22.17258 L14.1664523,21.6679587 C13.9537461,22.0355804 13.5572241,22.2842763 13.1014766,22.2842763 C12.6464513,22.2842763 12.2495682,22.0355804 12.0365008,21.6679587 L11.1632857,22.17258 C11.4532741,22.6710563 11.9285226,23.0495223 12.4958596,23.209295 L12.4954985,26.2532895 L9.85960234,24.7293041 C9.9043826,24.552542 9.93074517,24.3685504 9.93074517,24.1776908 C9.93074517,23.7703067 9.81987791,23.3893103 9.6295618,23.0596436 L8.75598558,23.564265 C8.85999135,23.7450033 8.92030025,23.9539368 8.92030025,24.1776908 C8.92030025,24.4028907 8.85890795,24.6139931 8.75309653,24.7954543 C8.54002916,25.1627145 8.1438683,25.4099645 7.68956533,25.4099645 C7.23562349,25.4099645 6.83982376,25.1627145 6.62675639,24.7954543 L5.75318017,25.3011601 C6.14139614,25.9688074 6.86329728,26.4206531 7.68956533,26.4206531 C8.2980713,26.4206531 8.84987968,26.1759335 9.25398542,25.781201 L12.4954985,27.6547343 L12.4954985,33.1546009 L0.604172394,33.1546009 C0.380993351,33.1546009 0.200066651,33.3360621 0.200066651,33.5590932 C0.200066651,33.7832087 0.380993351,33.963947 0.604172394,33.963947 L12.4734695,33.963947 C12.4070214,34.358318 12.2275392,34.8163088 11.7992377,35.2175479 C11.0303895,35.9390552 9.66423039,36.2575161 7.84665737,36.1382288 C6.98716526,36.0829229 6.25334679,36.1367829 5.62858992,36.2643841 C5.59211568,36.2651071 5.55564143,36.2716137 5.51952832,36.2864342 C5.51627814,36.2878801 5.51411135,36.289326 5.51086117,36.2907719 C3.42894016,36.7596071 2.60556116,38.0804426 2.45677513,38.9718439 C2.42932917,39.1374002 2.54091869,39.2931966 2.70559449,39.3206689 C2.72256765,39.3235607 2.73954082,39.3250066 2.75615285,39.3250066 C2.90132757,39.3250066 3.03025138,39.2198169 3.0548083,39.0716115 C3.06564223,39.0050998 3.24945798,38.0110391 4.4151893,37.3368852 C4.31298919,37.6300428 4.28626548,37.9470577 4.26026404,38.2709408 C4.2227064,38.7354382 4.18045406,39.2606637 3.90129969,39.8354115 C3.82799007,39.9865088 3.89046575,40.16797 4.04105744,40.2413498 C4.08403204,40.2619539 4.12917344,40.2717138 4.17359257,40.2717138 C4.28590435,40.2717138 4.39388256,40.2088169 4.44588544,40.1010969 C4.77559817,39.4236897 4.82435088,38.8117098 4.86443643,38.3197401 C4.92366194,37.5848582 4.95724714,37.177474 5.7315123,36.8553984 C6.00380518,36.799731 6.30354402,36.7596071 6.63325675,36.73828 C6.28295954,37.1687986 6.20567748,37.7641506 6.12695089,38.3811912 C6.01355572,39.2700621 5.8730757,40.3761806 4.93052343,41.4931433 C4.82254522,41.621106 4.83879612,41.8123271 4.96663655,41.9204086 C5.02333413,41.968485 5.09267131,41.9923425 5.16200849,41.9923425 C5.24831883,41.9923425 5.33354578,41.9558333 5.39349355,41.884261 C6.45160779,40.6310216 6.60508852,39.4258586 6.72823424,38.4574627 C6.86365842,37.3925526 6.96333061,36.9096199 7.84954642,36.745871 C9.84479596,36.868773 11.312794,36.5051276 12.2138162,35.6599952 C12.3084326,35.571072 12.3932984,35.4752807 12.4741918,35.3762361 C12.2257336,36.0977434 11.7165387,36.9168494 10.6696195,37.8006597 C10.6696195,37.8006597 10.6692584,37.8013827 10.6688972,37.8013827 C10.0058605,38.360587 9.4439404,38.6924225 8.94846848,38.98558 C8.00916639,39.5411696 7.33060098,39.9427701 7.08539293,41.335178 C7.05650244,41.5003728 7.16700857,41.6576151 7.33168437,41.6865333 C7.34974093,41.690148 7.36671409,41.6915939 7.38440952,41.6915939 C7.52886197,41.6915939 7.6567024,41.5878501 7.68234271,41.4403677 C7.87879805,40.322682 8.36849187,40.0338622 9.25687447,39.5079137 C9.33812898,39.4598374 9.42516158,39.4085077 9.51327758,39.3553706 C9.31393319,39.8285435 9.21281647,40.2973787 9.11856124,40.7383801 C8.90188256,41.753045 8.71517776,42.6285413 7.51838917,43.4136685 C7.37863142,43.5054836 7.33926812,43.6930899 7.43099543,43.8337043 C7.48913755,43.9226276 7.58628182,43.9707039 7.68487062,43.9707039 C7.74156821,43.9707039 7.79971033,43.9544375 7.85062982,43.9211817 C9.25615221,42.9990548 9.48763727,41.913902 9.71153857,40.8656199 C9.73717888,40.7448867 9.76245806,40.6263224 9.7895429,40.507758 C9.85382424,40.8294722 9.94663494,41.1464872 10.0369177,41.4530194 C10.2362621,42.1293421 10.4421069,42.8291608 10.3261838,43.4884942 C10.2972933,43.653689 10.4070771,43.8109313 10.5721141,43.8398494 C10.5898095,43.8427412 10.6075049,43.8441871 10.6252004,43.8441871 C10.7692917,43.8441871 10.8974932,43.7411663 10.9231335,43.5936838 C11.0639747,42.7937361 10.8371843,42.0248754 10.6179777,41.280595 C10.2835703,40.1455585 9.99430425,39.1641495 11.0603634,38.2644342 L11.0607245,38.2644342 C11.9541629,37.5100325 12.4929706,36.7863564 12.8187109,36.1226853 C12.8869647,36.9168494 12.9790531,37.6159452 13.0733083,38.2441915 C13.2878202,39.6857602 12.9310227,40.1278461 12.5175275,40.639697 C12.102949,41.1529938 11.6327562,41.7338867 11.7223168,43.213049 C11.7320673,43.3739061 11.8656858,43.498254 12.0249446,43.498254 C12.0310839,43.498254 12.0372231,43.498254 12.0433623,43.4975311 C12.210566,43.4877712 12.3376842,43.343542 12.3275725,43.1761784 C12.2520961,41.9323374 12.6099771,41.4895285 12.9888037,41.0206933 C13.1310893,40.8450157 13.2755418,40.6664463 13.3990486,40.4531751 C13.5850312,42.1250044 13.4149384,43.4086078 11.9498294,45.4701089 C11.8526851,45.6063856 11.8844646,45.7954379 12.0209722,45.8930365 C12.0744196,45.9313531 12.1354508,45.9487039 12.1964819,45.9487039 C12.2910983,45.9487039 12.3846313,45.9049653 12.4434956,45.8218257 C14.4376618,43.0160442 14.1957039,41.4797686 13.793765,38.9360577 C13.6605076,38.0909254 13.5066657,37.116023 13.410966,35.9278494 C13.7435677,36.6218845 14.1953428,37.1413264 14.6185885,37.625705 C15.6871755,38.8478575 16.6098656,39.9026462 15.2530959,43.428489 C15.192787,43.5850084 15.2707913,43.7603246 15.4271611,43.8210526 C15.462552,43.8344273 15.4993873,43.8412953 15.5358616,43.8412953 C15.6575628,43.8412953 15.7724025,43.7671926 15.8189884,43.6464594 C16.5192217,41.8257018 16.6383949,40.5746312 16.4542181,39.6293699 C16.8709634,40.1730307 17.1436174,40.9100815 16.9959148,42.3017664 C16.9782193,42.4680457 17.0991983,42.6180585 17.2653186,42.6354094 C17.2761525,42.6361323 17.2866253,42.6368553 17.2974593,42.6368553 C17.4505789,42.6368553 17.5816695,42.5219057 17.5982815,42.3657478 C17.6513678,41.8672716 17.6513678,41.4432595 17.6148935,41.0694927 C18.0034706,41.4685629 18.4274386,41.8397993 18.7817082,42.0396959 C18.8286553,42.0657222 18.8795748,42.0783739 18.9301331,42.0783739 C19.0359446,42.0783739 19.1388669,42.0227065 19.1944811,41.9240234 C19.2764579,41.7776254 19.2248161,41.5925493 19.0789192,41.5108556 C18.4494676,41.1558856 17.4570792,40.0606115 17.120505,39.5241802 C17.1154492,39.5158662 17.1096711,39.5093596 17.103893,39.5021301 C16.8485733,39.1019755 16.5354726,38.8033958 16.2368171,38.5218056 C16.0132769,38.3096188 15.8023764,38.1108067 15.6214497,37.8762083 C15.6185606,37.872955 15.6149493,37.8700632 15.6120602,37.8671714 C15.4398007,37.6448633 15.2567072,37.4344839 15.0746971,37.2259119 C14.6341171,36.7227365 14.1855922,36.2072708 13.8836866,35.50203 C14.5275834,36.066295 15.5084156,36.2759514 16.5611129,36.3945157 C16.5643631,36.3952387 16.5672521,36.3959616 16.5712245,36.3963231 C18.0554735,36.5604335 18.2699854,37.6325731 18.5184436,38.8738838 C18.6220883,39.3922412 18.7293442,39.9293955 18.9427727,40.3960618 C18.9936922,40.5070351 19.1034761,40.5731853 19.2186769,40.5731853 C19.2609293,40.5731853 19.3035427,40.5641484 19.3443506,40.5457131 C19.4967479,40.4759481 19.5635572,40.2959327 19.4938588,40.1433896 C19.3104042,39.7410662 19.2143433,39.2613867 19.1128655,38.7545965 C19.0568902,38.4737292 18.9973035,38.1856323 18.9218271,37.9029576 C19.1767857,38.035258 19.4433005,38.1440625 19.7065651,38.2499751 C20.4021037,38.5293966 21.0026647,38.7708629 21.2587067,39.3947716 C21.3067372,39.5129744 21.4197712,39.5834624 21.5393056,39.5834624 C21.5772244,39.5834624 21.6162265,39.5762328 21.6537842,39.5610508 C21.8090706,39.4974309 21.8831025,39.3199459 21.8195434,39.1648724 C21.4663571,38.3034737 20.686675,37.9893505 19.932272,37.6864331 C19.3302664,37.4442438 18.7614849,37.2154291 18.398187,36.7241824 C18.3530456,36.6627314 18.3042929,36.6034492 18.2530123,36.5463359 C20.1554511,36.7198447 21.9824135,37.0480654 22.490525,38.924852 C22.5269993,39.0604057 22.6490616,39.1493289 22.7826801,39.1493289 C22.8090427,39.1493289 22.8354053,39.1457142 22.8624901,39.1388461 C23.0235546,39.094746 23.1192543,38.9284667 23.0751963,38.7658023 C22.4013256,36.2752284 19.8947144,36.0695482 17.6831473,35.888087 C15.4137992,35.7026495 13.9584408,35.4969693 13.7493458,33.963947 L25.5987807,33.963947 C25.8219598,33.963947 26.0028865,33.7832087 26.0028865,33.5590932 C26.0028865,33.3360621 25.8219598,33.1546009 25.5987807,33.1546009" id="Fill-68" fill="#FFFFFF" sketch:type="MSShapeGroup"></path>
            </g>
        </g>
    </g>
</svg>