<?xml version="1.0" encoding="UTF-8" standalone="no"?>
<svg width="39px" height="42px" viewBox="0 0 39 42" version="1.1" xmlns="http://www.w3.org/2000/svg" xmlns:xlink="http://www.w3.org/1999/xlink" xmlns:sketch="http://www.bohemiancoding.com/sketch/ns">
    <!-- Generator: Sketch 3.4 (15575) - http://www.bohemiancoding.com/sketch -->
    <title>Fill 6 + Fill 8 + Fill 11</title>
    <desc>Created with Sketch.</desc>
    <defs></defs>
    <g id="Page-2" stroke="none" stroke-width="1" fill="none" fill-rule="evenodd" sketch:type="MSPage">
        <g id="Artboard-2" sketch:type="MSArtboardGroup" transform="translate(-254.000000, -600.000000)" fill="#FFFFFF">
            <g id="Fill-6-+-Fill-8-+-Fill-11" sketch:type="MSLayerGroup" transform="translate(254.000000, 600.000000)">
                <path d="M24.01476,0.228221538 C20.1691754,0.228221538 17.0408215,3.35657538 17.0408215,7.20248308 C17.0408215,11.0477446 20.1691754,14.1760985 24.01476,14.1760985 C27.8603446,14.1760985 30.9893446,11.0477446 30.9893446,7.20248308 C30.9893446,3.35657538 27.8603446,0.228221538 24.01476,0.228221538" id="Fill-6" sketch:type="MSShapeGroup"></path>
                <path d="M30.2799969,36.1896554 C30.4890277,36.5275938 30.7704277,36.8038246 31.0999662,37.00704 C28.8032123,39.1739169 25.9594892,40.7482708 22.9329046,41.4671169 C20.6729815,42.0186092 18.32292,42.15204 16.0407046,41.82024 C7.44459692,41.0173938 0.579858462,33.2680708 0.0903969231,25.2231323 C-0.359972308,20.8926092 0.890012308,16.3023323 3.44135077,12.78984 C5.97427385,9.24891692 9.76493538,6.80839385 13.7775508,5.94642462 C14.6676277,5.74579385 15.5573815,5.62270154 16.4422892,5.56422462 C16.41192,5.70476308 16.3844585,5.84627077 16.3618431,5.98939385 C14.4182123,6.14350154 12.4868585,6.62682462 10.6721354,7.48136308 C2.58035077,11.2465015 -0.542187692,20.5275323 1.65312,28.8522554 C0.312996923,21.7287323 2.98096615,14.7686862 7.78027385,10.8707631 C10.2091662,8.82568615 13.1750123,7.56536308 16.2668585,7.18413231 C16.2668585,7.19027077 16.2662123,7.19608615 16.2662123,7.20254769 C16.2662123,7.30884 16.2700892,7.41448615 16.2742892,7.51980923 C12.5194892,8.13236308 9.06612,9.99813231 7.16352,12.7636708 C9.31553538,10.7040554 11.88852,9.27153231 14.7842585,8.55365538 C13.4816123,9.06670154 12.1754123,9.73708615 10.7079969,10.7434708 C9.23379692,11.7327323 7.92145846,13.0699477 7.27821231,14.1180092 C6.69279692,15.0042092 6.17619692,15.9695631 5.74036615,16.9859631 C4.65612,19.0045477 4.03872,21.3100246 4.03872,23.7612092 C4.03872,31.6791785 10.46052,38.1009785 18.3788123,38.1009785 C22.4253508,38.1009785 26.0799969,36.42324 28.6869046,33.7261938 C29.16732,34.4295323 29.6945815,35.2433631 30.2799969,36.1896554 M32.1519046,12.6328246 C32.3457508,12.8399169 32.5470277,13.0567015 32.7495969,13.2773631 C32.8113046,13.2450554 32.8726892,13.2133938 32.9350431,13.1807631 C32.2730585,12.3827631 31.5603508,11.6312862 30.80112,10.9353785 C30.7594431,11.0109785 30.7164738,11.0856092 30.6722123,11.1599169 C31.1859046,11.6270862 31.6802123,12.1184862 32.1519046,12.6328246 M35.6853969,20.1737631 C36.10152,21.2450862 36.0391662,23.2200554 35.9451508,23.7537785 C35.8559815,23.2097169 35.4133662,22.3335323 35.1917354,22.21044 C35.2647508,22.7328554 35.3006123,23.4613938 35.1726738,23.8775169 C35.1277662,23.4885323 34.9978892,23.0433323 34.8140585,22.8905169 C34.9177662,24.1036708 34.9209969,25.8453785 34.5549508,26.8656554 C34.4541508,25.8353631 34.2958431,24.6109015 33.92592,23.8348708 C33.8680892,24.1392092 33.8535508,24.4458092 33.77052,24.7349631 C33.6396738,24.3369323 33.6910431,23.6219631 33.45132,23.4174554 C33.45972,25.1317015 33.3453508,26.5199631 32.8565354,27.3457477 C32.9618585,26.6159169 32.9948123,25.6282708 32.8064585,25.1026246 C32.80872,25.5723785 32.7831969,25.99884 32.6727046,26.1965631 C32.6623662,26.1720092 32.5583354,26.0188708 32.5425046,26.0027169 C32.4471969,26.61204 32.3115046,27.2074708 32.1415662,27.7886862 C32.3276585,28.22064 32.53152,28.6800554 32.7502431,29.1730708 C33.2338892,30.26184 33.7737508,31.4769323 34.35012,32.9094554 C35.4508431,31.07664 36.5528585,28.2910708 36.6988892,25.6793169 C36.9263354,23.0090862 36.4701508,21.5646092 35.6853969,20.1737631" id="Fill-8" sketch:type="MSShapeGroup"></path>
                <path d="M37.6778123,15.1030708 C37.9782738,14.8358862 38.9116431,13.8853938 38.3271969,12.8731938 C37.8861969,12.1100862 36.9066277,11.8474246 36.1428738,12.2881015 C29.6076738,16.06164 26.8382585,16.7772554 24.0148892,16.7772554 C21.1908738,16.7772554 18.4211354,16.06164 11.8862585,12.2881015 C11.5176277,12.0755169 11.0872892,12.0196246 10.6737508,12.1310862 C10.2595662,12.2415785 9.91419692,12.5058554 9.70290462,12.8731938 C9.11781231,13.8853938 10.0508585,14.8358862 10.35132,15.1030708 L11.8300431,16.4131477 C15.4320277,19.5944862 17.41572,21.3468554 17.7190892,23.4413631 C17.9536431,25.0583631 17.1705046,26.8204246 15.9870738,29.4864554 C15.4320277,30.7367631 14.8026738,32.1521631 14.1309969,33.86964 C13.8179354,34.6682862 13.7714123,35.7977631 14.6705354,36.3521631 C15.0672738,36.5986708 15.5386431,36.6745938 15.9974123,36.5670092 C16.4568277,36.4587785 16.8451662,36.1799631 17.0907046,35.7822554 C20.72952,29.9025785 22.3310123,28.7873169 24.0148892,28.7873169 C25.69812,28.7873169 27.2992892,29.9025785 30.9384277,35.7822554 C31.1846123,36.1799631 31.5726277,36.4587785 32.0313969,36.5670092 C32.4914585,36.6745938 32.9625046,36.5986708 33.3602123,36.3521631 C34.2573969,35.7977631 34.2108738,34.6682862 33.8987815,33.86964 C33.2271046,32.1521631 32.5980738,30.7367631 32.0430277,29.4867785 C30.8586277,26.8210708 30.0767815,25.0596554 30.3110123,23.4420092 C30.6130892,21.3458862 32.5990431,19.5931938 36.2016738,16.4105631 L37.6778123,15.1030708 Z" id="Fill-11" sketch:type="MSShapeGroup"></path>
            </g>
        </g>
    </g>
</svg>