<?xml version="1.0" encoding="UTF-8" standalone="no"?>
<svg width="392px" height="121px" viewBox="0 0 392 121" version="1.1" xmlns="http://www.w3.org/2000/svg" xmlns:xlink="http://www.w3.org/1999/xlink" xmlns:sketch="http://www.bohemiancoding.com/sketch/ns">
    <!-- Generator: Sketch 3.3.3 (12072) - http://www.bohemiancoding.com/sketch -->
    <title>Смени логотип + ТЕПЛИЦА ПРЕДУПРЕЖДАЕ + Oval 1</title>
    <desc>Created with Sketch.</desc>
    <defs></defs>
    <g id="Page-1" stroke="none" stroke-width="1" fill="none" fill-rule="evenodd" sketch:type="MSPage">
        <g id="Artboard-4" sketch:type="MSArtboardGroup" transform="translate(-56.000000, -176.000000)" fill="#FFFFFF">
            <g id="Смени-логотип-+-ТЕПЛИЦА-ПРЕДУПРЕЖДАЕ-+-Oval-1" sketch:type="MSLayerGroup" transform="translate(56.000000, 176.000000)">
                <g sketch:type="MSShapeGroup">
                    <path d="M106.696,77.176 L101.464,77.176 C100.648,80.632 98.296,83.032 94.504,83.032 C92.488,83.032 90.664,82.264 89.464,80.968 C87.784,79.144 87.4,77.176 87.4,70.312 C87.4,63.448 87.784,61.48 89.464,59.656 C90.664,58.36 92.488,57.592 94.504,57.592 C98.296,57.592 100.6,59.992 101.416,63.448 L106.696,63.448 C105.496,56.632 100.792,52.936 94.504,52.936 C90.952,52.936 87.88,54.232 85.528,56.584 C82.168,59.944 82.216,63.736 82.216,70.312 C82.216,76.888 82.168,80.68 85.528,84.04 C87.88,86.392 90.952,87.688 94.504,87.688 C100.696,87.688 105.544,83.992 106.696,77.176 L106.696,77.176 Z M136.144,87.4 L136.144,63.064 L131.344,63.064 L124.096,77.56 L116.8,63.064 L111.952,63.064 L111.952,87.4 L116.848,87.4 L116.848,71.8 L122.56,82.936 L125.632,82.936 L131.248,71.8 L131.248,87.4 L136.144,87.4 Z M162.232,76.696 L162.232,74.488 C162.232,67.336 158.248,62.776 151.96,62.776 C145.576,62.776 141.64,67.48 141.64,75.112 C141.64,83.368 145.384,87.688 152.68,87.688 C156.568,87.688 158.92,86.584 161.656,83.896 L158.584,80.968 C156.856,82.648 155.32,83.512 152.872,83.512 C148.312,83.512 146.584,80.776 146.488,76.696 L162.232,76.696 Z M157.432,73.24 L146.488,73.24 C146.584,69.88 148.024,66.856 151.96,66.856 C155.944,66.856 157.192,69.928 157.432,73.24 L157.432,73.24 Z M187.168,87.4 L187.168,63.064 L182.272,63.064 L182.272,72.76 L172.576,72.76 L172.576,63.064 L167.68,63.064 L167.68,87.4 L172.576,87.4 L172.576,77.032 L182.272,77.032 L182.272,87.4 L187.168,87.4 Z M214.072,87.4 L214.072,63.064 L209.176,63.064 L198.76,79.576 L198.76,63.064 L193.864,63.064 L193.864,87.4 L198.76,87.4 L209.176,70.648 L209.176,87.4 L214.072,87.4 Z M250.072,87.4 L250.072,63.064 L233.416,63.064 L233.416,73.192 C233.416,82.6 230.92,83.08 228.808,83.08 L228.04,83.08 L228.04,87.4 L230.344,87.4 C235.096,87.4 238.12,84.712 238.12,74.392 L238.12,67.336 L245.176,67.336 L245.176,87.4 L250.072,87.4 Z M275.92,75.112 C275.92,70.456 275.104,67.768 273.088,65.656 C271.264,63.784 268.72,62.776 265.792,62.776 C262.864,62.776 260.368,63.784 258.544,65.656 C256.48,67.816 255.664,70.456 255.664,75.208 C255.664,80.008 256.48,82.648 258.544,84.808 C260.368,86.68 262.864,87.688 265.792,87.688 C268.72,87.688 271.264,86.68 273.088,84.808 C275.152,82.648 275.92,80.008 275.92,75.112 L275.92,75.112 Z M271.072,75.304 C271.072,78.136 270.736,80.296 269.584,81.688 C268.72,82.696 267.424,83.32 265.792,83.32 C264.256,83.32 263.008,82.792 262.144,81.784 C261.04,80.536 260.56,78.616 260.56,75.4 C260.56,72.52 260.848,70.264 262.048,68.776 C262.912,67.768 264.16,67.144 265.792,67.144 C267.424,67.144 268.672,67.768 269.536,68.728 C270.784,70.12 271.072,72.28 271.072,75.304 L271.072,75.304 Z M297.496,67.336 L297.496,63.064 L281.704,63.064 L281.704,87.4 L286.6,87.4 L286.6,67.336 L297.496,67.336 Z M319.504,75.112 C319.504,70.456 318.688,67.768 316.672,65.656 C314.848,63.784 312.304,62.776 309.376,62.776 C306.448,62.776 303.952,63.784 302.128,65.656 C300.064,67.816 299.248,70.456 299.248,75.208 C299.248,80.008 300.064,82.648 302.128,84.808 C303.952,86.68 306.448,87.688 309.376,87.688 C312.304,87.688 314.848,86.68 316.672,84.808 C318.736,82.648 319.504,80.008 319.504,75.112 L319.504,75.112 Z M314.656,75.304 C314.656,78.136 314.32,80.296 313.168,81.688 C312.304,82.696 311.008,83.32 309.376,83.32 C307.84,83.32 306.592,82.792 305.728,81.784 C304.624,80.536 304.144,78.616 304.144,75.4 C304.144,72.52 304.432,70.264 305.632,68.776 C306.496,67.768 307.744,67.144 309.376,67.144 C311.008,67.144 312.256,67.768 313.12,68.728 C314.368,70.12 314.656,72.28 314.656,75.304 L314.656,75.304 Z M341.32,67.336 L341.32,63.064 L321.256,63.064 L321.256,67.336 L328.984,67.336 L328.984,87.4 L333.88,87.4 L333.88,67.336 L341.32,67.336 Z M364.864,87.4 L364.864,63.064 L359.968,63.064 L349.552,79.576 L349.552,63.064 L344.656,63.064 L344.656,87.4 L349.552,87.4 L359.968,70.648 L359.968,87.4 L364.864,87.4 Z M391.048,87.4 L391.048,63.064 L371.56,63.064 L371.56,87.4 L376.456,87.4 L376.456,67.336 L386.152,67.336 L386.152,87.4 L391.048,87.4 Z" id="Смени-логотип"></path>
                    <path d="M87.7024,26.1808 L87.7024,25.0384 L79.504,25.0384 L79.504,26.1808 L82.9648,26.1808 L82.9648,37 L84.2416,37 L84.2416,26.1808 L87.7024,26.1808 Z M97.3624,37 L97.3624,35.8576 L91.2136,35.8576 L91.2136,31.54 L96.4552,31.54 L96.4552,30.3976 L91.2136,30.3976 L91.2136,26.1808 L97.3624,26.1808 L97.3624,25.0384 L89.9368,25.0384 L89.9368,37 L97.3624,37 Z M108.232,37 L108.232,25.0384 L100.0168,25.0384 L100.0168,37 L101.2936,37 L101.2936,26.1808 L106.9552,26.1808 L106.9552,37 L108.232,37 Z M119.6224,37 L119.6224,25.0384 L113.0368,25.0384 L113.0368,29.8936 C113.0368,34.8664 111.9784,35.8576 110.5,35.8576 L110.1808,35.8576 L110.1808,37 L110.7856,37 C113.0704,37 114.28,35.32 114.28,30.28 L114.28,26.1808 L118.3456,26.1808 L118.3456,37 L119.6224,37 Z M131.6512,37 L131.6512,25.0384 L130.4416,25.0384 L124.36,34.7824 L124.36,25.0384 L123.0832,25.0384 L123.0832,37 L124.2928,37 L130.3744,27.2392 L130.3744,37 L131.6512,37 Z M144.7552,39.8896 L144.7552,35.8576 L143.3272,35.8576 L143.3272,25.0384 L142.0504,25.0384 L142.0504,35.8576 L136.3888,35.8576 L136.3888,25.0384 L135.112,25.0384 L135.112,37 L143.4952,37 L143.4952,39.8896 L144.7552,39.8896 Z M155.5072,37 L151.1224,25.0384 L150.0472,25.0384 L145.6456,37 L147.0064,37 L147.964,34.2952 L153.1888,34.2952 L154.1464,37 L155.5072,37 Z M152.8192,33.1864 L148.3504,33.1864 L150.6016,26.8696 L152.8192,33.1864 Z M169.8376,37 L169.8376,25.0384 L161.6224,25.0384 L161.6224,37 L162.8992,37 L162.8992,26.1808 L168.5608,26.1808 L168.5608,37 L169.8376,37 Z M181.4632,28.5496 C181.4632,26.4496 179.9848,25.0384 177.7672,25.0384 L173.3152,25.0384 L173.3152,37 L174.592,37 L174.592,32.0776 L177.7672,32.0776 C179.9848,32.0776 181.4632,30.6664 181.4632,28.5496 L181.4632,28.5496 Z M180.1864,28.5496 C180.1864,30.0448 179.2456,30.9352 177.6496,30.9352 L174.592,30.9352 L174.592,26.1808 L177.6496,26.1808 C179.2456,26.1808 180.1864,27.0544 180.1864,28.5496 L180.1864,28.5496 Z M191.3248,37 L191.3248,35.8576 L185.176,35.8576 L185.176,31.54 L190.4176,31.54 L190.4176,30.3976 L185.176,30.3976 L185.176,26.1808 L191.3248,26.1808 L191.3248,25.0384 L183.8992,25.0384 L183.8992,37 L191.3248,37 Z M192.6856,35.8576 L192.6856,39.8896 L193.9456,39.8896 L193.9456,37 L201.9592,37 L201.9592,39.8896 L203.2192,39.8896 L203.2192,35.8576 L201.7912,35.8576 L201.7912,25.0384 L195.256,25.0384 L195.256,29.0704 C195.256,31.9936 194.836,34.144 193.744,35.8576 L192.6856,35.8576 Z M195.172,35.8576 C196.1296,34.1776 196.4656,32.0776 196.4656,29.86 L196.4656,26.1808 L200.5144,26.1808 L200.5144,35.8576 L195.172,35.8576 Z M212.9296,25.0384 L211.5688,25.0384 L208.6624,32.1112 L205.4368,25.0384 L204.076,25.0384 L208.024,33.5392 L207.5368,34.6648 C207.184,35.488 206.7808,35.8576 205.9576,35.8576 L205.2016,35.8576 L205.2016,37 L206.2432,37 C207.436,37 208.1248,36.2272 208.5952,35.1352 L212.9296,25.0384 Z M223.0264,37 L223.0264,25.0384 L214.8112,25.0384 L214.8112,37 L216.088,37 L216.088,26.1808 L221.7496,26.1808 L221.7496,37 L223.0264,37 Z M234.652,28.5496 C234.652,26.4496 233.1736,25.0384 230.956,25.0384 L226.504,25.0384 L226.504,37 L227.7808,37 L227.7808,32.0776 L230.956,32.0776 C233.1736,32.0776 234.652,30.6664 234.652,28.5496 L234.652,28.5496 Z M233.3752,28.5496 C233.3752,30.0448 232.4344,30.9352 230.8384,30.9352 L227.7808,30.9352 L227.7808,26.1808 L230.8384,26.1808 C232.4344,26.1808 233.3752,27.0544 233.3752,28.5496 L233.3752,28.5496 Z M244.5136,37 L244.5136,35.8576 L238.3648,35.8576 L238.3648,31.54 L243.6064,31.54 L243.6064,30.3976 L238.3648,30.3976 L238.3648,26.1808 L244.5136,26.1808 L244.5136,25.0384 L237.088,25.0384 L237.088,37 L244.5136,37 Z M247.1008,37 L252.3592,30.7672 L252.3592,37 L253.636,37 L253.636,30.7672 L258.8944,37 L260.5744,37 L255.0976,30.7168 L260.1208,25.0384 L258.508,25.0384 L253.636,30.7336 L253.636,25.0384 L252.3592,25.0384 L252.3592,30.7336 L247.4704,25.0384 L245.8576,25.0384 L250.8976,30.7168 L245.4208,37 L247.1008,37 Z M260.9944,35.8576 L260.9944,39.8896 L262.2544,39.8896 L262.2544,37 L270.268,37 L270.268,39.8896 L271.528,39.8896 L271.528,35.8576 L270.1,35.8576 L270.1,25.0384 L263.5648,25.0384 L263.5648,29.0704 C263.5648,31.9936 263.1448,34.144 262.0528,35.8576 L260.9944,35.8576 Z M263.4808,35.8576 C264.4384,34.1776 264.7744,32.0776 264.7744,29.86 L264.7744,26.1808 L268.8232,26.1808 L268.8232,35.8576 L263.4808,35.8576 Z M282.28,37 L277.8952,25.0384 L276.82,25.0384 L272.4184,37 L273.7792,37 L274.7368,34.2952 L279.9616,34.2952 L280.9192,37 L282.28,37 Z M279.592,33.1864 L275.1232,33.1864 L277.3744,26.8696 L279.592,33.1864 Z M291.6376,37 L291.6376,35.8576 L285.4888,35.8576 L285.4888,31.54 L290.7304,31.54 L290.7304,30.3976 L285.4888,30.3976 L285.4888,26.1808 L291.6376,26.1808 L291.6376,25.0384 L284.212,25.0384 L284.212,37 L291.6376,37 Z M301.264,26.1808 L301.264,25.0384 L293.0656,25.0384 L293.0656,26.1808 L296.5264,26.1808 L296.5264,37 L297.8032,37 L297.8032,26.1808 L301.264,26.1808 Z" id="ТЕПЛИЦА-ПРЕДУПРЕЖДАЕ"></path>
                    <path d="M32.6842713,61.0443235 C30.1655777,60.3322471 28.32,58.0166512 28.32,55.2699976 C28.32,54.7853724 28.3774561,54.3141669 28.4859281,53.8628212 L24.3044351,51.4486351 C23.2272792,52.4778695 21.7674603,53.1099976 20.16,53.1099976 C18.4929582,53.1099976 16.9847055,52.4301407 15.8973777,51.3325627 L15.8973777,51.3325627 L11.7930907,53.702174 C11.92802,54.2019496 12,54.7275677 12,55.2699976 C12,58.5837061 9.3137085,61.2699976 6,61.2699976 C2.6862915,61.2699976 0,58.5837061 0,55.2699976 C0,51.9562891 2.6862915,49.2699976 6,49.2699976 C7.55629185,49.2699976 8.97419209,49.8625225 10.0404158,50.8342874 L14.2943036,48.3783042 C14.2063219,47.9694624 14.16,47.5451395 14.16,47.1099976 C14.16,43.7962891 16.8462915,41.1099976 20.16,41.1099976 C21.7586348,41.1099976 23.211245,41.7352035 24.2866587,42.7544435 L32.64,37.9316397 L32.64,37.9316397 L32.64,28.1516221 C31.6945859,27.8764213 30.8455864,27.3748379 30.1555983,26.709469 L25.9785125,29.3196019 C26.0970418,29.7901043 26.16,30.2826986 26.16,30.7899976 C26.16,34.1037061 23.4737085,36.7899976 20.16,36.7899976 C16.8462915,36.7899976 14.16,34.1037061 14.16,30.7899976 C14.16,30.3112084 14.2160807,29.8455177 14.3220316,29.3991356 L14.3220316,29.3991356 L9.97163823,26.8874349 C9.31870444,27.4644717 8.53916491,27.9015276 7.68,28.1516221 L7.68,28.1516221 L7.68,33.188373 C10.1760195,33.91494 12,36.219462 12,38.9499976 C12,42.2637061 9.3137085,44.9499976 6,44.9499976 C2.6862915,44.9499976 0,42.2637061 0,38.9499976 C0,36.219462 1.82398054,33.91494 4.32,33.188373 L4.32,28.1516221 C1.82398054,27.4250551 0,25.1205331 0,22.3899976 C0,19.0762891 2.6862915,16.3899976 6,16.3899976 C7.67851005,16.3899976 9.19603874,17.0792407 10.2850029,18.1901437 L14.2843408,15.69108 C14.2028285,15.2968188 14.16,14.8884098 14.16,14.4699976 C14.16,11.1562891 16.8462915,8.46999756 20.16,8.46999756 C23.4737085,8.46999756 26.16,11.1562891 26.16,14.4699976 C26.16,17.7837061 23.4737085,20.4699976 20.16,20.4699976 C18.4781534,20.4699976 16.9579288,19.7780116 15.8685083,18.6632217 L11.8736959,21.1594576 L11.8736959,21.1594576 C11.9564836,21.5566438 12,21.9682388 12,22.3899976 C12,22.9641436 11.9193565,23.5194543 11.7687787,24.0452206 L15.9858499,26.4799478 C17.0657974,25.4338432 18.5377096,24.7899976 20.16,24.7899976 C21.7524275,24.7899976 23.1999621,25.4103577 24.2741145,26.4225885 L28.4845894,23.7915918 L28.4845894,23.7915918 C28.3769835,23.3419436 28.32,22.8726252 28.32,22.3899976 C28.32,19.5726747 30.2617699,17.2088766 32.88,16.5639127 L32.88,12.1360824 C30.2617699,11.4911185 28.32,9.12732037 28.32,6.30999756 C28.32,2.99628906 31.0062915,0.309997559 34.32,0.309997559 C37.6337085,0.309997559 40.32,2.99628906 40.32,6.30999756 C40.32,9.04053309 38.4960195,11.3450551 36,12.0716221 L36,12.0716221 L36,16.628373 C38.4960195,17.35494 40.32,19.659462 40.32,22.3899976 C40.32,25.1205331 38.4960195,27.4250551 36,28.1516221 L36,28.1516221 L36,38.0702037 L43.9594572,42.6655985 C44.7257179,41.8855478 45.7035417,41.3140097 46.8,41.0439127 L46.8,36.6160824 C44.1817699,35.9711185 42.24,33.6073204 42.24,30.7899976 C42.24,27.4762891 44.9262915,24.7899976 48.24,24.7899976 C49.8306764,24.7899976 51.2767784,25.4089941 52.3505696,26.4192507 L56.5171359,23.8156911 C56.4403067,23.4323968 56.4,23.0359042 56.4,22.6299976 C56.4,22.1193513 56.4637918,21.6236045 56.583841,21.1502914 L52.2804158,18.6657077 C51.2141921,19.6374726 49.7962919,20.2299976 48.24,20.2299976 C44.9262915,20.2299976 42.24,17.5437061 42.24,14.2299976 C42.24,10.9162891 44.9262915,8.22999756 48.24,8.22999756 C51.5537085,8.22999756 54.24,10.9162891 54.24,14.2299976 C54.24,14.7724275 54.16802,15.2980455 54.0330907,15.7978212 L58.2920863,18.2567534 L58.2920863,18.2567534 C59.3656055,17.2479741 60.8106347,16.6299976 62.4,16.6299976 C65.7137085,16.6299976 68.4,19.3162891 68.4,22.6299976 C68.4,25.3605331 66.5760195,27.6650551 64.08,28.3916221 L64.08,28.3916221 L64.08,32.948373 C66.5760195,33.67494 68.4,35.979462 68.4,38.7099976 C68.4,42.0237061 65.7137085,44.7099976 62.4,44.7099976 C59.0862915,44.7099976 56.4,42.0237061 56.4,38.7099976 C56.4,35.8926747 58.3417699,33.5288766 60.96,32.8839127 L60.96,28.4560824 C59.8467448,28.1818478 58.8557867,27.5968655 58.0843909,26.7984009 L58.0843909,26.7984009 L54.057302,29.3148053 C54.1766131,29.7867561 54.24,30.2809744 54.24,30.7899976 C54.24,33.5205331 52.4160195,35.8250551 49.92,36.5516221 L49.92,36.5516221 L49.92,41.108373 C52.4160195,41.83494 54.24,44.139462 54.24,46.8699976 C54.24,47.4325421 54.1625826,47.9770049 54.0178209,48.4933129 L58.2499489,50.9367332 C59.327644,49.904326 60.7897443,49.2699976 62.4,49.2699976 C65.7137085,49.2699976 68.4,51.9562891 68.4,55.2699976 C68.4,58.5837061 65.7137085,61.2699976 62.4,61.2699976 C59.0862915,61.2699976 56.4,58.5837061 56.4,55.2699976 C56.4,54.779539 56.4588476,54.3028251 56.5698673,53.8465315 L52.2369623,51.3449276 L52.2369623,51.3449276 C51.1758134,52.2933917 49.7752435,52.8699976 48.24,52.8699976 C44.9262915,52.8699976 42.24,50.1837061 42.24,46.8699976 C42.24,46.4438568 42.2844253,46.028092 42.3688973,45.6270821 L34.2,40.9107671 L25.9824173,45.6551907 C26.098424,46.120981 26.16,46.6082983 26.16,47.1099976 C26.16,47.6031625 26.1005011,48.0824307 25.9882901,48.5410154 L25.9882901,48.5410154 L30.1578785,50.9483284 C31.2367143,49.9090776 32.7037246,49.2699976 34.32,49.2699976 C37.6337085,49.2699976 40.32,51.9562891 40.32,55.2699976 C40.32,58.0564207 38.4205902,60.3992129 35.8459024,61.0742424 L35.8459024,68.9325414 L42.6827022,64.9821531 C42.5504843,64.4870641 42.48,63.9667621 42.48,63.4299976 C42.48,60.1162891 45.1662915,57.4299976 48.48,57.4299976 C51.7937085,57.4299976 54.48,60.1162891 54.48,63.4299976 C54.48,66.7437061 51.7937085,69.4299976 48.48,69.4299976 C46.8445392,69.4299976 45.3619082,68.7756556 44.2796253,67.7144899 L35.8459024,72.5865984 L35.8459024,86.9340765 L66.8658111,86.9340765 C67.4480173,86.9340765 67.92,87.4074537 67.92,87.9892739 C67.92,88.573923 67.4480173,89.0454142 66.8658111,89.0454142 L35.9542418,89.0454142 C36.4997068,93.0446028 40.2962942,93.5811598 46.2163326,94.0649098 C51.9856381,94.538287 58.5246239,95.074844 60.2825475,101.571993 C60.3974814,101.996335 60.1478298,102.430107 59.7276616,102.545151 C59.6570055,102.563068 59.5882336,102.572498 59.5194617,102.572498 C59.1708916,102.572498 58.8524682,102.340524 58.757318,101.986905 C57.4318097,97.0909405 52.6658207,96.2347125 47.7029368,95.7820809 C47.8367123,95.9310721 47.9638933,96.0857212 48.0816534,96.2460283 C49.0293872,97.5275414 50.5131651,98.1244493 52.0836145,98.7562476 C54.0516222,99.5464669 56.0855756,100.365919 57.006931,102.613046 C57.1727373,103.017585 56.9796107,103.48059 56.5745157,103.646555 C56.4765393,103.68616 56.3747945,103.705019 56.275876,103.705019 C55.9640471,103.705019 55.6691757,103.521138 55.5438789,103.212783 C54.8759433,101.585195 53.3092622,100.955283 51.4948137,100.226357 C50.8080365,99.9500633 50.1127806,99.6662256 49.4476712,99.321094 C49.6445662,100.058506 49.8000096,100.810063 49.9460322,101.542761 C50.210757,102.864822 50.4613506,104.11616 50.9399279,105.165699 C51.1217496,105.563638 50.9474646,106.033243 50.5499063,106.215239 C50.4434511,106.263331 50.3322855,106.286905 50.222062,106.286905 C49.9215381,106.286905 49.6351454,106.11434 49.5023119,105.824844 C48.9455419,104.607454 48.6657438,103.206182 48.3953665,101.853945 C47.7472146,98.6157432 47.1876184,95.8188572 43.3156645,95.3907432 C43.3053016,95.3898002 43.297765,95.3879142 43.2892862,95.3860283 C40.5431194,95.07673 37.9844268,94.5298002 36.304696,93.0578046 C37.0922759,94.8975633 38.2623408,96.2422563 39.4116799,97.5548879 C39.8864888,98.0989888 40.364124,98.6478046 40.8134968,99.2277388 C40.8210334,99.2352826 40.8304542,99.2428265 40.8379909,99.2513133 C41.3099736,99.863309 41.860149,100.381949 42.4432973,100.93548 C43.2223985,101.670063 44.0391829,102.448967 44.7052343,103.492848 C44.7203076,103.511708 44.7353809,103.528682 44.7485701,103.55037 C45.6265898,104.949756 48.215429,107.806993 49.8574766,108.733002 C50.2380774,108.946116 50.372795,109.428923 50.1589426,109.810831 C50.0138621,110.068265 49.7453689,110.213484 49.4693391,110.213484 C49.3374477,110.213484 49.2046143,110.18048 49.0821437,110.112585 C48.157962,109.591116 47.0519587,108.622673 46.0382793,107.58162 C46.1334295,108.556664 46.1334295,109.662783 45.9949435,110.963155 C45.9516078,111.370524 45.6096323,111.670392 45.2101899,111.670392 C45.1819274,111.670392 45.1546071,111.668506 45.1263446,111.66662 C44.6929873,111.621357 44.3773901,111.230019 44.423552,110.796248 C44.8088633,107.165765 44.0975919,105.243024 43.0104302,103.824778 C43.4908916,106.290677 43.1800048,109.55434 41.3533093,114.304142 C41.2317808,114.619098 40.932199,114.81241 40.6147176,114.81241 C40.5195674,114.81241 40.4234751,114.794493 40.3311512,114.759603 C39.92323,114.601182 39.7197404,114.143835 39.877068,113.735524 C43.4164672,104.537673 41.0094497,101.78605 38.2218313,98.5978265 C37.1177121,97.33423 35.9391685,95.9791642 35.0715117,94.1686379 C35.3211632,97.2682212 35.7224898,99.8114449 36.0701178,102.016138 C37.1186542,108.651905 37.7498486,112.659581 32.547676,119.979011 C32.3941168,120.195897 32.1501178,120.309998 31.9032925,120.309998 C31.7440807,120.309998 31.584869,120.264734 31.445441,120.164778 C31.0893343,119.910173 31.0064311,119.416993 31.259851,119.061489 C35.0818745,113.68366 35.5255948,110.335129 35.040423,105.973835 C34.7182312,106.530195 34.3413987,106.996028 33.9702187,107.454318 C32.9819755,108.677366 32.048373,109.832519 32.245268,113.077322 C32.2716462,113.513923 31.9400336,113.890173 31.50385,113.915634 C31.4878347,113.917519 31.4718193,113.917519 31.4558039,113.917519 C31.0403461,113.917519 30.691776,113.593134 30.6663398,113.173506 C30.4327037,109.314822 31.6592934,107.799449 32.7408027,106.460414 C33.8194857,105.125151 34.750262,103.971884 34.1906657,100.211269 C33.9447825,98.572366 33.7045518,96.7486379 33.5264984,94.6769055 C32.6767412,96.4082212 31.271156,98.2960721 28.940447,100.264077 L28.9395049,100.264077 C26.1584811,102.61116 26.9130882,105.171357 27.7854554,108.132322 C28.3572987,110.073923 28.9489257,112.079647 28.5815141,114.166467 C28.5146263,114.551204 28.1801875,114.819954 27.804297,114.819954 C27.7581351,114.819954 27.7119731,114.816182 27.6658111,114.808638 C27.23528,114.733199 26.9488873,114.323002 27.0242538,113.892059 C27.3266619,112.172059 26.7896756,110.346445 26.2696467,108.582125 C26.0341264,107.782476 25.7920115,106.95548 25.6243211,106.116226 C25.553665,106.425524 25.4877193,106.734822 25.4208315,107.049778 C24.8367412,109.784427 24.2328671,112.615261 20.566287,115.020809 C20.4334535,115.107563 20.2817784,115.149998 20.1338717,115.149998 C19.8766835,115.149998 19.6232636,115.024581 19.4715886,114.792607 C19.2322999,114.425787 19.3349868,113.936379 19.6995722,113.696862 C22.8216294,111.648704 23.3086854,109.3648 23.8739342,106.717848 C24.1198174,105.56741 24.3836001,104.344362 24.9036289,103.109998 C24.6737611,103.248616 24.4467195,103.382519 24.2347513,103.507936 C21.9172314,104.879976 20.6397693,105.633419 20.1272771,108.54912 C20.0603893,108.933857 19.7268926,109.204493 19.3500601,109.204493 C19.3038981,109.204493 19.2596203,109.200721 19.2125162,109.191291 C18.7829272,109.115853 18.4946503,108.705655 18.5700168,108.274712 C19.20969,104.642344 20.9798606,103.594691 23.4302139,102.145327 C24.7227493,101.380568 26.1886277,100.51491 27.9182889,99.056116 C27.919231,99.056116 27.920173,99.05423 27.920173,99.05423 C30.6512665,96.7486379 31.9796011,94.6118397 32.6277529,92.7296467 C32.4167267,92.9880239 32.1953377,93.2379142 31.9485124,93.4698879 C29.5980197,95.6745809 25.7684595,96.6232212 20.5634607,96.3026072 C18.2515934,96.7297783 17.9915789,97.9896028 17.6382985,100.767629 C17.3170488,103.293879 16.9166643,106.437783 14.1563663,109.707103 C13.9999808,109.893813 13.7776496,109.989055 13.5524922,109.989055 C13.3716126,109.989055 13.190733,109.926818 13.0428262,109.801401 C12.7093295,109.519449 12.6669358,109.020612 12.9486181,108.686796 C15.4074501,105.77298 15.7739197,102.887454 16.0697332,100.56866 C16.2751069,98.9589888 16.4767123,97.4058967 17.3905311,96.2828046 C16.530411,96.3384405 15.7484835,96.4431116 15.0381543,96.5883309 C13.0183321,97.4285283 12.9307186,98.4912695 12.7762173,100.408353 C12.6716462,101.691752 12.5444653,103.288221 11.6843451,105.05537 C11.5486854,105.336379 11.2670031,105.500458 10.9740159,105.500458 C10.8581399,105.500458 10.7403797,105.474998 10.628272,105.421248 C10.2354242,105.229822 10.0724441,104.756445 10.2636866,104.362278 C10.9919154,102.862936 11.1021389,101.492783 11.2001154,100.28105 C11.2679452,99.4361379 11.3376592,98.6091423 11.6042682,97.8443835 C8.56322999,99.6030458 8.08371065,102.196248 8.05544821,102.369756 C7.99138669,102.756379 7.65506369,103.030787 7.27634703,103.030787 C7.2330113,103.030787 7.18873348,103.027015 7.14445566,103.019471 C6.71486662,102.947805 6.42376352,102.541379 6.49536169,102.109493 C6.88349916,99.7840984 9.03144436,96.3384405 14.4625427,95.1153923 C14.4710214,95.1116204 14.4766739,95.1078484 14.4851526,95.1040765 C14.5793607,95.0654142 14.6745109,95.0484405 14.7696611,95.0465546 C16.3994617,94.7136818 18.3137707,94.5731774 20.5559241,94.7174537 C25.2974189,95.0286379 28.8613122,94.1978704 30.8670031,92.3156774 C31.9843115,91.2689669 32.4525258,90.0742081 32.6258688,89.0454142 L1.66248498,89.0454142 C1.08027878,89.0454142 0.608296083,88.573923 0.608296083,87.9892739 C0.608296083,87.4074537 1.08027878,86.9340765 1.66248498,86.9340765 L32.6833357,86.9340765 L32.6833357,72.5865984 L24.2272146,67.6991204 C23.5645738,68.3463911 22.7496922,68.8390399 21.8415312,69.1157069 C21.2382762,69.3195093 20.592041,69.4299976 19.92,69.4299976 C16.6062915,69.4299976 13.92,66.7437061 13.92,63.4299976 C13.92,60.1162891 16.6062915,57.4299976 19.92,57.4299976 C22.2566658,57.4299976 24.2813558,58.7657246 25.2721705,60.7152792 C25.7286816,61.5482081 25.9926748,62.5007123 25.9926748,63.5160502 C25.9926748,64.0139449 25.9239029,64.493923 25.8070848,64.9550414 L32.6833357,68.9306555 L32.6842713,61.0443235 Z M51.3239055,65.2201777 C51.6508304,64.70191 51.84,64.0880452 51.84,63.4299976 C51.84,61.5743208 50.3356768,60.0699976 48.48,60.0699976 C47.1914618,60.0699976 46.0723317,60.79532 45.5086235,61.8599511 L45.6020957,61.913923 C45.3288921,62.3854142 45.1706224,62.932344 45.1706224,63.5160502 C45.1706224,64.1016423 45.3307763,64.6504581 45.6049219,65.1238353 C46.1616919,66.0837914 47.195155,66.7306774 48.3821774,66.7306774 C49.5673155,66.7306774 50.6017207,66.0837914 51.1575487,65.1238353 L51.3239055,65.2201777 Z M20.9574355,66.6267807 C22.3053992,66.1896417 23.28,64.9236347 23.28,63.4299976 C23.28,61.5743208 21.7756768,60.0699976 19.92,60.0699976 C18.0643232,60.0699976 16.56,61.5743208 16.56,63.4299976 C16.56,64.112757 16.7636442,64.7479528 17.1135058,65.2781583 L17.3735737,65.1276072 C17.9294016,66.0856774 18.9619226,66.7306774 20.1461187,66.7306774 C20.4264846,66.7306774 20.698362,66.6945803 20.9574355,66.6267807 Z M37.1735882,57.0447353 C37.4945627,56.529734 37.68,55.9215214 37.68,55.2699976 C37.68,53.4143208 36.1756768,51.9099976 34.32,51.9099976 C32.4643232,51.9099976 30.96,53.4143208 30.96,55.2699976 C30.96,55.9015301 31.134232,56.4923685 31.4372497,56.9970666 L31.4859505,56.968923 C32.0417784,57.9279362 33.0771257,58.5767081 34.264148,58.5767081 C35.4530546,58.5767081 36.4874597,57.9279362 37.0423456,56.968923 L37.1735882,57.0447353 Z M6,25.7499976 C7.85567676,25.7499976 9.36,24.2456743 9.36,22.3899976 C9.36,20.5343208 7.85567676,19.0299976 6,19.0299976 C4.14432324,19.0299976 2.64,20.5343208 2.64,22.3899976 C2.64,24.2456743 4.14432324,25.7499976 6,25.7499976 Z M6,42.3099976 C7.85567676,42.3099976 9.36,40.8056743 9.36,38.9499976 C9.36,37.0943208 7.85567676,35.5899976 6,35.5899976 C4.14432324,35.5899976 2.64,37.0943208 2.64,38.9499976 C2.64,40.8056743 4.14432324,42.3099976 6,42.3099976 Z M20.16,17.8299976 C22.0156768,17.8299976 23.52,16.3256743 23.52,14.4699976 C23.52,12.6143208 22.0156768,11.1099976 20.16,11.1099976 C18.3043232,11.1099976 16.8,12.6143208 16.8,14.4699976 C16.8,16.3256743 18.3043232,17.8299976 20.16,17.8299976 Z M34.32,9.66999756 C36.1756768,9.66999756 37.68,8.16567432 37.68,6.30999756 C37.68,4.4543208 36.1756768,2.94999756 34.32,2.94999756 C32.4643232,2.94999756 30.96,4.4543208 30.96,6.30999756 C30.96,8.16567432 32.4643232,9.66999756 34.32,9.66999756 Z M34.32,25.7499976 C36.1756768,25.7499976 37.68,24.2456743 37.68,22.3899976 C37.68,20.5343208 36.1756768,19.0299976 34.32,19.0299976 C32.4643232,19.0299976 30.96,20.5343208 30.96,22.3899976 C30.96,24.2456743 32.4643232,25.7499976 34.32,25.7499976 Z M20.16,34.1499976 C22.0156768,34.1499976 23.52,32.6456743 23.52,30.7899976 C23.52,28.9343208 22.0156768,27.4299976 20.16,27.4299976 C18.3043232,27.4299976 16.8,28.9343208 16.8,30.7899976 C16.8,32.6456743 18.3043232,34.1499976 20.16,34.1499976 Z M48.24,17.5899976 C50.0956768,17.5899976 51.6,16.0856743 51.6,14.2299976 C51.6,12.3743208 50.0956768,10.8699976 48.24,10.8699976 C46.3843232,10.8699976 44.88,12.3743208 44.88,14.2299976 C44.88,16.0856743 46.3843232,17.5899976 48.24,17.5899976 Z M62.4,25.9899976 C64.2556768,25.9899976 65.76,24.4856743 65.76,22.6299976 C65.76,20.7743208 64.2556768,19.2699976 62.4,19.2699976 C60.5443232,19.2699976 59.04,20.7743208 59.04,22.6299976 C59.04,24.4856743 60.5443232,25.9899976 62.4,25.9899976 Z M62.4,42.0699976 C64.2556768,42.0699976 65.76,40.5656743 65.76,38.7099976 C65.76,36.8543208 64.2556768,35.3499976 62.4,35.3499976 C60.5443232,35.3499976 59.04,36.8543208 59.04,38.7099976 C59.04,40.5656743 60.5443232,42.0699976 62.4,42.0699976 Z M48.24,34.1499976 C50.0956768,34.1499976 51.6,32.6456743 51.6,30.7899976 C51.6,28.9343208 50.0956768,27.4299976 48.24,27.4299976 C46.3843232,27.4299976 44.88,28.9343208 44.88,30.7899976 C44.88,32.6456743 46.3843232,34.1499976 48.24,34.1499976 Z M48.24,50.2299976 C50.0956768,50.2299976 51.6,48.7256743 51.6,46.8699976 C51.6,45.0143208 50.0956768,43.5099976 48.24,43.5099976 C46.3843232,43.5099976 44.88,45.0143208 44.88,46.8699976 C44.88,48.7256743 46.3843232,50.2299976 48.24,50.2299976 Z M62.4,58.6299976 C64.2556768,58.6299976 65.76,57.1256743 65.76,55.2699976 C65.76,53.4143208 64.2556768,51.9099976 62.4,51.9099976 C60.5443232,51.9099976 59.04,53.4143208 59.04,55.2699976 C59.04,57.1256743 60.5443232,58.6299976 62.4,58.6299976 Z M20.16,50.4699976 C22.0156768,50.4699976 23.52,48.9656743 23.52,47.1099976 C23.52,45.2543208 22.0156768,43.7499976 20.16,43.7499976 C18.3043232,43.7499976 16.8,45.2543208 16.8,47.1099976 C16.8,48.9656743 18.3043232,50.4699976 20.16,50.4699976 Z M6,58.6299976 C7.85567676,58.6299976 9.36,57.1256743 9.36,55.2699976 C9.36,53.4143208 7.85567676,51.9099976 6,51.9099976 C4.14432324,51.9099976 2.64,53.4143208 2.64,55.2699976 C2.64,57.1256743 4.14432324,58.6299976 6,58.6299976 Z" id="Oval-1"></path>
                </g>
            </g>
        </g>
    </g>
</svg>