<?xml version="1.0" encoding="UTF-8" standalone="no"?>
<svg width="280px" height="86px" viewBox="0 0 280 86" version="1.1" xmlns="http://www.w3.org/2000/svg" xmlns:xlink="http://www.w3.org/1999/xlink" xmlns:sketch="http://www.bohemiancoding.com/sketch/ns">
    <!-- Generator: Sketch 3.4 (15575) - http://www.bohemiancoding.com/sketch -->
    <title>Fill 1 + Fill 4 + Fill 6 + Fill 8 + Fill 11</title>
    <desc>Created with Sketch.</desc>
    <defs></defs>
    <g id="Page-2" stroke="none" stroke-width="1" fill="none" fill-rule="evenodd" sketch:type="MSPage">
        <g id="Artboard-2" sketch:type="MSArtboardGroup" transform="translate(-146.000000, -170.000000)">
            <g id="Fill-1-+-Fill-4-+-Fill-6-+-Fill-8-+-Fill-11" sketch:type="MSLayerGroup" transform="translate(146.000000, 170.000000)">
                <path d="M263.515313,57.4068518 L265.505619,73.10464 C264.710419,74.1844518 263.987689,75.1015341 263.350607,75.8604988 C262.706936,76.6273694 262.128489,77.2348047 261.619219,77.6992753 C261.111266,78.1578165 260.675125,78.4938165 260.318042,78.7006871 C259.958325,78.9161224 259.620348,79.0643576 259.30016,79.1519812 C258.977336,79.24224 258.593242,79.2863812 258.149195,79.2863812 C257.740066,79.2863812 257.434372,79.1519812 257.22816,78.8732988 C257.017336,78.5919812 256.905336,78.2144753 256.890184,77.7420988 L255.259595,77.7420988 L254.358325,81.6627576 C254.695642,81.78464 255.094231,81.8834635 255.569242,81.96384 C256.044913,82.04224 256.475784,82.0771576 256.84736,82.0771576 C257.578654,82.0771576 258.264489,81.9915106 258.912772,81.8202165 C259.566325,81.6410165 260.22976,81.3484988 260.924819,80.9347576 C261.619219,80.5262871 262.376207,79.9181929 263.201054,79.1229929 C264.258466,78.0787576 265.574795,76.5259106 267.141478,74.4723576 C269.180536,71.8021459 271.033807,69.2274635 272.709854,66.7595106 C274.37536,64.2843106 275.787878,62.0014871 276.939501,59.9182871 C278.101007,57.8364047 279.041148,55.8263341 279.777054,53.8880753 L279.213101,52.8359341 L273.802842,52.8359341 L273.596631,53.8656753 C274.269948,53.9091576 274.741666,54.0428988 275.019031,54.2807341 C275.300348,54.52384 275.442654,54.9678871 275.442654,55.6247341 C275.442654,58.4168282 273.082089,63.0457224 268.357666,69.49824 L266.760678,52.8359341 L261.375454,52.8359341 L261.147501,53.8656753 C261.777995,53.9091576 262.225336,54.0369694 262.50336,54.2530635 C262.787313,54.4671812 262.993525,54.7820988 263.112113,55.1945224 C263.243219,55.6029929 263.371689,56.3421929 263.515313,57.4068518 L263.515313,57.4068518 Z M242.459972,52.8359341 L248.670701,52.8359341 L247.68576,56.6913694 C247.476254,57.5300518 247.310889,58.2936282 247.205478,58.9801224 C247.091501,59.6613459 247.033525,60.26944 247.033525,60.7971576 C247.033525,61.1074635 247.067784,61.4078871 247.140913,61.6997459 C247.210089,61.9929224 247.320113,62.2590871 247.476254,62.4883576 C247.625148,62.7242165 247.835972,62.9020988 248.106748,63.0384753 C248.372254,63.1669459 248.701007,63.2315106 249.08576,63.2315106 C249.615454,63.2315106 250.157666,63.0668047 250.711736,62.7321224 C251.260536,62.3948047 251.839642,61.9145224 252.443784,61.2853459 C253.223172,60.4921224 253.851031,59.6396047 254.333289,58.7455812 C254.801713,57.8515576 255.152866,56.9054871 255.376207,55.8968282 L256.069948,52.8359341 L259.654607,52.8359341 L256.505431,67.1956518 C256.212913,68.5416282 256.069948,69.5272282 256.069948,70.1715576 C256.069948,70.7868988 256.256395,71.2019576 256.637195,71.4160753 C257.011407,71.6380988 257.600395,71.7810635 258.395595,71.8462871 L258.166325,72.8766871 L251.669666,72.8766871 L254.494042,61.2425224 L254.266089,61.1555576 C253.772631,61.7985694 253.257431,62.4027106 252.705995,62.9594165 C252.147313,63.51744 251.593242,63.9983812 251.017431,64.3976282 C250.443595,64.7968753 249.864489,65.1124518 249.286042,65.3423812 C248.706936,65.5716518 248.134419,65.6862871 247.576395,65.6862871 C246.766042,65.6862871 246.096019,65.5644047 245.558419,65.3068047 C245.016207,65.0557929 244.591925,64.72704 244.279642,64.3119812 C243.961431,63.9035106 243.742042,63.4304753 243.621478,62.8948518 C243.492348,62.3658165 243.428442,61.8137224 243.428442,61.2425224 C243.428442,60.8505224 243.468631,60.4058165 243.542419,59.9031341 C243.621478,59.3964988 243.705807,58.9234635 243.806607,58.4748047 C243.849431,58.2369694 243.898842,57.9866165 243.946936,57.7290165 C244.007548,57.4727341 244.065525,57.2197459 244.105713,56.9628047 C244.153807,56.7131106 244.200584,56.4772518 244.226936,56.2611576 C244.248019,56.0483576 244.264489,55.8704753 244.264489,55.73344 C244.264489,55.4330165 244.233525,55.1833224 244.16896,54.9744753 C244.105713,54.7669459 243.998325,54.5890635 243.849431,54.4381929 C243.690654,54.2939106 243.492348,54.1740047 243.240678,54.0876988 C242.989666,53.9941459 242.666842,53.9282635 242.277478,53.8880753 L242.459972,52.8359341 Z M228.042278,62.0581459 C229.327642,62.0449694 230.458184,61.9724988 231.424678,61.8427106 C232.397101,61.7076518 233.235125,61.5291106 233.926231,61.2912753 C234.627219,61.0633224 235.206325,60.7925459 235.675407,60.4690635 C236.133289,60.1482165 236.498936,59.7898165 236.769713,59.4116518 C237.041148,59.0242635 237.233525,58.6171106 237.333666,58.1934871 C237.439736,57.7659106 237.492442,57.3205459 237.492442,56.8639812 C237.492442,56.01344 237.297431,55.3381459 236.897525,54.8618165 C236.498936,54.3815341 235.910607,54.1377694 235.123972,54.1377694 C234.148254,54.1377694 233.182419,54.4882635 232.244254,55.1945224 C231.30016,55.8968282 230.473995,56.8501459 229.748631,58.0432753 C229.025901,59.2377224 228.462607,60.5751341 228.042278,62.0581459 L228.042278,62.0581459 Z M239.192866,68.7050165 C238.159831,69.8355576 237.16896,70.7289224 236.215642,71.3870871 C235.266936,72.0478871 234.313619,72.5123576 233.362278,72.7897224 C232.418184,73.0684047 231.369336,73.2120282 230.220348,73.2120282 C229.120772,73.2120282 228.170089,73.0334871 227.367642,72.6750871 C226.57376,72.3193224 225.914936,71.8324518 225.390513,71.2098635 C224.863454,70.5866165 224.476066,69.8500518 224.226372,68.9916047 C223.976678,68.1252518 223.848207,67.1956518 223.848207,66.1856753 C223.848207,64.6914635 224.118984,63.0885459 224.652631,61.3788988 C225.192207,59.6672753 226.009148,58.13024 227.096866,56.7710871 C228.191172,55.4053459 229.489054,54.3518871 231.016207,53.5988518 C232.539407,52.8570165 234.164725,52.4781929 235.880301,52.4781929 C237.570842,52.4781929 238.835784,52.82144 239.686984,53.5085929 C240.534231,54.1944282 240.95456,55.2604047 240.95456,56.7131106 C240.95456,59.0888282 239.838513,60.8696282 237.614325,62.0581459 C235.380254,63.2453459 232.076254,63.8396047 227.681242,63.8396047 C227.517854,64.6763106 227.431548,65.5854871 227.431548,66.5651576 C227.431548,68.0336753 227.718136,69.0976753 228.288019,69.7637459 C228.862513,70.4291576 229.800019,70.7579106 231.101854,70.7579106 C232.387878,70.7579106 233.553995,70.4792282 234.599548,69.9218635 C235.651689,69.36384 236.748631,68.5047341 237.891031,67.3465224 L239.192866,68.7050165 Z M208.318419,65.57824 C208.174795,66.3233694 208.086513,66.8879812 208.050278,67.2819576 C208.017336,67.6673694 208.001525,68.0547576 208.001525,68.4329224 C208.001525,69.5219576 208.230136,70.31584 208.701854,70.80864 C209.168301,71.3093459 209.976678,71.5531106 211.121713,71.5531106 C211.835878,71.5531106 212.496678,71.4160753 213.090278,71.1380518 C213.687831,70.8593694 214.260348,70.45024 214.800584,69.9218635 C215.333572,69.3928282 215.821101,68.7471812 216.260536,67.9901929 C216.689431,67.2384753 217.080772,66.3589459 217.418089,65.3647812 C217.762654,64.3620518 218.018278,63.3402165 218.198795,62.2788518 C218.369431,61.2267106 218.455078,60.2338635 218.455078,59.3101929 C218.455078,57.8443106 218.252819,56.7572518 217.83776,56.0332047 C217.424678,55.3104753 216.775078,54.9520753 215.879736,54.9520753 C215.17216,54.9520753 214.464584,55.1945224 213.776113,55.6748047 C213.081054,56.1629929 212.322089,56.9272282 211.502513,57.9938635 C210.677007,59.0532518 210.033336,60.1053929 209.568207,61.1351341 C209.110325,62.1721224 208.744678,63.3599812 208.479831,64.6987106 L208.318419,65.57824 Z M205.79776,76.5904753 C205.655454,77.2539106 205.569148,77.7770165 205.532913,78.1354165 C205.496678,78.5010635 205.483501,78.8008282 205.483501,79.0366871 C205.483501,79.4596518 205.553995,79.7890635 205.692348,80.0242635 C205.83136,80.26144 206.046795,80.4472282 206.339972,80.5691106 C206.636442,80.6962635 207.120678,80.7911341 207.787407,80.8629459 L207.619407,81.8907106 L201.147125,81.8907106 L206.449995,58.5802165 C206.715501,57.4068518 206.843313,56.3988518 206.843313,55.5601694 C206.843313,55.1681694 206.785336,54.8677459 206.669384,54.6509929 C206.547501,54.4302871 206.350513,54.2728282 206.062607,54.1667576 C205.776019,54.0666165 205.291784,53.9875576 204.603313,53.9434165 L204.853007,52.8359341 L209.611031,52.6481694 L210.804819,52.6481694 L209.406795,58.1025694 L209.652536,58.1809694 C212.23776,54.3933929 214.812442,52.4999341 217.366042,52.4999341 C218.889901,52.4999341 220.079078,53.0783812 220.923031,54.2464753 C221.767642,55.4053459 222.191266,57.0339576 222.191266,59.1461459 C222.191266,60.6548518 221.980442,62.1721224 221.574607,63.69664 C221.160866,65.2211576 220.587031,66.5941459 219.851125,67.8248282 C219.119172,69.0548518 218.304866,70.0661459 217.402936,70.8514635 C216.501666,71.6460047 215.550325,72.2336753 214.546936,72.6269929 C213.544207,73.0209694 212.496678,73.2120282 211.393148,73.2120282 C209.534607,73.2120282 207.995595,72.8061929 206.763595,71.9964988 L205.79776,76.5904753 Z M188.966795,56.9423812 C188.966795,55.5048282 188.613666,54.4012988 187.912019,53.6436518 C187.211031,52.8860047 186.196442,52.4999341 184.851784,52.4999341 C183.553901,52.4999341 182.265242,52.9637459 180.993713,53.8946635 C179.726795,54.8249224 178.446701,56.2473224 177.156725,58.1572518 L176.907031,58.0795106 L178.287925,52.6481694 L177.117854,52.6481694 L172.336113,52.8359341 L172.086419,53.9434165 C172.774889,53.9875576 173.260442,54.0666165 173.546372,54.1667576 C173.83296,54.2728282 174.030607,54.4302871 174.155125,54.6509929 C174.267784,54.8677459 174.332348,55.1681694 174.332348,55.5601694 C174.332348,55.9831341 174.267784,56.5055812 174.155125,57.1360753 C174.030607,57.7659106 173.938372,58.2369694 173.869195,58.5591341 L170.683784,72.8766871 L174.310607,72.8766871 L176.211972,63.7961224 C176.465619,62.5450165 176.825336,61.4579576 177.272678,60.5402165 C177.73056,59.6257694 178.333384,58.6955106 179.090372,57.7441694 C179.842748,56.7921694 180.557572,56.0911812 181.237478,55.63264 C181.917384,55.1833224 182.532725,54.9520753 183.091407,54.9520753 C183.846419,54.9520753 184.401148,55.1681694 184.758231,55.5891576 C185.113995,56.0193694 185.293854,56.7341929 185.293854,57.7441694 C185.293854,58.1855812 185.243125,58.7244988 185.139031,59.3457694 C185.029666,59.9690165 184.828066,60.9289224 184.534889,62.2300988 L182.130184,72.8766871 L185.751078,72.8766871 L187.66496,63.7183812 C187.942325,62.4152282 188.31456,61.3149929 188.786278,60.4124047 C189.252725,59.5124518 189.858842,58.6019576 190.596725,57.6789459 C191.340536,56.7572518 192.050748,56.0687812 192.720772,55.6247341 C193.400019,55.1754165 194.016019,54.9520753 194.558889,54.9520753 C195.311266,54.9520753 195.86336,55.1681694 196.213854,55.5891576 C196.564348,56.0193694 196.734984,56.7341929 196.734984,57.7441694 C196.734984,58.38784 196.665148,59.1026635 196.520866,59.8892988 C196.368678,60.6779106 196.198042,61.4579576 196.006984,62.2300988 L193.367078,72.8766871 L199.950701,72.8766871 L200.135831,71.8462871 C199.462513,71.7810635 198.984207,71.68224 198.688395,71.5531106 C198.395219,71.4312282 198.182419,71.2460988 198.038136,71.0089224 C197.90176,70.7717459 197.829289,70.4429929 197.829289,70.0292518 C197.829289,69.44224 197.943925,68.6404518 198.188348,67.6396988 L199.950701,60.1772047 C200.227407,58.9162165 200.363784,57.8364047 200.363784,56.9423812 C200.363784,55.47584 200.019219,54.3736282 199.32416,53.6225694 C198.639642,52.8780988 197.630984,52.4999341 196.299501,52.4999341 C195.012819,52.4999341 193.766325,52.9116988 192.565948,53.7372047 C191.367548,54.5600753 190.157948,55.8335812 188.945054,57.5517929 C188.957572,57.4424282 188.966795,57.3363576 188.966795,57.2348988 L188.966795,56.9423812 Z M167.512207,57.8640753 C167.481901,56.8079812 167.396913,56.0332047 167.252631,55.5601694 C167.099784,55.0884518 166.865242,54.7313694 166.536489,54.4961694 C166.207078,54.2530635 165.741948,54.1377694 165.14176,54.1377694 C163.733195,54.1377694 162.465619,54.6957929 161.342984,55.8263341 C160.213101,56.9496282 159.29536,58.5459576 158.579219,60.60544 C157.87296,62.66624 157.513242,64.64864 157.513242,66.5440753 C157.513242,67.1324047 157.565289,67.6831812 157.67136,68.2043106 C157.770842,68.7208282 157.957948,69.1648753 158.213572,69.54304 C158.473148,69.9218635 158.817713,70.2137224 159.247266,70.4370635 C159.667595,70.6511812 160.213101,70.7579106 160.871266,70.7579106 C162.136207,70.7579106 163.239736,70.5148047 164.169336,70.0345224 C165.098278,69.5562165 166.075972,68.7985694 167.116254,67.7596047 L168.38976,69.0423341 C167.082654,70.4937224 165.757101,71.5531106 164.419031,72.2257694 C163.089525,72.8984282 161.651313,73.2350871 160.112301,73.2350871 C158.086419,73.2350871 156.548725,72.6335812 155.503831,71.4312282 C154.453007,70.2288753 153.929242,68.4816753 153.929242,66.1856753 C153.929242,64.6914635 154.209901,63.0536282 154.767266,61.2636047 C155.323972,59.4762165 156.141572,57.8996518 157.220725,56.5477459 C158.292631,55.1899106 159.554936,54.1792753 160.993148,53.5085929 C162.429384,52.8359341 163.967078,52.4999341 165.606889,52.4999341 C166.722936,52.4999341 167.69536,52.56384 168.526136,52.6923106 C169.362184,52.8135341 170.098748,52.9637459 170.745054,53.1291106 L169.715313,57.8640753 L167.512207,57.8640753 Z M146.127454,54.1595106 C145.217619,54.1595106 144.380913,54.3650635 143.606795,54.7748518 C142.84256,55.1899106 142.149478,55.7393694 141.526231,56.4337694 C140.904301,57.1215812 140.362089,57.9299576 139.901572,58.8516518 C139.436442,59.7753224 139.065525,60.7556518 138.770372,61.7873694 L140.278419,61.7873694 C141.956442,61.7873694 143.365666,61.6641694 144.503454,61.4078871 C145.639266,61.1555576 146.557666,60.8142871 147.257336,60.3834165 C147.958984,59.9472753 148.459689,59.4531576 148.760113,58.88064 C149.059878,58.3160282 149.212066,57.7217694 149.212066,57.0925929 C149.212066,56.7572518 149.15936,56.4126871 149.059878,56.0621929 C148.961054,55.7189459 148.795689,55.4053459 148.56576,55.1240282 C148.337148,54.8387576 148.022889,54.6094871 147.622984,54.4302871 C147.227031,54.2464753 146.728301,54.1595106 146.127454,54.1595106 L146.127454,54.1595106 Z M147.364725,67.1093459 C147.364725,65.8292518 146.934513,64.9055812 146.084631,64.3488753 C145.230795,63.7836047 144.023172,63.5022871 142.455172,63.5022871 L138.390889,63.5022871 C138.334231,63.7763576 138.278231,64.0622871 138.219595,64.36864 C138.170184,64.6763106 138.120772,64.9767341 138.075313,65.2857224 C138.033148,65.5920753 138.006136,65.8938165 137.985054,66.1790871 C137.963313,66.4669929 137.94816,66.7219576 137.94816,66.94464 C137.94816,67.8248282 138.041713,68.5613929 138.213007,69.1569694 C138.38496,69.7479341 138.643219,70.2209694 138.964725,70.5793694 C139.292819,70.9371106 139.703266,71.1947106 140.195407,71.34624 C140.68096,71.5023812 141.240301,71.5755106 141.870795,71.5755106 C142.52896,71.5755106 143.185148,71.5023812 143.845289,71.34624 C144.496207,71.1947106 145.088489,70.9450165 145.612913,70.6017694 C146.134042,70.2578635 146.557666,69.7999812 146.879172,69.2274635 C147.200678,68.6562635 147.364725,67.9539576 147.364725,67.1093459 L147.364725,67.1093459 Z M152.753242,56.92064 C152.753242,58.2369694 152.237384,59.3325929 151.205666,60.2114635 C150.183172,61.1002165 148.789101,61.7722165 147.028725,62.2511812 L147.028725,62.4797929 C148.243595,62.7597929 149.196913,63.2888282 149.875501,64.0622871 C150.562654,64.8324518 150.905242,65.7692988 150.905242,66.8583341 C150.905242,67.7404988 150.706278,68.5613929 150.299125,69.3355106 C149.890654,70.0997459 149.302984,70.7717459 148.539407,71.34624 C147.764631,71.91744 146.822513,72.3772988 145.697242,72.7100047 C144.572631,73.0407341 143.287925,73.2120282 141.848395,73.2120282 C140.437854,73.2120282 139.25856,73.0334871 138.307878,72.6915576 C137.353242,72.3410635 136.595595,71.8541929 136.025054,71.2309459 C135.451878,70.6096753 135.042748,69.8717929 134.793054,69.0205929 C134.549948,68.1680753 134.427407,67.2312282 134.427407,66.2074165 C134.427407,65.57824 134.478795,64.9411576 134.577619,64.29024 C134.671831,63.6399812 134.799642,62.9884047 134.950513,62.33024 C135.345148,60.62784 135.945995,59.16064 136.746466,57.9220518 C137.548913,56.6841224 138.477854,55.6609694 139.535925,54.8618165 C140.588725,54.0587106 141.733101,53.4644518 142.963784,53.0783812 C144.189195,52.6923106 145.419878,52.4999341 146.651878,52.4999341 C147.794936,52.4999341 148.760113,52.6152282 149.534889,52.8359341 C150.305054,53.0559812 150.932913,53.3649694 151.408584,53.7582871 C151.886889,54.1516047 152.223548,54.6160753 152.437666,55.1609224 C152.645854,55.7116988 152.753242,56.2980518 152.753242,56.92064 L152.753242,56.92064 Z M127.598701,60.11264 C127.719925,59.5388047 127.805572,59.0394165 127.849054,58.6217224 C127.891219,58.2020518 127.914278,57.7520753 127.914278,57.2559812 C127.914278,56.1695812 127.677101,55.37504 127.220536,54.88224 C126.754089,54.3887812 125.989854,54.1377694 124.915313,54.1377694 C124.32896,54.1377694 123.763031,54.2313224 123.234654,54.4164518 C122.703642,54.6094871 122.168019,54.9257224 121.623831,55.3605459 C121.073054,55.8032753 120.558513,56.3771106 120.055831,57.0925929 C119.562372,57.8087341 119.111078,58.6737694 118.705242,59.6903341 C118.304019,60.7128282 117.988442,61.8058165 117.767078,62.9739106 C117.538466,64.1420047 117.432395,65.2699106 117.432395,66.3800282 C117.432395,67.8314165 117.624113,68.9204518 118.026654,69.6359341 C118.425242,70.3560282 119.089336,70.7164047 120.028819,70.7164047 C120.457713,70.7164047 120.909007,70.6235106 121.382042,70.4238871 C121.844536,70.2288753 122.369619,69.8717929 122.939501,69.3434165 C123.512678,68.8189929 124.163595,68.0468518 124.892913,67.0316047 C125.544489,66.0947576 126.066936,65.1618635 126.452348,64.2480753 C126.839736,63.3323106 127.155313,62.2590871 127.405007,61.0125929 L127.598701,60.11264 Z M129.437478,53.8656753 L131.367831,52.4781929 L132.705901,52.8135341 L129.502042,67.0520282 C129.307689,67.8893929 129.172631,68.5337224 129.100819,68.9916047 C129.036254,69.44224 129.001995,69.8138165 129.001995,70.1063341 C129.001995,70.6814871 129.158795,71.0952282 129.478984,71.3607341 C129.801807,71.6183341 130.417807,71.7810635 131.325007,71.8462871 L131.139878,72.8766871 L125.142607,72.8766871 L126.461572,67.6172988 L126.18816,67.5316518 C124.851407,69.4863812 123.577242,70.9239341 122.374231,71.8324518 C121.171219,72.7330635 119.899031,73.1909459 118.56096,73.1909459 C117.023925,73.1909459 115.834748,72.61184 114.983548,71.4516518 C114.140913,70.2940988 113.717289,68.6628518 113.717289,66.5651576 C113.717289,65.2277459 113.875407,63.8817694 114.183078,62.5298635 C114.490748,61.1832282 114.947972,59.9031341 115.569901,58.6955106 C116.191831,57.4872282 116.938278,56.4192753 117.801995,55.4975812 C118.669666,54.5725929 119.678325,53.8445929 120.814795,53.3017224 C121.953242,52.7496282 123.190513,52.4781929 124.535831,52.4781929 C125.400866,52.4781929 126.224395,52.5855812 127.011031,52.7845459 C127.790419,52.9854871 128.598795,53.3498165 129.437478,53.8656753 L129.437478,53.8656753 Z M98.4576188,61.4935341 L106.46496,61.4935341 L108.34656,52.8359341 L111.977336,52.8359341 L108.685854,67.6396988 C108.576489,68.1680753 108.484254,68.6259576 108.426278,69.0205929 C108.363031,69.4125929 108.326795,69.7413459 108.326795,70.0292518 C108.326795,70.3711812 108.376866,70.6584282 108.475031,70.8732047 C108.576489,71.0873224 108.718795,71.2665224 108.913148,71.3949929 C109.112113,71.5313694 109.355219,71.6308518 109.658278,71.6901459 C109.95936,71.7533929 110.30656,71.8100518 110.693289,71.8462871 L110.50816,72.8766871 L104.011501,72.8766871 L106.064395,63.3599812 L98.0590306,63.3599812 L96.0048188,72.8766871 L92.3773365,72.8766871 L95.6029365,58.7455812 C95.7768659,58.0083576 95.8974306,57.3857694 95.9685835,56.8857224 C96.0476424,56.3771106 96.0845365,55.9541459 96.0845365,55.6029929 C96.0845365,55.2814871 96.0476424,55.01664 95.9685835,54.8097694 C95.8974306,54.5943341 95.76896,54.4302871 95.5851482,54.3169694 C95.4046306,54.1944282 95.1661365,54.1074635 94.8762541,54.0508047 C94.5811012,53.9941459 94.22336,53.9598871 93.8017129,53.9434165 L94.0303247,52.8359341 L99.1474071,52.6481694 L100.384678,52.6481694 L98.4576188,61.4935341 Z" id="Fill-1" fill="#0089C5" sketch:type="MSShapeGroup"></path>
                <path d="M156.826419,42.9646494 C153.407784,45.8964141 150.175595,47.3636141 147.151595,47.3636141 C145.470936,47.3636141 144.140113,46.9709553 143.145948,46.1909082 C142.154419,45.4036141 141.657666,44.3751906 141.657666,43.0871906 C141.657666,41.5639906 142.281572,40.3174965 143.524772,39.3391435 C144.767972,38.3607906 146.656819,37.4028612 149.204489,36.4653553 C151.155266,35.7716141 152.658701,35.0357082 153.693713,34.2536847 C154.739266,33.4822024 155.251172,32.5532612 155.251172,31.4589553 C155.251172,29.8000376 154.278748,28.96992 152.322701,28.96992 C150.443078,28.96992 148.28016,29.9561788 145.850419,31.9451671 L144.504442,30.3712376 C146.228584,28.9910024 147.751784,28.0251671 149.085901,27.4829553 C150.420019,26.9321788 151.899078,26.6594259 153.515172,26.6594259 C155.154325,26.6594259 156.449572,27.0303435 157.412772,27.7616376 C158.378607,28.4968847 158.856254,29.4732612 158.856254,30.6874729 C158.856254,32.19552 158.277807,33.4677082 157.119595,34.4981082 C155.961384,35.5364141 153.930889,36.5793318 151.027454,37.6367435 C148.944913,38.3825318 147.450701,39.1250259 146.550089,39.8767435 C145.650795,40.6198965 145.198184,41.5145788 145.198184,42.5654024 C145.198184,44.2401318 146.106042,45.0821082 147.92176,45.0821082 C148.931078,45.0821082 150.131454,44.7388612 151.533431,44.0596141 C152.945289,43.3876141 154.274136,42.4784376 155.52656,41.3511906 L156.826419,42.9646494 Z M135.983878,34.2688376 C136.107078,33.7002729 136.192725,33.1956141 136.232913,32.7818729 C136.277054,32.3602259 136.298795,31.9095906 136.298795,31.4154729 C136.298795,30.3290729 136.062936,29.5345318 135.603736,29.0417318 C135.139925,28.5469553 134.375689,28.29792 133.301148,28.29792 C132.714795,28.29792 132.151501,28.3908141 131.621807,28.5766024 C131.090795,28.7702965 130.555831,29.0858729 130.012301,29.5213553 C129.461525,29.9640847 128.946984,30.5346259 128.44496,31.2514259 C127.95216,31.9675671 127.500866,32.8326024 127.095689,33.8471906 C126.693807,34.8703435 126.379548,35.9633318 126.157525,37.1287906 C125.928254,38.2935906 125.822184,39.4241318 125.822184,40.5329318 C125.822184,41.9876141 126.013901,43.0733553 126.415125,43.7881788 C126.815689,44.5082729 127.479125,44.8666729 128.417289,44.8666729 C128.847501,44.8666729 129.29616,44.7757553 129.767878,44.5741553 C130.234325,44.3817788 130.755454,44.0246965 131.326654,43.49632 C131.897854,42.9725553 132.550748,42.1997553 133.278748,41.1858259 C133.930325,40.2476612 134.454089,39.3180612 134.839501,38.4036141 C135.224254,37.4871906 135.539831,36.4152847 135.790842,35.1707671 L135.983878,34.2688376 Z M137.821995,28.0251671 L139.751689,26.6383435 L141.090419,26.9750024 L137.88656,41.2082259 C137.692207,42.0422965 137.555831,42.6872847 137.486654,43.1451671 C137.421431,43.5938259 137.383219,43.9680376 137.383219,44.2598965 C137.383219,44.8324141 137.542654,45.2474729 137.865478,45.5110024 C138.185007,45.76992 138.800348,45.9333082 139.708207,45.9991906 L139.523078,47.0282729 L133.530419,47.0282729 L134.844772,41.77152 L134.573995,41.6838965 C133.23856,43.6359906 131.963736,45.07552 130.762701,45.98272 C129.561007,46.8826729 128.287501,47.3438494 126.950748,47.3438494 C125.413713,47.3438494 124.225854,46.7634259 123.373995,45.6032376 C122.530701,44.4450259 122.109713,42.8164141 122.109713,40.7220141 C122.109713,39.3813082 122.268489,38.0379671 122.574842,36.6873788 C122.882513,35.3420612 123.339078,34.0613082 123.962984,32.8530259 C124.583595,31.6434259 125.327407,30.5800847 126.193101,29.6570729 C127.059454,28.7353788 128.068113,28.0027671 129.204584,27.4631906 C130.341713,26.90912 131.578984,26.6383435 132.921666,26.6383435 C133.788019,26.6383435 134.608913,26.7457318 135.397525,26.9446965 C136.177572,27.1476141 136.984631,27.5106259 137.821995,28.0251671 L137.821995,28.0251671 Z M103.060489,43.3006494 L103.060489,43.0002259 C103.060489,42.9066729 103.069713,42.8012612 103.080913,42.6925553 C100.929195,45.80352 98.5343718,47.3636141 95.8951247,47.3636141 C93.5483953,47.3636141 92.3770071,45.9537318 92.3770071,43.1286965 C92.3770071,42.2221553 92.5331482,41.0481318 92.8572894,39.6132141 L94.6380894,32.2396612 C94.8726306,31.2580141 94.9938541,30.4647906 94.9938541,29.8487906 C94.9938541,29.2486024 94.8370541,28.8111435 94.5293835,28.5469553 C94.2217129,28.2827671 93.6123012,28.1042259 92.6925835,28.0251671 L92.8790306,26.9967435 L99.4580424,26.9967435 L96.8181365,37.6367435 C96.2607718,39.8892612 95.9807718,41.5850729 95.9807718,42.7307671 C95.9807718,44.1874259 96.5750306,44.9094965 97.7628894,44.9094965 C98.8058071,44.9094965 99.98576,44.1544847 101.301431,42.6286494 C102.610513,41.1047906 103.525619,39.1039435 104.041478,36.6142494 L106.100301,26.9967435 L109.71856,26.9967435 L107.317807,37.6367435 C106.736066,40.1692612 106.451454,41.8637553 106.451454,42.7307671 C106.451454,44.1874259 107.051642,44.9094965 108.253336,44.9094965 C109.511689,44.9094965 110.806936,44.0365553 112.129854,42.2959435 C113.458042,40.5487435 114.338889,38.5742494 114.767784,36.3862965 L116.741619,26.9967435 L120.36976,26.9967435 L117.179078,41.3063906 C116.871407,42.6925553 116.719878,43.6880376 116.719878,44.30272 C116.719878,44.8587671 116.856254,45.2540612 117.142184,45.4905788 C117.421525,45.7191906 118.02896,45.8647906 118.959219,45.9201318 L118.708866,47.0282729 L112.803172,47.0282729 L113.930419,42.6503906 L113.682701,42.5654024 C111.492113,45.7633318 109.118372,47.3636141 106.579925,47.3636141 C105.492866,47.3636141 104.635078,46.9992847 104.004584,46.2640376 C103.376725,45.5353788 103.060489,44.53792 103.060489,43.3006494 L103.060489,43.3006494 Z" id="Fill-4" fill="#0089C5" sketch:type="MSShapeGroup"></path>
                <g id="Fill-6-+-Fill-8-+-Fill-11" sketch:type="MSShapeGroup">
                    <path d="M48.9712753,0.465392941 C41.1292988,0.465392941 34.7499106,6.84478118 34.7499106,14.6874165 C34.7499106,22.5287341 41.1292988,28.9081224 48.9712753,28.9081224 C56.8132518,28.9081224 63.1939576,22.5287341 63.1939576,14.6874165 C63.1939576,6.84478118 56.8132518,0.465392941 48.9712753,0.465392941" id="Fill-6" fill="#0089C5"></path>
                    <path d="M61.7474447,73.7985129 C62.1737035,74.4876424 62.7475388,75.0509365 63.4195388,75.4653365 C58.7359624,79.8840659 52.9369976,83.0945129 46.7651388,84.5603953 C42.1566682,85.6850071 37.3643859,85.9571012 32.7104565,85.2804894 C15.1811388,83.6433129 1.18245647,67.8407718 0.184338824,51.4354071 C-0.734061176,42.6045365 1.81492706,33.2439718 7.01765647,26.0812424 C12.1828329,18.8605365 19.9128094,13.8837835 28.0953976,12.1260424 C29.9104565,11.7169129 31.7248565,11.4659012 33.5293741,11.3466541 C33.4674447,11.6332424 33.4114447,11.9218071 33.3653271,12.2136659 C29.4018447,12.5279247 25.4633976,13.5135247 21.7627859,15.2561129 C5.26189176,22.9340424 -1.10563765,41.8600659 3.37106824,58.8359718 C0.638268235,44.3095718 6.07883294,30.1165365 15.8656565,22.1678306 C20.8186918,17.9974776 26.8666918,15.4274071 33.1716329,14.6499953 C33.1716329,14.6625129 33.1703153,14.6743718 33.1703153,14.6875482 C33.1703153,14.9043012 33.1782212,15.1197365 33.1867859,15.3345129 C25.5299388,16.5836424 18.4877741,20.3883482 14.6079624,26.0278776 C18.9963859,21.8278776 24.2432565,18.9066541 30.1482918,17.4427482 C27.4919153,18.48896 24.8282918,19.8560188 21.8359153,21.9082541 C18.8297035,23.9255718 16.1535624,26.6524424 14.8418447,28.7896659 C13.6480565,30.5968188 12.5945976,32.5653835 11.7058447,34.6380424 C9.49483294,38.7543718 8.23582118,43.4557365 8.23582118,48.4542306 C8.23582118,64.6006776 21.3312565,77.6961129 37.4783624,77.6961129 C45.7301271,77.6961129 53.1827388,74.2748424 58.4987859,68.7749835 C59.4784565,70.2092424 60.5536565,71.8688188 61.7474447,73.7985129 M65.5646682,25.7610541 C65.9599624,26.18336 66.3704094,26.6254306 66.7834918,27.0754071 C66.9093271,27.0095247 67.0345035,26.94496 67.1616565,26.8784188 C65.8117271,25.2511247 64.3583624,23.7187012 62.8101271,22.2995953 C62.7251388,22.45376 62.6375153,22.6059482 62.5472565,22.7574776 C63.5947859,23.7101365 64.6027859,24.7122071 65.5646682,25.7610541 M72.7702212,41.1386541 C73.6187859,43.3233129 73.4916329,47.3507012 73.2999153,48.4390776 C73.11808,47.3296188 72.2154918,45.5428894 71.7635388,45.2918776 C71.9124329,46.3571953 71.9855624,47.8428424 71.7246682,48.6914071 C71.6330918,47.8981835 71.3682447,46.9903247 70.9933741,46.6787012 C71.2048565,49.1525835 71.2114447,52.7043012 70.4649976,54.7848659 C70.2594447,52.6838776 69.9366212,50.1869365 69.1822682,48.6044424 C69.0643388,49.2250541 69.0346918,49.8502776 68.8653741,50.4399247 C68.5985506,49.6282541 68.7033035,48.1702776 68.2144565,47.7532424 C68.2315859,51.24896 67.9983624,54.0799247 67.0015624,55.7638776 C67.2163388,54.2755953 67.2835388,52.2615718 66.8994447,51.1896659 C66.9040565,52.1475953 66.8520094,53.0172424 66.6266918,53.4204424 C66.6056094,53.3703718 66.3934682,53.0580894 66.3611859,53.0251482 C66.1668329,54.2676894 65.8901271,55.4819012 65.5435859,56.6671247 C65.9230682,57.5479718 66.3387859,58.4848188 66.7848094,59.4901835 C67.7710682,61.7104188 68.8719624,64.1882541 70.0473035,67.1094776 C72.2919153,63.3719718 74.5391624,57.6915953 74.8369506,52.3656659 C75.3007624,46.9204894 74.3705035,43.9748894 72.7702212,41.1386541" id="Fill-8" fill="#93C0E4"></path>
                    <path d="M76.8331859,30.7984188 C77.4458918,30.2535718 79.3492329,28.3153129 78.1574212,26.2512188 C77.2581271,24.6950776 75.2605741,24.1594541 73.7031153,25.0580894 C60.3764329,32.7531482 54.7289976,34.2124424 48.9715388,34.2124424 C43.2127624,34.2124424 37.5646682,32.7531482 24.2386447,25.0580894 C23.4869271,24.6245835 22.6093741,24.5106071 21.76608,24.7379012 C20.9214682,24.9632188 20.2171859,25.5021365 19.7863153,26.2512188 C18.5931859,28.3153129 20.4958682,30.2535718 21.1085741,30.7984188 L24.1240094,33.4699482 C31.4692329,39.9573835 35.5144094,43.5308424 36.1330447,47.8019953 C36.6113506,51.0994071 35.0143624,54.6926306 32.6010918,60.1292424 C31.4692329,62.6788894 30.1858447,65.5651953 28.8161506,69.0675012 C28.1777506,70.6961129 28.08288,72.99936 29.9163859,74.1299012 C30.7254212,74.6325835 31.6866447,74.7874071 32.6221741,74.5680188 C33.5590212,74.3473129 34.3509271,73.7787482 34.8516329,72.9677365 C42.2719624,60.9778071 45.5377506,58.7035482 48.9715388,58.7035482 C52.4040094,58.7035482 55.6691388,60.9778071 63.0901271,72.9677365 C63.5921506,73.7787482 64.3833976,74.3473129 65.3189271,74.5680188 C66.2570918,74.7874071 67.2176565,74.6325835 68.0286682,74.1299012 C69.8582212,72.99936 69.7633506,70.6961129 69.1269271,69.0675012 C67.7572329,65.5651953 66.4745035,62.6788894 65.3426447,60.1299012 C62.9273976,54.6939482 61.3330447,51.1020424 61.8106918,47.8033129 C62.4266918,43.5288659 66.47648,39.9547482 73.8230212,33.4646776 L76.8331859,30.7984188 Z" id="Fill-11" fill="#0089C5"></path>
                </g>
            </g>
        </g>
    </g>
</svg>