<?xml version="1.0" encoding="UTF-8" standalone="no"?>
<svg width="127px" height="42px" viewBox="0 0 127 42" version="1.1" xmlns="http://www.w3.org/2000/svg" xmlns:xlink="http://www.w3.org/1999/xlink" xmlns:sketch="http://www.bohemiancoding.com/sketch/ns">
    <!-- Generator: Sketch 3.4 (15575) - http://www.bohemiancoding.com/sketch -->
    <title>Fill 11</title>
    <desc>Created with Sketch.</desc>
    <defs></defs>
    <g id="Page-1" stroke="none" stroke-width="1" fill="none" fill-rule="evenodd" sketch:type="MSPage">
        <g id="Artboard-3-Copy-2" sketch:type="MSArtboardGroup" transform="translate(-35.000000, -46.000000)" fill="#FFFFFF">
            <path d="M146.898785,74.7357899 C146.898785,74.9126963 146.916136,75.0726288 146.949707,75.2137013 L146.948575,75.2137013 C146.979506,75.3453438 147.028164,75.4641616 147.091534,75.5678914 C147.142833,75.6516296 147.207711,75.7142447 147.285037,75.7538506 L147.285791,75.7538506 C147.368398,75.7960969 147.473636,75.8179744 147.599998,75.8179744 C147.874222,75.8179744 148.180885,75.7429118 148.517347,75.5935409 C148.87116,75.4362488 149.260429,75.1982361 149.680629,74.8795028 L149.680629,74.8783712 C150.110259,74.5528483 150.533476,74.1903599 150.948018,73.7931691 C151.364069,73.3940923 151.775593,72.9565413 152.179197,72.4831563 C152.583554,72.0097713 152.958113,71.5239387 153.300987,71.0286761 C153.643861,70.5330364 153.959577,70.0238174 154.243608,69.5021509 C154.523112,68.9906688 154.734344,68.5093626 154.87353,68.0638904 C155.009699,67.6293569 155.07835,67.2257537 155.07835,66.8576073 C155.07835,66.4924785 154.988953,66.1839295 154.812424,65.9357324 L154.812047,65.9364868 C154.734344,65.8278535 154.634386,65.7452468 154.515946,65.6928162 L154.514814,65.6928162 C154.386189,65.6354819 154.226634,65.6060603 154.038034,65.6060603 C153.648387,65.6060603 153.251951,65.6856494 152.85212,65.8452046 C152.445122,66.0074003 152.027562,66.2552202 151.60095,66.5864011 C151.164154,66.9258804 150.750743,67.3004392 150.364868,67.7078143 C149.974844,68.1185842 149.606321,68.5663197 149.262315,69.0483803 C148.918309,69.5308181 148.600708,70.028721 148.314791,70.53794 C148.028119,71.0494221 147.77351,71.5669394 147.55398,72.0878515 C147.33445,72.6098952 147.169237,73.0949734 147.059472,73.5412 C146.952347,73.9761107 146.898785,74.3748103 146.898785,74.7357899 L146.898785,74.7357899 Z M160.607713,70.8325325 L160.609599,70.8302693 L160.607713,70.8325325 Z M108.232849,67.2389557 C108.232849,66.7802815 108.131759,66.3808275 107.931844,66.0436114 C107.759841,65.7524136 107.456195,65.6060603 107.023171,65.6060603 C106.690104,65.6060603 106.346098,65.6769738 105.992285,65.8188007 L105.991154,65.8188007 C105.627534,65.9643996 105.248449,66.1858155 104.858047,66.4819169 L104.857293,66.4815397 C104.461988,66.7817903 104.079885,67.1224011 103.714002,67.5026179 C103.350005,67.8805715 103.000341,68.2988855 102.669538,68.7541649 C102.336848,69.2117075 102.032825,69.6873557 101.760865,70.1773375 C101.488904,70.6654333 101.244856,71.1754066 101.029098,71.7038627 C100.605126,72.7430465 100.392386,73.6841585 100.392386,74.523804 C100.392386,75.0454705 100.473484,75.3936253 100.635302,75.5660054 C100.714514,75.650498 100.80391,75.7149991 100.899719,75.7557366 C100.99515,75.7968513 101.102652,75.8179744 101.220715,75.8179744 C102.013588,75.8179744 102.818908,75.550163 103.634413,75.0160489 C104.051973,74.7418251 104.450672,74.431013 104.82674,74.0854985 C105.204316,73.7384752 105.562655,73.3548636 105.899872,72.9342865 C106.238596,72.512955 106.548654,72.0682371 106.827027,71.6042821 C107.105023,71.1407043 107.356238,70.6507225 107.577276,70.138486 L107.578408,70.138486 C107.797561,69.6326619 107.96202,69.1351361 108.07103,68.6508123 C108.178532,68.1725237 108.232849,67.7014019 108.232849,67.2389557 L108.232849,67.2389557 Z M97.9703899,70.5896162 L97.9692583,70.5907478 L97.9703899,70.5896162 Z M49.3347014,46 C50.2599711,46 51.081511,46.0954314 51.7970578,46.2851626 C52.1535111,46.3794624 52.4888412,46.4914906 52.8000305,46.6193611 C53.0780264,46.7332753 53.3382938,46.8619002 53.5766837,47.0010867 C53.9342685,46.9245153 54.2869498,46.8668038 54.6313327,46.8279523 C55.0175847,46.7845743 55.3993103,46.7623196 55.7731147,46.7623196 C56.7330867,46.7623196 57.5832937,46.8796285 58.3214725,47.1138693 C59.0705901,47.3503732 59.7095656,47.7109756 60.2342497,48.1903958 C60.7623286,48.673588 61.1587649,49.2861595 61.4197868,50.0262243 C61.677791,50.7542188 61.806416,51.6081978 61.806416,52.5840121 C61.806416,53.8321643 61.5095602,55.1602827 60.9158487,56.5649726 C60.6250281,57.2541155 60.2938472,57.951934 59.9264551,58.6550334 C59.5579315,59.3600187 59.1531968,60.0680216 58.7152685,60.7745157 C58.2784718,61.4798782 57.8197976,62.1905215 57.3441494,62.9004104 C56.8711416,63.6061501 56.3773878,64.3164162 55.8662829,65.0255508 C55.3804503,65.7014917 54.8904685,66.3887487 54.397092,67.0888304 C53.9120138,67.7768418 53.45598,68.4297736 53.0316308,69.0449855 C52.6031325,69.6684958 52.204433,70.2765409 51.8377954,70.8668577 C51.4741753,71.4530252 51.149784,72.0105257 50.8665074,72.5352097 C50.5870028,73.0527271 50.3769028,73.5362964 50.2362075,73.9810143 L50.2358303,73.9810143 C50.1004158,74.4125302 50.0317656,74.8063262 50.0317656,75.1593846 C50.0317656,75.5599702 50.0872138,75.8111849 50.1969788,75.911897 C50.2467691,75.9579153 50.3286213,75.9956353 50.4383863,76.0227936 C50.5707832,76.0563643 50.7397685,76.0725839 50.9445876,76.0725839 C51.1826003,76.0725839 51.4832281,76.0077056 51.842699,75.8775719 C52.2180122,75.7421574 52.6593352,75.535075 53.1640278,75.2589652 L53.1651594,75.2589652 C53.6668343,74.9843642 54.2024572,74.6433761 54.7671244,74.2390186 L54.768256,74.2390186 C55.3317916,73.8357926 55.9266348,73.366934 56.5490134,72.8350831 C57.1736553,72.3013462 57.8152712,71.7121611 58.470089,71.0712996 C59.1301876,70.4251574 59.803111,69.7284705 60.4854644,68.9823704 C61.1685721,68.2370248 61.8381007,67.4354765 62.4925413,66.5814975 C63.1454732,65.7278957 63.7810538,64.823372 64.3970201,63.8716984 L64.3970201,63.8705668 C65.3253074,62.4556926 66.1140309,61.2501639 66.7609276,60.2577528 C67.4410177,59.214797 68.1075287,58.1876835 68.7585745,57.1801845 L70.3661976,54.6880293 L71.7022372,52.6058897 L71.7029915,52.6062669 C72.1126299,51.9657826 72.4607848,51.426765 72.7463246,50.9895911 C73.0484611,50.5275221 73.3166498,50.1242961 73.5490045,49.783308 C73.7689116,49.4611799 73.9729764,49.1680961 74.1608216,48.9066971 L74.1600672,48.9063199 C74.3369736,48.6588772 74.4995465,48.4434965 74.6409962,48.264704 C74.7820687,48.0859116 74.9110708,47.9403127 75.0242306,47.8305477 L75.0253622,47.8294161 C75.1524783,47.7064492 75.2705416,47.6200706 75.3761574,47.5714119 L75.377289,47.5706575 C75.555327,47.4903141 75.7575058,47.4322254 75.9808077,47.4005407 L76.0030625,47.3986547 L78.1206588,47.2719157 L78.6547729,47.2394766 L78.3662155,47.6913612 L69.895453,60.9050266 L69.8958302,60.9050266 C68.9720693,62.36177 68.0015357,63.8271889 66.9880015,65.2971342 C66.4995285,66.0058915 66.0242575,66.711254 65.5667149,67.4090725 L65.5655833,67.4090725 C65.1204882,68.0872767 64.6931215,68.7564281 64.284992,69.4150179 C63.8908188,70.0517302 63.5271988,70.6654333 63.1963951,71.2519781 L63.1952635,71.2519781 C62.8720037,71.8253208 62.5823147,72.3711281 62.3280825,72.8867594 C62.0817714,73.3869256 61.899207,73.8376786 61.7841612,74.2344922 C61.6732647,74.6188582 61.6234744,74.9526795 61.6355447,75.2329385 L61.6366763,75.2442544 C61.6366763,75.3736338 61.6528959,75.4916971 61.683449,75.5958041 C61.7132478,75.6965163 61.7585117,75.7870441 61.8162232,75.8666331 C61.8656363,75.9337746 61.9278741,75.9850737 62.0002964,76.01789 L62.001428,76.0190216 C62.0795082,76.0544783 62.1787116,76.0725839 62.2956433,76.0725839 C62.5438404,76.0725839 62.8105203,76.0156268 63.0941741,75.9020899 C63.3925386,75.7832721 63.7101404,75.6018393 64.0428301,75.3623178 C64.3849498,75.1160067 64.7515874,74.8297125 65.138971,74.5053212 C65.5240914,74.1831931 65.9276945,73.8256082 66.345254,73.4352071 L66.3463856,73.4340755 C66.8793681,72.9437165 67.3357791,72.4989986 67.7148643,72.1025623 L67.7159959,72.1025623 C68.0916863,71.7098979 68.3953317,71.359857 68.6224056,71.0569661 C68.8634359,70.7367239 69.0584479,70.4949392 69.2066872,70.3361384 C69.2749603,70.2622073 69.3402157,70.2018555 69.401322,70.153574 C69.4507351,70.0807745 69.5103326,69.9985451 69.57936,69.9125437 L69.5804916,69.9114121 C69.6476331,69.8272966 69.7358977,69.7228125 69.8407591,69.6021087 L70.1892911,69.2015232 L70.643439,68.6723127 C71.2594053,67.942055 71.876126,67.3132639 72.4909607,66.7882026 C73.1095674,66.2601238 73.7293057,65.8342659 74.3479124,65.5144009 C74.9650103,65.1952904 75.5832398,64.9546373 76.1999605,64.7947048 C76.8204532,64.6328864 77.4390599,64.5517886 78.0520086,64.5517886 C78.4827701,64.5517886 78.8776976,64.5996929 79.2333965,64.6936155 C79.5970165,64.7901785 79.9202763,64.9369089 80.1986493,65.1304121 C80.4902243,65.3329681 80.711263,65.5860688 80.8587479,65.8844333 C81.0051012,66.1812891 81.0782778,66.5207684 81.0782778,66.8998536 C81.0782778,67.1273047 81.0375403,67.3573962 80.9564425,67.587865 C80.8787394,67.8111669 80.7606761,68.036732 80.6056472,68.2615427 C80.2691855,68.7500157 79.8123973,68.9944408 79.2383001,68.9944408 C78.7517131,68.9944408 78.4028038,68.8507279 78.1923267,68.5648109 C78.0972725,68.4354316 78.0248502,68.2928503 77.9773231,68.1404618 C77.9301732,67.9914681 77.9060325,67.8311585 77.9060325,67.6625504 C77.9060325,67.495074 77.9267784,67.3464575 77.967516,67.2197185 C78.0139115,67.074874 78.0885969,66.9564335 78.1885547,66.8670373 L78.1896863,66.8659057 C78.2662577,66.7980098 78.34811,66.7365264 78.431471,66.6844729 L78.4326026,66.6844729 C78.5216216,66.6301562 78.6144126,66.5818747 78.7090896,66.542646 L78.7102212,66.542646 C78.7815119,66.5132244 78.8516709,66.4781449 78.9176808,66.440425 L78.9188124,66.440425 C78.9799186,66.4060999 79.0383845,66.3672483 79.0911924,66.3265108 L79.0908152,66.3257564 C79.1145787,66.3065193 79.1349475,66.2789837 79.1485267,66.2439042 L79.1489039,66.2442814 C79.1670094,66.1971315 79.1768166,66.1314988 79.1768166,66.0526642 C79.1768166,66.0081547 79.166255,65.963268 79.1462635,65.9217761 L79.1451319,65.9217761 C79.1206139,65.870477 79.079122,65.8154059 79.0236737,65.7595804 C78.976901,65.7131849 78.9139088,65.6765966 78.8346969,65.6520786 C78.7381339,65.6219027 78.6174302,65.6060603 78.4759805,65.6060603 C78.1798791,65.6060603 77.8679354,65.6630174 77.5424125,65.7754228 C77.2093456,65.8904685 76.8551555,66.0681294 76.4824827,66.3046333 L76.4821055,66.3038789 C76.1090555,66.54076 75.7443038,66.8221506 75.3916226,67.1442787 L75.3912454,67.1439015 C75.0400729,67.464898 74.697576,67.8292725 74.3667723,68.2366476 C74.038609,68.6406279 73.7330777,69.080065 73.4531959,69.55345 C73.1714281,70.0298526 72.9168186,70.5371856 72.6901219,71.0716768 C72.4645567,71.6057909 72.2948171,72.1538614 72.1824117,72.7143794 C72.0707608,73.2707482 72.0141809,73.8467314 72.0141809,74.4393113 C72.0141809,74.9111875 72.133753,75.2578336 72.3713885,75.4788724 C72.6143048,75.7044375 72.9982936,75.8179744 73.5195829,75.8179744 C74.2098575,75.8179744 75.021213,75.5678914 75.9536494,75.0688568 L75.9536494,75.0684796 C76.4236396,74.8161333 76.8932526,74.5038124 77.3587164,74.1352888 L77.3594708,74.1352888 C77.8249347,73.7671424 78.2870037,73.3390213 78.7434147,72.8550747 L78.7445463,72.8539431 C79.0455513,72.5378501 79.2997836,72.2681527 79.4996991,72.0516404 L79.4996991,72.050886 C79.7279047,71.8045749 79.9183903,71.5944749 80.0715331,71.4217177 L80.0707787,71.4213405 L80.4947506,70.9396571 L80.4951278,70.9400343 L80.7452109,70.6495909 L80.7474741,70.6461961 L80.7486057,70.6450645 C80.8123524,70.5496331 80.9021258,70.4436402 81.0156627,70.3285944 L81.1016642,70.2229786 C81.1393841,70.1765831 81.1759724,70.1377316 81.2121835,70.1079329 L81.2118063,70.1071785 C81.2295347,70.0920905 81.2476403,70.0788885 81.266123,70.0675725 L81.5037585,69.8095683 C81.6999021,69.5930559 81.9503624,69.3105337 82.2524989,68.9661509 L82.2558937,68.9627561 C83.0830916,68.0495568 83.858236,67.2589473 84.5809496,66.5939451 C84.9351397,66.2672905 85.2508554,65.9553468 85.5239477,65.6611314 C85.7959083,65.3684248 86.0286402,65.092315 86.2191258,64.832802 L86.2945656,64.7298266 L86.4216818,64.7219054 L89.0896118,64.552543 L89.6007167,64.5201038 L89.3415808,64.9621813 L86.6744052,69.5010193 C86.8022758,69.3969124 86.9878578,69.3210953 87.2292653,69.2746998 C87.448418,69.2324535 87.7222646,69.2105759 88.0477875,69.2105759 C88.1850881,69.2105759 88.3171078,69.2286815 88.4404519,69.2641382 C88.4713823,69.2728138 88.5207954,69.280735 88.5852964,69.2860158 C88.6573415,69.292051 88.7478693,69.2954458 88.8527307,69.2954458 C88.9809784,69.2954458 89.1767448,69.2335851 89.4355034,69.1106182 C89.5731811,69.0457399 89.7210432,68.9638877 89.8756949,68.8699651 C90.0360046,68.7722705 90.2012178,68.6625055 90.3668083,68.5429334 C90.5391883,68.4195892 90.7111911,68.2849291 90.8801764,68.1423478 L90.8801764,68.1415934 C91.0533108,67.9963717 91.2260681,67.8409656 91.3958077,67.6780156 C91.5704509,67.5101619 91.7386818,67.3370275 91.8971054,67.1620071 C92.0506255,66.9918902 92.2079176,66.8051766 92.3655869,66.6045066 C92.6786622,66.2061843 92.967974,65.8697226 93.2316362,65.5988935 C93.5009565,65.3227837 93.7438728,65.1141926 93.9573675,64.9765149 C94.1765202,64.8361968 94.408875,64.7290722 94.6536772,64.6585359 C94.8981023,64.5876225 95.1538434,64.5517886 95.41826,64.5517886 C95.6841855,64.5517886 95.9282334,64.5861137 96.1492721,64.6543867 C96.3771004,64.724923 96.5800336,64.8316704 96.7539224,64.9719885 C96.9342236,65.1179646 97.071147,65.291099 97.1628064,65.487997 L97.163938,65.4891286 C97.2540886,65.6841406 97.3004841,65.9010301 97.3004841,66.1379112 C97.3004841,66.357064 97.2627642,66.5550935 97.1880787,66.7316228 C97.1111301,66.9123012 96.9945755,67.0680845 96.8399238,67.1952006 C96.6947021,67.3147727 96.5381645,67.4053005 96.372574,67.4641436 L96.3721968,67.4633892 C96.203966,67.5237411 96.0266824,67.5542942 95.8414775,67.5542942 C95.5770609,67.5542942 95.351873,67.5124251 95.1711946,67.4283097 C94.967507,67.3340099 94.8185133,67.188411 94.7268539,66.995285 C94.655186,66.8432737 94.596343,66.6610865 94.5533423,66.4521182 C94.5303331,66.3404672 94.5110959,66.2205178 94.4963852,66.0930245 C94.3990678,66.1228232 94.3100488,66.1571484 94.2297053,66.1963771 L94.2297053,66.1975087 C94.0807116,66.2699309 93.9581219,66.3608359 93.8630677,66.4672061 C93.7536799,66.5894187 93.6280726,66.7523687 93.4873773,66.9549247 L93.4866229,66.9541703 C93.3474364,67.1552175 93.1927847,67.396625 93.0256855,67.674998 L93.0204047,67.6832964 C92.8250155,67.9843013 92.5896432,68.2653147 92.3169282,68.5225646 C92.0468535,68.7783057 91.7360414,69.0140552 91.3886409,69.2279271 C90.9246859,69.5149757 90.4550729,69.7394092 89.9816879,69.8997189 C90.0597681,69.9430968 90.1378483,69.9906239 90.2136654,70.0423002 C90.3577555,70.1407492 90.4965648,70.2505142 90.6248125,70.3678231 C90.7515515,70.4832461 90.873764,70.611871 90.9888098,70.7499259 C91.1038555,70.8876036 91.2072081,71.0290533 91.2966043,71.170503 C91.3863777,71.3134615 91.4674755,71.4635868 91.5368802,71.6178613 C91.6066621,71.7732674 91.6606015,71.9233926 91.6956811,72.0644651 L91.6956811,72.0655967 C91.7326466,72.215722 91.7518838,72.3583033 91.7518838,72.4910774 C91.7518838,72.6163076 91.737173,72.7573801 91.7092602,72.9112774 C91.6824791,73.0576307 91.6421188,73.2137911 91.5900653,73.3778728 L91.5908197,73.3778728 C91.5455558,73.5212085 91.4923707,73.6792549 91.4339048,73.8455998 C91.3788337,74.0036463 91.3230083,74.1567891 91.2679372,74.3027652 L91.2679372,74.3038968 C91.1570406,74.5947174 91.0491616,74.8610201 90.9446774,75.0982784 C90.9020539,75.1971045 90.8677288,75.2842376 90.8447197,75.3574142 L90.8443425,75.3574142 C90.8288773,75.4079589 90.8202017,75.4411524 90.8202017,75.4558632 C90.8202017,75.5041447 90.8288773,75.5490314 90.8454741,75.5875057 C90.8616936,75.6271116 90.8918696,75.6678492 90.9310983,75.7074551 C90.970327,75.7466838 91.0114417,75.7761053 91.0514248,75.7930793 L91.0514248,75.7934565 C91.0887675,75.8092989 91.1344087,75.8179744 91.1823129,75.8179744 C91.3230083,75.8179744 91.4723791,75.7923249 91.6277852,75.7417802 C91.7922441,75.6882179 91.9650013,75.6067429 92.1430393,75.4988639 L92.1430393,75.4977323 C92.3433321,75.3762742 92.5394757,75.2495352 92.7269437,75.1209103 L92.7280753,75.1197787 C92.9328945,74.9798378 93.13281,74.8357477 93.3263132,74.6890172 L93.3263132,74.6878856 C93.5281148,74.5347427 93.7204864,74.3785823 93.9000332,74.2231762 C94.0788257,74.0685245 94.2534689,73.9055745 94.4198137,73.7384752 L94.4198137,73.7377208 C94.6065273,73.5510072 94.7570298,73.3974871 94.8698124,73.2782922 C95.0040953,73.1375969 95.1195183,73.0123667 95.2134409,72.904865 L95.2209848,72.8961894 C95.5121826,72.590658 95.7732045,72.314171 96.0006556,72.0689915 L96.00141,72.0693687 C96.2073608,71.8471984 96.395206,71.6397388 96.5687176,71.4424636 C96.7422292,71.2448113 96.8821702,71.0841244 96.972698,70.9766226 L96.972698,70.975491 C97.0881209,70.8400765 97.1843067,70.7238992 97.2578606,70.628845 L97.3506516,70.50965 C97.3928979,70.4459033 97.4468374,70.3715951 97.5117156,70.2893657 C97.5856467,70.1950659 97.6810781,70.0834149 97.794615,69.9578076 C97.91381,69.8261651 98.0311189,69.7024437 98.1469191,69.5870208 L98.9518622,68.7820776 L98.9529938,68.7820776 L99.7579369,67.9775117 L99.7620861,67.9737398 C100.393895,67.3705982 101.023063,66.8511949 101.646573,66.4174158 C102.275742,65.9794875 102.903778,65.6264291 103.527289,65.3574861 C104.144386,65.0926922 104.73508,64.8912678 105.298239,64.7562305 C105.865546,64.6204388 106.398529,64.5517886 106.896055,64.5517886 C107.342281,64.5517886 107.740604,64.6287372 108.090267,64.7815029 C108.447475,64.9376633 108.749234,65.171904 108.994414,65.4808302 C109.233558,65.7818352 109.414991,66.1247092 109.534186,66.5071892 C109.651872,66.8821252 109.711092,67.2966672 109.711092,67.747043 C109.711092,67.9673274 109.691855,68.2026997 109.653758,68.4505195 C109.616038,68.6941902 109.560213,68.9454049 109.488168,69.1988828 C109.342192,69.7088561 109.144162,70.2067591 108.896342,70.6888196 C108.771866,70.9306043 108.641355,71.1663538 108.507072,71.3926734 C108.376562,71.6129577 108.231717,71.8396544 108.074802,72.0708775 L108.075557,72.0716319 C107.925431,72.2938023 107.769271,72.5046566 107.610847,72.6992914 L107.483731,72.8524343 C107.800201,72.8460219 108.111391,72.8022668 108.413904,72.7204146 C108.743954,72.6313955 109.069477,72.4963582 109.389341,72.3168114 C109.71411,72.134247 110.022659,71.9226382 110.312348,71.6827395 L110.313102,71.6827395 C110.603923,71.4428408 110.879655,71.1720118 111.138037,70.8728928 L111.142186,70.8676121 L111.483551,70.4896585 C111.497131,70.4658949 111.512596,70.4421314 111.529947,70.4194994 L111.533719,70.4153502 L111.640843,70.2814445 L111.643861,70.2765409 L111.833592,70.0505986 L111.836987,70.0472038 L112.138746,69.6971629 L112.14101,69.6948997 L112.58007,69.197374 L112.58007,69.1966196 C112.749432,69.0065112 112.949725,68.7726477 113.178307,68.4991782 L113.179062,68.4995554 C113.390293,68.2464548 113.651315,67.926967 113.968163,67.5346799 C114.284633,67.1359803 114.591296,66.7538775 114.885134,66.3902575 L114.885888,66.3895031 C115.16313,66.048515 115.430564,65.7226149 115.687814,65.4133115 C115.920923,65.1338069 116.155541,64.8486443 116.384501,64.5683853 C116.583285,64.3250918 116.786972,64.0723684 116.996695,63.8079517 C117.194347,63.5593774 117.374271,63.3304175 117.531941,63.1274844 L118.032107,62.4771929 L118.032484,62.4775701 C118.16903,62.2984005 118.326322,62.0856601 118.498325,61.8480246 C118.653354,61.6345299 118.813286,61.409342 118.976614,61.1747241 L118.977745,61.1747241 L119.483947,60.4406944 L119.484324,60.4414488 L120.03428,59.6319793 C120.198739,59.389063 120.40733,59.0752333 120.651001,58.7036921 C120.871662,58.3668532 121.110052,58.0002155 121.364662,57.6041564 L121.429163,57.503067 L121.547981,57.4826982 L123.750447,57.101727 L124.330202,57.0010148 L124.031083,57.5091022 L116.249086,70.6982496 L116.366395,70.5583087 C116.751893,70.1007661 117.14418,69.6530306 117.537976,69.2203831 C117.938561,68.7809461 118.359139,68.3384914 118.794804,67.8945279 C119.233486,67.4494329 119.673678,67.0341365 120.111229,66.6527881 L120.111983,66.6535425 C120.553306,66.2691765 121.001042,65.9108373 121.454812,65.5800336 L121.454058,65.5792792 C121.914995,65.2424403 122.354055,64.9874536 122.766334,64.8165824 C123.191815,64.6404304 123.592778,64.5517886 123.96545,64.5517886 C124.293236,64.5517886 124.578776,64.6177984 124.821315,64.7498181 C125.069135,64.8841011 125.266788,65.0862798 125.412009,65.3499421 C125.543275,65.5894636 125.643232,65.8523714 125.708488,66.1341392 L125.708488,66.1352708 C125.772989,66.4143982 125.805805,66.7123856 125.805805,67.0269697 C125.805805,67.3943618 125.742436,67.7708066 125.617583,68.1544182 C125.494616,68.5323718 125.309411,68.9186238 125.065363,69.3101565 C124.836026,69.6798118 124.584811,70.0604058 124.316623,70.4485437 C124.057487,70.823857 123.778737,71.2078457 123.48339,71.5963609 C123.203885,71.9645074 122.930793,72.3356714 122.665999,72.7075898 C122.401205,73.0802626 122.153763,73.4393562 121.927066,73.7833619 L121.927066,73.7844935 C121.705273,74.1198236 121.539305,74.434785 121.430672,74.7244739 C121.326942,75.0020926 121.274134,75.2616056 121.274134,75.4981095 C121.274134,75.6131553 121.299784,75.6946303 121.349197,75.7383854 C121.409549,75.7908161 121.520445,75.8179744 121.678492,75.8179744 C121.776941,75.8179744 121.882934,75.8070357 121.994207,75.7862897 C122.113402,75.764035 122.242027,75.7297098 122.377064,75.6848231 L122.377064,75.6836915 C122.51097,75.6395592 122.658832,75.5739266 122.816124,75.4905655 L122.817256,75.4905655 C122.982469,75.4026781 123.159753,75.2955535 123.346844,75.1684374 L123.346466,75.167683 C123.539592,75.0360405 123.746675,74.87988 123.96281,74.7003332 L123.96281,74.6992016 C124.19177,74.5098476 124.427897,74.3001248 124.66855,74.0730509 L124.66855,74.0719193 C124.919387,73.8354154 125.187576,73.5660952 125.473493,73.2669762 C125.763182,72.9625765 126.069468,72.6287552 126.386692,72.2696615 L126.953245,71.6242737 L126.952491,71.6238965 L127.379103,71.1293883 L127.694442,70.7555839 L127.927174,70.4749477 L127.928305,70.4749477 L128.087106,70.2844621 L128.093896,70.2754093 L128.189327,70.1694163 L128.202152,70.1569688 C128.237609,70.1226436 128.277214,70.0932221 128.320592,70.0705901 L128.561245,69.8095683 C128.756257,69.5934331 129.006341,69.3124197 129.309232,68.9661509 L129.312626,68.9627561 C130.139824,68.0495568 130.916477,67.2589473 131.637682,66.5939451 C131.992249,66.2672905 132.307965,65.9553468 132.581057,65.6611314 C132.852641,65.3684248 133.085373,65.092315 133.276236,64.832802 L133.351298,64.7298266 L133.478414,64.7219054 L136.147099,64.552543 L136.658581,64.5201038 L136.399068,64.9621813 L133.732647,69.5006421 C133.860517,69.3969124 134.045345,69.3210953 134.286375,69.2746998 C134.505151,69.2324535 134.779374,69.2105759 135.105275,69.2105759 C135.242575,69.2105759 135.374595,69.2286815 135.497939,69.2641382 C135.529246,69.2728138 135.578282,69.280735 135.642783,69.2860158 C135.714074,69.292051 135.804979,69.2954458 135.90984,69.2954458 C136.038088,69.2954458 136.2331,69.2335851 136.491104,69.1106182 L136.491859,69.1117498 C136.62765,69.0468715 136.775135,68.9661509 136.933559,68.8692107 C137.089342,68.7749109 137.253801,68.6651459 137.422786,68.5429334 L137.423918,68.5418018 C137.601956,68.4139312 137.773959,68.2807799 137.937663,68.1423478 L137.937663,68.1415934 C138.110798,67.9963717 138.283555,67.8405884 138.452917,67.6780156 L138.453672,67.6780156 C138.623789,67.5158199 138.791265,67.3419311 138.954592,67.1620071 C139.108112,66.9926446 139.264273,66.805931 139.422697,66.6045066 C139.736149,66.2058071 140.025461,65.8693454 140.289123,65.5985163 C140.558443,65.3220293 140.80136,65.1141926 141.014854,64.9765149 C141.234007,64.8354424 141.467116,64.7290722 141.711164,64.6585359 C141.955212,64.5876225 142.212085,64.5517886 142.474993,64.5517886 C142.740918,64.5517886 142.985343,64.5861137 143.206382,64.6543867 C143.43421,64.724923 143.637143,64.8316704 143.811032,64.9719885 C143.990956,65.1179646 144.128257,65.291099 144.219916,65.487997 C144.311576,65.6845178 144.357971,65.9021617 144.357971,66.1379112 C144.357971,66.5894187 144.204074,66.9428543 143.897034,67.1952006 C143.607345,67.4343449 143.273901,67.5542942 142.898964,67.5542942 C142.634171,67.5542942 142.409737,67.5124251 142.228682,67.4283097 C142.024994,67.3340099 141.876,67.188411 141.784341,66.995285 C141.712673,66.8432737 141.65383,66.6610865 141.610829,66.4521182 C141.58782,66.3404672 141.568583,66.220895 141.553495,66.0930245 C141.456178,66.1228232 141.367536,66.1571484 141.287569,66.1963771 L141.287569,66.1975087 C141.138199,66.2699309 141.015609,66.3600815 140.920555,66.4668289 L140.920932,66.4672061 C140.809281,66.5928135 140.681788,66.7565179 140.54411,66.9549247 L140.543733,66.9541703 C140.404546,67.1552175 140.250272,67.396625 140.082795,67.674998 L140.077514,67.6832964 C139.881748,67.9843013 139.64713,68.2641831 139.374038,68.5221874 C139.10434,68.7771741 138.793906,69.013678 138.446128,69.2279271 C137.981418,69.5149757 137.511805,69.7386548 137.039175,69.8997189 C137.117255,69.943474 137.194581,69.9906239 137.270398,70.0423002 C137.411848,70.1396176 137.549525,70.248251 137.681168,70.3682003 L137.681545,70.3678231 C137.808284,70.4832461 137.930874,70.6107394 138.046674,70.7499259 C138.161342,70.8876036 138.265072,71.0290533 138.354091,71.170503 C138.444242,71.3134615 138.524963,71.4635868 138.594367,71.6178613 C138.663772,71.7728902 138.716957,71.9230154 138.752414,72.0659739 C138.789756,72.2160992 138.808616,72.3583033 138.808616,72.4910774 C138.808616,72.617062 138.79466,72.7577573 138.76637,72.9120318 C138.739589,73.0572535 138.699606,73.2137911 138.647929,73.3778728 L138.648307,73.3778728 C138.603043,73.5212085 138.549858,73.6792549 138.491392,73.8455998 C138.43368,74.0115674 138.377478,74.1658419 138.325047,74.3038968 C138.21415,74.5947174 138.105894,74.8610201 138.001787,75.0982784 C137.959164,75.1971045 137.924839,75.2842376 137.901829,75.3574142 L137.901075,75.3574142 C137.885987,75.4079589 137.877311,75.4411524 137.877311,75.4558632 C137.877311,75.5041447 137.885987,75.5490314 137.902207,75.5875057 C137.918803,75.6271116 137.948602,75.6678492 137.988208,75.7074551 C138.027437,75.7466838 138.068174,75.7761053 138.108912,75.7930793 L138.108912,75.7934565 C138.146255,75.8092989 138.191896,75.8179744 138.2398,75.8179744 C138.380495,75.8179744 138.529112,75.7923249 138.684895,75.7417802 C138.849354,75.6882179 139.021734,75.6067429 139.199772,75.4988639 L139.199772,75.4977323 C139.398179,75.377783 139.593945,75.2506668 139.785939,75.1197787 C139.990004,74.9798378 140.191051,74.8353705 140.3838,74.6890172 L140.3838,74.6878856 C140.585225,74.5347427 140.777219,74.3793367 140.957143,74.2235534 C141.135558,74.0685245 141.309824,73.9063289 141.476923,73.7384752 L141.478055,73.7377208 C141.650435,73.565718 141.80056,73.4121979 141.927299,73.2782922 C142.053661,73.1462725 142.16833,73.0210423 142.269419,72.904865 L142.278095,72.8961894 C142.566275,72.5936756 142.825788,72.3183202 143.052485,72.0746495 C143.272392,71.8377684 143.464009,71.6257825 143.625827,71.4424636 L143.626582,71.4424636 C143.785005,71.2629168 143.921174,71.106002 144.030185,70.9766226 L144.030185,70.975491 C144.144853,70.8400765 144.241039,70.7238992 144.314593,70.628845 L144.611449,70.248251 C144.651809,70.1950659 144.698582,70.1528196 144.748372,70.1222664 C144.847198,70.0121243 144.993174,69.8408758 145.185169,69.6104071 C145.477498,69.2452783 145.783784,68.898255 146.102517,68.5723549 L146.103649,68.5723549 C146.424268,68.2453232 146.767142,67.9280986 147.128876,67.6236989 L147.128876,67.6225673 C147.481558,67.3268431 147.845555,67.0431893 148.218228,66.7757551 C148.59505,66.5053032 148.97074,66.2571062 149.344167,66.0307866 C149.723253,65.8022039 150.110259,65.5962532 150.502923,65.4144431 C150.894833,65.2337647 151.29127,65.0764726 151.687706,64.9463389 C152.08716,64.815828 152.484728,64.7170018 152.876638,64.6513691 C153.270434,64.5849821 153.658572,64.5517886 154.038034,64.5517886 C154.781871,64.5517886 155.323529,64.7962136 155.659991,65.2843094 C155.81766,65.5125149 155.936855,65.764484 156.015312,66.035313 C156.093016,66.3046333 156.132999,66.5931907 156.132999,66.8998536 L156.131113,67.0794004 C156.251439,66.8723181 156.356301,66.6852273 156.445697,66.518128 L156.445697,66.5169964 C156.556593,66.3106685 156.656174,66.1326304 156.740667,65.9855227 C156.830063,65.8316255 156.913801,65.6965881 156.988109,65.5853144 L156.989241,65.5841828 C157.065058,65.4702686 157.140875,65.3691792 157.214052,65.2839322 C157.294772,65.1900096 157.373984,65.1134382 157.448292,65.0549723 L157.449424,65.0538407 C157.625199,64.9176718 157.858308,64.8482671 158.146865,64.8482671 L158.146865,64.8486443 L160.168653,64.7645289 L160.801593,64.7377478 L160.384788,65.2156592 C160.193925,65.4336803 159.910649,65.8142743 159.535335,66.3559324 C159.34485,66.631665 159.144934,66.9247488 158.938606,67.2321661 C158.732278,67.5407151 158.515389,67.8685012 158.290578,68.212884 C158.073689,68.5448193 157.846237,68.8990094 157.609356,69.2746998 C157.384546,69.6311531 157.1537,70.0034487 156.91795,70.3881919 C156.678806,70.7797246 156.454372,71.1542835 156.246913,71.5073419 C156.045111,71.852102 155.838029,72.2130816 155.631701,72.5819825 L155.630947,72.5819825 C155.431031,72.9391901 155.253747,73.2688622 155.100982,73.567604 C154.94633,73.8701177 154.807898,74.1567891 154.68908,74.423469 C154.574789,74.6799644 154.488033,74.9040208 154.431076,75.0903572 C154.379777,75.2593424 154.35375,75.3966429 154.35375,75.4981095 C154.35375,75.6101377 154.381286,75.6893495 154.434093,75.7331046 L154.433339,75.7334818 C154.501612,75.7893073 154.625711,75.8179744 154.800354,75.8179744 C155.379732,75.8179744 156.173359,75.3543966 157.178595,74.4295042 C157.704411,73.9455576 158.253235,73.4046539 158.823183,72.8060388 C159.395395,72.2055376 159.991369,71.5465706 160.607713,70.8325325 L161.069782,70.2656021 C161.118441,70.2056275 161.168608,70.159232 161.21953,70.12717 L161.220662,70.12717 C161.293084,70.0815289 161.371164,70.0581426 161.450376,70.0581426 C161.530342,70.0581426 161.603896,70.0736077 161.672169,70.1041609 L161.672169,70.1045381 C161.747609,70.1373544 161.809092,70.1875219 161.856619,70.2508914 L161.857374,70.2505142 C161.895094,70.2995501 161.924515,70.3531123 161.943375,70.4047886 L161.944884,70.4070518 C161.966007,70.4655177 161.977323,70.5254924 161.977323,70.5850899 C161.977323,70.6801441 161.877365,70.8438485 161.679713,71.0780892 L161.678581,71.0792208 L161.411147,71.3911646 L161.408884,71.3941822 L161.104861,71.7393194 L161.10373,71.7393194 L160.746522,72.1448086 L160.365551,72.583114 C160.227496,72.7438009 160.091704,72.8950578 159.961948,73.0361303 L159.960816,73.0361303 C159.808428,73.2009663 159.675654,73.3393985 159.568152,73.4469002 L159.567775,73.446523 C159.068363,73.9591368 158.595732,74.419697 158.149506,74.8270721 C157.701016,75.2359561 157.274026,75.5965585 156.872309,75.9047303 C156.033041,76.5493637 155.299011,76.8726234 154.673615,76.8726234 C154.025964,76.8726234 153.504675,76.6421547 153.111256,76.1834805 C152.912472,75.951503 152.76461,75.6176817 152.670687,75.1850342 C152.582423,74.7772818 152.537159,74.2737209 152.537159,73.6769917 L152.537536,73.6098503 L152.519053,73.628333 L152.51679,73.6298418 L151.920061,74.2103514 C151.699776,74.423469 151.471194,74.6343233 151.236199,74.8402741 C150.9963,75.0499969 150.75791,75.2502896 150.523292,75.4362488 C150.033687,75.8251412 149.540688,76.1582081 149.046557,76.4346951 L149.046557,76.4350723 C148.79157,76.578408 148.542996,76.686287 148.304984,76.7594637 C148.05905,76.8349035 147.8233,76.8726234 147.599998,76.8726234 C147.311064,76.8726234 147.042875,76.8409387 146.79845,76.779078 C146.546481,76.7160857 146.31903,76.6187684 146.11836,76.4901434 C145.925234,76.3664221 145.75059,76.2234636 145.59707,76.0616451 C145.444682,75.9005811 145.311531,75.7210342 145.202143,75.5248907 C145.094641,75.3325191 145.004113,75.1246823 144.932068,74.904398 C144.8604,74.6859996 144.804575,74.4506273 144.767987,74.2043162 C144.732153,73.9670579 144.704617,73.7241416 144.686134,73.480471 L144.686134,73.4793394 C144.668029,73.2334055 144.658976,72.9878488 144.658976,72.7449325 C144.658976,72.5767017 144.665011,72.4024356 144.675573,72.2262836 C144.686134,72.0580528 144.703108,71.8860499 144.725363,71.7148015 L144.736302,71.6306861 L144.734416,71.6337036 L144.733661,71.6329492 L144.401726,72.0124117 L144.037352,72.435252 C143.916648,72.5767017 143.786137,72.7223006 143.650345,72.8697854 C143.501352,73.0308495 143.370086,73.1685272 143.261453,73.2771606 L143.261076,73.2767834 C143.079266,73.4717954 142.885763,73.6747286 142.680943,73.8829425 C142.479896,74.0870073 142.268665,74.2963528 142.050643,74.5075844 C141.828096,74.7225879 141.602908,74.9285387 141.376966,75.1220419 C141.153664,75.3129047 140.923572,75.4981095 140.690086,75.6735071 C140.454714,75.8496592 140.225754,76.0077056 140.005847,76.1461377 C139.782922,76.2864559 139.558111,76.4139492 139.335941,76.5248458 C139.108112,76.6383827 138.889714,76.7251385 138.682632,76.7824728 C138.466497,76.8424475 138.261677,76.8726234 138.07006,76.8726234 C137.615535,76.8726234 137.222116,76.7473933 136.890558,76.4991962 C136.733266,76.3815101 136.589553,76.2472271 136.461306,76.0997422 C136.333435,75.9518802 136.217635,75.7881757 136.117677,75.6116465 L136.116546,75.6105149 C136.020737,75.4396436 135.934736,75.2600968 135.862313,75.0722516 L135.862313,75.07112 C135.790645,74.8851608 135.731048,74.6939208 135.686916,74.5000404 C135.643161,74.3110636 135.609213,74.1235956 135.586958,73.9429172 C135.563949,73.7565808 135.551878,73.5830691 135.551878,73.4231367 C135.551878,73.257169 135.564703,73.0938418 135.586958,72.9388129 L135.586958,72.9376813 C135.610344,72.7807664 135.64731,72.6302639 135.692951,72.490323 L135.694082,72.4891914 C135.737083,72.3594349 135.786496,72.2304328 135.839304,72.1048255 L135.839304,72.1036939 C135.892866,71.9780865 135.949446,71.8592688 136.008289,71.7487494 L136.165204,71.4458584 L136.165959,71.4458584 C136.207451,71.3628746 136.252714,71.268952 136.297978,71.1697486 C136.33419,71.0924228 136.360971,71.0181145 136.376813,70.9509731 C136.391901,70.8876036 136.399445,70.8212166 136.399445,70.7544523 C136.399445,70.7152236 136.389261,70.6767493 136.369646,70.6409153 L136.368892,70.6409153 C136.343619,70.5945198 136.300619,70.5458611 136.243285,70.4975796 L136.244039,70.4972024 C136.182933,70.4462805 136.11994,70.4070518 136.058834,70.3814023 C136.008667,70.3606563 135.958499,70.3497175 135.90984,70.3497175 C135.748776,70.3497175 135.572247,70.4277978 135.384025,70.5835811 C135.23654,70.704662 135.065669,70.7959442 134.873674,70.8555417 L134.873674,70.8559189 C134.688847,70.9140076 134.482896,70.9426747 134.258462,70.9426747 C133.983861,70.9426747 133.768103,70.8804368 133.611943,70.7559611 C133.437677,70.6167746 133.349789,70.418745 133.349789,70.1614951 L133.349789,70.151688 L129.579683,76.5678465 L129.505375,76.6934538 L129.360531,76.7021294 L126.480615,76.8714918 L125.943483,76.9024222 L126.236567,76.4516691 L132.040908,67.5048811 C131.914546,67.6236989 131.785921,67.7481746 131.65277,67.8786856 C131.346862,68.1774273 130.988522,68.5482141 130.581147,68.987274 C130.168868,69.4316147 129.710571,69.9400792 129.210405,70.5104044 L129.210405,70.511536 L128.898839,70.8657261 L128.898462,70.8653489 L128.642721,71.1633362 C128.585386,71.2312321 128.529561,71.2900752 128.47713,71.3391111 L128.360198,71.467736 L128.359067,71.4684904 C128.269293,71.5665622 128.165564,71.6827395 128.053913,71.8098557 L127.648046,72.2843723 C126.192057,74.0255238 124.986529,75.2216225 124.034478,75.8715367 C123.554303,76.1993228 123.109208,76.4467655 122.702587,76.6131104 C122.280501,76.7858676 121.895381,76.8726234 121.551375,76.8726234 C121.183229,76.8726234 120.861101,76.7994468 120.588009,76.6553567 C120.308504,76.5071174 120.083693,76.2857015 119.916594,75.9933721 L119.916594,75.9922405 C119.761942,75.7221658 119.645765,75.4079589 119.569571,75.0526373 C119.49564,74.7048596 119.457165,74.3159672 119.457165,73.8889777 C119.457165,73.4412422 119.519403,73.0002964 119.642747,72.5695349 C119.765337,72.141791 119.950165,71.7219683 120.195344,71.3134615 C120.429585,70.9219287 120.681931,70.5394488 120.948988,70.1675303 C121.216045,69.7956119 121.497436,69.4368955 121.789011,69.0947758 C122.091902,68.7398313 122.364617,68.417326 122.60791,68.1249966 C122.845546,67.8402112 123.097138,67.5309079 123.35137,67.2163237 C123.569768,66.9443631 123.73385,66.6916396 123.839843,66.4630569 C123.938669,66.2499394 123.988837,66.0556818 123.988837,65.8833018 C123.988837,65.6988513 123.896046,65.6060603 123.711595,65.6060603 C123.555812,65.6060603 123.32987,65.6788598 123.036786,65.8218183 C122.713903,65.9791103 122.326897,66.2159915 121.876521,66.5301984 L121.876521,66.5309528 C121.419733,66.8489317 120.919567,67.2525349 120.378286,67.7379902 C119.831347,68.2287264 119.242162,68.8039552 118.614125,69.4595274 C117.980808,70.1222664 117.319955,70.8664805 116.635715,71.6910379 C115.954116,72.511069 115.236684,73.4261543 114.484548,74.4332762 C113.736562,75.4358716 112.982918,76.5225826 112.22852,77.6900141 C111.475253,78.854428 110.70803,80.1184226 109.928736,81.4786029 L109.928359,81.4786029 L106.41324,87.6616523 L106.339686,87.7899 L106.192201,87.79933 L103.354154,87.9686925 L102.831733,88 L103.106711,87.5537733 L116.078215,66.4890837 C115.809272,66.8221506 115.51996,67.1759634 115.217446,67.5441099 C114.916441,67.9099931 114.612419,68.2762535 114.304624,68.6421367 L113.485348,69.6141791 L113.485348,69.6153107 L112.801108,70.4217626 L112.799977,70.4228942 L112.449936,70.8280061 C112.416365,70.8815684 112.37261,70.9426747 112.318293,71.0098162 L112.317916,71.009439 C112.254547,71.089028 112.147045,71.2116177 111.999183,71.3734362 C111.85547,71.5307283 111.658949,71.7412054 111.414524,71.9999641 L111.41377,72.0010957 C111.135774,72.2938023 110.830242,72.5582189 110.50057,72.7917052 C110.169012,73.0267003 109.816331,73.2281247 109.444035,73.3963555 C109.067213,73.5660952 108.675303,73.6943429 108.270569,73.7792127 C107.865834,73.8640826 107.449029,73.9074605 107.023171,73.9074605 C106.878326,73.9074605 106.754605,73.9036885 106.653516,73.8957673 L106.573172,73.8882233 C106.268018,74.224685 105.939477,74.5490763 105.589814,74.8602657 C105.201676,75.2057801 104.777327,75.5429962 104.322424,75.8681419 C103.853943,76.2030948 103.345101,76.4546867 102.797785,76.6217859 C102.252355,76.7888852 101.669205,76.8726234 101.050976,76.8726234 C100.584003,76.8726234 100.166821,76.777192 99.8032008,76.5874608 C99.4365632,76.3969752 99.1265054,76.1114354 98.8752908,75.733859 L98.8752908,75.7331046 C98.6327517,75.3691074 98.4509417,74.9409863 98.3302379,74.4513817 C98.2117974,73.9696983 98.1521999,73.4280403 98.1521999,72.8301795 C98.1521999,72.4476995 98.1616299,72.1202906 98.1797354,71.8479528 C98.1982182,71.571843 98.2276397,71.3538218 98.2668684,71.196907 C98.3008164,71.0611153 98.3264659,70.9438063 98.3419311,70.8483749 L98.3419311,70.8472433 L98.3509839,70.7884002 C98.3170359,70.8408309 98.2649824,70.9143848 98.197841,71.0034038 L98.1970866,71.0030266 C98.1306995,71.0924228 98.0533737,71.1889858 97.9685039,71.2923384 L97.9685039,71.29347 C97.8809937,71.3987085 97.7832991,71.5133771 97.6773061,71.6337036 L97.6769289,71.6329492 L97.3446164,72.0124117 L96.9806191,72.435252 C96.8489766,72.588772 96.7188429,72.7343709 96.5928584,72.8716714 L96.5917268,72.8716714 C96.4525403,73.0221739 96.3208977,73.1598516 96.2028344,73.2771606 C96.0225332,73.471041 95.8305388,73.6724654 95.6272284,73.8791705 C95.4254268,74.0847441 95.2134409,74.2952212 94.9939109,74.5075844 C94.770609,74.7237195 94.5442895,74.9296703 94.3191015,75.1227963 C94.0961768,75.3140363 93.8668397,75.4988639 93.6329762,75.6735071 C93.3976039,75.8496592 93.1682668,76.0080828 92.9476052,76.1468921 C92.7250577,76.2864559 92.5010014,76.4131948 92.2780766,76.5248458 C92.0517571,76.6383827 91.8322272,76.7243841 91.625522,76.7820956 C91.4101413,76.8420703 91.2041905,76.8726234 91.0129505,76.8726234 C90.5588027,76.8726234 90.1646295,76.7473933 89.8330714,76.4991962 C89.6769109,76.3815101 89.533198,76.2479815 89.4049503,76.1004966 L89.4041959,76.1008738 C89.2763254,75.9541434 89.162034,75.7904389 89.0601902,75.6116465 C88.96325,75.4400208 88.8783802,75.2593424 88.8063352,75.0726288 L88.805958,75.0726288 C88.7342901,74.8881784 88.6750698,74.6958068 88.6298059,74.5000404 C88.586428,74.3110636 88.5524801,74.1235956 88.5302253,73.9429172 C88.5072162,73.7565808 88.4951458,73.5830691 88.4951458,73.4231367 C88.4951458,73.257169 88.5075934,73.0938418 88.5302253,72.9388129 L88.5302253,72.9376813 C88.5536117,72.7807664 88.5902,72.6302639 88.6358411,72.490323 L88.6369727,72.490323 C88.6818594,72.3545313 88.7316497,72.2240204 88.7821944,72.1044483 L88.7829488,72.1044483 C88.8365111,71.9765777 88.893091,71.8562512 88.9504252,71.7487494 C89.0077595,71.6408704 89.0624534,71.5375178 89.1046997,71.4522708 L89.1054541,71.4511392 C89.1480776,71.3666466 89.1940959,71.270838 89.2408686,71.1697486 L89.241623,71.1697486 C89.2759482,71.094686 89.3027293,71.0203777 89.3189489,70.9517275 C89.334414,70.888358 89.341958,70.8212166 89.341958,70.7544523 C89.341958,70.6703369 89.2895273,70.5839583 89.186552,70.4975796 L89.1869291,70.4972024 C89.1254457,70.4462805 89.0624534,70.4070518 89.0013471,70.3814023 C88.9511796,70.3606563 88.9010122,70.3497175 88.8527307,70.3497175 C88.6916666,70.3497175 88.5151374,70.4285522 88.326915,70.5828267 L88.3272922,70.5835811 C88.1809389,70.7042848 88.0096904,70.7959442 87.8161872,70.8555417 L87.8161872,70.8559189 C87.6317368,70.9140076 87.4254089,70.9426747 87.2009753,70.9426747 C86.9267515,70.9426747 86.7109936,70.8804368 86.5548331,70.7559611 C86.3805671,70.6167746 86.2926796,70.418745 86.2926796,70.1614951 L86.2926796,70.1509336 L82.5221964,76.5678465 L82.4478881,76.6934538 L82.3030436,76.7021294 L79.4231277,76.8714918 L78.885996,76.9024222 L79.1790798,76.4516691 L84.9845528,67.5037495 L84.596792,67.877554 L84.5956604,67.8786856 C84.2897519,68.1774273 83.9317898,68.5482141 83.5244147,68.987274 C83.1121359,69.4316147 82.6538389,69.9400792 82.1536728,70.5104044 L82.1536728,70.511536 L81.8413518,70.8657261 L81.8405974,70.8653489 L81.7070689,71.0215093 C81.6308747,71.1176951 81.5331801,71.2361357 81.4147395,71.3753222 C81.2351927,71.5861765 81.0548915,71.7917501 80.8757218,71.9905341 L80.8745902,71.9905341 C80.6693939,72.2179852 80.4574079,72.4488311 80.243536,72.6755279 C79.5608054,73.4148383 78.9127772,74.0526822 78.3005829,74.5856646 C77.6846166,75.1224191 77.1037298,75.5550666 76.5613173,75.8805895 C76.0113609,76.2102616 75.4583868,76.4580815 74.90579,76.6229175 C74.3479124,76.7888852 73.7862628,76.8726234 73.2238587,76.8726234 C72.8764583,76.8726234 72.5543302,76.8322631 72.2582288,76.7519197 L72.2570972,76.7507881 C71.9568466,76.6689358 71.6837544,76.5448373 71.4404609,76.3800013 C71.2032026,76.2189372 70.9908394,76.0371272 70.8056346,75.8375888 L70.804503,75.8368344 C70.6177894,75.633524 70.454085,75.4090905 70.3167845,75.1654198 C70.1832559,74.9274071 70.0685874,74.673552 69.975042,74.4087582 L69.975042,74.4076266 C69.8833826,74.1458504 69.8109603,73.8682317 69.7585296,73.577034 L69.757398,73.577034 C69.7079849,73.3016785 69.6698878,73.0229283 69.6438611,72.7441781 L69.6438611,72.7430465 C69.6178343,72.4642963 69.6042552,72.1949761 69.6042552,71.9403666 C69.6042552,71.7374334 69.6125535,71.558641 69.6280187,71.4047437 L69.4247083,71.6337036 L69.0497723,72.0561668 L68.6423972,72.5220078 L68.2293641,72.9931296 L68.2282325,72.9953928 L67.8363225,73.4352071 L67.8329277,73.4382246 C67.517212,73.7822303 67.1222844,74.1699911 66.6511626,74.5988666 C66.4195623,74.8089666 66.1789092,75.0175577 65.9299577,75.2216225 C65.6870414,75.4222925 65.4388443,75.6161729 65.1898929,75.8010005 C64.6810511,76.1797085 64.1793762,76.4924066 63.6882628,76.7375861 L63.6878856,76.7364545 C63.431013,76.8654566 63.1930003,76.9616424 62.9761107,77.0250119 C62.745642,77.0921534 62.5329016,77.1264785 62.3378897,77.1264785 C61.9746468,77.1264785 61.6570451,77.0627318 61.3865933,76.9359929 C61.1059571,76.8047276 60.8803919,76.606698 60.7110295,76.3445445 C60.5537374,76.0997422 60.4352969,75.8077901 60.3572166,75.468688 C60.2817768,75.1397703 60.2436797,74.7678519 60.2436797,74.3544415 C60.2436797,73.7233872 60.289698,73.1206229 60.380603,72.5487889 C60.4711308,71.9765777 60.6088085,71.4379373 60.7902413,70.9370167 C60.9682793,70.4451489 61.1625369,69.9483776 61.3711281,69.4489658 L61.3771633,69.4346323 L61.1463174,69.7043297 C60.8728479,70.021177 60.5839134,70.3399104 60.2825312,70.6593981 L60.2813996,70.6593981 C59.971719,70.9864298 59.6544945,71.3096895 59.3312348,71.6257825 C58.9936415,71.956209 58.648127,72.2843723 58.2965774,72.607632 C57.9469137,72.9290057 57.5802761,73.2560374 57.2004365,73.5864639 C56.8224829,73.9146272 56.4441521,74.2269482 56.0688389,74.5207864 C55.6965432,74.8123614 55.3163264,75.0933748 54.933092,75.3611862 C54.5487261,75.629752 54.1752988,75.8688963 53.8143192,76.0774875 C53.4488132,76.288719 53.0851931,76.4754327 52.7279855,76.6361195 C52.3681374,76.7971836 52.0222458,76.9201505 51.6929509,77.0016255 C51.3557348,77.0846094 51.0343611,77.1264785 50.7329789,77.1264785 C50.3836924,77.1264785 50.0577923,77.0578282 49.7575417,76.9216593 C49.4588,76.786622 49.1857077,76.584066 48.9427915,76.317009 C48.6987436,76.0495748 48.5150476,75.733859 48.3939666,75.3728794 C48.2747717,75.0198209 48.214797,74.6226302 48.214797,74.1854563 C48.214797,72.9621993 48.5124072,71.6619936 49.1053643,70.2871025 C49.3973165,69.6107843 49.7273658,68.9250361 50.0947578,68.2332528 C50.4617727,67.5418467 50.8661302,66.8440281 51.3055673,66.1416832 L51.3066989,66.1416832 C51.7480219,65.4374523 52.2055646,64.7332214 52.6774408,64.0327624 C53.1500714,63.3304175 53.643448,62.6227918 54.1545529,61.9125257 C54.6581138,61.2135756 55.1477184,60.519529 55.6218578,59.8330265 C56.0997692,59.1412431 56.5550486,58.4671882 56.9858101,57.8138791 L56.9858101,57.8127475 C57.4188348,57.1567981 57.81678,56.5163139 58.1788912,55.8943124 C58.5406253,55.2726881 58.8646394,54.6714325 59.1505564,54.0939406 C59.4327014,53.5217294 59.6446873,52.9815801 59.7838738,52.4753788 C59.9207971,51.975967 59.9898246,51.5033364 59.9898246,51.0586186 C59.9898246,50.7670436 59.9607803,50.5003637 59.9030688,50.2600878 L59.9030688,50.258579 C59.8464889,50.0228295 59.7604875,49.8048084 59.6458189,49.6075332 C59.5281328,49.4053544 59.3938499,49.220904 59.2448562,49.0545592 C59.0951081,48.8893459 58.9291404,48.7407294 58.7495936,48.6124817 C58.5651432,48.4808392 58.3663592,48.3646618 58.1577681,48.2662128 L58.1570137,48.2673444 C57.9420101,48.1673866 57.7149362,48.0825168 57.4788095,48.0176386 C57.2385336,47.9512515 56.9956173,47.9003296 56.7530782,47.8663817 C56.5150655,47.8335653 56.2721492,47.8165914 56.0273469,47.8165914 C55.8613793,47.8165914 55.7086136,47.8207406 55.5671639,47.8260214 C55.4268458,47.8320565 55.2669133,47.8433725 55.0975509,47.8577061 C54.9610048,47.8693993 54.8218183,47.8844872 54.683009,47.9014612 C54.8342659,48.0602621 54.9719436,48.2273613 55.0960421,48.4031361 C55.3283968,48.7335626 55.5136016,49.0960511 55.6490161,49.4883383 C55.7810359,49.8700639 55.8806165,50.2638598 55.9462491,50.6659542 C56.0126362,51.0718205 56.0462069,51.4859853 56.0462069,51.9061852 C56.0462069,53.2135576 55.7489739,54.5563868 55.1552624,55.9312779 C54.8606698,56.6155173 54.5121377,57.2703351 54.1123066,57.8934682 C53.7132298,58.5154697 53.2605908,59.108804 52.7566526,59.6704536 L52.7558982,59.6696992 C52.2504513,60.2339892 51.7053984,60.7439626 51.1226257,61.2007508 C50.5383441,61.6590478 49.913325,62.0660458 49.2509632,62.4179726 L49.2502088,62.4172182 C48.580303,62.7740487 47.8919145,63.0422373 47.1876835,63.2202754 C46.4811894,63.3990678 45.7554582,63.488464 45.0150161,63.488464 C44.3039956,63.488464 43.6835029,63.3847342 43.15731,63.1776518 C42.6198012,62.9667975 42.1792325,62.6469326 41.8378672,62.2203203 L41.8371128,62.2210747 C41.5048003,61.8061555 41.2558488,61.3365425 41.0902584,60.8141216 C40.9269311,60.2977359 40.8450789,59.7277879 40.8450789,59.1065408 C40.8450789,58.4645478 40.9337207,57.8206687 41.1098727,57.1764125 C41.2852704,56.5351738 41.5485554,55.899216 41.8952015,55.2696705 C42.240716,54.643897 42.6409243,54.0392467 43.0954494,53.4587371 C43.5477112,52.8804907 44.0554213,52.3244991 44.615185,51.7937798 C45.173817,51.2641921 45.7713005,50.7651576 46.404618,50.2996938 C47.0379355,49.8346071 47.7097272,49.4004508 48.4169758,49.0006197 L48.4181074,49.0006197 C49.1268647,48.6004113 49.8382624,48.2526337 50.5500373,47.9587955 C51.0226679,47.7645379 51.4971845,47.5929122 51.9728327,47.4450502 C51.7302936,47.3579171 51.4711577,47.2854949 51.1958023,47.2281606 C50.6454687,47.1123605 50.0238444,47.054649 49.3347014,47.054649 C48.5644607,47.054649 47.7991235,47.1489488 47.0439707,47.336794 C46.2850458,47.5250164 45.528007,47.810179 44.7773806,48.1885098 C44.0233594,48.5698582 43.3036633,49.020234 42.6224416,49.538883 C41.9382022,50.0605495 41.290174,50.650489 40.6817516,51.3071928 C40.0725749,51.9657826 39.5082849,52.6805751 38.993408,53.4500615 C38.4807943,54.2157759 38.0138217,55.039579 37.5943761,55.9203391 L37.5939989,55.9203391 C37.177571,56.7961957 36.8396005,57.7007194 36.5831051,58.6290066 C36.3269868,59.5569167 36.149326,60.5138711 36.0523858,61.4991154 L36.052763,61.4991154 C36.0116483,62.0343611 35.8358734,62.3021725 35.5269473,62.3021725 C35.3986996,62.3021725 35.2889346,62.2701106 35.2014244,62.2063639 C35.0992034,62.1313012 35.0399831,62.0275715 35.0233864,61.8929113 L35.0245179,61.8929113 C35.0162196,61.8284103 35.0098072,61.757874 35.0064124,61.6831886 C35.0022632,61.5983188 35,61.5164665 35,61.4365003 C35,61.3297529 35.0098072,61.1932068 35.0282899,61.0295024 L35.0282899,61.0283708 C35.0463955,60.8748507 35.0735538,60.6907775 35.1101422,60.4795459 C35.1440901,60.2830251 35.185582,60.0657584 35.2342407,59.8303861 C35.282145,59.595391 35.3341985,59.3607731 35.388138,59.12955 C35.5039381,58.6384366 35.647651,58.1220509 35.8170135,57.5849192 C35.9878847,57.0443928 36.1904407,56.5249894 36.422041,56.0308585 C36.7087124,55.386225 37.0349897,54.751776 37.3993641,54.1297745 C37.7641158,53.5073958 38.1688505,52.8952015 38.6113052,52.2954547 C39.0548915,51.693822 39.5290309,51.1250056 40.0299514,50.5920231 C40.5293632,50.0601723 41.0608368,49.5592517 41.6217321,49.0922791 C42.1830045,48.6249293 42.7661545,48.2032206 43.3677872,47.8309249 C43.9697971,47.4590065 44.5970794,47.1308432 45.245862,46.8490754 C45.8984167,46.5669304 46.5664365,46.3538129 47.247281,46.2131176 C47.9315204,46.0716678 48.6282073,46 49.3347014,46 L49.3347014,46 Z M54.652833,51.1012421 C54.652833,50.4901793 54.5332609,49.9202313 54.2960026,49.3921525 C54.179448,49.133771 54.027814,48.8972671 53.8422319,48.6860355 C53.6770187,48.4981903 53.4823839,48.3258103 53.2605908,48.1722902 C52.5654126,48.3224155 51.8789101,48.5249715 51.2033463,48.7784494 C50.4930802,49.0455064 49.7926213,49.3702749 49.1072503,49.7516233 C48.4162214,50.1352349 47.7644211,50.548268 47.1537356,50.9888367 C46.5445589,51.4278966 45.9704617,51.90015 45.43333,52.4022021 C44.8984616,52.9016139 44.4156466,53.42064 43.9882799,53.9551313 C43.5612904,54.4892453 43.183714,55.045237 42.8585683,55.6197114 C42.5379489,56.187019 42.295787,56.7448966 42.136609,57.2922126 C41.9785625,57.8338707 41.8989735,58.3691164 41.8989735,58.8949321 C41.8989735,59.3769926 41.9589482,59.8217105 42.0781431,60.2256909 C42.1965837,60.6281624 42.3742445,60.9932912 42.6088624,61.3199458 C42.8351819,61.6337755 43.1158181,61.8702794 43.446999,62.0264399 C43.7830835,62.1848635 44.1787655,62.2648298 44.6332905,62.2648298 C44.9689978,62.2648298 45.3133807,62.2240923 45.6653076,62.1452576 C46.0206292,62.0649142 46.3910388,61.9419472 46.7716328,61.77862 C47.1533584,61.6152927 47.5354612,61.4199035 47.9149236,61.1958472 C48.2989124,60.9695277 48.6761116,60.7152954 49.0431264,60.4365452 C49.4127817,60.1562862 49.7797965,59.8492461 50.1415305,59.5195739 C50.4991154,59.1929194 50.8491562,58.8451418 51.1886355,58.4769953 L51.1897671,58.4769953 C51.5262288,58.1133753 51.8460937,57.7324041 52.1470987,57.3370993 C52.4450861,56.9451894 52.7230819,56.5408318 52.978823,56.1259127 C53.2360728,55.7091076 53.4669187,55.2873989 53.6694747,54.8641813 C53.8720307,54.4428498 54.0500687,54.0113339 54.2024572,53.5745373 C54.3537141,53.1415126 54.467251,52.7179179 54.5415593,52.3082795 L54.5415593,52.3071479 C54.6158675,51.9009044 54.652833,51.4976784 54.652833,51.1012421 L54.652833,51.1012421 Z" id="Fill-11" sketch:type="MSShapeGroup"></path>
        </g>
    </g>
</svg>