<?xml version="1.0" encoding="UTF-8" standalone="no"?>
<svg width="72px" height="72px" viewBox="0 0 72 72" version="1.1" xmlns="http://www.w3.org/2000/svg" xmlns:xlink="http://www.w3.org/1999/xlink">
    <!-- Generator: Sketch 3.8.2 (29753) - http://www.bohemiancoding.com/sketch -->
    <title>Group 2</title>
    <desc>Created with Sketch.</desc>
    <defs></defs>
    <g id="Page-1" stroke="none" stroke-width="1" fill="none" fill-rule="evenodd">
        <g id="Group-2">
            <path d="M35.9552,16.7904 C39.9808,16.7904 43.7224,18.036 46.8128,20.1616 L58.244,8.7304 C51.9704,3.5832 44.1784,0.784 35.9552,0.784 C27.5072,0.784 19.516,3.74 13.156,9.16 L24.5496,20.5528 C27.7416,18.1896 31.688,16.7904 35.9552,16.7904 L35.9552,16.7904 Z" id="Shape" fill="#334770"></path>
            <path d="M16.7456,36.0008 C16.7456,31.5472 18.2688,27.444 20.8216,24.1824 L9.452,12.8128 C3.8176,19.2336 0.7392,27.38 0.7392,36.0008 C0.7392,44.9112 4.028,53.3136 10.0272,59.8288 L21.3696,48.4856 C18.4888,45.1256 16.7456,40.764 16.7456,36.0008 L16.7456,36.0008 Z" id="Shape" fill="#DD4531"></path>
            <path d="M35.9552,55.2104 C32,55.2104 28.3208,54.008 25.2616,51.952 L13.82,63.392 C20.0672,68.4608 27.7992,71.216 35.9552,71.216 C43.8848,71.216 51.4152,68.612 57.5688,63.8104 L46.0784,52.32 C43.1376,54.1504 39.668,55.2104 35.9552,55.2104 L35.9552,55.2104 Z" id="Shape" fill="#334770"></path>
            <path d="M62.0168,12.3152 L50.6688,23.664 C53.4736,27.004 55.1656,31.308 55.1656,36.0008 C55.1656,41.0024 53.244,45.5624 50.1,48.9848 L61.4296,60.3144 C67.7176,53.7344 71.172,45.132 71.172,36 C71.172,27.156 67.9328,18.8104 62.0168,12.3152 L62.0168,12.3152 Z" id="Shape" fill="#DD4531"></path>
        </g>
    </g>
</svg>