<?xml version="1.0" encoding="UTF-8" standalone="no"?>
<svg width="209px" height="293px" viewBox="0 0 209 293" version="1.1" xmlns="http://www.w3.org/2000/svg" xmlns:xlink="http://www.w3.org/1999/xlink">
    <!-- Generator: Sketch 3.8.3 (29802) - http://www.bohemiancoding.com/sketch -->
    <title>кораблик лого-final</title>
    <desc>Created with Sketch.</desc>
    <defs>
        <rect id="path-1" x="0.523" y="0.546" width="204.922" height="204.923"></rect>
    </defs>
    <g id="Page-1" stroke="none" stroke-width="1" fill="none" fill-rule="evenodd">
        <g id="кораблик-лого-final">
            <g id="Clipped" transform="translate(3.000000, 87.000000)">
                <mask id="mask-2" fill="white">
                    <use xlink:href="#path-1"></use>
                </mask>
                <g id="SVGID_1_"></g>
                <path d="M102.984,0.547 C46.393,0.547 0.523,46.418 0.523,103.008 C0.523,159.599 46.393,205.469 102.984,205.469 C159.575,205.469 205.445,159.599 205.445,103.008 C205.445,46.417 159.575,0.547 102.984,0.547 M102.984,32.747 C141.79,32.747 173.246,64.203 173.246,103.008 C173.246,141.815 141.79,173.27 102.984,173.27 C64.179,173.27 32.723,141.815 32.723,103.008 C32.723,64.203 64.179,32.747 102.984,32.747" id="Shape" fill="#9ADBF9" mask="url(#mask-2)"></path>
            </g>
            <path d="M100.945,88.137 C47.37,88.137 3.943,131.564 3.943,185.139 C3.943,238.714 47.37,282.141 100.945,282.141 C154.521,282.141 197.947,238.713 197.947,185.139 C197.947,131.565 154.521,88.137 100.945,88.137 M100.945,118.621 C64.207,118.621 34.428,148.401 34.428,185.139 C34.428,221.877 64.207,251.657 100.945,251.657 C137.683,251.657 167.464,221.877 167.464,185.139 C167.464,148.401 137.684,118.621 100.945,118.621" id="Shape" fill="#FFFFFF"></path>
            <circle id="Oval" stroke="#354E81" stroke-width="6.218" cx="100.945" cy="185.139" r="66.518"></circle>
            <path d="M71.645,277.633 C80.89,280.559 90.732,282.141 100.946,282.141 C111.265,282.141 121.204,280.523 130.532,277.54 L127.747,246.033 C119.549,249.647 110.483,251.658 100.946,251.658 C91.634,251.658 82.769,249.741 74.722,246.285 L71.645,277.633 L71.645,277.633 Z" id="Shape" fill="#F0492C"></path>
            <path d="M100.945,88.137 C90.731,88.137 80.888,89.72 71.643,92.646 L74.721,123.994 C82.768,120.538 91.632,118.621 100.945,118.621 C110.482,118.621 119.548,120.631 127.746,124.246 L130.531,92.739 C121.203,89.754 111.264,88.137 100.945,88.137" id="Shape" fill="#F0492C"></path>
            <path d="M193.438,214.442 C196.365,205.197 197.948,195.354 197.948,185.139 C197.948,174.821 196.331,164.883 193.347,155.555 L161.837,158.34 C165.451,166.54 167.462,175.604 167.462,185.139 C167.462,194.453 165.545,203.317 162.091,211.364 L193.438,214.442 L193.438,214.442 Z" id="Shape" fill="#F0492C"></path>
            <path d="M8.544,155.555 C5.56,164.883 3.944,174.821 3.944,185.139 C3.944,195.353 5.526,205.197 8.453,214.443 L39.8,211.365 C36.345,203.318 34.428,194.453 34.428,185.139 C34.428,175.603 36.439,166.538 40.052,158.34 L8.544,155.555 L8.544,155.555 Z" id="Shape" fill="#F0492C"></path>
            <path d="M100.945,118.621 C64.208,118.621 34.427,148.402 34.427,185.139 C34.427,221.876 64.208,251.657 100.945,251.657 C137.683,251.657 167.464,221.876 167.464,185.139 C167.464,148.402 137.684,118.621 100.945,118.621" id="Shape" fill="#6DCBD7"></path>
            <path d="M51.167,34.853 L62.911,155.557 C50.258,153.937 36.392,157.76 24.918,166.755 L51.167,34.853 L51.167,34.853 Z" id="Shape" fill="#FFFFFF"></path>
            <path d="M38.459,194.044 C39.143,193.339 39.931,192.782 40.476,192.049 C55.753,171.533 98.362,148.151 114.199,165.507 C117.238,120.958 105.446,54.582 54.276,19.872 C73.504,66.528 64.027,119.539 51.709,156.949 C45.743,175.07 43.598,182.999 39.237,191.307 C36.017,197.439 32.342,200.348 38.459,194.044" id="Shape" fill="#FFFFFF"></path>
            <path id="Shape"></path>
            <path d="M60.355,93.641 C60.79,93.447 61.223,93.251 61.661,93.064 C63.618,64.556 59.243,42.463 53.472,26.437 L54.248,34.411 L60.355,93.641 L60.355,93.641 Z" id="Shape"></path>
            <path d="M117.301,165.718 L116.806,172.976 L111.903,167.602 C108.846,164.252 104.343,162.553 98.519,162.553 C89.456,162.553 78.541,166.559 68.475,172.387 L70.361,190.68 L64.175,191.318 L62.601,176.054 C54.565,181.455 47.495,187.826 42.969,193.904 C42.445,194.608 41.858,195.134 41.34,195.599 C41.122,195.794 40.899,195.991 40.69,196.207 C39.363,197.574 38.276,198.736 37.547,199.565 L36.561,200.687 L35.019,200.674 L33.114,200.587 L31.543,197.112 L32.775,195.574 C33.392,194.805 34.987,192.709 36.483,189.859 C39.846,183.452 41.88,177.162 45.573,165.744 C46.211,163.77 46.904,161.632 47.655,159.33 C40.283,160.91 33.115,164.276 26.835,169.199 L20.23,174.377 L30.4,123.273 C29.467,124.337 28.543,125.41 27.657,126.515 C14.771,142.592 7.051,162.978 7.051,185.136 C7.051,207.294 14.771,227.679 27.656,243.756 C29.787,246.415 32.057,248.96 34.46,251.372 C51.471,268.446 74.995,279.029 100.944,279.029 C126.894,279.029 150.418,268.446 167.429,251.37 C169.831,248.959 172.1,246.415 174.231,243.757 C187.117,227.68 194.836,207.295 194.836,185.136 C194.836,162.977 187.115,142.591 174.23,126.514 C172.099,123.856 169.831,121.312 167.429,118.901 C152.122,103.537 131.543,93.434 108.668,91.562 C118.425,122.516 118.297,151.119 117.301,165.718 L117.301,165.718 Z" id="Shape"></path>
            <path d="M176.8,114.091 C175.324,114.091 174.087,115.076 173.674,116.418 C174.958,117.776 176.202,119.172 177.41,120.601 C178.93,120.313 180.084,118.98 180.084,117.377 C180.084,115.565 178.611,114.091 176.8,114.091 L176.8,114.091 Z" id="Shape"></path>
            <path d="M24.481,120.601 C25.689,119.172 26.933,117.776 28.217,116.417 C27.803,115.075 26.567,114.091 25.092,114.091 C23.28,114.091 21.807,115.565 21.807,117.377 C21.807,118.979 22.961,120.312 24.481,120.601 L24.481,120.601 Z" id="Shape"></path>
            <path d="M21.807,252.901 C21.807,254.713 23.281,256.186 25.092,256.186 C26.567,256.186 27.803,255.203 28.217,253.861 C26.932,252.503 25.688,251.106 24.48,249.677 C22.961,249.966 21.807,251.299 21.807,252.901 L21.807,252.901 Z" id="Shape"></path>
            <path d="M177.41,249.678 C176.203,251.107 174.958,252.502 173.674,253.861 C174.088,255.203 175.324,256.187 176.8,256.187 C178.612,256.187 180.084,254.713 180.084,252.902 C180.084,251.299 178.931,249.966 177.41,249.678 L177.41,249.678 Z" id="Shape"></path>
            <path d="M61.028,100.168 C61.041,100.162 61.053,100.156 61.066,100.15 C61.313,97.741 61.502,95.387 61.661,93.063 C61.223,93.251 60.79,93.446 60.355,93.64 L61.028,100.168 L61.028,100.168 Z" id="Shape" fill="#354E81"></path>
            <path d="M110.584,227.601 C112.198,207.051 114.489,186.893 125.281,171.688 L127.619,200.078 L110.584,227.601 L109.365,229.079" id="Shape" fill="#FFFFFF"></path>
            <path d="M109.975,228.339 C113.627,197.938 116.866,171.521 141.837,151.188 C113.172,172.338 70.723,191.467 36.224,200.542 C38.925,211.937 44.695,222.079 52.417,230.365 L109.975,228.339 L109.975,228.339 Z" id="Shape" fill="#FFFFFF"></path>
            <g id="Group">
                <path d="M122.994,181.795 C122.401,183.053 121.852,184.339 121.338,185.648 C118.422,193.805 116.647,202.51 115.272,211.692 C115.144,212.7 115.013,213.706 114.898,214.724 L124.438,199.312 L122.994,181.795 L122.994,181.795 Z" id="Shape"></path>
                <path d="M142.027,233.395 C143.506,232.134 144.924,230.806 146.281,229.416 C137.843,226.752 128.327,218.978 123.826,212.09 L120.913,216.789 C122.558,222.297 133.648,232.368 142.027,233.395 L142.027,233.395 Z" id="Shape"></path>
                <path d="M41.34,195.601 C41.186,195.739 41.032,195.886 40.88,196.032 C48.384,193.881 56.11,191.315 63.876,188.418 L62.602,176.056 C54.566,181.457 47.496,187.828 42.97,193.906 C42.446,194.609 41.858,195.136 41.34,195.601 L41.34,195.601 Z" id="Shape"></path>
                <path d="M98.519,162.554 C89.456,162.554 78.541,166.56 68.475,172.388 L69.89,186.114 C84.068,180.53 98.2,173.928 111.128,166.85 C108.104,164.01 103.879,162.554 98.519,162.554 L98.519,162.554 Z" id="Shape"></path>
                <path d="M161.85,202.746 C157.21,205.376 151.489,207.489 146.325,208.66 C150.356,211.489 154.473,213.602 157.5,213.769 C159.277,210.269 160.739,206.582 161.85,202.746 L161.85,202.746 Z" id="Shape"></path>
                <path d="M164.249,188.698 C164.255,188.595 164.267,188.493 164.272,188.39 C164.292,187.993 164.29,187.59 164.302,187.191 C164.323,186.507 164.353,185.825 164.353,185.138 C164.353,184.039 164.325,182.944 164.269,181.854 C164.226,181.003 164.153,180.16 164.076,179.318 C164.056,179.098 164.048,178.875 164.025,178.655 C163.784,176.291 163.411,173.966 162.916,171.685 C162.751,170.926 162.572,170.169 162.38,169.416 C162.369,169.376 162.361,169.335 162.351,169.295 C162.119,168.392 161.859,167.499 161.587,166.611 C161.55,166.488 161.518,166.365 161.48,166.242 C161.22,165.413 160.937,164.594 160.644,163.779 C160.581,163.601 160.522,163.421 160.456,163.243 C160.164,162.452 159.852,161.672 159.529,160.897 C159.45,160.708 159.376,160.517 159.296,160.328 C152.863,145.257 140.761,133.166 125.68,126.752 C125.6,126.718 125.519,126.686 125.438,126.652 C124.642,126.319 123.842,126.002 123.037,125.704 C122.764,125.602 122.488,125.504 122.214,125.407 C121.631,125.2 121.046,125 120.457,124.811 C119.978,124.658 119.5,124.507 119.019,124.365 C118.645,124.255 118.271,124.149 117.896,124.046 C117.266,123.872 116.635,123.702 116,123.548 C115.926,123.529 115.851,123.514 115.775,123.496 C118.017,139.816 117.964,153.866 117.448,163.295 C125.677,158.541 133.303,153.619 139.992,148.684 L143.801,153.597 C137.227,158.951 132.226,164.764 128.344,170.99 L130.158,193.021 C138.212,192.719 152.779,187.819 156.531,184.098 L156.65,184.219 L157.028,183.96 C158.304,185.822 161.148,187.918 164.174,189.685 C164.197,189.356 164.23,189.028 164.249,188.698 L164.249,188.698 Z" id="Shape"></path>
                <path d="M154.208,219.493 C145.883,217.321 135.353,208.726 129.998,202.136 L127.5,206.166 C129.326,211.864 142.257,223.33 150.825,224.23 C152.022,222.706 153.152,221.126 154.208,219.493 L154.208,219.493 Z" id="Shape"></path>
                <path d="M161.736,195.453 C159.994,194.473 158.016,193.235 156.198,191.816 C150.486,194.941 142.019,197.627 135.188,198.725 C136.421,200.174 138.001,201.785 139.778,203.402 C146.144,202.98 156.272,199.501 161.736,195.453 L161.736,195.453 Z" id="Shape"></path>
                <path d="M163.729,155.052 L189.084,152.811 C185.554,143.221 180.512,134.354 174.23,126.518 C172.099,123.86 169.831,121.316 167.429,118.905 C157.862,109.302 146.235,101.755 133.275,96.987 L131.033,122.357 C145.292,129.217 156.868,140.794 163.729,155.052 L163.729,155.052 Z" id="Shape"></path>
                <path d="M180.084,117.377 C180.084,115.565 178.611,114.091 176.8,114.091 C175.324,114.091 174.087,115.076 173.674,116.418 C174.958,117.776 176.202,119.172 177.41,120.601 C178.93,120.313 180.084,118.979 180.084,117.377 L180.084,117.377 Z" id="Shape"></path>
                <path d="M42.412,160.776 C41.612,162.695 40.909,164.644 40.304,166.617 C40.265,166.742 40.234,166.87 40.196,166.996 C39.94,167.849 39.697,168.704 39.478,169.566 C39.4,169.874 39.336,170.187 39.263,170.497 C39.099,171.186 38.934,171.874 38.794,172.569 C38.7,173.037 38.625,173.512 38.541,173.985 C38.443,174.534 38.336,175.081 38.253,175.633 C38.165,176.219 38.1,176.813 38.027,177.405 C37.972,177.856 37.905,178.304 37.859,178.758 C37.792,179.428 37.751,180.106 37.705,180.782 C37.679,181.167 37.639,181.55 37.62,181.936 C37.576,182.818 37.559,183.708 37.552,184.6 C37.551,184.781 37.539,184.959 37.539,185.14 C37.539,185.442 37.555,185.741 37.561,186.041 C37.568,186.575 37.581,187.107 37.602,187.637 C40.34,181.933 42.31,175.846 45.577,165.747 C46.215,163.773 46.908,161.635 47.659,159.333 C45.893,159.711 44.143,160.197 42.412,160.776 L42.412,160.776 Z" id="Shape"></path>
                <path d="M123.546,166.972 C121.394,168.254 119.187,169.517 116.956,170.771 C116.48,171.039 116.004,171.306 115.525,171.572 C92.213,184.526 65.118,195.824 40.037,202.734 C40.077,202.872 40.111,203.012 40.152,203.149 C42.768,211.88 47.41,220.119 53.744,227.208 L107.206,225.325 C107.767,220.685 108.345,216.093 109.016,211.561 C110.317,201.046 112.336,191.011 116.123,181.958 C118.083,176.778 120.488,171.766 123.546,166.972 L123.546,166.972 Z" id="Shape"></path>
                <path d="M59.681,233.221 C62.171,235.362 64.827,237.314 67.626,239.055 C78.821,238.519 90.007,235.86 98.664,231.849 L59.681,233.221 L59.681,233.221 Z" id="Shape"></path>
                <path d="M113.267,247.34 C113.92,247.211 114.573,247.076 115.219,246.927 C115.578,246.845 115.934,246.748 116.29,246.659 C116.693,246.558 117.098,246.464 117.498,246.356 C118.257,246.15 119.012,245.931 119.764,245.697 C119.771,245.695 119.778,245.693 119.784,245.691 C120.706,245.404 121.616,245.091 122.518,244.764 C122.583,244.74 122.648,244.718 122.713,244.695 C120.942,243.616 119.188,242.387 117.528,241.064 C114.643,243.486 110.178,246.146 105.092,248.397 C107.745,248.224 110.359,247.904 112.914,247.414 C113.032,247.392 113.148,247.363 113.267,247.34 L113.267,247.34 Z" id="Shape"></path>
                <path d="M84.443,246.369 C85.135,246.556 85.835,246.723 86.536,246.887 C86.801,246.949 87.066,247.013 87.332,247.072 C87.457,247.099 87.582,247.121 87.707,247.147 C96.528,245.973 107.515,241.008 112.88,236.836 C111.607,235.501 110.487,234.134 109.567,232.778 C100.733,239.017 88.85,242.603 78.016,244.252 C80.026,245.033 82.082,245.719 84.184,246.295 C84.271,246.318 84.356,246.346 84.443,246.369 L84.443,246.369 Z" id="Shape"></path>
                <path d="M117.177,222.813 L113.831,228.209 C116.133,232.421 123.098,238.627 129.807,241.579 C131.903,240.503 133.934,239.318 135.887,238.023 C128.45,235.164 120.972,228.799 117.177,222.813 L117.177,222.813 Z" id="Shape"></path>
                <path d="M118.397,252.55 C118.319,252.571 118.24,252.589 118.162,252.609 C117.172,252.862 116.177,253.092 115.176,253.3 C115.003,253.336 114.83,253.369 114.656,253.404 C113.745,253.586 112.829,253.75 111.91,253.895 C111.676,253.932 111.441,253.969 111.206,254.004 C110.337,254.132 109.465,254.242 108.59,254.337 C108.318,254.367 108.047,254.4 107.774,254.427 C106.897,254.512 106.017,254.576 105.134,254.628 C104.875,254.644 104.617,254.667 104.359,254.679 C103.225,254.734 102.088,254.767 100.946,254.767 C99.814,254.767 98.687,254.734 97.564,254.68 C97.294,254.667 97.027,254.645 96.758,254.628 C95.893,254.577 95.03,254.514 94.171,254.431 C93.888,254.404 93.608,254.371 93.326,254.341 C92.457,254.246 91.592,254.136 90.729,254.01 C90.499,253.976 90.268,253.942 90.038,253.906 C89.082,253.756 88.131,253.585 87.183,253.394 C87.059,253.37 86.935,253.347 86.811,253.322 C83.625,252.664 80.487,251.794 77.413,250.687 L74.99,275.38 C75.703,275.585 76.42,275.781 77.14,275.971 C77.262,276.002 77.383,276.037 77.506,276.069 C78.063,276.213 78.623,276.347 79.184,276.48 C79.576,276.574 79.968,276.665 80.361,276.752 C80.851,276.861 81.34,276.972 81.833,277.074 C82.665,277.246 83.497,277.41 84.333,277.559 C84.666,277.619 85.001,277.669 85.335,277.725 C85.98,277.833 86.625,277.937 87.272,278.032 C87.621,278.083 87.97,278.132 88.319,278.179 C89.079,278.281 89.84,278.374 90.602,278.458 C90.8,278.479 90.998,278.506 91.196,278.526 C92.165,278.626 93.136,278.71 94.11,278.779 C94.348,278.797 94.588,278.809 94.827,278.825 C95.613,278.876 96.4,278.917 97.188,278.948 C97.439,278.958 97.689,278.969 97.941,278.977 C98.941,279.008 99.943,279.029 100.946,279.029 C101.96,279.029 102.972,279.008 103.983,278.975 C104.231,278.967 104.478,278.956 104.725,278.947 C105.545,278.915 106.366,278.872 107.183,278.818 C107.394,278.803 107.605,278.793 107.816,278.777 C108.809,278.705 109.8,278.618 110.79,278.515 C110.985,278.494 111.179,278.469 111.374,278.448 C112.166,278.36 112.957,278.261 113.746,278.154 C114.051,278.112 114.355,278.07 114.659,278.025 C115.458,277.908 116.255,277.78 117.05,277.642 C117.306,277.598 117.561,277.555 117.816,277.509 C118.637,277.36 119.456,277.197 120.272,277.026 C120.688,276.939 121.102,276.847 121.515,276.754 C122.025,276.641 122.532,276.521 123.038,276.399 C123.502,276.287 123.967,276.177 124.428,276.058 C124.769,275.97 125.108,275.872 125.448,275.781 C126.038,275.622 126.627,275.458 127.213,275.287 L125.021,250.488 C122.843,251.293 120.632,251.972 118.397,252.55 L118.397,252.55 Z" id="Shape"></path>
                <path d="M177.41,249.678 C176.203,251.107 174.958,252.502 173.674,253.861 C174.088,255.203 175.324,256.187 176.8,256.187 C178.612,256.187 180.084,254.713 180.084,252.902 C180.084,251.299 178.931,249.966 177.41,249.678 L177.41,249.678 Z" id="Shape"></path>
                <path d="M37.913,214.674 L12.684,217.152 C16.219,226.864 21.307,235.837 27.657,243.759 C29.788,246.418 32.058,248.963 34.461,251.375 C44.107,261.057 55.847,268.647 68.935,273.409 L71.412,248.174 C56.72,241.262 44.825,229.366 37.913,214.674 L37.913,214.674 Z" id="Shape"></path>
                <path d="M194.699,180.251 C194.651,179.325 194.593,178.401 194.517,177.481 C194.486,177.086 194.45,176.691 194.413,176.297 C194.326,175.373 194.225,174.453 194.112,173.537 C194.071,173.204 194.033,172.872 193.989,172.54 C193.827,171.34 193.647,170.145 193.44,168.96 C193.436,168.933 193.432,168.905 193.427,168.877 C192.97,166.27 192.403,163.701 191.735,161.172 C191.715,161.096 191.694,161.022 191.673,160.946 C191.487,160.25 191.277,159.564 191.076,158.874 L166.293,161.064 C167.089,163.22 167.763,165.409 168.338,167.622 C168.376,167.768 168.41,167.915 168.447,168.062 C168.679,168.981 168.893,169.904 169.088,170.833 C169.137,171.064 169.182,171.297 169.228,171.529 C169.397,172.377 169.549,173.228 169.686,174.082 C169.732,174.373 169.778,174.663 169.821,174.955 C169.939,175.759 170.04,176.565 170.13,177.374 C170.167,177.706 170.207,178.037 170.239,178.37 C170.315,179.165 170.373,179.964 170.422,180.765 C170.443,181.101 170.472,181.436 170.488,181.774 C170.536,182.804 170.562,183.837 170.566,184.874 C170.566,184.962 170.573,185.049 170.573,185.137 C170.573,185.216 170.567,185.294 170.567,185.373 C170.563,186.408 170.537,187.44 170.488,188.468 C170.472,188.808 170.445,189.145 170.424,189.484 C170.375,190.275 170.319,191.064 170.243,191.85 C170.211,192.185 170.173,192.519 170.136,192.853 C170.047,193.662 169.945,194.468 169.827,195.272 C169.786,195.553 169.745,195.834 169.7,196.113 C169.558,197.009 169.397,197.902 169.221,198.79 C169.186,198.967 169.154,199.145 169.117,199.322 C168.461,202.49 167.594,205.612 166.494,208.67 L191.167,211.093 C191.338,210.497 191.521,209.907 191.682,209.307 C191.701,209.234 191.721,209.162 191.74,209.089 C192.069,207.846 192.374,206.594 192.651,205.332 C192.653,205.324 192.655,205.316 192.657,205.308 C193.21,202.793 193.657,200.239 194.003,197.654 C194.041,197.373 194.071,197.091 194.107,196.809 C194.227,195.851 194.332,194.889 194.422,193.922 C194.457,193.546 194.489,193.168 194.521,192.791 C194.596,191.863 194.655,190.931 194.704,189.996 C194.722,189.649 194.744,189.303 194.758,188.955 C194.809,187.688 194.841,186.416 194.841,185.138 C194.841,183.855 194.809,182.58 194.758,181.31 C194.74,180.958 194.717,180.605 194.699,180.251 L194.699,180.251 Z" id="Shape"></path>
                <path d="M115.988,117.167 C116.614,117.305 117.24,117.446 117.863,117.601 C118.206,117.687 118.547,117.777 118.887,117.868 C119.715,118.087 120.539,118.322 121.361,118.572 C121.493,118.613 121.626,118.651 121.757,118.692 C122.851,119.033 123.94,119.391 125.018,119.79 L127.208,95.013 C126.632,94.845 126.062,94.663 125.48,94.506 C125.4,94.484 125.32,94.462 125.239,94.441 C121.326,93.392 117.312,92.593 113.217,92.056 C112.987,92.026 112.756,91.999 112.526,91.971 C111.391,91.831 110.251,91.712 109.104,91.612 C108.96,91.6 108.816,91.586 108.671,91.574 C111.417,100.287 113.38,108.814 114.761,116.894 C115.173,116.977 115.578,117.077 115.988,117.167 L115.988,117.167 Z" id="Shape"></path>
                <path d="M131.034,247.922 L133.277,273.295 C146.237,268.526 157.863,260.977 167.43,251.373 C169.832,248.962 172.101,246.418 174.232,243.76 C180.583,235.836 185.67,226.864 189.206,217.151 L163.979,214.673 C157.154,229.183 145.475,240.974 131.034,247.922 L131.034,247.922 Z" id="Shape"></path>
                <path d="M24.481,120.601 C25.689,119.172 26.933,117.776 28.217,116.417 C27.803,115.075 26.567,114.091 25.092,114.091 C23.28,114.091 21.807,115.565 21.807,117.377 C21.807,118.979 22.961,120.312 24.481,120.601 L24.481,120.601 Z" id="Shape"></path>
                <path d="M37.803,155.847 C38.389,155.618 38.974,155.385 39.565,155.176 C41.727,154.412 43.923,153.801 46.136,153.315 C47.361,153.046 48.589,152.806 49.823,152.626 C50.685,149.906 51.481,147.235 52.242,144.588 C53.427,140.472 54.506,136.433 55.456,132.494 C55.978,130.329 56.466,128.191 56.92,126.08 L54.717,103.442 L54.062,96.713 L50.11,56.094 L40.262,105.58 L38.342,115.231 L30.551,154.379 L29.452,159.899 C32.145,158.308 34.943,156.964 37.803,155.847 L37.803,155.847 Z" id="Shape"></path>
                <path d="M60.355,93.641 L61.028,100.169 L61.048,100.358 C61.055,100.288 61.059,100.221 61.067,100.151 C61.314,97.742 61.503,95.388 61.662,93.064 C63.619,64.556 59.244,42.463 53.473,26.437 L54.249,34.411 L60.355,93.641 L60.355,93.641 Z" id="Shape"></path>
                <path d="M68.047,90.584 C67.925,92.812 67.764,95.079 67.564,97.385 C66.82,105.955 65.529,115.055 63.559,124.703 C63.423,125.371 63.271,126.051 63.128,126.724 C62.487,129.743 61.78,132.813 61.005,135.937 C60.433,138.241 59.836,140.565 59.187,142.927 C59.036,143.478 58.877,144.034 58.722,144.588 C58.026,147.064 57.3,149.562 56.517,152.101 C55.923,154.024 55.309,155.962 54.663,157.921 C54.609,158.084 54.56,158.234 54.508,158.395 C53.38,161.825 52.386,164.896 51.492,167.661 C49.903,172.572 48.613,176.561 47.386,180.042 C51.672,176.163 56.616,172.423 61.886,169.103 C63.812,167.889 65.783,166.734 67.781,165.647 C78.031,160.069 89.004,156.337 98.52,156.337 C103.514,156.337 107.828,157.353 111.412,159.366 C111.855,147.566 111.256,135.002 109.383,122.309 L109.383,122.305 C109.069,120.177 108.716,118.046 108.329,115.913 C108.329,115.911 108.328,115.909 108.328,115.908 C106.828,107.647 104.781,99.375 102.101,91.267 C102.1,91.265 102.1,91.263 102.099,91.261 C101.411,89.179 100.691,87.105 99.919,85.048 C99.918,85.046 99.917,85.044 99.916,85.041 C91.887,63.643 79.277,43.727 60.786,28.601 C65.854,44.267 69.461,64.858 68.047,90.584 L68.047,90.584 Z" id="Shape"></path>
                <path d="M33.807,203.611 C33.764,203.456 33.722,203.3 33.68,203.145 C33.547,202.646 33.419,202.146 33.298,201.645 C33.266,201.516 33.23,201.388 33.199,201.258 L32.959,200.244 L31.544,197.113 L32.216,196.275 C32.209,196.229 32.204,196.183 32.196,196.137 C32.113,195.613 32.045,195.084 31.973,194.555 C31.903,194.036 31.833,193.516 31.774,192.995 C31.716,192.481 31.665,191.966 31.618,191.45 C31.562,190.838 31.517,190.223 31.477,189.609 C31.45,189.183 31.419,188.759 31.399,188.331 C31.352,187.304 31.322,186.273 31.32,185.238 C31.32,185.204 31.318,185.172 31.318,185.138 C31.318,185.113 31.32,185.089 31.32,185.065 C31.321,184.008 31.352,182.956 31.4,181.907 C31.414,181.604 31.434,181.303 31.451,181.001 C31.5,180.17 31.563,179.342 31.64,178.517 C31.664,178.259 31.686,178.001 31.714,177.744 C31.943,175.568 32.275,173.411 32.707,171.277 C32.737,171.129 32.77,170.982 32.801,170.835 C32.997,169.901 33.212,168.972 33.446,168.047 C33.488,167.88 33.529,167.714 33.573,167.547 C33.867,166.419 34.18,165.296 34.532,164.182 C31.86,165.613 29.279,167.285 26.835,169.201 L20.23,174.379 L23.099,159.962 L10.812,158.876 C10.619,159.536 10.419,160.192 10.241,160.857 C10.208,160.98 10.174,161.102 10.141,161.224 C9.815,162.46 9.511,163.704 9.235,164.959 L9.235,164.961 C8.954,166.241 8.699,167.532 8.471,168.831 C8.449,168.956 8.432,169.081 8.411,169.206 C8.224,170.29 8.058,171.382 7.91,172.479 C7.857,172.871 7.812,173.263 7.764,173.655 C7.66,174.502 7.567,175.351 7.486,176.205 C7.443,176.657 7.403,177.11 7.366,177.563 C7.299,178.403 7.246,179.248 7.201,180.094 C7.178,180.52 7.15,180.946 7.134,181.372 C7.087,182.545 7.06,183.723 7.057,184.906 C7.057,184.983 7.053,185.06 7.053,185.137 C7.053,185.212 7.056,185.286 7.057,185.36 C7.059,186.543 7.087,187.72 7.134,188.892 C7.151,189.309 7.177,189.724 7.199,190.14 C7.244,190.998 7.299,191.854 7.367,192.706 C7.402,193.139 7.439,193.572 7.48,194.005 C7.564,194.901 7.663,195.792 7.772,196.68 C7.814,197.023 7.852,197.367 7.898,197.709 C8.241,200.263 8.683,202.787 9.228,205.272 C9.24,205.327 9.254,205.38 9.266,205.435 C9.536,206.651 9.828,207.858 10.144,209.056 C10.169,209.154 10.196,209.25 10.222,209.348 C10.379,209.934 10.557,210.512 10.725,211.094 L35.399,208.671 C34.799,207.004 34.274,205.314 33.807,203.611 L33.807,203.611 Z" id="Shape"></path>
                <path d="M30.401,123.276 C29.468,124.34 28.544,125.413 27.658,126.518 C21.377,134.354 16.336,143.22 12.805,152.81 L24.321,153.828 L30.401,123.276 L30.401,123.276 Z" id="Shape"></path>
                <path d="M21.807,252.901 C21.807,254.713 23.281,256.186 25.092,256.186 C26.567,256.186 27.803,255.203 28.217,253.861 C26.932,252.503 25.688,251.106 24.48,249.677 C22.961,249.966 21.807,251.299 21.807,252.901 L21.807,252.901 Z" id="Shape"></path>
                <path d="M200.974,181.084 C200.959,180.731 200.931,180.382 200.913,180.03 C200.863,179.044 200.809,178.059 200.731,177.076 C200.695,176.628 200.643,176.185 200.601,175.739 C200.519,174.854 200.435,173.97 200.33,173.089 C200.274,172.63 200.205,172.175 200.143,171.718 C200.027,170.851 199.908,169.985 199.769,169.122 C199.699,168.688 199.618,168.258 199.541,167.827 C199.386,166.939 199.227,166.052 199.047,165.168 C198.97,164.789 198.884,164.413 198.803,164.036 C198.602,163.098 198.392,162.163 198.163,161.231 C198.089,160.927 198.008,160.625 197.93,160.322 C197.673,159.314 197.404,158.31 197.115,157.31 C197.054,157.102 196.991,156.897 196.929,156.69 C196.724,155.996 196.529,155.299 196.308,154.609 L195.551,152.24 L195.486,152.246 C192.133,142.643 187.372,133.696 181.426,125.671 C184.331,124.044 186.302,120.939 186.302,117.379 C186.302,112.138 182.038,107.875 176.799,107.875 C173.616,107.875 170.801,109.453 169.075,111.862 C159.028,102.515 147.056,95.223 133.839,90.61 L133.846,90.538 L131.478,89.78 C127.932,88.645 124.328,87.733 120.684,87.007 C120.516,86.973 120.35,86.935 120.181,86.902 C118.681,86.607 117.169,86.343 115.646,86.118 C115.394,86.081 115.141,86.051 114.889,86.015 C113.746,85.855 112.599,85.713 111.446,85.592 C111.09,85.554 110.732,85.522 110.376,85.488 C109.301,85.387 108.222,85.303 107.138,85.237 C106.926,85.224 106.717,85.199 106.504,85.188 C95.992,55.752 79.031,32.909 56.021,17.301 L52.34,14.804 L52.224,13.614 L52.144,14.014 L50.7,0 L44.514,0.638 L48.027,34.705 L32.701,111.719 C30.967,109.393 28.209,107.873 25.092,107.873 C19.852,107.873 15.589,112.136 15.589,117.377 C15.589,120.937 17.559,124.042 20.464,125.669 C14.519,133.694 9.756,142.641 6.404,152.244 L6.34,152.238 L5.582,154.607 C5.362,155.294 5.168,155.988 4.963,156.679 C4.9,156.891 4.835,157.101 4.774,157.313 C4.488,158.3 4.223,159.296 3.966,160.296 C3.885,160.611 3.801,160.926 3.723,161.242 C3.5,162.15 3.297,163.065 3.098,163.981 C3.011,164.384 2.92,164.785 2.837,165.189 C2.666,166.033 2.514,166.885 2.364,167.736 C2.281,168.207 2.192,168.676 2.116,169.15 C1.987,169.951 1.878,170.759 1.768,171.566 C1.697,172.087 1.619,172.604 1.556,173.127 C1.462,173.909 1.39,174.697 1.314,175.484 C1.261,176.029 1.199,176.572 1.156,177.12 C1.092,177.929 1.051,178.744 1.006,179.558 C0.977,180.082 0.936,180.604 0.915,181.13 C0.872,182.211 0.856,183.298 0.848,184.388 C0.847,184.638 0.833,184.886 0.833,185.137 C0.833,185.359 0.845,185.578 0.847,185.799 C0.854,186.912 0.871,188.023 0.915,189.127 C0.935,189.633 0.974,190.133 1.001,190.637 C1.046,191.469 1.088,192.301 1.154,193.127 C1.196,193.651 1.254,194.17 1.303,194.692 C1.38,195.501 1.455,196.31 1.552,197.112 C1.612,197.609 1.684,198.101 1.751,198.595 C1.863,199.428 1.977,200.262 2.11,201.088 C2.181,201.532 2.263,201.972 2.34,202.413 C2.495,203.296 2.653,204.178 2.831,205.053 C2.907,205.427 2.99,205.798 3.07,206.171 C3.274,207.119 3.485,208.065 3.716,209.003 C3.788,209.295 3.864,209.586 3.938,209.877 C4.2,210.903 4.473,211.924 4.767,212.937 C4.824,213.134 4.883,213.33 4.941,213.527 C5.123,214.144 5.294,214.765 5.488,215.379 L6.248,217.781 L6.311,217.775 C9.667,227.476 14.464,236.51 20.462,244.607 C17.557,246.235 15.587,249.34 15.587,252.9 C15.587,258.14 19.85,262.404 25.09,262.404 C28.272,262.404 31.087,260.826 32.813,258.417 C42.927,267.827 54.984,275.175 68.308,279.783 L68.303,279.836 L70.705,280.596 C71.148,280.736 71.596,280.857 72.04,280.991 C72.405,281.101 72.771,281.209 73.138,281.315 C73.874,281.528 74.611,281.734 75.351,281.929 C76.039,282.111 76.73,282.287 77.424,282.455 C77.892,282.567 78.36,282.677 78.829,282.782 C79.662,282.97 80.499,283.15 81.34,283.318 C81.714,283.392 82.088,283.463 82.462,283.533 C83.318,283.693 84.179,283.843 85.043,283.98 C85.356,284.031 85.669,284.082 85.982,284.129 C87.039,284.288 88.1,284.431 89.168,284.557 C89.402,284.584 89.637,284.608 89.871,284.633 C90.882,284.745 91.896,284.843 92.915,284.924 C93.065,284.936 93.215,284.951 93.365,284.962 C94.497,285.048 95.636,285.11 96.778,285.157 C97.002,285.166 97.227,285.174 97.451,285.181 C98.611,285.221 99.773,285.248 100.943,285.248 C102.128,285.248 103.305,285.22 104.479,285.179 C104.695,285.172 104.91,285.165 105.125,285.156 C106.283,285.108 107.437,285.044 108.584,284.957 C108.731,284.945 108.879,284.932 109.026,284.919 C110.092,284.834 111.155,284.731 112.213,284.611 C112.393,284.591 112.572,284.574 112.753,284.552 C113.863,284.421 114.968,284.269 116.067,284.102 C116.336,284.061 116.604,284.018 116.873,283.974 C117.917,283.807 118.957,283.627 119.989,283.428 C120.21,283.385 120.429,283.339 120.649,283.295 C121.549,283.114 122.444,282.92 123.335,282.716 C123.723,282.627 124.11,282.538 124.497,282.445 C125.409,282.224 126.317,281.992 127.22,281.747 C127.726,281.609 128.23,281.463 128.734,281.317 C129.215,281.177 129.695,281.034 130.173,280.887 C130.607,280.755 131.044,280.636 131.476,280.498 L133.845,279.741 L133.841,279.692 C147.061,275.077 159.026,267.763 169.073,258.415 C170.799,260.824 173.614,262.402 176.797,262.402 C182.036,262.402 186.3,258.138 186.3,252.898 C186.3,249.338 184.329,246.233 181.425,244.605 C187.423,236.508 192.22,227.473 195.576,217.772 L195.638,217.778 L196.399,215.376 C196.595,214.757 196.767,214.132 196.951,213.51 C197.007,213.322 197.063,213.135 197.117,212.946 C197.414,211.92 197.691,210.889 197.955,209.854 C198.026,209.574 198.099,209.295 198.168,209.015 C198.402,208.057 198.619,207.096 198.825,206.132 C198.901,205.778 198.979,205.426 199.052,205.071 C199.236,204.164 199.401,203.254 199.559,202.342 C199.63,201.934 199.706,201.527 199.772,201.117 C199.914,200.236 200.036,199.352 200.154,198.467 C200.213,198.028 200.278,197.592 200.331,197.152 C200.437,196.262 200.523,195.37 200.605,194.477 C200.646,194.041 200.696,193.608 200.73,193.17 C200.808,192.193 200.862,191.213 200.911,190.232 C200.93,189.878 200.958,189.528 200.972,189.173 C201.026,187.829 201.056,186.483 201.056,185.133 C201.058,183.784 201.027,182.433 200.974,181.084 L200.974,181.084 Z M176.8,114.091 C178.612,114.091 180.084,115.565 180.084,117.377 C180.084,118.98 178.93,120.313 177.41,120.601 C176.202,119.173 174.958,117.777 173.674,116.418 C174.087,115.076 175.324,114.091 176.8,114.091 L176.8,114.091 Z M133.276,96.987 C146.236,101.755 157.863,109.302 167.43,118.905 C169.831,121.316 172.1,123.86 174.231,126.518 C180.512,134.354 185.554,143.221 189.085,152.811 L163.73,155.052 C156.869,140.794 145.292,129.218 131.035,122.357 L133.276,96.987 L133.276,96.987 Z M67.626,239.055 C64.827,237.314 62.17,235.362 59.681,233.221 L98.664,231.849 C90.008,235.859 78.821,238.519 67.626,239.055 L67.626,239.055 Z M109.567,232.778 C110.488,234.133 111.607,235.501 112.88,236.836 C107.515,241.008 96.528,245.973 87.707,247.147 C87.582,247.121 87.456,247.099 87.332,247.072 C87.066,247.013 86.801,246.949 86.536,246.887 C85.835,246.723 85.135,246.556 84.443,246.369 C84.357,246.346 84.271,246.318 84.185,246.295 C82.083,245.719 80.027,245.033 78.017,244.252 C88.851,242.604 100.733,239.018 109.567,232.778 L109.567,232.778 Z M117.528,241.064 C119.187,242.387 120.941,243.616 122.713,244.695 C122.648,244.718 122.583,244.74 122.518,244.764 C121.616,245.091 120.706,245.404 119.784,245.691 C119.778,245.693 119.771,245.695 119.764,245.697 C119.012,245.931 118.257,246.15 117.498,246.356 C117.098,246.463 116.693,246.558 116.29,246.659 C115.934,246.748 115.578,246.845 115.219,246.927 C114.573,247.076 113.92,247.211 113.267,247.34 C113.149,247.363 113.033,247.392 112.915,247.414 C110.359,247.904 107.746,248.225 105.093,248.397 C110.179,246.146 114.644,243.486 117.528,241.064 L117.528,241.064 Z M109.016,211.561 C108.345,216.093 107.767,220.685 107.206,225.325 L53.744,227.208 C47.41,220.12 42.768,211.881 40.152,203.149 C40.111,203.012 40.077,202.872 40.037,202.734 C65.118,195.825 92.213,184.526 115.525,171.572 C116.004,171.306 116.48,171.038 116.956,170.771 C119.186,169.517 121.394,168.253 123.546,166.972 C120.488,171.765 118.083,176.778 116.123,181.958 C112.336,191.011 110.316,201.046 109.016,211.561 L109.016,211.561 Z M37.6,187.636 C37.579,187.106 37.567,186.574 37.559,186.04 C37.552,185.74 37.537,185.44 37.537,185.139 C37.537,184.958 37.549,184.78 37.55,184.599 C37.557,183.708 37.573,182.818 37.618,181.935 C37.637,181.549 37.677,181.166 37.703,180.781 C37.749,180.105 37.79,179.427 37.857,178.757 C37.903,178.304 37.97,177.856 38.025,177.404 C38.097,176.812 38.162,176.218 38.251,175.632 C38.334,175.08 38.441,174.532 38.539,173.984 C38.623,173.512 38.698,173.037 38.792,172.568 C38.933,171.874 39.097,171.185 39.261,170.496 C39.335,170.186 39.399,169.873 39.476,169.565 C39.695,168.703 39.938,167.848 40.194,166.995 C40.232,166.869 40.263,166.741 40.302,166.616 C40.907,164.643 41.61,162.695 42.41,160.775 C44.141,160.196 45.891,159.71 47.655,159.332 C46.904,161.633 46.212,163.772 45.573,165.746 C42.308,175.845 40.338,181.932 37.6,187.636 L37.6,187.636 Z M62.602,176.056 L63.876,188.418 C56.11,191.315 48.384,193.881 40.88,196.032 C41.033,195.886 41.186,195.74 41.34,195.601 C41.858,195.136 42.445,194.609 42.969,193.906 C47.495,187.828 54.565,181.457 62.602,176.056 L62.602,176.056 Z M68.475,172.388 C78.541,166.56 89.456,162.554 98.519,162.554 C103.879,162.554 108.104,164.011 111.128,166.851 C98.199,173.929 84.067,180.53 69.89,186.115 L68.475,172.388 L68.475,172.388 Z M115.271,211.692 C116.646,202.51 118.421,193.805 121.337,185.648 C121.852,184.339 122.4,183.053 122.993,181.795 L124.436,199.312 L114.896,214.724 C115.013,213.706 115.144,212.7 115.271,211.692 L115.271,211.692 Z M123.826,212.09 C128.327,218.978 137.844,226.752 146.281,229.416 C144.925,230.806 143.506,232.134 142.027,233.395 C133.648,232.369 122.557,222.297 120.913,216.789 L123.826,212.09 L123.826,212.09 Z M127.5,206.166 L129.998,202.136 C135.352,208.726 145.883,217.321 154.208,219.493 C153.152,221.126 152.022,222.706 150.825,224.23 C142.257,223.33 129.326,211.864 127.5,206.166 L127.5,206.166 Z M135.188,198.726 C142.019,197.627 150.486,194.941 156.198,191.817 C158.016,193.235 159.994,194.473 161.736,195.454 C156.272,199.502 146.143,202.981 139.778,203.404 C138.002,201.786 136.422,200.175 135.188,198.726 L135.188,198.726 Z M146.324,208.66 C151.488,207.489 157.21,205.376 161.849,202.746 C160.739,206.582 159.277,210.268 157.498,213.769 C154.473,213.603 150.355,211.489 146.324,208.66 L146.324,208.66 Z M157.027,183.96 L156.649,184.219 L156.53,184.098 C152.778,187.82 138.211,192.719 130.157,193.021 L128.343,170.99 C132.225,164.764 137.226,158.951 143.8,153.597 L139.991,148.684 C133.303,153.619 125.677,158.541 117.447,163.295 C117.964,153.866 118.016,139.816 115.774,123.496 C115.849,123.514 115.924,123.53 115.999,123.548 C116.634,123.702 117.265,123.872 117.895,124.046 C118.27,124.15 118.644,124.255 119.018,124.365 C119.499,124.507 119.978,124.658 120.456,124.811 C121.045,125 121.63,125.2 122.213,125.407 C122.487,125.504 122.763,125.602 123.036,125.704 C123.842,126.002 124.641,126.319 125.437,126.652 C125.518,126.686 125.599,126.718 125.679,126.752 C140.76,133.166 152.863,145.257 159.295,160.328 C159.375,160.517 159.449,160.708 159.528,160.897 C159.85,161.672 160.163,162.453 160.455,163.243 C160.52,163.421 160.579,163.6 160.643,163.779 C160.936,164.594 161.219,165.413 161.479,166.242 C161.517,166.365 161.549,166.488 161.586,166.611 C161.857,167.498 162.117,168.391 162.35,169.295 C162.361,169.335 162.369,169.376 162.379,169.416 C162.571,170.169 162.75,170.925 162.915,171.685 C163.41,173.966 163.783,176.291 164.024,178.655 C164.046,178.875 164.055,179.097 164.075,179.318 C164.152,180.16 164.225,181.003 164.268,181.854 C164.324,182.944 164.352,184.039 164.352,185.138 C164.352,185.825 164.323,186.508 164.301,187.191 C164.288,187.59 164.29,187.992 164.271,188.39 C164.265,188.493 164.253,188.595 164.248,188.698 C164.229,189.028 164.196,189.356 164.173,189.685 C161.147,187.919 158.304,185.823 157.027,183.96 L157.027,183.96 Z M109.104,91.611 C110.25,91.711 111.391,91.83 112.526,91.97 C112.756,91.998 112.987,92.026 113.217,92.055 C117.313,92.592 121.326,93.39 125.239,94.44 C125.32,94.461 125.4,94.483 125.48,94.505 C126.061,94.662 126.631,94.844 127.208,95.012 L125.018,119.789 C123.94,119.391 122.851,119.032 121.757,118.691 C121.625,118.649 121.492,118.611 121.361,118.571 C120.54,118.321 119.715,118.086 118.887,117.867 C118.546,117.776 118.205,117.686 117.863,117.6 C117.24,117.445 116.614,117.304 115.988,117.166 C115.578,117.076 115.173,116.976 114.761,116.893 C113.38,108.812 111.417,100.286 108.671,91.573 C108.816,91.585 108.961,91.599 109.104,91.611 L109.104,91.611 Z M99.915,85.041 C99.916,85.043 99.917,85.045 99.918,85.048 C100.689,87.105 101.41,89.179 102.098,91.261 C102.099,91.263 102.099,91.265 102.1,91.267 C104.78,99.375 106.827,107.646 108.327,115.908 C108.327,115.909 108.328,115.911 108.328,115.913 C108.715,118.045 109.067,120.176 109.382,122.305 L109.382,122.309 C111.255,135.002 111.855,147.566 111.411,159.366 C107.827,157.353 103.514,156.337 98.519,156.337 C89.002,156.337 78.03,160.069 67.78,165.647 C65.782,166.734 63.812,167.889 61.885,169.103 C56.615,172.423 51.671,176.164 47.385,180.042 C48.613,176.561 49.903,172.572 51.491,167.661 C52.385,164.896 53.379,161.825 54.507,158.395 C54.56,158.234 54.609,158.084 54.662,157.921 C55.307,155.962 55.922,154.024 56.516,152.101 C57.299,149.562 58.025,147.064 58.721,144.588 C58.876,144.034 59.035,143.478 59.186,142.927 C59.835,140.565 60.433,138.241 61.004,135.937 C61.779,132.813 62.486,129.743 63.127,126.724 C63.27,126.051 63.421,125.37 63.558,124.703 C65.528,115.055 66.819,105.955 67.563,97.385 C67.763,95.079 67.924,92.812 68.046,90.584 C69.46,64.858 65.853,44.267 60.784,28.601 C79.276,43.727 91.886,63.643 99.915,85.041 L99.915,85.041 Z M61.661,93.063 C61.502,95.387 61.313,97.741 61.066,100.15 C61.059,100.22 61.055,100.287 61.047,100.357 L61.027,100.168 L60.354,93.64 L54.247,34.41 L53.471,26.436 C59.243,42.463 63.618,64.555 61.661,93.063 L61.661,93.063 Z M38.342,115.231 L40.262,105.58 L50.11,56.094 L54.062,96.713 L54.717,103.442 L56.92,126.08 C56.466,128.191 55.978,130.329 55.456,132.494 C54.506,136.433 53.427,140.472 52.242,144.588 C51.481,147.235 50.685,149.906 49.823,152.626 C48.59,152.806 47.361,153.046 46.136,153.315 C43.923,153.8 41.726,154.412 39.565,155.176 C38.974,155.385 38.389,155.618 37.803,155.847 C34.943,156.965 32.145,158.308 29.453,159.899 L30.552,154.379 L38.342,115.231 L38.342,115.231 Z M25.092,114.091 C26.568,114.091 27.804,115.075 28.217,116.417 C26.933,117.775 25.688,119.172 24.481,120.601 C22.961,120.313 21.807,118.98 21.807,117.377 C21.807,115.565 23.281,114.091 25.092,114.091 L25.092,114.091 Z M27.658,126.518 C28.544,125.413 29.468,124.34 30.401,123.276 L24.321,153.828 L12.805,152.81 C16.336,143.22 21.377,134.354 27.658,126.518 L27.658,126.518 Z M10.222,209.35 C10.196,209.252 10.169,209.156 10.144,209.058 C9.828,207.86 9.535,206.653 9.266,205.437 C9.254,205.382 9.241,205.329 9.228,205.274 C8.683,202.789 8.241,200.265 7.898,197.711 C7.852,197.369 7.814,197.025 7.772,196.682 C7.663,195.794 7.564,194.903 7.48,194.007 C7.439,193.574 7.402,193.141 7.367,192.708 C7.299,191.856 7.244,191 7.199,190.142 C7.177,189.726 7.151,189.31 7.134,188.894 C7.088,187.722 7.06,186.545 7.057,185.362 C7.057,185.288 7.053,185.214 7.053,185.139 C7.053,185.062 7.057,184.985 7.057,184.908 C7.06,183.725 7.087,182.547 7.134,181.374 C7.151,180.948 7.178,180.522 7.201,180.096 C7.246,179.25 7.299,178.406 7.366,177.565 C7.403,177.111 7.443,176.659 7.486,176.207 C7.567,175.353 7.66,174.504 7.764,173.657 C7.812,173.265 7.857,172.872 7.91,172.481 C8.058,171.384 8.224,170.293 8.411,169.208 C8.432,169.083 8.449,168.958 8.471,168.833 C8.7,167.534 8.954,166.243 9.235,164.963 L9.235,164.961 C9.511,163.706 9.815,162.461 10.141,161.226 C10.173,161.103 10.208,160.981 10.241,160.859 C10.419,160.193 10.619,159.537 10.812,158.878 L23.099,159.964 L20.23,174.381 L26.835,169.203 C29.279,167.287 31.86,165.615 34.532,164.184 C34.18,165.298 33.867,166.421 33.573,167.549 C33.53,167.715 33.489,167.882 33.446,168.049 C33.212,168.973 32.997,169.903 32.801,170.837 C32.77,170.984 32.737,171.131 32.707,171.279 C32.275,173.413 31.943,175.57 31.714,177.746 C31.687,178.003 31.665,178.262 31.64,178.519 C31.562,179.345 31.499,180.172 31.451,181.003 C31.433,181.305 31.413,181.606 31.4,181.909 C31.352,182.958 31.321,184.01 31.32,185.067 C31.32,185.091 31.318,185.115 31.318,185.14 C31.318,185.174 31.32,185.206 31.32,185.24 C31.321,186.275 31.351,187.305 31.399,188.333 C31.419,188.761 31.45,189.185 31.477,189.611 C31.517,190.226 31.562,190.84 31.618,191.452 C31.665,191.969 31.716,192.484 31.774,192.997 C31.833,193.518 31.902,194.038 31.973,194.557 C32.045,195.085 32.112,195.614 32.196,196.139 C32.203,196.185 32.208,196.231 32.216,196.277 L31.544,197.115 L32.959,200.246 L33.199,201.26 C33.23,201.389 33.266,201.517 33.298,201.647 C33.42,202.148 33.548,202.648 33.68,203.147 C33.722,203.302 33.764,203.458 33.807,203.613 C34.274,205.317 34.799,207.006 35.399,208.675 L10.725,211.098 C10.557,210.514 10.378,209.936 10.222,209.35 L10.222,209.35 Z M25.092,256.187 C23.28,256.187 21.807,254.713 21.807,252.902 C21.807,251.299 22.961,249.966 24.48,249.678 C25.688,251.107 26.933,252.503 28.217,253.862 C27.804,255.203 26.567,256.187 25.092,256.187 L25.092,256.187 Z M68.935,273.409 C55.847,268.647 44.106,261.056 34.461,251.375 C32.058,248.963 29.789,246.418 27.657,243.759 C21.307,235.836 16.219,226.863 12.684,217.152 L37.913,214.674 C44.825,229.366 56.72,241.262 71.413,248.174 L68.935,273.409 L68.935,273.409 Z M125.446,275.782 C125.106,275.874 124.767,275.971 124.426,276.059 C123.965,276.178 123.5,276.288 123.036,276.4 C122.529,276.522 122.022,276.642 121.513,276.755 C121.1,276.849 120.686,276.941 120.27,277.027 C119.454,277.198 118.635,277.361 117.814,277.51 C117.559,277.556 117.304,277.599 117.048,277.643 C116.253,277.781 115.456,277.909 114.657,278.026 C114.353,278.071 114.049,278.113 113.744,278.155 C112.955,278.262 112.164,278.361 111.372,278.449 C111.177,278.47 110.983,278.496 110.788,278.516 C109.799,278.619 108.808,278.705 107.814,278.778 C107.603,278.794 107.392,278.804 107.181,278.819 C106.364,278.873 105.543,278.916 104.723,278.948 C104.476,278.958 104.229,278.969 103.981,278.976 C102.97,279.008 101.958,279.03 100.944,279.03 C99.941,279.03 98.939,279.009 97.939,278.978 C97.688,278.97 97.437,278.958 97.186,278.949 C96.398,278.918 95.611,278.877 94.825,278.826 C94.586,278.81 94.346,278.798 94.108,278.78 C93.134,278.711 92.163,278.627 91.194,278.527 C90.995,278.506 90.798,278.48 90.6,278.459 C89.838,278.375 89.077,278.281 88.317,278.18 C87.967,278.132 87.618,278.083 87.27,278.033 C86.623,277.938 85.978,277.835 85.333,277.726 C84.999,277.67 84.664,277.62 84.331,277.56 C83.495,277.411 82.663,277.247 81.831,277.075 C81.338,276.972 80.849,276.862 80.359,276.753 C79.966,276.665 79.574,276.574 79.182,276.481 C78.621,276.348 78.061,276.213 77.504,276.07 C77.381,276.039 77.26,276.004 77.138,275.972 C76.418,275.783 75.701,275.586 74.988,275.381 L77.411,250.688 C80.485,251.794 83.623,252.665 86.809,253.323 C86.933,253.348 87.057,253.371 87.181,253.395 C88.129,253.585 89.08,253.756 90.036,253.907 C90.266,253.943 90.496,253.977 90.727,254.011 C91.589,254.137 92.455,254.247 93.324,254.342 C93.606,254.372 93.886,254.404 94.169,254.432 C95.028,254.515 95.891,254.578 96.756,254.629 C97.025,254.646 97.292,254.668 97.562,254.681 C98.686,254.735 99.812,254.768 100.944,254.768 C102.087,254.768 103.223,254.735 104.357,254.68 C104.616,254.668 104.874,254.645 105.132,254.629 C106.015,254.577 106.895,254.513 107.772,254.428 C108.045,254.402 108.316,254.368 108.588,254.338 C109.463,254.243 110.335,254.133 111.204,254.005 C111.439,253.97 111.674,253.933 111.908,253.896 C112.827,253.75 113.743,253.586 114.654,253.405 C114.828,253.37 115.001,253.337 115.174,253.301 C116.175,253.093 117.17,252.863 118.16,252.61 C118.238,252.59 118.317,252.572 118.395,252.551 C120.629,251.973 122.84,251.294 125.016,250.49 L127.208,275.289 C126.625,275.459 126.036,275.623 125.446,275.782 L125.446,275.782 Z M129.807,241.58 C123.098,238.628 116.133,232.422 113.831,228.21 L117.177,222.814 C120.972,228.799 128.45,235.165 135.887,238.025 C133.934,239.319 131.902,240.504 129.807,241.58 L129.807,241.58 Z M176.8,256.187 C175.324,256.187 174.088,255.203 173.674,253.861 C174.958,252.503 176.203,251.107 177.41,249.678 C178.931,249.966 180.084,251.299 180.084,252.902 C180.084,254.713 178.611,256.187 176.8,256.187 L176.8,256.187 Z M174.232,243.76 C172.101,246.418 169.833,248.962 167.43,251.373 C157.863,260.977 146.237,268.526 133.277,273.295 L131.034,247.922 C145.474,240.974 157.154,229.183 163.979,214.673 L189.206,217.151 C185.671,226.863 180.583,235.836 174.232,243.76 L174.232,243.76 Z M194.755,188.957 C194.741,189.304 194.719,189.651 194.701,189.998 C194.652,190.934 194.594,191.866 194.518,192.793 C194.487,193.17 194.455,193.548 194.419,193.924 C194.328,194.891 194.224,195.853 194.104,196.811 C194.069,197.093 194.039,197.374 194,197.656 C193.654,200.241 193.207,202.795 192.654,205.31 C192.652,205.318 192.65,205.326 192.648,205.334 C192.371,206.596 192.066,207.849 191.737,209.091 C191.718,209.164 191.698,209.236 191.679,209.309 C191.519,209.909 191.335,210.499 191.164,211.095 L166.491,208.672 C167.591,205.614 168.458,202.493 169.114,199.324 C169.151,199.147 169.183,198.969 169.218,198.792 C169.395,197.903 169.556,197.011 169.697,196.115 C169.742,195.836 169.783,195.555 169.824,195.274 C169.941,194.47 170.044,193.664 170.133,192.855 C170.17,192.521 170.208,192.187 170.24,191.852 C170.315,191.066 170.372,190.277 170.421,189.486 C170.442,189.147 170.47,188.811 170.485,188.47 C170.534,187.442 170.56,186.41 170.564,185.375 C170.564,185.296 170.57,185.218 170.57,185.139 C170.57,185.051 170.563,184.964 170.563,184.876 C170.559,183.839 170.533,182.806 170.485,181.776 C170.468,181.438 170.44,181.104 170.419,180.767 C170.37,179.967 170.313,179.168 170.236,178.372 C170.204,178.039 170.164,177.708 170.127,177.376 C170.037,176.567 169.937,175.76 169.818,174.957 C169.775,174.665 169.729,174.374 169.683,174.084 C169.546,173.23 169.394,172.378 169.225,171.531 C169.179,171.299 169.134,171.066 169.085,170.835 C168.891,169.907 168.677,168.983 168.444,168.064 C168.407,167.918 168.373,167.77 168.335,167.624 C167.76,165.411 167.086,163.222 166.29,161.066 L191.073,158.876 C191.274,159.565 191.484,160.251 191.67,160.948 C191.691,161.023 191.712,161.098 191.732,161.174 C192.4,163.703 192.967,166.272 193.424,168.879 C193.429,168.907 193.433,168.935 193.437,168.962 C193.644,170.147 193.824,171.341 193.986,172.542 C194.03,172.874 194.068,173.206 194.109,173.539 C194.222,174.455 194.323,175.375 194.41,176.299 C194.447,176.693 194.483,177.088 194.514,177.483 C194.589,178.402 194.648,179.326 194.696,180.253 C194.714,180.607 194.737,180.959 194.752,181.313 C194.803,182.584 194.835,183.858 194.835,185.141 C194.838,186.418 194.806,187.689 194.755,188.957 L194.755,188.957 Z" id="Shape" fill="#354E81"></path>
            </g>
        </g>
    </g>
</svg>