<svg xmlns="http://www.w3.org/2000/svg"><symbol id="icon-add-cal" viewBox="0 0 18 20"><path d="M16 18V6H2v12h14zM13 0h2v2h1a2 2 0 0 1 2 2v14a2 2 0 0 1-2 2H2a2 2 0 0 1-2-2V4c0-1.11.89-2 2-2h1V0h2v2h8V0zM8 8h2v3h3v2h-3v3H8v-3H5v-2h3V8z"/></symbol><symbol id="pic-logo-w" viewBox="0 0 68 75"><g fill="none" fill-rule="evenodd"><path d="M40.462 1.322c-.812-.306-1.532-.704-3.575-.94-1.605-.186-4.222-.12-5.835 2.192-1.418 2.035-1.58 5.533 1.975 9.846 3.554 4.315 5.198 5.156 2.72 6.753 0 0 .937 6.18 5.932 8.737 0 0 1.132-.143 2.783-2.462 1.651-2.319.74-7.35.74-7.35s-2.416-1.597-5.162-4.184c-2.172-2.043-3.55-3.921-3.55-3.921-3.288-5.582.96-6.884 3.602-7.134 1.738-.164 2.52-1.633 2.195-1.563-.356.077-1.015.33-1.825.026" fill="#FFF"/><path d="M38.478 11.47s-.552-.361-1.398-1.728c-.844-1.367-.067-2.453 1.966-2.387 2.033.062 4.761 1.261 6.407 4.757 0 0-5.13-2.304-6.975-.642M47.714 6.818s1.42-.724 2.893.406c1.43 1.098 1.77 3.186 1.147 4.668-.488 1.055-1.387 1.503-1.387 1.503s.104-1.346-1.028-2.624c-1.128-1.282-1.61-3.183-1.625-3.953M49.17 11.413s-.18 1.65-1.71 1.552c-1.037-.063-1.37-.549-1.37-.549s-.308-1.552-1.632-2.852c0 0 2.62 2.031 4.712 1.849M27.343 43.088s-.933 1.19-3.139.786c0 0 2.67 2.704 2.127 2.86-.47.133-1-.235-2.132-.368-2.076-.249-2.124 2.944-1.2 2.938 0 0 1.296-1.157 4.92-.582 3.5.558 7.671.448 9.254-.042 0 0-.497-2.572-2.456-2.194-4.124.798-4.143.44-4.91-.018-1.73-1.022-2.464-3.38-2.464-3.38M40.437 36.822s-.332.79-2.186 1.37c0 0 3.34 1.455 2.75 2.098-.328.363-1.018-.046-1.718.253-1.924.82-.772 3.382.095 3.056 0 0 .2-1.278 3.798-1.988 3.48-.687 6.679-1.798 7.998-2.805 0 0-1.359-2.255-3.064-1.212-3.09 1.895-3.983 1.562-4.788 1.229-1.854-.769-2.885-2-2.885-2" fill="#FFF"/><path d="M46.113 7.493l.758.087c-.065.543.097 1.347.097 1.347-.61-.282-.855-1.434-.855-1.434m-4.039-1.552c-.188-.096-.51-.083-.92-.184-.032-.009-.844-.391-.518-1.051.176-.356.693-.5 1.093-.275.602.339.46 1.107.55 1.326.136.332-.015.284-.205.184m5.254 1.055s-1.278-.164-2.38-.687c-1.96-.93-3.373-3.371-3.373-3.371s-2.22.549-3.793 1.157c-2.62 1.013-1.471 3.567-1.471 3.567s.891-.873 2.259-1.052c2.535-.072 4.228 1.536 6.37 2.866 2.136 1.33 3.735 1.35 3.735 1.35-1.3-1.207-1.347-3.83-1.347-3.83M30.08 30.706c-.44.535-1.548.696-1.548.696s-.133-.411.01-1.206c.142-.796 1.553-1.374 1.553-1.374-.045.838.829.898.829.898s-.403.455-.843.986m-3.038-1.955s.517-.875.774-.984c.257-.104 1.494-.132 1.494-.132-.26.617.401.979.401.979s-1.142.586-1.74.511c-.602-.072-.93-.374-.93-.374m-1.4 5.09c-1.46.152-3.217-.914-3.217-.914 1.032-.457 4.41-1.6 5.42-2.529-.274 1.885 1.178 1.488 1.178 1.488s-.413 1.135-3.38 1.954m-5.226-3.669s.046-.285 2.008-.985c.573-.205 3.133-.883 4.02-.774 0 0-.044 1.073.693 1.125 0 0-1.01 1.747-4.571 1.872-.951-.063-2.15-1.238-2.15-1.238m-.752-4.158s1.307-.31 2.523-.384c.61-.036 3.597-.47 4.403-.078 0 0-1.058.755-.169 1.622 0 0-2.142 1.24-5.176.707-1.16-.319-1.581-1.867-1.581-1.867m3.664-4.043c.585.182 2.693.515 3.343.92 0 0-.383.174-.477.652-.083.412.473 1.096.473 1.096s-2.162 1.057-4.475-.684c-.646-.488-.34-2.21-.34-2.21s.89.037 1.476.226m4.468 3.761l1.273.01c-.443.843.245 1.237.245 1.237s-1.313.172-1.75.186c-.436.011-.905-.61-.905-.61.226-.691 1.137-.823 1.137-.823m-.129-2.494c.583.005 2.08.726 2.08.726-.984.223-.455 1.156-.455 1.156-1.015.094-1.928-.422-2.218-.643-.288-.222-.394-.732-.394-.732s.404-.512.987-.507m7.236-3.983s-5.484-2.733-7.454-3.176c-3.56-.795-10.095 2.529-14.39 7.069-4.295 4.541-.86 8.18 2.33 11.374 3.63 3.641 5.18 5.126 8.274 8.302.669.687 3.118.03 3.55-.63.434-.66.514-4.068 3.918-5.188 4.894-1.609 8.921-3.345 9.518-7.781 0 0-4.73-3.315-5.746-9.97" fill="#FFF"/><path d="M33.807 36.51s3.2 1.46 3.829 1.39c.63-.07 2.731-1.263 2.52-2.035-.21-.773-1.024-2.308-1.024-2.308s-.866.912-1.905 1.608c-1.038.695-3.42 1.346-3.42 1.346M6.277 32.565c2.685-2.08 4.196-2.146 4.196-2.146s-3.504-1.434-5.925 2.594c-.37.613-.951 1.633-.951 1.633s2.468.103 3.203-.288c.74-.394 4.03-1.743 4.604-2.824-2.262-.474-5.127 1.031-5.127 1.031M9.818 28.818c-2.146-.884-5.486-.045-5.486-.045 3.022-1.549 5.282-1.285 5.282-1.285s-3.742-2.107-7.684.435c-.602.386-1.574 1.045-1.574 1.045s.923 1.402 3.006 1.16c.829-.098 5.606-.514 6.596-1.23l-.01-.032c-.046-.017-.08-.027-.13-.048M4.863 22.88c3.317.495 4.794 1.872 4.832 1.908l.029-.079s-2.199-3.685-6.884-3.708c-.717-.004-1.887.02-1.887.02s-.3 1.307 1.887 2.613c.719.429 5.182 2.51 6.404 2.447-1.239-1.97-4.38-3.2-4.38-3.2M8.62 17.69c-.612-.365-1.638-.944-1.638-.944s-.753 1.406.314 3.218c.422.713 2.03 3.378 3.112 3.99.01-2.292-1.86-4.785-1.86-4.785 2.49 2.322 3.009 3.874 3.009 3.874s1.088-2.953-2.936-5.352M13.112 58.984v-5.86c0-1.284-.038-1.724-.477-1.973-.23-.134-.515-.192-.82-.192-.402 0-.67.096-.822.173-.363.191-.4.459-.516 1.991-.324 4.06-.706 6.57-1.756 7.967h2.615c.84 0 1.09-.077 1.26-.172.42-.23.516-.728.516-1.934m5.48 5.993c-.573.25-1.471.25-2.12 0 0-.67-.057-1.531-.21-2.45H8.13c-.153.919-.21 1.78-.21 2.45-.65.25-1.547.25-2.12 0 .02-.842-.057-1.722-.191-2.45 0-.575.115-1.035.363-1.437h.592c.974-.421 1.451-1.225 1.718-2.03.344-1.015.668-2.739.764-5.937.057-1.742-.057-1.934-1.68-2.106a6.977 6.977 0 0 1-.172-1.494c1.011.057 2.692.057 5.25.057 3.59 0 5.135-.02 5.899-.057 0 .517 0 .996-.172 1.494-1.05.115-1.24.383-1.24 2.106v5.86c0 1.723.171 1.954 1.24 2.107h.249c.248.402.363.862.363 1.436a12.44 12.44 0 0 0-.191 2.451M24.376 58.352v2.335c.344.441.687.652 1.203.652.878 0 2.004-.517 2.004-3.332 0-1.226-.286-2.547-1.489-2.547-.84 0-1.718.746-1.718 2.892zm0 5.036c0 1.647.477 2.221 2.081 2.336.153.422.172 1.015.172 1.494-.726-.038-2.234-.057-3.437-.057-1.374 0-2.978.019-3.856.057 0-.689.038-1.13.134-1.494 1.03-.076 1.279-.383 1.279-2.145v-6.224c0-1.244-.115-1.59-1.356-1.704 0-.479.038-1.034.249-1.436 1.89 0 3.475-.325 4.085-.632.42.191.65.555.65 1.225.17-.19.324-.344.496-.478.476-.365 1.394-.747 2.443-.747 2.195 0 3.914 1.149 3.914 3.868 0 3.18-2.253 5.248-5.632 5.248-.42 0-.783-.039-1.222-.135v.824zM36.008 57.586c0 1.972.61 3.638 1.852 3.638.859 0 1.355-1.15 1.355-2.604 0-2.49-.897-3.658-1.833-3.658-.935 0-1.374 1.187-1.374 2.624m6.835.401c0 3.007-2.024 4.711-5.346 4.711-3.417 0-5.116-1.684-5.116-4.385 0-3.236 2.347-4.73 5.287-4.73 3.514 0 5.175 1.857 5.175 4.404M54.473 59.424c0 1.263.19 1.666.82 1.666.172.422.21.862.21 1.494-.573-.019-1.756-.058-2.845-.058-1.087 0-2.271.04-2.844.058 0-.632.038-1.072.21-1.494.63 0 .821-.403.821-1.666v-.881c-.84 0-1.642.02-2.367.115v.766c0 1.263.19 1.666.82 1.666.172.422.21.862.21 1.494-.572-.019-1.756-.058-2.844-.058-1.088 0-2.272.04-2.844.058 0-.632.038-1.072.21-1.494.63 0 .82-.403.82-1.666v-2.566c0-1.264-.19-1.667-.82-1.667-.172-.42-.21-.86-.21-1.493.572.02 1.756.057 2.844.057 1.088 0 2.272-.038 2.844-.057 0 .632-.038 1.073-.21 1.493-.63 0-.82.403-.82 1.667v.46h2.367v-.46c0-1.264-.19-1.667-.821-1.667-.172-.42-.21-.86-.21-1.493.573.02 1.757.057 2.844.057 1.089 0 2.272-.038 2.846-.057 0 .632-.039 1.073-.21 1.493-.63 0-.821.403-.821 1.667v2.566zM63.657 59.424c0 1.436.267 1.628 1.603 1.685.135.403.192 1.034.192 1.475-.535-.039-1.795-.058-3.34-.058-1.528 0-3.36.019-4.068.058 0-.383.115-1.054.23-1.475 1.356-.057 1.756-.153 1.756-1.685v-4.347c-.878.057-1.432.517-1.776 1.857-.706 0-1.374-.019-1.89-.248.23-.882.44-2.145.44-2.969 1.432.038 2.29.038 5.097.038 2.406 0 3.532-.038 4.945-.038.018.804.19 2.011.477 2.949-.497.172-1.146.268-1.91.268-.343-1.436-.725-1.857-1.699-1.857h-.057v4.347z" fill="#FFF"/><path d="M33.392 70.71c0 1.651-.82 2.621-2.21 2.621-.678 0-1.314-.198-1.716-.53l.338-.589c.347.283.82.44 1.307.44.82 0 1.335-.61 1.412-1.658h-1.864v-.659h1.857c-.091-.991-.544-1.565-1.264-1.565-.374 0-.677.19-.875.538l-.77-.319c.417-.694 1.024-.899 1.645-.899 1.342 0 2.14.97 2.14 2.62M38.452 73.19a.724.724 0 0 1-.445.142c-.367 0-.529-.114-.706-.326l-1.927-2.324 1.941-2.592.79.141-1.785 2.388 2.132 2.57zm-3.114-4.604v4.675h-.833v-5.065a.756.756 0 0 1 .374-.106c.276 0 .46.191.46.496zM42.562 70.71c0-1.218-.558-1.94-1.497-1.94-.94 0-1.496.722-1.496 1.94 0 1.219.557 1.942 1.496 1.942s1.497-.723 1.497-1.941m-3.849 0c0-1.65.876-2.621 2.359-2.621s2.358.97 2.358 2.62c0 1.651-.875 2.621-2.358 2.621s-2.359-.97-2.359-2.62M48.703 72.616v1.389a.773.773 0 0 1-.38.105c-.269 0-.453-.19-.453-.495v-.354h-3.34v-5.065a.753.753 0 0 1 .375-.107c.275 0 .459.192.459.497v4.016h2.069v-4.406a.754.754 0 0 1 .374-.107c.275 0 .459.192.459.497v4.03h.437zM52.87 72.602v.659H49.79v-5.1h3.001v.658h-2.167v1.488h1.92v.66h-1.92v1.635zM57.973 68.586v4.675h-.833v-2.26h-2.386v2.26h-.834v-5.065a.76.76 0 0 1 .374-.106c.276 0 .46.191.46.496v1.756h2.386v-2.146a.759.759 0 0 1 .374-.106c.276 0 .46.191.46.496M62.461 68.82h-1.349v4.441h-.833V68.82h-1.35v-.658h3.532zM66.118 69.676c0-.58-.41-.927-1.115-.927-.227 0-.481.007-.749.02v1.85c.246.014.508.021.742.021.713 0 1.122-.361 1.122-.964m.861 0c0 1.02-.734 1.623-1.983 1.623-.234 0-.488-.008-.742-.022v1.984h-.834v-5.1c.516-.043 1.173-.071 1.583-.071 1.242 0 1.976.588 1.976 1.586" fill="#BBC001"/></g></symbol><symbol id="icon-close" viewBox="0 0 14 14"><path d="M14 1.41L12.59 0 7 5.59 1.41 0 0 1.41 5.59 7 0 12.59 1.41 14 7 8.41 12.59 14 14 12.59 8.41 7 14 1.41z"/></symbol><symbol id="icon-down" viewBox="0 0 12 8"><path d="M1.41.58L6 5.17 10.59.58 12 2 6 8 0 2 1.41.58z"/></symbol><symbol id="icon-facebook" viewBox="0 0 15 32"><path d="M14.66 10.216H9.667V6.94c0-1.23.815-1.516 1.39-1.516h3.523V.019L9.727 0C4.341 0 3.115 4.032 3.115 6.612v3.604H0v5.57h3.115V31.55h6.552V15.786h4.421l.572-5.57z"/></symbol><symbol id="pic-logo" viewBox="0 0 68 75"><g fill="none" fill-rule="evenodd"><path d="M40.462 1.322c-.812-.306-1.532-.704-3.575-.94-1.605-.186-4.222-.12-5.835 2.192-1.418 2.035-1.58 5.533 1.975 9.846 3.554 4.315 5.198 5.156 2.72 6.753 0 0 .937 6.18 5.932 8.737 0 0 1.132-.143 2.783-2.462 1.651-2.319.74-7.35.74-7.35s-2.416-1.597-5.162-4.184c-2.172-2.043-3.55-3.921-3.55-3.921-3.288-5.582.96-6.884 3.602-7.134 1.738-.164 2.52-1.633 2.195-1.563-.356.077-1.015.33-1.825.026" fill="#413630"/><path d="M38.478 11.47s-.552-.361-1.398-1.728c-.844-1.367-.067-2.453 1.966-2.387 2.033.062 4.761 1.261 6.407 4.757 0 0-5.13-2.304-6.975-.642M47.714 6.818s1.42-.724 2.893.406c1.43 1.098 1.77 3.186 1.147 4.668-.488 1.055-1.387 1.503-1.387 1.503s.104-1.346-1.028-2.624c-1.128-1.282-1.61-3.183-1.625-3.953M49.17 11.413s-.18 1.65-1.71 1.552c-1.037-.063-1.37-.549-1.37-.549s-.308-1.552-1.632-2.852c0 0 2.62 2.031 4.712 1.849M27.343 43.088s-.933 1.19-3.139.786c0 0 2.67 2.704 2.127 2.86-.47.133-1-.235-2.132-.368-2.076-.249-2.124 2.944-1.2 2.938 0 0 1.296-1.157 4.92-.582 3.5.558 7.671.448 9.254-.042 0 0-.497-2.572-2.456-2.194-4.124.798-4.143.44-4.91-.018-1.73-1.022-2.464-3.38-2.464-3.38M40.437 36.822s-.332.79-2.186 1.37c0 0 3.34 1.455 2.75 2.098-.328.363-1.018-.046-1.718.253-1.924.82-.772 3.382.095 3.056 0 0 .2-1.278 3.798-1.988 3.48-.687 6.679-1.798 7.998-2.805 0 0-1.359-2.255-3.064-1.212-3.09 1.895-3.983 1.562-4.788 1.229-1.854-.769-2.885-2-2.885-2" fill="#413630"/><path d="M46.113 7.493l.758.087c-.065.543.097 1.347.097 1.347-.61-.282-.855-1.434-.855-1.434m-4.039-1.552c-.188-.096-.51-.083-.92-.184-.032-.009-.844-.391-.518-1.051.176-.356.693-.5 1.093-.275.602.339.46 1.107.55 1.326.136.332-.015.284-.205.184m5.254 1.055s-1.278-.164-2.38-.687c-1.96-.93-3.373-3.371-3.373-3.371s-2.22.549-3.793 1.157c-2.62 1.013-1.471 3.567-1.471 3.567s.891-.873 2.259-1.052c2.535-.072 4.228 1.536 6.37 2.866 2.136 1.33 3.735 1.35 3.735 1.35-1.3-1.207-1.347-3.83-1.347-3.83M30.08 30.706c-.44.535-1.548.696-1.548.696s-.133-.411.01-1.206c.142-.796 1.553-1.374 1.553-1.374-.045.838.829.898.829.898s-.403.455-.843.986m-3.038-1.955s.517-.875.774-.984c.257-.104 1.494-.132 1.494-.132-.26.617.401.979.401.979s-1.142.586-1.74.511c-.602-.072-.93-.374-.93-.374m-1.4 5.09c-1.46.152-3.217-.914-3.217-.914 1.032-.457 4.41-1.6 5.42-2.529-.274 1.885 1.178 1.488 1.178 1.488s-.413 1.135-3.38 1.954m-5.226-3.669s.046-.285 2.008-.985c.573-.205 3.133-.883 4.02-.774 0 0-.044 1.073.693 1.125 0 0-1.01 1.747-4.571 1.872-.951-.063-2.15-1.238-2.15-1.238m-.752-4.158s1.307-.31 2.523-.384c.61-.036 3.597-.47 4.403-.078 0 0-1.058.755-.169 1.622 0 0-2.142 1.24-5.176.707-1.16-.319-1.581-1.867-1.581-1.867m3.664-4.043c.585.182 2.693.515 3.343.92 0 0-.383.174-.477.652-.083.412.473 1.096.473 1.096s-2.162 1.057-4.475-.684c-.646-.488-.34-2.21-.34-2.21s.89.037 1.476.226m4.468 3.761l1.273.01c-.443.843.245 1.237.245 1.237s-1.313.172-1.75.186c-.436.011-.905-.61-.905-.61.226-.691 1.137-.823 1.137-.823m-.129-2.494c.583.005 2.08.726 2.08.726-.984.223-.455 1.156-.455 1.156-1.015.094-1.928-.422-2.218-.643-.288-.222-.394-.732-.394-.732s.404-.512.987-.507m7.236-3.983s-5.484-2.733-7.454-3.176c-3.56-.795-10.095 2.529-14.39 7.069-4.295 4.541-.86 8.18 2.33 11.374 3.63 3.641 5.18 5.126 8.274 8.302.669.687 3.118.03 3.55-.63.434-.66.514-4.068 3.918-5.188 4.894-1.609 8.921-3.345 9.518-7.781 0 0-4.73-3.315-5.746-9.97" fill="#413630"/><path d="M33.807 36.51s3.2 1.46 3.829 1.39c.63-.07 2.731-1.263 2.52-2.035-.21-.773-1.024-2.308-1.024-2.308s-.866.912-1.905 1.608c-1.038.695-3.42 1.346-3.42 1.346M6.277 32.565c2.685-2.08 4.196-2.146 4.196-2.146s-3.504-1.434-5.925 2.594c-.37.613-.951 1.633-.951 1.633s2.468.103 3.203-.288c.74-.394 4.03-1.743 4.604-2.824-2.262-.474-5.127 1.031-5.127 1.031M9.818 28.818c-2.146-.884-5.486-.045-5.486-.045 3.022-1.549 5.282-1.285 5.282-1.285s-3.742-2.107-7.684.435c-.602.386-1.574 1.045-1.574 1.045s.923 1.402 3.006 1.16c.829-.098 5.606-.514 6.596-1.23l-.01-.032c-.046-.017-.08-.027-.13-.048M4.863 22.88c3.317.495 4.794 1.872 4.832 1.908l.029-.079s-2.199-3.685-6.884-3.708c-.717-.004-1.887.02-1.887.02s-.3 1.307 1.887 2.613c.719.429 5.182 2.51 6.404 2.447-1.239-1.97-4.38-3.2-4.38-3.2M8.62 17.69c-.612-.365-1.638-.944-1.638-.944s-.753 1.406.314 3.218c.422.713 2.03 3.378 3.112 3.99.01-2.292-1.86-4.785-1.86-4.785 2.49 2.322 3.009 3.874 3.009 3.874s1.088-2.953-2.936-5.352M13.112 58.984v-5.86c0-1.284-.038-1.724-.477-1.973-.23-.134-.515-.192-.82-.192-.402 0-.67.096-.822.173-.363.191-.4.459-.516 1.991-.324 4.06-.706 6.57-1.756 7.967h2.615c.84 0 1.09-.077 1.26-.172.42-.23.516-.728.516-1.934m5.48 5.993c-.573.25-1.471.25-2.12 0 0-.67-.057-1.531-.21-2.45H8.13c-.153.919-.21 1.78-.21 2.45-.65.25-1.547.25-2.12 0 .02-.842-.057-1.722-.191-2.45 0-.575.115-1.035.363-1.437h.592c.974-.421 1.451-1.225 1.718-2.03.344-1.015.668-2.739.764-5.937.057-1.742-.057-1.934-1.68-2.106a6.977 6.977 0 0 1-.172-1.494c1.011.057 2.692.057 5.25.057 3.59 0 5.135-.02 5.899-.057 0 .517 0 .996-.172 1.494-1.05.115-1.24.383-1.24 2.106v5.86c0 1.723.171 1.954 1.24 2.107h.249c.248.402.363.862.363 1.436a12.44 12.44 0 0 0-.191 2.451M24.376 58.352v2.335c.344.441.687.652 1.203.652.878 0 2.004-.517 2.004-3.332 0-1.226-.286-2.547-1.489-2.547-.84 0-1.718.746-1.718 2.892zm0 5.036c0 1.647.477 2.221 2.081 2.336.153.422.172 1.015.172 1.494-.726-.038-2.234-.057-3.437-.057-1.374 0-2.978.019-3.856.057 0-.689.038-1.13.134-1.494 1.03-.076 1.279-.383 1.279-2.145v-6.224c0-1.244-.115-1.59-1.356-1.704 0-.479.038-1.034.249-1.436 1.89 0 3.475-.325 4.085-.632.42.191.65.555.65 1.225.17-.19.324-.344.496-.478.476-.365 1.394-.747 2.443-.747 2.195 0 3.914 1.149 3.914 3.868 0 3.18-2.253 5.248-5.632 5.248-.42 0-.783-.039-1.222-.135v.824zM36.008 57.586c0 1.972.61 3.638 1.852 3.638.859 0 1.355-1.15 1.355-2.604 0-2.49-.897-3.658-1.833-3.658-.935 0-1.374 1.187-1.374 2.624m6.835.401c0 3.007-2.024 4.711-5.346 4.711-3.417 0-5.116-1.684-5.116-4.385 0-3.236 2.347-4.73 5.287-4.73 3.514 0 5.175 1.857 5.175 4.404M54.473 59.424c0 1.263.19 1.666.82 1.666.172.422.21.862.21 1.494-.573-.019-1.756-.058-2.845-.058-1.087 0-2.271.04-2.844.058 0-.632.038-1.072.21-1.494.63 0 .821-.403.821-1.666v-.881c-.84 0-1.642.02-2.367.115v.766c0 1.263.19 1.666.82 1.666.172.422.21.862.21 1.494-.572-.019-1.756-.058-2.844-.058-1.088 0-2.272.04-2.844.058 0-.632.038-1.072.21-1.494.63 0 .82-.403.82-1.666v-2.566c0-1.264-.19-1.667-.82-1.667-.172-.42-.21-.86-.21-1.493.572.02 1.756.057 2.844.057 1.088 0 2.272-.038 2.844-.057 0 .632-.038 1.073-.21 1.493-.63 0-.82.403-.82 1.667v.46h2.367v-.46c0-1.264-.19-1.667-.821-1.667-.172-.42-.21-.86-.21-1.493.573.02 1.757.057 2.844.057 1.089 0 2.272-.038 2.846-.057 0 .632-.039 1.073-.21 1.493-.63 0-.821.403-.821 1.667v2.566zM63.657 59.424c0 1.436.267 1.628 1.603 1.685.135.403.192 1.034.192 1.475-.535-.039-1.795-.058-3.34-.058-1.528 0-3.36.019-4.068.058 0-.383.115-1.054.23-1.475 1.356-.057 1.756-.153 1.756-1.685v-4.347c-.878.057-1.432.517-1.776 1.857-.706 0-1.374-.019-1.89-.248.23-.882.44-2.145.44-2.969 1.432.038 2.29.038 5.097.038 2.406 0 3.532-.038 4.945-.038.018.804.19 2.011.477 2.949-.497.172-1.146.268-1.91.268-.343-1.436-.725-1.857-1.699-1.857h-.057v4.347z" fill="#413630"/><path d="M33.392 70.71c0 1.651-.82 2.621-2.21 2.621-.678 0-1.314-.198-1.716-.53l.338-.589c.347.283.82.44 1.307.44.82 0 1.335-.61 1.412-1.658h-1.864v-.659h1.857c-.091-.991-.544-1.565-1.264-1.565-.374 0-.677.19-.875.538l-.77-.319c.417-.694 1.024-.899 1.645-.899 1.342 0 2.14.97 2.14 2.62M38.452 73.19a.724.724 0 0 1-.445.142c-.367 0-.529-.114-.706-.326l-1.927-2.324 1.941-2.592.79.141-1.785 2.388 2.132 2.57zm-3.114-4.604v4.675h-.833v-5.065a.756.756 0 0 1 .374-.106c.276 0 .46.191.46.496zM42.562 70.71c0-1.218-.558-1.94-1.497-1.94-.94 0-1.496.722-1.496 1.94 0 1.219.557 1.942 1.496 1.942s1.497-.723 1.497-1.941m-3.849 0c0-1.65.876-2.621 2.359-2.621s2.358.97 2.358 2.62c0 1.651-.875 2.621-2.358 2.621s-2.359-.97-2.359-2.62M48.703 72.616v1.389a.773.773 0 0 1-.38.105c-.269 0-.453-.19-.453-.495v-.354h-3.34v-5.065a.753.753 0 0 1 .375-.107c.275 0 .459.192.459.497v4.016h2.069v-4.406a.754.754 0 0 1 .374-.107c.275 0 .459.192.459.497v4.03h.437zM52.87 72.602v.659H49.79v-5.1h3.001v.658h-2.167v1.488h1.92v.66h-1.92v1.635zM57.973 68.586v4.675h-.833v-2.26h-2.386v2.26h-.834v-5.065a.76.76 0 0 1 .374-.106c.276 0 .46.191.46.496v1.756h2.386v-2.146a.759.759 0 0 1 .374-.106c.276 0 .46.191.46.496M62.461 68.82h-1.349v4.441h-.833V68.82h-1.35v-.658h3.532zM66.118 69.676c0-.58-.41-.927-1.115-.927-.227 0-.481.007-.749.02v1.85c.246.014.508.021.742.021.713 0 1.122-.361 1.122-.964m.861 0c0 1.02-.734 1.623-1.983 1.623-.234 0-.488-.008-.742-.022v1.984h-.834v-5.1c.516-.043 1.173-.071 1.583-.071 1.242 0 1.976.588 1.976 1.586" fill="#9C9604"/></g></symbol><symbol id="icon-instagram" viewBox="0 0 20 20"><path d="M5.8 0h8.4C17.4 0 20 2.6 20 5.8v8.4a5.8 5.8 0 0 1-5.8 5.8H5.8C2.6 20 0 17.4 0 14.2V5.8A5.8 5.8 0 0 1 5.8 0zm-.2 2A3.6 3.6 0 0 0 2 5.6v8.8C2 16.39 3.61 18 5.6 18h8.8a3.6 3.6 0 0 0 3.6-3.6V5.6C18 3.61 16.39 2 14.4 2H5.6zm9.65 1.5a1.25 1.25 0 1 1 0 2.5 1.25 1.25 0 0 1 0-2.5zM10 5a5 5 0 1 1 0 10 5 5 0 0 1 0-10zm0 2a3 3 0 1 0 0 6 3 3 0 0 0 0-6z"/></symbol><symbol id="icon-mail" viewBox="0 0 20 20"><path d="M2 8l8 5 8-5-8-5-8 5zm18 0v10a2 2 0 0 1-2 2H2a2 2 0 0 1-2-2V8c0-.73.39-1.36.97-1.71L10 .64l9.03 5.65c.58.35.97.98.97 1.71z"/></symbol><symbol id="icon-marker" viewBox="0 0 14 20"><path d="M7 9.5a2.5 2.5 0 1 1 0-5 2.5 2.5 0 0 1 0 5zM7 0a7 7 0 0 0-7 7c0 5.25 7 13 7 13s7-7.75 7-13a7 7 0 0 0-7-7z"/></symbol><symbol id="icon-menu" viewBox="0 0 24 21"><path d="M23.244 16.009H.75c-.413 0-.75.36-.75.801v3.421c0 .423.337.769.75.769h22.494c.414 0 .75-.346.75-.77v-3.42c0-.441-.336-.801-.75-.801zm0-8H.75c-.413 0-.75.36-.75.801v3.421A.76.76 0 0 0 .75 13h22.494a.76.76 0 0 0 .75-.769V8.81c0-.441-.336-.801-.75-.801zm0-8H.75C.337.009 0 .369 0 .81v3.42c0 .423.337.769.75.769h22.494a.76.76 0 0 0 .75-.769V.81c0-.441-.336-.801-.75-.801z"/></symbol><symbol id="icon-next" viewBox="0 0 28 39"><path d="M5 9v21l15-10.5L5 9zM.781.897L27.357 19.5.78 38.103V.897z"/></symbol><symbol id="icon-ok" viewBox="0 0 19 32"><path d="M9.25 4.83a3.416 3.416 0 0 1 3.413 3.414c0 1.88-1.53 3.41-3.413 3.41a3.417 3.417 0 0 1-3.413-3.41A3.418 3.418 0 0 1 9.25 4.83zm0 11.654c4.547 0 8.243-3.696 8.243-8.24C17.493 3.698 13.797 0 9.25 0 4.705 0 1.008 3.698 1.008 8.244c0 4.544 3.697 8.24 8.242 8.24zm3.335 6.724a15.434 15.434 0 0 0 4.786-1.983 2.415 2.415 0 0 0 .757-3.33 2.413 2.413 0 0 0-3.33-.76 10.465 10.465 0 0 1-11.097 0 2.412 2.412 0 0 0-3.33.76 2.414 2.414 0 0 0 .757 3.33c1.49.935 3.108 1.6 4.786 1.983l-4.608 4.608a2.415 2.415 0 0 0 3.417 3.414l4.526-4.528 4.53 4.528c.942.943 2.47.943 3.414 0a2.413 2.413 0 0 0 0-3.414l-4.608-4.608z"/></symbol><symbol id="pic-te-st" viewBox="0 0 99 40"><g fill="#000" fill-rule="evenodd"><path d="M10.895 20.245a2 2 0 0 1-1.4-2.394l-1.394-.805c-.359.343-.845.554-1.381.554a1.994 1.994 0 0 1-1.42-.592l-1.369.79A2.003 2.003 0 0 1 2 20.32a2 2 0 1 1 1.347-3.479l1.418-.818a2 2 0 0 1 3.33-1.875l2.785-1.607V9.28a1.998 1.998 0 0 1-.828-.481l-1.392.87a2 2 0 1 1-3.885.027l-1.451-.838a1.996 1.996 0 0 1-.764.422v1.678a2 2 0 1 1-1.12 0V9.281A2 2 0 1 1 3.428 5.96l1.333-.833a2 2 0 1 1 .528.99l-1.331.833a2.009 2.009 0 0 1-.035.962l1.406.811c.36-.348.85-.563 1.391-.563.53 0 1.013.207 1.371.544l1.404-.877a2.005 2.005 0 0 1 1.465-2.409V3.942A2 2 0 1 1 12 3.921v1.518a2 2 0 0 1 0 3.842v3.306l2.653 1.532c.256-.26.582-.451.947-.541v-1.476a2 2 0 1 1 1.85-3.399l1.389-.868a2.01 2.01 0 0 1 .022-.888l-1.434-.828a2 2 0 1 1 .584-.956l1.42.82a2 2 0 1 1 1.93 3.378l-.001 1.518a2 2 0 1 1-1.04-.021V9.382a1.998 1.998 0 0 1-.959-.553l-1.342.84a2.004 2.004 0 0 1-1.379 2.412v1.518a2 2 0 0 1 1.366 2.462l1.41.815a2 2 0 1 1-.56.97l-1.444-.834a2 2 0 0 1-3.29-1.906l-2.722-1.572-2.74 1.581a2.004 2.004 0 0 1 .003.962l1.39.802a2 2 0 1 1 1.896 3.375v2.62l2.279-1.317a2.003 2.003 0 0 1 1.932-2.517 2 2 0 1 1-1.4 3.428l-2.811 1.624v4.783h10.34a.352.352 0 0 1 0 .703H11.985c.182 1.334 1.447 1.512 3.42 1.674 1.924.157 4.103.336 4.69 2.502a.264.264 0 0 1-.255.334.263.263 0 0 1-.254-.196c-.442-1.632-2.03-1.917-3.685-2.068.045.05.087.101.126.155.316.427.81.626 1.334.836.656.264 1.334.537 1.641 1.286a.264.264 0 1 1-.487.2c-.223-.543-.745-.753-1.35-.996a7.767 7.767 0 0 1-.682-.301c.065.246.117.496.166.74.088.44.171.858.331 1.208a.264.264 0 0 1-.48.22c-.185-.406-.278-.873-.368-1.324-.216-1.08-.403-2.012-1.693-2.154l-.01-.002c-.915-.103-1.768-.285-2.327-.776.262.613.652 1.061 1.035 1.499.158.181.318.364.467.558l.009.007c.157.204.34.377.535.562.26.245.532.504.754.852.005.007.01.012.014.02.293.466 1.156 1.418 1.703 1.727a.264.264 0 0 1-.258.46c-.308-.174-.677-.497-1.015-.844.032.325.032.694-.014 1.127a.263.263 0 0 1-.262.236l-.028-.001a.264.264 0 0 1-.234-.29c.128-1.21-.109-1.851-.471-2.324.16.822.056 1.91-.553 3.493a.264.264 0 1 1-.492-.19c1.18-3.065.378-3.983-.551-5.045-.368-.422-.761-.873-1.05-1.477.083 1.033.216 1.881.332 2.616.35 2.212.56 3.548-1.174 5.988a.262.262 0 0 1-.367.062.264.264 0 0 1-.062-.368c1.274-1.793 1.422-2.909 1.26-4.363-.107.186-.233.341-.357.494-.329.407-.64.793-.575 1.874a.264.264 0 0 1-.247.28h-.016a.264.264 0 0 1-.263-.248c-.078-1.286.331-1.791.692-2.238.36-.445.67-.829.483-2.083a28.944 28.944 0 0 1-.222-1.844c-.283.577-.751 1.206-1.528 1.862-.928.782-.676 1.636-.385 2.623.19.647.388 1.316.265 2.011a.263.263 0 1 1-.519-.091c.1-.574-.078-1.182-.251-1.77a9.547 9.547 0 0 1-.216-.822l-.067.31c-.195.912-.396 1.856-1.619 2.658a.264.264 0 0 1-.288-.441c1.04-.683 1.203-1.444 1.391-2.327.082-.383.17-.79.343-1.202l-.223.132c-.772.458-1.198.709-1.369 1.68a.263.263 0 1 1-.519-.09c.213-1.212.803-1.56 1.62-2.044.43-.255.92-.543 1.496-1.03.911-.769 1.354-1.481 1.57-2.108-.07.086-.144.169-.226.246-.784.735-2.06 1.051-3.796.945-.77.142-.857.562-.975 1.488-.107.842-.24 1.89-1.16 2.98a.261.261 0 0 1-.371.031.264.264 0 0 1-.032-.371c.82-.972.942-1.934 1.04-2.706.069-.537.136-1.055.44-1.43a5.778 5.778 0 0 0-.783.103c-.674.28-.703.634-.754 1.273-.035.428-.078.96-.364 1.55a.263.263 0 0 1-.352.121.264.264 0 0 1-.122-.353c.243-.5.28-.956.312-1.36.023-.282.046-.558.135-.813-1.014.587-1.173 1.451-1.183 1.509a.264.264 0 0 1-.52-.087c.13-.775.845-1.924 2.656-2.331l.007-.004a.26.26 0 0 1 .095-.02 7.292 7.292 0 0 1 1.929-.109c1.58.104 2.768-.173 3.437-.8.372-.35.529-.748.586-1.09H.555a.351.351 0 0 1 0-.704h10.34v-4.783l-2.82-1.629c-.22.216-.492.38-.794.472a2 2 0 1 1 1.144-2.8 1.936 1.936 0 0 1 .177 1.413l2.292 1.326v-2.63zm6.213 1.392a1.12 1.12 0 0 0-1.938-1.12l.03.018a1.062 1.062 0 0 0 .002 1.07 1.07 1.07 0 0 0 1.85 0l.056.032zm-10.122.469a1.12 1.12 0 1 0-1.281-.45l.086-.05a1.068 1.068 0 0 0 1.195.5zm5.405-3.194a1.12 1.12 0 1 0-1.912-.016l.016-.01a1.07 1.07 0 0 0 1.852 0l.044.026zM2 8.48a1.12 1.12 0 1 0 0-2.24 1.12 1.12 0 0 0 0 2.24zM2 14a1.12 1.12 0 1 0 0-2.24A1.12 1.12 0 0 0 2 14zm4.72-8.16a1.12 1.12 0 1 0 0-2.24 1.12 1.12 0 0 0 0 2.24zm4.72-2.72a1.12 1.12 0 1 0 0-2.24 1.12 1.12 0 0 0 0 2.24zm0 5.36a1.12 1.12 0 1 0 0-2.24 1.12 1.12 0 0 0 0 2.24zm-4.72 2.8a1.12 1.12 0 1 0 0-2.24 1.12 1.12 0 0 0 0 2.24zm9.36-5.52a1.12 1.12 0 1 0 0-2.24 1.12 1.12 0 0 0 0 2.24zm4.72 2.8a1.12 1.12 0 1 0 0-2.24 1.12 1.12 0 0 0 0 2.24zm0 5.36a1.12 1.12 0 1 0 0-2.24 1.12 1.12 0 0 0 0 2.24zm-4.72-2.64a1.12 1.12 0 1 0 0-2.24 1.12 1.12 0 0 0 0 2.24zm0 5.36a1.12 1.12 0 1 0 0-2.24 1.12 1.12 0 0 0 0 2.24zm4.72 2.8a1.12 1.12 0 1 0 0-2.24 1.12 1.12 0 0 0 0 2.24zM6.72 16.72a1.12 1.12 0 1 0 0-2.24 1.12 1.12 0 0 0 0 2.24zM2 19.44a1.12 1.12 0 1 0 0-2.24 1.12 1.12 0 0 0 0 2.24zM36.18 4.56v-.68H31.3v.68h2.06V11h.76V4.56h2.06zM41.93 11v-.68h-3.66V7.75h3.12v-.68h-3.12V4.56h3.66v-.68h-4.42V11h4.42zm6.47 0V3.88h-4.89V11h.76V4.56h3.37V11h.76zm6.78 0V3.88h-3.92v2.89c0 2.96-.63 3.55-1.51 3.55h-.19V11h.36C51.28 11 52 10 52 7V4.56h2.42V11h.76zm7.16 0V3.88h-.72L58 9.68v-5.8h-.76V11h.72l3.62-5.81V11h.76zm7.8 1.72v-2.4h-.85V3.88h-.76v6.44h-3.37V3.88h-.76V11h4.99v1.72h.75zm6.4-1.72l-2.61-7.12h-.64L70.67 11h.81l.57-1.61h3.11l.57 1.61h.81zm-1.6-2.27h-2.66l1.34-3.76 1.32 3.76zM36.72 20.04h-.76c-.19.87-.82 1.44-1.71 1.44-.47 0-.92-.18-1.23-.5-.45-.46-.5-.95-.5-2.44s.05-1.98.5-2.44c.31-.32.76-.5 1.23-.5.89 0 1.5.57 1.69 1.44h.78c-.24-1.34-1.19-2.12-2.47-2.12-.7 0-1.34.26-1.82.74-.67.67-.67 1.37-.67 2.88 0 1.51 0 2.21.67 2.88.48.48 1.12.74 1.82.74 1.27 0 2.24-.78 2.47-2.12zm6.19-1.99c0-.87-.05-1.77-.67-2.39-.48-.48-1.12-.74-1.82-.74s-1.34.26-1.82.74c-.61.61-.67 1.48-.67 2.33v.55c0 1.42.02 2.23.67 2.88.48.48 1.11.74 1.82.74s1.34-.26 1.82-.74c.65-.65.67-1.46.67-2.88v-.49zm-.76.84c0 .82-.01 1.59-.5 2.08-.33.33-.76.51-1.23.51s-.9-.18-1.23-.51c-.46-.46-.5-1.16-.5-1.93v-.71c0-.98 0-1.72.5-2.22.33-.33.77-.51 1.23-.51.46 0 .9.18 1.23.51.47.47.5 1.21.5 2.05v.73zm8.29 4.93v-2.4h-.85v-6.44h-.76v6.44h-3.37v-6.44h-.76v7.12h4.99v1.72h.75zm6.54-1.72v-7.12h-.72l-3.62 5.8v-5.8h-.76v7.12h.72l3.62-5.81v5.81h.76zm7.02 0l-2.61-7.12h-.64l-2.62 7.12h.81l.57-1.61h3.11l.57 1.61H64zm-1.6-2.27h-2.66l1.34-3.76 1.32 3.76zm7.46 2.27v-7.12h-3.92v2.89c0 2.96-.63 3.55-1.51 3.55h-.19v.68h.36c1.36 0 2.08-1 2.08-4v-2.44h2.42v6.44h.76zm6.93-2.09c0-1.26-.87-2.1-2.2-2.1h-1.91v-2.93h-.76v7.12h2.67c1.32 0 2.2-.84 2.2-2.09zm-.77 0c0 .89-.55 1.41-1.5 1.41h-1.84v-2.83h1.84c.95 0 1.5.52 1.5 1.42zm7.1 2.09v-7.12h-.76v3.19h-3.38v-3.19h-.76v7.12h.76v-3.25h3.38v3.25h.76zm8.64 0v-7.12H91v7.12h.76zm-1.71-2.09c0-1.26-.87-2.1-2.2-2.1h-1.91v-2.93h-.76v7.12h2.67c1.32 0 2.2-.84 2.2-2.09zm-.77 0c0 .89-.55 1.41-1.5 1.41h-1.84v-2.83h1.84c.95 0 1.5.52 1.5 1.42zm8.87 2.09l-2.2-3.65L98 14.98h-.88l-1.58 2.81-1.58-2.81h-.88l2.04 3.47-2.18 3.65h.86l1.74-2.99 1.73 2.99h.88zM36.18 27.56v-.68H31.3v.68h2.06V34h.76v-6.44h2.06zM41.93 34v-.68h-3.66v-2.57h3.12v-.68h-3.12v-2.51h3.66v-.68h-4.42V34h4.42zm5.91 0l-2.2-3.65 2.05-3.47h-.88l-1.58 2.81-1.58-2.81h-.88l2.04 3.47L42.63 34h.86l1.74-2.99L46.96 34h.88zm6.08 0v-7.12h-.76v3.19h-3.38v-3.19h-.76V34h.76v-3.25h3.38V34h.76zm6.77-4.05c0-.87-.05-1.77-.67-2.39-.48-.48-1.12-.74-1.82-.74s-1.34.26-1.82.74c-.61.61-.67 1.48-.67 2.33v.55c0 1.42.02 2.23.67 2.88.48.48 1.11.74 1.82.74s1.34-.26 1.82-.74c.65-.65.67-1.46.67-2.88v-.49zm-.76.84c0 .82-.01 1.59-.5 2.08-.33.33-.76.51-1.23.51s-.9-.18-1.23-.51c-.46-.46-.5-1.16-.5-1.93v-.71c0-.98 0-1.72.5-2.22.33-.33.77-.51 1.23-.51.46 0 .9.18 1.23.51.47.47.5 1.21.5 2.05v.73zM66.99 34v-7.12h-3.92v2.89c0 2.96-.63 3.55-1.51 3.55h-.19V34h.36c1.36 0 2.08-1 2.08-4v-2.44h2.42V34h.76zm6.77-4.05c0-.87-.05-1.77-.67-2.39-.48-.48-1.12-.74-1.82-.74s-1.34.26-1.82.74c-.61.61-.67 1.48-.67 2.33v.55c0 1.42.02 2.23.67 2.88.48.48 1.11.74 1.82.74s1.34-.26 1.82-.74c.65-.65.67-1.46.67-2.88v-.49zm-.76.84c0 .82-.01 1.59-.5 2.08-.33.33-.76.51-1.23.51s-.9-.18-1.23-.51c-.46-.46-.5-1.16-.5-1.93v-.71c0-.98 0-1.72.5-2.22.33-.33.77-.51 1.23-.51.46 0 .9.18 1.23.51.47.47.5 1.21.5 2.05v.73zm6.9-3.23v-.68h-4.28V34h.76v-6.44h3.52zM86.34 34v-7.12h-.72L82 32.68v-5.8h-.76V34h.72l3.62-5.81V34h.76zm7.16 0v-7.12h-.72l-3.62 5.8v-5.8h-.76V34h.72l3.62-5.81V34h.76zm-1.09-8.83h-.64c-.04.49-.33.74-.82.74-.49 0-.78-.25-.82-.74h-.64c.06.89.63 1.26 1.46 1.26s1.4-.37 1.46-1.26z"/></g></symbol><symbol id="icon-pdf" viewBox="0 0 48 48"><path d="M22.48 21.173c-.613 1.974-1.493 4.08-2.693 6.4-.534 1.014-1.12 1.974-1.334 2.774l.294-.107c3.386-1.307 6.586-2.053 8.906-2.48-.4-.267-.773-.56-1.093-.853-1.6-1.36-2.987-3.334-4.08-5.734zm17.28 10.16c-.453.507-1.253.8-2.427.8-2.026 0-5.333-.613-8-1.973-4.586.507-8 1.12-10.746 2-.134.053-.294.107-.48.187-3.307 5.653-5.76 8.186-7.92 8.186-.427 0-.854-.106-1.174-.293l-1.28-.827-.08-.133c-.186-.48-.24-.933-.133-1.44.293-1.413 1.813-3.653 5.013-5.653.507-.374 1.307-.8 2.374-1.307.8-1.387 1.653-3.013 2.56-4.8 1.36-2.747 2.213-5.467 2.88-7.813v-.027c-.987-3.227-1.574-5.173-.587-8.72.24-1.013 1.12-2.053 2.107-2.053h.64c.613 0 1.2.213 1.626.64 1.76 1.76.934 6.053.054 9.6-.054.16-.08.293-.107.373 1.067 3.013 2.587 5.44 4.267 6.827a19.477 19.477 0 0 0 2.32 1.546c1.2-.133 2.346-.186 3.44-.186 3.306 0 5.306.586 6.08 1.84.266.426.4.933.32 1.466-.027.667-.267 1.28-.747 1.76zM42.667 0H5.333A5.315 5.315 0 0 0 0 5.333v37.334A5.333 5.333 0 0 0 5.333 48h37.334A5.333 5.333 0 0 0 48 42.667V5.333C48 2.373 45.6 0 42.667 0zm-4 29.44c-.267-.267-1.334-.933-5.067-.933-.187 0-.373 0-.613.266 1.946.854 3.84 1.36 5.066 1.36.187 0 .347-.026.507-.053h.107c.133-.053.213-.08.24-.347-.054-.08-.107-.186-.24-.293zm-24.454 3.893c-.56.32-1.013.614-1.28.827-1.893 1.733-3.093 3.493-3.226 4.507 1.2-.4 2.773-2.16 4.506-5.334zm8.054-18.426l.133-.107c.187-.853.267-1.6.427-2.187l.08-.426c.266-1.52.213-2.294-.24-2.934l-.4-.133a3.4 3.4 0 0 0-.187.32c-.453 1.12-.427 3.067.187 5.467z" opacity=".6"/></symbol><symbol id="icon-photo" viewBox="0 0 20 18"><path d="M2 2h3l2-2h6l2 2h3a2 2 0 0 1 2 2v12a2 2 0 0 1-2 2H2a2 2 0 0 1-2-2V4a2 2 0 0 1 2-2zm8 3a5 5 0 1 0 0 10 5 5 0 0 0 0-10zm0 2a3 3 0 1 1 0 6 3 3 0 0 1 0-6z"/></symbol><symbol id="icon-prev" viewBox="0 0 28 39"><path d="M23 9L8 19.5 23 30V9zM.643 19.5L27.22.897v37.206L.643 19.5z"/></symbol><symbol id="icon-rss" viewBox="0 0 16 16"><path d="M2.18 11.64a2.18 2.18 0 0 1 2.18 2.18C4.36 15 3.38 16 2.18 16 1 16 0 15 0 13.82a2.18 2.18 0 0 1 2.18-2.18zM0 .44C8.594.44 15.56 7.406 15.56 16h-2.83C12.73 8.97 7.03 3.27 0 3.27V.44zM0 6.1c5.468 0 9.9 4.432 9.9 9.9H7.07A7.07 7.07 0 0 0 0 8.93V6.1z"/></symbol><symbol id="icon-search" viewBox="0 0 18 18"><path d="M11 0a6.5 6.5 0 0 0-6.5 6.5c0 1.61.59 3.09 1.56 4.23l-.27.27H5l-5 5 1.5 1.5 5-5v-.79l.27-.27C7.91 12.41 9.39 13 11 13a6.5 6.5 0 1 0 0-13zm0 2c2.5 0 4.5 2 4.5 4.5S13.5 11 11 11 6.5 9 6.5 6.5 8.5 2 11 2z"/></symbol><symbol id="icon-te-st" viewBox="0 0 99 40"><g><path d="M10.895 20.245a2 2 0 0 1-1.4-2.394l-1.394-.805c-.359.343-.845.554-1.381.554a1.994 1.994 0 0 1-1.42-.592l-1.369.79A2.003 2.003 0 0 1 2 20.32a2 2 0 1 1 1.347-3.479l1.418-.818a2 2 0 0 1 3.33-1.875l2.785-1.607V9.28a1.998 1.998 0 0 1-.828-.481l-1.392.87a2 2 0 1 1-3.885.027l-1.451-.838a1.996 1.996 0 0 1-.764.422v1.678a2 2 0 1 1-1.12 0V9.281A2 2 0 1 1 3.428 5.96l1.333-.833a2 2 0 1 1 .528.99l-1.331.833a2.009 2.009 0 0 1-.035.962l1.406.811c.36-.348.85-.563 1.391-.563.53 0 1.013.207 1.371.544l1.404-.877a2.005 2.005 0 0 1 1.465-2.409V3.942A2 2 0 1 1 12 3.921v1.518a2 2 0 0 1 0 3.842v3.306l2.653 1.532c.256-.26.582-.451.947-.541v-1.476a2 2 0 1 1 1.85-3.399l1.389-.868a2.01 2.01 0 0 1 .022-.888l-1.434-.828a2 2 0 1 1 .584-.956l1.42.82a2 2 0 1 1 1.93 3.378l-.001 1.518a2 2 0 1 1-1.04-.021V9.382a1.998 1.998 0 0 1-.959-.553l-1.342.84a2.004 2.004 0 0 1-1.379 2.412v1.518a2 2 0 0 1 1.366 2.462l1.41.815a2 2 0 1 1-.56.97l-1.444-.834a2 2 0 0 1-3.29-1.906l-2.722-1.572-2.74 1.581a2.004 2.004 0 0 1 .003.962l1.39.802a2 2 0 1 1 1.896 3.375v2.62l2.279-1.317a2.003 2.003 0 0 1 1.932-2.517 2 2 0 1 1-1.4 3.428l-2.811 1.624v4.783h10.34a.352.352 0 0 1 0 .703H11.985c.182 1.334 1.447 1.512 3.42 1.674 1.924.157 4.103.336 4.69 2.502a.264.264 0 0 1-.255.334.263.263 0 0 1-.254-.196c-.442-1.632-2.03-1.917-3.685-2.068.045.05.087.101.126.155.316.427.81.626 1.334.836.656.264 1.334.537 1.641 1.286a.264.264 0 1 1-.487.2c-.223-.543-.745-.753-1.35-.996a7.767 7.767 0 0 1-.682-.301c.065.246.117.496.166.74.088.44.171.858.331 1.208a.264.264 0 0 1-.48.22c-.185-.406-.278-.873-.368-1.324-.216-1.08-.403-2.012-1.693-2.154l-.01-.002c-.915-.103-1.768-.285-2.327-.776.262.613.652 1.061 1.035 1.499.158.181.318.364.467.558l.009.007c.157.204.34.377.535.562.26.245.532.504.754.852.005.007.01.012.014.02.293.466 1.156 1.418 1.703 1.727a.264.264 0 0 1-.258.46c-.308-.174-.677-.497-1.015-.844.032.325.032.694-.014 1.127a.263.263 0 0 1-.262.236l-.028-.001a.264.264 0 0 1-.234-.29c.128-1.21-.109-1.851-.471-2.324.16.822.056 1.91-.553 3.493a.264.264 0 1 1-.492-.19c1.18-3.065.378-3.983-.551-5.045-.368-.422-.761-.873-1.05-1.477.083 1.033.216 1.881.332 2.616.35 2.212.56 3.548-1.174 5.988a.262.262 0 0 1-.367.062.264.264 0 0 1-.062-.368c1.274-1.793 1.422-2.909 1.26-4.363-.107.186-.233.341-.357.494-.329.407-.64.793-.575 1.874a.264.264 0 0 1-.247.28h-.016a.264.264 0 0 1-.263-.248c-.078-1.286.331-1.791.692-2.238.36-.445.67-.829.483-2.083a28.944 28.944 0 0 1-.222-1.844c-.283.577-.751 1.206-1.528 1.862-.928.782-.676 1.636-.385 2.623.19.647.388 1.316.265 2.011a.263.263 0 1 1-.519-.091c.1-.574-.078-1.182-.251-1.77a9.547 9.547 0 0 1-.216-.822l-.067.31c-.195.912-.396 1.856-1.619 2.658a.264.264 0 0 1-.288-.441c1.04-.683 1.203-1.444 1.391-2.327.082-.383.17-.79.343-1.202l-.223.132c-.772.458-1.198.709-1.369 1.68a.263.263 0 1 1-.519-.09c.213-1.212.803-1.56 1.62-2.044.43-.255.92-.543 1.496-1.03.911-.769 1.354-1.481 1.57-2.108-.07.086-.144.169-.226.246-.784.735-2.06 1.051-3.796.945-.77.142-.857.562-.975 1.488-.107.842-.24 1.89-1.16 2.98a.261.261 0 0 1-.371.031.264.264 0 0 1-.032-.371c.82-.972.942-1.934 1.04-2.706.069-.537.136-1.055.44-1.43a5.778 5.778 0 0 0-.783.103c-.674.28-.703.634-.754 1.273-.035.428-.078.96-.364 1.55a.263.263 0 0 1-.352.121.264.264 0 0 1-.122-.353c.243-.5.28-.956.312-1.36.023-.282.046-.558.135-.813-1.014.587-1.173 1.451-1.183 1.509a.264.264 0 0 1-.52-.087c.13-.775.845-1.924 2.656-2.331l.007-.004a.26.26 0 0 1 .095-.02 7.292 7.292 0 0 1 1.929-.109c1.58.104 2.768-.173 3.437-.8.372-.35.529-.748.586-1.09H.555a.351.351 0 0 1 0-.704h10.34v-4.783l-2.82-1.629c-.22.216-.492.38-.794.472a2 2 0 1 1 1.144-2.8 1.936 1.936 0 0 1 .177 1.413l2.292 1.326v-2.63zm6.213 1.392a1.12 1.12 0 0 0-1.938-1.12l.03.018a1.062 1.062 0 0 0 .002 1.07 1.07 1.07 0 0 0 1.85 0l.056.032zm-10.122.469a1.12 1.12 0 1 0-1.281-.45l.086-.05a1.068 1.068 0 0 0 1.195.5zm5.405-3.194a1.12 1.12 0 1 0-1.912-.016l.016-.01a1.07 1.07 0 0 0 1.852 0l.044.026zM2 8.48a1.12 1.12 0 1 0 0-2.24 1.12 1.12 0 0 0 0 2.24zM2 14a1.12 1.12 0 1 0 0-2.24A1.12 1.12 0 0 0 2 14zm4.72-8.16a1.12 1.12 0 1 0 0-2.24 1.12 1.12 0 0 0 0 2.24zm4.72-2.72a1.12 1.12 0 1 0 0-2.24 1.12 1.12 0 0 0 0 2.24zm0 5.36a1.12 1.12 0 1 0 0-2.24 1.12 1.12 0 0 0 0 2.24zm-4.72 2.8a1.12 1.12 0 1 0 0-2.24 1.12 1.12 0 0 0 0 2.24zm9.36-5.52a1.12 1.12 0 1 0 0-2.24 1.12 1.12 0 0 0 0 2.24zm4.72 2.8a1.12 1.12 0 1 0 0-2.24 1.12 1.12 0 0 0 0 2.24zm0 5.36a1.12 1.12 0 1 0 0-2.24 1.12 1.12 0 0 0 0 2.24zm-4.72-2.64a1.12 1.12 0 1 0 0-2.24 1.12 1.12 0 0 0 0 2.24zm0 5.36a1.12 1.12 0 1 0 0-2.24 1.12 1.12 0 0 0 0 2.24zm4.72 2.8a1.12 1.12 0 1 0 0-2.24 1.12 1.12 0 0 0 0 2.24zM6.72 16.72a1.12 1.12 0 1 0 0-2.24 1.12 1.12 0 0 0 0 2.24zM2 19.44a1.12 1.12 0 1 0 0-2.24 1.12 1.12 0 0 0 0 2.24zM36.18 4.56v-.68H31.3v.68h2.06V11h.76V4.56h2.06zM41.93 11v-.68h-3.66V7.75h3.12v-.68h-3.12V4.56h3.66v-.68h-4.42V11h4.42zm6.47 0V3.88h-4.89V11h.76V4.56h3.37V11h.76zm6.78 0V3.88h-3.92v2.89c0 2.96-.63 3.55-1.51 3.55h-.19V11h.36C51.28 11 52 10 52 7V4.56h2.42V11h.76zm7.16 0V3.88h-.72L58 9.68v-5.8h-.76V11h.72l3.62-5.81V11h.76zm7.8 1.72v-2.4h-.85V3.88h-.76v6.44h-3.37V3.88h-.76V11h4.99v1.72h.75zm6.4-1.72l-2.61-7.12h-.64L70.67 11h.81l.57-1.61h3.11l.57 1.61h.81zm-1.6-2.27h-2.66l1.34-3.76 1.32 3.76zM36.72 20.04h-.76c-.19.87-.82 1.44-1.71 1.44-.47 0-.92-.18-1.23-.5-.45-.46-.5-.95-.5-2.44s.05-1.98.5-2.44c.31-.32.76-.5 1.23-.5.89 0 1.5.57 1.69 1.44h.78c-.24-1.34-1.19-2.12-2.47-2.12-.7 0-1.34.26-1.82.74-.67.67-.67 1.37-.67 2.88 0 1.51 0 2.21.67 2.88.48.48 1.12.74 1.82.74 1.27 0 2.24-.78 2.47-2.12zm6.19-1.99c0-.87-.05-1.77-.67-2.39-.48-.48-1.12-.74-1.82-.74s-1.34.26-1.82.74c-.61.61-.67 1.48-.67 2.33v.55c0 1.42.02 2.23.67 2.88.48.48 1.11.74 1.82.74s1.34-.26 1.82-.74c.65-.65.67-1.46.67-2.88v-.49zm-.76.84c0 .82-.01 1.59-.5 2.08-.33.33-.76.51-1.23.51s-.9-.18-1.23-.51c-.46-.46-.5-1.16-.5-1.93v-.71c0-.98 0-1.72.5-2.22.33-.33.77-.51 1.23-.51.46 0 .9.18 1.23.51.47.47.5 1.21.5 2.05v.73zm8.29 4.93v-2.4h-.85v-6.44h-.76v6.44h-3.37v-6.44h-.76v7.12h4.99v1.72h.75zm6.54-1.72v-7.12h-.72l-3.62 5.8v-5.8h-.76v7.12h.72l3.62-5.81v5.81h.76zm7.02 0l-2.61-7.12h-.64l-2.62 7.12h.81l.57-1.61h3.11l.57 1.61H64zm-1.6-2.27h-2.66l1.34-3.76 1.32 3.76zm7.46 2.27v-7.12h-3.92v2.89c0 2.96-.63 3.55-1.51 3.55h-.19v.68h.36c1.36 0 2.08-1 2.08-4v-2.44h2.42v6.44h.76zm6.93-2.09c0-1.26-.87-2.1-2.2-2.1h-1.91v-2.93h-.76v7.12h2.67c1.32 0 2.2-.84 2.2-2.09zm-.77 0c0 .89-.55 1.41-1.5 1.41h-1.84v-2.83h1.84c.95 0 1.5.52 1.5 1.42zm7.1 2.09v-7.12h-.76v3.19h-3.38v-3.19h-.76v7.12h.76v-3.25h3.38v3.25h.76zm8.64 0v-7.12H91v7.12h.76zm-1.71-2.09c0-1.26-.87-2.1-2.2-2.1h-1.91v-2.93h-.76v7.12h2.67c1.32 0 2.2-.84 2.2-2.09zm-.77 0c0 .89-.55 1.41-1.5 1.41h-1.84v-2.83h1.84c.95 0 1.5.52 1.5 1.42zm8.87 2.09l-2.2-3.65L98 14.98h-.88l-1.58 2.81-1.58-2.81h-.88l2.04 3.47-2.18 3.65h.86l1.74-2.99 1.73 2.99h.88zM36.18 27.56v-.68H31.3v.68h2.06V34h.76v-6.44h2.06zM41.93 34v-.68h-3.66v-2.57h3.12v-.68h-3.12v-2.51h3.66v-.68h-4.42V34h4.42zm5.91 0l-2.2-3.65 2.05-3.47h-.88l-1.58 2.81-1.58-2.81h-.88l2.04 3.47L42.63 34h.86l1.74-2.99L46.96 34h.88zm6.08 0v-7.12h-.76v3.19h-3.38v-3.19h-.76V34h.76v-3.25h3.38V34h.76zm6.77-4.05c0-.87-.05-1.77-.67-2.39-.48-.48-1.12-.74-1.82-.74s-1.34.26-1.82.74c-.61.61-.67 1.48-.67 2.33v.55c0 1.42.02 2.23.67 2.88.48.48 1.11.74 1.82.74s1.34-.26 1.82-.74c.65-.65.67-1.46.67-2.88v-.49zm-.76.84c0 .82-.01 1.59-.5 2.08-.33.33-.76.51-1.23.51s-.9-.18-1.23-.51c-.46-.46-.5-1.16-.5-1.93v-.71c0-.98 0-1.72.5-2.22.33-.33.77-.51 1.23-.51.46 0 .9.18 1.23.51.47.47.5 1.21.5 2.05v.73zM66.99 34v-7.12h-3.92v2.89c0 2.96-.63 3.55-1.51 3.55h-.19V34h.36c1.36 0 2.08-1 2.08-4v-2.44h2.42V34h.76zm6.77-4.05c0-.87-.05-1.77-.67-2.39-.48-.48-1.12-.74-1.82-.74s-1.34.26-1.82.74c-.61.61-.67 1.48-.67 2.33v.55c0 1.42.02 2.23.67 2.88.48.48 1.11.74 1.82.74s1.34-.26 1.82-.74c.65-.65.67-1.46.67-2.88v-.49zm-.76.84c0 .82-.01 1.59-.5 2.08-.33.33-.76.51-1.23.51s-.9-.18-1.23-.51c-.46-.46-.5-1.16-.5-1.93v-.71c0-.98 0-1.72.5-2.22.33-.33.77-.51 1.23-.51.46 0 .9.18 1.23.51.47.47.5 1.21.5 2.05v.73zm6.9-3.23v-.68h-4.28V34h.76v-6.44h3.52zM86.34 34v-7.12h-.72L82 32.68v-5.8h-.76V34h.72l3.62-5.81V34h.76zm7.16 0v-7.12h-.72l-3.62 5.8v-5.8h-.76V34h.72l3.62-5.81V34h.76zm-1.09-8.83h-.64c-.04.49-.33.74-.82.74-.49 0-.78-.25-.82-.74h-.64c.06.89.63 1.26 1.46 1.26s1.4-.37 1.46-1.26z"/></g></symbol><symbol id="icon-telegram" viewBox="0 0 32 27"><path d="M29.84.177L1.494 11.11c-1.935.777-1.923 1.856-.353 2.337l7.07 2.206 2.705 8.294c.329.907.166 1.267 1.12 1.267.735 0 1.061-.335 1.471-.735.26-.255 1.808-1.76 3.535-3.438l7.353 5.433c1.353.746 2.33.36 2.667-1.257L31.89 2.47c.494-1.981-.756-2.88-2.05-2.293zM9.32 15.147L25.255 5.092c.795-.482 1.525-.223.926.309l-13.644 12.31-.532 5.667-2.685-8.233z"/></symbol><symbol id="icon-twitter" viewBox="0 0 32 26"><path d="M31.528 3.033a12.87 12.87 0 0 1-3.715 1.018A6.48 6.48 0 0 0 30.657.472a12.948 12.948 0 0 1-4.107 1.57 6.468 6.468 0 0 0-11.021 5.9A18.366 18.366 0 0 1 2.194 1.184a6.435 6.435 0 0 0-.875 3.252A6.465 6.465 0 0 0 4.197 9.82a6.45 6.45 0 0 1-2.93-.81v.082a6.473 6.473 0 0 0 5.189 6.343 6.503 6.503 0 0 1-2.922.11 6.475 6.475 0 0 0 6.042 4.492 12.976 12.976 0 0 1-8.033 2.77c-.522 0-1.037-.031-1.543-.091a18.304 18.304 0 0 0 9.916 2.906c11.898 0 18.403-9.856 18.403-18.404 0-.28-.005-.56-.018-.838a13.1 13.1 0 0 0 3.227-3.347z"/></symbol><symbol id="icon-up" viewBox="0 0 12 8"><path d="M1.41 8L6 3.41 10.59 8 12 6.58l-6-6-6 6L1.41 8z"/></symbol><symbol id="icon-viber" viewBox="0 0 31 31"><g><path d="M28.046 22.425c-.943-.759-1.951-1.44-2.943-2.136-1.978-1.39-3.788-1.498-5.264.738-.829 1.255-1.99 1.31-3.203.76-3.345-1.518-5.928-3.855-7.44-7.255-.67-1.504-.661-2.852.905-3.916.829-.563 1.664-1.229 1.597-2.458-.087-1.603-3.98-6.96-5.516-7.526C5.546.398 4.912.413 4.266.631.66 1.843-.831 4.807.598 8.317c4.265 10.47 11.771 17.76 22.103 22.208.59.254 1.244.355 1.575.446 2.352.024 5.108-2.243 5.904-4.492.766-2.164-.854-3.023-2.134-4.054zM16.46 1.706c7.554 1.161 11.038 4.753 12 12.36.089.703-.173 1.76.83 1.78 1.047.02.795-1.021.804-1.725C30.182 6.956 23.934.314 16.679.07c-.547.079-1.68-.378-1.75.85-.048.827.906.69 1.532.787z"/><path d="M17.938 3.792c-.726-.088-1.685-.43-1.855.578-.177 1.058.892.95 1.579 1.104 4.665 1.043 6.289 2.741 7.057 7.369.112.674-.11 1.724 1.036 1.55.85-.13.543-1.03.614-1.555.037-4.443-3.77-8.487-8.43-9.046z"/><path d="M18.367 7.425c-.485.012-.961.064-1.14.582-.267.775.296.96.87 1.052 1.913.307 2.92 1.436 3.111 3.344.052.518.38.938.881.878.693-.082.756-.7.735-1.285.034-2.144-2.39-4.623-4.457-4.571z"/></g></symbol><symbol id="icon-vk" viewBox="0 0 32 21"><path d="M.005 1.527c-.219-1.336 6.241-.509 6.241-.509s3.75 9.417 5.228 9.417c1.478 0 .766-7.985.766-7.985s-1.833-.478-1.833-1.21C10.407.51 12.24 0 12.24 0h5.393c.646 0 .903 1.05.903 1.75v8.558h1.478s1.316-2.115 2.354-4.263c1.038-2.149 2.3-5.027 2.3-5.027h6.267s1.15.032 1.013.986c-.186 1.299-4.356 7.466-5.228 9.576-.657 1.59 2.76 3.744 4.215 6.045.945 1.493 1.013 3.245 1.013 3.245h-7.445l-3.723-4.327s-.766-.318-1.368.127c-.603.446-.63 1.337-.63 1.337v2.863h-5.83s-4.461-1.527-8.239-8.208C.936 5.982.224 2.863.005 1.527z"/></symbol><symbol id="icon-whatsapp" viewBox="0 0 32 32"><path d="M16.172 0C7.579 0 .614 6.965.614 15.558c0 2.939.815 5.688 2.232 8.033L.038 31.938l8.614-2.758a15.49 15.49 0 0 0 7.52 1.935c8.592 0 15.557-6.965 15.557-15.557C31.73 6.965 24.764 0 16.172 0zm0 28.637c-2.657 0-5.131-.797-7.197-2.163l-5.026 1.61 1.633-4.858a13.009 13.009 0 0 1-2.49-7.668c0-7.213 5.867-13.08 13.08-13.08 7.212 0 13.08 5.867 13.08 13.08 0 7.212-5.868 13.08-13.08 13.08zm-3.65-19.514c-.251-.608-.444-.628-.834-.647a8.936 8.936 0 0 0-.436-.012c-.502 0-1.022.147-1.335.468-.382.39-1.335 1.304-1.335 3.18 0 1.877 1.367 3.69 1.557 3.944.19.255 2.665 4.161 6.515 5.757 3.005 1.244 3.897 1.133 4.583.983.997-.217 2.25-.952 2.568-1.842.317-.89.317-1.654.222-1.813-.095-.159-.35-.254-.73-.445-.382-.19-2.258-1.113-2.607-1.24-.35-.128-.673-.089-.942.283-.37.514-.728 1.041-1.023 1.354-.232.246-.606.28-.927.144-.422-.18-1.61-.594-3.067-1.893-1.133-1.01-1.899-2.259-2.121-2.64-.223-.382-.02-.61.152-.817.195-.237.376-.407.566-.63.19-.222.297-.341.425-.596.127-.254.041-.517-.054-.708-.096-.19-.86-2.066-1.176-2.83z"/></symbol><symbol id="icon-youtube" viewBox="0 0 24 24"><path d="M10 16.5v-9l6 4.5m4-7.6c-.6-.2-4.3-.4-8-.4s-7.4.19-8 .38C2.44 4.9 2 8.4 2 12c0 3.59.44 7.1 2 7.61.6.2 4.3.39 8 .39s7.4-.19 8-.39c1.56-.51 2-4.02 2-7.61 0-3.6-.44-7.09-2-7.6z"/></symbol></svg>