<svg xmlns="http://www.w3.org/2000/svg" xmlns:xlink="http://www.w3.org/1999/xlink"><defs><path id="a" d="M.523.546h204.922v204.923H.523z"/><path id="a" d="M.523.546h204.922v204.923H.523z"/></defs><symbol id="icon-add-cal" viewBox="0 0 18 20"><path d="M16 18V6H2v12h14zM13 0h2v2h1a2 2 0 0 1 2 2v14a2 2 0 0 1-2 2H2a2 2 0 0 1-2-2V4c0-1.11.89-2 2-2h1V0h2v2h8V0zM8 8h2v3h3v2h-3v3H8v-3H5v-2h3V8z"/></symbol><symbol id="pic-logo-small" viewBox="0 0 209 293"><g fill="none" fill-rule="evenodd"><g transform="translate(3 87)"><path d="M.523.546h204.922v204.923H.523z" id="b" fill="#FFF"/><path d="M102.984.547C46.393.547.523 46.418.523 103.008c0 56.591 45.87 102.461 102.461 102.461s102.461-45.87 102.461-102.461S159.575.547 102.984.547m0 32.2c38.806 0 70.262 31.456 70.262 70.261 0 38.807-31.456 70.262-70.262 70.262-38.805 0-70.261-31.455-70.261-70.262 0-38.805 31.456-70.261 70.261-70.261" fill="#9ADBF9" mask="url(#b)"/></g><path d="M100.945 88.137c-53.575 0-97.002 43.427-97.002 97.002 0 53.575 43.427 97.002 97.002 97.002 53.576 0 97.002-43.428 97.002-97.002s-43.426-97.002-97.002-97.002m0 30.484c-36.738 0-66.517 29.78-66.517 66.518s29.779 66.518 66.517 66.518 66.519-29.78 66.519-66.518-29.78-66.518-66.519-66.518" fill="#FFF"/><circle stroke="#354E81" stroke-width="6.218" cx="100.945" cy="185.139" r="66.518"/><path d="M71.645 277.633a96.943 96.943 0 0 0 29.301 4.508 96.967 96.967 0 0 0 29.586-4.601l-2.785-31.507a66.276 66.276 0 0 1-26.801 5.625 66.295 66.295 0 0 1-26.224-5.373l-3.077 31.348zM100.945 88.137a96.95 96.95 0 0 0-29.302 4.509l3.078 31.348a66.291 66.291 0 0 1 26.224-5.373c9.537 0 18.603 2.01 26.801 5.625l2.785-31.507a96.907 96.907 0 0 0-29.586-4.602M193.438 214.442a96.92 96.92 0 0 0 4.51-29.303 96.929 96.929 0 0 0-4.601-29.584l-31.51 2.785a66.28 66.28 0 0 1 5.625 26.799 66.326 66.326 0 0 1-5.371 26.225l31.347 3.078zM8.544 155.555a96.928 96.928 0 0 0-4.6 29.584 96.936 96.936 0 0 0 4.509 29.304l31.347-3.078a66.314 66.314 0 0 1-5.372-26.226 66.286 66.286 0 0 1 5.624-26.799l-31.508-2.785z" fill="#F0492C"/><path d="M100.945 118.621c-36.737 0-66.518 29.781-66.518 66.518s29.781 66.518 66.518 66.518c36.738 0 66.519-29.781 66.519-66.518s-29.78-66.518-66.519-66.518" fill="#6DCBD7"/><path d="M51.167 34.853l11.744 120.704c-12.653-1.62-26.519 2.203-37.993 11.198L51.167 34.853z" fill="#FFF"/><path d="M38.459 194.044c.684-.705 1.472-1.262 2.017-1.995 15.277-20.516 57.886-43.898 73.723-26.542 3.039-44.549-8.753-110.925-59.923-145.635 19.228 46.656 9.751 99.667-2.567 137.077-5.966 18.121-8.111 26.05-12.472 34.358-3.22 6.132-6.895 9.041-.778 2.737" fill="#FFF"/><path d="M60.355 93.641c.435-.194.868-.39 1.306-.577 1.957-28.508-2.418-50.601-8.189-66.627l.776 7.974 6.107 59.23zM117.301 165.718l-.495 7.258-4.903-5.374c-3.057-3.35-7.56-5.049-13.384-5.049-9.063 0-19.978 4.006-30.044 9.834l1.886 18.293-6.186.638-1.574-15.264c-8.036 5.401-15.106 11.772-19.632 17.85-.524.704-1.111 1.23-1.629 1.695-.218.195-.441.392-.65.608-1.327 1.367-2.414 2.529-3.143 3.358l-.986 1.122-1.542-.013-1.905-.087-1.571-3.475 1.232-1.538c.617-.769 2.212-2.865 3.708-5.715 3.363-6.407 5.397-12.697 9.09-24.115.638-1.974 1.331-4.112 2.082-6.414-7.372 1.58-14.54 4.946-20.82 9.869l-6.605 5.178 10.17-51.104a96.408 96.408 0 0 0-2.743 3.242c-12.886 16.077-20.606 36.463-20.606 58.621s7.72 42.543 20.605 58.62a94.695 94.695 0 0 0 6.804 7.616c17.011 17.074 40.535 27.657 66.484 27.657 25.95 0 49.474-10.583 66.485-27.659a94.821 94.821 0 0 0 6.802-7.613c12.886-16.077 20.605-36.462 20.605-58.621s-7.721-42.545-20.606-58.622a94.81 94.81 0 0 0-6.801-7.613c-15.307-15.364-35.886-25.467-58.761-27.339 9.757 30.954 9.629 59.557 8.633 74.156zM176.8 114.091c-1.476 0-2.713.985-3.126 2.327a100.858 100.858 0 0 1 3.736 4.183 3.287 3.287 0 0 0 2.674-3.224 3.289 3.289 0 0 0-3.284-3.286zM24.481 120.601a101.535 101.535 0 0 1 3.736-4.184c-.414-1.342-1.65-2.326-3.125-2.326a3.289 3.289 0 0 0-3.285 3.286 3.289 3.289 0 0 0 2.674 3.224zM21.807 252.901a3.289 3.289 0 0 0 3.285 3.285c1.475 0 2.711-.983 3.125-2.325a100.19 100.19 0 0 1-3.737-4.184 3.289 3.289 0 0 0-2.673 3.224zM177.41 249.678a100.78 100.78 0 0 1-3.736 4.183c.414 1.342 1.65 2.326 3.126 2.326a3.288 3.288 0 0 0 3.284-3.285 3.286 3.286 0 0 0-2.674-3.224z"/><path d="M61.028 100.168l.038-.018c.247-2.409.436-4.763.595-7.087-.438.188-.871.383-1.306.577l.673 6.528z" fill="#354E81"/><path d="M110.584 227.601c1.614-20.55 3.905-40.708 14.697-55.913l2.338 28.39-17.035 27.523-1.219 1.478" fill="#FFF"/><path d="M109.975 228.339c3.652-30.401 6.891-56.818 31.862-77.151-28.665 21.15-71.114 40.279-105.613 49.354 2.701 11.395 8.471 21.537 16.193 29.823l57.558-2.026z" fill="#FFF"/><path d="M122.994 181.795a63.247 63.247 0 0 0-1.656 3.853c-2.916 8.157-4.691 16.862-6.066 26.044-.128 1.008-.259 2.014-.374 3.032l9.54-15.412-1.444-17.517zM142.027 233.395a63.732 63.732 0 0 0 4.254-3.979c-8.438-2.664-17.954-10.438-22.455-17.326l-2.913 4.699c1.645 5.508 12.735 15.579 21.114 16.606zM41.34 195.601c-.154.138-.308.285-.46.431 7.504-2.151 15.23-4.717 22.996-7.614l-1.274-12.362c-8.036 5.401-15.106 11.772-19.632 17.85-.524.703-1.112 1.23-1.63 1.695zM98.519 162.554c-9.063 0-19.978 4.006-30.044 9.834l1.415 13.726c14.178-5.584 28.31-12.186 41.238-19.264-3.024-2.84-7.249-4.296-12.609-4.296zM161.85 202.746c-4.64 2.63-10.361 4.743-15.525 5.914 4.031 2.829 8.148 4.942 11.175 5.109a63.152 63.152 0 0 0 4.35-11.023zM164.249 188.698c.006-.103.018-.205.023-.308.02-.397.018-.8.03-1.199.021-.684.051-1.366.051-2.053 0-1.099-.028-2.194-.084-3.284a62.35 62.35 0 0 0-.193-2.536c-.02-.22-.028-.443-.051-.663a62.968 62.968 0 0 0-1.645-9.239c-.011-.04-.019-.081-.029-.121a60.974 60.974 0 0 0-.764-2.684c-.037-.123-.069-.246-.107-.369a63.088 63.088 0 0 0-.836-2.463c-.063-.178-.122-.358-.188-.536a61.112 61.112 0 0 0-.927-2.346c-.079-.189-.153-.38-.233-.569-6.433-15.071-18.535-27.162-33.616-33.576l-.242-.1a61.947 61.947 0 0 0-4.981-1.841 68.08 68.08 0 0 0-1.438-.446c-.374-.11-.748-.216-1.123-.319a62.143 62.143 0 0 0-1.896-.498c-.074-.019-.149-.034-.225-.052 2.242 16.32 2.189 30.37 1.673 39.799 8.229-4.754 15.855-9.676 22.544-14.611l3.809 4.913c-6.574 5.354-11.575 11.167-15.457 17.393l1.814 22.031c8.054-.302 22.621-5.202 26.373-8.923l.119.121.378-.259c1.276 1.862 4.12 3.958 7.146 5.725.023-.329.056-.657.075-.987zM154.208 219.493c-8.325-2.172-18.855-10.767-24.21-17.357l-2.498 4.03c1.826 5.698 14.757 17.164 23.325 18.064a63.454 63.454 0 0 0 3.383-4.737zM161.736 195.453c-1.742-.98-3.72-2.218-5.538-3.637-5.712 3.125-14.179 5.811-21.01 6.909 1.233 1.449 2.813 3.06 4.59 4.677 6.366-.422 16.494-3.901 21.958-7.949zM163.729 155.052l25.355-2.241a93.89 93.89 0 0 0-14.854-26.293 94.81 94.81 0 0 0-6.801-7.613c-9.567-9.603-21.194-17.15-34.154-21.918l-2.242 25.37a70.079 70.079 0 0 1 32.696 32.695zM180.084 117.377a3.289 3.289 0 0 0-3.284-3.286c-1.476 0-2.713.985-3.126 2.327a100.858 100.858 0 0 1 3.736 4.183 3.288 3.288 0 0 0 2.674-3.224zM42.412 160.776a63.748 63.748 0 0 0-2.108 5.841c-.039.125-.07.253-.108.379a62.373 62.373 0 0 0-.718 2.57c-.078.308-.142.621-.215.931-.164.689-.329 1.377-.469 2.072-.094.468-.169.943-.253 1.416-.098.549-.205 1.096-.288 1.648-.088.586-.153 1.18-.226 1.772-.055.451-.122.899-.168 1.353-.067.67-.108 1.348-.154 2.024-.026.385-.066.768-.085 1.154a63.567 63.567 0 0 0-.068 2.664c-.001.181-.013.359-.013.54 0 .302.016.601.022.901.007.534.02 1.066.041 1.596 2.738-5.704 4.708-11.791 7.975-21.89.638-1.974 1.331-4.112 2.082-6.414a48.643 48.643 0 0 0-5.247 1.443z"/><path d="M123.546 166.972a302.717 302.717 0 0 1-6.59 3.799c-.476.268-.952.535-1.431.801-23.312 12.954-50.407 24.252-75.488 31.162.04.138.074.278.115.415 2.616 8.731 7.258 16.97 13.592 24.059l53.462-1.883c.561-4.64 1.139-9.232 1.81-13.764 1.301-10.515 3.32-20.55 7.107-29.603 1.96-5.18 4.365-10.192 7.423-14.986zM59.681 233.221a64.188 64.188 0 0 0 7.945 5.834c11.195-.536 22.381-3.195 31.038-7.206l-38.983 1.372zM113.267 247.34a63.145 63.145 0 0 0 1.952-.413c.359-.082.715-.179 1.071-.268.403-.101.808-.195 1.208-.303a64.37 64.37 0 0 0 2.266-.659l.02-.006c.922-.287 1.832-.6 2.734-.927l.195-.069a50.728 50.728 0 0 1-5.185-3.631c-2.885 2.422-7.35 5.082-12.436 7.333a63.462 63.462 0 0 0 7.822-.983c.118-.022.234-.051.353-.074zM84.443 246.369c.692.187 1.392.354 2.093.518.265.062.53.126.796.185.125.027.25.049.375.075 8.821-1.174 19.808-6.139 25.173-10.311-1.273-1.335-2.393-2.702-3.313-4.058-8.834 6.239-20.717 9.825-31.551 11.474a62.998 62.998 0 0 0 6.168 2.043c.087.023.172.051.259.074zM117.177 222.813l-3.346 5.396c2.302 4.212 9.267 10.418 15.976 13.37a63.352 63.352 0 0 0 6.08-3.556c-7.437-2.859-14.915-9.224-18.71-15.21zM118.397 252.55c-.078.021-.157.039-.235.059-.99.253-1.985.483-2.986.691-.173.036-.346.069-.52.104a68.573 68.573 0 0 1-6.066.933c-.272.03-.543.063-.816.09a70.05 70.05 0 0 1-2.64.201c-.259.016-.517.039-.775.051a70.414 70.414 0 0 1-3.413.088c-1.132 0-2.259-.033-3.382-.087-.27-.013-.537-.035-.806-.052a69.338 69.338 0 0 1-2.587-.197c-.283-.027-.563-.06-.845-.09a72.512 72.512 0 0 1-2.597-.331c-.23-.034-.461-.068-.691-.104a67.15 67.15 0 0 1-2.855-.512l-.372-.072a68.737 68.737 0 0 1-9.398-2.635L74.99 275.38c.713.205 1.43.401 2.15.591.122.031.243.066.366.098.557.144 1.117.278 1.678.411.392.094.784.185 1.177.272.49.109.979.22 1.472.322a92.62 92.62 0 0 0 2.5.485c.333.06.668.11 1.002.166a97.478 97.478 0 0 0 2.984.454c.76.102 1.521.195 2.283.279.198.021.396.048.594.068.969.1 1.94.184 2.914.253.238.018.478.03.717.046.786.051 1.573.092 2.361.123.251.01.501.021.753.029 1 .031 2.002.052 3.005.052 1.014 0 2.026-.021 3.037-.054.248-.008.495-.019.742-.028.82-.032 1.641-.075 2.458-.129.211-.015.422-.025.633-.041a95.406 95.406 0 0 0 2.974-.262c.195-.021.389-.046.584-.067a99.057 99.057 0 0 0 3.285-.423 91.472 91.472 0 0 0 2.391-.383c.256-.044.511-.087.766-.133a92.611 92.611 0 0 0 5.222-1.11c.464-.112.929-.222 1.39-.341.341-.088.68-.186 1.02-.277.59-.159 1.179-.323 1.765-.494l-2.192-24.799a68.697 68.697 0 0 1-6.624 2.062zM177.41 249.678a100.78 100.78 0 0 1-3.736 4.183c.414 1.342 1.65 2.326 3.126 2.326a3.288 3.288 0 0 0 3.284-3.285 3.286 3.286 0 0 0-2.674-3.224zM37.913 214.674l-25.229 2.478a93.898 93.898 0 0 0 14.973 26.607 94.695 94.695 0 0 0 6.804 7.616c9.646 9.682 21.386 17.272 34.474 22.034l2.477-25.235a70.06 70.06 0 0 1-33.499-33.5zM194.699 180.251a90.665 90.665 0 0 0-.587-6.714c-.041-.333-.079-.665-.123-.997a93.533 93.533 0 0 0-.549-3.58l-.013-.083a93.136 93.136 0 0 0-1.692-7.705l-.062-.226c-.186-.696-.396-1.382-.597-2.072l-24.783 2.19a69.048 69.048 0 0 1 2.045 6.558c.038.146.072.293.109.44.232.919.446 1.842.641 2.771.049.231.094.464.14.696.169.848.321 1.699.458 2.553.046.291.092.581.135.873.118.804.219 1.61.309 2.419.037.332.077.663.109.996.076.795.134 1.594.183 2.395.021.336.05.671.066 1.009a72.59 72.59 0 0 1 .078 3.1c0 .088.007.175.007.263 0 .079-.006.157-.006.236a70.753 70.753 0 0 1-.079 3.095c-.016.34-.043.677-.064 1.016a68.75 68.75 0 0 1-.181 2.366c-.032.335-.07.669-.107 1.003a67.433 67.433 0 0 1-.309 2.419 70.69 70.69 0 0 1-.606 3.518c-.035.177-.067.355-.104.532a68.811 68.811 0 0 1-2.623 9.348l24.673 2.423c.171-.596.354-1.186.515-1.786l.058-.218a90.564 90.564 0 0 0 .917-3.781c.553-2.515 1-5.069 1.346-7.654.038-.281.068-.563.104-.845.12-.958.225-1.92.315-2.887.035-.376.067-.754.099-1.131.075-.928.134-1.86.183-2.795.018-.347.04-.693.054-1.041.051-1.267.083-2.539.083-3.817 0-1.283-.032-2.558-.083-3.828-.018-.352-.041-.705-.059-1.059zM115.988 117.167c.626.138 1.252.279 1.875.434.343.086.684.176 1.024.267.828.219 1.652.454 2.474.704.132.041.265.079.396.12 1.094.341 2.183.699 3.261 1.098l2.19-24.777c-.576-.168-1.146-.35-1.728-.507l-.241-.065a93.234 93.234 0 0 0-12.022-2.385c-.23-.03-.461-.057-.691-.085a96.18 96.18 0 0 0-3.422-.359l-.433-.038c2.746 8.713 4.709 17.24 6.09 25.32.412.083.817.183 1.227.273zM131.034 247.922l2.243 25.373c12.96-4.769 24.586-12.318 34.153-21.922a94.821 94.821 0 0 0 6.802-7.613 93.925 93.925 0 0 0 14.974-26.609l-25.227-2.478c-6.825 14.51-18.504 26.301-32.945 33.249zM24.481 120.601a101.535 101.535 0 0 1 3.736-4.184c-.414-1.342-1.65-2.326-3.125-2.326a3.289 3.289 0 0 0-3.285 3.286 3.289 3.289 0 0 0 2.674 3.224zM37.803 155.847c.586-.229 1.171-.462 1.762-.671a55.306 55.306 0 0 1 6.571-1.861 52.626 52.626 0 0 1 3.687-.689c.862-2.72 1.658-5.391 2.419-8.038a287.324 287.324 0 0 0 3.214-12.094 265.8 265.8 0 0 0 1.464-6.414l-2.203-22.638-.655-6.729-3.952-40.619-9.848 49.486-1.92 9.651-7.791 39.148-1.099 5.52a57.605 57.605 0 0 1 8.351-4.052zM60.355 93.641l.673 6.528.02.189c.007-.07.011-.137.019-.207.247-2.409.436-4.763.595-7.087 1.957-28.508-2.418-50.601-8.189-66.627l.776 7.974 6.106 59.23z"/><path d="M68.047 90.584a214.383 214.383 0 0 1-.483 6.801c-.744 8.57-2.035 17.67-4.005 27.318-.136.668-.288 1.348-.431 2.021a278.452 278.452 0 0 1-2.123 9.213 290.18 290.18 0 0 1-1.818 6.99c-.151.551-.31 1.107-.465 1.661a310.861 310.861 0 0 1-2.205 7.513 322.021 322.021 0 0 1-2.009 6.294c-1.128 3.43-2.122 6.501-3.016 9.266-1.589 4.911-2.879 8.9-4.106 12.381 4.286-3.879 9.23-7.619 14.5-10.939a106.656 106.656 0 0 1 5.895-3.456c10.25-5.578 21.223-9.31 30.739-9.31 4.994 0 9.308 1.016 12.892 3.029.443-11.8-.156-24.364-2.029-37.057v-.004a196.456 196.456 0 0 0-1.054-6.392l-.001-.005c-1.5-8.261-3.547-16.533-6.227-24.641l-.002-.006a165.099 165.099 0 0 0-2.18-6.213l-.003-.007c-8.029-21.398-20.639-41.314-39.13-56.44 5.068 15.666 8.675 36.257 7.261 61.983zM33.807 203.611l-.127-.466a65.884 65.884 0 0 1-.382-1.5c-.032-.129-.068-.257-.099-.387l-.24-1.014-1.415-3.131.672-.838c-.007-.046-.012-.092-.02-.138-.083-.524-.151-1.053-.223-1.582-.07-.519-.14-1.039-.199-1.56a72.121 72.121 0 0 1-.297-3.386c-.027-.426-.058-.85-.078-1.278a70.621 70.621 0 0 1-.079-3.093l-.002-.1.002-.073c.001-1.057.032-2.109.08-3.158.014-.303.034-.604.051-.906a72.91 72.91 0 0 1 .189-2.484c.024-.258.046-.516.074-.773.229-2.176.561-4.333.993-6.467.03-.148.063-.295.094-.442.196-.934.411-1.863.645-2.788.042-.167.083-.333.127-.5.294-1.128.607-2.251.959-3.365a53.121 53.121 0 0 0-7.697 5.019l-6.605 5.178 2.869-14.417-12.287-1.086c-.193.66-.393 1.316-.571 1.981l-.1.367a92.787 92.787 0 0 0-.906 3.735v.002a93.171 93.171 0 0 0-.764 3.87c-.022.125-.039.25-.06.375a90.202 90.202 0 0 0-.501 3.273c-.053.392-.098.784-.146 1.176a92.848 92.848 0 0 0-.563 6.439c-.023.426-.051.852-.067 1.278a94.224 94.224 0 0 0-.077 3.534c0 .077-.004.154-.004.231 0 .075.003.149.004.223.002 1.183.03 2.36.077 3.532.017.417.043.832.065 1.248a94.431 94.431 0 0 0 .281 3.865c.084.896.183 1.787.292 2.675.042.343.08.687.126 1.029a93.24 93.24 0 0 0 1.33 7.563l.038.163c.27 1.216.562 2.423.878 3.621.025.098.052.194.078.292.157.586.335 1.164.503 1.746l24.674-2.423a68.153 68.153 0 0 1-1.592-5.06zM30.401 123.276a96.408 96.408 0 0 0-2.743 3.242 93.932 93.932 0 0 0-14.853 26.292l11.516 1.018 6.08-30.552zM21.807 252.901a3.289 3.289 0 0 0 3.285 3.285c1.475 0 2.711-.983 3.125-2.325a100.19 100.19 0 0 1-3.737-4.184 3.289 3.289 0 0 0-2.673 3.224z"/><path d="M200.974 181.084c-.015-.353-.043-.702-.061-1.054-.05-.986-.104-1.971-.182-2.954-.036-.448-.088-.891-.13-1.337-.082-.885-.166-1.769-.271-2.65-.056-.459-.125-.914-.187-1.371a98.269 98.269 0 0 0-.374-2.596c-.07-.434-.151-.864-.228-1.295a96.334 96.334 0 0 0-.494-2.659c-.077-.379-.163-.755-.244-1.132a96.37 96.37 0 0 0-.64-2.805c-.074-.304-.155-.606-.233-.909a98.417 98.417 0 0 0-.815-3.012c-.061-.208-.124-.413-.186-.62-.205-.694-.4-1.391-.621-2.081l-.757-2.369-.065.006a100.009 100.009 0 0 0-14.06-26.575c2.905-1.627 4.876-4.732 4.876-8.292 0-5.241-4.264-9.504-9.503-9.504-3.183 0-5.998 1.578-7.724 3.987a100.24 100.24 0 0 0-35.236-21.252l.007-.072-2.368-.758a98.528 98.528 0 0 0-10.794-2.773c-.168-.034-.334-.072-.503-.105a96.87 96.87 0 0 0-4.535-.784c-.252-.037-.505-.067-.757-.103-1.143-.16-2.29-.302-3.443-.423-.356-.038-.714-.07-1.07-.104a98.792 98.792 0 0 0-3.238-.251c-.212-.013-.421-.038-.634-.049-10.512-29.436-27.473-52.279-50.483-67.887l-3.681-2.497-.116-1.19-.08.4L50.7 0l-6.186.638 3.513 34.067-15.326 77.014c-1.734-2.326-4.492-3.846-7.609-3.846-5.24 0-9.503 4.263-9.503 9.504 0 3.56 1.97 6.665 4.875 8.292a100.009 100.009 0 0 0-14.06 26.575l-.064-.006-.758 2.369c-.22.687-.414 1.381-.619 2.072-.063.212-.128.422-.189.634a101.43 101.43 0 0 0-.808 2.983c-.081.315-.165.63-.243.946-.223.908-.426 1.823-.625 2.739-.087.403-.178.804-.261 1.208-.171.844-.323 1.696-.473 2.547-.083.471-.172.94-.248 1.414-.129.801-.238 1.609-.348 2.416-.071.521-.149 1.038-.212 1.561-.094.782-.166 1.57-.242 2.357-.053.545-.115 1.088-.158 1.636-.064.809-.105 1.624-.15 2.438-.029.524-.07 1.046-.091 1.572a100.63 100.63 0 0 0-.067 3.258c-.001.25-.015.498-.015.749 0 .222.012.441.014.662.007 1.113.024 2.224.068 3.328.02.506.059 1.006.086 1.51.045.832.087 1.664.153 2.49.042.524.1 1.043.149 1.565.077.809.152 1.618.249 2.42.06.497.132.989.199 1.483.112.833.226 1.667.359 2.493.071.444.153.884.23 1.325.155.883.313 1.765.491 2.64.076.374.159.745.239 1.118.204.948.415 1.894.646 2.832.072.292.148.583.222.874.262 1.026.535 2.047.829 3.06.057.197.116.393.174.59.182.617.353 1.238.547 1.852l.76 2.402.063-.006a99.999 99.999 0 0 0 14.151 26.832c-2.905 1.628-4.875 4.733-4.875 8.293 0 5.24 4.263 9.504 9.503 9.504 3.182 0 5.997-1.578 7.723-3.987 10.114 9.41 22.171 16.758 35.495 21.366l-.005.053 2.402.76c.443.14.891.261 1.335.395a99.23 99.23 0 0 0 3.311.938c.688.182 1.379.358 2.073.526a103.515 103.515 0 0 0 3.916.863 110.739 110.739 0 0 0 4.642.811c1.057.159 2.118.302 3.186.428.234.027.469.051.703.076 1.011.112 2.025.21 3.044.291.15.012.3.027.45.038a98.61 98.61 0 0 0 4.086.219c1.16.04 2.322.067 3.492.067 1.185 0 2.362-.028 3.536-.069a101.136 101.136 0 0 0 4.105-.222l.442-.038a95.978 95.978 0 0 0 3.187-.308c.18-.02.359-.037.54-.059a100.36 100.36 0 0 0 4.12-.578 99.314 99.314 0 0 0 3.116-.546c.221-.043.44-.089.66-.133a115.113 115.113 0 0 0 3.848-.85c.912-.221 1.82-.453 2.723-.698.506-.138 1.01-.284 1.514-.43.481-.14.961-.283 1.439-.43.434-.132.871-.251 1.303-.389l2.369-.757-.004-.049c13.22-4.615 25.185-11.929 35.232-21.277 1.726 2.409 4.541 3.987 7.724 3.987 5.239 0 9.503-4.264 9.503-9.504 0-3.56-1.971-6.665-4.875-8.293a100.005 100.005 0 0 0 14.151-26.833l.062.006.761-2.402c.196-.619.368-1.244.552-1.866.056-.188.112-.375.166-.564.297-1.026.574-2.057.838-3.092.071-.28.144-.559.213-.839.234-.958.451-1.919.657-2.883.076-.354.154-.706.227-1.061.184-.907.349-1.817.507-2.729.071-.408.147-.815.213-1.225.142-.881.264-1.765.382-2.65.059-.439.124-.875.177-1.315.106-.89.192-1.782.274-2.675.041-.436.091-.869.125-1.307.078-.977.132-1.957.181-2.938.019-.354.047-.704.061-1.059a99.431 99.431 0 0 0 .002-8.089zM176.8 114.091a3.288 3.288 0 0 1 3.284 3.286 3.287 3.287 0 0 1-2.674 3.224 102.167 102.167 0 0 0-3.736-4.183c.413-1.342 1.65-2.327 3.126-2.327zm-43.524-17.104c12.96 4.768 24.587 12.315 34.154 21.918a95.002 95.002 0 0 1 6.801 7.613 93.94 93.94 0 0 1 14.854 26.293l-25.355 2.241a70.09 70.09 0 0 0-32.695-32.695l2.241-25.37zm-65.65 142.068a64.113 64.113 0 0 1-7.945-5.834l38.983-1.372c-8.656 4.01-19.843 6.67-31.038 7.206zm41.941-6.277c.921 1.355 2.04 2.723 3.313 4.058-5.365 4.172-16.352 9.137-25.173 10.311-.125-.026-.251-.048-.375-.075-.266-.059-.531-.123-.796-.185a63.285 63.285 0 0 1-2.093-.518c-.086-.023-.172-.051-.258-.074a62.998 62.998 0 0 1-6.168-2.043c10.834-1.648 22.716-5.234 31.55-11.474zm7.961 8.286a50.509 50.509 0 0 0 5.185 3.631l-.195.069c-.902.327-1.812.64-2.734.927l-.02.006a64.37 64.37 0 0 1-2.266.659c-.4.107-.805.202-1.208.303-.356.089-.712.186-1.071.268-.646.149-1.299.284-1.952.413-.118.023-.234.052-.352.074-2.556.49-5.169.811-7.822.983 5.086-2.251 9.551-4.911 12.435-7.333zm-8.512-29.503c-.671 4.532-1.249 9.124-1.81 13.764l-53.462 1.883c-6.334-7.088-10.976-15.327-13.592-24.059-.041-.137-.075-.277-.115-.415 25.081-6.909 52.176-18.208 75.488-31.162.479-.266.955-.534 1.431-.801a309.348 309.348 0 0 0 6.59-3.799c-3.058 4.793-5.463 9.806-7.423 14.986-3.787 9.053-5.807 19.088-7.107 29.603zM37.6 187.636a64.867 64.867 0 0 1-.041-1.596c-.007-.3-.022-.6-.022-.901 0-.181.012-.359.013-.54.007-.891.023-1.781.068-2.664.019-.386.059-.769.085-1.154.046-.676.087-1.354.154-2.024.046-.453.113-.901.168-1.353.072-.592.137-1.186.226-1.772.083-.552.19-1.1.288-1.648.084-.472.159-.947.253-1.416.141-.694.305-1.383.469-2.072.074-.31.138-.623.215-.931.219-.862.462-1.717.718-2.57.038-.126.069-.254.108-.379a63.855 63.855 0 0 1 2.108-5.841 48.736 48.736 0 0 1 5.245-1.443c-.751 2.301-1.443 4.44-2.082 6.414-3.265 10.099-5.235 16.186-7.973 21.89zm25.002-11.58l1.274 12.362c-7.766 2.897-15.492 5.463-22.996 7.614.153-.146.306-.292.46-.431.518-.465 1.105-.992 1.629-1.695 4.526-6.078 11.596-12.449 19.633-17.85zm5.873-3.668c10.066-5.828 20.981-9.834 30.044-9.834 5.36 0 9.585 1.457 12.609 4.297-12.929 7.078-27.061 13.679-41.238 19.264l-1.415-13.727zm46.796 39.304c1.375-9.182 3.15-17.887 6.066-26.044a63.88 63.88 0 0 1 1.656-3.853l1.443 17.517-9.54 15.412c.117-1.018.248-2.024.375-3.032zm8.555.398c4.501 6.888 14.018 14.662 22.455 17.326a63.488 63.488 0 0 1-4.254 3.979c-8.379-1.026-19.47-11.098-21.114-16.606l2.913-4.699zm3.674-5.924l2.498-4.03c5.354 6.59 15.885 15.185 24.21 17.357a63.454 63.454 0 0 1-3.383 4.737c-8.568-.9-21.499-12.366-23.325-18.064zm7.688-7.44c6.831-1.099 15.298-3.785 21.01-6.909 1.818 1.418 3.796 2.656 5.538 3.637-5.464 4.048-15.593 7.527-21.958 7.95-1.776-1.618-3.356-3.229-4.59-4.678zm11.136 9.934c5.164-1.171 10.886-3.284 15.525-5.914a62.951 62.951 0 0 1-4.351 11.023c-3.025-.166-7.143-2.28-11.174-5.109zm10.703-24.7l-.378.259-.119-.121c-3.752 3.722-18.319 8.621-26.373 8.923l-1.814-22.031c3.882-6.226 8.883-12.039 15.457-17.393l-3.809-4.913c-6.688 4.935-14.314 9.857-22.544 14.611.517-9.429.569-23.479-1.673-39.799l.225.052c.635.154 1.266.324 1.896.498.375.104.749.209 1.123.319a66.31 66.31 0 0 1 4.018 1.339 61.32 61.32 0 0 1 2.401.948l.242.1c15.081 6.414 27.184 18.505 33.616 33.576.08.189.154.38.233.569.322.775.635 1.556.927 2.346.065.178.124.357.188.536.293.815.576 1.634.836 2.463.038.123.07.246.107.369.271.887.531 1.78.764 2.684.011.04.019.081.029.121a62.968 62.968 0 0 1 1.645 9.239c.022.22.031.442.051.663.077.842.15 1.685.193 2.536.056 1.09.084 2.185.084 3.284 0 .687-.029 1.37-.051 2.053-.013.399-.011.801-.03 1.199-.006.103-.018.205-.023.308-.019.33-.052.658-.075.987-3.026-1.766-5.869-3.862-7.146-5.725zm-47.923-92.349c1.146.1 2.287.219 3.422.359l.691.085a93.031 93.031 0 0 1 12.022 2.385l.241.065c.581.157 1.151.339 1.728.507l-2.19 24.777a66.76 66.76 0 0 0-3.261-1.098c-.132-.042-.265-.08-.396-.12a69.507 69.507 0 0 0-2.474-.704 73.33 73.33 0 0 0-1.024-.267 71.625 71.625 0 0 0-1.875-.434c-.41-.09-.815-.19-1.227-.273-1.381-8.081-3.344-16.607-6.09-25.32l.433.038zm-9.189-6.57l.003.007a166.898 166.898 0 0 1 2.18 6.213l.002.006c2.68 8.108 4.727 16.379 6.227 24.641l.001.005c.387 2.132.739 4.263 1.054 6.392v.004a203.064 203.064 0 0 1 2.029 37.057c-3.584-2.013-7.897-3.029-12.892-3.029-9.517 0-20.489 3.732-30.739 9.31a107.026 107.026 0 0 0-5.895 3.456c-5.27 3.32-10.214 7.061-14.5 10.939 1.228-3.481 2.518-7.47 4.106-12.381a1891.234 1891.234 0 0 1 3.171-9.74c.645-1.959 1.26-3.897 1.854-5.82a310.861 310.861 0 0 0 2.205-7.513c.155-.554.314-1.11.465-1.661a285.568 285.568 0 0 0 1.818-6.99 278.452 278.452 0 0 0 2.123-9.213c.143-.673.294-1.354.431-2.021 1.97-9.648 3.261-18.748 4.005-27.318.2-2.306.361-4.573.483-6.801 1.414-25.726-2.193-46.317-7.262-61.983 18.492 15.126 31.102 35.042 39.131 56.44zm-38.254 8.022a209.226 209.226 0 0 1-.595 7.087c-.007.07-.011.137-.019.207l-.02-.189-.673-6.528-6.107-59.23-.776-7.974c5.772 16.027 10.147 38.119 8.19 66.627zm-23.319 22.168l1.92-9.651 9.848-49.486 3.952 40.619.655 6.729 2.203 22.638a265.8 265.8 0 0 1-1.464 6.414 287.324 287.324 0 0 1-3.214 12.094 310.343 310.343 0 0 1-2.419 8.038c-1.233.18-2.462.42-3.687.689a55.065 55.065 0 0 0-6.571 1.861c-.591.209-1.176.442-1.762.671a57.648 57.648 0 0 0-8.35 4.052l1.099-5.52 7.79-39.148zm-13.25-1.14c1.476 0 2.712.984 3.125 2.326a100.167 100.167 0 0 0-3.736 4.184 3.287 3.287 0 0 1-2.674-3.224 3.29 3.29 0 0 1 3.285-3.286zm2.566 12.427a96.408 96.408 0 0 1 2.743-3.242l-6.08 30.552-11.516-1.018a93.932 93.932 0 0 1 14.853-26.292zM10.222 209.35c-.026-.098-.053-.194-.078-.292a92.711 92.711 0 0 1-.878-3.621l-.038-.163a93.24 93.24 0 0 1-1.33-7.563c-.046-.342-.084-.686-.126-1.029a93.845 93.845 0 0 1-.405-3.974 94.431 94.431 0 0 1-.168-2.566c-.022-.416-.048-.832-.065-1.248a96.246 96.246 0 0 1-.077-3.532c0-.074-.004-.148-.004-.223 0-.077.004-.154.004-.231.003-1.183.03-2.361.077-3.534.017-.426.044-.852.067-1.278.045-.846.098-1.69.165-2.531a100.691 100.691 0 0 1 .398-3.908c.048-.392.093-.785.146-1.176a90.54 90.54 0 0 1 .501-3.273c.021-.125.038-.25.06-.375.229-1.299.483-2.59.764-3.87v-.002c.276-1.255.58-2.5.906-3.735.032-.123.067-.245.1-.367.178-.666.378-1.322.571-1.981l12.287 1.086-2.869 14.417 6.605-5.178a53.121 53.121 0 0 1 7.697-5.019 68.465 68.465 0 0 0-.959 3.365l-.127.5a69.507 69.507 0 0 0-.645 2.788c-.031.147-.064.294-.094.442a68.965 68.965 0 0 0-.993 6.467c-.027.257-.049.516-.074.773a68.294 68.294 0 0 0-.189 2.484c-.018.302-.038.603-.051.906a70.503 70.503 0 0 0-.08 3.158l-.002.073.002.1c.001 1.035.031 2.065.079 3.093.02.428.051.852.078 1.278a70.227 70.227 0 0 0 .297 3.386c.059.521.128 1.041.199 1.56.072.528.139 1.057.223 1.582.007.046.012.092.02.138l-.672.838 1.415 3.131.24 1.014c.031.129.067.257.099.387.122.501.25 1.001.382 1.5l.127.466a68.351 68.351 0 0 0 1.592 5.062l-24.674 2.423c-.168-.584-.347-1.162-.503-1.748zm14.87 46.837a3.289 3.289 0 0 1-3.285-3.285 3.287 3.287 0 0 1 2.673-3.224 101.56 101.56 0 0 0 3.737 4.184c-.413 1.341-1.65 2.325-3.125 2.325zm43.843 17.222c-13.088-4.762-24.829-12.353-34.474-22.034a94.888 94.888 0 0 1-6.804-7.616 93.925 93.925 0 0 1-14.973-26.607l25.229-2.478a70.058 70.058 0 0 0 33.5 33.5l-2.478 25.235zm56.511 2.373c-.34.092-.679.189-1.02.277-.461.119-.926.229-1.39.341-.507.122-1.014.242-1.523.355a92.611 92.611 0 0 1-3.699.755c-.255.046-.51.089-.766.133a91.472 91.472 0 0 1-5.676.806c-.195.021-.389.047-.584.067-.989.103-1.98.189-2.974.262-.211.016-.422.026-.633.041-.817.054-1.638.097-2.458.129-.247.01-.494.021-.742.028a95.968 95.968 0 0 1-3.037.054c-1.003 0-2.005-.021-3.005-.052-.251-.008-.502-.02-.753-.029a92.804 92.804 0 0 1-2.361-.123c-.239-.016-.479-.028-.717-.046a91.07 91.07 0 0 1-2.914-.253c-.199-.021-.396-.047-.594-.068a103.018 103.018 0 0 1-3.33-.426 90.67 90.67 0 0 1-1.937-.307c-.334-.056-.669-.106-1.002-.166a92.62 92.62 0 0 1-2.5-.485c-.493-.103-.982-.213-1.472-.322a95.441 95.441 0 0 1-1.177-.272 93.29 93.29 0 0 1-1.678-.411c-.123-.031-.244-.066-.366-.098a95.892 95.892 0 0 1-2.15-.591l2.423-24.693a68.88 68.88 0 0 0 9.398 2.635l.372.072a70.47 70.47 0 0 0 3.546.616c.862.126 1.728.236 2.597.331.282.03.562.062.845.09.859.083 1.722.146 2.587.197.269.017.536.039.806.052 1.124.054 2.25.087 3.382.087 1.143 0 2.279-.033 3.413-.088.259-.012.517-.035.775-.051a70.05 70.05 0 0 0 2.64-.201c.273-.026.544-.06.816-.09a69.217 69.217 0 0 0 3.32-.442c.919-.146 1.835-.31 2.746-.491.174-.035.347-.068.52-.104a67.606 67.606 0 0 0 2.986-.691c.078-.02.157-.038.235-.059a68.828 68.828 0 0 0 6.621-2.061l2.192 24.799c-.583.17-1.172.334-1.762.493zm4.361-34.202c-6.709-2.952-13.674-9.158-15.976-13.37l3.346-5.396c3.795 5.985 11.273 12.351 18.71 15.211a63.677 63.677 0 0 1-6.08 3.555zm46.993 14.607c-1.476 0-2.712-.984-3.126-2.326a100.14 100.14 0 0 0 3.736-4.183 3.286 3.286 0 0 1 2.674 3.224 3.288 3.288 0 0 1-3.284 3.285zm-2.568-12.427a94.63 94.63 0 0 1-6.802 7.613c-9.567 9.604-21.193 17.153-34.153 21.922l-2.243-25.373c14.44-6.948 26.12-18.739 32.945-33.249l25.227 2.478a93.915 93.915 0 0 1-14.974 26.609zm20.523-54.803c-.014.347-.036.694-.054 1.041a94.997 94.997 0 0 1-.282 3.926 94.33 94.33 0 0 1-.315 2.887c-.035.282-.065.563-.104.845a93.244 93.244 0 0 1-1.346 7.654l-.006.024a90.178 90.178 0 0 1-.911 3.757l-.058.218c-.16.6-.344 1.19-.515 1.786l-24.673-2.423a68.77 68.77 0 0 0 2.623-9.348c.037-.177.069-.355.104-.532.177-.889.338-1.781.479-2.677.045-.279.086-.56.127-.841.117-.804.22-1.61.309-2.419.037-.334.075-.668.107-1.003.075-.786.132-1.575.181-2.366.021-.339.049-.675.064-1.016.049-1.028.075-2.06.079-3.095 0-.079.006-.157.006-.236 0-.088-.007-.175-.007-.263a72.59 72.59 0 0 0-.078-3.1c-.017-.338-.045-.672-.066-1.009-.049-.8-.106-1.599-.183-2.395-.032-.333-.072-.664-.109-.996a67.143 67.143 0 0 0-.902-5.845c-.046-.232-.091-.465-.14-.696a67.376 67.376 0 0 0-.641-2.771c-.037-.146-.071-.294-.109-.44a69.048 69.048 0 0 0-2.045-6.558l24.783-2.19c.201.689.411 1.375.597 2.072l.062.226a93.136 93.136 0 0 1 1.692 7.705l.013.083a93.23 93.23 0 0 1 .549 3.58c.044.332.082.664.123.997a96.186 96.186 0 0 1 .405 3.944c.075.919.134 1.843.182 2.77.018.354.041.706.056 1.06a89.644 89.644 0 0 1 .003 7.644z" fill="#354E81"/></g></symbol><symbol id="icon-close" viewBox="0 0 14 14"><path d="M14 1.41L12.59 0 7 5.59 1.41 0 0 1.41 5.59 7 0 12.59 1.41 14 7 8.41 12.59 14 14 12.59 8.41 7 14 1.41z"/></symbol><symbol id="pic-logo" viewBox="0 0 209 293"><g fill="none" fill-rule="evenodd"><g transform="translate(3 87)"><mask id="b" fill="#fff"><use xlink:href="#a"/></mask><path d="M102.984.547C46.393.547.523 46.418.523 103.008c0 56.591 45.87 102.461 102.461 102.461s102.461-45.87 102.461-102.461S159.575.547 102.984.547m0 32.2c38.806 0 70.262 31.456 70.262 70.261 0 38.807-31.456 70.262-70.262 70.262-38.805 0-70.261-31.455-70.261-70.262 0-38.805 31.456-70.261 70.261-70.261" fill="#9ADBF9" mask="url(#b)"/></g><path d="M100.945 88.137c-53.575 0-97.002 43.427-97.002 97.002 0 53.575 43.427 97.002 97.002 97.002 53.576 0 97.002-43.428 97.002-97.002s-43.426-97.002-97.002-97.002m0 30.484c-36.738 0-66.517 29.78-66.517 66.518s29.779 66.518 66.517 66.518 66.519-29.78 66.519-66.518-29.78-66.518-66.519-66.518" fill="#FFF"/><circle stroke="#354E81" stroke-width="6.218" cx="100.945" cy="185.139" r="66.518"/><path d="M71.645 277.633a96.943 96.943 0 0 0 29.301 4.508 96.967 96.967 0 0 0 29.586-4.601l-2.785-31.507a66.276 66.276 0 0 1-26.801 5.625 66.295 66.295 0 0 1-26.224-5.373l-3.077 31.348zM100.945 88.137a96.95 96.95 0 0 0-29.302 4.509l3.078 31.348a66.291 66.291 0 0 1 26.224-5.373c9.537 0 18.603 2.01 26.801 5.625l2.785-31.507a96.907 96.907 0 0 0-29.586-4.602M193.438 214.442a96.92 96.92 0 0 0 4.51-29.303 96.929 96.929 0 0 0-4.601-29.584l-31.51 2.785a66.28 66.28 0 0 1 5.625 26.799 66.326 66.326 0 0 1-5.371 26.225l31.347 3.078zM8.544 155.555a96.928 96.928 0 0 0-4.6 29.584 96.936 96.936 0 0 0 4.509 29.304l31.347-3.078a66.314 66.314 0 0 1-5.372-26.226 66.286 66.286 0 0 1 5.624-26.799l-31.508-2.785z" fill="#F0492C"/><path d="M100.945 118.621c-36.737 0-66.518 29.781-66.518 66.518s29.781 66.518 66.518 66.518c36.738 0 66.519-29.781 66.519-66.518s-29.78-66.518-66.519-66.518" fill="#6DCBD7"/><path d="M51.167 34.853l11.744 120.704c-12.653-1.62-26.519 2.203-37.993 11.198L51.167 34.853z" fill="#FFF"/><path d="M38.459 194.044c.684-.705 1.472-1.262 2.017-1.995 15.277-20.516 57.886-43.898 73.723-26.542 3.039-44.549-8.753-110.925-59.923-145.635 19.228 46.656 9.751 99.667-2.567 137.077-5.966 18.121-8.111 26.05-12.472 34.358-3.22 6.132-6.895 9.041-.778 2.737" fill="#FFF"/><path d="M60.355 93.641c.435-.194.868-.39 1.306-.577 1.957-28.508-2.418-50.601-8.189-66.627l.776 7.974 6.107 59.23zM117.301 165.718l-.495 7.258-4.903-5.374c-3.057-3.35-7.56-5.049-13.384-5.049-9.063 0-19.978 4.006-30.044 9.834l1.886 18.293-6.186.638-1.574-15.264c-8.036 5.401-15.106 11.772-19.632 17.85-.524.704-1.111 1.23-1.629 1.695-.218.195-.441.392-.65.608-1.327 1.367-2.414 2.529-3.143 3.358l-.986 1.122-1.542-.013-1.905-.087-1.571-3.475 1.232-1.538c.617-.769 2.212-2.865 3.708-5.715 3.363-6.407 5.397-12.697 9.09-24.115.638-1.974 1.331-4.112 2.082-6.414-7.372 1.58-14.54 4.946-20.82 9.869l-6.605 5.178 10.17-51.104a96.408 96.408 0 0 0-2.743 3.242c-12.886 16.077-20.606 36.463-20.606 58.621s7.72 42.543 20.605 58.62a94.695 94.695 0 0 0 6.804 7.616c17.011 17.074 40.535 27.657 66.484 27.657 25.95 0 49.474-10.583 66.485-27.659a94.821 94.821 0 0 0 6.802-7.613c12.886-16.077 20.605-36.462 20.605-58.621s-7.721-42.545-20.606-58.622a94.81 94.81 0 0 0-6.801-7.613c-15.307-15.364-35.886-25.467-58.761-27.339 9.757 30.954 9.629 59.557 8.633 74.156zM176.8 114.091c-1.476 0-2.713.985-3.126 2.327a100.858 100.858 0 0 1 3.736 4.183 3.287 3.287 0 0 0 2.674-3.224 3.289 3.289 0 0 0-3.284-3.286zM24.481 120.601a101.535 101.535 0 0 1 3.736-4.184c-.414-1.342-1.65-2.326-3.125-2.326a3.289 3.289 0 0 0-3.285 3.286 3.289 3.289 0 0 0 2.674 3.224zM21.807 252.901a3.289 3.289 0 0 0 3.285 3.285c1.475 0 2.711-.983 3.125-2.325a100.19 100.19 0 0 1-3.737-4.184 3.289 3.289 0 0 0-2.673 3.224zM177.41 249.678a100.78 100.78 0 0 1-3.736 4.183c.414 1.342 1.65 2.326 3.126 2.326a3.288 3.288 0 0 0 3.284-3.285 3.286 3.286 0 0 0-2.674-3.224z"/><path d="M61.028 100.168l.038-.018c.247-2.409.436-4.763.595-7.087-.438.188-.871.383-1.306.577l.673 6.528z" fill="#354E81"/><path d="M110.584 227.601c1.614-20.55 3.905-40.708 14.697-55.913l2.338 28.39-17.035 27.523-1.219 1.478" fill="#FFF"/><path d="M109.975 228.339c3.652-30.401 6.891-56.818 31.862-77.151-28.665 21.15-71.114 40.279-105.613 49.354 2.701 11.395 8.471 21.537 16.193 29.823l57.558-2.026z" fill="#FFF"/><path d="M122.994 181.795a63.247 63.247 0 0 0-1.656 3.853c-2.916 8.157-4.691 16.862-6.066 26.044-.128 1.008-.259 2.014-.374 3.032l9.54-15.412-1.444-17.517zM142.027 233.395a63.732 63.732 0 0 0 4.254-3.979c-8.438-2.664-17.954-10.438-22.455-17.326l-2.913 4.699c1.645 5.508 12.735 15.579 21.114 16.606zM41.34 195.601c-.154.138-.308.285-.46.431 7.504-2.151 15.23-4.717 22.996-7.614l-1.274-12.362c-8.036 5.401-15.106 11.772-19.632 17.85-.524.703-1.112 1.23-1.63 1.695zM98.519 162.554c-9.063 0-19.978 4.006-30.044 9.834l1.415 13.726c14.178-5.584 28.31-12.186 41.238-19.264-3.024-2.84-7.249-4.296-12.609-4.296zM161.85 202.746c-4.64 2.63-10.361 4.743-15.525 5.914 4.031 2.829 8.148 4.942 11.175 5.109a63.152 63.152 0 0 0 4.35-11.023zM164.249 188.698c.006-.103.018-.205.023-.308.02-.397.018-.8.03-1.199.021-.684.051-1.366.051-2.053 0-1.099-.028-2.194-.084-3.284a62.35 62.35 0 0 0-.193-2.536c-.02-.22-.028-.443-.051-.663a62.968 62.968 0 0 0-1.645-9.239c-.011-.04-.019-.081-.029-.121a60.974 60.974 0 0 0-.764-2.684c-.037-.123-.069-.246-.107-.369a63.088 63.088 0 0 0-.836-2.463c-.063-.178-.122-.358-.188-.536a61.112 61.112 0 0 0-.927-2.346c-.079-.189-.153-.38-.233-.569-6.433-15.071-18.535-27.162-33.616-33.576l-.242-.1a61.947 61.947 0 0 0-4.981-1.841 68.08 68.08 0 0 0-1.438-.446c-.374-.11-.748-.216-1.123-.319a62.143 62.143 0 0 0-1.896-.498c-.074-.019-.149-.034-.225-.052 2.242 16.32 2.189 30.37 1.673 39.799 8.229-4.754 15.855-9.676 22.544-14.611l3.809 4.913c-6.574 5.354-11.575 11.167-15.457 17.393l1.814 22.031c8.054-.302 22.621-5.202 26.373-8.923l.119.121.378-.259c1.276 1.862 4.12 3.958 7.146 5.725.023-.329.056-.657.075-.987zM154.208 219.493c-8.325-2.172-18.855-10.767-24.21-17.357l-2.498 4.03c1.826 5.698 14.757 17.164 23.325 18.064a63.454 63.454 0 0 0 3.383-4.737zM161.736 195.453c-1.742-.98-3.72-2.218-5.538-3.637-5.712 3.125-14.179 5.811-21.01 6.909 1.233 1.449 2.813 3.06 4.59 4.677 6.366-.422 16.494-3.901 21.958-7.949zM163.729 155.052l25.355-2.241a93.89 93.89 0 0 0-14.854-26.293 94.81 94.81 0 0 0-6.801-7.613c-9.567-9.603-21.194-17.15-34.154-21.918l-2.242 25.37a70.079 70.079 0 0 1 32.696 32.695zM180.084 117.377a3.289 3.289 0 0 0-3.284-3.286c-1.476 0-2.713.985-3.126 2.327a100.858 100.858 0 0 1 3.736 4.183 3.288 3.288 0 0 0 2.674-3.224zM42.412 160.776a63.748 63.748 0 0 0-2.108 5.841c-.039.125-.07.253-.108.379a62.373 62.373 0 0 0-.718 2.57c-.078.308-.142.621-.215.931-.164.689-.329 1.377-.469 2.072-.094.468-.169.943-.253 1.416-.098.549-.205 1.096-.288 1.648-.088.586-.153 1.18-.226 1.772-.055.451-.122.899-.168 1.353-.067.67-.108 1.348-.154 2.024-.026.385-.066.768-.085 1.154a63.567 63.567 0 0 0-.068 2.664c-.001.181-.013.359-.013.54 0 .302.016.601.022.901.007.534.02 1.066.041 1.596 2.738-5.704 4.708-11.791 7.975-21.89.638-1.974 1.331-4.112 2.082-6.414a48.643 48.643 0 0 0-5.247 1.443z"/><path d="M123.546 166.972a302.717 302.717 0 0 1-6.59 3.799c-.476.268-.952.535-1.431.801-23.312 12.954-50.407 24.252-75.488 31.162.04.138.074.278.115.415 2.616 8.731 7.258 16.97 13.592 24.059l53.462-1.883c.561-4.64 1.139-9.232 1.81-13.764 1.301-10.515 3.32-20.55 7.107-29.603 1.96-5.18 4.365-10.192 7.423-14.986zM59.681 233.221a64.188 64.188 0 0 0 7.945 5.834c11.195-.536 22.381-3.195 31.038-7.206l-38.983 1.372zM113.267 247.34a63.145 63.145 0 0 0 1.952-.413c.359-.082.715-.179 1.071-.268.403-.101.808-.195 1.208-.303a64.37 64.37 0 0 0 2.266-.659l.02-.006c.922-.287 1.832-.6 2.734-.927l.195-.069a50.728 50.728 0 0 1-5.185-3.631c-2.885 2.422-7.35 5.082-12.436 7.333a63.462 63.462 0 0 0 7.822-.983c.118-.022.234-.051.353-.074zM84.443 246.369c.692.187 1.392.354 2.093.518.265.062.53.126.796.185.125.027.25.049.375.075 8.821-1.174 19.808-6.139 25.173-10.311-1.273-1.335-2.393-2.702-3.313-4.058-8.834 6.239-20.717 9.825-31.551 11.474a62.998 62.998 0 0 0 6.168 2.043c.087.023.172.051.259.074zM117.177 222.813l-3.346 5.396c2.302 4.212 9.267 10.418 15.976 13.37a63.352 63.352 0 0 0 6.08-3.556c-7.437-2.859-14.915-9.224-18.71-15.21zM118.397 252.55c-.078.021-.157.039-.235.059-.99.253-1.985.483-2.986.691-.173.036-.346.069-.52.104a68.573 68.573 0 0 1-6.066.933c-.272.03-.543.063-.816.09a70.05 70.05 0 0 1-2.64.201c-.259.016-.517.039-.775.051a70.414 70.414 0 0 1-3.413.088c-1.132 0-2.259-.033-3.382-.087-.27-.013-.537-.035-.806-.052a69.338 69.338 0 0 1-2.587-.197c-.283-.027-.563-.06-.845-.09a72.512 72.512 0 0 1-2.597-.331c-.23-.034-.461-.068-.691-.104a67.15 67.15 0 0 1-2.855-.512l-.372-.072a68.737 68.737 0 0 1-9.398-2.635L74.99 275.38c.713.205 1.43.401 2.15.591.122.031.243.066.366.098.557.144 1.117.278 1.678.411.392.094.784.185 1.177.272.49.109.979.22 1.472.322a92.62 92.62 0 0 0 2.5.485c.333.06.668.11 1.002.166a97.478 97.478 0 0 0 2.984.454c.76.102 1.521.195 2.283.279.198.021.396.048.594.068.969.1 1.94.184 2.914.253.238.018.478.03.717.046.786.051 1.573.092 2.361.123.251.01.501.021.753.029 1 .031 2.002.052 3.005.052 1.014 0 2.026-.021 3.037-.054.248-.008.495-.019.742-.028.82-.032 1.641-.075 2.458-.129.211-.015.422-.025.633-.041a95.406 95.406 0 0 0 2.974-.262c.195-.021.389-.046.584-.067a99.057 99.057 0 0 0 3.285-.423 91.472 91.472 0 0 0 2.391-.383c.256-.044.511-.087.766-.133a92.611 92.611 0 0 0 5.222-1.11c.464-.112.929-.222 1.39-.341.341-.088.68-.186 1.02-.277.59-.159 1.179-.323 1.765-.494l-2.192-24.799a68.697 68.697 0 0 1-6.624 2.062zM177.41 249.678a100.78 100.78 0 0 1-3.736 4.183c.414 1.342 1.65 2.326 3.126 2.326a3.288 3.288 0 0 0 3.284-3.285 3.286 3.286 0 0 0-2.674-3.224zM37.913 214.674l-25.229 2.478a93.898 93.898 0 0 0 14.973 26.607 94.695 94.695 0 0 0 6.804 7.616c9.646 9.682 21.386 17.272 34.474 22.034l2.477-25.235a70.06 70.06 0 0 1-33.499-33.5zM194.699 180.251a90.665 90.665 0 0 0-.587-6.714c-.041-.333-.079-.665-.123-.997a93.533 93.533 0 0 0-.549-3.58l-.013-.083a93.136 93.136 0 0 0-1.692-7.705l-.062-.226c-.186-.696-.396-1.382-.597-2.072l-24.783 2.19a69.048 69.048 0 0 1 2.045 6.558c.038.146.072.293.109.44.232.919.446 1.842.641 2.771.049.231.094.464.14.696.169.848.321 1.699.458 2.553.046.291.092.581.135.873.118.804.219 1.61.309 2.419.037.332.077.663.109.996.076.795.134 1.594.183 2.395.021.336.05.671.066 1.009a72.59 72.59 0 0 1 .078 3.1c0 .088.007.175.007.263 0 .079-.006.157-.006.236a70.753 70.753 0 0 1-.079 3.095c-.016.34-.043.677-.064 1.016a68.75 68.75 0 0 1-.181 2.366c-.032.335-.07.669-.107 1.003a67.433 67.433 0 0 1-.309 2.419 70.69 70.69 0 0 1-.606 3.518c-.035.177-.067.355-.104.532a68.811 68.811 0 0 1-2.623 9.348l24.673 2.423c.171-.596.354-1.186.515-1.786l.058-.218a90.564 90.564 0 0 0 .917-3.781c.553-2.515 1-5.069 1.346-7.654.038-.281.068-.563.104-.845.12-.958.225-1.92.315-2.887.035-.376.067-.754.099-1.131.075-.928.134-1.86.183-2.795.018-.347.04-.693.054-1.041.051-1.267.083-2.539.083-3.817 0-1.283-.032-2.558-.083-3.828-.018-.352-.041-.705-.059-1.059zM115.988 117.167c.626.138 1.252.279 1.875.434.343.086.684.176 1.024.267.828.219 1.652.454 2.474.704.132.041.265.079.396.12 1.094.341 2.183.699 3.261 1.098l2.19-24.777c-.576-.168-1.146-.35-1.728-.507l-.241-.065a93.234 93.234 0 0 0-12.022-2.385c-.23-.03-.461-.057-.691-.085a96.18 96.18 0 0 0-3.422-.359l-.433-.038c2.746 8.713 4.709 17.24 6.09 25.32.412.083.817.183 1.227.273zM131.034 247.922l2.243 25.373c12.96-4.769 24.586-12.318 34.153-21.922a94.821 94.821 0 0 0 6.802-7.613 93.925 93.925 0 0 0 14.974-26.609l-25.227-2.478c-6.825 14.51-18.504 26.301-32.945 33.249zM24.481 120.601a101.535 101.535 0 0 1 3.736-4.184c-.414-1.342-1.65-2.326-3.125-2.326a3.289 3.289 0 0 0-3.285 3.286 3.289 3.289 0 0 0 2.674 3.224zM37.803 155.847c.586-.229 1.171-.462 1.762-.671a55.306 55.306 0 0 1 6.571-1.861 52.626 52.626 0 0 1 3.687-.689c.862-2.72 1.658-5.391 2.419-8.038a287.324 287.324 0 0 0 3.214-12.094 265.8 265.8 0 0 0 1.464-6.414l-2.203-22.638-.655-6.729-3.952-40.619-9.848 49.486-1.92 9.651-7.791 39.148-1.099 5.52a57.605 57.605 0 0 1 8.351-4.052zM60.355 93.641l.673 6.528.02.189c.007-.07.011-.137.019-.207.247-2.409.436-4.763.595-7.087 1.957-28.508-2.418-50.601-8.189-66.627l.776 7.974 6.106 59.23z"/><path d="M68.047 90.584a214.383 214.383 0 0 1-.483 6.801c-.744 8.57-2.035 17.67-4.005 27.318-.136.668-.288 1.348-.431 2.021a278.452 278.452 0 0 1-2.123 9.213 290.18 290.18 0 0 1-1.818 6.99c-.151.551-.31 1.107-.465 1.661a310.861 310.861 0 0 1-2.205 7.513 322.021 322.021 0 0 1-2.009 6.294c-1.128 3.43-2.122 6.501-3.016 9.266-1.589 4.911-2.879 8.9-4.106 12.381 4.286-3.879 9.23-7.619 14.5-10.939a106.656 106.656 0 0 1 5.895-3.456c10.25-5.578 21.223-9.31 30.739-9.31 4.994 0 9.308 1.016 12.892 3.029.443-11.8-.156-24.364-2.029-37.057v-.004a196.456 196.456 0 0 0-1.054-6.392l-.001-.005c-1.5-8.261-3.547-16.533-6.227-24.641l-.002-.006a165.099 165.099 0 0 0-2.18-6.213l-.003-.007c-8.029-21.398-20.639-41.314-39.13-56.44 5.068 15.666 8.675 36.257 7.261 61.983zM33.807 203.611l-.127-.466a65.884 65.884 0 0 1-.382-1.5c-.032-.129-.068-.257-.099-.387l-.24-1.014-1.415-3.131.672-.838c-.007-.046-.012-.092-.02-.138-.083-.524-.151-1.053-.223-1.582-.07-.519-.14-1.039-.199-1.56a72.121 72.121 0 0 1-.297-3.386c-.027-.426-.058-.85-.078-1.278a70.621 70.621 0 0 1-.079-3.093l-.002-.1.002-.073c.001-1.057.032-2.109.08-3.158.014-.303.034-.604.051-.906a72.91 72.91 0 0 1 .189-2.484c.024-.258.046-.516.074-.773.229-2.176.561-4.333.993-6.467.03-.148.063-.295.094-.442.196-.934.411-1.863.645-2.788.042-.167.083-.333.127-.5.294-1.128.607-2.251.959-3.365a53.121 53.121 0 0 0-7.697 5.019l-6.605 5.178 2.869-14.417-12.287-1.086c-.193.66-.393 1.316-.571 1.981l-.1.367a92.787 92.787 0 0 0-.906 3.735v.002a93.171 93.171 0 0 0-.764 3.87c-.022.125-.039.25-.06.375a90.202 90.202 0 0 0-.501 3.273c-.053.392-.098.784-.146 1.176a92.848 92.848 0 0 0-.563 6.439c-.023.426-.051.852-.067 1.278a94.224 94.224 0 0 0-.077 3.534c0 .077-.004.154-.004.231 0 .075.003.149.004.223.002 1.183.03 2.36.077 3.532.017.417.043.832.065 1.248a94.431 94.431 0 0 0 .281 3.865c.084.896.183 1.787.292 2.675.042.343.08.687.126 1.029a93.24 93.24 0 0 0 1.33 7.563l.038.163c.27 1.216.562 2.423.878 3.621.025.098.052.194.078.292.157.586.335 1.164.503 1.746l24.674-2.423a68.153 68.153 0 0 1-1.592-5.06zM30.401 123.276a96.408 96.408 0 0 0-2.743 3.242 93.932 93.932 0 0 0-14.853 26.292l11.516 1.018 6.08-30.552zM21.807 252.901a3.289 3.289 0 0 0 3.285 3.285c1.475 0 2.711-.983 3.125-2.325a100.19 100.19 0 0 1-3.737-4.184 3.289 3.289 0 0 0-2.673 3.224z"/><path d="M200.974 181.084c-.015-.353-.043-.702-.061-1.054-.05-.986-.104-1.971-.182-2.954-.036-.448-.088-.891-.13-1.337-.082-.885-.166-1.769-.271-2.65-.056-.459-.125-.914-.187-1.371a98.269 98.269 0 0 0-.374-2.596c-.07-.434-.151-.864-.228-1.295a96.334 96.334 0 0 0-.494-2.659c-.077-.379-.163-.755-.244-1.132a96.37 96.37 0 0 0-.64-2.805c-.074-.304-.155-.606-.233-.909a98.417 98.417 0 0 0-.815-3.012c-.061-.208-.124-.413-.186-.62-.205-.694-.4-1.391-.621-2.081l-.757-2.369-.065.006a100.009 100.009 0 0 0-14.06-26.575c2.905-1.627 4.876-4.732 4.876-8.292 0-5.241-4.264-9.504-9.503-9.504-3.183 0-5.998 1.578-7.724 3.987a100.24 100.24 0 0 0-35.236-21.252l.007-.072-2.368-.758a98.528 98.528 0 0 0-10.794-2.773c-.168-.034-.334-.072-.503-.105a96.87 96.87 0 0 0-4.535-.784c-.252-.037-.505-.067-.757-.103-1.143-.16-2.29-.302-3.443-.423-.356-.038-.714-.07-1.07-.104a98.792 98.792 0 0 0-3.238-.251c-.212-.013-.421-.038-.634-.049-10.512-29.436-27.473-52.279-50.483-67.887l-3.681-2.497-.116-1.19-.08.4L50.7 0l-6.186.638 3.513 34.067-15.326 77.014c-1.734-2.326-4.492-3.846-7.609-3.846-5.24 0-9.503 4.263-9.503 9.504 0 3.56 1.97 6.665 4.875 8.292a100.009 100.009 0 0 0-14.06 26.575l-.064-.006-.758 2.369c-.22.687-.414 1.381-.619 2.072-.063.212-.128.422-.189.634a101.43 101.43 0 0 0-.808 2.983c-.081.315-.165.63-.243.946-.223.908-.426 1.823-.625 2.739-.087.403-.178.804-.261 1.208-.171.844-.323 1.696-.473 2.547-.083.471-.172.94-.248 1.414-.129.801-.238 1.609-.348 2.416-.071.521-.149 1.038-.212 1.561-.094.782-.166 1.57-.242 2.357-.053.545-.115 1.088-.158 1.636-.064.809-.105 1.624-.15 2.438-.029.524-.07 1.046-.091 1.572a100.63 100.63 0 0 0-.067 3.258c-.001.25-.015.498-.015.749 0 .222.012.441.014.662.007 1.113.024 2.224.068 3.328.02.506.059 1.006.086 1.51.045.832.087 1.664.153 2.49.042.524.1 1.043.149 1.565.077.809.152 1.618.249 2.42.06.497.132.989.199 1.483.112.833.226 1.667.359 2.493.071.444.153.884.23 1.325.155.883.313 1.765.491 2.64.076.374.159.745.239 1.118.204.948.415 1.894.646 2.832.072.292.148.583.222.874.262 1.026.535 2.047.829 3.06.057.197.116.393.174.59.182.617.353 1.238.547 1.852l.76 2.402.063-.006a99.999 99.999 0 0 0 14.151 26.832c-2.905 1.628-4.875 4.733-4.875 8.293 0 5.24 4.263 9.504 9.503 9.504 3.182 0 5.997-1.578 7.723-3.987 10.114 9.41 22.171 16.758 35.495 21.366l-.005.053 2.402.76c.443.14.891.261 1.335.395a99.23 99.23 0 0 0 3.311.938c.688.182 1.379.358 2.073.526a103.515 103.515 0 0 0 3.916.863 110.739 110.739 0 0 0 4.642.811c1.057.159 2.118.302 3.186.428.234.027.469.051.703.076 1.011.112 2.025.21 3.044.291.15.012.3.027.45.038a98.61 98.61 0 0 0 4.086.219c1.16.04 2.322.067 3.492.067 1.185 0 2.362-.028 3.536-.069a101.136 101.136 0 0 0 4.105-.222l.442-.038a95.978 95.978 0 0 0 3.187-.308c.18-.02.359-.037.54-.059a100.36 100.36 0 0 0 4.12-.578 99.314 99.314 0 0 0 3.116-.546c.221-.043.44-.089.66-.133a115.113 115.113 0 0 0 3.848-.85c.912-.221 1.82-.453 2.723-.698.506-.138 1.01-.284 1.514-.43.481-.14.961-.283 1.439-.43.434-.132.871-.251 1.303-.389l2.369-.757-.004-.049c13.22-4.615 25.185-11.929 35.232-21.277 1.726 2.409 4.541 3.987 7.724 3.987 5.239 0 9.503-4.264 9.503-9.504 0-3.56-1.971-6.665-4.875-8.293a100.005 100.005 0 0 0 14.151-26.833l.062.006.761-2.402c.196-.619.368-1.244.552-1.866.056-.188.112-.375.166-.564.297-1.026.574-2.057.838-3.092.071-.28.144-.559.213-.839.234-.958.451-1.919.657-2.883.076-.354.154-.706.227-1.061.184-.907.349-1.817.507-2.729.071-.408.147-.815.213-1.225.142-.881.264-1.765.382-2.65.059-.439.124-.875.177-1.315.106-.89.192-1.782.274-2.675.041-.436.091-.869.125-1.307.078-.977.132-1.957.181-2.938.019-.354.047-.704.061-1.059a99.431 99.431 0 0 0 .002-8.089zM176.8 114.091a3.288 3.288 0 0 1 3.284 3.286 3.287 3.287 0 0 1-2.674 3.224 102.167 102.167 0 0 0-3.736-4.183c.413-1.342 1.65-2.327 3.126-2.327zm-43.524-17.104c12.96 4.768 24.587 12.315 34.154 21.918a95.002 95.002 0 0 1 6.801 7.613 93.94 93.94 0 0 1 14.854 26.293l-25.355 2.241a70.09 70.09 0 0 0-32.695-32.695l2.241-25.37zm-65.65 142.068a64.113 64.113 0 0 1-7.945-5.834l38.983-1.372c-8.656 4.01-19.843 6.67-31.038 7.206zm41.941-6.277c.921 1.355 2.04 2.723 3.313 4.058-5.365 4.172-16.352 9.137-25.173 10.311-.125-.026-.251-.048-.375-.075-.266-.059-.531-.123-.796-.185a63.285 63.285 0 0 1-2.093-.518c-.086-.023-.172-.051-.258-.074a62.998 62.998 0 0 1-6.168-2.043c10.834-1.648 22.716-5.234 31.55-11.474zm7.961 8.286a50.509 50.509 0 0 0 5.185 3.631l-.195.069c-.902.327-1.812.64-2.734.927l-.02.006a64.37 64.37 0 0 1-2.266.659c-.4.107-.805.202-1.208.303-.356.089-.712.186-1.071.268-.646.149-1.299.284-1.952.413-.118.023-.234.052-.352.074-2.556.49-5.169.811-7.822.983 5.086-2.251 9.551-4.911 12.435-7.333zm-8.512-29.503c-.671 4.532-1.249 9.124-1.81 13.764l-53.462 1.883c-6.334-7.088-10.976-15.327-13.592-24.059-.041-.137-.075-.277-.115-.415 25.081-6.909 52.176-18.208 75.488-31.162.479-.266.955-.534 1.431-.801a309.348 309.348 0 0 0 6.59-3.799c-3.058 4.793-5.463 9.806-7.423 14.986-3.787 9.053-5.807 19.088-7.107 29.603zM37.6 187.636a64.867 64.867 0 0 1-.041-1.596c-.007-.3-.022-.6-.022-.901 0-.181.012-.359.013-.54.007-.891.023-1.781.068-2.664.019-.386.059-.769.085-1.154.046-.676.087-1.354.154-2.024.046-.453.113-.901.168-1.353.072-.592.137-1.186.226-1.772.083-.552.19-1.1.288-1.648.084-.472.159-.947.253-1.416.141-.694.305-1.383.469-2.072.074-.31.138-.623.215-.931.219-.862.462-1.717.718-2.57.038-.126.069-.254.108-.379a63.855 63.855 0 0 1 2.108-5.841 48.736 48.736 0 0 1 5.245-1.443c-.751 2.301-1.443 4.44-2.082 6.414-3.265 10.099-5.235 16.186-7.973 21.89zm25.002-11.58l1.274 12.362c-7.766 2.897-15.492 5.463-22.996 7.614.153-.146.306-.292.46-.431.518-.465 1.105-.992 1.629-1.695 4.526-6.078 11.596-12.449 19.633-17.85zm5.873-3.668c10.066-5.828 20.981-9.834 30.044-9.834 5.36 0 9.585 1.457 12.609 4.297-12.929 7.078-27.061 13.679-41.238 19.264l-1.415-13.727zm46.796 39.304c1.375-9.182 3.15-17.887 6.066-26.044a63.88 63.88 0 0 1 1.656-3.853l1.443 17.517-9.54 15.412c.117-1.018.248-2.024.375-3.032zm8.555.398c4.501 6.888 14.018 14.662 22.455 17.326a63.488 63.488 0 0 1-4.254 3.979c-8.379-1.026-19.47-11.098-21.114-16.606l2.913-4.699zm3.674-5.924l2.498-4.03c5.354 6.59 15.885 15.185 24.21 17.357a63.454 63.454 0 0 1-3.383 4.737c-8.568-.9-21.499-12.366-23.325-18.064zm7.688-7.44c6.831-1.099 15.298-3.785 21.01-6.909 1.818 1.418 3.796 2.656 5.538 3.637-5.464 4.048-15.593 7.527-21.958 7.95-1.776-1.618-3.356-3.229-4.59-4.678zm11.136 9.934c5.164-1.171 10.886-3.284 15.525-5.914a62.951 62.951 0 0 1-4.351 11.023c-3.025-.166-7.143-2.28-11.174-5.109zm10.703-24.7l-.378.259-.119-.121c-3.752 3.722-18.319 8.621-26.373 8.923l-1.814-22.031c3.882-6.226 8.883-12.039 15.457-17.393l-3.809-4.913c-6.688 4.935-14.314 9.857-22.544 14.611.517-9.429.569-23.479-1.673-39.799l.225.052c.635.154 1.266.324 1.896.498.375.104.749.209 1.123.319a66.31 66.31 0 0 1 4.018 1.339 61.32 61.32 0 0 1 2.401.948l.242.1c15.081 6.414 27.184 18.505 33.616 33.576.08.189.154.38.233.569.322.775.635 1.556.927 2.346.065.178.124.357.188.536.293.815.576 1.634.836 2.463.038.123.07.246.107.369.271.887.531 1.78.764 2.684.011.04.019.081.029.121a62.968 62.968 0 0 1 1.645 9.239c.022.22.031.442.051.663.077.842.15 1.685.193 2.536.056 1.09.084 2.185.084 3.284 0 .687-.029 1.37-.051 2.053-.013.399-.011.801-.03 1.199-.006.103-.018.205-.023.308-.019.33-.052.658-.075.987-3.026-1.766-5.869-3.862-7.146-5.725zm-47.923-92.349c1.146.1 2.287.219 3.422.359l.691.085a93.031 93.031 0 0 1 12.022 2.385l.241.065c.581.157 1.151.339 1.728.507l-2.19 24.777a66.76 66.76 0 0 0-3.261-1.098c-.132-.042-.265-.08-.396-.12a69.507 69.507 0 0 0-2.474-.704 73.33 73.33 0 0 0-1.024-.267 71.625 71.625 0 0 0-1.875-.434c-.41-.09-.815-.19-1.227-.273-1.381-8.081-3.344-16.607-6.09-25.32l.433.038zm-9.189-6.57l.003.007a166.898 166.898 0 0 1 2.18 6.213l.002.006c2.68 8.108 4.727 16.379 6.227 24.641l.001.005c.387 2.132.739 4.263 1.054 6.392v.004a203.064 203.064 0 0 1 2.029 37.057c-3.584-2.013-7.897-3.029-12.892-3.029-9.517 0-20.489 3.732-30.739 9.31a107.026 107.026 0 0 0-5.895 3.456c-5.27 3.32-10.214 7.061-14.5 10.939 1.228-3.481 2.518-7.47 4.106-12.381a1891.234 1891.234 0 0 1 3.171-9.74c.645-1.959 1.26-3.897 1.854-5.82a310.861 310.861 0 0 0 2.205-7.513c.155-.554.314-1.11.465-1.661a285.568 285.568 0 0 0 1.818-6.99 278.452 278.452 0 0 0 2.123-9.213c.143-.673.294-1.354.431-2.021 1.97-9.648 3.261-18.748 4.005-27.318.2-2.306.361-4.573.483-6.801 1.414-25.726-2.193-46.317-7.262-61.983 18.492 15.126 31.102 35.042 39.131 56.44zm-38.254 8.022a209.226 209.226 0 0 1-.595 7.087c-.007.07-.011.137-.019.207l-.02-.189-.673-6.528-6.107-59.23-.776-7.974c5.772 16.027 10.147 38.119 8.19 66.627zm-23.319 22.168l1.92-9.651 9.848-49.486 3.952 40.619.655 6.729 2.203 22.638a265.8 265.8 0 0 1-1.464 6.414 287.324 287.324 0 0 1-3.214 12.094 310.343 310.343 0 0 1-2.419 8.038c-1.233.18-2.462.42-3.687.689a55.065 55.065 0 0 0-6.571 1.861c-.591.209-1.176.442-1.762.671a57.648 57.648 0 0 0-8.35 4.052l1.099-5.52 7.79-39.148zm-13.25-1.14c1.476 0 2.712.984 3.125 2.326a100.167 100.167 0 0 0-3.736 4.184 3.287 3.287 0 0 1-2.674-3.224 3.29 3.29 0 0 1 3.285-3.286zm2.566 12.427a96.408 96.408 0 0 1 2.743-3.242l-6.08 30.552-11.516-1.018a93.932 93.932 0 0 1 14.853-26.292zM10.222 209.35c-.026-.098-.053-.194-.078-.292a92.711 92.711 0 0 1-.878-3.621l-.038-.163a93.24 93.24 0 0 1-1.33-7.563c-.046-.342-.084-.686-.126-1.029a93.845 93.845 0 0 1-.405-3.974 94.431 94.431 0 0 1-.168-2.566c-.022-.416-.048-.832-.065-1.248a96.246 96.246 0 0 1-.077-3.532c0-.074-.004-.148-.004-.223 0-.077.004-.154.004-.231.003-1.183.03-2.361.077-3.534.017-.426.044-.852.067-1.278.045-.846.098-1.69.165-2.531a100.691 100.691 0 0 1 .398-3.908c.048-.392.093-.785.146-1.176a90.54 90.54 0 0 1 .501-3.273c.021-.125.038-.25.06-.375.229-1.299.483-2.59.764-3.87v-.002c.276-1.255.58-2.5.906-3.735.032-.123.067-.245.1-.367.178-.666.378-1.322.571-1.981l12.287 1.086-2.869 14.417 6.605-5.178a53.121 53.121 0 0 1 7.697-5.019 68.465 68.465 0 0 0-.959 3.365l-.127.5a69.507 69.507 0 0 0-.645 2.788c-.031.147-.064.294-.094.442a68.965 68.965 0 0 0-.993 6.467c-.027.257-.049.516-.074.773a68.294 68.294 0 0 0-.189 2.484c-.018.302-.038.603-.051.906a70.503 70.503 0 0 0-.08 3.158l-.002.073.002.1c.001 1.035.031 2.065.079 3.093.02.428.051.852.078 1.278a70.227 70.227 0 0 0 .297 3.386c.059.521.128 1.041.199 1.56.072.528.139 1.057.223 1.582.007.046.012.092.02.138l-.672.838 1.415 3.131.24 1.014c.031.129.067.257.099.387.122.501.25 1.001.382 1.5l.127.466a68.351 68.351 0 0 0 1.592 5.062l-24.674 2.423c-.168-.584-.347-1.162-.503-1.748zm14.87 46.837a3.289 3.289 0 0 1-3.285-3.285 3.287 3.287 0 0 1 2.673-3.224 101.56 101.56 0 0 0 3.737 4.184c-.413 1.341-1.65 2.325-3.125 2.325zm43.843 17.222c-13.088-4.762-24.829-12.353-34.474-22.034a94.888 94.888 0 0 1-6.804-7.616 93.925 93.925 0 0 1-14.973-26.607l25.229-2.478a70.058 70.058 0 0 0 33.5 33.5l-2.478 25.235zm56.511 2.373c-.34.092-.679.189-1.02.277-.461.119-.926.229-1.39.341-.507.122-1.014.242-1.523.355a92.611 92.611 0 0 1-3.699.755c-.255.046-.51.089-.766.133a91.472 91.472 0 0 1-5.676.806c-.195.021-.389.047-.584.067-.989.103-1.98.189-2.974.262-.211.016-.422.026-.633.041-.817.054-1.638.097-2.458.129-.247.01-.494.021-.742.028a95.968 95.968 0 0 1-3.037.054c-1.003 0-2.005-.021-3.005-.052-.251-.008-.502-.02-.753-.029a92.804 92.804 0 0 1-2.361-.123c-.239-.016-.479-.028-.717-.046a91.07 91.07 0 0 1-2.914-.253c-.199-.021-.396-.047-.594-.068a103.018 103.018 0 0 1-3.33-.426 90.67 90.67 0 0 1-1.937-.307c-.334-.056-.669-.106-1.002-.166a92.62 92.62 0 0 1-2.5-.485c-.493-.103-.982-.213-1.472-.322a95.441 95.441 0 0 1-1.177-.272 93.29 93.29 0 0 1-1.678-.411c-.123-.031-.244-.066-.366-.098a95.892 95.892 0 0 1-2.15-.591l2.423-24.693a68.88 68.88 0 0 0 9.398 2.635l.372.072a70.47 70.47 0 0 0 3.546.616c.862.126 1.728.236 2.597.331.282.03.562.062.845.09.859.083 1.722.146 2.587.197.269.017.536.039.806.052 1.124.054 2.25.087 3.382.087 1.143 0 2.279-.033 3.413-.088.259-.012.517-.035.775-.051a70.05 70.05 0 0 0 2.64-.201c.273-.026.544-.06.816-.09a69.217 69.217 0 0 0 3.32-.442c.919-.146 1.835-.31 2.746-.491.174-.035.347-.068.52-.104a67.606 67.606 0 0 0 2.986-.691c.078-.02.157-.038.235-.059a68.828 68.828 0 0 0 6.621-2.061l2.192 24.799c-.583.17-1.172.334-1.762.493zm4.361-34.202c-6.709-2.952-13.674-9.158-15.976-13.37l3.346-5.396c3.795 5.985 11.273 12.351 18.71 15.211a63.677 63.677 0 0 1-6.08 3.555zm46.993 14.607c-1.476 0-2.712-.984-3.126-2.326a100.14 100.14 0 0 0 3.736-4.183 3.286 3.286 0 0 1 2.674 3.224 3.288 3.288 0 0 1-3.284 3.285zm-2.568-12.427a94.63 94.63 0 0 1-6.802 7.613c-9.567 9.604-21.193 17.153-34.153 21.922l-2.243-25.373c14.44-6.948 26.12-18.739 32.945-33.249l25.227 2.478a93.915 93.915 0 0 1-14.974 26.609zm20.523-54.803c-.014.347-.036.694-.054 1.041a94.997 94.997 0 0 1-.282 3.926 94.33 94.33 0 0 1-.315 2.887c-.035.282-.065.563-.104.845a93.244 93.244 0 0 1-1.346 7.654l-.006.024a90.178 90.178 0 0 1-.911 3.757l-.058.218c-.16.6-.344 1.19-.515 1.786l-24.673-2.423a68.77 68.77 0 0 0 2.623-9.348c.037-.177.069-.355.104-.532.177-.889.338-1.781.479-2.677.045-.279.086-.56.127-.841.117-.804.22-1.61.309-2.419.037-.334.075-.668.107-1.003.075-.786.132-1.575.181-2.366.021-.339.049-.675.064-1.016.049-1.028.075-2.06.079-3.095 0-.079.006-.157.006-.236 0-.088-.007-.175-.007-.263a72.59 72.59 0 0 0-.078-3.1c-.017-.338-.045-.672-.066-1.009-.049-.8-.106-1.599-.183-2.395-.032-.333-.072-.664-.109-.996a67.143 67.143 0 0 0-.902-5.845c-.046-.232-.091-.465-.14-.696a67.376 67.376 0 0 0-.641-2.771c-.037-.146-.071-.294-.109-.44a69.048 69.048 0 0 0-2.045-6.558l24.783-2.19c.201.689.411 1.375.597 2.072l.062.226a93.136 93.136 0 0 1 1.692 7.705l.013.083a93.23 93.23 0 0 1 .549 3.58c.044.332.082.664.123.997a96.186 96.186 0 0 1 .405 3.944c.075.919.134 1.843.182 2.77.018.354.041.706.056 1.06a89.644 89.644 0 0 1 .003 7.644z" fill="#354E81"/></g></symbol><symbol id="icon-down" viewBox="0 0 12 8"><path d="M1.41.58L6 5.17 10.59.58 12 2 6 8 0 2 1.41.58z"/></symbol><symbol id="pic-te-st" viewBox="0 0 99 40"><g fill="#000" fill-rule="evenodd"><path d="M10.895 20.245a2 2 0 0 1-1.4-2.394l-1.394-.805c-.359.343-.845.554-1.381.554a1.994 1.994 0 0 1-1.42-.592l-1.369.79A2.003 2.003 0 0 1 2 20.32a2 2 0 1 1 1.347-3.479l1.418-.818a2 2 0 0 1 3.33-1.875l2.785-1.607V9.28a1.998 1.998 0 0 1-.828-.481l-1.392.87a2 2 0 1 1-3.885.027l-1.451-.838a1.996 1.996 0 0 1-.764.422v1.678a2 2 0 1 1-1.12 0V9.281A2 2 0 1 1 3.428 5.96l1.333-.833a2 2 0 1 1 .528.99l-1.331.833a2.009 2.009 0 0 1-.035.962l1.406.811c.36-.348.85-.563 1.391-.563.53 0 1.013.207 1.371.544l1.404-.877a2.005 2.005 0 0 1 1.465-2.409V3.942A2 2 0 1 1 12 3.921v1.518a2 2 0 0 1 0 3.842v3.306l2.653 1.532c.256-.26.582-.451.947-.541v-1.476a2 2 0 1 1 1.85-3.399l1.389-.868a2.01 2.01 0 0 1 .022-.888l-1.434-.828a2 2 0 1 1 .584-.956l1.42.82a2 2 0 1 1 1.93 3.378l-.001 1.518a2 2 0 1 1-1.04-.021V9.382a1.998 1.998 0 0 1-.959-.553l-1.342.84a2.004 2.004 0 0 1-1.379 2.412v1.518a2 2 0 0 1 1.366 2.462l1.41.815a2 2 0 1 1-.56.97l-1.444-.834a2 2 0 0 1-3.29-1.906l-2.722-1.572-2.74 1.581a2.004 2.004 0 0 1 .003.962l1.39.802a2 2 0 1 1 1.896 3.375v2.62l2.279-1.317a2.003 2.003 0 0 1 1.932-2.517 2 2 0 1 1-1.4 3.428l-2.811 1.624v4.783h10.34a.352.352 0 0 1 0 .703H11.985c.182 1.334 1.447 1.512 3.42 1.674 1.924.157 4.103.336 4.69 2.502a.264.264 0 0 1-.255.334.263.263 0 0 1-.254-.196c-.442-1.632-2.03-1.917-3.685-2.068.045.05.087.101.126.155.316.427.81.626 1.334.836.656.264 1.334.537 1.641 1.286a.264.264 0 1 1-.487.2c-.223-.543-.745-.753-1.35-.996a7.767 7.767 0 0 1-.682-.301c.065.246.117.496.166.74.088.44.171.858.331 1.208a.264.264 0 0 1-.48.22c-.185-.406-.278-.873-.368-1.324-.216-1.08-.403-2.012-1.693-2.154l-.01-.002c-.915-.103-1.768-.285-2.327-.776.262.613.652 1.061 1.035 1.499.158.181.318.364.467.558l.009.007c.157.204.34.377.535.562.26.245.532.504.754.852.005.007.01.012.014.02.293.466 1.156 1.418 1.703 1.727a.264.264 0 0 1-.258.46c-.308-.174-.677-.497-1.015-.844.032.325.032.694-.014 1.127a.263.263 0 0 1-.262.236l-.028-.001a.264.264 0 0 1-.234-.29c.128-1.21-.109-1.851-.471-2.324.16.822.056 1.91-.553 3.493a.264.264 0 1 1-.492-.19c1.18-3.065.378-3.983-.551-5.045-.368-.422-.761-.873-1.05-1.477.083 1.033.216 1.881.332 2.616.35 2.212.56 3.548-1.174 5.988a.262.262 0 0 1-.367.062.264.264 0 0 1-.062-.368c1.274-1.793 1.422-2.909 1.26-4.363-.107.186-.233.341-.357.494-.329.407-.64.793-.575 1.874a.264.264 0 0 1-.247.28h-.016a.264.264 0 0 1-.263-.248c-.078-1.286.331-1.791.692-2.238.36-.445.67-.829.483-2.083a28.944 28.944 0 0 1-.222-1.844c-.283.577-.751 1.206-1.528 1.862-.928.782-.676 1.636-.385 2.623.19.647.388 1.316.265 2.011a.263.263 0 1 1-.519-.091c.1-.574-.078-1.182-.251-1.77a9.547 9.547 0 0 1-.216-.822l-.067.31c-.195.912-.396 1.856-1.619 2.658a.264.264 0 0 1-.288-.441c1.04-.683 1.203-1.444 1.391-2.327.082-.383.17-.79.343-1.202l-.223.132c-.772.458-1.198.709-1.369 1.68a.263.263 0 1 1-.519-.09c.213-1.212.803-1.56 1.62-2.044.43-.255.92-.543 1.496-1.03.911-.769 1.354-1.481 1.57-2.108-.07.086-.144.169-.226.246-.784.735-2.06 1.051-3.796.945-.77.142-.857.562-.975 1.488-.107.842-.24 1.89-1.16 2.98a.261.261 0 0 1-.371.031.264.264 0 0 1-.032-.371c.82-.972.942-1.934 1.04-2.706.069-.537.136-1.055.44-1.43a5.778 5.778 0 0 0-.783.103c-.674.28-.703.634-.754 1.273-.035.428-.078.96-.364 1.55a.263.263 0 0 1-.352.121.264.264 0 0 1-.122-.353c.243-.5.28-.956.312-1.36.023-.282.046-.558.135-.813-1.014.587-1.173 1.451-1.183 1.509a.264.264 0 0 1-.52-.087c.13-.775.845-1.924 2.656-2.331l.007-.004a.26.26 0 0 1 .095-.02 7.292 7.292 0 0 1 1.929-.109c1.58.104 2.768-.173 3.437-.8.372-.35.529-.748.586-1.09H.555a.351.351 0 0 1 0-.704h10.34v-4.783l-2.82-1.629c-.22.216-.492.38-.794.472a2 2 0 1 1 1.144-2.8 1.936 1.936 0 0 1 .177 1.413l2.292 1.326v-2.63zm6.213 1.392a1.12 1.12 0 0 0-1.938-1.12l.03.018a1.062 1.062 0 0 0 .002 1.07 1.07 1.07 0 0 0 1.85 0l.056.032zm-10.122.469a1.12 1.12 0 1 0-1.281-.45l.086-.05a1.068 1.068 0 0 0 1.195.5zm5.405-3.194a1.12 1.12 0 1 0-1.912-.016l.016-.01a1.07 1.07 0 0 0 1.852 0l.044.026zM2 8.48a1.12 1.12 0 1 0 0-2.24 1.12 1.12 0 0 0 0 2.24zM2 14a1.12 1.12 0 1 0 0-2.24A1.12 1.12 0 0 0 2 14zm4.72-8.16a1.12 1.12 0 1 0 0-2.24 1.12 1.12 0 0 0 0 2.24zm4.72-2.72a1.12 1.12 0 1 0 0-2.24 1.12 1.12 0 0 0 0 2.24zm0 5.36a1.12 1.12 0 1 0 0-2.24 1.12 1.12 0 0 0 0 2.24zm-4.72 2.8a1.12 1.12 0 1 0 0-2.24 1.12 1.12 0 0 0 0 2.24zm9.36-5.52a1.12 1.12 0 1 0 0-2.24 1.12 1.12 0 0 0 0 2.24zm4.72 2.8a1.12 1.12 0 1 0 0-2.24 1.12 1.12 0 0 0 0 2.24zm0 5.36a1.12 1.12 0 1 0 0-2.24 1.12 1.12 0 0 0 0 2.24zm-4.72-2.64a1.12 1.12 0 1 0 0-2.24 1.12 1.12 0 0 0 0 2.24zm0 5.36a1.12 1.12 0 1 0 0-2.24 1.12 1.12 0 0 0 0 2.24zm4.72 2.8a1.12 1.12 0 1 0 0-2.24 1.12 1.12 0 0 0 0 2.24zM6.72 16.72a1.12 1.12 0 1 0 0-2.24 1.12 1.12 0 0 0 0 2.24zM2 19.44a1.12 1.12 0 1 0 0-2.24 1.12 1.12 0 0 0 0 2.24zM36.18 4.56v-.68H31.3v.68h2.06V11h.76V4.56h2.06zM41.93 11v-.68h-3.66V7.75h3.12v-.68h-3.12V4.56h3.66v-.68h-4.42V11h4.42zm6.47 0V3.88h-4.89V11h.76V4.56h3.37V11h.76zm6.78 0V3.88h-3.92v2.89c0 2.96-.63 3.55-1.51 3.55h-.19V11h.36C51.28 11 52 10 52 7V4.56h2.42V11h.76zm7.16 0V3.88h-.72L58 9.68v-5.8h-.76V11h.72l3.62-5.81V11h.76zm7.8 1.72v-2.4h-.85V3.88h-.76v6.44h-3.37V3.88h-.76V11h4.99v1.72h.75zm6.4-1.72l-2.61-7.12h-.64L70.67 11h.81l.57-1.61h3.11l.57 1.61h.81zm-1.6-2.27h-2.66l1.34-3.76 1.32 3.76zM36.72 20.04h-.76c-.19.87-.82 1.44-1.71 1.44-.47 0-.92-.18-1.23-.5-.45-.46-.5-.95-.5-2.44s.05-1.98.5-2.44c.31-.32.76-.5 1.23-.5.89 0 1.5.57 1.69 1.44h.78c-.24-1.34-1.19-2.12-2.47-2.12-.7 0-1.34.26-1.82.74-.67.67-.67 1.37-.67 2.88 0 1.51 0 2.21.67 2.88.48.48 1.12.74 1.82.74 1.27 0 2.24-.78 2.47-2.12zm6.19-1.99c0-.87-.05-1.77-.67-2.39-.48-.48-1.12-.74-1.82-.74s-1.34.26-1.82.74c-.61.61-.67 1.48-.67 2.33v.55c0 1.42.02 2.23.67 2.88.48.48 1.11.74 1.82.74s1.34-.26 1.82-.74c.65-.65.67-1.46.67-2.88v-.49zm-.76.84c0 .82-.01 1.59-.5 2.08-.33.33-.76.51-1.23.51s-.9-.18-1.23-.51c-.46-.46-.5-1.16-.5-1.93v-.71c0-.98 0-1.72.5-2.22.33-.33.77-.51 1.23-.51.46 0 .9.18 1.23.51.47.47.5 1.21.5 2.05v.73zm8.29 4.93v-2.4h-.85v-6.44h-.76v6.44h-3.37v-6.44h-.76v7.12h4.99v1.72h.75zm6.54-1.72v-7.12h-.72l-3.62 5.8v-5.8h-.76v7.12h.72l3.62-5.81v5.81h.76zm7.02 0l-2.61-7.12h-.64l-2.62 7.12h.81l.57-1.61h3.11l.57 1.61H64zm-1.6-2.27h-2.66l1.34-3.76 1.32 3.76zm7.46 2.27v-7.12h-3.92v2.89c0 2.96-.63 3.55-1.51 3.55h-.19v.68h.36c1.36 0 2.08-1 2.08-4v-2.44h2.42v6.44h.76zm6.93-2.09c0-1.26-.87-2.1-2.2-2.1h-1.91v-2.93h-.76v7.12h2.67c1.32 0 2.2-.84 2.2-2.09zm-.77 0c0 .89-.55 1.41-1.5 1.41h-1.84v-2.83h1.84c.95 0 1.5.52 1.5 1.42zm7.1 2.09v-7.12h-.76v3.19h-3.38v-3.19h-.76v7.12h.76v-3.25h3.38v3.25h.76zm8.64 0v-7.12H91v7.12h.76zm-1.71-2.09c0-1.26-.87-2.1-2.2-2.1h-1.91v-2.93h-.76v7.12h2.67c1.32 0 2.2-.84 2.2-2.09zm-.77 0c0 .89-.55 1.41-1.5 1.41h-1.84v-2.83h1.84c.95 0 1.5.52 1.5 1.42zm8.87 2.09l-2.2-3.65L98 14.98h-.88l-1.58 2.81-1.58-2.81h-.88l2.04 3.47-2.18 3.65h.86l1.74-2.99 1.73 2.99h.88zM36.18 27.56v-.68H31.3v.68h2.06V34h.76v-6.44h2.06zM41.93 34v-.68h-3.66v-2.57h3.12v-.68h-3.12v-2.51h3.66v-.68h-4.42V34h4.42zm5.91 0l-2.2-3.65 2.05-3.47h-.88l-1.58 2.81-1.58-2.81h-.88l2.04 3.47L42.63 34h.86l1.74-2.99L46.96 34h.88zm6.08 0v-7.12h-.76v3.19h-3.38v-3.19h-.76V34h.76v-3.25h3.38V34h.76zm6.77-4.05c0-.87-.05-1.77-.67-2.39-.48-.48-1.12-.74-1.82-.74s-1.34.26-1.82.74c-.61.61-.67 1.48-.67 2.33v.55c0 1.42.02 2.23.67 2.88.48.48 1.11.74 1.82.74s1.34-.26 1.82-.74c.65-.65.67-1.46.67-2.88v-.49zm-.76.84c0 .82-.01 1.59-.5 2.08-.33.33-.76.51-1.23.51s-.9-.18-1.23-.51c-.46-.46-.5-1.16-.5-1.93v-.71c0-.98 0-1.72.5-2.22.33-.33.77-.51 1.23-.51.46 0 .9.18 1.23.51.47.47.5 1.21.5 2.05v.73zM66.99 34v-7.12h-3.92v2.89c0 2.96-.63 3.55-1.51 3.55h-.19V34h.36c1.36 0 2.08-1 2.08-4v-2.44h2.42V34h.76zm6.77-4.05c0-.87-.05-1.77-.67-2.39-.48-.48-1.12-.74-1.82-.74s-1.34.26-1.82.74c-.61.61-.67 1.48-.67 2.33v.55c0 1.42.02 2.23.67 2.88.48.48 1.11.74 1.82.74s1.34-.26 1.82-.74c.65-.65.67-1.46.67-2.88v-.49zm-.76.84c0 .82-.01 1.59-.5 2.08-.33.33-.76.51-1.23.51s-.9-.18-1.23-.51c-.46-.46-.5-1.16-.5-1.93v-.71c0-.98 0-1.72.5-2.22.33-.33.77-.51 1.23-.51.46 0 .9.18 1.23.51.47.47.5 1.21.5 2.05v.73zm6.9-3.23v-.68h-4.28V34h.76v-6.44h3.52zM86.34 34v-7.12h-.72L82 32.68v-5.8h-.76V34h.72l3.62-5.81V34h.76zm7.16 0v-7.12h-.72l-3.62 5.8v-5.8h-.76V34h.72l3.62-5.81V34h.76zm-1.09-8.83h-.64c-.04.49-.33.74-.82.74-.49 0-.78-.25-.82-.74h-.64c.06.89.63 1.26 1.46 1.26s1.4-.37 1.46-1.26z"/></g></symbol><symbol id="icon-facebook" viewBox="0 0 15 32"><path d="M14.66 10.216H9.667V6.94c0-1.23.815-1.516 1.39-1.516h3.523V.019L9.727 0C4.341 0 3.115 4.032 3.115 6.612v3.604H0v5.57h3.115V31.55h6.552V15.786h4.421l.572-5.57z"/></symbol><symbol id="icon-instagram" viewBox="0 0 20 20"><path d="M5.8 0h8.4C17.4 0 20 2.6 20 5.8v8.4a5.8 5.8 0 0 1-5.8 5.8H5.8C2.6 20 0 17.4 0 14.2V5.8A5.8 5.8 0 0 1 5.8 0zm-.2 2A3.6 3.6 0 0 0 2 5.6v8.8C2 16.39 3.61 18 5.6 18h8.8a3.6 3.6 0 0 0 3.6-3.6V5.6C18 3.61 16.39 2 14.4 2H5.6zm9.65 1.5a1.25 1.25 0 1 1 0 2.5 1.25 1.25 0 0 1 0-2.5zM10 5a5 5 0 1 1 0 10 5 5 0 0 1 0-10zm0 2a3 3 0 1 0 0 6 3 3 0 0 0 0-6z"/></symbol><symbol id="icon-logo" viewBox="0 0 89 90"><path d="M44.944 20.988c5.032 0 9.709 1.557 13.572 4.214l14.289-14.289C64.963 4.479 55.223.98 44.944.98c-10.56 0-20.549 3.695-28.499 10.47l14.242 14.241a23.884 23.884 0 0 1 14.257-4.703zM20.932 45.001a23.89 23.89 0 0 1 5.095-14.773L11.815 16.016C4.772 24.042.924 34.225.924 45.001c0 11.138 4.111 21.641 11.61 29.785l14.178-14.179a23.901 23.901 0 0 1-5.78-15.606zm24.012 24.012a23.888 23.888 0 0 1-13.367-4.073l-14.302 14.3c7.809 6.336 17.474 9.78 27.669 9.78 9.912 0 19.325-3.255 27.017-9.257L57.598 65.4a23.874 23.874 0 0 1-12.654 3.613zm32.577-53.619L63.336 29.58a23.905 23.905 0 0 1 5.621 15.421c0 6.252-2.402 11.952-6.332 16.23l14.162 14.162C84.647 67.168 88.965 56.415 88.965 45c0-11.055-4.049-21.487-11.444-29.606z"/></symbol><symbol id="icon-mail" viewBox="0 0 20 20"><path d="M2 8l8 5 8-5-8-5-8 5zm18 0v10a2 2 0 0 1-2 2H2a2 2 0 0 1-2-2V8c0-.73.39-1.36.97-1.71L10 .64l9.03 5.65c.58.35.97.98.97 1.71z"/></symbol><symbol id="icon-marker" viewBox="0 0 14 20"><path d="M7 9.5a2.5 2.5 0 1 1 0-5 2.5 2.5 0 0 1 0 5zM7 0a7 7 0 0 0-7 7c0 5.25 7 13 7 13s7-7.75 7-13a7 7 0 0 0-7-7z"/></symbol><symbol id="icon-menu" viewBox="0 0 24 21"><path d="M23.244 16.009H.75c-.413 0-.75.36-.75.801v3.421c0 .423.337.769.75.769h22.494c.414 0 .75-.346.75-.77v-3.42c0-.441-.336-.801-.75-.801zm0-8H.75c-.413 0-.75.36-.75.801v3.421A.76.76 0 0 0 .75 13h22.494a.76.76 0 0 0 .75-.769V8.81c0-.441-.336-.801-.75-.801zm0-8H.75C.337.009 0 .369 0 .81v3.42c0 .423.337.769.75.769h22.494a.76.76 0 0 0 .75-.769V.81c0-.441-.336-.801-.75-.801z"/></symbol><symbol id="icon-next" viewBox="0 0 15 24"><path d="M3 0L.17 2.83 9.34 12 .17 21.17 3 24l12-12L3 0z"/></symbol><symbol id="icon-ok" viewBox="0 0 19 32"><path d="M9.25 4.83a3.416 3.416 0 0 1 3.413 3.414c0 1.88-1.53 3.41-3.413 3.41a3.417 3.417 0 0 1-3.413-3.41A3.418 3.418 0 0 1 9.25 4.83zm0 11.654c4.547 0 8.243-3.696 8.243-8.24C17.493 3.698 13.797 0 9.25 0 4.705 0 1.008 3.698 1.008 8.244c0 4.544 3.697 8.24 8.242 8.24zm3.335 6.724a15.434 15.434 0 0 0 4.786-1.983 2.415 2.415 0 0 0 .757-3.33 2.413 2.413 0 0 0-3.33-.76 10.465 10.465 0 0 1-11.097 0 2.412 2.412 0 0 0-3.33.76 2.414 2.414 0 0 0 .757 3.33c1.49.935 3.108 1.6 4.786 1.983l-4.608 4.608a2.415 2.415 0 0 0 3.417 3.414l4.526-4.528 4.53 4.528c.942.943 2.47.943 3.414 0a2.413 2.413 0 0 0 0-3.414l-4.608-4.608z"/></symbol><symbol id="icon-prev" viewBox="0 0 15 25"><path d="M14.83 21.67L5.66 12.5l9.17-9.17L12 .5l-12 12 12 12 2.83-2.83z"/></symbol><symbol id="icon-search" viewBox="0 0 18 18"><path d="M11 0a6.5 6.5 0 0 0-6.5 6.5c0 1.61.59 3.09 1.56 4.23l-.27.27H5l-5 5 1.5 1.5 5-5v-.79l.27-.27C7.91 12.41 9.39 13 11 13a6.5 6.5 0 1 0 0-13zm0 2c2.5 0 4.5 2 4.5 4.5S13.5 11 11 11 6.5 9 6.5 6.5 8.5 2 11 2z"/></symbol><symbol id="icon-te-st" viewBox="0 0 99 40"><g><path d="M10.895 20.245a2 2 0 0 1-1.4-2.394l-1.394-.805c-.359.343-.845.554-1.381.554a1.994 1.994 0 0 1-1.42-.592l-1.369.79A2.003 2.003 0 0 1 2 20.32a2 2 0 1 1 1.347-3.479l1.418-.818a2 2 0 0 1 3.33-1.875l2.785-1.607V9.28a1.998 1.998 0 0 1-.828-.481l-1.392.87a2 2 0 1 1-3.885.027l-1.451-.838a1.996 1.996 0 0 1-.764.422v1.678a2 2 0 1 1-1.12 0V9.281A2 2 0 1 1 3.428 5.96l1.333-.833a2 2 0 1 1 .528.99l-1.331.833a2.009 2.009 0 0 1-.035.962l1.406.811c.36-.348.85-.563 1.391-.563.53 0 1.013.207 1.371.544l1.404-.877a2.005 2.005 0 0 1 1.465-2.409V3.942A2 2 0 1 1 12 3.921v1.518a2 2 0 0 1 0 3.842v3.306l2.653 1.532c.256-.26.582-.451.947-.541v-1.476a2 2 0 1 1 1.85-3.399l1.389-.868a2.01 2.01 0 0 1 .022-.888l-1.434-.828a2 2 0 1 1 .584-.956l1.42.82a2 2 0 1 1 1.93 3.378l-.001 1.518a2 2 0 1 1-1.04-.021V9.382a1.998 1.998 0 0 1-.959-.553l-1.342.84a2.004 2.004 0 0 1-1.379 2.412v1.518a2 2 0 0 1 1.366 2.462l1.41.815a2 2 0 1 1-.56.97l-1.444-.834a2 2 0 0 1-3.29-1.906l-2.722-1.572-2.74 1.581a2.004 2.004 0 0 1 .003.962l1.39.802a2 2 0 1 1 1.896 3.375v2.62l2.279-1.317a2.003 2.003 0 0 1 1.932-2.517 2 2 0 1 1-1.4 3.428l-2.811 1.624v4.783h10.34a.352.352 0 0 1 0 .703H11.985c.182 1.334 1.447 1.512 3.42 1.674 1.924.157 4.103.336 4.69 2.502a.264.264 0 0 1-.255.334.263.263 0 0 1-.254-.196c-.442-1.632-2.03-1.917-3.685-2.068.045.05.087.101.126.155.316.427.81.626 1.334.836.656.264 1.334.537 1.641 1.286a.264.264 0 1 1-.487.2c-.223-.543-.745-.753-1.35-.996a7.767 7.767 0 0 1-.682-.301c.065.246.117.496.166.74.088.44.171.858.331 1.208a.264.264 0 0 1-.48.22c-.185-.406-.278-.873-.368-1.324-.216-1.08-.403-2.012-1.693-2.154l-.01-.002c-.915-.103-1.768-.285-2.327-.776.262.613.652 1.061 1.035 1.499.158.181.318.364.467.558l.009.007c.157.204.34.377.535.562.26.245.532.504.754.852.005.007.01.012.014.02.293.466 1.156 1.418 1.703 1.727a.264.264 0 0 1-.258.46c-.308-.174-.677-.497-1.015-.844.032.325.032.694-.014 1.127a.263.263 0 0 1-.262.236l-.028-.001a.264.264 0 0 1-.234-.29c.128-1.21-.109-1.851-.471-2.324.16.822.056 1.91-.553 3.493a.264.264 0 1 1-.492-.19c1.18-3.065.378-3.983-.551-5.045-.368-.422-.761-.873-1.05-1.477.083 1.033.216 1.881.332 2.616.35 2.212.56 3.548-1.174 5.988a.262.262 0 0 1-.367.062.264.264 0 0 1-.062-.368c1.274-1.793 1.422-2.909 1.26-4.363-.107.186-.233.341-.357.494-.329.407-.64.793-.575 1.874a.264.264 0 0 1-.247.28h-.016a.264.264 0 0 1-.263-.248c-.078-1.286.331-1.791.692-2.238.36-.445.67-.829.483-2.083a28.944 28.944 0 0 1-.222-1.844c-.283.577-.751 1.206-1.528 1.862-.928.782-.676 1.636-.385 2.623.19.647.388 1.316.265 2.011a.263.263 0 1 1-.519-.091c.1-.574-.078-1.182-.251-1.77a9.547 9.547 0 0 1-.216-.822l-.067.31c-.195.912-.396 1.856-1.619 2.658a.264.264 0 0 1-.288-.441c1.04-.683 1.203-1.444 1.391-2.327.082-.383.17-.79.343-1.202l-.223.132c-.772.458-1.198.709-1.369 1.68a.263.263 0 1 1-.519-.09c.213-1.212.803-1.56 1.62-2.044.43-.255.92-.543 1.496-1.03.911-.769 1.354-1.481 1.57-2.108-.07.086-.144.169-.226.246-.784.735-2.06 1.051-3.796.945-.77.142-.857.562-.975 1.488-.107.842-.24 1.89-1.16 2.98a.261.261 0 0 1-.371.031.264.264 0 0 1-.032-.371c.82-.972.942-1.934 1.04-2.706.069-.537.136-1.055.44-1.43a5.778 5.778 0 0 0-.783.103c-.674.28-.703.634-.754 1.273-.035.428-.078.96-.364 1.55a.263.263 0 0 1-.352.121.264.264 0 0 1-.122-.353c.243-.5.28-.956.312-1.36.023-.282.046-.558.135-.813-1.014.587-1.173 1.451-1.183 1.509a.264.264 0 0 1-.52-.087c.13-.775.845-1.924 2.656-2.331l.007-.004a.26.26 0 0 1 .095-.02 7.292 7.292 0 0 1 1.929-.109c1.58.104 2.768-.173 3.437-.8.372-.35.529-.748.586-1.09H.555a.351.351 0 0 1 0-.704h10.34v-4.783l-2.82-1.629c-.22.216-.492.38-.794.472a2 2 0 1 1 1.144-2.8 1.936 1.936 0 0 1 .177 1.413l2.292 1.326v-2.63zm6.213 1.392a1.12 1.12 0 0 0-1.938-1.12l.03.018a1.062 1.062 0 0 0 .002 1.07 1.07 1.07 0 0 0 1.85 0l.056.032zm-10.122.469a1.12 1.12 0 1 0-1.281-.45l.086-.05a1.068 1.068 0 0 0 1.195.5zm5.405-3.194a1.12 1.12 0 1 0-1.912-.016l.016-.01a1.07 1.07 0 0 0 1.852 0l.044.026zM2 8.48a1.12 1.12 0 1 0 0-2.24 1.12 1.12 0 0 0 0 2.24zM2 14a1.12 1.12 0 1 0 0-2.24A1.12 1.12 0 0 0 2 14zm4.72-8.16a1.12 1.12 0 1 0 0-2.24 1.12 1.12 0 0 0 0 2.24zm4.72-2.72a1.12 1.12 0 1 0 0-2.24 1.12 1.12 0 0 0 0 2.24zm0 5.36a1.12 1.12 0 1 0 0-2.24 1.12 1.12 0 0 0 0 2.24zm-4.72 2.8a1.12 1.12 0 1 0 0-2.24 1.12 1.12 0 0 0 0 2.24zm9.36-5.52a1.12 1.12 0 1 0 0-2.24 1.12 1.12 0 0 0 0 2.24zm4.72 2.8a1.12 1.12 0 1 0 0-2.24 1.12 1.12 0 0 0 0 2.24zm0 5.36a1.12 1.12 0 1 0 0-2.24 1.12 1.12 0 0 0 0 2.24zm-4.72-2.64a1.12 1.12 0 1 0 0-2.24 1.12 1.12 0 0 0 0 2.24zm0 5.36a1.12 1.12 0 1 0 0-2.24 1.12 1.12 0 0 0 0 2.24zm4.72 2.8a1.12 1.12 0 1 0 0-2.24 1.12 1.12 0 0 0 0 2.24zM6.72 16.72a1.12 1.12 0 1 0 0-2.24 1.12 1.12 0 0 0 0 2.24zM2 19.44a1.12 1.12 0 1 0 0-2.24 1.12 1.12 0 0 0 0 2.24zM36.18 4.56v-.68H31.3v.68h2.06V11h.76V4.56h2.06zM41.93 11v-.68h-3.66V7.75h3.12v-.68h-3.12V4.56h3.66v-.68h-4.42V11h4.42zm6.47 0V3.88h-4.89V11h.76V4.56h3.37V11h.76zm6.78 0V3.88h-3.92v2.89c0 2.96-.63 3.55-1.51 3.55h-.19V11h.36C51.28 11 52 10 52 7V4.56h2.42V11h.76zm7.16 0V3.88h-.72L58 9.68v-5.8h-.76V11h.72l3.62-5.81V11h.76zm7.8 1.72v-2.4h-.85V3.88h-.76v6.44h-3.37V3.88h-.76V11h4.99v1.72h.75zm6.4-1.72l-2.61-7.12h-.64L70.67 11h.81l.57-1.61h3.11l.57 1.61h.81zm-1.6-2.27h-2.66l1.34-3.76 1.32 3.76zM36.72 20.04h-.76c-.19.87-.82 1.44-1.71 1.44-.47 0-.92-.18-1.23-.5-.45-.46-.5-.95-.5-2.44s.05-1.98.5-2.44c.31-.32.76-.5 1.23-.5.89 0 1.5.57 1.69 1.44h.78c-.24-1.34-1.19-2.12-2.47-2.12-.7 0-1.34.26-1.82.74-.67.67-.67 1.37-.67 2.88 0 1.51 0 2.21.67 2.88.48.48 1.12.74 1.82.74 1.27 0 2.24-.78 2.47-2.12zm6.19-1.99c0-.87-.05-1.77-.67-2.39-.48-.48-1.12-.74-1.82-.74s-1.34.26-1.82.74c-.61.61-.67 1.48-.67 2.33v.55c0 1.42.02 2.23.67 2.88.48.48 1.11.74 1.82.74s1.34-.26 1.82-.74c.65-.65.67-1.46.67-2.88v-.49zm-.76.84c0 .82-.01 1.59-.5 2.08-.33.33-.76.51-1.23.51s-.9-.18-1.23-.51c-.46-.46-.5-1.16-.5-1.93v-.71c0-.98 0-1.72.5-2.22.33-.33.77-.51 1.23-.51.46 0 .9.18 1.23.51.47.47.5 1.21.5 2.05v.73zm8.29 4.93v-2.4h-.85v-6.44h-.76v6.44h-3.37v-6.44h-.76v7.12h4.99v1.72h.75zm6.54-1.72v-7.12h-.72l-3.62 5.8v-5.8h-.76v7.12h.72l3.62-5.81v5.81h.76zm7.02 0l-2.61-7.12h-.64l-2.62 7.12h.81l.57-1.61h3.11l.57 1.61H64zm-1.6-2.27h-2.66l1.34-3.76 1.32 3.76zm7.46 2.27v-7.12h-3.92v2.89c0 2.96-.63 3.55-1.51 3.55h-.19v.68h.36c1.36 0 2.08-1 2.08-4v-2.44h2.42v6.44h.76zm6.93-2.09c0-1.26-.87-2.1-2.2-2.1h-1.91v-2.93h-.76v7.12h2.67c1.32 0 2.2-.84 2.2-2.09zm-.77 0c0 .89-.55 1.41-1.5 1.41h-1.84v-2.83h1.84c.95 0 1.5.52 1.5 1.42zm7.1 2.09v-7.12h-.76v3.19h-3.38v-3.19h-.76v7.12h.76v-3.25h3.38v3.25h.76zm8.64 0v-7.12H91v7.12h.76zm-1.71-2.09c0-1.26-.87-2.1-2.2-2.1h-1.91v-2.93h-.76v7.12h2.67c1.32 0 2.2-.84 2.2-2.09zm-.77 0c0 .89-.55 1.41-1.5 1.41h-1.84v-2.83h1.84c.95 0 1.5.52 1.5 1.42zm8.87 2.09l-2.2-3.65L98 14.98h-.88l-1.58 2.81-1.58-2.81h-.88l2.04 3.47-2.18 3.65h.86l1.74-2.99 1.73 2.99h.88zM36.18 27.56v-.68H31.3v.68h2.06V34h.76v-6.44h2.06zM41.93 34v-.68h-3.66v-2.57h3.12v-.68h-3.12v-2.51h3.66v-.68h-4.42V34h4.42zm5.91 0l-2.2-3.65 2.05-3.47h-.88l-1.58 2.81-1.58-2.81h-.88l2.04 3.47L42.63 34h.86l1.74-2.99L46.96 34h.88zm6.08 0v-7.12h-.76v3.19h-3.38v-3.19h-.76V34h.76v-3.25h3.38V34h.76zm6.77-4.05c0-.87-.05-1.77-.67-2.39-.48-.48-1.12-.74-1.82-.74s-1.34.26-1.82.74c-.61.61-.67 1.48-.67 2.33v.55c0 1.42.02 2.23.67 2.88.48.48 1.11.74 1.82.74s1.34-.26 1.82-.74c.65-.65.67-1.46.67-2.88v-.49zm-.76.84c0 .82-.01 1.59-.5 2.08-.33.33-.76.51-1.23.51s-.9-.18-1.23-.51c-.46-.46-.5-1.16-.5-1.93v-.71c0-.98 0-1.72.5-2.22.33-.33.77-.51 1.23-.51.46 0 .9.18 1.23.51.47.47.5 1.21.5 2.05v.73zM66.99 34v-7.12h-3.92v2.89c0 2.96-.63 3.55-1.51 3.55h-.19V34h.36c1.36 0 2.08-1 2.08-4v-2.44h2.42V34h.76zm6.77-4.05c0-.87-.05-1.77-.67-2.39-.48-.48-1.12-.74-1.82-.74s-1.34.26-1.82.74c-.61.61-.67 1.48-.67 2.33v.55c0 1.42.02 2.23.67 2.88.48.48 1.11.74 1.82.74s1.34-.26 1.82-.74c.65-.65.67-1.46.67-2.88v-.49zm-.76.84c0 .82-.01 1.59-.5 2.08-.33.33-.76.51-1.23.51s-.9-.18-1.23-.51c-.46-.46-.5-1.16-.5-1.93v-.71c0-.98 0-1.72.5-2.22.33-.33.77-.51 1.23-.51.46 0 .9.18 1.23.51.47.47.5 1.21.5 2.05v.73zm6.9-3.23v-.68h-4.28V34h.76v-6.44h3.52zM86.34 34v-7.12h-.72L82 32.68v-5.8h-.76V34h.72l3.62-5.81V34h.76zm7.16 0v-7.12h-.72l-3.62 5.8v-5.8h-.76V34h.72l3.62-5.81V34h.76zm-1.09-8.83h-.64c-.04.49-.33.74-.82.74-.49 0-.78-.25-.82-.74h-.64c.06.89.63 1.26 1.46 1.26s1.4-.37 1.46-1.26z"/></g></symbol><symbol id="icon-telegram" viewBox="0 0 32 27"><path d="M29.84.177L1.494 11.11c-1.935.777-1.923 1.856-.353 2.337l7.07 2.206 2.705 8.294c.329.907.166 1.267 1.12 1.267.735 0 1.061-.335 1.471-.735.26-.255 1.808-1.76 3.535-3.438l7.353 5.433c1.353.746 2.33.36 2.667-1.257L31.89 2.47c.494-1.981-.756-2.88-2.05-2.293zM9.32 15.147L25.255 5.092c.795-.482 1.525-.223.926.309l-13.644 12.31-.532 5.667-2.685-8.233z"/></symbol><symbol id="icon-twitter" viewBox="0 0 32 26"><path d="M31.528 3.033a12.87 12.87 0 0 1-3.715 1.018A6.48 6.48 0 0 0 30.657.472a12.948 12.948 0 0 1-4.107 1.57 6.468 6.468 0 0 0-11.021 5.9A18.366 18.366 0 0 1 2.194 1.184a6.435 6.435 0 0 0-.875 3.252A6.465 6.465 0 0 0 4.197 9.82a6.45 6.45 0 0 1-2.93-.81v.082a6.473 6.473 0 0 0 5.189 6.343 6.503 6.503 0 0 1-2.922.11 6.475 6.475 0 0 0 6.042 4.492 12.976 12.976 0 0 1-8.033 2.77c-.522 0-1.037-.031-1.543-.091a18.304 18.304 0 0 0 9.916 2.906c11.898 0 18.403-9.856 18.403-18.404 0-.28-.005-.56-.018-.838a13.1 13.1 0 0 0 3.227-3.347z"/></symbol><symbol id="icon-up" viewBox="0 0 12 8"><path d="M1.41 8L6 3.41 10.59 8 12 6.58l-6-6-6 6L1.41 8z"/></symbol><symbol id="icon-viber" viewBox="0 0 31 31"><g><path d="M28.046 22.425c-.943-.759-1.951-1.44-2.943-2.136-1.978-1.39-3.788-1.498-5.264.738-.829 1.255-1.99 1.31-3.203.76-3.345-1.518-5.928-3.855-7.44-7.255-.67-1.504-.661-2.852.905-3.916.829-.563 1.664-1.229 1.597-2.458-.087-1.603-3.98-6.96-5.516-7.526C5.546.398 4.912.413 4.266.631.66 1.843-.831 4.807.598 8.317c4.265 10.47 11.771 17.76 22.103 22.208.59.254 1.244.355 1.575.446 2.352.024 5.108-2.243 5.904-4.492.766-2.164-.854-3.023-2.134-4.054zM16.46 1.706c7.554 1.161 11.038 4.753 12 12.36.089.703-.173 1.76.83 1.78 1.047.02.795-1.021.804-1.725C30.182 6.956 23.934.314 16.679.07c-.547.079-1.68-.378-1.75.85-.048.827.906.69 1.532.787z"/><path d="M17.938 3.792c-.726-.088-1.685-.43-1.855.578-.177 1.058.892.95 1.579 1.104 4.665 1.043 6.289 2.741 7.057 7.369.112.674-.11 1.724 1.036 1.55.85-.13.543-1.03.614-1.555.037-4.443-3.77-8.487-8.43-9.046z"/><path d="M18.367 7.425c-.485.012-.961.064-1.14.582-.267.775.296.96.87 1.052 1.913.307 2.92 1.436 3.111 3.344.052.518.38.938.881.878.693-.082.756-.7.735-1.285.034-2.144-2.39-4.623-4.457-4.571z"/></g></symbol><symbol id="icon-vk" viewBox="0 0 32 21"><path d="M.005 1.527c-.219-1.336 6.241-.509 6.241-.509s3.75 9.417 5.228 9.417c1.478 0 .766-7.985.766-7.985s-1.833-.478-1.833-1.21C10.407.51 12.24 0 12.24 0h5.393c.646 0 .903 1.05.903 1.75v8.558h1.478s1.316-2.115 2.354-4.263c1.038-2.149 2.3-5.027 2.3-5.027h6.267s1.15.032 1.013.986c-.186 1.299-4.356 7.466-5.228 9.576-.657 1.59 2.76 3.744 4.215 6.045.945 1.493 1.013 3.245 1.013 3.245h-7.445l-3.723-4.327s-.766-.318-1.368.127c-.603.446-.63 1.337-.63 1.337v2.863h-5.83s-4.461-1.527-8.239-8.208C.936 5.982.224 2.863.005 1.527z"/></symbol><symbol id="icon-whatsup" viewBox="0 0 32 32"><path d="M16.172 0C7.579 0 .614 6.965.614 15.558c0 2.939.815 5.688 2.232 8.033L.038 31.938l8.614-2.758a15.49 15.49 0 0 0 7.52 1.935c8.592 0 15.557-6.965 15.557-15.557C31.73 6.965 24.764 0 16.172 0zm0 28.637c-2.657 0-5.131-.797-7.197-2.163l-5.026 1.61 1.633-4.858a13.009 13.009 0 0 1-2.49-7.668c0-7.213 5.867-13.08 13.08-13.08 7.212 0 13.08 5.867 13.08 13.08 0 7.212-5.868 13.08-13.08 13.08zm-3.65-19.514c-.251-.608-.444-.628-.834-.647a8.936 8.936 0 0 0-.436-.012c-.502 0-1.022.147-1.335.468-.382.39-1.335 1.304-1.335 3.18 0 1.877 1.367 3.69 1.557 3.944.19.255 2.665 4.161 6.515 5.757 3.005 1.244 3.897 1.133 4.583.983.997-.217 2.25-.952 2.568-1.842.317-.89.317-1.654.222-1.813-.095-.159-.35-.254-.73-.445-.382-.19-2.258-1.113-2.607-1.24-.35-.128-.673-.089-.942.283-.37.514-.728 1.041-1.023 1.354-.232.246-.606.28-.927.144-.422-.18-1.61-.594-3.067-1.893-1.133-1.01-1.899-2.259-2.121-2.64-.223-.382-.02-.61.152-.817.195-.237.376-.407.566-.63.19-.222.297-.341.425-.596.127-.254.041-.517-.054-.708-.096-.19-.86-2.066-1.176-2.83z"/></symbol><symbol id="icon-youtube" viewBox="0 0 24 24"><path d="M10 16.5v-9l6 4.5m4-7.6c-.6-.2-4.3-.4-8-.4s-7.4.19-8 .38C2.44 4.9 2 8.4 2 12c0 3.59.44 7.1 2 7.61.6.2 4.3.39 8 .39s7.4-.19 8-.39c1.56-.51 2-4.02 2-7.61 0-3.6-.44-7.09-2-7.6z"/></symbol></svg>