<svg xmlns="http://www.w3.org/2000/svg"><symbol id="pic-bed" viewBox="0 0 84 75"><g fill="none" fill-rule="evenodd"><path d="M17.308 63.462a5.77 5.77 0 1 0 0 11.539 5.77 5.77 0 0 0 0-11.54zm0 8.653a2.882 2.882 0 0 1-2.885-2.884 2.882 2.882 0 0 1 2.885-2.885 2.882 2.882 0 0 1 2.884 2.885 2.882 2.882 0 0 1-2.884 2.884zM72.115 63.462a5.77 5.77 0 1 0 0 11.539 5.77 5.77 0 0 0 0-11.54zm0 8.653a2.882 2.882 0 0 1-2.884-2.884 2.882 2.882 0 0 1 2.884-2.885A2.882 2.882 0 0 1 75 69.231a2.882 2.882 0 0 1-2.885 2.884z" fill="#000"/><path fill="#000" d="M57.692 0v8.654h11.539V5.769h8.654v40.385H57.692V34.615H5.77v-5.769H0v37.5h5.77v-5.77h77.884V0z"/><ellipse fill="#DC471F" cx="67.788" cy="36.058" rx="7.212" ry="7.212"/></g></symbol><symbol id="icon-add-cal" viewBox="0 0 18 20"><path d="M16 18V6H2v12h14zM13 0h2v2h1a2 2 0 0 1 2 2v14a2 2 0 0 1-2 2H2a2 2 0 0 1-2-2V4c0-1.11.89-2 2-2h1V0h2v2h8V0zM8 8h2v3h3v2h-3v3H8v-3H5v-2h3V8z"/></symbol><symbol id="icon-close" viewBox="0 0 14 14"><path d="M14 1.41L12.59 0 7 5.59 1.41 0 0 1.41 5.59 7 0 12.59 1.41 14 7 8.41 12.59 14 14 12.59 8.41 7 14 1.41z"/></symbol><symbol id="pic-butterfly" viewBox="0 0 204 204"><g transform="translate(2 2)" fill="none" fill-rule="evenodd"><ellipse stroke="#FB7E11" stroke-width="3" cx="100" cy="100" rx="100" ry="100"/><g transform="rotate(8 -360.016 517.28)" fill="#FB7E11"><path d="M115.113 26.882l2.444.915-14.026 37.265-2.444-.915 14.026-37.265"/><path d="M120.23 36.29l2.185 1.425-21.838 33.32-2.185-1.424 21.838-33.32"/><path d="M96.076 80.445C13.87 53.825 74.492 11.323 74.492 11.323c34.814 19.794 29.652 48.599 24.817 61.897C105.107 57.804 112.06 23.284 71.188 0c0 0-70.963 50.551 24.514 81.16 0 0 .28-.48.734-1.367-.227.423-.36.652-.36.652z"/><path d="M12.576 112.725S8.337 45.182 66.662 69.796C-5.024 36.596.079 117.877.079 117.877c60.639 23.954 85.447-25.487 89.15-33.86-3.858 8.442-25.429 48.945-76.653 28.708z"/><path d="M56.39 78.418c-.873 0-1.772-.083-2.672-.25-2.865-.521-5.136-1.73-6.072-3.233-.457-.735-.586-1.52-.37-2.268.496-1.737 2.667-2.775 5.811-2.775.871 0 1.767.084 2.666.25 2.864.52 5.136 1.729 6.071 3.232.458.736.588 1.521.372 2.271-.495 1.737-2.666 2.773-5.805 2.773zm-3.304-5.922c-2.318 0-3.246.69-3.302.884-.004.343 1.313 1.666 4.405 2.229.746.136 1.486.206 2.2.206 2.138 0 3.223-.634 3.295-.884.008-.342-1.301-1.665-4.402-2.23a12.262 12.262 0 0 0-2.196-.205zM65.52 51.145c1.902-.508 4.171 1.83 5.077 5.217.902 3.386.096 6.54-1.809 7.043-1.897.504-4.167-1.836-5.07-5.22-.903-3.386-.096-6.54 1.802-7.04z"/><ellipse cx="101.017" cy="70.285" rx="3.696" ry="4.178"/><ellipse cx="97.723" cy="77.349" rx="3.161" ry="3.215"/><path d="M96.78 81.715c-.14 1.946-1.693 3.426-3.479 3.302-1.783-.122-3.126-1.805-2.987-3.751.136-1.944 1.693-3.429 3.479-3.301 1.783.12 3.119 1.8 2.987 3.75z"/><path d="M93.556 85.728c-.138 1.945-1.575 3.437-3.215 3.324-1.64-.115-2.86-1.787-2.722-3.733.132-1.946 1.573-3.437 3.21-3.324 1.642.113 2.86 1.785 2.727 3.733z"/><path d="M90.616 90.46c-.112 1.602-1.474 2.807-3.048 2.696-1.571-.106-2.755-1.49-2.648-3.084.114-1.6 1.481-2.806 3.048-2.7 1.575.11 2.757 1.49 2.648 3.089z"/><path d="M86.707 94.79c-.117 1.76-1.521 3.096-3.132 2.978-1.61-.109-2.82-1.625-2.697-3.38.12-1.758 1.527-3.09 3.138-2.984 1.61.111 2.817 1.625 2.691 3.386z"/><path d="M84.886 97.457c-.123 1.76-1.422 3.102-2.896 3-1.482-.102-2.582-1.61-2.459-3.37.12-1.759 1.42-3.098 2.902-2.996 1.473.104 2.573 1.612 2.453 3.366zM123.872 35.555a1.955 1.955 0 0 1-1.957 1.953 1.956 1.956 0 0 1-1.958-1.953c0-1.078.876-1.953 1.958-1.953 1.08 0 1.957.875 1.957 1.953zM118.48 27.49a1.955 1.955 0 0 1-1.956 1.954 1.956 1.956 0 0 1-1.959-1.953c0-1.078.878-1.953 1.959-1.953 1.08 0 1.957.875 1.957 1.953z"/></g></g></symbol><symbol id="icon-down" viewBox="0 0 12 8"><path d="M1.41.58L6 5.17 10.59.58 12 2 6 8 0 2 1.41.58z"/></symbol><symbol id="pic-donations" viewBox="0 0 82 75"><g fill="none" fill-rule="evenodd"><path d="M12.245 67.472h43.546c2.774 0 6.389 1.091 8.298 2.62l1.181.944c2.416 1.93 1.6 3.753-2.214 3.753H3.203c-3.814 0-4.188-1.821-1.303-3.753l1.41-.944c2.28-1.529 6.161-2.62 8.935-2.62z" fill="#000"/><path d="M11.885 70.008a26.088 26.088 0 0 1-3.825-13.64c0-14.473 11.733-26.206 26.205-26.206 14.473 0 26.205 11.733 26.205 26.206 0 4.997-1.398 9.666-3.803 13.64H11.885z" fill="#000"/><path d="M31.488 25.23c0-13.818 11.2-25.018 25.017-25.018s25.017 11.2 25.017 25.017c0 11.479-7.73 21.151-18.27 24.097-2.85-13.368-14.727-23.392-28.945-23.392-.947 0-1.883.044-2.805.13a25.85 25.85 0 0 1-.014-.835z" fill="#DC471F"/></g></symbol><symbol id="icon-facebook" viewBox="0 0 15 32"><path d="M14.66 10.216H9.667V6.94c0-1.23.815-1.516 1.39-1.516h3.523V.019L9.727 0C4.341 0 3.115 4.032 3.115 6.612v3.604H0v5.57h3.115V31.55h6.552V15.786h4.421l.572-5.57z"/></symbol><symbol id="pic-family" viewBox="0 0 46 74"><g fill="none" fill-rule="evenodd"><path d="M38.221 16.306H7.933A7.211 7.211 0 0 0 .72 23.518V37.94a7.211 7.211 0 0 0 7.212 7.211V74H19.47V56.692h-2.884v-11.54a6.492 6.492 0 0 1 6.49-6.49 6.492 6.492 0 0 1 6.49 6.49v11.54h-2.884V74H38.22V45.152a7.21 7.21 0 0 0 7.212-7.211V23.518a7.211 7.211 0 0 0-7.212-7.212zM23.078 37.22a6.49 6.49 0 1 1 .001-12.982 6.49 6.49 0 0 1 0 12.982z" fill="#000"/><circle fill="#000" cx="15.144" cy="7.652" r="7.212"/><circle fill="#DC471F" cx="31.01" cy="7.652" r="7.212"/></g></symbol><symbol id="pic-group" viewBox="0 0 75 75"><g fill="none" fill-rule="evenodd"><path d="M64.736 18.739c1.623-2.376 1.39-5.649-.72-7.756a6.066 6.066 0 0 0-4.317-1.79 6.054 6.054 0 0 0-3.441 1.069 32.893 32.893 0 0 0-12.762-5.296C42.96 2.142 40.477 0 37.501 0c-2.977 0-5.46 2.143-5.996 4.966a32.893 32.893 0 0 0-12.761 5.296 6.059 6.059 0 0 0-3.441-1.068 6.069 6.069 0 0 0-4.319 1.79c-2.107 2.106-2.34 5.379-.719 7.755a32.907 32.907 0 0 0-5.298 12.764C2.142 32.04 0 34.523 0 37.499c0 2.977 2.143 5.46 4.966 5.996a32.912 32.912 0 0 0 5.298 12.765c-1.622 2.376-1.388 5.649.72 7.757a6.065 6.065 0 0 0 4.317 1.788 6.053 6.053 0 0 0 3.441-1.067 32.9 32.9 0 0 0 12.762 5.296C32.04 72.857 34.523 75 37.499 75c2.977 0 5.46-2.143 5.996-4.966a32.893 32.893 0 0 0 12.761-5.296 6.058 6.058 0 0 0 3.441 1.067 6.068 6.068 0 0 0 4.319-1.788c2.106-2.107 2.34-5.38.719-7.757a32.895 32.895 0 0 0 5.298-12.765c2.823-.537 4.966-3.02 4.966-5.996.001-2.976-2.141-5.46-4.965-5.996a32.907 32.907 0 0 0-5.298-12.764zm-3.117 42.88c-1.026 1.024-2.815 1.024-3.841 0a2.719 2.719 0 0 1 1.92-4.637 2.7 2.7 0 0 1 1.921.796 2.72 2.72 0 0 1 0 3.841zm-21.403 7.274A2.719 2.719 0 0 1 37.5 71.61a2.719 2.719 0 0 1-2.716-2.716 2.719 2.719 0 0 1 2.716-2.715 2.719 2.719 0 0 1 2.715 2.715zM13.38 61.62a2.72 2.72 0 0 1 0-3.841 2.7 2.7 0 0 1 1.92-.796 2.719 2.719 0 0 1 1.92 4.637c-1.024 1.024-2.813 1.024-3.84 0zM3.39 37.5a2.72 2.72 0 0 1 2.716-2.716 2.72 2.72 0 0 1 2.715 2.716 2.719 2.719 0 0 1-2.715 2.716 2.719 2.719 0 0 1-2.716-2.716zm9.989-24.118a2.7 2.7 0 0 1 1.92-.796c.725 0 1.408.283 1.92.797.514.513.797 1.195.797 1.92 0 .726-.283 1.408-.796 1.921-1.027 1.025-2.815 1.025-3.841 0a2.722 2.722 0 0 1 0-3.842zm21.404-7.274A2.72 2.72 0 0 1 37.5 3.39a2.72 2.72 0 0 1 2.716 2.717 2.72 2.72 0 0 1-2.716 2.716 2.72 2.72 0 0 1-2.715-2.716zM59.7 12.585a2.719 2.719 0 0 1 1.92 4.637c-1.026 1.025-2.815 1.026-3.841 0a2.697 2.697 0 0 1-.796-1.92c0-.725.283-1.407.796-1.92a2.694 2.694 0 0 1 1.92-.797zm0 41.006a6.069 6.069 0 0 0-4.319 1.79c-1.817 1.817-2.237 4.502-1.278 6.732a29.553 29.553 0 0 1-10.928 4.535c-.897-2.258-3.1-3.861-5.673-3.861-2.574 0-4.776 1.603-5.674 3.861a29.515 29.515 0 0 1-10.928-4.535c.959-2.23.54-4.915-1.278-6.733a6.066 6.066 0 0 0-4.318-1.789c-.847 0-1.664.179-2.418.505a29.546 29.546 0 0 1-4.531-10.922c2.258-.897 3.861-3.1 3.861-5.673a6.112 6.112 0 0 0-3.861-5.674 29.546 29.546 0 0 1 4.53-10.922 6.087 6.087 0 0 0 6.737-1.284 6.066 6.066 0 0 0 1.79-4.318c0-.847-.18-1.664-.506-2.42a29.546 29.546 0 0 1 10.922-4.53c.898 2.258 3.1 3.861 5.674 3.861 2.574 0 4.776-1.603 5.673-3.861a29.546 29.546 0 0 1 10.922 4.53 6.077 6.077 0 0 0-.505 2.42c0 1.63.636 3.165 1.79 4.318a6.066 6.066 0 0 0 4.318 1.79c.846 0 1.664-.18 2.418-.506a29.546 29.546 0 0 1 4.53 10.922c-2.257.898-3.861 3.1-3.861 5.674 0 2.574 1.603 4.776 3.861 5.673a29.546 29.546 0 0 1-4.53 10.922 6.068 6.068 0 0 0-2.418-.505z" fill="#000"/><circle fill="#DC471F" cx="68.5" cy="37.5" r="6.5"/></g></symbol><symbol id="icon-instagram" viewBox="0 0 20 20"><path d="M5.8 0h8.4C17.4 0 20 2.6 20 5.8v8.4a5.8 5.8 0 0 1-5.8 5.8H5.8C2.6 20 0 17.4 0 14.2V5.8A5.8 5.8 0 0 1 5.8 0zm-.2 2A3.6 3.6 0 0 0 2 5.6v8.8C2 16.39 3.61 18 5.6 18h8.8a3.6 3.6 0 0 0 3.6-3.6V5.6C18 3.61 16.39 2 14.4 2H5.6zm9.65 1.5a1.25 1.25 0 1 1 0 2.5 1.25 1.25 0 0 1 0-2.5zM10 5a5 5 0 1 1 0 10 5 5 0 0 1 0-10zm0 2a3 3 0 1 0 0 6 3 3 0 0 0 0-6z"/></symbol><symbol id="icon-logo" viewBox="0 0 89 90"><path d="M44.944 20.988c5.032 0 9.709 1.557 13.572 4.214l14.289-14.289C64.963 4.479 55.223.98 44.944.98c-10.56 0-20.549 3.695-28.499 10.47l14.242 14.241a23.884 23.884 0 0 1 14.257-4.703zM20.932 45.001a23.89 23.89 0 0 1 5.095-14.773L11.815 16.016C4.772 24.042.924 34.225.924 45.001c0 11.138 4.111 21.641 11.61 29.785l14.178-14.179a23.901 23.901 0 0 1-5.78-15.606zm24.012 24.012a23.888 23.888 0 0 1-13.367-4.073l-14.302 14.3c7.809 6.336 17.474 9.78 27.669 9.78 9.912 0 19.325-3.255 27.017-9.257L57.598 65.4a23.874 23.874 0 0 1-12.654 3.613zm32.577-53.619L63.336 29.58a23.905 23.905 0 0 1 5.621 15.421c0 6.252-2.402 11.952-6.332 16.23l14.162 14.162C84.647 67.168 88.965 56.415 88.965 45c0-11.055-4.049-21.487-11.444-29.606z"/></symbol><symbol id="pic-letter-pro" viewBox="0 0 94 72"><g fill="none" fill-rule="evenodd"><path fill="#DC471F" d="M62.372 44.071l31.134-24.908V68.98zM31.136 44.071L0 19.163V68.98zM3.689 71.856l42.873-34.298 42.871 34.298z"/><path fill="#000" d="M82.967 14.371v7.356l9.197-7.356zM10.154 14.371H.958l9.196 7.356zM13.987 0v24.525l20.598 16.478 11.977-9.58 11.976 9.58 20.598-16.478V0h-65.15zm8.65 5.748h14.37v2.395h-14.37V5.748zm38.296 20.12H22.61v-2.874h38.323v2.874zm0-5.748H22.61v-2.875h38.323v2.875zm0-5.749H22.61v-2.874h38.323v2.874z"/></g></symbol><symbol id="icon-mail" viewBox="0 0 20 20"><path d="M2 8l8 5 8-5-8-5-8 5zm18 0v10a2 2 0 0 1-2 2H2a2 2 0 0 1-2-2V8c0-.73.39-1.36.97-1.71L10 .64l9.03 5.65c.58.35.97.98.97 1.71z"/></symbol><symbol id="pic-letter" viewBox="0 0 94 72"><g fill="none" fill-rule="evenodd"><g fill="#000"><path d="M62.372 44.071l31.134-24.908V68.98zM31.136 44.071L0 19.163V68.98zM3.689 71.856l42.873-34.298 42.871 34.298zM82.967 14.371v7.356l9.197-7.356zM10.154 14.371H.958l9.196 7.356z"/></g><path d="M13.987 0v24.525l20.598 16.478 11.977-9.58 11.976 9.58 20.598-16.478V0h-65.15zm8.65 5.748h14.37v2.395h-14.37V5.748zm38.296 20.12H22.61v-2.874h38.323v2.874zm0-5.748H22.61v-2.875h38.323v2.875zm0-5.749H22.61v-2.874h38.323v2.874z" fill="#DC471F"/></g></symbol><symbol id="icon-marker" viewBox="0 0 14 20"><path d="M7 9.5a2.5 2.5 0 1 1 0-5 2.5 2.5 0 0 1 0 5zM7 0a7 7 0 0 0-7 7c0 5.25 7 13 7 13s7-7.75 7-13a7 7 0 0 0-7-7z"/></symbol><symbol id="pic-offline" viewBox="0 0 75 75"><g fill="none" fill-rule="evenodd"><path fill="#000" d="M15.228 15.028l1.834 2.45-3.673 2.749-1.833-2.449zM22.574 9.529l1.834 2.448-3.673 2.75-1.833-2.448zM57.028 11.197l-3.87-.737.514-3.015 3.87.736zM44.626 5.902l4.522.771-.514 3.015-4.522-.771zM35.579 4.36l4.522.77-.513 3.016-4.523-.771zM26.91 52.698l2.246 4-2.667 1.498-2.246-4zM22.418 44.695l2.246 4-2.667 1.498-2.246-4.001zM45.202 59.36l1.438 2.7-4.05 2.156-1.438-2.7zM53.303 55.047l1.437 2.7-4.05 2.156-1.437-2.7zM61.404 50.734l1.437 2.7-4.05 2.156-1.437-2.7z"/><path d="M61.53 15.595l-.56-.007c-1.99 0-4.766-1.813-4.766-4.767 0-3.281 1.916-5.486 4.767-5.486 3.389 0 5.486 2.475 5.486 4.767 0 2.116-.61 3.658-1.817 4.582-1.062.817-2.284.912-3.11.912zm-.56-7.202c-1.485 0-1.707 1.521-1.707 2.428 0 1.178 1.358 1.708 1.708 1.708l.559.007c.413 0 .927-.031 1.25-.279.398-.306.618-1.072.618-2.156 0-.576-.733-1.708-2.428-1.708zM70.073 51.556l-.56-.008c-1.99 0-4.766-1.813-4.766-4.766 0-3.282 1.917-5.487 4.767-5.487 3.389 0 5.486 2.475 5.486 4.767 0 2.117-.61 3.66-1.817 4.583-1.063.816-2.285.91-3.11.91zm-.56-7.202c-1.485 0-1.706 1.52-1.706 2.428 0 1.178 1.356 1.707 1.707 1.707l.559.008c.413 0 .927-.032 1.249-.279.4-.306.619-1.072.619-2.156 0-.578-.734-1.708-2.427-1.708z" fill="#000"/><path d="M57.932 74.593l-.56-.008c-1.989 0-4.766-1.813-4.766-4.765 0-3.282 1.916-5.487 4.767-5.487 3.388 0 5.486 2.475 5.486 4.767 0 2.116-.61 3.658-1.817 4.582-1.062.816-2.283.91-3.11.91zm-.56-7.203c-1.485 0-1.706 1.522-1.706 2.429 0 1.177 1.357 1.707 1.707 1.707l.56.008c.412 0 .925-.033 1.248-.279.399-.306.619-1.072.619-2.156 0-.577-.732-1.709-2.427-1.709z" fill="#DC471F"/><path d="M33.784 72.309l-.56-.007c-1.99 0-4.766-1.815-4.766-4.768 0-3.28 1.916-5.485 4.766-5.485 3.389 0 5.487 2.475 5.487 4.767 0 2.117-.611 3.659-1.817 4.582-1.063.817-2.285.911-3.11.911zm-.56-7.201c-1.411 0-1.707 1.32-1.707 2.426 0 1.18 1.358 1.709 1.707 1.709l.56.008c.412 0 .927-.033 1.248-.279.4-.306.62-1.072.62-2.156 0-.578-.733-1.709-2.428-1.709zM14.822 66.5l-.56-.009c-1.99 0-4.766-1.813-4.766-4.765 0-3.282 1.915-5.487 4.766-5.487 3.389 0 5.486 2.475 5.486 4.767 0 2.116-.61 3.658-1.816 4.583-1.064.815-2.285.91-3.11.91zm-.56-7.203c-1.486 0-1.708 1.52-1.708 2.428 0 1.178 1.358 1.707 1.708 1.707l.56.008c.412 0 .927-.033 1.248-.279.4-.306.62-1.072.62-2.156-.001-.577-.734-1.709-2.428-1.709zM19.092 47.446l-.56-.008c-1.99 0-4.767-1.813-4.767-4.766 0-3.282 1.916-5.487 4.767-5.487 3.389 0 5.487 2.475 5.487 4.767 0 2.117-.61 3.66-1.816 4.583-1.064.816-2.285.91-3.111.91zm-.56-7.203c-1.485 0-1.707 1.52-1.707 2.428 0 1.178 1.357 1.707 1.707 1.707l.56.008c.413 0 .927-.032 1.25-.279.399-.306.618-1.071.618-2.156 0-.577-.733-1.708-2.428-1.708zM8.678 23.756l1.038-.778-1.833-2.449-1.118.837c1.098.547 1.763 1.492 1.913 2.39z" fill="#000"/><path d="M5.327 29.635l-.56-.009C2.776 29.627 0 27.814 0 24.86c0-3.28 1.915-5.486 4.766-5.486 3.389 0 5.486 2.475 5.486 4.767 0 2.117-.61 3.659-1.816 4.584-1.063.816-2.284.91-3.11.91zm-.56-7.203c-1.487 0-1.709 1.52-1.709 2.428 0 1.178 1.359 1.708 1.708 1.708l.56.008c.412 0 .927-.032 1.248-.28.4-.305.62-1.071.62-2.156 0-.577-.733-1.708-2.428-1.708z" fill="#DC471F"/><path d="M29.091 5.487c0-.307.025-.602.067-.889l-2.911 2.18 1.834 2.45 2.006-1.503c-.569-.533-.996-1.278-.996-2.238z" fill="#000"/><path d="M32.888 10.261l-.56-.007c-1.99 0-4.766-1.813-4.766-4.766C27.563 2.205 29.477 0 32.328 0c3.389 0 5.486 2.475 5.486 4.768 0 2.116-.611 3.658-1.816 4.582-1.063.817-2.284.912-3.11.912zm-.56-7.202c-1.486 0-1.708 1.521-1.708 2.428 0 1.178 1.358 1.708 1.708 1.708l.56.007c.412 0 .927-.031 1.248-.279.4-.306.62-1.072.62-2.156 0-.577-.733-1.708-2.428-1.708zM14.262 57.767c1.015 0 1.844.3 2.485.743l2.522-12.596c-.286.005-.541-.007-.736-.007-.586 0-1.488-.32-2.191-.954L13.766 57.82c.162-.023.319-.053.496-.053zM33.03 63.597l-1.628-2.898-2.667 1.498 1.728 3.078c.479-.972 1.333-1.613 2.567-1.678z" fill="#000"/><path d="M30.06 68.174a3.02 3.02 0 0 1-.073-.64c0-.918.197-1.75.573-2.421l-12.35-4.176c0 .022.009.046.009.069 0 1.411-.31 2.317-.763 2.904l12.603 4.264zM37.181 66.816c0 .103-.009.19-.012.287l1.372-.731-1.438-2.7-1.321.704c.9.656 1.4 1.605 1.4 2.44zM66.53 47.984l-8.717 17.918c1.223.11 2.155.644 2.75 1.34l8.415-17.295c-.857-.206-1.96-.86-2.448-1.963zM33.393 7.641l-3.002.589 2.295 11.707c1.259.062 2.341.33 3.261.738L33.393 7.641zM21.424 39.77c.693.633 1.065 1.453 1.065 2.181 0 .254-.012.487-.031.709l6.262-2.853a32.22 32.22 0 0 1-1.835-2.525l-5.46 2.488zM23.758 27.875L8.653 25.16c-.26 1.955-1.266 2.624-2.244 2.84l9.293 12.618c.442-1.009 1.26-1.696 2.46-1.818L10.673 28.63l13.385 2.405a12.022 12.022 0 0 1-.324-2.71c0-.153.016-.302.024-.451zM32.525 63.65c.22-.044.45-.073.7-.073.924 0 1.7.245 2.315.623l1.958-16.941c-.696-.089-1.505-.459-2.9-1.556L32.525 63.65zM54.67 67.461c.503-.943 1.365-1.56 2.615-1.59l-14.062-21.8c-.747.7-1.563 1.398-2.373 1.963l13.82 21.427zM38.127 41.814l.035-.304-.163.105zM64.106 13.18c-.845 1.023-2.142 1.002-2.91.986l6.499 27.84-17.24-7.428a24.47 24.47 0 0 1-1.502 2.683l17.66 7.61c.462-1.216 1.411-2.047 2.901-2.047.589 0 1.111.106 1.578.275L64.106 13.18zM50.654 23.728l9.398-9.753c-.86-.314-1.827-1.031-2.178-2.148l-9.338 9.689a8.486 8.486 0 0 1 2.117 2.212z" fill="#000"/><path d="M43.618 22.59c-4.78 0-5.736 4.206-5.736 4.206s-.764-4.205-5.735-4.205a5.734 5.734 0 0 0-5.735 5.734c0 7.489 10.451 16.284 11.47 16.284 1.402 0 11.472-8.89 11.472-16.284a5.736 5.736 0 0 0-5.736-5.734z" fill="#DC471F"/></g></symbol><symbol id="icon-menu" viewBox="0 0 24 21"><path d="M23.244 16.009H.75c-.413 0-.75.36-.75.801v3.421c0 .423.337.769.75.769h22.494c.414 0 .75-.346.75-.77v-3.42c0-.441-.336-.801-.75-.801zm0-8H.75c-.413 0-.75.36-.75.801v3.421A.76.76 0 0 0 .75 13h22.494a.76.76 0 0 0 .75-.769V8.81c0-.441-.336-.801-.75-.801zm0-8H.75C.337.009 0 .369 0 .81v3.42c0 .423.337.769.75.769h22.494a.76.76 0 0 0 .75-.769V.81c0-.441-.336-.801-.75-.801z"/></symbol><symbol id="pic-online" viewBox="0 0 75 75"><g fill="none" fill-rule="evenodd"><path d="M74.955 57.205c-.304-.235-38.698-21.278-39.047-21.426L57.33 74.84c.043-5.875.008-11.754.017-17.63 5.868-.009 11.739 0 17.607-.006z" fill="#DC471F"/><path d="M38.087 46.252a13.203 13.203 0 0 1-4.447.782c-7.324 0-13.281-5.958-13.281-13.282 0-7.323 5.957-13.28 13.28-13.28 7.324 0 13.282 5.957 13.282 13.28 0 1.441-.238 2.825-.664 4.124 1.313.717 2.713 1.483 4.168 2.28a17.879 17.879 0 0 0 1.184-6.404c0-9.907-8.06-17.968-17.97-17.968-9.908 0-17.968 8.06-17.968 17.968s8.06 17.97 17.969 17.97a17.87 17.87 0 0 0 6.728-1.313l-2.28-4.157z" fill="#000"/><path d="M45.648 60.037a28.737 28.737 0 0 1-12.008 2.622c-15.94 0-28.907-12.968-28.907-28.907S17.7 4.846 33.64 4.846s28.906 12.967 28.906 28.906c0 4.158-.89 8.111-2.477 11.687l4.12 2.262a33.38 33.38 0 0 0 3.044-13.949C67.233 15.23 52.163.16 33.639.16S.045 15.229.045 33.752c0 18.524 15.07 33.594 33.594 33.594 5.1 0 9.934-1.148 14.268-3.189l-2.26-4.12z" fill="#000"/></g></symbol><symbol id="icon-next" viewBox="0 0 15 24"><path d="M3 0L.17 2.83 9.34 12 .17 21.17 3 24l12-12L3 0z"/></symbol><symbol id="pic-petition" viewBox="0 0 55 79"><g fill="none" fill-rule="evenodd"><path d="M43.661 30.25c.459.362.604.942.315 1.303l-2.079 2.586h.631v2.416h-2.563l-3.721 4.614h6.284v2.416h-8.24l-9.472 11.791c-.292.337-.893.313-1.355-.048l-5.073-4.083c-.461-.362-.604-.968-.315-1.305l5.123-6.355H9.861V41.17H25.13l3.722-4.614H9.86v-2.416h20.946l3.817-4.758H9.861v-2.416H36.58l.677-.846c.268-.339.872-.315 1.328.049l.992.797h2.102l.849.678v1.688l1.133.92z" fill="#DC471F"/><path d="M41.68 26.965l-1.64-1.328c-.776-.628-1.136-1.501-.776-1.958l.85-1.039c.36-.46 1.302-.29 2.075.339l3.818 3.069c.581.459.917 1.061.917 1.523a.675.675 0 0 1-.143.433l-.849 1.063c-.361.434-1.279.289-2.076-.339l-1.328-1.085-.848-.678z" fill="#000"/><path d="M54.8 13.968v58.467c0 3.456-3.044 6.282-6.79 6.282h-41C3.24 78.717.2 75.891.2 72.435V13.968c0-3.48 3.041-6.307 6.812-6.307h6.934c-.289.143-.533.314-.773.508-.724.603-1.232 1.402-1.573 2.319-.263.7-.456 1.473-.579 2.272H6.43c-1.233 0-2.271.82-2.271 1.761V72.99c0 .942 1.038 1.763 2.27 1.763h41.024c1.208 0 2.251-.821 2.251-1.763V14.521c0-.941-1.041-1.761-2.25-1.761h-4.878a9.02 9.02 0 0 0-.7-2.272 3.636 3.636 0 0 0-.364-.677c-.024-.095-.07-.171-.12-.264-.143-.218-.292-.412-.435-.604a4.97 4.97 0 0 0-.508-.511 4.571 4.571 0 0 0-.557-.433 7.816 7.816 0 0 0-.601-.338h8.721c3.743-.001 6.788 2.826 6.788 6.307z" fill="#000"/><path fill="#000" d="M42.528 62.044v2.417H9.861v-2.417h4.975zM40.86 12.759c.193 1.084.29 2.198.29 3.19-1.425-.146-4.735-.146-12.54-.146H25.06c-7.44.024-10.654.024-12.055.146 0-1.161.073-2.225.243-3.19.142-.848.312-1.619.578-2.272.339-.871.774-1.546 1.331-2.03.53-.46 1.183-.7 1.956-.7h3.407v-.096l.024-.436C20.665 3.216 23.42.076 26.827.076c3.404 0 6.185 3.14 6.305 7.15v.531h3.479c.749 0 1.352.195 1.882.531.172.12.342.244.484.387.194.17.364.361.508.581.17.193.29.433.435.677.099.168.17.362.265.555.287.7.506 1.473.675 2.27zM28.803 7.66c.53-.53.872-1.257.872-2.055 0-1.569-1.282-2.85-2.852-2.85-1.594 0-2.875 1.281-2.875 2.85 0 .798.336 1.524.844 2.055a2.894 2.894 0 0 0 2.03.797c.771 0 1.473-.289 1.98-.797zM23.005 57.19l-8.169 3.671 1.839-8.794.628.508z"/></g></symbol><symbol id="icon-ok" viewBox="0 0 19 32"><path d="M9.25 4.83a3.416 3.416 0 0 1 3.413 3.414c0 1.88-1.53 3.41-3.413 3.41a3.417 3.417 0 0 1-3.413-3.41A3.418 3.418 0 0 1 9.25 4.83zm0 11.654c4.547 0 8.243-3.696 8.243-8.24C17.493 3.698 13.797 0 9.25 0 4.705 0 1.008 3.698 1.008 8.244c0 4.544 3.697 8.24 8.242 8.24zm3.335 6.724a15.434 15.434 0 0 0 4.786-1.983 2.415 2.415 0 0 0 .757-3.33 2.413 2.413 0 0 0-3.33-.76 10.465 10.465 0 0 1-11.097 0 2.412 2.412 0 0 0-3.33.76 2.414 2.414 0 0 0 .757 3.33c1.49.935 3.108 1.6 4.786 1.983l-4.608 4.608a2.415 2.415 0 0 0 3.417 3.414l4.526-4.528 4.53 4.528c.942.943 2.47.943 3.414 0a2.413 2.413 0 0 0 0-3.414l-4.608-4.608z"/></symbol><symbol id="pic-te-st" viewBox="0 0 99 40"><g fill="#000" fill-rule="evenodd"><path d="M10.895 20.245a2 2 0 0 1-1.4-2.394l-1.394-.805c-.359.343-.845.554-1.381.554a1.994 1.994 0 0 1-1.42-.592l-1.369.79A2.003 2.003 0 0 1 2 20.32a2 2 0 1 1 1.347-3.479l1.418-.818a2 2 0 0 1 3.33-1.875l2.785-1.607V9.28a1.998 1.998 0 0 1-.828-.481l-1.392.87a2 2 0 1 1-3.885.027l-1.451-.838a1.996 1.996 0 0 1-.764.422v1.678a2 2 0 1 1-1.12 0V9.281A2 2 0 1 1 3.428 5.96l1.333-.833a2 2 0 1 1 .528.99l-1.331.833a2.009 2.009 0 0 1-.035.962l1.406.811c.36-.348.85-.563 1.391-.563.53 0 1.013.207 1.371.544l1.404-.877a2.005 2.005 0 0 1 1.465-2.409V3.942A2 2 0 1 1 12 3.921v1.518a2 2 0 0 1 0 3.842v3.306l2.653 1.532c.256-.26.582-.451.947-.541v-1.476a2 2 0 1 1 1.85-3.399l1.389-.868a2.01 2.01 0 0 1 .022-.888l-1.434-.828a2 2 0 1 1 .584-.956l1.42.82a2 2 0 1 1 1.93 3.378l-.001 1.518a2 2 0 1 1-1.04-.021V9.382a1.998 1.998 0 0 1-.959-.553l-1.342.84a2.004 2.004 0 0 1-1.379 2.412v1.518a2 2 0 0 1 1.366 2.462l1.41.815a2 2 0 1 1-.56.97l-1.444-.834a2 2 0 0 1-3.29-1.906l-2.722-1.572-2.74 1.581a2.004 2.004 0 0 1 .003.962l1.39.802a2 2 0 1 1 1.896 3.375v2.62l2.279-1.317a2.003 2.003 0 0 1 1.932-2.517 2 2 0 1 1-1.4 3.428l-2.811 1.624v4.783h10.34a.352.352 0 0 1 0 .703H11.985c.182 1.334 1.447 1.512 3.42 1.674 1.924.157 4.103.336 4.69 2.502a.264.264 0 0 1-.255.334.263.263 0 0 1-.254-.196c-.442-1.632-2.03-1.917-3.685-2.068.045.05.087.101.126.155.316.427.81.626 1.334.836.656.264 1.334.537 1.641 1.286a.264.264 0 1 1-.487.2c-.223-.543-.745-.753-1.35-.996a7.767 7.767 0 0 1-.682-.301c.065.246.117.496.166.74.088.44.171.858.331 1.208a.264.264 0 0 1-.48.22c-.185-.406-.278-.873-.368-1.324-.216-1.08-.403-2.012-1.693-2.154l-.01-.002c-.915-.103-1.768-.285-2.327-.776.262.613.652 1.061 1.035 1.499.158.181.318.364.467.558l.009.007c.157.204.34.377.535.562.26.245.532.504.754.852.005.007.01.012.014.02.293.466 1.156 1.418 1.703 1.727a.264.264 0 0 1-.258.46c-.308-.174-.677-.497-1.015-.844.032.325.032.694-.014 1.127a.263.263 0 0 1-.262.236l-.028-.001a.264.264 0 0 1-.234-.29c.128-1.21-.109-1.851-.471-2.324.16.822.056 1.91-.553 3.493a.264.264 0 1 1-.492-.19c1.18-3.065.378-3.983-.551-5.045-.368-.422-.761-.873-1.05-1.477.083 1.033.216 1.881.332 2.616.35 2.212.56 3.548-1.174 5.988a.262.262 0 0 1-.367.062.264.264 0 0 1-.062-.368c1.274-1.793 1.422-2.909 1.26-4.363-.107.186-.233.341-.357.494-.329.407-.64.793-.575 1.874a.264.264 0 0 1-.247.28h-.016a.264.264 0 0 1-.263-.248c-.078-1.286.331-1.791.692-2.238.36-.445.67-.829.483-2.083a28.944 28.944 0 0 1-.222-1.844c-.283.577-.751 1.206-1.528 1.862-.928.782-.676 1.636-.385 2.623.19.647.388 1.316.265 2.011a.263.263 0 1 1-.519-.091c.1-.574-.078-1.182-.251-1.77a9.547 9.547 0 0 1-.216-.822l-.067.31c-.195.912-.396 1.856-1.619 2.658a.264.264 0 0 1-.288-.441c1.04-.683 1.203-1.444 1.391-2.327.082-.383.17-.79.343-1.202l-.223.132c-.772.458-1.198.709-1.369 1.68a.263.263 0 1 1-.519-.09c.213-1.212.803-1.56 1.62-2.044.43-.255.92-.543 1.496-1.03.911-.769 1.354-1.481 1.57-2.108-.07.086-.144.169-.226.246-.784.735-2.06 1.051-3.796.945-.77.142-.857.562-.975 1.488-.107.842-.24 1.89-1.16 2.98a.261.261 0 0 1-.371.031.264.264 0 0 1-.032-.371c.82-.972.942-1.934 1.04-2.706.069-.537.136-1.055.44-1.43a5.778 5.778 0 0 0-.783.103c-.674.28-.703.634-.754 1.273-.035.428-.078.96-.364 1.55a.263.263 0 0 1-.352.121.264.264 0 0 1-.122-.353c.243-.5.28-.956.312-1.36.023-.282.046-.558.135-.813-1.014.587-1.173 1.451-1.183 1.509a.264.264 0 0 1-.52-.087c.13-.775.845-1.924 2.656-2.331l.007-.004a.26.26 0 0 1 .095-.02 7.292 7.292 0 0 1 1.929-.109c1.58.104 2.768-.173 3.437-.8.372-.35.529-.748.586-1.09H.555a.351.351 0 0 1 0-.704h10.34v-4.783l-2.82-1.629c-.22.216-.492.38-.794.472a2 2 0 1 1 1.144-2.8 1.936 1.936 0 0 1 .177 1.413l2.292 1.326v-2.63zm6.213 1.392a1.12 1.12 0 0 0-1.938-1.12l.03.018a1.062 1.062 0 0 0 .002 1.07 1.07 1.07 0 0 0 1.85 0l.056.032zm-10.122.469a1.12 1.12 0 1 0-1.281-.45l.086-.05a1.068 1.068 0 0 0 1.195.5zm5.405-3.194a1.12 1.12 0 1 0-1.912-.016l.016-.01a1.07 1.07 0 0 0 1.852 0l.044.026zM2 8.48a1.12 1.12 0 1 0 0-2.24 1.12 1.12 0 0 0 0 2.24zM2 14a1.12 1.12 0 1 0 0-2.24A1.12 1.12 0 0 0 2 14zm4.72-8.16a1.12 1.12 0 1 0 0-2.24 1.12 1.12 0 0 0 0 2.24zm4.72-2.72a1.12 1.12 0 1 0 0-2.24 1.12 1.12 0 0 0 0 2.24zm0 5.36a1.12 1.12 0 1 0 0-2.24 1.12 1.12 0 0 0 0 2.24zm-4.72 2.8a1.12 1.12 0 1 0 0-2.24 1.12 1.12 0 0 0 0 2.24zm9.36-5.52a1.12 1.12 0 1 0 0-2.24 1.12 1.12 0 0 0 0 2.24zm4.72 2.8a1.12 1.12 0 1 0 0-2.24 1.12 1.12 0 0 0 0 2.24zm0 5.36a1.12 1.12 0 1 0 0-2.24 1.12 1.12 0 0 0 0 2.24zm-4.72-2.64a1.12 1.12 0 1 0 0-2.24 1.12 1.12 0 0 0 0 2.24zm0 5.36a1.12 1.12 0 1 0 0-2.24 1.12 1.12 0 0 0 0 2.24zm4.72 2.8a1.12 1.12 0 1 0 0-2.24 1.12 1.12 0 0 0 0 2.24zM6.72 16.72a1.12 1.12 0 1 0 0-2.24 1.12 1.12 0 0 0 0 2.24zM2 19.44a1.12 1.12 0 1 0 0-2.24 1.12 1.12 0 0 0 0 2.24zM36.18 4.56v-.68H31.3v.68h2.06V11h.76V4.56h2.06zM41.93 11v-.68h-3.66V7.75h3.12v-.68h-3.12V4.56h3.66v-.68h-4.42V11h4.42zm6.47 0V3.88h-4.89V11h.76V4.56h3.37V11h.76zm6.78 0V3.88h-3.92v2.89c0 2.96-.63 3.55-1.51 3.55h-.19V11h.36C51.28 11 52 10 52 7V4.56h2.42V11h.76zm7.16 0V3.88h-.72L58 9.68v-5.8h-.76V11h.72l3.62-5.81V11h.76zm7.8 1.72v-2.4h-.85V3.88h-.76v6.44h-3.37V3.88h-.76V11h4.99v1.72h.75zm6.4-1.72l-2.61-7.12h-.64L70.67 11h.81l.57-1.61h3.11l.57 1.61h.81zm-1.6-2.27h-2.66l1.34-3.76 1.32 3.76zM36.72 20.04h-.76c-.19.87-.82 1.44-1.71 1.44-.47 0-.92-.18-1.23-.5-.45-.46-.5-.95-.5-2.44s.05-1.98.5-2.44c.31-.32.76-.5 1.23-.5.89 0 1.5.57 1.69 1.44h.78c-.24-1.34-1.19-2.12-2.47-2.12-.7 0-1.34.26-1.82.74-.67.67-.67 1.37-.67 2.88 0 1.51 0 2.21.67 2.88.48.48 1.12.74 1.82.74 1.27 0 2.24-.78 2.47-2.12zm6.19-1.99c0-.87-.05-1.77-.67-2.39-.48-.48-1.12-.74-1.82-.74s-1.34.26-1.82.74c-.61.61-.67 1.48-.67 2.33v.55c0 1.42.02 2.23.67 2.88.48.48 1.11.74 1.82.74s1.34-.26 1.82-.74c.65-.65.67-1.46.67-2.88v-.49zm-.76.84c0 .82-.01 1.59-.5 2.08-.33.33-.76.51-1.23.51s-.9-.18-1.23-.51c-.46-.46-.5-1.16-.5-1.93v-.71c0-.98 0-1.72.5-2.22.33-.33.77-.51 1.23-.51.46 0 .9.18 1.23.51.47.47.5 1.21.5 2.05v.73zm8.29 4.93v-2.4h-.85v-6.44h-.76v6.44h-3.37v-6.44h-.76v7.12h4.99v1.72h.75zm6.54-1.72v-7.12h-.72l-3.62 5.8v-5.8h-.76v7.12h.72l3.62-5.81v5.81h.76zm7.02 0l-2.61-7.12h-.64l-2.62 7.12h.81l.57-1.61h3.11l.57 1.61H64zm-1.6-2.27h-2.66l1.34-3.76 1.32 3.76zm7.46 2.27v-7.12h-3.92v2.89c0 2.96-.63 3.55-1.51 3.55h-.19v.68h.36c1.36 0 2.08-1 2.08-4v-2.44h2.42v6.44h.76zm6.93-2.09c0-1.26-.87-2.1-2.2-2.1h-1.91v-2.93h-.76v7.12h2.67c1.32 0 2.2-.84 2.2-2.09zm-.77 0c0 .89-.55 1.41-1.5 1.41h-1.84v-2.83h1.84c.95 0 1.5.52 1.5 1.42zm7.1 2.09v-7.12h-.76v3.19h-3.38v-3.19h-.76v7.12h.76v-3.25h3.38v3.25h.76zm8.64 0v-7.12H91v7.12h.76zm-1.71-2.09c0-1.26-.87-2.1-2.2-2.1h-1.91v-2.93h-.76v7.12h2.67c1.32 0 2.2-.84 2.2-2.09zm-.77 0c0 .89-.55 1.41-1.5 1.41h-1.84v-2.83h1.84c.95 0 1.5.52 1.5 1.42zm8.87 2.09l-2.2-3.65L98 14.98h-.88l-1.58 2.81-1.58-2.81h-.88l2.04 3.47-2.18 3.65h.86l1.74-2.99 1.73 2.99h.88zM36.18 27.56v-.68H31.3v.68h2.06V34h.76v-6.44h2.06zM41.93 34v-.68h-3.66v-2.57h3.12v-.68h-3.12v-2.51h3.66v-.68h-4.42V34h4.42zm5.91 0l-2.2-3.65 2.05-3.47h-.88l-1.58 2.81-1.58-2.81h-.88l2.04 3.47L42.63 34h.86l1.74-2.99L46.96 34h.88zm6.08 0v-7.12h-.76v3.19h-3.38v-3.19h-.76V34h.76v-3.25h3.38V34h.76zm6.77-4.05c0-.87-.05-1.77-.67-2.39-.48-.48-1.12-.74-1.82-.74s-1.34.26-1.82.74c-.61.61-.67 1.48-.67 2.33v.55c0 1.42.02 2.23.67 2.88.48.48 1.11.74 1.82.74s1.34-.26 1.82-.74c.65-.65.67-1.46.67-2.88v-.49zm-.76.84c0 .82-.01 1.59-.5 2.08-.33.33-.76.51-1.23.51s-.9-.18-1.23-.51c-.46-.46-.5-1.16-.5-1.93v-.71c0-.98 0-1.72.5-2.22.33-.33.77-.51 1.23-.51.46 0 .9.18 1.23.51.47.47.5 1.21.5 2.05v.73zM66.99 34v-7.12h-3.92v2.89c0 2.96-.63 3.55-1.51 3.55h-.19V34h.36c1.36 0 2.08-1 2.08-4v-2.44h2.42V34h.76zm6.77-4.05c0-.87-.05-1.77-.67-2.39-.48-.48-1.12-.74-1.82-.74s-1.34.26-1.82.74c-.61.61-.67 1.48-.67 2.33v.55c0 1.42.02 2.23.67 2.88.48.48 1.11.74 1.82.74s1.34-.26 1.82-.74c.65-.65.67-1.46.67-2.88v-.49zm-.76.84c0 .82-.01 1.59-.5 2.08-.33.33-.76.51-1.23.51s-.9-.18-1.23-.51c-.46-.46-.5-1.16-.5-1.93v-.71c0-.98 0-1.72.5-2.22.33-.33.77-.51 1.23-.51.46 0 .9.18 1.23.51.47.47.5 1.21.5 2.05v.73zm6.9-3.23v-.68h-4.28V34h.76v-6.44h3.52zM86.34 34v-7.12h-.72L82 32.68v-5.8h-.76V34h.72l3.62-5.81V34h.76zm7.16 0v-7.12h-.72l-3.62 5.8v-5.8h-.76V34h.72l3.62-5.81V34h.76zm-1.09-8.83h-.64c-.04.49-.33.74-.82.74-.49 0-.78-.25-.82-.74h-.64c.06.89.63 1.26 1.46 1.26s1.4-.37 1.46-1.26z"/></g></symbol><symbol id="icon-photo" viewBox="0 0 20 18"><path d="M2 2h3l2-2h6l2 2h3a2 2 0 0 1 2 2v12a2 2 0 0 1-2 2H2a2 2 0 0 1-2-2V4a2 2 0 0 1 2-2zm8 3a5 5 0 1 0 0 10 5 5 0 0 0 0-10zm0 2a3 3 0 1 1 0 6 3 3 0 0 1 0-6z"/></symbol><symbol id="pic-volunteer" viewBox="0 0 93 74"><g fill="none" fill-rule="evenodd"><ellipse fill="#DC471F" cx="46.219" cy="10.119" rx="9.602" ry="9.583"/><ellipse fill="#DC471F" cx="46.219" cy="34.178" rx="11.57" ry="11.548"/><path fill="#DC471F" d="M34.647 34.178V73.44h23.142V34.178"/><g transform="translate(0 21.697)" fill="#000"><ellipse cx="8.77" cy="7.312" rx="7.254" ry="7.24"/><ellipse cx="8.77" cy="25.488" rx="8.743" ry="8.726"/><path d="M.027 25.488v26.255h17.484V25.488"/></g><g transform="translate(74.315 21.697)" fill="#000"><ellipse cx="9.585" cy="7.239" rx="7.253" ry="7.239"/><ellipse cx="9.585" cy="25.417" rx="8.741" ry="8.724"/><path d="M.844 25.417v26.326h17.482V25.417"/></g><g transform="translate(11.809 6.676)" fill="#DC471F"><ellipse cx="5.893" cy="5.72" rx="5.308" ry="5.297"/><path d="M2.142 9.467l30.422 30.359 7.503-7.49L9.645 1.972"/></g><g transform="translate(40.87 6.676)" fill="#DC471F"><ellipse cx="34.186" cy="5.72" rx="5.308" ry="5.297"/><path d="M30.432 1.974L.013 32.337l7.506 7.49L37.94 9.466"/></g></g></symbol><symbol id="icon-prev" viewBox="0 0 15 25"><path d="M14.83 21.67L5.66 12.5l9.17-9.17L12 .5l-12 12 12 12 2.83-2.83z"/></symbol><symbol id="pic-vvc" viewBox="0 0 294 154"><g fill="#DC471F" fill-rule="evenodd"><path d="M161.543 5.885c-.053.188-.077.377-.12.536-.14.84-.315 1.65-.385 2.49-.036.29-.08.61-.077.885.007.043.01.058-.012.1a7.489 7.489 0 0 0 2.1-.433c.692-.275 1.63-.667 1.89-1.45.233-.708-.295-1.548-1.055-1.853-.778-.333-1.604-.361-2.34-.275zm4.573-4.94c.053.407-.342.71-.689.71-1.197 0-2.373.13-3.558.29.09.797.026 1.594-.068 2.376.934-.073 2.006.014 2.903.565 1.242.78 1.752 2.274 1.404 3.548-.329 1.218-1.44 1.985-2.54 2.404-1.034.406-2.176.652-3.368.595-.339-.028-.477-.276-.487-.595-.209-.507-.158-1.042-.116-1.55.075-.81.21-1.606.356-2.403.29-1.55.704-3.173.511-4.854-.204-.057-.416-.245-.442-.492-.045-.274.118-.463.32-.593.187-.463.93-.695 1.242-.232 1.226-.16 2.454-.304 3.707-.304.334 0 .771.116.825.536zM172.801 4.509c-.239 2.1-.493 4.2-.475 6.344-.022.797-1.617.406-1.627-.42.016-1.854.201-3.693.389-5.503-.445 0-.89 0-1.305.1h-.042c-.24 2.434-.122 5.606-2.752 6.288-.734.187-1.196-1.435-.463-1.638.959-.261 1.428-1.042 1.631-2.013.239-1.174.254-2.434.402-3.65.056-.333.347-.595.731-.377.047.029.064.044.112.087.71-.087 1.494.029 2.219-.043.415-.015 1.224.246 1.18.825M177.604 5.175c-.014 0-.047-.028-.061-.028-.286-.044-.522-.044-.76.028-.533.146-.918.507-1.19.985-.45.898-.694 2.202-.251 3.288.59 1.39 1.55-.044 1.806-.695.462-1.086.29-2.39.456-3.578zm3.499 4.78c-.148.623-.434 1.507-1.148 1.565-.711.072-1.288-.55-1.6-1.174-.041-.087-.068-.173-.11-.245-.2.477-.491.897-.864 1.172-.53.42-1.361.609-2.026.029-.777-.666-1.223-1.593-1.39-2.52-.31-1.724-.017-3.924 1.352-4.823.69-.45 1.49-.58 2.359-.29.204.058.414.145.586.261.39.087.862.753.806 1.26-.211 1.26-.116 2.679.143 4.012.034.202.057.507.202.709.27-.13.379-.564.432-.84.233-.955 1.429.146 1.258.885zM181.774 4.958c-.266-.348-.035-.725.247-.869.713-.318 1.396-.652 2.267-.609.64.015 1.504.348 1.963.943.433.607.62 1.404.294 1.955-.293.507-.893.752-1.423 1-.507.216-2.126.693-1.888 1.55.383 1.23 1.725 1.52 2.436.766.517-.579 1.793.16 1.144.869-.881.9-2.504 1.101-3.755.348-1.106-.638-1.783-2.129-1.09-3.07.654-.942 1.792-1.29 2.784-1.782.143-.058.395-.13.392-.32-.011-.317-.13-.622-.414-.824-.686-.449-1.321 0-1.877.26-.312.131-.813.131-1.08-.217M189.428 6.378c-.141.752-.042 1.607.237 2.375.246.65.748 1.506 1.554 1.158 1.227-.58 1.813-2.012 1.614-3.475-.088-.537-.428-1.506-1.16-1.391-.703.13-1.185.754-1.63 1.261-.188.217-.413.202-.615.072zm-.045-1.797c.528-.593 1.17-1.187 2.036-1.159 1.16.03 2.128 1.26 2.459 2.348.589 2.056.082 4.649-1.687 5.562-1.41.738-2.797-.334-3.469-1.884-.67-1.535-.89-3.462-.234-4.808.22-.435.611-.35.895-.059zM204.362 10.434c.017.78-1.54.884-1.555.029-.06-1.637.25-3.216.008-4.868a2.545 2.545 0 0 0-.105-.463 1.711 1.711 0 0 0-.226.144c-.545.405-1.04.958-1.612 1.362.008.392-.008.811-.01 1.216-.026.856-.106 1.726-.174 2.58-.064.796-1.682.52-1.615-.262.141-1.592.353-3.26.086-4.896-.004-.014-.007-.043-.01-.057-.05.043-.14.087-.187.13-.611.348-1.15.796-1.763 1.13-.054.015-.118.043-.158.058-.034 1.492-.042 2.956-.123 4.417-.026.348-.33.608-.697.42-.38-.202-.559-.694-.54-1.087.117-2.084.077-4.185.153-6.27.04-.348.356-.623.71-.42.395.201.573.693.554 1.086.005.029-.008.029-.006.043 1.23-.81 2.924-1.768 3.519.072.01.06.049.131.059.19.422-.393.843-.798 1.364-1.014.807-.334 1.885-.218 2.19.883.532 1.883.088 3.751.138 5.577M207.69 6.783c.467-.13.91-.39 1.26-.638.264-.174 1.026-.869.376-1.187-.977-.522-1.433.767-1.635 1.825zm2.348 1.492c-.305-.42-1-.406-1.388-.319a.92.92 0 0 1-.3.043c-.265.072-.51.117-.782.145-.02.566.049 1.32.557 1.695.143.117.269.117.445.087.248-.015.484-.102.694-.26.292-.174 1.157-.913.774-1.39zm1.407 1.362a3.082 3.082 0 0 1-2.31 1.535c-.931.087-2.13-.26-2.682-1.26a4.184 4.184 0 0 1-.492-2.231.56.56 0 0 1-.07-.247.424.424 0 0 1 .1-.333c.04-.173.063-.376.097-.579.2-1.086.563-2.26 1.6-2.723.857-.377 2.178-.217 2.983.624.895.955.41 1.983-.34 2.591.046.015.059.015.106.043 1.129.522 1.544 1.61 1.008 2.58zM214.043 6.378c-.14.752-.042 1.607.237 2.375.246.65.748 1.506 1.554 1.158 1.227-.58 1.813-2.012 1.614-3.475-.088-.537-.428-1.506-1.16-1.391-.703.13-1.185.754-1.63 1.261-.188.217-.413.202-.615.072zm-.045-1.797c.528-.593 1.17-1.187 2.036-1.159 1.16.03 2.128 1.26 2.46 2.348.588 2.056.081 4.649-1.688 5.562-1.41.738-2.797-.334-3.469-1.884-.67-1.535-.89-3.462-.234-4.808.22-.435.611-.35.895-.059zM223.5 5.306a2.873 2.873 0 0 0-1.1.246c-.29.102-.556.26-.78.507.053 1.174.02 2.317-.069 3.476 1.714.435 3.3-1.26 3.174-2.955-.049-.723-.454-1.318-1.225-1.274zm2.481.956c.165 2.448-1.854 5.489-4.535 4.838a30.26 30.26 0 0 0-.116 2.173c-.015.42-.278.766-.674.81-.336.073-.704-.216-.699-.608.091-2.926.647-5.808.167-8.807-.073-.45.106-.797.465-.984.276-.102.777-.015.846.405.014.087.03.174.034.29a3.495 3.495 0 0 1 2.277-.623c1.322.087 2.123 1.232 2.235 2.506zM232.395 4.118c.313 2.07-.24 4.041.094 6.155.111.855-1.102 1.261-1.28.175l-.007-.044c-.74.666-1.727 1.173-2.632.58-.956-.653-1.212-2.043-1.275-3.013-.081-1.26.097-2.462.076-3.694-.03-1.028 1.195-.855 1.212.174.003 1.043-.15 2.057-.101 3.113-.001.421-.02 1.753.518 1.971.432.174.932-.174 1.216-.39.359-.277.642-.58.907-.914.064-1.303.215-2.592-.001-3.91-.117-.869 1.11-1.289 1.273-.203M243.122 10.434c.017.78-1.539.884-1.555.029-.059-1.637.251-3.216.008-4.868a2.553 2.553 0 0 0-.104-.463 1.727 1.727 0 0 0-.226.144c-.546.405-1.04.958-1.613 1.362.01.392-.007.811-.01 1.216-.025.856-.105 1.726-.174 2.58-.064.796-1.68.52-1.615-.262.142-1.592.354-3.26.086-4.896a1.208 1.208 0 0 1-.01-.057c-.049.043-.14.087-.187.13-.612.348-1.15.796-1.763 1.13-.054.015-.118.043-.157.058-.034 1.492-.043 2.956-.123 4.417-.027.348-.331.608-.697.42-.38-.202-.559-.694-.54-1.087.117-2.084.077-4.185.153-6.27.04-.348.356-.623.71-.42.395.201.573.693.554 1.086.005.029-.009.029-.007.043 1.231-.81 2.924-1.768 3.519.072.01.06.049.131.06.19.421-.393.841-.798 1.363-1.014.807-.334 1.885-.218 2.19.883.533 1.883.089 3.751.138 5.577M248.34 4.9c-.547-.29-1.113-.175-1.445.26-.33.45-.56 1-.657 1.594.39 0 .763-.014 1.169-.087.434-.073 1.273-.13 1.496-.55.21-.406-.138-1.015-.562-1.217zm2.156 1.26c-.197 1-1.211 1.433-2.101 1.608-.74.158-1.507.231-2.272.231.009.391.075.798.216 1.145.442 1 1.694 1.506 2.329.71a.875.875 0 0 1 1.045-.246c.346.158.54.578.338.868-1.107 1.391-3.835 1.478-4.994-.58-.568-.999-.54-2.186-.384-3.185.162-.957.496-2.058 1.282-2.608.868-.65 2.064-.913 3.217-.247.856.464 1.494 1.391 1.324 2.304zM257.117 4.509c-.24 2.1-.493 4.2-.475 6.344-.022.797-1.618.406-1.628-.42.016-1.854.201-3.693.39-5.503-.445 0-.891 0-1.306.1h-.042c-.239 2.434-.122 5.606-2.75 6.288-.736.187-1.197-1.435-.464-1.638.96-.261 1.428-1.042 1.63-2.013.24-1.174.255-2.434.403-3.65.056-.333.347-.595.73-.377.047.029.064.044.113.087.71-.087 1.494.029 2.22-.043.414-.015 1.222.246 1.18.825M262.137 7.769a1.555 1.555 0 0 0-.852-.015c-.46.087-.856.377-1.07.767-.045.58-.044 1.173.197 1.29 1.01.478 1.974-.695 1.933-1.623-.016-.175-.002-.347-.209-.42zm1.618 1.636c-.38.825-.972 1.447-1.888 1.636-.846.188-2.002.087-2.728-.68-.438-.464-.522-1.057-.503-1.622-.134-.13-.175-.305-.111-.508.055-.086.108-.188.147-.29.107-1.215.281-2.432.29-3.65.02-.81 1.589-.666 1.627.16-.002.073.008.13-.006.217a.335.335 0 0 1-.012.174c-.032.58-.087 1.174-.159 1.753.082-.014.147-.044.23-.044.82-.173 2.057-.1 2.784.593.663.652.593 1.58.329 2.26zM271.012 4.509c-.321.84-.36 1.797-.312 2.767.003.014.038.058.042.087.04.159.043.26-.036.376.07.927.18 1.855.144 2.738-.028.753-1.527 1.028-1.485.1.043-.825-.014-1.694-.097-2.534-.691.029-1.393.073-2.087.088a22.666 22.666 0 0 1-.314 2.664c-.126.754-1.707.29-1.565-.55.167-.84.262-1.71.286-2.578a.865.865 0 0 1-.12-.304c.007-.13.043-.247.145-.305a33.793 33.793 0 0 0-.062-2.07.595.595 0 0 1-.077-.305c.012-.087.012-.174.02-.29-.006-.811 1.548-.58 1.614.247.068.753.108 1.506.093 2.26.676-.03 1.336-.087 2.012-.117-.019-.883.05-1.738.377-2.535.15-.362.499-.608.915-.536.37.059.642.435.507.797M280.12 4.538c.01 1.07-.113 2.1-.216 3.172a20.639 20.639 0 0 0-.058 1.594c-.015.333-.098.839-.037 1.13.057.346-.037.795-.447.752-.396-.044-.723-.506-.783-.869-.097-.507-.021-1.057-.018-1.55-.002-.521.021-1.057.058-1.592.105-1.059.226-2.101.233-3.158-.009-1.073 1.284-.319 1.268.521zm-3.832 3.52c-.404-.68-1.421-.261-1.763.116-.036.115-.034.217-.056.332-.03.247-.218 1.13.098 1.275.31.189.603.115.874-.014.475-.246 1.274-.971.847-1.709zm.974-1.1c1.271 1.216.406 2.895-.567 3.577-.873.622-3.27 1.274-3.72-.609-.197-.782.035-1.492.083-2.216.067-1.115.21-2.188.053-3.317-.131-.796 1.368-1.159 1.486-.275.122.825.115 1.637.07 2.462.854-.304 1.851-.333 2.595.377zM282.685 1.742c-.173-.797 1.272-1.246 1.47-.376.11.507.35.521.737.42.423-.13.759-.377 1.054-.696.583-.608 1.677.204 1.027.913-.914.956-3.704 2.1-4.288-.26zm4.77 2.94c-.236.768-.26 1.638-.186 2.507.219.145.354.375.236.68-.041.087-.091.202-.146.29.107.913.256 1.811.273 2.68 0 .767-1.582.623-1.6-.246a7.85 7.85 0 0 0-.046-.797c-.184.16-.368.304-.58.45-.648.462-1.658 1.172-2.61.637-.8-.464-.876-1.435-.971-2.188-.171-1.463.015-2.868-.048-4.272-.031-.784 1.517-.754 1.58.13.055 1.1-.062 2.172-.02 3.273.019.45.053.912.142 1.376.024.144.05.377.12.55.076-.043.154-.073.19-.115.317-.189.618-.392.899-.623.389-.348.805-.696 1.09-1.16-.156-1.202-.238-2.375.106-3.418.106-.376.452-.55.868-.477.286.043.835.346.704.723zM199.946 27.777c-.584.332-1.16.637-1.692 1.042-.36.262-.745.551-.842.971-.02.057 0 .261.078.391.2.29.477.535.773.652.788.305 1.311-.578 1.493-1.173a8.14 8.14 0 0 0 .19-1.883zm-1.488-2.376c.399.145.797-.23.953-.55.16-.29.256-.637.322-1-.068-.928-.112-1.869-.053-2.78-.21-.088-.367-.29-.39-.595a.234.234 0 0 0-.165-.072 1.115 1.115 0 0 0-.373-.072c-.21 0-.428.03-.593.115-.424.217-.699.58-.832 1.043-.297.811-.352 1.927.116 2.825.225.434.517.941 1.015 1.086zm2.756-4.91c-.272 2.505.365 5.113.22 7.619-.06 1.145-.24 2.26-.965 3.1-.638.767-1.72 1.303-2.865.854-.732-.305-1.573-1.014-1.67-1.854-.098-.783.319-1.376.77-1.839.524-.536 1.17-.928 1.807-1.29.063-.043.138-.085.202-.13-1.21.087-2.323-1.26-2.657-2.608-.415-1.679-.195-3.562.856-4.707.504-.579 1.285-.985 2.14-.855.717.117 1.25.494 1.426 1.131.394-.058.798.115.736.58zM206.532 20.317c-.55-.29-1.115-.174-1.446.261-.33.45-.56 1-.657 1.594.39 0 .763-.015 1.167-.088.434-.073 1.275-.13 1.497-.55.212-.406-.138-1.015-.561-1.217zm2.154 1.26c-.197 1-1.211 1.433-2.1 1.608-.74.16-1.508.232-2.273.232.008.39.074.796.216 1.144.443 1 1.694 1.506 2.33.71a.873.873 0 0 1 1.044-.246c.347.158.54.58.338.87-1.107 1.39-3.835 1.476-4.993-.58-.57-1-.54-2.187-.386-3.187.165-.957.498-2.057 1.285-2.608.865-.65 2.063-.912 3.215-.245.856.462 1.495 1.39 1.325 2.302zM218.897 25.85c.017.783-1.54.883-1.554.03-.06-1.637.25-3.216.008-4.867a2.617 2.617 0 0 0-.104-.464 1.626 1.626 0 0 0-.227.145c-.546.406-1.04.957-1.613 1.36.009.392-.006.813-.01 1.218-.025.855-.105 1.725-.174 2.579-.063.796-1.681.52-1.615-.261.142-1.594.354-3.26.086-4.896a1.458 1.458 0 0 0-.01-.058c-.048.043-.14.088-.187.13-.611.348-1.15.797-1.763 1.13-.053.015-.117.044-.157.059-.034 1.49-.042 2.955-.122 4.417-.028.346-.332.608-.698.42-.381-.204-.56-.695-.54-1.087.117-2.084.077-4.185.153-6.271.04-.348.356-.624.71-.42.395.201.573.694.554 1.086.005.028-.01.028-.007.044 1.23-.811 2.924-1.768 3.519.072.01.058.05.13.059.189.423-.392.843-.797 1.364-1.014.808-.333 1.885-.219 2.19.884.533 1.883.089 3.75.138 5.576M224.288 20.607c-.88-.188-1.74-.088-2.273.564-.507.639-.69 1.637-.518 2.521.116.622.435 1.377 1.131 1.55.76.218 1.497.043 2.124-.289.27-.131.718-.203.924.203.201.377 0 .84-.298.983-.99.493-2.204.9-3.435.436-1.118-.45-1.754-1.609-1.823-2.708-.138-1.436.136-2.899 1.113-3.81.924-.811 2.122-1.144 3.467-.841.938.203.343 1.58-.412 1.39M231.144 19.97c-.42.913-.847 1.955-1.478 2.767.253.274.475.608.65.826.478.622.972 1.259 1.325 1.969.387.826-.559 1.68-1.05.637 0 0-.037-.057-.12-.217-.087-.116-.165-.247-.251-.347-.2-.29-.4-.566-.61-.826-.164-.247-.354-.464-.528-.681a4.495 4.495 0 0 1-.241-.275c-.05-.043-.078-.058-.078-.058-.047-.03-.062-.043-.096-.072a4.271 4.271 0 0 1-.447.246c-.08.013-.144.044-.201.044-.022.796.002 1.622.052 2.433.062 1.057-1.178.709-1.251-.247-.142-2.303-.103-4.606.247-6.793.168-1.014 1.39-.174 1.247.637-.1.666-.181 1.362-.231 2.07.99-.752 1.497-2.156 2.002-3.228.168-.333.57-.333.825-.06.32.335.4.827.234 1.175M237.714 19.535c.312 2.071-.24 4.042.093 6.155.113.856-1.101 1.261-1.28.175l-.006-.043c-.74.666-1.73 1.173-2.633.579-.956-.652-1.212-2.043-1.275-3.013-.081-1.26.097-2.462.076-3.694-.031-1.028 1.195-.854 1.21.174.005 1.043-.148 2.057-.1 3.114 0 .42-.018 1.753.519 1.971.432.173.93-.175 1.216-.392.358-.275.643-.579.908-.912.064-1.304.213-2.593-.003-3.912-.115-.868 1.11-1.288 1.275-.202M240.347 17.16c-.173-.797 1.27-1.246 1.468-.377.112.507.35.522.738.42.424-.13.759-.377 1.055-.695.58-.609 1.675.203 1.026.912-.914.956-3.704 2.1-4.287-.26zm4.77 2.94c-.237.768-.26 1.637-.187 2.506.218.145.354.376.236.68-.041.087-.09.204-.147.291.108.912.256 1.811.273 2.68 0 .766-1.581.622-1.598-.247a7.6 7.6 0 0 0-.048-.797c-.182.16-.367.304-.58.45-.648.462-1.657 1.173-2.61.637-.798-.464-.875-1.435-.97-2.188-.171-1.463.015-2.867-.05-4.272-.03-.783 1.52-.754 1.58.13.058 1.1-.06 2.172-.018 3.273.019.45.053.913.144 1.376.023.145.048.377.117.551.077-.044.155-.073.19-.116.317-.189.618-.39.9-.623.389-.347.805-.696 1.09-1.159-.155-1.203-.238-2.376.106-3.418.105-.377.452-.55.867-.478.287.044.837.347.705.723zM258.086 26.082c-.271.55-.341 1.145-.434 1.768-.025.347-.284.723-.676.622-.409-.116-.548-.622-.505-.956.028-.333.062-.637.149-.955-.348 0-.647-.044-.931-.334a1.19 1.19 0 0 1-.323-.522 4.82 4.82 0 0 1-1.795.595c-.697.072-1.665.116-2.116-.682-.512-.912-.364-2.216-.301-3.099.048-.985.236-1.956.028-2.969-.163-.826 1.423-.826 1.573 0 .323 1.55-.144 3.027-.044 4.562.017.19-.002.753.106.986.097 0 .195 0 .29-.015.705-.116 1.323-.42 1.869-.826.11-.087.242-.13.361-.173.016-1.595-.054-3.2.182-4.736.042-.334.284-.725.704-.624.38.116.552.652.509.985-.305 1.694-.108 3.491-.21 5.244h.043c.11 0 .204-.03.287-.03.215-.043.41-.043.624-.014.536.044.814.724.61 1.173M262.584 20.317c-.549-.29-1.114-.174-1.446.261-.33.45-.56 1-.658 1.594.39 0 .763-.015 1.169-.088.434-.073 1.273-.13 1.497-.55.21-.406-.139-1.015-.562-1.217zm2.155 1.26c-.198 1-1.212 1.433-2.102 1.608-.74.16-1.506.232-2.272.232.009.39.075.796.216 1.144.442 1 1.694 1.506 2.329.71a.874.874 0 0 1 1.045-.246c.347.158.54.58.338.87-1.107 1.39-3.834 1.476-4.993-.58-.569-1-.54-2.187-.385-3.187.162-.957.497-2.057 1.283-2.608.867-.65 2.063-.912 3.216-.245.856.462 1.495 1.39 1.325 2.302zM271.972 19.927c-.321.84-.358 1.796-.311 2.767.002.013.038.057.042.086.04.159.043.26-.036.376.07.928.18 1.855.145 2.739-.03.752-1.53 1.028-1.487.1.045-.825-.013-1.694-.096-2.535-.691.03-1.394.073-2.087.088-.047.899-.164 1.796-.314 2.664-.126.754-1.706.29-1.565-.55.168-.84.262-1.71.286-2.578a.873.873 0 0 1-.12-.304c.007-.13.044-.247.146-.304a34.105 34.105 0 0 0-.063-2.071.604.604 0 0 1-.078-.305c.015-.087.014-.173.022-.29-.007-.811 1.547-.58 1.614.247.068.753.107 1.506.092 2.26.677-.03 1.335-.087 2.013-.117-.02-.882.048-1.738.377-2.535.149-.362.498-.607.912-.535.373.058.644.435.508.797M282.704 25.85c.017.783-1.54.883-1.554.03-.06-1.637.251-3.216.008-4.867a2.617 2.617 0 0 0-.104-.464 1.619 1.619 0 0 0-.227.145c-.546.406-1.04.957-1.613 1.36.009.392-.006.813-.009 1.218-.026.855-.106 1.725-.175 2.579-.063.796-1.681.52-1.615-.261.142-1.594.355-3.26.086-4.896a1.458 1.458 0 0 0-.01-.058c-.048.043-.139.088-.187.13-.611.348-1.15.797-1.763 1.13-.053.015-.117.044-.157.059-.034 1.49-.043 2.955-.122 4.417-.027.346-.332.608-.698.42-.381-.204-.56-.695-.54-1.087.117-2.084.078-4.185.153-6.271.041-.348.356-.624.71-.42.395.201.573.694.554 1.086.005.028-.008.028-.007.044 1.23-.811 2.924-1.768 3.52.072.009.058.049.13.058.189.423-.392.843-.797 1.364-1.014.808-.333 1.885-.219 2.191.884.532 1.883.088 3.75.137 5.576M287.725 20.724c-.387.014-.75.086-1.101.245-.29.102-.555.262-.78.507a28.42 28.42 0 0 1-.067 3.477c1.713.435 3.3-1.26 3.174-2.956-.05-.723-.454-1.318-1.226-1.273zm2.48.956c.167 2.447-1.852 5.488-4.534 4.837a30.31 30.31 0 0 0-.115 2.173c-.015.42-.277.766-.675.81-.337.074-.703-.216-.697-.607.089-2.926.646-5.81.166-8.808-.074-.448.105-.797.465-.984.274-.102.776-.015.845.405.015.087.028.174.034.29a3.503 3.503 0 0 1 2.277-.623c1.323.087 2.123 1.232 2.234 2.507zM79.536 27.055c-26.254-3.36-50.264 15.198-53.624 41.454-1.752 13.682 2.458 26.748 10.602 36.606 3.293-3.224 9.007-8.75 10.106-9.393 1.559-.91 2.91-1.938 2.91-1.938s-.634-3.753.374-8.14c1-4.357 1.968-5.607 2.153-6.97.25-1.883.395-5.876-.363-7.614-.913-2.1-1.168-3.645.255-4.682 1.427-1.04 4.116.724 5.325 3.517 1.209 2.794 1.076 3.796 1.076 3.796s1.248-4.952 2.71-7.724c1.464-2.774 3.262-6.841 3.953-8.588.689-1.75 1.446-3.713 3.326-3.604 1.88.107 3.824 1.194 2.235 4.909-1.591 3.716-1.831 4.752-2.095 6.056-.263 1.304-1.176 6.454-1.383 6.89-.21.439.299.572.51.352.213-.22 2.895-3.597 4.52-5.505 1.623-1.91 4.689-5.231 5.324-6.038.634-.808 2.105-3.147 3.987-3.038 1.88.106 2.779 1.752 2.447 3.275-.333 1.524-1.535 2.848-2.313 3.73-.778.882-3.456 5.495-3.947 6.227-.491.732-3.212 4.815-3.212 4.815l.354.659s3.214-1.941 4.498-2.76c1.287-.82 6.74-5.322 8.023-5.804 2.222-.838 4.672 1.877 3.18 3.84-1.34 1.76-3.089 3.123-3.727 3.714-.64.589-3.868 3.76-5.224 4.724-1.352.964-3.06 3.388-2.774 3.866.225.378 2.611.57 4.053.08 2.022-.695 7.303-2.098 8.34-1.826 1.454.383 2.365 2.773.941 3.956-1.422 1.184-4.293 2.192-5.081 2.571-.786.377-5.997 2.295-5.997 2.295s-3.971 2.37-5.973 4.277c-.675 1.176-3.587 5.477-5.644 6.788-1.15.734-2.175 1.258-2.175 1.258s-1.942 4.465-2.865 5.523c-1.615 3.06-4.511 7.247-7.321 11.001a48.058 48.058 0 0 0 10.343 2.521c26.256 3.361 50.265-15.196 53.627-41.453 3.36-26.253-15.2-50.262-41.454-53.623M102.04 7.018l-1.948 7.037-2.27 7.1-.01.027a4.821 4.821 0 0 1-6.064 3.124 4.822 4.822 0 0 1-2.663-7.084s1.846-3.06 3.69-6.124l3.51-6.4.008-.017a3.125 3.125 0 0 1 4.24-1.236 3.127 3.127 0 0 1 1.507 3.573M47.705 142.1l1.583-7.016 1.982-7.237a4.843 4.843 0 0 1 5.949-3.39 4.843 4.843 0 0 1 2.976 6.98l-.188.341s-1.652 3.002-3.302 6.005c-1.582 3.214-3.166 6.427-3.166 6.427a3.123 3.123 0 0 1-5.846-2.064l.012-.047zM140.759 103.242s-.87-.22-2.175-.547c-.325-.084-.679-.172-1.053-.266-.365-.082-.8-.248-1.225-.377l-2.7-.881-2.487-.839c-.803-.282-1.504-.475-2.121-.67l-2.04-.626-.149-.044a4.744 4.744 0 1 1 3.782-8.635l2.031 1.185c.598.356 1.337.768 2.035 1.215l2.247 1.399 2.07 1.27c.343.2.626.409.983.583a4581.312 4581.312 0 0 1 2.955 1.532l.009.004a3.067 3.067 0 0 1-2.162 5.697M7.64 47.343l1.997.414c.597.12 1.304.28 2.038.406l2.32.43 2.487.547c.799.172 1.522.409 2.156.576 1.266.357 2.109.597 2.109.597a4.84 4.84 0 1 1-2.631 9.316 4.957 4.957 0 0 1-1.128-.478l-.17-.103-1.622-.96c-.494-.28-1.052-.652-1.69-.973l-1.995-1.032c-.75-.354-1.498-.71-2.2-1.043-.713-.326-1.336-.653-1.887-.925L5.6 53.203a3.13 3.13 0 0 1 2.03-5.863l.01.003zM132.11 31.983l-1.53 1.488c-.923.892-2.136 2.083-3.374 3.27-2.618 2.326-5.235 4.654-5.235 4.654a4.828 4.828 0 0 1-6.816-.399 4.828 4.828 0 0 1 1.363-7.485l.043-.02 5.902-3.062c1.48-.837 2.957-1.7 4.065-2.336l1.848-1.065a3.126 3.126 0 0 1 3.743 4.947l-.01.008zM13.924 115.222s.603-.65 1.504-1.626l.73-.786c.27-.279.498-.574.76-.88l1.613-1.906 1.862-2.052c.57-.672 1.251-1.225 1.766-1.736l1.797-1.677a4.841 4.841 0 0 1 6.84.233 4.841 4.841 0 0 1-1.136 7.507l-.29.162-1.717.969c-.512.311-1.14.586-1.772 1.05-.644.433-1.33.897-2.016 1.36-.746.542-1.49 1.084-2.19 1.591-.349.25-.689.514-1.004.713l-.894.592-1.845 1.223a3.125 3.125 0 0 1-4.02-4.724l.012-.013zM118.09 130.833l-5.06-5.08c-2.503-2.733-5.006-5.47-5.006-5.47a4.835 4.835 0 1 1 7.79-5.621l.11.202 3.338 6.048 3.723 6.108a3.125 3.125 0 0 1-4.878 3.833l-.018-.02zM29.966 15.526l1.69 1.598c.507.478 1.098 1.048 1.733 1.592l1.99 1.76c.712.67 1.425 1.338 2.094 1.965.681.605 1.263 1.3 1.785 1.845l1.73 1.876a4.836 4.836 0 1 1-7.745 5.694l-.159-.28-1.039-1.822c-.327-.547-.642-1.205-1.128-1.883-.458-.688-.948-1.419-1.437-2.154-.555-.777-1.108-1.556-1.628-2.285-.535-.732-.974-1.409-1.36-1.99l-1.284-1.934a3.122 3.122 0 0 1 4.744-3.998l.014.016zM145.827 65.706l-2.143.559c-.321.083-.67.173-1.037.27-.354.104-.801.173-1.232.263l-2.745.533-2.556.468c-.831.142-1.532.308-2.168.432-1.248.26-2.082.432-2.082.432l-.12.024a4.83 4.83 0 1 1-.811-9.558s.92.03 2.3.08c.68.03 1.51.04 2.328.096l2.6.15 2.405.12c.392.014.74.054 1.135.035l1.073-.017 2.214-.034a3.122 3.122 0 0 1 3.176 3.071 3.13 3.13 0 0 1-2.337 3.076M2.722 82.801l1.882-.625c.56-.19 1.238-.397 1.912-.65.342-.126.694-.252 1.053-.383.361-.13.731-.26 1.098-.392l2.375-.756c.762-.244 1.484-.395 2.102-.563l2.072-.526a4.843 4.843 0 1 1 1.124 9.54l-.19-.004-1.83-.036c-.55 0-1.202-.044-1.889-.014-.69.03-1.429.059-2.167.09-.807.062-1.612.125-2.368.185-.765.07-1.445.089-2.043.125l-1.98.108a3.132 3.132 0 0 1-3.295-2.958 3.142 3.142 0 0 1 2.144-3.14M85.084 144.289l-.583-2.045c-.347-1.23-.822-2.86-1.277-4.506l-1.618-6.826a4.833 4.833 0 1 1 9.537-1.06l-.003.124-.112 6.59c.036 1.694.097 3.399.13 4.67l.062 2.125a3.126 3.126 0 0 1-6.13.95l-.006-.022zM63.46 2.868l.718 2.014.348.974c.115.363.273.67.424 1.01.15.335.308.681.468 1.033.16.363.313.68.48 1.085l1.002 2.549c.173.402.302.815.405 1.225l.313 1.137.636 2.38a4.846 4.846 0 1 1-9.528 1.353l-.006-.423-.03-1.81c-.001-.276-.004-.575-.007-.891a5.186 5.186 0 0 0-.068-1.017 810.01 810.01 0 0 0-.285-2.264l-.453-2.663c-.07-.424-.155-.847-.176-1.203l-.098-1.028-.203-2.127a3.124 3.124 0 0 1 6.055-1.349l.005.015zM182.022 62.724c-1.211 8.503-8.328 11.084-15.383 8.905.01-.08.03-.15.035-.233.336-6.677.577-13.358.688-20.04 7.949-1.498 16.004 1.926 14.66 11.368zm-4.433-27.537c1.134 5.858-5.296 8.757-10.16 9.47a402.86 402.86 0 0 0-.212-14.217c4.469-1.259 9.306-.765 10.372 4.747zm6.415 13.71a13.42 13.42 0 0 0-4.174-2.982c3.075-2.89 4.864-6.887 4.163-11.938-1.422-10.242-12.39-12.547-20.683-9.122a3.394 3.394 0 0 0-1.742 1.577c-.608.527-1.001 1.324-.962 2.396.519 14.088.22 28.182-.48 42.258-1.516 1.383-1.89 3.975.455 5.126 6.095 2.99 12.64 4.207 18.927 1.095 5.02-2.483 8.17-8.107 8.934-13.481.775-5.442-.621-10.89-4.438-14.928zM202.854 50.715c2.73-2.003 8.62-2.829 7.765 2.095-.972 5.592-6.745 7.024-11.52 5.75a3.516 3.516 0 0 0-.895-.114c.665-3.077 2.24-5.963 4.65-7.731zm13.86 23.086c2.915-3.065-1.718-7.715-4.64-4.641-4.961 5.22-11.736 3.092-13.693-3.481-.058-.194-.102-.397-.15-.596 8.3 1.798 17.25-2.091 18.83-11.18 1.62-9.331-7.427-13.29-15.144-10.087-9.192 3.813-12.245 15.613-9.602 24.49 3.289 11.046 16.676 13.625 24.4 5.495zM229.09 70.942c-.098-.032-.187-.039-.281-.062.225-7.029.118-14.068-.226-21.11 16.062-5.918 18.612 27.123.506 21.172zm-1.714 18.425c.504-3.912.859-7.831 1.112-11.754 11.973 3.224 20.559-5.77 19.797-17.918-.346-5.517-2.635-11.144-7.087-14.577-5.133-3.96-11.466-3.13-17.016-.57-.543.251-.928.584-1.203.958-.666.524-1.102 1.344-1.04 2.482.747 13.822.643 27.635-1.126 41.379-.539 4.19 6.03 4.137 6.563 0zM277.331 71.568c-9.125 3.164-5.572-17.874-3.474-22.81 13.057-3.219 14.626 18.945 3.474 22.81zm-19.186 3.622c.217-4.209.504-8.444.674-12.681 2.094-.269 4.211-.233 6.32-.004.232 10.598 4.465 20.149 16.548 14.364 16.874-8.078 10.348-40.568-10.255-34.27a3.217 3.217 0 0 0-1.545.997c-.6.24-1.142.701-1.526 1.47-1.333 2.662-2.387 6.64-2.898 10.932-2.177-.21-4.344-.257-6.509-.07-.013-3.57-.181-7.132-.644-10.672-.541-4.135-7.11-4.188-6.564 0 1.296 9.912.348 19.998-.165 29.934-.218 4.232 6.347 4.211 6.564 0zM204.501 92.438c-.319 7.357-.768 14.706-1.036 22.06-.11.044-.22.073-.334.13-5.99 3.074-10.432 3.015-11.97-4.082-1.255-5.779-.187-12.356 1.22-18.008 1.023-4.109-5.307-5.85-6.329-1.745-1.935 7.77-3.128 16.942-.325 24.641 3.033 8.328 10.576 8.841 17.552 6.257-.062 4.098-.046 8.198.13 12.303.18 4.216 6.743 4.233 6.563 0-.59-13.877.492-27.7 1.092-41.556.184-4.233-6.38-4.216-6.563 0M236.952 105.185c.051-4.234-6.512-4.229-6.564 0-.094 7.747.5 15.478.302 23.221-.03.023-.063.037-.093.062-2.219 1.846-5.057 3.176-7.85 1.768-2.745-1.38-2.585-5.463-2.694-8.02-.233-5.399.127-10.985 1.01-16.315.688-4.139-5.637-5.913-6.328-1.744-.7 4.22-1.052 8.48-1.225 12.753-.168 4.14-.524 9.391 1.18 13.286 3.048 6.966 9.59 8.231 15.504 5.906-.4 3.246-1.218 6.604-3.159 8.845-2.55 2.944-6.695 2.055-8.332-1.15-1.926-3.772-7.588-.45-5.668 3.312 4.665 9.135 16.757 7.24 21.105-1.07 2.951-5.637 3.044-13.21 3.178-19.404.155-7.152-.453-14.298-.366-21.45M257.411 127.43c-1.13 2.567-2.946 3.963-5.802 3.37-3.314-.687-3.856-6.109-4.08-8.74-.65-7.593 2.364-16.438 11.375-11.973.336.166.665.255.99.311-.022 7.016-1.197 14.111-2.483 17.032zm-13.62-38.524c-3.574 2.246-.283 7.927 3.311 5.668 7.773-4.885 11.226.716 12.351 8.71-10.696-3.55-18.26 4.408-18.585 15.902-.149 5.321.92 10.733 4.228 14.974 3.13 4.014 9.405 4.16 13.503 1.828 4.34-2.469 5.918-8.226 6.804-12.737 1.45-7.39 1.619-15.257.367-22.675-1.95-11.57-11.294-18.388-21.98-11.67zM171.918 128.224c-1.295 4.91-6.977 3.058-8.29-.704-.8-2.292-1.083-4.757-.989-7.218.844-.022 1.675-.1 2.487-.233.196.017.401.023.622.002 5.13-.494 7.417 3.425 6.17 8.153zm-3.13-20.628c3.962-1.116.32 4.336-.99 5.251-1.25.873-2.7 1.224-4.177 1.339.162-.57.336-1.134.53-1.683.794-2.255 2.285-4.247 4.636-4.907zm4.594 8.428a14.108 14.108 0 0 0 3.188-4.82c2.278-5.654-3.266-10.366-8.435-9.622-11.207 1.614-12.268 16.613-10.922 25.294 1.478 9.538 13.288 14.72 19.35 5.776 3.921-5.788 1.79-13.098-3.18-16.628zM282.488 129.679c-4.045 4.159-7.062-3.401-7.666-6.31-.88-4.24-.559-11.802 3.464-14.52.371-.25.65-.543.876-.857.03 0 .055.009.085.007 9.714-.2 7.843 16.95 3.241 21.68zm-3.24-28.243c-1.117.022-1.93.503-2.458 1.188-.574-.023-1.19.135-1.817.557-11.979 8.096-7.556 41.555 9.913 32.834 12.618-6.3 10.415-34.91-5.639-34.58z"/></g></symbol><symbol id="icon-search" viewBox="0 0 18 18"><path d="M11 0a6.5 6.5 0 0 0-6.5 6.5c0 1.61.59 3.09 1.56 4.23l-.27.27H5l-5 5 1.5 1.5 5-5v-.79l.27-.27C7.91 12.41 9.39 13 11 13a6.5 6.5 0 1 0 0-13zm0 2c2.5 0 4.5 2 4.5 4.5S13.5 11 11 11 6.5 9 6.5 6.5 8.5 2 11 2z"/></symbol><symbol id="icon-te-st" viewBox="0 0 99 40"><g><path d="M10.895 20.245a2 2 0 0 1-1.4-2.394l-1.394-.805c-.359.343-.845.554-1.381.554a1.994 1.994 0 0 1-1.42-.592l-1.369.79A2.003 2.003 0 0 1 2 20.32a2 2 0 1 1 1.347-3.479l1.418-.818a2 2 0 0 1 3.33-1.875l2.785-1.607V9.28a1.998 1.998 0 0 1-.828-.481l-1.392.87a2 2 0 1 1-3.885.027l-1.451-.838a1.996 1.996 0 0 1-.764.422v1.678a2 2 0 1 1-1.12 0V9.281A2 2 0 1 1 3.428 5.96l1.333-.833a2 2 0 1 1 .528.99l-1.331.833a2.009 2.009 0 0 1-.035.962l1.406.811c.36-.348.85-.563 1.391-.563.53 0 1.013.207 1.371.544l1.404-.877a2.005 2.005 0 0 1 1.465-2.409V3.942A2 2 0 1 1 12 3.921v1.518a2 2 0 0 1 0 3.842v3.306l2.653 1.532c.256-.26.582-.451.947-.541v-1.476a2 2 0 1 1 1.85-3.399l1.389-.868a2.01 2.01 0 0 1 .022-.888l-1.434-.828a2 2 0 1 1 .584-.956l1.42.82a2 2 0 1 1 1.93 3.378l-.001 1.518a2 2 0 1 1-1.04-.021V9.382a1.998 1.998 0 0 1-.959-.553l-1.342.84a2.004 2.004 0 0 1-1.379 2.412v1.518a2 2 0 0 1 1.366 2.462l1.41.815a2 2 0 1 1-.56.97l-1.444-.834a2 2 0 0 1-3.29-1.906l-2.722-1.572-2.74 1.581a2.004 2.004 0 0 1 .003.962l1.39.802a2 2 0 1 1 1.896 3.375v2.62l2.279-1.317a2.003 2.003 0 0 1 1.932-2.517 2 2 0 1 1-1.4 3.428l-2.811 1.624v4.783h10.34a.352.352 0 0 1 0 .703H11.985c.182 1.334 1.447 1.512 3.42 1.674 1.924.157 4.103.336 4.69 2.502a.264.264 0 0 1-.255.334.263.263 0 0 1-.254-.196c-.442-1.632-2.03-1.917-3.685-2.068.045.05.087.101.126.155.316.427.81.626 1.334.836.656.264 1.334.537 1.641 1.286a.264.264 0 1 1-.487.2c-.223-.543-.745-.753-1.35-.996a7.767 7.767 0 0 1-.682-.301c.065.246.117.496.166.74.088.44.171.858.331 1.208a.264.264 0 0 1-.48.22c-.185-.406-.278-.873-.368-1.324-.216-1.08-.403-2.012-1.693-2.154l-.01-.002c-.915-.103-1.768-.285-2.327-.776.262.613.652 1.061 1.035 1.499.158.181.318.364.467.558l.009.007c.157.204.34.377.535.562.26.245.532.504.754.852.005.007.01.012.014.02.293.466 1.156 1.418 1.703 1.727a.264.264 0 0 1-.258.46c-.308-.174-.677-.497-1.015-.844.032.325.032.694-.014 1.127a.263.263 0 0 1-.262.236l-.028-.001a.264.264 0 0 1-.234-.29c.128-1.21-.109-1.851-.471-2.324.16.822.056 1.91-.553 3.493a.264.264 0 1 1-.492-.19c1.18-3.065.378-3.983-.551-5.045-.368-.422-.761-.873-1.05-1.477.083 1.033.216 1.881.332 2.616.35 2.212.56 3.548-1.174 5.988a.262.262 0 0 1-.367.062.264.264 0 0 1-.062-.368c1.274-1.793 1.422-2.909 1.26-4.363-.107.186-.233.341-.357.494-.329.407-.64.793-.575 1.874a.264.264 0 0 1-.247.28h-.016a.264.264 0 0 1-.263-.248c-.078-1.286.331-1.791.692-2.238.36-.445.67-.829.483-2.083a28.944 28.944 0 0 1-.222-1.844c-.283.577-.751 1.206-1.528 1.862-.928.782-.676 1.636-.385 2.623.19.647.388 1.316.265 2.011a.263.263 0 1 1-.519-.091c.1-.574-.078-1.182-.251-1.77a9.547 9.547 0 0 1-.216-.822l-.067.31c-.195.912-.396 1.856-1.619 2.658a.264.264 0 0 1-.288-.441c1.04-.683 1.203-1.444 1.391-2.327.082-.383.17-.79.343-1.202l-.223.132c-.772.458-1.198.709-1.369 1.68a.263.263 0 1 1-.519-.09c.213-1.212.803-1.56 1.62-2.044.43-.255.92-.543 1.496-1.03.911-.769 1.354-1.481 1.57-2.108-.07.086-.144.169-.226.246-.784.735-2.06 1.051-3.796.945-.77.142-.857.562-.975 1.488-.107.842-.24 1.89-1.16 2.98a.261.261 0 0 1-.371.031.264.264 0 0 1-.032-.371c.82-.972.942-1.934 1.04-2.706.069-.537.136-1.055.44-1.43a5.778 5.778 0 0 0-.783.103c-.674.28-.703.634-.754 1.273-.035.428-.078.96-.364 1.55a.263.263 0 0 1-.352.121.264.264 0 0 1-.122-.353c.243-.5.28-.956.312-1.36.023-.282.046-.558.135-.813-1.014.587-1.173 1.451-1.183 1.509a.264.264 0 0 1-.52-.087c.13-.775.845-1.924 2.656-2.331l.007-.004a.26.26 0 0 1 .095-.02 7.292 7.292 0 0 1 1.929-.109c1.58.104 2.768-.173 3.437-.8.372-.35.529-.748.586-1.09H.555a.351.351 0 0 1 0-.704h10.34v-4.783l-2.82-1.629c-.22.216-.492.38-.794.472a2 2 0 1 1 1.144-2.8 1.936 1.936 0 0 1 .177 1.413l2.292 1.326v-2.63zm6.213 1.392a1.12 1.12 0 0 0-1.938-1.12l.03.018a1.062 1.062 0 0 0 .002 1.07 1.07 1.07 0 0 0 1.85 0l.056.032zm-10.122.469a1.12 1.12 0 1 0-1.281-.45l.086-.05a1.068 1.068 0 0 0 1.195.5zm5.405-3.194a1.12 1.12 0 1 0-1.912-.016l.016-.01a1.07 1.07 0 0 0 1.852 0l.044.026zM2 8.48a1.12 1.12 0 1 0 0-2.24 1.12 1.12 0 0 0 0 2.24zM2 14a1.12 1.12 0 1 0 0-2.24A1.12 1.12 0 0 0 2 14zm4.72-8.16a1.12 1.12 0 1 0 0-2.24 1.12 1.12 0 0 0 0 2.24zm4.72-2.72a1.12 1.12 0 1 0 0-2.24 1.12 1.12 0 0 0 0 2.24zm0 5.36a1.12 1.12 0 1 0 0-2.24 1.12 1.12 0 0 0 0 2.24zm-4.72 2.8a1.12 1.12 0 1 0 0-2.24 1.12 1.12 0 0 0 0 2.24zm9.36-5.52a1.12 1.12 0 1 0 0-2.24 1.12 1.12 0 0 0 0 2.24zm4.72 2.8a1.12 1.12 0 1 0 0-2.24 1.12 1.12 0 0 0 0 2.24zm0 5.36a1.12 1.12 0 1 0 0-2.24 1.12 1.12 0 0 0 0 2.24zm-4.72-2.64a1.12 1.12 0 1 0 0-2.24 1.12 1.12 0 0 0 0 2.24zm0 5.36a1.12 1.12 0 1 0 0-2.24 1.12 1.12 0 0 0 0 2.24zm4.72 2.8a1.12 1.12 0 1 0 0-2.24 1.12 1.12 0 0 0 0 2.24zM6.72 16.72a1.12 1.12 0 1 0 0-2.24 1.12 1.12 0 0 0 0 2.24zM2 19.44a1.12 1.12 0 1 0 0-2.24 1.12 1.12 0 0 0 0 2.24zM36.18 4.56v-.68H31.3v.68h2.06V11h.76V4.56h2.06zM41.93 11v-.68h-3.66V7.75h3.12v-.68h-3.12V4.56h3.66v-.68h-4.42V11h4.42zm6.47 0V3.88h-4.89V11h.76V4.56h3.37V11h.76zm6.78 0V3.88h-3.92v2.89c0 2.96-.63 3.55-1.51 3.55h-.19V11h.36C51.28 11 52 10 52 7V4.56h2.42V11h.76zm7.16 0V3.88h-.72L58 9.68v-5.8h-.76V11h.72l3.62-5.81V11h.76zm7.8 1.72v-2.4h-.85V3.88h-.76v6.44h-3.37V3.88h-.76V11h4.99v1.72h.75zm6.4-1.72l-2.61-7.12h-.64L70.67 11h.81l.57-1.61h3.11l.57 1.61h.81zm-1.6-2.27h-2.66l1.34-3.76 1.32 3.76zM36.72 20.04h-.76c-.19.87-.82 1.44-1.71 1.44-.47 0-.92-.18-1.23-.5-.45-.46-.5-.95-.5-2.44s.05-1.98.5-2.44c.31-.32.76-.5 1.23-.5.89 0 1.5.57 1.69 1.44h.78c-.24-1.34-1.19-2.12-2.47-2.12-.7 0-1.34.26-1.82.74-.67.67-.67 1.37-.67 2.88 0 1.51 0 2.21.67 2.88.48.48 1.12.74 1.82.74 1.27 0 2.24-.78 2.47-2.12zm6.19-1.99c0-.87-.05-1.77-.67-2.39-.48-.48-1.12-.74-1.82-.74s-1.34.26-1.82.74c-.61.61-.67 1.48-.67 2.33v.55c0 1.42.02 2.23.67 2.88.48.48 1.11.74 1.82.74s1.34-.26 1.82-.74c.65-.65.67-1.46.67-2.88v-.49zm-.76.84c0 .82-.01 1.59-.5 2.08-.33.33-.76.51-1.23.51s-.9-.18-1.23-.51c-.46-.46-.5-1.16-.5-1.93v-.71c0-.98 0-1.72.5-2.22.33-.33.77-.51 1.23-.51.46 0 .9.18 1.23.51.47.47.5 1.21.5 2.05v.73zm8.29 4.93v-2.4h-.85v-6.44h-.76v6.44h-3.37v-6.44h-.76v7.12h4.99v1.72h.75zm6.54-1.72v-7.12h-.72l-3.62 5.8v-5.8h-.76v7.12h.72l3.62-5.81v5.81h.76zm7.02 0l-2.61-7.12h-.64l-2.62 7.12h.81l.57-1.61h3.11l.57 1.61H64zm-1.6-2.27h-2.66l1.34-3.76 1.32 3.76zm7.46 2.27v-7.12h-3.92v2.89c0 2.96-.63 3.55-1.51 3.55h-.19v.68h.36c1.36 0 2.08-1 2.08-4v-2.44h2.42v6.44h.76zm6.93-2.09c0-1.26-.87-2.1-2.2-2.1h-1.91v-2.93h-.76v7.12h2.67c1.32 0 2.2-.84 2.2-2.09zm-.77 0c0 .89-.55 1.41-1.5 1.41h-1.84v-2.83h1.84c.95 0 1.5.52 1.5 1.42zm7.1 2.09v-7.12h-.76v3.19h-3.38v-3.19h-.76v7.12h.76v-3.25h3.38v3.25h.76zm8.64 0v-7.12H91v7.12h.76zm-1.71-2.09c0-1.26-.87-2.1-2.2-2.1h-1.91v-2.93h-.76v7.12h2.67c1.32 0 2.2-.84 2.2-2.09zm-.77 0c0 .89-.55 1.41-1.5 1.41h-1.84v-2.83h1.84c.95 0 1.5.52 1.5 1.42zm8.87 2.09l-2.2-3.65L98 14.98h-.88l-1.58 2.81-1.58-2.81h-.88l2.04 3.47-2.18 3.65h.86l1.74-2.99 1.73 2.99h.88zM36.18 27.56v-.68H31.3v.68h2.06V34h.76v-6.44h2.06zM41.93 34v-.68h-3.66v-2.57h3.12v-.68h-3.12v-2.51h3.66v-.68h-4.42V34h4.42zm5.91 0l-2.2-3.65 2.05-3.47h-.88l-1.58 2.81-1.58-2.81h-.88l2.04 3.47L42.63 34h.86l1.74-2.99L46.96 34h.88zm6.08 0v-7.12h-.76v3.19h-3.38v-3.19h-.76V34h.76v-3.25h3.38V34h.76zm6.77-4.05c0-.87-.05-1.77-.67-2.39-.48-.48-1.12-.74-1.82-.74s-1.34.26-1.82.74c-.61.61-.67 1.48-.67 2.33v.55c0 1.42.02 2.23.67 2.88.48.48 1.11.74 1.82.74s1.34-.26 1.82-.74c.65-.65.67-1.46.67-2.88v-.49zm-.76.84c0 .82-.01 1.59-.5 2.08-.33.33-.76.51-1.23.51s-.9-.18-1.23-.51c-.46-.46-.5-1.16-.5-1.93v-.71c0-.98 0-1.72.5-2.22.33-.33.77-.51 1.23-.51.46 0 .9.18 1.23.51.47.47.5 1.21.5 2.05v.73zM66.99 34v-7.12h-3.92v2.89c0 2.96-.63 3.55-1.51 3.55h-.19V34h.36c1.36 0 2.08-1 2.08-4v-2.44h2.42V34h.76zm6.77-4.05c0-.87-.05-1.77-.67-2.39-.48-.48-1.12-.74-1.82-.74s-1.34.26-1.82.74c-.61.61-.67 1.48-.67 2.33v.55c0 1.42.02 2.23.67 2.88.48.48 1.11.74 1.82.74s1.34-.26 1.82-.74c.65-.65.67-1.46.67-2.88v-.49zm-.76.84c0 .82-.01 1.59-.5 2.08-.33.33-.76.51-1.23.51s-.9-.18-1.23-.51c-.46-.46-.5-1.16-.5-1.93v-.71c0-.98 0-1.72.5-2.22.33-.33.77-.51 1.23-.51.46 0 .9.18 1.23.51.47.47.5 1.21.5 2.05v.73zm6.9-3.23v-.68h-4.28V34h.76v-6.44h3.52zM86.34 34v-7.12h-.72L82 32.68v-5.8h-.76V34h.72l3.62-5.81V34h.76zm7.16 0v-7.12h-.72l-3.62 5.8v-5.8h-.76V34h.72l3.62-5.81V34h.76zm-1.09-8.83h-.64c-.04.49-.33.74-.82.74-.49 0-.78-.25-.82-.74h-.64c.06.89.63 1.26 1.46 1.26s1.4-.37 1.46-1.26z"/></g></symbol><symbol id="icon-telegram" viewBox="0 0 32 27"><path d="M29.84.177L1.494 11.11c-1.935.777-1.923 1.856-.353 2.337l7.07 2.206 2.705 8.294c.329.907.166 1.267 1.12 1.267.735 0 1.061-.335 1.471-.735.26-.255 1.808-1.76 3.535-3.438l7.353 5.433c1.353.746 2.33.36 2.667-1.257L31.89 2.47c.494-1.981-.756-2.88-2.05-2.293zM9.32 15.147L25.255 5.092c.795-.482 1.525-.223.926.309l-13.644 12.31-.532 5.667-2.685-8.233z"/></symbol><symbol id="icon-twitter" viewBox="0 0 32 26"><path d="M31.528 3.033a12.87 12.87 0 0 1-3.715 1.018A6.48 6.48 0 0 0 30.657.472a12.948 12.948 0 0 1-4.107 1.57 6.468 6.468 0 0 0-11.021 5.9A18.366 18.366 0 0 1 2.194 1.184a6.435 6.435 0 0 0-.875 3.252A6.465 6.465 0 0 0 4.197 9.82a6.45 6.45 0 0 1-2.93-.81v.082a6.473 6.473 0 0 0 5.189 6.343 6.503 6.503 0 0 1-2.922.11 6.475 6.475 0 0 0 6.042 4.492 12.976 12.976 0 0 1-8.033 2.77c-.522 0-1.037-.031-1.543-.091a18.304 18.304 0 0 0 9.916 2.906c11.898 0 18.403-9.856 18.403-18.404 0-.28-.005-.56-.018-.838a13.1 13.1 0 0 0 3.227-3.347z"/></symbol><symbol id="icon-up" viewBox="0 0 12 8"><path d="M1.41 8L6 3.41 10.59 8 12 6.58l-6-6-6 6L1.41 8z"/></symbol><symbol id="icon-viber" viewBox="0 0 31 31"><g><path d="M28.046 22.425c-.943-.759-1.951-1.44-2.943-2.136-1.978-1.39-3.788-1.498-5.264.738-.829 1.255-1.99 1.31-3.203.76-3.345-1.518-5.928-3.855-7.44-7.255-.67-1.504-.661-2.852.905-3.916.829-.563 1.664-1.229 1.597-2.458-.087-1.603-3.98-6.96-5.516-7.526C5.546.398 4.912.413 4.266.631.66 1.843-.831 4.807.598 8.317c4.265 10.47 11.771 17.76 22.103 22.208.59.254 1.244.355 1.575.446 2.352.024 5.108-2.243 5.904-4.492.766-2.164-.854-3.023-2.134-4.054zM16.46 1.706c7.554 1.161 11.038 4.753 12 12.36.089.703-.173 1.76.83 1.78 1.047.02.795-1.021.804-1.725C30.182 6.956 23.934.314 16.679.07c-.547.079-1.68-.378-1.75.85-.048.827.906.69 1.532.787z"/><path d="M17.938 3.792c-.726-.088-1.685-.43-1.855.578-.177 1.058.892.95 1.579 1.104 4.665 1.043 6.289 2.741 7.057 7.369.112.674-.11 1.724 1.036 1.55.85-.13.543-1.03.614-1.555.037-4.443-3.77-8.487-8.43-9.046z"/><path d="M18.367 7.425c-.485.012-.961.064-1.14.582-.267.775.296.96.87 1.052 1.913.307 2.92 1.436 3.111 3.344.052.518.38.938.881.878.693-.082.756-.7.735-1.285.034-2.144-2.39-4.623-4.457-4.571z"/></g></symbol><symbol id="icon-vk" viewBox="0 0 32 21"><path d="M.005 1.527c-.219-1.336 6.241-.509 6.241-.509s3.75 9.417 5.228 9.417c1.478 0 .766-7.985.766-7.985s-1.833-.478-1.833-1.21C10.407.51 12.24 0 12.24 0h5.393c.646 0 .903 1.05.903 1.75v8.558h1.478s1.316-2.115 2.354-4.263c1.038-2.149 2.3-5.027 2.3-5.027h6.267s1.15.032 1.013.986c-.186 1.299-4.356 7.466-5.228 9.576-.657 1.59 2.76 3.744 4.215 6.045.945 1.493 1.013 3.245 1.013 3.245h-7.445l-3.723-4.327s-.766-.318-1.368.127c-.603.446-.63 1.337-.63 1.337v2.863h-5.83s-4.461-1.527-8.239-8.208C.936 5.982.224 2.863.005 1.527z"/></symbol><symbol id="icon-whatsapp" viewBox="0 0 32 32"><path d="M16.172 0C7.579 0 .614 6.965.614 15.558c0 2.939.815 5.688 2.232 8.033L.038 31.938l8.614-2.758a15.49 15.49 0 0 0 7.52 1.935c8.592 0 15.557-6.965 15.557-15.557C31.73 6.965 24.764 0 16.172 0zm0 28.637c-2.657 0-5.131-.797-7.197-2.163l-5.026 1.61 1.633-4.858a13.009 13.009 0 0 1-2.49-7.668c0-7.213 5.867-13.08 13.08-13.08 7.212 0 13.08 5.867 13.08 13.08 0 7.212-5.868 13.08-13.08 13.08zm-3.65-19.514c-.251-.608-.444-.628-.834-.647a8.936 8.936 0 0 0-.436-.012c-.502 0-1.022.147-1.335.468-.382.39-1.335 1.304-1.335 3.18 0 1.877 1.367 3.69 1.557 3.944.19.255 2.665 4.161 6.515 5.757 3.005 1.244 3.897 1.133 4.583.983.997-.217 2.25-.952 2.568-1.842.317-.89.317-1.654.222-1.813-.095-.159-.35-.254-.73-.445-.382-.19-2.258-1.113-2.607-1.24-.35-.128-.673-.089-.942.283-.37.514-.728 1.041-1.023 1.354-.232.246-.606.28-.927.144-.422-.18-1.61-.594-3.067-1.893-1.133-1.01-1.899-2.259-2.121-2.64-.223-.382-.02-.61.152-.817.195-.237.376-.407.566-.63.19-.222.297-.341.425-.596.127-.254.041-.517-.054-.708-.096-.19-.86-2.066-1.176-2.83z"/></symbol><symbol id="icon-youtube" viewBox="0 0 24 24"><path d="M10 16.5v-9l6 4.5m4-7.6c-.6-.2-4.3-.4-8-.4s-7.4.19-8 .38C2.44 4.9 2 8.4 2 12c0 3.59.44 7.1 2 7.61.6.2 4.3.39 8 .39s7.4-.19 8-.39c1.56-.51 2-4.02 2-7.61 0-3.6-.44-7.09-2-7.6z"/></symbol></svg>