<svg xmlns="http://www.w3.org/2000/svg"><symbol id="icon-add-cal" viewBox="0 0 18 20"><path d="M16 18V6H2v12h14zM13 0h2v2h1a2 2 0 0 1 2 2v14a2 2 0 0 1-2 2H2a2 2 0 0 1-2-2V4c0-1.11.89-2 2-2h1V0h2v2h8V0zM8 8h2v3h3v2h-3v3H8v-3H5v-2h3V8z"/></symbol><symbol id="pic-logo" viewBox="0 0 174 72"><g fill="none" fill-rule="evenodd"><path d="M26.695 33.035c-1.247.217-2.423-.563-2.63-1.742-.205-1.18.65-2.31 1.891-2.525 1.248-.216 2.425.564 2.63 1.74.201 1.179-.644 2.312-1.89 2.527" fill="#F3F4F4"/><path d="M65.19 2.007c-2.514-2.522-6.605-2.522-9.127 0l-3.739 3.737c2.552-2.102 6.448-2.065 8.823.307 2.269 2.27 2.415 5.981.587 8.54l3.456-3.456a6.452 6.452 0 0 0 0-9.128" fill="#F16521"/><path d="M61.363 5.828a6.448 6.448 0 0 0-9.12 0l-4.505 4.501c2.554-2.1 6.452-2.065 8.82.31 2.268 2.266 2.419 5.978.592 8.536l4.213-4.216a6.452 6.452 0 0 0 0-9.13" fill="#F7931D"/><path d="M57.265 9.935c-2.372-2.372-6.272-2.41-8.82-.309L48 10.07l-3.818 3.816c2.17-1.412 5.917-.555 7.763 1.293 1.89 1.887 2.74 5.868 1.18 8.02l3.986-3.98.743-.746c1.825-2.556 1.679-6.269-.59-8.537" fill="#FBAF17"/><path d="M53.718 13.406c-1.847-1.847-5.592-2.707-7.762-1.291l-.505.502-3.967 3.969c1.738-.993 5.505.654 6.91 2.06 2.01 2.008 3.064 5.536 2.026 7.257l4.104-4.102.377-.373c1.56-2.153.705-6.135-1.183-8.022" fill="#FFCB04"/><path d="M48.669 18.371c-1.408-1.406-5.175-3.05-6.915-2.059l-.313.314-4.134 4.135c1.372-.424 5.113 1.925 6.042 2.854.952.952 3.532 4.558 2.903 6.46l4.094-4.096.35-.347c1.035-1.726-.018-5.253-2.027-7.26" fill="#FFE200"/><path d="M44.077 22.888c-.93-.93-4.667-3.279-6.04-2.856l-.235.235-8.305 8.305c.946.053 3.93 2.244 5.176 3.644 1.137 1.284 3.934 4.4 3.66 5.78l8.422-8.425.225-.225c.63-1.902-1.95-5.504-2.903-6.458" fill="#FFF574"/><path d="M11.581 55.23a6.45 6.45 0 0 1-1.119-7.62L7.79 50.285a6.45 6.45 0 0 0 0 9.129c2.515 2.52 6.602 2.52 9.125 0l3.538-3.542c-2.588 1.926-6.559 1.674-8.87-.642" fill="#F16521"/><path d="M15.707 51.103a6.455 6.455 0 0 1-1.122-7.62l-3.766 3.765a6.456 6.456 0 0 0 9.13 9.129l4.63-4.627c-2.59 1.923-6.56 1.667-8.872-.647" fill="#F7931D"/><path d="M20.2 50.39c-.902-.347-1.71-.827-2.29-1.412-.576-.577-1.06-1.333-1.41-2.165-.71-1.666-.873-3.633-.15-5.09l-2.518 2.514-1.317 1.317a6.46 6.46 0 0 0 1.12 7.622c2.314 2.314 6.285 2.569 8.872.645l.609-.612 2.923-2.923c-1.52.959-3.895.858-5.838.105" fill="#FBAF17"/><path d="M20.98 45.987c-1.402-1.34-2.97-4.97-2.128-6.767l-2.904 2.9-.806.81c-.723 1.455-.554 3.422.152 5.088.352.83.834 1.586 1.409 2.164.584.584 1.396 1.067 2.294 1.413 1.945.75 4.317.854 5.835-.104l.52-.515 2.892-2.895c-2.227 1.274-5.674-.568-7.264-2.094" fill="#FFCB04"/><path d="M25.182 41.86c-1.34-1.163-3.245-4.68-2.87-6.103l-4.26 4.258-.42.421c-.84 1.8.727 5.428 2.126 6.77 1.596 1.527 5.04 3.368 7.265 2.096l.372-.368 4.256-4.26c-2.077.445-4.987-1.523-6.47-2.814" fill="#FFE200"/><path d="M27.188 39.934c-.994-.974-3.567-4.105-3.603-5.454l-3.245 3.248-.298.3c-.375 1.422 1.534 4.936 2.869 6.102 1.482 1.292 4.392 3.26 6.47 2.814l.307-.309 3.031-3.03c-1.278.02-5.055-3.199-5.531-3.67" fill="#FFF574"/><path d="M39.214 27.672c-1.245-1.4-4.226-3.588-5.174-3.64l-.15.15L22.26 35.803l-.103.108c.035 1.347 2.093 4.476 3.08 5.451.48.472 4.768 3.691 6.05 3.673l.121-.12 7.312-7.316 4.153-4.15c.273-1.377-2.524-4.49-3.66-5.778" fill="#FFF8B1"/><path d="M2.65 2.099a6.452 6.452 0 0 0 0 9.128L7.73 16.31c-2.104-2.551-2.06-6.45.308-8.823 2.267-2.266 5.98-2.415 8.54-.587l-4.803-4.801a6.453 6.453 0 0 0-9.127 0" fill="#F16521"/><path d="M8.155 7.603c-2.374 2.371-2.412 6.27-.31 8.822l.443.441 3.816 3.816c-1.409-2.17-.553-5.914 1.291-7.759 1.89-1.89 5.87-2.743 8.023-1.183l-3.982-3.98-.743-.747c-2.555-1.829-6.27-1.68-8.538.59" fill="#FBAF17"/><path d="M12.776 12.3c-1.847 1.847-2.704 5.593-1.291 7.763l.507.506 3.968 3.967c-.994-1.738.654-5.508 2.058-6.914 2.007-2.006 5.535-3.06 7.258-2.027l-4.104-4.1-.373-.376c-2.156-1.56-6.134-.706-8.023 1.181" fill="#FFCB04"/><path d="M17.473 17.079c-1.407 1.406-3.055 5.176-2.06 6.913l.311.312 4.135 4.135c-.424-1.373 1.927-5.112 2.854-6.042.952-.953 4.56-3.535 6.46-2.9l-4.095-4.095-.348-.35c-1.725-1.035-5.248.017-7.257 2.027" fill="#FFE200"/><path d="M21.805 21.489c-.93.927-3.275 4.667-2.857 6.039l.237.236 8.893 8.892c.054-.947 2.24-3.928 3.645-5.173 1.283-1.137 4.397-3.938 5.777-3.66l-9.012-9.012-.223-.225c-1.903-.631-5.508 1.95-6.46 2.903" fill="#FFF574"/><path d="M64.07 64.431a6.449 6.449 0 0 1-7.618 1.12L60.7 69.8a6.455 6.455 0 0 0 9.128-9.129l-5.113-5.112c1.924 2.59 1.67 6.56-.644 8.873" fill="#F16521"/><path d="M59.715 60.075a6.453 6.453 0 0 1-7.62 1.12l4.21 4.209a6.453 6.453 0 0 0 9.126 0 6.453 6.453 0 0 0 0-9.127l-5.073-5.074c1.926 2.588 1.673 6.559-.643 8.872" fill="#F7931D"/><path d="M56.772 53.35c-.347.9-.831 1.709-1.415 2.29-.572.58-1.333 1.06-2.161 1.415-1.672.706-3.634.87-5.09.15l4.204 4.207 1.319 1.319a6.46 6.46 0 0 0 7.621-1.121c2.311-2.314 2.566-6.287.645-8.875l-.61-.608-4.618-4.616c.958 1.523.856 3.897.105 5.839" fill="#FBAF17"/><path d="M51.948 52.153c-1.337 1.399-4.967 2.967-6.766 2.129l2.897 2.9.813.81c1.454.72 3.419.555 5.087-.153.833-.353 1.592-.833 2.166-1.413.582-.581 1.063-1.39 1.412-2.288.75-1.946.854-4.32-.103-5.843l-.516-.514-2.893-2.892c1.269 2.223-.568 5.669-2.097 7.264" fill="#FFCB04"/><path d="M47.751 47.88c-1.167 1.339-4.68 3.243-6.103 2.87l3.112 3.11.422.423c1.798.837 5.428-.73 6.766-2.13 1.529-1.595 3.366-5.041 2.097-7.264l-.369-.37-3.111-3.11c.446 2.078-1.522 4.986-2.814 6.47" fill="#FFE200"/><path d="M41.256 41.305c-.976.991-4.106 3.563-5.452 3.6l5.546 5.546.298.3c1.423.372 4.936-1.533 6.103-2.87 1.292-1.486 3.26-4.394 2.814-6.473l-.31-.31-5.327-5.323c.021 1.275-3.202 5.051-3.672 5.53" fill="#FFF574"/><path d="M32.117 32.398c-1.402 1.242-3.593 4.222-3.65 5.17l.152.154 7.593 7.587.102.11c1.353-.035 4.808-2.28 5.789-3.27.47-.482 3.359-4.584 3.342-5.861l-.122-.124-7.315-7.315-.12-.114c-1.38-.273-4.49 2.524-5.771 3.663" fill="#FFF8B1"/><path d="M30.102 37.445c1.245 1.402 4.227 3.593 5.174 3.646l.151-.152 7.588-7.588.11-.106c-.036-1.35-2.278-4.81-3.27-5.785-.482-.472-4.585-3.362-5.862-3.343l-.122.123-7.314 7.31-.115.12c-.275 1.377 2.521 4.49 3.66 5.775" fill="#FCF6B4"/><path d="M31.627 35.922c1.244 1.404 4.223 3.591 5.172 3.645l.153-.15 7.586-7.59.109-.107c-.035-1.347-2.279-4.809-3.27-5.783-.479-.472-4.584-3.362-5.861-3.345l-.121.124-7.317 7.316-.114.113c-.273 1.38 2.522 4.494 3.663 5.777" fill="#FFF8B1"/><path d="M38.225 37.274c1.402-1.243 3.592-4.227 3.646-5.174l-.15-.15-7.587-7.59-.107-.108c-1.35.034-4.813 2.28-5.786 3.27-.472.48-3.359 4.586-3.343 5.863l.123.12 7.316 7.315.116.115c1.376.276 4.488-2.524 5.772-3.66" fill="#FCF6B4"/><path d="M35.72 34.765c1.403-1.243 3.592-4.224 3.645-5.17l-.15-.154-7.59-7.586-.106-.11c-1.35.037-4.81 2.28-5.784 3.27-.47.478-3.36 4.588-3.343 5.863l.121.12 7.318 7.316.114.115c1.376.275 4.494-2.524 5.774-3.664" fill="#FFF8B1"/><path d="M40.68 35.968a3.324 3.324 0 0 1 0 4.696 3.326 3.326 0 0 1-4.7 0l-9.048-9.048a3.323 3.323 0 0 1 0-4.698 3.317 3.317 0 0 1 4.695 0l9.053 9.05z" fill="#FEFEFE"/><path d="M35.348 27.45a3.319 3.319 0 1 1 4.695 4.694l-8.1 8.1a3.324 3.324 0 0 1-4.697 0 3.317 3.317 0 0 1 0-4.695l8.102-8.1z" fill="#FEFEFE"/><path d="M5.566 5.016a6.454 6.454 0 0 0 0 9.128l2.938 2.936c-2.104-2.552-2.065-6.448.306-8.82 2.27-2.27 5.98-2.418 8.54-.588l-2.657-2.656a6.456 6.456 0 0 0-9.127 0" fill="#F7931D"/><path d="M79.657 21.924l.017-.024-.017.024zM80.956 23.814l2.62-3.166c.33-.398.494-.75.494-1.055 0-.372-.113-.674-.34-.91-.232-.235-.536-.352-.912-.352-.402 0-.765.201-1.083.607l-2.793 3.582.246-.878-2.21-2.752c-.31-.373-.67-.559-1.084-.559-.337 0-.625.123-.86.375a1.24 1.24 0 0 0-.354.872c0 .348.162.707.48 1.082l2.692 3.14-3.107 3.74c-.35.42-.523.82-.523 1.207 0 .349.114.639.343.873.232.238.517.355.866.355.456 0 .854-.22 1.187-.664l3.235-4.178-.252.904 2.51 3.288c.395.49.817.736 1.281.736.328 0 .601-.117.832-.346.231-.23.348-.506.348-.825 0-.43-.199-.883-.586-1.357l-3.03-3.719zM117.799 18.331c-.863 0-1.295.57-1.295 1.712V22.9H112.1l-.274.64.002-3.518c0-1.129-.43-1.69-1.291-1.69-.877 0-1.316.57-1.316 1.706v8.228c0 1.14.439 1.71 1.316 1.71.862 0 1.29-.57 1.29-1.703v-3.37h4.368l.306-.738.003 4.108c0 1.133.432 1.703 1.295 1.703.878 0 1.314-.57 1.314-1.71v-8.25c0-1.123-.436-1.685-1.314-1.685M129.594 18.331c-.724 0-1.227.685-1.427 1l-4.51 6.197-.431 1.038.005-6.569c0-1.11-.43-1.666-1.296-1.666-.876 0-1.312.551-1.312 1.665v8.313c0 1.111.436 1.667 1.312 1.667.61 0 1.038-.349 1.265-.687l4.638-6.297.43-1.016-.006 6.355c0 1.096.436 1.645 1.314 1.645.862 0 1.294-.556 1.294-1.667v-8.335c0-1.095-.43-1.643-1.276-1.643M171.746 18.384c-.674.034-1.175.632-1.37.947l-4.536 6.232-.403.938.003-6.504c0-1.11-.434-1.665-1.296-1.665-.877 0-1.316.55-1.316 1.665v8.312c0 1.11.44 1.667 1.316 1.667.613 0 1.034-.35 1.265-.687l4.651-6.311.41-.99v6.344c0 1.096.434 1.644 1.313 1.644.861 0 1.295-.556 1.295-1.667v-8.116c0-.893-.27-1.86-1.332-1.81M139.103 18.393h-5.965c-1.004 0-1.508.377-1.508 1.127s.504 1.128 1.508 1.128l2.454-.004-.786.343v7.282c0 1.137.428 1.707 1.273 1.707.892 0 1.333-.563 1.333-1.687v-7.64h1.738c.967 0 1.46-.38 1.46-1.129 0-.75-.504-1.127-1.507-1.127M149.103 24.989c.477 0 .862-.13 1.162-.388.302-.256.453-.615.453-1.076 0-1.43-.506-2.675-1.514-3.722-1.008-1.053-2.226-1.575-3.644-1.575-1.612 0-2.923.572-3.93 1.72-1.01 1.149-1.514 2.536-1.514 4.162 0 1.684.496 3.085 1.481 4.196 1.04 1.17 2.394 1.755 4.05 1.755.847 0 1.678-.147 2.484-.44.915-.331 1.599-.792 2.04-1.378.209-.28.316-.528.316-.75 0-.71-.347-1.065-1.046-1.065-.08 0-.556.218-1.412.659-.862.434-1.629.657-2.313.657-.825 0-1.514-.252-2.073-.763-.475-.432-.751-.98-.845-1.634l-.843-.351 7.148-.007zm-5.472-3.78a2.618 2.618 0 0 1 1.929-.791c.763 0 1.374.265 1.83.792.375.444.598.976.678 1.589l.89.373h-6.194c.056-.78.345-1.431.867-1.962zM159.957 18.393h-4.484c-1.117 0-1.92.225-2.423.676-.499.453-.752 1.224-.752 2.324v4.724c0 .361-.01 1.034-.088 1.26-.25.727-1.27.816-.972 1.9.067.24.528.7 1.17.7.802 0 1.338-.299 1.771-.897.376-.528.56-1.45.56-2.283v-5.299c0-.568.287-.85.862-.85l3.774.008-.795.327v7.266c0 1.151.436 1.727 1.317 1.727.862 0 1.293-.57 1.293-1.71V20.06c0-1.11-.412-1.666-1.233-1.666M94.922 20.119c-.906-1.193-2.423-1.867-4.26-1.788-.97.043-1.833.417-2.56.996a1.281 1.281 0 0 0-1.183-.795 1.28 1.28 0 0 0-1.277 1.278v11.649c0 1.185.616 1.548 1.333 1.548.76 0 1.273-.584 1.273-1.548l.005-3.212.419.939c.688.608 1.51.916 2.477.916 1.556 0 2.803-.616 3.736-1.852.848-1.124 1.27-2.49 1.27-4.094 0-1.626-.41-2.97-1.233-4.037m-1.926 6.449c-.472.754-1.162 1.133-2.065 1.133-.836 0-1.512-.324-2.025-.97-.473-.603-.71-1.325-.71-2.165v-.515c0-.921.225-1.681.669-2.288.498-.688 1.193-1.034 2.087-1.034.89 0 1.567.373 2.025 1.115.389.62.58 1.396.58 2.329 0 .966-.187 1.76-.561 2.395M107.94 28.348s-.303-.501-.303-1.403l-.004-7.124c0-.706-.57-1.278-1.276-1.278a1.28 1.28 0 0 0-1.094.624c-1.956-1.376-4.392-.774-4.99-.504a5.026 5.026 0 0 0-2.401 2.222c-.528.953-.79 2.026-.79 3.216 0 1.218.248 2.29.75 3.218.54 1.01 1.342 1.757 2.4 2.243a4.788 4.788 0 0 0 1.98.414c1.067 0 1.953-.394 2.666-1.176l.391-.87v.59c.181 1.527 1.465 1.76 2.166 1.475.578-.231.832-.77.505-1.647m-3.492-1.85c-.474.717-1.168 1.077-2.084 1.077-.835 0-1.505-.366-1.986-1.1-.404-.62-.606-1.374-.606-2.261 0-.952.194-1.748.584-2.384.457-.76 1.14-1.142 2.044-1.142.905 0 1.594.365 2.064 1.099.389.624.587 1.405.587 2.345 0 .969-.201 1.755-.603 2.366M111.384 45.737c.609 0 1.174-.078 1.69-.23 1.282-.39 1.918-.951 1.918-1.692 0-.321-.095-.585-.293-.801-.194-.216-.45-.324-.775-.324-.123 0-.467.108-1.025.324-.557.216-1.01.322-1.361.322-.963 0-1.693-.36-2.197-1.083-.445-.624-.672-1.435-.672-2.433 0-.927.23-1.72.69-2.37.518-.75 1.223-1.124 2.119-1.124.487 0 .927.087 1.316.258.39.175.742.26 1.048.26.7 0 1.044-.366 1.044-1.104 0-.627-.434-1.105-1.31-1.438a5.869 5.869 0 0 0-2.13-.38c-1.643 0-2.972.586-3.985 1.755-.962 1.097-1.442 2.484-1.442 4.153 0 1.698.466 3.087 1.399 4.172.973 1.156 2.295 1.735 3.966 1.735M104.481 33.921h-5.966c-1.005 0-1.505.38-1.505 1.126 0 .753.5 1.131 1.504 1.131l2.455-.005-.79.344v7.28c0 1.138.43 1.71 1.276 1.71.89 0 1.335-.567 1.335-1.69v-7.639h1.735c.971 0 1.46-.378 1.46-1.13 0-.747-.501-1.127-1.504-1.127M123.3 33.921h-5.964c-1.002 0-1.505.38-1.505 1.126 0 .753.503 1.131 1.505 1.131l2.455-.005-.787.344v7.28c0 1.138.424 1.71 1.275 1.71.889 0 1.334-.567 1.334-1.69v-7.639h1.732c.974 0 1.46-.378 1.46-1.13 0-.747-.501-1.127-1.505-1.127M95.41 40.684c.473 0 .86-.128 1.16-.387.301-.256.45-.613.45-1.072 0-1.433-.503-2.676-1.512-3.726-1.009-1.052-2.225-1.577-3.642-1.577-1.613 0-2.924.575-3.932 1.724-1.01 1.147-1.516 2.537-1.516 4.161 0 1.684.495 3.085 1.482 4.196 1.042 1.17 2.393 1.754 4.048 1.754.847 0 1.677-.143 2.485-.438.917-.334 1.6-.795 2.046-1.378.207-.28.312-.528.312-.75 0-.709-.349-1.066-1.045-1.066-.082 0-.56.218-1.414.66-.858.434-1.626.655-2.312.655-.823 0-1.517-.253-2.072-.763-.476-.432-.755-.977-.848-1.636l-.84-.349 7.15-.008zm-5.473-3.779c.521-.526 1.162-.788 1.93-.788.762 0 1.373.262 1.823.788.376.444.604.977.684 1.593l.89.37h-6.197c.06-.778.348-1.43.87-1.963zM134.299 40.415a3.214 3.214 0 0 0-1.381-1.066c.89-.514 1.338-1.288 1.338-2.316 0-2.072-1.343-3.11-4.03-3.11h-2.941c-.945 0-1.418.51-1.418 1.524v8.45c0 .99.48 1.483 1.439 1.483h3.148c2.91 0 4.366-1.118 4.366-3.36 0-.597-.174-1.132-.521-1.605zm-4.302-4.634c1.114 0 1.667.467 1.667 1.398 0 .96-.56 1.44-1.687 1.44h-1.524v-2.502l-.783-.328 2.327-.008zm.115 7.72h-1.66v-2.737l-.785-.33h2.445c1.37 0 2.055.53 2.055 1.586 0 .99-.685 1.481-2.055 1.481z" fill="#F16521"/><path d="M83.858 43.827h.108-.108zM77.328 44.827h.054-.054z" fill="#F16423"/><path d="M84.821 43.314h-.168v-7.722c0-1.111-.408-1.671-1.23-1.671h-4.55c-1.069 0-1.86.212-2.36.631-.54.456-.81 1.207-.81 2.251v4.822c0 .765-.16 1.264-.482 1.503-.296.108-.579.222-.855.333-.319.152-.48.529-.48 1.126v1.111c0 .859.417 1.294 1.251 1.294.68 0 1.018-.428 1.021-1.279l-.815-.343 9.184.008-.73.313v.007c0 .859.326 1.294.984 1.294.858 0 1.294-.435 1.294-1.294v-1.257c0-.765-.419-1.141-1.254-1.127zm-2.774 0l-5.049-.008.947-.393a3.35 3.35 0 0 0 .22-1.248v-4.736c0-.571.285-.856.855-.856l3.783-.004-.756.32v6.925z" fill="#F16521"/><path fill="#F16423" d="M77.382 44.827h.286zM83.576 43.827h.281-.28z"/><path d="M146.433 44.138s-.303-.503-.303-1.404l-.002-7.124c0-.706-.57-1.278-1.276-1.278-.466 0-.87.252-1.095.625-1.955-1.377-4.393-.776-4.99-.507a5.038 5.038 0 0 0-2.401 2.223c-.531.954-.791 2.026-.791 3.216 0 1.218.25 2.29.75 3.219.54 1.01 1.343 1.757 2.404 2.24.606.277 1.27.416 1.978.416 1.065 0 1.952-.392 2.667-1.175l.387-.87v.59c.184 1.527 1.468 1.76 2.169 1.475.575-.231.83-.77.503-1.646m-3.491-1.851c-.476.717-1.17 1.077-2.085 1.077-.836 0-1.501-.366-1.983-1.1-.408-.62-.608-1.375-.608-2.261 0-.952.193-1.75.58-2.383.463-.761 1.143-1.144 2.048-1.144s1.597.366 2.066 1.1c.384.624.585 1.405.585 2.345 0 .968-.204 1.755-.603 2.366" fill="#F16521"/></g></symbol><symbol id="icon-close" viewBox="0 0 14 14"><path d="M14 1.41L12.59 0 7 5.59 1.41 0 0 1.41 5.59 7 0 12.59 1.41 14 7 8.41 12.59 14 14 12.59 8.41 7 14 1.41z"/></symbol><symbol id="icon-down" viewBox="0 0 12 8"><path d="M1.41.58L6 5.17 10.59.58 12 2 6 8 0 2 1.41.58z"/></symbol><symbol id="pic-te-st" viewBox="0 0 99 40"><g fill="#000" fill-rule="evenodd"><path d="M10.895 20.245a2 2 0 0 1-1.4-2.394l-1.394-.805c-.359.343-.845.554-1.381.554a1.994 1.994 0 0 1-1.42-.592l-1.369.79A2.003 2.003 0 0 1 2 20.32a2 2 0 1 1 1.347-3.479l1.418-.818a2 2 0 0 1 3.33-1.875l2.785-1.607V9.28a1.998 1.998 0 0 1-.828-.481l-1.392.87a2 2 0 1 1-3.885.027l-1.451-.838a1.996 1.996 0 0 1-.764.422v1.678a2 2 0 1 1-1.12 0V9.281A2 2 0 1 1 3.428 5.96l1.333-.833a2 2 0 1 1 .528.99l-1.331.833a2.009 2.009 0 0 1-.035.962l1.406.811c.36-.348.85-.563 1.391-.563.53 0 1.013.207 1.371.544l1.404-.877a2.005 2.005 0 0 1 1.465-2.409V3.942A2 2 0 1 1 12 3.921v1.518a2 2 0 0 1 0 3.842v3.306l2.653 1.532c.256-.26.582-.451.947-.541v-1.476a2 2 0 1 1 1.85-3.399l1.389-.868a2.01 2.01 0 0 1 .022-.888l-1.434-.828a2 2 0 1 1 .584-.956l1.42.82a2 2 0 1 1 1.93 3.378l-.001 1.518a2 2 0 1 1-1.04-.021V9.382a1.998 1.998 0 0 1-.959-.553l-1.342.84a2.004 2.004 0 0 1-1.379 2.412v1.518a2 2 0 0 1 1.366 2.462l1.41.815a2 2 0 1 1-.56.97l-1.444-.834a2 2 0 0 1-3.29-1.906l-2.722-1.572-2.74 1.581a2.004 2.004 0 0 1 .003.962l1.39.802a2 2 0 1 1 1.896 3.375v2.62l2.279-1.317a2.003 2.003 0 0 1 1.932-2.517 2 2 0 1 1-1.4 3.428l-2.811 1.624v4.783h10.34a.352.352 0 0 1 0 .703H11.985c.182 1.334 1.447 1.512 3.42 1.674 1.924.157 4.103.336 4.69 2.502a.264.264 0 0 1-.255.334.263.263 0 0 1-.254-.196c-.442-1.632-2.03-1.917-3.685-2.068.045.05.087.101.126.155.316.427.81.626 1.334.836.656.264 1.334.537 1.641 1.286a.264.264 0 1 1-.487.2c-.223-.543-.745-.753-1.35-.996a7.767 7.767 0 0 1-.682-.301c.065.246.117.496.166.74.088.44.171.858.331 1.208a.264.264 0 0 1-.48.22c-.185-.406-.278-.873-.368-1.324-.216-1.08-.403-2.012-1.693-2.154l-.01-.002c-.915-.103-1.768-.285-2.327-.776.262.613.652 1.061 1.035 1.499.158.181.318.364.467.558l.009.007c.157.204.34.377.535.562.26.245.532.504.754.852.005.007.01.012.014.02.293.466 1.156 1.418 1.703 1.727a.264.264 0 0 1-.258.46c-.308-.174-.677-.497-1.015-.844.032.325.032.694-.014 1.127a.263.263 0 0 1-.262.236l-.028-.001a.264.264 0 0 1-.234-.29c.128-1.21-.109-1.851-.471-2.324.16.822.056 1.91-.553 3.493a.264.264 0 1 1-.492-.19c1.18-3.065.378-3.983-.551-5.045-.368-.422-.761-.873-1.05-1.477.083 1.033.216 1.881.332 2.616.35 2.212.56 3.548-1.174 5.988a.262.262 0 0 1-.367.062.264.264 0 0 1-.062-.368c1.274-1.793 1.422-2.909 1.26-4.363-.107.186-.233.341-.357.494-.329.407-.64.793-.575 1.874a.264.264 0 0 1-.247.28h-.016a.264.264 0 0 1-.263-.248c-.078-1.286.331-1.791.692-2.238.36-.445.67-.829.483-2.083a28.944 28.944 0 0 1-.222-1.844c-.283.577-.751 1.206-1.528 1.862-.928.782-.676 1.636-.385 2.623.19.647.388 1.316.265 2.011a.263.263 0 1 1-.519-.091c.1-.574-.078-1.182-.251-1.77a9.547 9.547 0 0 1-.216-.822l-.067.31c-.195.912-.396 1.856-1.619 2.658a.264.264 0 0 1-.288-.441c1.04-.683 1.203-1.444 1.391-2.327.082-.383.17-.79.343-1.202l-.223.132c-.772.458-1.198.709-1.369 1.68a.263.263 0 1 1-.519-.09c.213-1.212.803-1.56 1.62-2.044.43-.255.92-.543 1.496-1.03.911-.769 1.354-1.481 1.57-2.108-.07.086-.144.169-.226.246-.784.735-2.06 1.051-3.796.945-.77.142-.857.562-.975 1.488-.107.842-.24 1.89-1.16 2.98a.261.261 0 0 1-.371.031.264.264 0 0 1-.032-.371c.82-.972.942-1.934 1.04-2.706.069-.537.136-1.055.44-1.43a5.778 5.778 0 0 0-.783.103c-.674.28-.703.634-.754 1.273-.035.428-.078.96-.364 1.55a.263.263 0 0 1-.352.121.264.264 0 0 1-.122-.353c.243-.5.28-.956.312-1.36.023-.282.046-.558.135-.813-1.014.587-1.173 1.451-1.183 1.509a.264.264 0 0 1-.52-.087c.13-.775.845-1.924 2.656-2.331l.007-.004a.26.26 0 0 1 .095-.02 7.292 7.292 0 0 1 1.929-.109c1.58.104 2.768-.173 3.437-.8.372-.35.529-.748.586-1.09H.555a.351.351 0 0 1 0-.704h10.34v-4.783l-2.82-1.629c-.22.216-.492.38-.794.472a2 2 0 1 1 1.144-2.8 1.936 1.936 0 0 1 .177 1.413l2.292 1.326v-2.63zm6.213 1.392a1.12 1.12 0 0 0-1.938-1.12l.03.018a1.062 1.062 0 0 0 .002 1.07 1.07 1.07 0 0 0 1.85 0l.056.032zm-10.122.469a1.12 1.12 0 1 0-1.281-.45l.086-.05a1.068 1.068 0 0 0 1.195.5zm5.405-3.194a1.12 1.12 0 1 0-1.912-.016l.016-.01a1.07 1.07 0 0 0 1.852 0l.044.026zM2 8.48a1.12 1.12 0 1 0 0-2.24 1.12 1.12 0 0 0 0 2.24zM2 14a1.12 1.12 0 1 0 0-2.24A1.12 1.12 0 0 0 2 14zm4.72-8.16a1.12 1.12 0 1 0 0-2.24 1.12 1.12 0 0 0 0 2.24zm4.72-2.72a1.12 1.12 0 1 0 0-2.24 1.12 1.12 0 0 0 0 2.24zm0 5.36a1.12 1.12 0 1 0 0-2.24 1.12 1.12 0 0 0 0 2.24zm-4.72 2.8a1.12 1.12 0 1 0 0-2.24 1.12 1.12 0 0 0 0 2.24zm9.36-5.52a1.12 1.12 0 1 0 0-2.24 1.12 1.12 0 0 0 0 2.24zm4.72 2.8a1.12 1.12 0 1 0 0-2.24 1.12 1.12 0 0 0 0 2.24zm0 5.36a1.12 1.12 0 1 0 0-2.24 1.12 1.12 0 0 0 0 2.24zm-4.72-2.64a1.12 1.12 0 1 0 0-2.24 1.12 1.12 0 0 0 0 2.24zm0 5.36a1.12 1.12 0 1 0 0-2.24 1.12 1.12 0 0 0 0 2.24zm4.72 2.8a1.12 1.12 0 1 0 0-2.24 1.12 1.12 0 0 0 0 2.24zM6.72 16.72a1.12 1.12 0 1 0 0-2.24 1.12 1.12 0 0 0 0 2.24zM2 19.44a1.12 1.12 0 1 0 0-2.24 1.12 1.12 0 0 0 0 2.24zM36.18 4.56v-.68H31.3v.68h2.06V11h.76V4.56h2.06zM41.93 11v-.68h-3.66V7.75h3.12v-.68h-3.12V4.56h3.66v-.68h-4.42V11h4.42zm6.47 0V3.88h-4.89V11h.76V4.56h3.37V11h.76zm6.78 0V3.88h-3.92v2.89c0 2.96-.63 3.55-1.51 3.55h-.19V11h.36C51.28 11 52 10 52 7V4.56h2.42V11h.76zm7.16 0V3.88h-.72L58 9.68v-5.8h-.76V11h.72l3.62-5.81V11h.76zm7.8 1.72v-2.4h-.85V3.88h-.76v6.44h-3.37V3.88h-.76V11h4.99v1.72h.75zm6.4-1.72l-2.61-7.12h-.64L70.67 11h.81l.57-1.61h3.11l.57 1.61h.81zm-1.6-2.27h-2.66l1.34-3.76 1.32 3.76zM36.72 20.04h-.76c-.19.87-.82 1.44-1.71 1.44-.47 0-.92-.18-1.23-.5-.45-.46-.5-.95-.5-2.44s.05-1.98.5-2.44c.31-.32.76-.5 1.23-.5.89 0 1.5.57 1.69 1.44h.78c-.24-1.34-1.19-2.12-2.47-2.12-.7 0-1.34.26-1.82.74-.67.67-.67 1.37-.67 2.88 0 1.51 0 2.21.67 2.88.48.48 1.12.74 1.82.74 1.27 0 2.24-.78 2.47-2.12zm6.19-1.99c0-.87-.05-1.77-.67-2.39-.48-.48-1.12-.74-1.82-.74s-1.34.26-1.82.74c-.61.61-.67 1.48-.67 2.33v.55c0 1.42.02 2.23.67 2.88.48.48 1.11.74 1.82.74s1.34-.26 1.82-.74c.65-.65.67-1.46.67-2.88v-.49zm-.76.84c0 .82-.01 1.59-.5 2.08-.33.33-.76.51-1.23.51s-.9-.18-1.23-.51c-.46-.46-.5-1.16-.5-1.93v-.71c0-.98 0-1.72.5-2.22.33-.33.77-.51 1.23-.51.46 0 .9.18 1.23.51.47.47.5 1.21.5 2.05v.73zm8.29 4.93v-2.4h-.85v-6.44h-.76v6.44h-3.37v-6.44h-.76v7.12h4.99v1.72h.75zm6.54-1.72v-7.12h-.72l-3.62 5.8v-5.8h-.76v7.12h.72l3.62-5.81v5.81h.76zm7.02 0l-2.61-7.12h-.64l-2.62 7.12h.81l.57-1.61h3.11l.57 1.61H64zm-1.6-2.27h-2.66l1.34-3.76 1.32 3.76zm7.46 2.27v-7.12h-3.92v2.89c0 2.96-.63 3.55-1.51 3.55h-.19v.68h.36c1.36 0 2.08-1 2.08-4v-2.44h2.42v6.44h.76zm6.93-2.09c0-1.26-.87-2.1-2.2-2.1h-1.91v-2.93h-.76v7.12h2.67c1.32 0 2.2-.84 2.2-2.09zm-.77 0c0 .89-.55 1.41-1.5 1.41h-1.84v-2.83h1.84c.95 0 1.5.52 1.5 1.42zm7.1 2.09v-7.12h-.76v3.19h-3.38v-3.19h-.76v7.12h.76v-3.25h3.38v3.25h.76zm8.64 0v-7.12H91v7.12h.76zm-1.71-2.09c0-1.26-.87-2.1-2.2-2.1h-1.91v-2.93h-.76v7.12h2.67c1.32 0 2.2-.84 2.2-2.09zm-.77 0c0 .89-.55 1.41-1.5 1.41h-1.84v-2.83h1.84c.95 0 1.5.52 1.5 1.42zm8.87 2.09l-2.2-3.65L98 14.98h-.88l-1.58 2.81-1.58-2.81h-.88l2.04 3.47-2.18 3.65h.86l1.74-2.99 1.73 2.99h.88zM36.18 27.56v-.68H31.3v.68h2.06V34h.76v-6.44h2.06zM41.93 34v-.68h-3.66v-2.57h3.12v-.68h-3.12v-2.51h3.66v-.68h-4.42V34h4.42zm5.91 0l-2.2-3.65 2.05-3.47h-.88l-1.58 2.81-1.58-2.81h-.88l2.04 3.47L42.63 34h.86l1.74-2.99L46.96 34h.88zm6.08 0v-7.12h-.76v3.19h-3.38v-3.19h-.76V34h.76v-3.25h3.38V34h.76zm6.77-4.05c0-.87-.05-1.77-.67-2.39-.48-.48-1.12-.74-1.82-.74s-1.34.26-1.82.74c-.61.61-.67 1.48-.67 2.33v.55c0 1.42.02 2.23.67 2.88.48.48 1.11.74 1.82.74s1.34-.26 1.82-.74c.65-.65.67-1.46.67-2.88v-.49zm-.76.84c0 .82-.01 1.59-.5 2.08-.33.33-.76.51-1.23.51s-.9-.18-1.23-.51c-.46-.46-.5-1.16-.5-1.93v-.71c0-.98 0-1.72.5-2.22.33-.33.77-.51 1.23-.51.46 0 .9.18 1.23.51.47.47.5 1.21.5 2.05v.73zM66.99 34v-7.12h-3.92v2.89c0 2.96-.63 3.55-1.51 3.55h-.19V34h.36c1.36 0 2.08-1 2.08-4v-2.44h2.42V34h.76zm6.77-4.05c0-.87-.05-1.77-.67-2.39-.48-.48-1.12-.74-1.82-.74s-1.34.26-1.82.74c-.61.61-.67 1.48-.67 2.33v.55c0 1.42.02 2.23.67 2.88.48.48 1.11.74 1.82.74s1.34-.26 1.82-.74c.65-.65.67-1.46.67-2.88v-.49zm-.76.84c0 .82-.01 1.59-.5 2.08-.33.33-.76.51-1.23.51s-.9-.18-1.23-.51c-.46-.46-.5-1.16-.5-1.93v-.71c0-.98 0-1.72.5-2.22.33-.33.77-.51 1.23-.51.46 0 .9.18 1.23.51.47.47.5 1.21.5 2.05v.73zm6.9-3.23v-.68h-4.28V34h.76v-6.44h3.52zM86.34 34v-7.12h-.72L82 32.68v-5.8h-.76V34h.72l3.62-5.81V34h.76zm7.16 0v-7.12h-.72l-3.62 5.8v-5.8h-.76V34h.72l3.62-5.81V34h.76zm-1.09-8.83h-.64c-.04.49-.33.74-.82.74-.49 0-.78-.25-.82-.74h-.64c.06.89.63 1.26 1.46 1.26s1.4-.37 1.46-1.26z"/></g></symbol><symbol id="icon-facebook" viewBox="0 0 15 32"><path d="M14.66 10.216H9.667V6.94c0-1.23.815-1.516 1.39-1.516h3.523V.019L9.727 0C4.341 0 3.115 4.032 3.115 6.612v3.604H0v5.57h3.115V31.55h6.552V15.786h4.421l.572-5.57z"/></symbol><symbol id="icon-instagram" viewBox="0 0 20 20"><path d="M5.8 0h8.4C17.4 0 20 2.6 20 5.8v8.4a5.8 5.8 0 0 1-5.8 5.8H5.8C2.6 20 0 17.4 0 14.2V5.8A5.8 5.8 0 0 1 5.8 0zm-.2 2A3.6 3.6 0 0 0 2 5.6v8.8C2 16.39 3.61 18 5.6 18h8.8a3.6 3.6 0 0 0 3.6-3.6V5.6C18 3.61 16.39 2 14.4 2H5.6zm9.65 1.5a1.25 1.25 0 1 1 0 2.5 1.25 1.25 0 0 1 0-2.5zM10 5a5 5 0 1 1 0 10 5 5 0 0 1 0-10zm0 2a3 3 0 1 0 0 6 3 3 0 0 0 0-6z"/></symbol><symbol id="icon-logo" viewBox="0 0 89 90"><path d="M44.944 20.988c5.032 0 9.709 1.557 13.572 4.214l14.289-14.289C64.963 4.479 55.223.98 44.944.98c-10.56 0-20.549 3.695-28.499 10.47l14.242 14.241a23.884 23.884 0 0 1 14.257-4.703zM20.932 45.001a23.89 23.89 0 0 1 5.095-14.773L11.815 16.016C4.772 24.042.924 34.225.924 45.001c0 11.138 4.111 21.641 11.61 29.785l14.178-14.179a23.901 23.901 0 0 1-5.78-15.606zm24.012 24.012a23.888 23.888 0 0 1-13.367-4.073l-14.302 14.3c7.809 6.336 17.474 9.78 27.669 9.78 9.912 0 19.325-3.255 27.017-9.257L57.598 65.4a23.874 23.874 0 0 1-12.654 3.613zm32.577-53.619L63.336 29.58a23.905 23.905 0 0 1 5.621 15.421c0 6.252-2.402 11.952-6.332 16.23l14.162 14.162C84.647 67.168 88.965 56.415 88.965 45c0-11.055-4.049-21.487-11.444-29.606z"/></symbol><symbol id="icon-mail" viewBox="0 0 20 20"><path d="M2 8l8 5 8-5-8-5-8 5zm18 0v10a2 2 0 0 1-2 2H2a2 2 0 0 1-2-2V8c0-.73.39-1.36.97-1.71L10 .64l9.03 5.65c.58.35.97.98.97 1.71z"/></symbol><symbol id="icon-marker" viewBox="0 0 14 20"><path d="M7 9.5a2.5 2.5 0 1 1 0-5 2.5 2.5 0 0 1 0 5zM7 0a7 7 0 0 0-7 7c0 5.25 7 13 7 13s7-7.75 7-13a7 7 0 0 0-7-7z"/></symbol><symbol id="icon-menu" viewBox="0 0 24 21"><path d="M23.244 16.009H.75c-.413 0-.75.36-.75.801v3.421c0 .423.337.769.75.769h22.494c.414 0 .75-.346.75-.77v-3.42c0-.441-.336-.801-.75-.801zm0-8H.75c-.413 0-.75.36-.75.801v3.421A.76.76 0 0 0 .75 13h22.494a.76.76 0 0 0 .75-.769V8.81c0-.441-.336-.801-.75-.801zm0-8H.75C.337.009 0 .369 0 .81v3.42c0 .423.337.769.75.769h22.494a.76.76 0 0 0 .75-.769V.81c0-.441-.336-.801-.75-.801z"/></symbol><symbol id="icon-next" viewBox="0 0 15 24"><path d="M3 0L.17 2.83 9.34 12 .17 21.17 3 24l12-12L3 0z"/></symbol><symbol id="icon-ok" viewBox="0 0 19 32"><path d="M9.25 4.83a3.416 3.416 0 0 1 3.413 3.414c0 1.88-1.53 3.41-3.413 3.41a3.417 3.417 0 0 1-3.413-3.41A3.418 3.418 0 0 1 9.25 4.83zm0 11.654c4.547 0 8.243-3.696 8.243-8.24C17.493 3.698 13.797 0 9.25 0 4.705 0 1.008 3.698 1.008 8.244c0 4.544 3.697 8.24 8.242 8.24zm3.335 6.724a15.434 15.434 0 0 0 4.786-1.983 2.415 2.415 0 0 0 .757-3.33 2.413 2.413 0 0 0-3.33-.76 10.465 10.465 0 0 1-11.097 0 2.412 2.412 0 0 0-3.33.76 2.414 2.414 0 0 0 .757 3.33c1.49.935 3.108 1.6 4.786 1.983l-4.608 4.608a2.415 2.415 0 0 0 3.417 3.414l4.526-4.528 4.53 4.528c.942.943 2.47.943 3.414 0a2.413 2.413 0 0 0 0-3.414l-4.608-4.608z"/></symbol><symbol id="icon-prev" viewBox="0 0 15 25"><path d="M14.83 21.67L5.66 12.5l9.17-9.17L12 .5l-12 12 12 12 2.83-2.83z"/></symbol><symbol id="icon-search" viewBox="0 0 18 18"><path d="M11 0a6.5 6.5 0 0 0-6.5 6.5c0 1.61.59 3.09 1.56 4.23l-.27.27H5l-5 5 1.5 1.5 5-5v-.79l.27-.27C7.91 12.41 9.39 13 11 13a6.5 6.5 0 1 0 0-13zm0 2c2.5 0 4.5 2 4.5 4.5S13.5 11 11 11 6.5 9 6.5 6.5 8.5 2 11 2z"/></symbol><symbol id="icon-te-st" viewBox="0 0 99 40"><g><path d="M10.895 20.245a2 2 0 0 1-1.4-2.394l-1.394-.805c-.359.343-.845.554-1.381.554a1.994 1.994 0 0 1-1.42-.592l-1.369.79A2.003 2.003 0 0 1 2 20.32a2 2 0 1 1 1.347-3.479l1.418-.818a2 2 0 0 1 3.33-1.875l2.785-1.607V9.28a1.998 1.998 0 0 1-.828-.481l-1.392.87a2 2 0 1 1-3.885.027l-1.451-.838a1.996 1.996 0 0 1-.764.422v1.678a2 2 0 1 1-1.12 0V9.281A2 2 0 1 1 3.428 5.96l1.333-.833a2 2 0 1 1 .528.99l-1.331.833a2.009 2.009 0 0 1-.035.962l1.406.811c.36-.348.85-.563 1.391-.563.53 0 1.013.207 1.371.544l1.404-.877a2.005 2.005 0 0 1 1.465-2.409V3.942A2 2 0 1 1 12 3.921v1.518a2 2 0 0 1 0 3.842v3.306l2.653 1.532c.256-.26.582-.451.947-.541v-1.476a2 2 0 1 1 1.85-3.399l1.389-.868a2.01 2.01 0 0 1 .022-.888l-1.434-.828a2 2 0 1 1 .584-.956l1.42.82a2 2 0 1 1 1.93 3.378l-.001 1.518a2 2 0 1 1-1.04-.021V9.382a1.998 1.998 0 0 1-.959-.553l-1.342.84a2.004 2.004 0 0 1-1.379 2.412v1.518a2 2 0 0 1 1.366 2.462l1.41.815a2 2 0 1 1-.56.97l-1.444-.834a2 2 0 0 1-3.29-1.906l-2.722-1.572-2.74 1.581a2.004 2.004 0 0 1 .003.962l1.39.802a2 2 0 1 1 1.896 3.375v2.62l2.279-1.317a2.003 2.003 0 0 1 1.932-2.517 2 2 0 1 1-1.4 3.428l-2.811 1.624v4.783h10.34a.352.352 0 0 1 0 .703H11.985c.182 1.334 1.447 1.512 3.42 1.674 1.924.157 4.103.336 4.69 2.502a.264.264 0 0 1-.255.334.263.263 0 0 1-.254-.196c-.442-1.632-2.03-1.917-3.685-2.068.045.05.087.101.126.155.316.427.81.626 1.334.836.656.264 1.334.537 1.641 1.286a.264.264 0 1 1-.487.2c-.223-.543-.745-.753-1.35-.996a7.767 7.767 0 0 1-.682-.301c.065.246.117.496.166.74.088.44.171.858.331 1.208a.264.264 0 0 1-.48.22c-.185-.406-.278-.873-.368-1.324-.216-1.08-.403-2.012-1.693-2.154l-.01-.002c-.915-.103-1.768-.285-2.327-.776.262.613.652 1.061 1.035 1.499.158.181.318.364.467.558l.009.007c.157.204.34.377.535.562.26.245.532.504.754.852.005.007.01.012.014.02.293.466 1.156 1.418 1.703 1.727a.264.264 0 0 1-.258.46c-.308-.174-.677-.497-1.015-.844.032.325.032.694-.014 1.127a.263.263 0 0 1-.262.236l-.028-.001a.264.264 0 0 1-.234-.29c.128-1.21-.109-1.851-.471-2.324.16.822.056 1.91-.553 3.493a.264.264 0 1 1-.492-.19c1.18-3.065.378-3.983-.551-5.045-.368-.422-.761-.873-1.05-1.477.083 1.033.216 1.881.332 2.616.35 2.212.56 3.548-1.174 5.988a.262.262 0 0 1-.367.062.264.264 0 0 1-.062-.368c1.274-1.793 1.422-2.909 1.26-4.363-.107.186-.233.341-.357.494-.329.407-.64.793-.575 1.874a.264.264 0 0 1-.247.28h-.016a.264.264 0 0 1-.263-.248c-.078-1.286.331-1.791.692-2.238.36-.445.67-.829.483-2.083a28.944 28.944 0 0 1-.222-1.844c-.283.577-.751 1.206-1.528 1.862-.928.782-.676 1.636-.385 2.623.19.647.388 1.316.265 2.011a.263.263 0 1 1-.519-.091c.1-.574-.078-1.182-.251-1.77a9.547 9.547 0 0 1-.216-.822l-.067.31c-.195.912-.396 1.856-1.619 2.658a.264.264 0 0 1-.288-.441c1.04-.683 1.203-1.444 1.391-2.327.082-.383.17-.79.343-1.202l-.223.132c-.772.458-1.198.709-1.369 1.68a.263.263 0 1 1-.519-.09c.213-1.212.803-1.56 1.62-2.044.43-.255.92-.543 1.496-1.03.911-.769 1.354-1.481 1.57-2.108-.07.086-.144.169-.226.246-.784.735-2.06 1.051-3.796.945-.77.142-.857.562-.975 1.488-.107.842-.24 1.89-1.16 2.98a.261.261 0 0 1-.371.031.264.264 0 0 1-.032-.371c.82-.972.942-1.934 1.04-2.706.069-.537.136-1.055.44-1.43a5.778 5.778 0 0 0-.783.103c-.674.28-.703.634-.754 1.273-.035.428-.078.96-.364 1.55a.263.263 0 0 1-.352.121.264.264 0 0 1-.122-.353c.243-.5.28-.956.312-1.36.023-.282.046-.558.135-.813-1.014.587-1.173 1.451-1.183 1.509a.264.264 0 0 1-.52-.087c.13-.775.845-1.924 2.656-2.331l.007-.004a.26.26 0 0 1 .095-.02 7.292 7.292 0 0 1 1.929-.109c1.58.104 2.768-.173 3.437-.8.372-.35.529-.748.586-1.09H.555a.351.351 0 0 1 0-.704h10.34v-4.783l-2.82-1.629c-.22.216-.492.38-.794.472a2 2 0 1 1 1.144-2.8 1.936 1.936 0 0 1 .177 1.413l2.292 1.326v-2.63zm6.213 1.392a1.12 1.12 0 0 0-1.938-1.12l.03.018a1.062 1.062 0 0 0 .002 1.07 1.07 1.07 0 0 0 1.85 0l.056.032zm-10.122.469a1.12 1.12 0 1 0-1.281-.45l.086-.05a1.068 1.068 0 0 0 1.195.5zm5.405-3.194a1.12 1.12 0 1 0-1.912-.016l.016-.01a1.07 1.07 0 0 0 1.852 0l.044.026zM2 8.48a1.12 1.12 0 1 0 0-2.24 1.12 1.12 0 0 0 0 2.24zM2 14a1.12 1.12 0 1 0 0-2.24A1.12 1.12 0 0 0 2 14zm4.72-8.16a1.12 1.12 0 1 0 0-2.24 1.12 1.12 0 0 0 0 2.24zm4.72-2.72a1.12 1.12 0 1 0 0-2.24 1.12 1.12 0 0 0 0 2.24zm0 5.36a1.12 1.12 0 1 0 0-2.24 1.12 1.12 0 0 0 0 2.24zm-4.72 2.8a1.12 1.12 0 1 0 0-2.24 1.12 1.12 0 0 0 0 2.24zm9.36-5.52a1.12 1.12 0 1 0 0-2.24 1.12 1.12 0 0 0 0 2.24zm4.72 2.8a1.12 1.12 0 1 0 0-2.24 1.12 1.12 0 0 0 0 2.24zm0 5.36a1.12 1.12 0 1 0 0-2.24 1.12 1.12 0 0 0 0 2.24zm-4.72-2.64a1.12 1.12 0 1 0 0-2.24 1.12 1.12 0 0 0 0 2.24zm0 5.36a1.12 1.12 0 1 0 0-2.24 1.12 1.12 0 0 0 0 2.24zm4.72 2.8a1.12 1.12 0 1 0 0-2.24 1.12 1.12 0 0 0 0 2.24zM6.72 16.72a1.12 1.12 0 1 0 0-2.24 1.12 1.12 0 0 0 0 2.24zM2 19.44a1.12 1.12 0 1 0 0-2.24 1.12 1.12 0 0 0 0 2.24zM36.18 4.56v-.68H31.3v.68h2.06V11h.76V4.56h2.06zM41.93 11v-.68h-3.66V7.75h3.12v-.68h-3.12V4.56h3.66v-.68h-4.42V11h4.42zm6.47 0V3.88h-4.89V11h.76V4.56h3.37V11h.76zm6.78 0V3.88h-3.92v2.89c0 2.96-.63 3.55-1.51 3.55h-.19V11h.36C51.28 11 52 10 52 7V4.56h2.42V11h.76zm7.16 0V3.88h-.72L58 9.68v-5.8h-.76V11h.72l3.62-5.81V11h.76zm7.8 1.72v-2.4h-.85V3.88h-.76v6.44h-3.37V3.88h-.76V11h4.99v1.72h.75zm6.4-1.72l-2.61-7.12h-.64L70.67 11h.81l.57-1.61h3.11l.57 1.61h.81zm-1.6-2.27h-2.66l1.34-3.76 1.32 3.76zM36.72 20.04h-.76c-.19.87-.82 1.44-1.71 1.44-.47 0-.92-.18-1.23-.5-.45-.46-.5-.95-.5-2.44s.05-1.98.5-2.44c.31-.32.76-.5 1.23-.5.89 0 1.5.57 1.69 1.44h.78c-.24-1.34-1.19-2.12-2.47-2.12-.7 0-1.34.26-1.82.74-.67.67-.67 1.37-.67 2.88 0 1.51 0 2.21.67 2.88.48.48 1.12.74 1.82.74 1.27 0 2.24-.78 2.47-2.12zm6.19-1.99c0-.87-.05-1.77-.67-2.39-.48-.48-1.12-.74-1.82-.74s-1.34.26-1.82.74c-.61.61-.67 1.48-.67 2.33v.55c0 1.42.02 2.23.67 2.88.48.48 1.11.74 1.82.74s1.34-.26 1.82-.74c.65-.65.67-1.46.67-2.88v-.49zm-.76.84c0 .82-.01 1.59-.5 2.08-.33.33-.76.51-1.23.51s-.9-.18-1.23-.51c-.46-.46-.5-1.16-.5-1.93v-.71c0-.98 0-1.72.5-2.22.33-.33.77-.51 1.23-.51.46 0 .9.18 1.23.51.47.47.5 1.21.5 2.05v.73zm8.29 4.93v-2.4h-.85v-6.44h-.76v6.44h-3.37v-6.44h-.76v7.12h4.99v1.72h.75zm6.54-1.72v-7.12h-.72l-3.62 5.8v-5.8h-.76v7.12h.72l3.62-5.81v5.81h.76zm7.02 0l-2.61-7.12h-.64l-2.62 7.12h.81l.57-1.61h3.11l.57 1.61H64zm-1.6-2.27h-2.66l1.34-3.76 1.32 3.76zm7.46 2.27v-7.12h-3.92v2.89c0 2.96-.63 3.55-1.51 3.55h-.19v.68h.36c1.36 0 2.08-1 2.08-4v-2.44h2.42v6.44h.76zm6.93-2.09c0-1.26-.87-2.1-2.2-2.1h-1.91v-2.93h-.76v7.12h2.67c1.32 0 2.2-.84 2.2-2.09zm-.77 0c0 .89-.55 1.41-1.5 1.41h-1.84v-2.83h1.84c.95 0 1.5.52 1.5 1.42zm7.1 2.09v-7.12h-.76v3.19h-3.38v-3.19h-.76v7.12h.76v-3.25h3.38v3.25h.76zm8.64 0v-7.12H91v7.12h.76zm-1.71-2.09c0-1.26-.87-2.1-2.2-2.1h-1.91v-2.93h-.76v7.12h2.67c1.32 0 2.2-.84 2.2-2.09zm-.77 0c0 .89-.55 1.41-1.5 1.41h-1.84v-2.83h1.84c.95 0 1.5.52 1.5 1.42zm8.87 2.09l-2.2-3.65L98 14.98h-.88l-1.58 2.81-1.58-2.81h-.88l2.04 3.47-2.18 3.65h.86l1.74-2.99 1.73 2.99h.88zM36.18 27.56v-.68H31.3v.68h2.06V34h.76v-6.44h2.06zM41.93 34v-.68h-3.66v-2.57h3.12v-.68h-3.12v-2.51h3.66v-.68h-4.42V34h4.42zm5.91 0l-2.2-3.65 2.05-3.47h-.88l-1.58 2.81-1.58-2.81h-.88l2.04 3.47L42.63 34h.86l1.74-2.99L46.96 34h.88zm6.08 0v-7.12h-.76v3.19h-3.38v-3.19h-.76V34h.76v-3.25h3.38V34h.76zm6.77-4.05c0-.87-.05-1.77-.67-2.39-.48-.48-1.12-.74-1.82-.74s-1.34.26-1.82.74c-.61.61-.67 1.48-.67 2.33v.55c0 1.42.02 2.23.67 2.88.48.48 1.11.74 1.82.74s1.34-.26 1.82-.74c.65-.65.67-1.46.67-2.88v-.49zm-.76.84c0 .82-.01 1.59-.5 2.08-.33.33-.76.51-1.23.51s-.9-.18-1.23-.51c-.46-.46-.5-1.16-.5-1.93v-.71c0-.98 0-1.72.5-2.22.33-.33.77-.51 1.23-.51.46 0 .9.18 1.23.51.47.47.5 1.21.5 2.05v.73zM66.99 34v-7.12h-3.92v2.89c0 2.96-.63 3.55-1.51 3.55h-.19V34h.36c1.36 0 2.08-1 2.08-4v-2.44h2.42V34h.76zm6.77-4.05c0-.87-.05-1.77-.67-2.39-.48-.48-1.12-.74-1.82-.74s-1.34.26-1.82.74c-.61.61-.67 1.48-.67 2.33v.55c0 1.42.02 2.23.67 2.88.48.48 1.11.74 1.82.74s1.34-.26 1.82-.74c.65-.65.67-1.46.67-2.88v-.49zm-.76.84c0 .82-.01 1.59-.5 2.08-.33.33-.76.51-1.23.51s-.9-.18-1.23-.51c-.46-.46-.5-1.16-.5-1.93v-.71c0-.98 0-1.72.5-2.22.33-.33.77-.51 1.23-.51.46 0 .9.18 1.23.51.47.47.5 1.21.5 2.05v.73zm6.9-3.23v-.68h-4.28V34h.76v-6.44h3.52zM86.34 34v-7.12h-.72L82 32.68v-5.8h-.76V34h.72l3.62-5.81V34h.76zm7.16 0v-7.12h-.72l-3.62 5.8v-5.8h-.76V34h.72l3.62-5.81V34h.76zm-1.09-8.83h-.64c-.04.49-.33.74-.82.74-.49 0-.78-.25-.82-.74h-.64c.06.89.63 1.26 1.46 1.26s1.4-.37 1.46-1.26z"/></g></symbol><symbol id="icon-telegram" viewBox="0 0 32 27"><path d="M29.84.177L1.494 11.11c-1.935.777-1.923 1.856-.353 2.337l7.07 2.206 2.705 8.294c.329.907.166 1.267 1.12 1.267.735 0 1.061-.335 1.471-.735.26-.255 1.808-1.76 3.535-3.438l7.353 5.433c1.353.746 2.33.36 2.667-1.257L31.89 2.47c.494-1.981-.756-2.88-2.05-2.293zM9.32 15.147L25.255 5.092c.795-.482 1.525-.223.926.309l-13.644 12.31-.532 5.667-2.685-8.233z"/></symbol><symbol id="icon-twitter" viewBox="0 0 32 26"><path d="M31.528 3.033a12.87 12.87 0 0 1-3.715 1.018A6.48 6.48 0 0 0 30.657.472a12.948 12.948 0 0 1-4.107 1.57 6.468 6.468 0 0 0-11.021 5.9A18.366 18.366 0 0 1 2.194 1.184a6.435 6.435 0 0 0-.875 3.252A6.465 6.465 0 0 0 4.197 9.82a6.45 6.45 0 0 1-2.93-.81v.082a6.473 6.473 0 0 0 5.189 6.343 6.503 6.503 0 0 1-2.922.11 6.475 6.475 0 0 0 6.042 4.492 12.976 12.976 0 0 1-8.033 2.77c-.522 0-1.037-.031-1.543-.091a18.304 18.304 0 0 0 9.916 2.906c11.898 0 18.403-9.856 18.403-18.404 0-.28-.005-.56-.018-.838a13.1 13.1 0 0 0 3.227-3.347z"/></symbol><symbol id="icon-up" viewBox="0 0 12 8"><path d="M1.41 8L6 3.41 10.59 8 12 6.58l-6-6-6 6L1.41 8z"/></symbol><symbol id="icon-viber" viewBox="0 0 31 31"><g><path d="M28.046 22.425c-.943-.759-1.951-1.44-2.943-2.136-1.978-1.39-3.788-1.498-5.264.738-.829 1.255-1.99 1.31-3.203.76-3.345-1.518-5.928-3.855-7.44-7.255-.67-1.504-.661-2.852.905-3.916.829-.563 1.664-1.229 1.597-2.458-.087-1.603-3.98-6.96-5.516-7.526C5.546.398 4.912.413 4.266.631.66 1.843-.831 4.807.598 8.317c4.265 10.47 11.771 17.76 22.103 22.208.59.254 1.244.355 1.575.446 2.352.024 5.108-2.243 5.904-4.492.766-2.164-.854-3.023-2.134-4.054zM16.46 1.706c7.554 1.161 11.038 4.753 12 12.36.089.703-.173 1.76.83 1.78 1.047.02.795-1.021.804-1.725C30.182 6.956 23.934.314 16.679.07c-.547.079-1.68-.378-1.75.85-.048.827.906.69 1.532.787z"/><path d="M17.938 3.792c-.726-.088-1.685-.43-1.855.578-.177 1.058.892.95 1.579 1.104 4.665 1.043 6.289 2.741 7.057 7.369.112.674-.11 1.724 1.036 1.55.85-.13.543-1.03.614-1.555.037-4.443-3.77-8.487-8.43-9.046z"/><path d="M18.367 7.425c-.485.012-.961.064-1.14.582-.267.775.296.96.87 1.052 1.913.307 2.92 1.436 3.111 3.344.052.518.38.938.881.878.693-.082.756-.7.735-1.285.034-2.144-2.39-4.623-4.457-4.571z"/></g></symbol><symbol id="icon-vk" viewBox="0 0 32 21"><path d="M.005 1.527c-.219-1.336 6.241-.509 6.241-.509s3.75 9.417 5.228 9.417c1.478 0 .766-7.985.766-7.985s-1.833-.478-1.833-1.21C10.407.51 12.24 0 12.24 0h5.393c.646 0 .903 1.05.903 1.75v8.558h1.478s1.316-2.115 2.354-4.263c1.038-2.149 2.3-5.027 2.3-5.027h6.267s1.15.032 1.013.986c-.186 1.299-4.356 7.466-5.228 9.576-.657 1.59 2.76 3.744 4.215 6.045.945 1.493 1.013 3.245 1.013 3.245h-7.445l-3.723-4.327s-.766-.318-1.368.127c-.603.446-.63 1.337-.63 1.337v2.863h-5.83s-4.461-1.527-8.239-8.208C.936 5.982.224 2.863.005 1.527z"/></symbol><symbol id="icon-whatsup" viewBox="0 0 32 32"><path d="M16.172 0C7.579 0 .614 6.965.614 15.558c0 2.939.815 5.688 2.232 8.033L.038 31.938l8.614-2.758a15.49 15.49 0 0 0 7.52 1.935c8.592 0 15.557-6.965 15.557-15.557C31.73 6.965 24.764 0 16.172 0zm0 28.637c-2.657 0-5.131-.797-7.197-2.163l-5.026 1.61 1.633-4.858a13.009 13.009 0 0 1-2.49-7.668c0-7.213 5.867-13.08 13.08-13.08 7.212 0 13.08 5.867 13.08 13.08 0 7.212-5.868 13.08-13.08 13.08zm-3.65-19.514c-.251-.608-.444-.628-.834-.647a8.936 8.936 0 0 0-.436-.012c-.502 0-1.022.147-1.335.468-.382.39-1.335 1.304-1.335 3.18 0 1.877 1.367 3.69 1.557 3.944.19.255 2.665 4.161 6.515 5.757 3.005 1.244 3.897 1.133 4.583.983.997-.217 2.25-.952 2.568-1.842.317-.89.317-1.654.222-1.813-.095-.159-.35-.254-.73-.445-.382-.19-2.258-1.113-2.607-1.24-.35-.128-.673-.089-.942.283-.37.514-.728 1.041-1.023 1.354-.232.246-.606.28-.927.144-.422-.18-1.61-.594-3.067-1.893-1.133-1.01-1.899-2.259-2.121-2.64-.223-.382-.02-.61.152-.817.195-.237.376-.407.566-.63.19-.222.297-.341.425-.596.127-.254.041-.517-.054-.708-.096-.19-.86-2.066-1.176-2.83z"/></symbol><symbol id="icon-youtube" viewBox="0 0 24 24"><path d="M10 16.5v-9l6 4.5m4-7.6c-.6-.2-4.3-.4-8-.4s-7.4.19-8 .38C2.44 4.9 2 8.4 2 12c0 3.59.44 7.1 2 7.61.6.2 4.3.39 8 .39s7.4-.19 8-.39c1.56-.51 2-4.02 2-7.61 0-3.6-.44-7.09-2-7.6z"/></symbol></svg>