<svg xmlns="http://www.w3.org/2000/svg"><defs><linearGradient x1="50%" y1="0%" x2="50%" y2="100%" id="a"><stop stop-color="#DC3F39" offset="0%"/><stop stop-color="#9FA63A" offset="100%"/></linearGradient><linearGradient x1="50%" y1="0%" x2="50%" y2="100%" id="b"><stop stop-color="#DF4B41" offset="0%"/><stop stop-color="#9FA63A" offset="100%"/></linearGradient></defs><symbol id="icon-add-cal" viewBox="0 0 18 20"><path d="M16 18V6H2v12h14zM13 0h2v2h1a2 2 0 0 1 2 2v14a2 2 0 0 1-2 2H2a2 2 0 0 1-2-2V4c0-1.11.89-2 2-2h1V0h2v2h8V0zM8 8h2v3h3v2h-3v3H8v-3H5v-2h3V8z"/></symbol><symbol id="pic-logo" viewBox="0 0 412 206"><g fill="none" fill-rule="evenodd"><path d="M148.38 205.945H38.248a2.457 2.457 0 0 1 0-4.912H148.38a2.455 2.455 0 1 1 0 4.912" fill="#9FA63A"/><path d="M242.162 90.204c-.895.851-1.975 1.277-3.242 1.277-1.222 0-2.292-.426-3.209-1.277-.917-.852-1.376-1.845-1.376-2.981V71.961h-13.952v15.262c0 1.136-.448 2.129-1.343 2.981-.895.851-1.976 1.277-3.242 1.277-1.267 0-2.347-.426-3.242-1.277-.895-.852-1.343-1.845-1.343-2.981V48.315c0-1.136.448-2.118 1.343-2.948.895-.829 1.975-1.244 3.242-1.244 1.266 0 2.347.415 3.242 1.244.895.83 1.343 1.812 1.343 2.948v15.262h13.952V48.315c0-1.136.459-2.118 1.376-2.948.917-.829 1.987-1.244 3.209-1.244 1.223 0 2.293.415 3.21 1.244.917.83 1.375 1.812 1.375 2.948v38.908c0 1.136-.448 2.129-1.343 2.981M267.676 52.441c-2.883 0-4.913.809-6.092 2.424-1.179 1.616-1.768 3.756-1.768 6.419v12.97c0 2.62.632 4.76 1.899 6.419 1.266 1.66 3.253 2.489 5.961 2.489 2.707 0 4.694-.829 5.961-2.489 1.266-1.659 1.899-3.799 1.899-6.419v-12.97c0-2.663-.589-4.803-1.768-6.419-1.18-1.615-3.21-2.424-6.092-2.424zm0 39.04c-2.84 0-5.317-.448-7.434-1.343-2.12-.894-3.888-2.118-5.306-3.669-1.42-1.548-2.489-3.373-3.21-5.468-.721-2.097-1.081-4.345-1.081-6.747v-12.97c0-2.314.316-4.508.95-6.583.633-2.073 1.626-3.898 2.981-5.469 1.352-1.572 3.111-2.817 5.272-3.734 2.162-.917 4.771-1.375 7.828-1.375 3.056 0 5.666.458 7.827 1.375 2.162.917 3.919 2.162 5.274 3.734 1.352 1.571 2.346 3.396 2.98 5.469.632 2.075.949 4.269.949 6.583v12.97c0 2.402-.36 4.65-1.081 6.747-.719 2.095-1.791 3.92-3.209 5.468-1.42 1.551-3.188 2.775-5.305 3.669-2.119.895-4.597 1.343-7.435 1.343zM300.95 71.175v11.398h7.336c2.183 0 3.809-.502 4.88-1.507 1.07-1.004 1.605-2.358 1.605-4.061 0-1.877-.579-3.319-1.736-4.324-1.158-1.004-2.61-1.506-4.356-1.506h-7.729zm7.533-8.384c.566 0 1.146-.099 1.735-.295a5.072 5.072 0 0 0 1.638-.917c.502-.414.906-.949 1.212-1.605.304-.655.458-1.419.458-2.293 0-1.265-.338-2.368-1.015-3.307-.678-.939-1.867-1.409-3.57-1.409h-7.991v9.826h7.533zm-11.594 28.1c-1.441 0-2.653-.469-3.636-1.408-.982-.938-1.473-2.041-1.473-3.308V49.428c0-1.353.501-2.477 1.506-3.374 1.004-.893 2.205-1.342 3.603-1.342h11.069c2.446 0 4.596.36 6.453 1.081 1.855.72 3.394 1.681 4.618 2.881a11.881 11.881 0 0 1 2.751 4.127c.611 1.551.917 3.134.917 4.749 0 2.316-.656 4.204-1.965 5.666-1.311 1.464-2.948 2.676-4.913 3.636 1.004.393 1.998.884 2.98 1.474.983.589 1.856 1.3 2.62 2.129a9.86 9.86 0 0 1 1.834 2.882c.459 1.091.688 2.358.688 3.798 0 1.923-.371 3.713-1.113 5.372a12.778 12.778 0 0 1-3.21 4.356c-1.398 1.244-3.101 2.226-5.109 2.947-2.01.721-4.28 1.081-6.812 1.081h-10.808zM346.668 63.118a20.625 20.625 0 0 1-.72-3.177 152.29 152.29 0 0 1-.458-3.242 166.727 166.727 0 0 1-.459 3.242 20.743 20.743 0 0 1-.72 3.177l-3.472 11.201h9.17l-3.341-11.201zm-10.415 25.284a4.346 4.346 0 0 1-1.834 2.26c-.874.546-1.703.819-2.489.819-1.267 0-2.369-.383-3.308-1.146-.939-.764-1.408-1.78-1.408-3.046 0-.174.011-.415.033-.721.022-.305.076-.546.164-.721l12.773-37.27c.436-1.267 1.037-2.325 1.801-3.177.763-.851 1.932-1.277 3.505-1.277 1.572 0 2.74.415 3.504 1.244.763.83 1.385 1.899 1.867 3.21l12.773 37.27c.087.175.141.416.163.721.022.306.033.547.033.721 0 1.266-.448 2.282-1.342 3.046-.896.763-2.021 1.146-3.374 1.146-.874 0-1.747-.285-2.62-.851-.874-.568-1.485-1.311-1.834-2.228l-2.292-6.615h-13.953l-2.162 6.615zM377.913 58.598c0 1.703.535 3.014 1.605 3.931 1.069.917 2.631 1.375 4.684 1.375h6.681V53.031h-6.288c-1.354 0-2.468.164-3.341.491-.874.327-1.551.753-2.031 1.277a4.528 4.528 0 0 0-1.015 1.769 7.05 7.05 0 0 0-.295 2.03zm-9.17 0c0-1.703.272-3.383.819-5.043.546-1.659 1.441-3.144 2.685-4.455 1.245-1.309 2.904-2.368 4.979-3.176 2.073-.808 4.66-1.212 7.762-1.212h10.087a4.78 4.78 0 0 1 1.9.393c.61.262 1.145.601 1.604 1.016.458.415.819.906 1.082 1.473.261.568.392 1.179.392 1.834v37.73c0 1.179-.436 2.194-1.309 3.046-.874.851-1.945 1.277-3.21 1.277a4.51 4.51 0 0 1-1.769-.36 5.345 5.345 0 0 1-1.507-.95 4.172 4.172 0 0 1-1.014-1.375 3.868 3.868 0 0 1-.361-1.638v-15h-3.21l-10.938 17.226c-.874 1.355-2.162 2.032-3.865 2.032-.437 0-.928-.111-1.474-.328a7.727 7.727 0 0 1-1.572-.852 4.612 4.612 0 0 1-1.245-1.277 2.88 2.88 0 0 1-.491-1.605c0-.349.066-.786.197-1.31a4.33 4.33 0 0 1 .589-1.375l8.909-13.494c-2.84-.917-5.056-2.423-6.649-4.52-1.595-2.096-2.391-4.781-2.391-8.057zM237.414 118.086l11.921-17.49c1.004-1.309 2.271-1.965 3.799-1.965.698 0 1.32.142 1.867.426a5.29 5.29 0 0 1 1.409 1.048c.393.415.687.884.884 1.408.197.525.294 1.027.294 1.507 0 .35-.044.688-.131 1.015-.087.328-.24.688-.458 1.081l-11.463 17.162 11.463 17.292c.218.393.371.743.458 1.049.087.305.131.633.131.982 0 .481-.097.983-.294 1.506a4.146 4.146 0 0 1-.884 1.408 5.25 5.25 0 0 1-1.409 1.049c-.547.283-1.169.426-1.867.426-1.571 0-2.839-.633-3.799-1.9l-11.921-17.554v15.196c0 1.136-.449 2.129-1.343 2.981-.896.851-1.976 1.277-3.243 1.277-1.266 0-2.347-.426-3.242-1.277-.895-.852-1.342-1.845-1.342-2.981v-15.196l-11.921 17.554c-.962 1.267-2.228 1.9-3.8 1.9-.699 0-1.321-.143-1.866-.426a5.255 5.255 0 0 1-1.41-1.049 4.143 4.143 0 0 1-.883-1.408 4.266 4.266 0 0 1-.295-1.506c0-.349.043-.677.131-.982.086-.306.24-.656.459-1.049l11.462-17.227-11.462-17.227a4.733 4.733 0 0 1-.459-1.081 3.886 3.886 0 0 1-.131-1.015c0-.48.098-.982.295-1.507.196-.524.491-.993.883-1.408a5.294 5.294 0 0 1 1.41-1.048c.545-.284 1.167-.426 1.866-.426 1.528 0 2.794.656 3.8 1.965l11.921 17.49v-15.262c0-1.136.447-2.118 1.342-2.948.895-.829 1.976-1.245 3.242-1.245 1.267 0 2.347.416 3.243 1.245.894.83 1.343 1.812 1.343 2.948v15.262M267.544 145.99c-1.44 0-2.609-.438-3.504-1.311s-1.342-1.921-1.342-3.143v-38.647c0-1.135.435-2.129 1.309-2.98.873-.852 1.943-1.278 3.21-1.278 1.266 0 2.359.426 3.276 1.278.917.851 1.375 1.845 1.375 2.98v24.76c1.484-2.62 2.849-5.011 4.093-7.173 1.245-2.161 2.446-4.258 3.603-6.288 1.157-2.03 2.336-4.094 3.537-6.19a2594.02 2594.02 0 0 0 3.963-6.943 5.196 5.196 0 0 1 1.932-1.768 5.231 5.231 0 0 1 2.522-.656c1.397 0 2.544.426 3.439 1.278.895.851 1.343 1.91 1.343 3.177v38.646c0 1.136-.437 2.129-1.31 2.981-.874.851-1.944 1.277-3.209 1.277-1.268 0-2.359-.426-3.276-1.277-.917-.852-1.376-1.845-1.376-2.981v-24.498l-15.196 26.463c-.437.699-1.06 1.256-1.866 1.67a5.46 5.46 0 0 1-2.523.623M332.851 132.103a12.71 12.71 0 0 1-1.113 5.24c-.743 1.661-1.814 3.134-3.21 4.421-1.399 1.289-3.09 2.316-5.076 3.079-1.989.764-4.205 1.147-6.649 1.147-1.441 0-3.036-.143-4.782-.426a23.906 23.906 0 0 1-4.88-1.31c-1.507-.589-2.773-1.31-3.799-2.162-1.026-.851-1.54-1.867-1.54-3.045 0-1.091.426-2.02 1.277-2.785.852-.763 1.845-1.146 2.981-1.146a4.98 4.98 0 0 1 2.063.459c.677.305 1.398.644 2.163 1.014.762.373 1.614.711 2.554 1.016.939.306 2.04.459 3.308.459 2.489 0 4.377-.6 5.666-1.802 1.287-1.2 1.931-2.652 1.931-4.355 0-1.092-.261-1.998-.785-2.719-.524-.721-1.223-1.299-2.096-1.735-.874-.437-1.878-.764-3.013-.984a30.496 30.496 0 0 0-3.603-.458 25.292 25.292 0 0 1-1.834-.196 4.808 4.808 0 0 1-1.637-.524c-.482-.262-.864-.665-1.147-1.212-.284-.545-.426-1.299-.426-2.26 0-.917.142-1.638.426-2.161.283-.525.644-.917 1.081-1.18a3.665 3.665 0 0 1 1.474-.491 13.035 13.035 0 0 1 1.539-.098 16.848 16.848 0 0 0 3.275-.459c1.091-.261 2.064-.643 2.915-1.146.852-.501 1.539-1.123 2.063-1.866.524-.743.786-1.638.786-2.686a5.43 5.43 0 0 0-.327-1.834 4.707 4.707 0 0 0-1.048-1.671c-.481-.501-1.113-.905-1.899-1.212-.786-.304-1.769-.458-2.949-.458-1.834 0-3.515.35-5.043 1.048-.743.35-1.497.753-2.26 1.212a4.815 4.815 0 0 1-2.522.688c-1.048 0-2.009-.361-2.882-1.082-.874-.719-1.31-1.626-1.31-2.717 0-1.091.469-2.074 1.408-2.949.939-.872 2.129-1.614 3.57-2.226a23.332 23.332 0 0 1 4.716-1.408c1.703-.328 3.319-.492 4.848-.492 2.401 0 4.519.393 6.353 1.179 1.834.786 3.363 1.802 4.585 3.046 1.223 1.245 2.14 2.643 2.751 4.192.612 1.551.917 3.069.917 4.553 0 2.227-.622 4.126-1.866 5.698-1.245 1.573-3.068 2.97-5.47 4.193 2.62 1.048 4.694 2.413 6.223 4.094 1.528 1.681 2.293 3.854 2.293 6.517M369.957 144.713c-.895.851-1.975 1.277-3.242 1.277-1.222 0-2.292-.426-3.209-1.277-.917-.852-1.376-1.845-1.376-2.981v-15.263h-13.952v15.263c0 1.136-.448 2.129-1.343 2.981-.895.851-1.976 1.277-3.242 1.277-1.267 0-2.348-.426-3.242-1.277-.896-.852-1.343-1.845-1.343-2.981v-38.908c0-1.136.447-2.118 1.343-2.948.894-.829 1.975-1.245 3.242-1.245 1.266 0 2.347.416 3.242 1.245.895.83 1.343 1.812 1.343 2.948v15.262h13.952v-15.262c0-1.136.459-2.118 1.376-2.948.917-.829 1.987-1.245 3.209-1.245 1.223 0 2.293.416 3.21 1.245.917.83 1.375 1.812 1.375 2.948v38.908c0 1.136-.448 2.129-1.343 2.981M388.788 123.195v13.887h5.568c1.528 0 2.784-.207 3.766-.623.983-.414 1.747-.95 2.293-1.605a5.737 5.737 0 0 0 1.147-2.227c.218-.829.327-1.68.327-2.554 0-2.359-.634-4.095-1.899-5.208-1.268-1.113-3.145-1.67-5.634-1.67h-5.568zm0-8.319h5.568c2.532 0 4.825.338 6.878 1.015 2.052.678 3.809 1.649 5.273 2.915 1.462 1.267 2.587 2.849 3.373 4.749.786 1.9 1.179 4.051 1.179 6.451 0 2.01-.294 3.942-.884 5.798a12.907 12.907 0 0 1-2.849 4.912c-1.31 1.42-3.036 2.555-5.175 3.407-2.14.851-4.739 1.277-7.795 1.277h-9.628a4.938 4.938 0 0 1-1.966-.393 5.727 5.727 0 0 1-1.604-1.015 4.95 4.95 0 0 1-1.114-1.474 4.03 4.03 0 0 1-.425-1.834v-37.729c0-1.18.458-2.195 1.375-3.046.917-.852 1.987-1.278 3.209-1.278 1.266 0 2.347.437 3.243 1.31.894.874 1.342 1.878 1.342 3.014v11.921z" fill="#0A0B09"/><path d="M92.971 15.414c-42.516 0-77.104 34.589-77.104 77.104 0 42.516 34.588 77.105 77.104 77.105s77.105-34.589 77.105-77.105c0-42.515-34.589-77.104-77.105-77.104zm0 169.394c-50.889 0-92.29-41.401-92.29-92.29C.681 41.63 42.082.228 92.971.228s92.29 41.402 92.29 92.29c0 50.889-41.401 92.29-92.29 92.29z" fill="#F5C047"/><path d="M24.064 57.175l-.806.856-1.613 1.712-.807.856.717.672 5.031 4.711c3.001 2.823 6.959 6.573 10.485 10.619 3.556 4.025 6.531 8.448 8.438 11.955.952 1.752 1.7 3.24 2.167 4.31l.758 1.67.006.015.151.479c.044.146.112.303.162.492l.111.64c.104.419.111.903.135 1.255l.04.589L49 99.283s.007.255-.056.758c-.058.5-.102 1.227-.281 2.175-.3 1.885-.931 4.613-1.989 7.85-2.089 6.484-5.85 14.94-10.188 23.101-4.325 8.173-9.175 16.08-13.06 21.809-3.876 5.745-6.765 9.275-6.765 9.275l-.597.747.91.746.91.745.91.745.91.745.627-.784s3.031-3.71 6.992-9.584c3.978-5.866 8.907-13.903 13.321-22.242 4.426-8.332 8.293-16.993 10.505-23.851 1.12-3.423 1.816-6.397 2.158-8.546.349-2.146.392-3.441.392-3.441l.044-1.593-.047-.795c-.032-.479-.05-1.106-.195-1.774l-.177-.965c-.081-.312-.19-.61-.27-.862l-.286-.836-.009-.022-.808-1.783c-.499-1.14-1.299-2.736-2.321-4.615-2.041-3.761-5.258-8.53-9.011-12.776-3.725-4.271-7.79-8.114-10.81-10.956l-5.032-4.711-.713-.668" fill="url(#a)" transform="translate(37 37)"/><path d="M46.167 15.306l-1.068.493-1.068.492-1.068.494-1.068.492.397.884s1.657 3.587 3.92 9.119c2.278 5.52 5.173 12.958 7.915 20.454a611.344 611.344 0 0 1 7.187 20.73c1.854 5.685 2.975 9.5 2.975 9.5s1.207 4.012 2.285 8.041a169.785 169.785 0 0 1 1.905 8.061l.002.017.149 1.164.044 1.255-.035.768c-.003.496-.078 1.246-.185 2.206-.241 1.924-.781 4.721-1.707 8.06-1.83 6.686-5.191 15.471-9.068 24.022-3.868 8.56-8.231 16.907-11.781 22.965-1.77 3.033-3.324 5.499-4.447 7.187a80.997 80.997 0 0 1-1.802 2.61l-.553.77.945.699.946.7.947.699.945.699.591-.821s.724-.989 1.9-2.753c1.174-1.764 2.778-4.312 4.591-7.419 3.639-6.209 8.066-14.682 12.005-23.397 3.947-8.712 7.388-17.674 9.316-24.708.975-3.512 1.568-6.544 1.841-8.733.125-1.101.208-1.972.217-2.589l.038-.933-.056-1.645c-.09-.851-.223-1.712-.223-1.712l-.004-.022s-.876-4.234-1.973-8.354c-1.102-4.118-2.325-8.183-2.325-8.183s-1.137-3.871-3.009-9.609a614.943 614.943 0 0 0-7.243-20.893c-2.761-7.549-5.678-15.042-7.982-20.629-2.287-5.59-3.99-9.277-3.99-9.277l-.406-.904" fill="url(#b)" transform="translate(37 37)"/><path d="M93.075 47.118l-1.174.08-1.173.08-1.174.08-1.173.08.069.981 1.199 15.876c.275 3.943.437 7.866.479 10.813.024 1.473.029 2.702.02 3.562l-.004 1.351s-.041 3.376-.183 6.76c-.137 3.383-.356 6.771-.356 6.771l-.001.019-.232 1.855c-.054.463-.103.925-.194 1.289l-.123.598-.16.782c-.122.511-.22 1.254-.49 2.213l-.903 3.451-1.348 4.466c-2.076 6.535-5.316 15.157-8.928 23.619-3.599 8.468-7.576 16.778-10.866 22.793-.839 1.49-1.582 2.878-2.286 4.069l-1.849 3.062-1.705 2.564-.527.786.956.685.955.686.956.685.956.686.566-.842 1.823-2.74 1.93-3.197c.732-1.239 1.494-2.66 2.359-4.198 3.38-6.181 7.41-14.606 11.06-23.194 3.663-8.582 6.95-17.323 9.084-24.037l1.392-4.613.948-3.622c.278-.994.398-1.835.526-2.38l.174-.85.133-.649c.093-.379.157-.93.223-1.478l.265-2.189.002-.02s.221-3.432.361-6.877c.145-3.445.187-6.902.187-6.902l.004-1.386c.009-.881.004-2.141-.02-3.653-.044-3.025-.211-7.059-.49-11.059l-1.199-15.882-.069-.974" fill="url(#a)" transform="translate(37 37)"/><path d="M144.715 73.199c-1.464-.43-5.765-.791-9.858 1.256-4.421 2.21-7.448 6.23-7.75 9.599a1.694 1.694 0 0 0-.035.344c0 .944 1.336 3.697 1.336 2.753 0-1.221 1.655-2.047 3.832-2.49 3.22-.655 6.529.137 11.459.137a5.84 5.84 0 0 0 5.84-5.84c0-2.908-1.76-4.859-4.824-5.759" fill="#DC3F39"/><path d="M106.681 78.958a5.84 5.84 0 0 0 5.84 5.84c4.929 0 8.238-.792 11.458-.137 2.178.443 3.832 1.269 3.832 2.49 0 .944 1.337-1.809 1.337-2.753 0-.118-.012-.233-.035-.344-.303-3.369-3.329-7.389-7.75-9.599-4.094-2.047-8.394-1.686-9.859-1.256-3.063.9-4.823 2.851-4.823 5.759" fill="#DC3F39"/><path d="M94.205 37.07c-1.523.098-5.686 1.234-8.83 4.56-3.395 3.593-4.86 8.406-3.989 11.675.017.112.045.224.086.335.323.887 2.523 3.015 2.199 2.128-.419-1.147.852-2.49 2.746-3.653 2.8-1.719 6.18-2.11 10.811-3.801a5.84 5.84 0 0 0 3.483-7.488c-.997-2.731-3.32-3.961-6.506-3.756" fill="#DF4B41"/><path d="M58.572 56.207a5.84 5.84 0 0 0 7.489 3.484c4.631-1.691 7.468-3.569 10.717-4.057 2.197-.331 4.035-.122 4.453 1.024.324.887.636-2.157.312-3.044a1.69 1.69 0 0 0-.151-.311c-1.439-3.061-5.661-5.799-10.572-6.36-4.547-.519-8.463 1.294-9.691 2.201-2.569 1.895-3.554 4.332-2.557 7.063" fill="#DF4B41"/><path d="M64.686 76.033c-1.378.656-4.823 3.255-6.509 7.51-1.82 4.595-1.396 9.609.625 12.321.057.098.125.192.204.28.63.704 3.461 1.864 2.831 1.16-.814-.909-.131-2.628 1.196-4.41 1.963-2.635 4.957-4.252 8.63-7.539a5.84 5.84 0 0 0 .458-8.246c-1.938-2.167-4.552-2.448-7.435-1.076" fill="#DC3F39"/><path d="M38.692 106.021a5.84 5.84 0 0 0 8.246.458c3.674-3.288 5.612-6.084 8.448-7.743 1.918-1.122 3.702-1.609 4.516-.7.629.704-.21-2.239-.84-2.942a1.701 1.701 0 0 0-.255-.234c-2.472-2.309-7.408-3.286-12.177-1.985-4.415 1.204-7.379 4.34-8.184 5.638-1.682 2.713-1.693 5.341.246 7.508" fill="#DC3F39"/></g></symbol><symbol id="icon-close" viewBox="0 0 14 14"><path d="M14 1.41L12.59 0 7 5.59 1.41 0 0 1.41 5.59 7 0 12.59 1.41 14 7 8.41 12.59 14 14 12.59 8.41 7 14 1.41z"/></symbol><symbol id="pic-te-st" viewBox="0 0 99 40"><g fill="#000" fill-rule="evenodd"><path d="M10.895 20.245a2 2 0 0 1-1.4-2.394l-1.394-.805c-.359.343-.845.554-1.381.554a1.994 1.994 0 0 1-1.42-.592l-1.369.79A2.003 2.003 0 0 1 2 20.32a2 2 0 1 1 1.347-3.479l1.418-.818a2 2 0 0 1 3.33-1.875l2.785-1.607V9.28a1.998 1.998 0 0 1-.828-.481l-1.392.87a2 2 0 1 1-3.885.027l-1.451-.838a1.996 1.996 0 0 1-.764.422v1.678a2 2 0 1 1-1.12 0V9.281A2 2 0 1 1 3.428 5.96l1.333-.833a2 2 0 1 1 .528.99l-1.331.833a2.009 2.009 0 0 1-.035.962l1.406.811c.36-.348.85-.563 1.391-.563.53 0 1.013.207 1.371.544l1.404-.877a2.005 2.005 0 0 1 1.465-2.409V3.942A2 2 0 1 1 12 3.921v1.518a2 2 0 0 1 0 3.842v3.306l2.653 1.532c.256-.26.582-.451.947-.541v-1.476a2 2 0 1 1 1.85-3.399l1.389-.868a2.01 2.01 0 0 1 .022-.888l-1.434-.828a2 2 0 1 1 .584-.956l1.42.82a2 2 0 1 1 1.93 3.378l-.001 1.518a2 2 0 1 1-1.04-.021V9.382a1.998 1.998 0 0 1-.959-.553l-1.342.84a2.004 2.004 0 0 1-1.379 2.412v1.518a2 2 0 0 1 1.366 2.462l1.41.815a2 2 0 1 1-.56.97l-1.444-.834a2 2 0 0 1-3.29-1.906l-2.722-1.572-2.74 1.581a2.004 2.004 0 0 1 .003.962l1.39.802a2 2 0 1 1 1.896 3.375v2.62l2.279-1.317a2.003 2.003 0 0 1 1.932-2.517 2 2 0 1 1-1.4 3.428l-2.811 1.624v4.783h10.34a.352.352 0 0 1 0 .703H11.985c.182 1.334 1.447 1.512 3.42 1.674 1.924.157 4.103.336 4.69 2.502a.264.264 0 0 1-.255.334.263.263 0 0 1-.254-.196c-.442-1.632-2.03-1.917-3.685-2.068.045.05.087.101.126.155.316.427.81.626 1.334.836.656.264 1.334.537 1.641 1.286a.264.264 0 1 1-.487.2c-.223-.543-.745-.753-1.35-.996a7.767 7.767 0 0 1-.682-.301c.065.246.117.496.166.74.088.44.171.858.331 1.208a.264.264 0 0 1-.48.22c-.185-.406-.278-.873-.368-1.324-.216-1.08-.403-2.012-1.693-2.154l-.01-.002c-.915-.103-1.768-.285-2.327-.776.262.613.652 1.061 1.035 1.499.158.181.318.364.467.558l.009.007c.157.204.34.377.535.562.26.245.532.504.754.852.005.007.01.012.014.02.293.466 1.156 1.418 1.703 1.727a.264.264 0 0 1-.258.46c-.308-.174-.677-.497-1.015-.844.032.325.032.694-.014 1.127a.263.263 0 0 1-.262.236l-.028-.001a.264.264 0 0 1-.234-.29c.128-1.21-.109-1.851-.471-2.324.16.822.056 1.91-.553 3.493a.264.264 0 1 1-.492-.19c1.18-3.065.378-3.983-.551-5.045-.368-.422-.761-.873-1.05-1.477.083 1.033.216 1.881.332 2.616.35 2.212.56 3.548-1.174 5.988a.262.262 0 0 1-.367.062.264.264 0 0 1-.062-.368c1.274-1.793 1.422-2.909 1.26-4.363-.107.186-.233.341-.357.494-.329.407-.64.793-.575 1.874a.264.264 0 0 1-.247.28h-.016a.264.264 0 0 1-.263-.248c-.078-1.286.331-1.791.692-2.238.36-.445.67-.829.483-2.083a28.944 28.944 0 0 1-.222-1.844c-.283.577-.751 1.206-1.528 1.862-.928.782-.676 1.636-.385 2.623.19.647.388 1.316.265 2.011a.263.263 0 1 1-.519-.091c.1-.574-.078-1.182-.251-1.77a9.547 9.547 0 0 1-.216-.822l-.067.31c-.195.912-.396 1.856-1.619 2.658a.264.264 0 0 1-.288-.441c1.04-.683 1.203-1.444 1.391-2.327.082-.383.17-.79.343-1.202l-.223.132c-.772.458-1.198.709-1.369 1.68a.263.263 0 1 1-.519-.09c.213-1.212.803-1.56 1.62-2.044.43-.255.92-.543 1.496-1.03.911-.769 1.354-1.481 1.57-2.108-.07.086-.144.169-.226.246-.784.735-2.06 1.051-3.796.945-.77.142-.857.562-.975 1.488-.107.842-.24 1.89-1.16 2.98a.261.261 0 0 1-.371.031.264.264 0 0 1-.032-.371c.82-.972.942-1.934 1.04-2.706.069-.537.136-1.055.44-1.43a5.778 5.778 0 0 0-.783.103c-.674.28-.703.634-.754 1.273-.035.428-.078.96-.364 1.55a.263.263 0 0 1-.352.121.264.264 0 0 1-.122-.353c.243-.5.28-.956.312-1.36.023-.282.046-.558.135-.813-1.014.587-1.173 1.451-1.183 1.509a.264.264 0 0 1-.52-.087c.13-.775.845-1.924 2.656-2.331l.007-.004a.26.26 0 0 1 .095-.02 7.292 7.292 0 0 1 1.929-.109c1.58.104 2.768-.173 3.437-.8.372-.35.529-.748.586-1.09H.555a.351.351 0 0 1 0-.704h10.34v-4.783l-2.82-1.629c-.22.216-.492.38-.794.472a2 2 0 1 1 1.144-2.8 1.936 1.936 0 0 1 .177 1.413l2.292 1.326v-2.63zm6.213 1.392a1.12 1.12 0 0 0-1.938-1.12l.03.018a1.062 1.062 0 0 0 .002 1.07 1.07 1.07 0 0 0 1.85 0l.056.032zm-10.122.469a1.12 1.12 0 1 0-1.281-.45l.086-.05a1.068 1.068 0 0 0 1.195.5zm5.405-3.194a1.12 1.12 0 1 0-1.912-.016l.016-.01a1.07 1.07 0 0 0 1.852 0l.044.026zM2 8.48a1.12 1.12 0 1 0 0-2.24 1.12 1.12 0 0 0 0 2.24zM2 14a1.12 1.12 0 1 0 0-2.24A1.12 1.12 0 0 0 2 14zm4.72-8.16a1.12 1.12 0 1 0 0-2.24 1.12 1.12 0 0 0 0 2.24zm4.72-2.72a1.12 1.12 0 1 0 0-2.24 1.12 1.12 0 0 0 0 2.24zm0 5.36a1.12 1.12 0 1 0 0-2.24 1.12 1.12 0 0 0 0 2.24zm-4.72 2.8a1.12 1.12 0 1 0 0-2.24 1.12 1.12 0 0 0 0 2.24zm9.36-5.52a1.12 1.12 0 1 0 0-2.24 1.12 1.12 0 0 0 0 2.24zm4.72 2.8a1.12 1.12 0 1 0 0-2.24 1.12 1.12 0 0 0 0 2.24zm0 5.36a1.12 1.12 0 1 0 0-2.24 1.12 1.12 0 0 0 0 2.24zm-4.72-2.64a1.12 1.12 0 1 0 0-2.24 1.12 1.12 0 0 0 0 2.24zm0 5.36a1.12 1.12 0 1 0 0-2.24 1.12 1.12 0 0 0 0 2.24zm4.72 2.8a1.12 1.12 0 1 0 0-2.24 1.12 1.12 0 0 0 0 2.24zM6.72 16.72a1.12 1.12 0 1 0 0-2.24 1.12 1.12 0 0 0 0 2.24zM2 19.44a1.12 1.12 0 1 0 0-2.24 1.12 1.12 0 0 0 0 2.24zM36.18 4.56v-.68H31.3v.68h2.06V11h.76V4.56h2.06zM41.93 11v-.68h-3.66V7.75h3.12v-.68h-3.12V4.56h3.66v-.68h-4.42V11h4.42zm6.47 0V3.88h-4.89V11h.76V4.56h3.37V11h.76zm6.78 0V3.88h-3.92v2.89c0 2.96-.63 3.55-1.51 3.55h-.19V11h.36C51.28 11 52 10 52 7V4.56h2.42V11h.76zm7.16 0V3.88h-.72L58 9.68v-5.8h-.76V11h.72l3.62-5.81V11h.76zm7.8 1.72v-2.4h-.85V3.88h-.76v6.44h-3.37V3.88h-.76V11h4.99v1.72h.75zm6.4-1.72l-2.61-7.12h-.64L70.67 11h.81l.57-1.61h3.11l.57 1.61h.81zm-1.6-2.27h-2.66l1.34-3.76 1.32 3.76zM36.72 20.04h-.76c-.19.87-.82 1.44-1.71 1.44-.47 0-.92-.18-1.23-.5-.45-.46-.5-.95-.5-2.44s.05-1.98.5-2.44c.31-.32.76-.5 1.23-.5.89 0 1.5.57 1.69 1.44h.78c-.24-1.34-1.19-2.12-2.47-2.12-.7 0-1.34.26-1.82.74-.67.67-.67 1.37-.67 2.88 0 1.51 0 2.21.67 2.88.48.48 1.12.74 1.82.74 1.27 0 2.24-.78 2.47-2.12zm6.19-1.99c0-.87-.05-1.77-.67-2.39-.48-.48-1.12-.74-1.82-.74s-1.34.26-1.82.74c-.61.61-.67 1.48-.67 2.33v.55c0 1.42.02 2.23.67 2.88.48.48 1.11.74 1.82.74s1.34-.26 1.82-.74c.65-.65.67-1.46.67-2.88v-.49zm-.76.84c0 .82-.01 1.59-.5 2.08-.33.33-.76.51-1.23.51s-.9-.18-1.23-.51c-.46-.46-.5-1.16-.5-1.93v-.71c0-.98 0-1.72.5-2.22.33-.33.77-.51 1.23-.51.46 0 .9.18 1.23.51.47.47.5 1.21.5 2.05v.73zm8.29 4.93v-2.4h-.85v-6.44h-.76v6.44h-3.37v-6.44h-.76v7.12h4.99v1.72h.75zm6.54-1.72v-7.12h-.72l-3.62 5.8v-5.8h-.76v7.12h.72l3.62-5.81v5.81h.76zm7.02 0l-2.61-7.12h-.64l-2.62 7.12h.81l.57-1.61h3.11l.57 1.61H64zm-1.6-2.27h-2.66l1.34-3.76 1.32 3.76zm7.46 2.27v-7.12h-3.92v2.89c0 2.96-.63 3.55-1.51 3.55h-.19v.68h.36c1.36 0 2.08-1 2.08-4v-2.44h2.42v6.44h.76zm6.93-2.09c0-1.26-.87-2.1-2.2-2.1h-1.91v-2.93h-.76v7.12h2.67c1.32 0 2.2-.84 2.2-2.09zm-.77 0c0 .89-.55 1.41-1.5 1.41h-1.84v-2.83h1.84c.95 0 1.5.52 1.5 1.42zm7.1 2.09v-7.12h-.76v3.19h-3.38v-3.19h-.76v7.12h.76v-3.25h3.38v3.25h.76zm8.64 0v-7.12H91v7.12h.76zm-1.71-2.09c0-1.26-.87-2.1-2.2-2.1h-1.91v-2.93h-.76v7.12h2.67c1.32 0 2.2-.84 2.2-2.09zm-.77 0c0 .89-.55 1.41-1.5 1.41h-1.84v-2.83h1.84c.95 0 1.5.52 1.5 1.42zm8.87 2.09l-2.2-3.65L98 14.98h-.88l-1.58 2.81-1.58-2.81h-.88l2.04 3.47-2.18 3.65h.86l1.74-2.99 1.73 2.99h.88zM36.18 27.56v-.68H31.3v.68h2.06V34h.76v-6.44h2.06zM41.93 34v-.68h-3.66v-2.57h3.12v-.68h-3.12v-2.51h3.66v-.68h-4.42V34h4.42zm5.91 0l-2.2-3.65 2.05-3.47h-.88l-1.58 2.81-1.58-2.81h-.88l2.04 3.47L42.63 34h.86l1.74-2.99L46.96 34h.88zm6.08 0v-7.12h-.76v3.19h-3.38v-3.19h-.76V34h.76v-3.25h3.38V34h.76zm6.77-4.05c0-.87-.05-1.77-.67-2.39-.48-.48-1.12-.74-1.82-.74s-1.34.26-1.82.74c-.61.61-.67 1.48-.67 2.33v.55c0 1.42.02 2.23.67 2.88.48.48 1.11.74 1.82.74s1.34-.26 1.82-.74c.65-.65.67-1.46.67-2.88v-.49zm-.76.84c0 .82-.01 1.59-.5 2.08-.33.33-.76.51-1.23.51s-.9-.18-1.23-.51c-.46-.46-.5-1.16-.5-1.93v-.71c0-.98 0-1.72.5-2.22.33-.33.77-.51 1.23-.51.46 0 .9.18 1.23.51.47.47.5 1.21.5 2.05v.73zM66.99 34v-7.12h-3.92v2.89c0 2.96-.63 3.55-1.51 3.55h-.19V34h.36c1.36 0 2.08-1 2.08-4v-2.44h2.42V34h.76zm6.77-4.05c0-.87-.05-1.77-.67-2.39-.48-.48-1.12-.74-1.82-.74s-1.34.26-1.82.74c-.61.61-.67 1.48-.67 2.33v.55c0 1.42.02 2.23.67 2.88.48.48 1.11.74 1.82.74s1.34-.26 1.82-.74c.65-.65.67-1.46.67-2.88v-.49zm-.76.84c0 .82-.01 1.59-.5 2.08-.33.33-.76.51-1.23.51s-.9-.18-1.23-.51c-.46-.46-.5-1.16-.5-1.93v-.71c0-.98 0-1.72.5-2.22.33-.33.77-.51 1.23-.51.46 0 .9.18 1.23.51.47.47.5 1.21.5 2.05v.73zm6.9-3.23v-.68h-4.28V34h.76v-6.44h3.52zM86.34 34v-7.12h-.72L82 32.68v-5.8h-.76V34h.72l3.62-5.81V34h.76zm7.16 0v-7.12h-.72l-3.62 5.8v-5.8h-.76V34h.72l3.62-5.81V34h.76zm-1.09-8.83h-.64c-.04.49-.33.74-.82.74-.49 0-.78-.25-.82-.74h-.64c.06.89.63 1.26 1.46 1.26s1.4-.37 1.46-1.26z"/></g></symbol><symbol id="icon-down" viewBox="0 0 12 8"><path d="M1.41.58L6 5.17 10.59.58 12 2 6 8 0 2 1.41.58z"/></symbol><symbol id="icon-facebook" viewBox="0 0 15 32"><path d="M14.66 10.216H9.667V6.94c0-1.23.815-1.516 1.39-1.516h3.523V.019L9.727 0C4.341 0 3.115 4.032 3.115 6.612v3.604H0v5.57h3.115V31.55h6.552V15.786h4.421l.572-5.57z"/></symbol><symbol id="icon-instagram" viewBox="0 0 20 20"><path d="M5.8 0h8.4C17.4 0 20 2.6 20 5.8v8.4a5.8 5.8 0 0 1-5.8 5.8H5.8C2.6 20 0 17.4 0 14.2V5.8A5.8 5.8 0 0 1 5.8 0zm-.2 2A3.6 3.6 0 0 0 2 5.6v8.8C2 16.39 3.61 18 5.6 18h8.8a3.6 3.6 0 0 0 3.6-3.6V5.6C18 3.61 16.39 2 14.4 2H5.6zm9.65 1.5a1.25 1.25 0 1 1 0 2.5 1.25 1.25 0 0 1 0-2.5zM10 5a5 5 0 1 1 0 10 5 5 0 0 1 0-10zm0 2a3 3 0 1 0 0 6 3 3 0 0 0 0-6z"/></symbol><symbol id="icon-mail" viewBox="0 0 20 20"><path d="M2 8l8 5 8-5-8-5-8 5zm18 0v10a2 2 0 0 1-2 2H2a2 2 0 0 1-2-2V8c0-.73.39-1.36.97-1.71L10 .64l9.03 5.65c.58.35.97.98.97 1.71z"/></symbol><symbol id="icon-marker" viewBox="0 0 14 20"><path d="M7 9.5a2.5 2.5 0 1 1 0-5 2.5 2.5 0 0 1 0 5zM7 0a7 7 0 0 0-7 7c0 5.25 7 13 7 13s7-7.75 7-13a7 7 0 0 0-7-7z"/></symbol><symbol id="icon-menu" viewBox="0 0 24 21"><path d="M23.244 16.009H.75c-.413 0-.75.36-.75.801v3.421c0 .423.337.769.75.769h22.494c.414 0 .75-.346.75-.77v-3.42c0-.441-.336-.801-.75-.801zm0-8H.75c-.413 0-.75.36-.75.801v3.421A.76.76 0 0 0 .75 13h22.494a.76.76 0 0 0 .75-.769V8.81c0-.441-.336-.801-.75-.801zm0-8H.75C.337.009 0 .369 0 .81v3.42c0 .423.337.769.75.769h22.494a.76.76 0 0 0 .75-.769V.81c0-.441-.336-.801-.75-.801z"/></symbol><symbol id="icon-next" viewBox="0 0 15 24"><path d="M3 0L.17 2.83 9.34 12 .17 21.17 3 24l12-12L3 0z"/></symbol><symbol id="icon-ok" viewBox="0 0 19 32"><path d="M9.25 4.83a3.416 3.416 0 0 1 3.413 3.414c0 1.88-1.53 3.41-3.413 3.41a3.417 3.417 0 0 1-3.413-3.41A3.418 3.418 0 0 1 9.25 4.83zm0 11.654c4.547 0 8.243-3.696 8.243-8.24C17.493 3.698 13.797 0 9.25 0 4.705 0 1.008 3.698 1.008 8.244c0 4.544 3.697 8.24 8.242 8.24zm3.335 6.724a15.434 15.434 0 0 0 4.786-1.983 2.415 2.415 0 0 0 .757-3.33 2.413 2.413 0 0 0-3.33-.76 10.465 10.465 0 0 1-11.097 0 2.412 2.412 0 0 0-3.33.76 2.414 2.414 0 0 0 .757 3.33c1.49.935 3.108 1.6 4.786 1.983l-4.608 4.608a2.415 2.415 0 0 0 3.417 3.414l4.526-4.528 4.53 4.528c.942.943 2.47.943 3.414 0a2.413 2.413 0 0 0 0-3.414l-4.608-4.608z"/></symbol><symbol id="icon-photo" viewBox="0 0 20 18"><path d="M2 2h3l2-2h6l2 2h3a2 2 0 0 1 2 2v12a2 2 0 0 1-2 2H2a2 2 0 0 1-2-2V4a2 2 0 0 1 2-2zm8 3a5 5 0 1 0 0 10 5 5 0 0 0 0-10zm0 2a3 3 0 1 1 0 6 3 3 0 0 1 0-6z"/></symbol><symbol id="icon-prev" viewBox="0 0 15 25"><path d="M14.83 21.67L5.66 12.5l9.17-9.17L12 .5l-12 12 12 12 2.83-2.83z"/></symbol><symbol id="icon-search" viewBox="0 0 18 18"><path d="M11 0a6.5 6.5 0 0 0-6.5 6.5c0 1.61.59 3.09 1.56 4.23l-.27.27H5l-5 5 1.5 1.5 5-5v-.79l.27-.27C7.91 12.41 9.39 13 11 13a6.5 6.5 0 1 0 0-13zm0 2c2.5 0 4.5 2 4.5 4.5S13.5 11 11 11 6.5 9 6.5 6.5 8.5 2 11 2z"/></symbol><symbol id="icon-te-st" viewBox="0 0 99 40"><g><path d="M10.895 20.245a2 2 0 0 1-1.4-2.394l-1.394-.805c-.359.343-.845.554-1.381.554a1.994 1.994 0 0 1-1.42-.592l-1.369.79A2.003 2.003 0 0 1 2 20.32a2 2 0 1 1 1.347-3.479l1.418-.818a2 2 0 0 1 3.33-1.875l2.785-1.607V9.28a1.998 1.998 0 0 1-.828-.481l-1.392.87a2 2 0 1 1-3.885.027l-1.451-.838a1.996 1.996 0 0 1-.764.422v1.678a2 2 0 1 1-1.12 0V9.281A2 2 0 1 1 3.428 5.96l1.333-.833a2 2 0 1 1 .528.99l-1.331.833a2.009 2.009 0 0 1-.035.962l1.406.811c.36-.348.85-.563 1.391-.563.53 0 1.013.207 1.371.544l1.404-.877a2.005 2.005 0 0 1 1.465-2.409V3.942A2 2 0 1 1 12 3.921v1.518a2 2 0 0 1 0 3.842v3.306l2.653 1.532c.256-.26.582-.451.947-.541v-1.476a2 2 0 1 1 1.85-3.399l1.389-.868a2.01 2.01 0 0 1 .022-.888l-1.434-.828a2 2 0 1 1 .584-.956l1.42.82a2 2 0 1 1 1.93 3.378l-.001 1.518a2 2 0 1 1-1.04-.021V9.382a1.998 1.998 0 0 1-.959-.553l-1.342.84a2.004 2.004 0 0 1-1.379 2.412v1.518a2 2 0 0 1 1.366 2.462l1.41.815a2 2 0 1 1-.56.97l-1.444-.834a2 2 0 0 1-3.29-1.906l-2.722-1.572-2.74 1.581a2.004 2.004 0 0 1 .003.962l1.39.802a2 2 0 1 1 1.896 3.375v2.62l2.279-1.317a2.003 2.003 0 0 1 1.932-2.517 2 2 0 1 1-1.4 3.428l-2.811 1.624v4.783h10.34a.352.352 0 0 1 0 .703H11.985c.182 1.334 1.447 1.512 3.42 1.674 1.924.157 4.103.336 4.69 2.502a.264.264 0 0 1-.255.334.263.263 0 0 1-.254-.196c-.442-1.632-2.03-1.917-3.685-2.068.045.05.087.101.126.155.316.427.81.626 1.334.836.656.264 1.334.537 1.641 1.286a.264.264 0 1 1-.487.2c-.223-.543-.745-.753-1.35-.996a7.767 7.767 0 0 1-.682-.301c.065.246.117.496.166.74.088.44.171.858.331 1.208a.264.264 0 0 1-.48.22c-.185-.406-.278-.873-.368-1.324-.216-1.08-.403-2.012-1.693-2.154l-.01-.002c-.915-.103-1.768-.285-2.327-.776.262.613.652 1.061 1.035 1.499.158.181.318.364.467.558l.009.007c.157.204.34.377.535.562.26.245.532.504.754.852.005.007.01.012.014.02.293.466 1.156 1.418 1.703 1.727a.264.264 0 0 1-.258.46c-.308-.174-.677-.497-1.015-.844.032.325.032.694-.014 1.127a.263.263 0 0 1-.262.236l-.028-.001a.264.264 0 0 1-.234-.29c.128-1.21-.109-1.851-.471-2.324.16.822.056 1.91-.553 3.493a.264.264 0 1 1-.492-.19c1.18-3.065.378-3.983-.551-5.045-.368-.422-.761-.873-1.05-1.477.083 1.033.216 1.881.332 2.616.35 2.212.56 3.548-1.174 5.988a.262.262 0 0 1-.367.062.264.264 0 0 1-.062-.368c1.274-1.793 1.422-2.909 1.26-4.363-.107.186-.233.341-.357.494-.329.407-.64.793-.575 1.874a.264.264 0 0 1-.247.28h-.016a.264.264 0 0 1-.263-.248c-.078-1.286.331-1.791.692-2.238.36-.445.67-.829.483-2.083a28.944 28.944 0 0 1-.222-1.844c-.283.577-.751 1.206-1.528 1.862-.928.782-.676 1.636-.385 2.623.19.647.388 1.316.265 2.011a.263.263 0 1 1-.519-.091c.1-.574-.078-1.182-.251-1.77a9.547 9.547 0 0 1-.216-.822l-.067.31c-.195.912-.396 1.856-1.619 2.658a.264.264 0 0 1-.288-.441c1.04-.683 1.203-1.444 1.391-2.327.082-.383.17-.79.343-1.202l-.223.132c-.772.458-1.198.709-1.369 1.68a.263.263 0 1 1-.519-.09c.213-1.212.803-1.56 1.62-2.044.43-.255.92-.543 1.496-1.03.911-.769 1.354-1.481 1.57-2.108-.07.086-.144.169-.226.246-.784.735-2.06 1.051-3.796.945-.77.142-.857.562-.975 1.488-.107.842-.24 1.89-1.16 2.98a.261.261 0 0 1-.371.031.264.264 0 0 1-.032-.371c.82-.972.942-1.934 1.04-2.706.069-.537.136-1.055.44-1.43a5.778 5.778 0 0 0-.783.103c-.674.28-.703.634-.754 1.273-.035.428-.078.96-.364 1.55a.263.263 0 0 1-.352.121.264.264 0 0 1-.122-.353c.243-.5.28-.956.312-1.36.023-.282.046-.558.135-.813-1.014.587-1.173 1.451-1.183 1.509a.264.264 0 0 1-.52-.087c.13-.775.845-1.924 2.656-2.331l.007-.004a.26.26 0 0 1 .095-.02 7.292 7.292 0 0 1 1.929-.109c1.58.104 2.768-.173 3.437-.8.372-.35.529-.748.586-1.09H.555a.351.351 0 0 1 0-.704h10.34v-4.783l-2.82-1.629c-.22.216-.492.38-.794.472a2 2 0 1 1 1.144-2.8 1.936 1.936 0 0 1 .177 1.413l2.292 1.326v-2.63zm6.213 1.392a1.12 1.12 0 0 0-1.938-1.12l.03.018a1.062 1.062 0 0 0 .002 1.07 1.07 1.07 0 0 0 1.85 0l.056.032zm-10.122.469a1.12 1.12 0 1 0-1.281-.45l.086-.05a1.068 1.068 0 0 0 1.195.5zm5.405-3.194a1.12 1.12 0 1 0-1.912-.016l.016-.01a1.07 1.07 0 0 0 1.852 0l.044.026zM2 8.48a1.12 1.12 0 1 0 0-2.24 1.12 1.12 0 0 0 0 2.24zM2 14a1.12 1.12 0 1 0 0-2.24A1.12 1.12 0 0 0 2 14zm4.72-8.16a1.12 1.12 0 1 0 0-2.24 1.12 1.12 0 0 0 0 2.24zm4.72-2.72a1.12 1.12 0 1 0 0-2.24 1.12 1.12 0 0 0 0 2.24zm0 5.36a1.12 1.12 0 1 0 0-2.24 1.12 1.12 0 0 0 0 2.24zm-4.72 2.8a1.12 1.12 0 1 0 0-2.24 1.12 1.12 0 0 0 0 2.24zm9.36-5.52a1.12 1.12 0 1 0 0-2.24 1.12 1.12 0 0 0 0 2.24zm4.72 2.8a1.12 1.12 0 1 0 0-2.24 1.12 1.12 0 0 0 0 2.24zm0 5.36a1.12 1.12 0 1 0 0-2.24 1.12 1.12 0 0 0 0 2.24zm-4.72-2.64a1.12 1.12 0 1 0 0-2.24 1.12 1.12 0 0 0 0 2.24zm0 5.36a1.12 1.12 0 1 0 0-2.24 1.12 1.12 0 0 0 0 2.24zm4.72 2.8a1.12 1.12 0 1 0 0-2.24 1.12 1.12 0 0 0 0 2.24zM6.72 16.72a1.12 1.12 0 1 0 0-2.24 1.12 1.12 0 0 0 0 2.24zM2 19.44a1.12 1.12 0 1 0 0-2.24 1.12 1.12 0 0 0 0 2.24zM36.18 4.56v-.68H31.3v.68h2.06V11h.76V4.56h2.06zM41.93 11v-.68h-3.66V7.75h3.12v-.68h-3.12V4.56h3.66v-.68h-4.42V11h4.42zm6.47 0V3.88h-4.89V11h.76V4.56h3.37V11h.76zm6.78 0V3.88h-3.92v2.89c0 2.96-.63 3.55-1.51 3.55h-.19V11h.36C51.28 11 52 10 52 7V4.56h2.42V11h.76zm7.16 0V3.88h-.72L58 9.68v-5.8h-.76V11h.72l3.62-5.81V11h.76zm7.8 1.72v-2.4h-.85V3.88h-.76v6.44h-3.37V3.88h-.76V11h4.99v1.72h.75zm6.4-1.72l-2.61-7.12h-.64L70.67 11h.81l.57-1.61h3.11l.57 1.61h.81zm-1.6-2.27h-2.66l1.34-3.76 1.32 3.76zM36.72 20.04h-.76c-.19.87-.82 1.44-1.71 1.44-.47 0-.92-.18-1.23-.5-.45-.46-.5-.95-.5-2.44s.05-1.98.5-2.44c.31-.32.76-.5 1.23-.5.89 0 1.5.57 1.69 1.44h.78c-.24-1.34-1.19-2.12-2.47-2.12-.7 0-1.34.26-1.82.74-.67.67-.67 1.37-.67 2.88 0 1.51 0 2.21.67 2.88.48.48 1.12.74 1.82.74 1.27 0 2.24-.78 2.47-2.12zm6.19-1.99c0-.87-.05-1.77-.67-2.39-.48-.48-1.12-.74-1.82-.74s-1.34.26-1.82.74c-.61.61-.67 1.48-.67 2.33v.55c0 1.42.02 2.23.67 2.88.48.48 1.11.74 1.82.74s1.34-.26 1.82-.74c.65-.65.67-1.46.67-2.88v-.49zm-.76.84c0 .82-.01 1.59-.5 2.08-.33.33-.76.51-1.23.51s-.9-.18-1.23-.51c-.46-.46-.5-1.16-.5-1.93v-.71c0-.98 0-1.72.5-2.22.33-.33.77-.51 1.23-.51.46 0 .9.18 1.23.51.47.47.5 1.21.5 2.05v.73zm8.29 4.93v-2.4h-.85v-6.44h-.76v6.44h-3.37v-6.44h-.76v7.12h4.99v1.72h.75zm6.54-1.72v-7.12h-.72l-3.62 5.8v-5.8h-.76v7.12h.72l3.62-5.81v5.81h.76zm7.02 0l-2.61-7.12h-.64l-2.62 7.12h.81l.57-1.61h3.11l.57 1.61H64zm-1.6-2.27h-2.66l1.34-3.76 1.32 3.76zm7.46 2.27v-7.12h-3.92v2.89c0 2.96-.63 3.55-1.51 3.55h-.19v.68h.36c1.36 0 2.08-1 2.08-4v-2.44h2.42v6.44h.76zm6.93-2.09c0-1.26-.87-2.1-2.2-2.1h-1.91v-2.93h-.76v7.12h2.67c1.32 0 2.2-.84 2.2-2.09zm-.77 0c0 .89-.55 1.41-1.5 1.41h-1.84v-2.83h1.84c.95 0 1.5.52 1.5 1.42zm7.1 2.09v-7.12h-.76v3.19h-3.38v-3.19h-.76v7.12h.76v-3.25h3.38v3.25h.76zm8.64 0v-7.12H91v7.12h.76zm-1.71-2.09c0-1.26-.87-2.1-2.2-2.1h-1.91v-2.93h-.76v7.12h2.67c1.32 0 2.2-.84 2.2-2.09zm-.77 0c0 .89-.55 1.41-1.5 1.41h-1.84v-2.83h1.84c.95 0 1.5.52 1.5 1.42zm8.87 2.09l-2.2-3.65L98 14.98h-.88l-1.58 2.81-1.58-2.81h-.88l2.04 3.47-2.18 3.65h.86l1.74-2.99 1.73 2.99h.88zM36.18 27.56v-.68H31.3v.68h2.06V34h.76v-6.44h2.06zM41.93 34v-.68h-3.66v-2.57h3.12v-.68h-3.12v-2.51h3.66v-.68h-4.42V34h4.42zm5.91 0l-2.2-3.65 2.05-3.47h-.88l-1.58 2.81-1.58-2.81h-.88l2.04 3.47L42.63 34h.86l1.74-2.99L46.96 34h.88zm6.08 0v-7.12h-.76v3.19h-3.38v-3.19h-.76V34h.76v-3.25h3.38V34h.76zm6.77-4.05c0-.87-.05-1.77-.67-2.39-.48-.48-1.12-.74-1.82-.74s-1.34.26-1.82.74c-.61.61-.67 1.48-.67 2.33v.55c0 1.42.02 2.23.67 2.88.48.48 1.11.74 1.82.74s1.34-.26 1.82-.74c.65-.65.67-1.46.67-2.88v-.49zm-.76.84c0 .82-.01 1.59-.5 2.08-.33.33-.76.51-1.23.51s-.9-.18-1.23-.51c-.46-.46-.5-1.16-.5-1.93v-.71c0-.98 0-1.72.5-2.22.33-.33.77-.51 1.23-.51.46 0 .9.18 1.23.51.47.47.5 1.21.5 2.05v.73zM66.99 34v-7.12h-3.92v2.89c0 2.96-.63 3.55-1.51 3.55h-.19V34h.36c1.36 0 2.08-1 2.08-4v-2.44h2.42V34h.76zm6.77-4.05c0-.87-.05-1.77-.67-2.39-.48-.48-1.12-.74-1.82-.74s-1.34.26-1.82.74c-.61.61-.67 1.48-.67 2.33v.55c0 1.42.02 2.23.67 2.88.48.48 1.11.74 1.82.74s1.34-.26 1.82-.74c.65-.65.67-1.46.67-2.88v-.49zm-.76.84c0 .82-.01 1.59-.5 2.08-.33.33-.76.51-1.23.51s-.9-.18-1.23-.51c-.46-.46-.5-1.16-.5-1.93v-.71c0-.98 0-1.72.5-2.22.33-.33.77-.51 1.23-.51.46 0 .9.18 1.23.51.47.47.5 1.21.5 2.05v.73zm6.9-3.23v-.68h-4.28V34h.76v-6.44h3.52zM86.34 34v-7.12h-.72L82 32.68v-5.8h-.76V34h.72l3.62-5.81V34h.76zm7.16 0v-7.12h-.72l-3.62 5.8v-5.8h-.76V34h.72l3.62-5.81V34h.76zm-1.09-8.83h-.64c-.04.49-.33.74-.82.74-.49 0-.78-.25-.82-.74h-.64c.06.89.63 1.26 1.46 1.26s1.4-.37 1.46-1.26z"/></g></symbol><symbol id="icon-telegram" viewBox="0 0 32 27"><path d="M29.84.177L1.494 11.11c-1.935.777-1.923 1.856-.353 2.337l7.07 2.206 2.705 8.294c.329.907.166 1.267 1.12 1.267.735 0 1.061-.335 1.471-.735.26-.255 1.808-1.76 3.535-3.438l7.353 5.433c1.353.746 2.33.36 2.667-1.257L31.89 2.47c.494-1.981-.756-2.88-2.05-2.293zM9.32 15.147L25.255 5.092c.795-.482 1.525-.223.926.309l-13.644 12.31-.532 5.667-2.685-8.233z"/></symbol><symbol id="icon-twitter" viewBox="0 0 32 26"><path d="M31.528 3.033a12.87 12.87 0 0 1-3.715 1.018A6.48 6.48 0 0 0 30.657.472a12.948 12.948 0 0 1-4.107 1.57 6.468 6.468 0 0 0-11.021 5.9A18.366 18.366 0 0 1 2.194 1.184a6.435 6.435 0 0 0-.875 3.252A6.465 6.465 0 0 0 4.197 9.82a6.45 6.45 0 0 1-2.93-.81v.082a6.473 6.473 0 0 0 5.189 6.343 6.503 6.503 0 0 1-2.922.11 6.475 6.475 0 0 0 6.042 4.492 12.976 12.976 0 0 1-8.033 2.77c-.522 0-1.037-.031-1.543-.091a18.304 18.304 0 0 0 9.916 2.906c11.898 0 18.403-9.856 18.403-18.404 0-.28-.005-.56-.018-.838a13.1 13.1 0 0 0 3.227-3.347z"/></symbol><symbol id="icon-up" viewBox="0 0 12 8"><path d="M1.41 8L6 3.41 10.59 8 12 6.58l-6-6-6 6L1.41 8z"/></symbol><symbol id="icon-viber" viewBox="0 0 31 31"><g><path d="M28.046 22.425c-.943-.759-1.951-1.44-2.943-2.136-1.978-1.39-3.788-1.498-5.264.738-.829 1.255-1.99 1.31-3.203.76-3.345-1.518-5.928-3.855-7.44-7.255-.67-1.504-.661-2.852.905-3.916.829-.563 1.664-1.229 1.597-2.458-.087-1.603-3.98-6.96-5.516-7.526C5.546.398 4.912.413 4.266.631.66 1.843-.831 4.807.598 8.317c4.265 10.47 11.771 17.76 22.103 22.208.59.254 1.244.355 1.575.446 2.352.024 5.108-2.243 5.904-4.492.766-2.164-.854-3.023-2.134-4.054zM16.46 1.706c7.554 1.161 11.038 4.753 12 12.36.089.703-.173 1.76.83 1.78 1.047.02.795-1.021.804-1.725C30.182 6.956 23.934.314 16.679.07c-.547.079-1.68-.378-1.75.85-.048.827.906.69 1.532.787z"/><path d="M17.938 3.792c-.726-.088-1.685-.43-1.855.578-.177 1.058.892.95 1.579 1.104 4.665 1.043 6.289 2.741 7.057 7.369.112.674-.11 1.724 1.036 1.55.85-.13.543-1.03.614-1.555.037-4.443-3.77-8.487-8.43-9.046z"/><path d="M18.367 7.425c-.485.012-.961.064-1.14.582-.267.775.296.96.87 1.052 1.913.307 2.92 1.436 3.111 3.344.052.518.38.938.881.878.693-.082.756-.7.735-1.285.034-2.144-2.39-4.623-4.457-4.571z"/></g></symbol><symbol id="icon-vk" viewBox="0 0 32 21"><path d="M.005 1.527c-.219-1.336 6.241-.509 6.241-.509s3.75 9.417 5.228 9.417c1.478 0 .766-7.985.766-7.985s-1.833-.478-1.833-1.21C10.407.51 12.24 0 12.24 0h5.393c.646 0 .903 1.05.903 1.75v8.558h1.478s1.316-2.115 2.354-4.263c1.038-2.149 2.3-5.027 2.3-5.027h6.267s1.15.032 1.013.986c-.186 1.299-4.356 7.466-5.228 9.576-.657 1.59 2.76 3.744 4.215 6.045.945 1.493 1.013 3.245 1.013 3.245h-7.445l-3.723-4.327s-.766-.318-1.368.127c-.603.446-.63 1.337-.63 1.337v2.863h-5.83s-4.461-1.527-8.239-8.208C.936 5.982.224 2.863.005 1.527z"/></symbol><symbol id="icon-whatsapp" viewBox="0 0 32 32"><path d="M16.172 0C7.579 0 .614 6.965.614 15.558c0 2.939.815 5.688 2.232 8.033L.038 31.938l8.614-2.758a15.49 15.49 0 0 0 7.52 1.935c8.592 0 15.557-6.965 15.557-15.557C31.73 6.965 24.764 0 16.172 0zm0 28.637c-2.657 0-5.131-.797-7.197-2.163l-5.026 1.61 1.633-4.858a13.009 13.009 0 0 1-2.49-7.668c0-7.213 5.867-13.08 13.08-13.08 7.212 0 13.08 5.867 13.08 13.08 0 7.212-5.868 13.08-13.08 13.08zm-3.65-19.514c-.251-.608-.444-.628-.834-.647a8.936 8.936 0 0 0-.436-.012c-.502 0-1.022.147-1.335.468-.382.39-1.335 1.304-1.335 3.18 0 1.877 1.367 3.69 1.557 3.944.19.255 2.665 4.161 6.515 5.757 3.005 1.244 3.897 1.133 4.583.983.997-.217 2.25-.952 2.568-1.842.317-.89.317-1.654.222-1.813-.095-.159-.35-.254-.73-.445-.382-.19-2.258-1.113-2.607-1.24-.35-.128-.673-.089-.942.283-.37.514-.728 1.041-1.023 1.354-.232.246-.606.28-.927.144-.422-.18-1.61-.594-3.067-1.893-1.133-1.01-1.899-2.259-2.121-2.64-.223-.382-.02-.61.152-.817.195-.237.376-.407.566-.63.19-.222.297-.341.425-.596.127-.254.041-.517-.054-.708-.096-.19-.86-2.066-1.176-2.83z"/></symbol><symbol id="icon-youtube" viewBox="0 0 24 24"><path d="M10 16.5v-9l6 4.5m4-7.6c-.6-.2-4.3-.4-8-.4s-7.4.19-8 .38C2.44 4.9 2 8.4 2 12c0 3.59.44 7.1 2 7.61.6.2 4.3.39 8 .39s7.4-.19 8-.39c1.56-.51 2-4.02 2-7.61 0-3.6-.44-7.09-2-7.6z"/></symbol></svg>