<svg xmlns="http://www.w3.org/2000/svg" xmlns:xlink="http://www.w3.org/1999/xlink"><defs>
        <linearGradient x1="50%" y1="27.1793351%" x2="50%" y2="100%" id="linearGradient-1">
            <stop stop-color="#EF4138" offset="0%"/>
            <stop stop-color="#A9AD37" offset="100%"/>
        </linearGradient>
    </defs><symbol id="icon-add-cal" viewBox="0 0 18 20"><path d="M16 18V6H2v12h14zM13 0h2v2h1a2 2 0 0 1 2 2v14a2 2 0 0 1-2 2H2a2 2 0 0 1-2-2V4c0-1.11.89-2 2-2h1V0h2v2h8V0zM8 8h2v3h3v2h-3v3H8v-3H5v-2h3V8z"/></symbol><symbol id="pic-logo" viewBox="0 0 412 206">
    <!-- Generator: Sketch 41.2 (35397) - http://www.bohemiancoding.com/sketch -->
    <title>Group 8</title>
    <desc>Created with Sketch.</desc>
    
    <g id="Concept" stroke="none" stroke-width="1" fill="none" fill-rule="evenodd">
        <g id="Group-8">
            <path d="M242.162,90.204 C241.267,91.055 240.187,91.481 238.92,91.481 C237.698,91.481 236.628,91.055 235.711,90.204 C234.794,89.352 234.335,88.359 234.335,87.223 L234.335,71.961 L220.383,71.961 L220.383,87.223 C220.383,88.359 219.935,89.352 219.04,90.204 C218.145,91.055 217.064,91.481 215.798,91.481 C214.531,91.481 213.451,91.055 212.556,90.204 C211.661,89.352 211.213,88.359 211.213,87.223 L211.213,48.315 C211.213,47.179 211.661,46.197 212.556,45.367 C213.451,44.538 214.531,44.123 215.798,44.123 C217.064,44.123 218.145,44.538 219.04,45.367 C219.935,46.197 220.383,47.179 220.383,48.315 L220.383,63.577 L234.335,63.577 L234.335,48.315 C234.335,47.179 234.794,46.197 235.711,45.367 C236.628,44.538 237.698,44.123 238.92,44.123 C240.143,44.123 241.213,44.538 242.13,45.367 C243.047,46.197 243.505,47.179 243.505,48.315 L243.505,87.223 C243.505,88.359 243.057,89.352 242.162,90.204" id="Fill-1" fill="#0A0B09"/>
            <path d="M267.676,52.441 C264.793,52.441 262.763,53.25 261.584,54.865 C260.405,56.481 259.816,58.621 259.816,61.284 L259.816,74.254 C259.816,76.874 260.448,79.014 261.715,80.673 C262.981,82.333 264.968,83.162 267.676,83.162 C270.383,83.162 272.37,82.333 273.637,80.673 C274.903,79.014 275.536,76.874 275.536,74.254 L275.536,61.284 C275.536,58.621 274.947,56.481 273.768,54.865 C272.588,53.25 270.558,52.441 267.676,52.441 Z M267.676,91.481 C264.836,91.481 262.359,91.033 260.242,90.138 C258.122,89.244 256.354,88.02 254.936,86.469 C253.516,84.921 252.447,83.096 251.726,81.001 C251.005,78.904 250.645,76.656 250.645,74.254 L250.645,61.284 C250.645,58.97 250.961,56.776 251.595,54.701 C252.228,52.628 253.221,50.803 254.576,49.232 C255.928,47.66 257.687,46.415 259.848,45.498 C262.01,44.581 264.619,44.123 267.676,44.123 C270.732,44.123 273.342,44.581 275.503,45.498 C277.665,46.415 279.422,47.66 280.777,49.232 C282.129,50.803 283.123,52.628 283.757,54.701 C284.389,56.776 284.706,58.97 284.706,61.284 L284.706,74.254 C284.706,76.656 284.346,78.904 283.625,81.001 C282.906,83.096 281.834,84.921 280.416,86.469 C278.996,88.02 277.228,89.244 275.111,90.138 C272.992,91.033 270.514,91.481 267.676,91.481 L267.676,91.481 Z" id="Fill-2" fill="#0A0B09"/>
            <path d="M300.95,71.175 L300.95,82.573 L308.286,82.573 C310.469,82.573 312.095,82.071 313.166,81.066 C314.236,80.062 314.771,78.708 314.771,77.005 C314.771,75.128 314.192,73.686 313.035,72.681 C311.877,71.677 310.425,71.175 308.679,71.175 L300.95,71.175 Z M308.483,62.791 C309.049,62.791 309.629,62.692 310.218,62.496 C310.808,62.299 311.353,61.995 311.856,61.579 C312.358,61.165 312.762,60.63 313.068,59.974 C313.372,59.319 313.526,58.555 313.526,57.681 C313.526,56.416 313.188,55.313 312.511,54.374 C311.833,53.435 310.644,52.965 308.941,52.965 L300.95,52.965 L300.95,62.791 L308.483,62.791 Z M296.889,90.891 C295.448,90.891 294.236,90.422 293.253,89.483 C292.271,88.545 291.78,87.442 291.78,86.175 L291.78,49.428 C291.78,48.075 292.281,46.951 293.286,46.054 C294.29,45.161 295.491,44.712 296.889,44.712 L307.958,44.712 C310.404,44.712 312.554,45.072 314.411,45.793 C316.266,46.513 317.805,47.474 319.029,48.674 C320.25,49.877 321.167,51.252 321.78,52.801 C322.391,54.352 322.697,55.935 322.697,57.55 C322.697,59.866 322.041,61.754 320.732,63.216 C319.421,64.68 317.784,65.892 315.819,66.852 C316.823,67.245 317.817,67.736 318.799,68.326 C319.782,68.915 320.655,69.626 321.419,70.455 C322.183,71.285 322.794,72.246 323.253,73.337 C323.712,74.428 323.941,75.695 323.941,77.135 C323.941,79.058 323.57,80.848 322.828,82.507 C322.084,84.167 321.015,85.619 319.618,86.863 C318.22,88.107 316.517,89.089 314.509,89.81 C312.499,90.531 310.229,90.891 307.697,90.891 L296.889,90.891 L296.889,90.891 Z" id="Fill-3" fill="#0A0B09"/>
            <path d="M346.668,63.118 C346.363,62.158 346.122,61.099 345.948,59.941 C345.773,58.785 345.62,57.704 345.49,56.699 C345.359,57.704 345.205,58.785 345.031,59.941 C344.856,61.099 344.616,62.158 344.311,63.118 L340.839,74.319 L350.009,74.319 L346.668,63.118 Z M336.253,88.402 C335.904,89.363 335.292,90.117 334.419,90.662 C333.545,91.208 332.716,91.481 331.93,91.481 C330.663,91.481 329.561,91.098 328.622,90.335 C327.683,89.571 327.214,88.555 327.214,87.289 C327.214,87.115 327.225,86.874 327.247,86.568 C327.269,86.263 327.323,86.022 327.411,85.847 L340.184,48.577 C340.62,47.31 341.221,46.252 341.985,45.4 C342.748,44.549 343.917,44.123 345.49,44.123 C347.062,44.123 348.23,44.538 348.994,45.367 C349.757,46.197 350.379,47.266 350.861,48.577 L363.634,85.847 C363.721,86.022 363.775,86.263 363.797,86.568 C363.819,86.874 363.83,87.115 363.83,87.289 C363.83,88.555 363.382,89.571 362.488,90.335 C361.592,91.098 360.467,91.481 359.114,91.481 C358.24,91.481 357.367,91.196 356.494,90.63 C355.62,90.062 355.009,89.319 354.66,88.402 L352.368,81.787 L338.415,81.787 L336.253,88.402 L336.253,88.402 Z" id="Fill-4" fill="#0A0B09"/>
            <path d="M377.913,58.598 C377.913,60.301 378.448,61.612 379.518,62.529 C380.587,63.446 382.149,63.904 384.202,63.904 L390.883,63.904 L390.883,53.031 L384.595,53.031 C383.241,53.031 382.127,53.195 381.254,53.522 C380.38,53.849 379.703,54.275 379.223,54.799 C378.743,55.324 378.405,55.913 378.208,56.568 C378.012,57.223 377.913,57.901 377.913,58.598 Z M368.743,58.598 C368.743,56.895 369.015,55.215 369.562,53.555 C370.108,51.896 371.003,50.411 372.247,49.1 C373.492,47.791 375.151,46.732 377.226,45.924 C379.299,45.116 381.886,44.712 384.988,44.712 L395.075,44.712 C395.73,44.712 396.363,44.843 396.975,45.105 C397.585,45.367 398.12,45.706 398.579,46.121 C399.037,46.536 399.398,47.027 399.661,47.594 C399.922,48.162 400.053,48.773 400.053,49.428 L400.053,87.158 C400.053,88.337 399.617,89.352 398.744,90.204 C397.87,91.055 396.799,91.481 395.534,91.481 C394.921,91.481 394.332,91.36 393.765,91.121 C393.197,90.881 392.695,90.564 392.258,90.171 C391.822,89.778 391.483,89.319 391.244,88.796 C391.002,88.271 390.883,87.725 390.883,87.158 L390.883,72.158 L387.673,72.158 L376.735,89.384 C375.861,90.739 374.573,91.416 372.87,91.416 C372.433,91.416 371.942,91.305 371.396,91.088 C370.849,90.87 370.326,90.587 369.824,90.236 C369.322,89.887 368.907,89.462 368.579,88.959 C368.251,88.458 368.088,87.922 368.088,87.354 C368.088,87.005 368.154,86.568 368.285,86.044 C368.415,85.52 368.612,85.061 368.874,84.669 L377.783,71.175 C374.943,70.258 372.727,68.752 371.134,66.655 C369.539,64.559 368.743,61.874 368.743,58.598 L368.743,58.598 Z" id="Fill-5" fill="#0A0B09"/>
            <path d="M237.414,118.086 L249.335,100.596 C250.339,99.287 251.606,98.631 253.134,98.631 C253.832,98.631 254.454,98.773 255.001,99.057 C255.547,99.341 256.017,99.691 256.41,100.105 C256.803,100.52 257.097,100.989 257.294,101.513 C257.491,102.038 257.588,102.54 257.588,103.02 C257.588,103.37 257.544,103.708 257.457,104.035 C257.37,104.363 257.217,104.723 256.999,105.116 L245.536,122.278 L256.999,139.57 C257.217,139.963 257.37,140.313 257.457,140.619 C257.544,140.924 257.588,141.252 257.588,141.601 C257.588,142.082 257.491,142.584 257.294,143.107 C257.097,143.631 256.803,144.101 256.41,144.515 C256.017,144.931 255.547,145.28 255.001,145.564 C254.454,145.847 253.832,145.99 253.134,145.99 C251.563,145.99 250.295,145.357 249.335,144.09 L237.414,126.536 L237.414,141.732 C237.414,142.868 236.965,143.861 236.071,144.713 C235.175,145.564 234.095,145.99 232.828,145.99 C231.562,145.99 230.481,145.564 229.586,144.713 C228.691,143.861 228.244,142.868 228.244,141.732 L228.244,126.536 L216.323,144.09 C215.361,145.357 214.095,145.99 212.523,145.99 C211.824,145.99 211.202,145.847 210.657,145.564 C210.11,145.28 209.641,144.931 209.247,144.515 C208.855,144.101 208.56,143.631 208.364,143.107 C208.167,142.584 208.069,142.082 208.069,141.601 C208.069,141.252 208.112,140.924 208.2,140.619 C208.286,140.313 208.44,139.963 208.659,139.57 L220.121,122.343 L208.659,105.116 C208.44,104.723 208.286,104.363 208.2,104.035 C208.112,103.708 208.069,103.37 208.069,103.02 C208.069,102.54 208.167,102.038 208.364,101.513 C208.56,100.989 208.855,100.52 209.247,100.105 C209.641,99.691 210.11,99.341 210.657,99.057 C211.202,98.773 211.824,98.631 212.523,98.631 C214.051,98.631 215.317,99.287 216.323,100.596 L228.244,118.086 L228.244,102.824 C228.244,101.688 228.691,100.706 229.586,99.876 C230.481,99.047 231.562,98.631 232.828,98.631 C234.095,98.631 235.175,99.047 236.071,99.876 C236.965,100.706 237.414,101.688 237.414,102.824 L237.414,118.086" id="Fill-6" fill="#0A0B09"/>
            <path d="M267.544,145.99 C266.104,145.99 264.935,145.552 264.04,144.679 C263.145,143.806 262.698,142.758 262.698,141.536 L262.698,102.889 C262.698,101.754 263.133,100.76 264.007,99.909 C264.88,99.057 265.95,98.631 267.217,98.631 C268.483,98.631 269.576,99.057 270.493,99.909 C271.41,100.76 271.868,101.754 271.868,102.889 L271.868,127.649 C273.352,125.029 274.717,122.638 275.961,120.476 C277.206,118.315 278.407,116.218 279.564,114.188 C280.721,112.158 281.9,110.094 283.101,107.998 C284.302,105.902 285.623,103.588 287.064,101.055 C287.544,100.313 288.188,99.723 288.996,99.287 C289.804,98.85 290.644,98.631 291.518,98.631 C292.915,98.631 294.062,99.057 294.957,99.909 C295.852,100.76 296.3,101.819 296.3,103.086 L296.3,141.732 C296.3,142.868 295.863,143.861 294.99,144.713 C294.116,145.564 293.046,145.99 291.781,145.99 C290.513,145.99 289.422,145.564 288.505,144.713 C287.588,143.861 287.129,142.868 287.129,141.732 L287.129,117.234 L271.933,143.697 C271.496,144.396 270.873,144.953 270.067,145.367 C269.258,145.782 268.417,145.99 267.544,145.99" id="Fill-7" fill="#0A0B09"/>
            <path d="M332.851,132.103 C332.851,133.937 332.479,135.684 331.738,137.343 C330.995,139.004 329.924,140.477 328.528,141.764 C327.129,143.053 325.438,144.08 323.452,144.843 C321.463,145.607 319.247,145.99 316.803,145.99 C315.362,145.99 313.767,145.847 312.021,145.564 C310.274,145.28 308.648,144.843 307.141,144.254 C305.634,143.665 304.368,142.944 303.342,142.092 C302.316,141.241 301.802,140.225 301.802,139.047 C301.802,137.956 302.228,137.027 303.079,136.262 C303.931,135.499 304.924,135.116 306.06,135.116 C306.758,135.116 307.446,135.27 308.123,135.575 C308.8,135.88 309.521,136.219 310.286,136.589 C311.048,136.962 311.9,137.3 312.84,137.605 C313.779,137.911 314.88,138.064 316.148,138.064 C318.637,138.064 320.525,137.464 321.814,136.262 C323.101,135.062 323.745,133.61 323.745,131.907 C323.745,130.815 323.484,129.909 322.96,129.188 C322.436,128.467 321.737,127.889 320.864,127.453 C319.99,127.016 318.986,126.689 317.851,126.469 C316.714,126.252 315.514,126.099 314.248,126.011 C313.636,125.968 313.025,125.903 312.414,125.815 C311.802,125.728 311.256,125.552 310.777,125.291 C310.295,125.029 309.913,124.626 309.63,124.079 C309.346,123.534 309.204,122.78 309.204,121.819 C309.204,120.902 309.346,120.181 309.63,119.658 C309.913,119.133 310.274,118.741 310.711,118.478 C311.147,118.216 311.638,118.052 312.185,117.987 C312.73,117.922 313.243,117.889 313.724,117.889 C314.815,117.846 315.908,117.692 316.999,117.43 C318.09,117.169 319.063,116.787 319.914,116.284 C320.766,115.783 321.453,115.161 321.977,114.418 C322.501,113.675 322.763,112.78 322.763,111.732 C322.763,111.121 322.654,110.509 322.436,109.898 C322.217,109.287 321.868,108.73 321.388,108.227 C320.907,107.726 320.275,107.322 319.489,107.015 C318.703,106.711 317.72,106.557 316.54,106.557 C314.706,106.557 313.025,106.907 311.497,107.605 C310.754,107.955 310,108.358 309.237,108.817 C308.473,109.275 307.632,109.505 306.715,109.505 C305.667,109.505 304.706,109.144 303.833,108.423 C302.959,107.704 302.523,106.797 302.523,105.706 C302.523,104.615 302.992,103.632 303.931,102.757 C304.87,101.885 306.06,101.143 307.501,100.531 C308.943,99.92 310.514,99.45 312.217,99.123 C313.92,98.795 315.536,98.631 317.065,98.631 C319.466,98.631 321.584,99.024 323.418,99.81 C325.252,100.596 326.781,101.612 328.003,102.856 C329.226,104.101 330.143,105.499 330.754,107.048 C331.366,108.599 331.671,110.117 331.671,111.601 C331.671,113.828 331.049,115.727 329.805,117.299 C328.56,118.872 326.737,120.269 324.335,121.492 C326.955,122.54 329.029,123.905 330.558,125.586 C332.086,127.267 332.851,129.44 332.851,132.103" id="Fill-8" fill="#0A0B09"/>
            <path d="M369.957,144.713 C369.062,145.564 367.982,145.99 366.715,145.99 C365.493,145.99 364.423,145.564 363.506,144.713 C362.589,143.861 362.13,142.868 362.13,141.732 L362.13,126.469 L348.178,126.469 L348.178,141.732 C348.178,142.868 347.73,143.861 346.835,144.713 C345.94,145.564 344.859,145.99 343.593,145.99 C342.326,145.99 341.245,145.564 340.351,144.713 C339.455,143.861 339.008,142.868 339.008,141.732 L339.008,102.824 C339.008,101.688 339.455,100.706 340.351,99.876 C341.245,99.047 342.326,98.631 343.593,98.631 C344.859,98.631 345.94,99.047 346.835,99.876 C347.73,100.706 348.178,101.688 348.178,102.824 L348.178,118.086 L362.13,118.086 L362.13,102.824 C362.13,101.688 362.589,100.706 363.506,99.876 C364.423,99.047 365.493,98.631 366.715,98.631 C367.938,98.631 369.008,99.047 369.925,99.876 C370.842,100.706 371.3,101.688 371.3,102.824 L371.3,141.732 C371.3,142.868 370.852,143.861 369.957,144.713" id="Fill-9" fill="#0A0B09"/>
            <path d="M388.788,123.195 L388.788,137.082 L394.356,137.082 C395.884,137.082 397.14,136.875 398.122,136.459 C399.105,136.045 399.869,135.509 400.415,134.854 C400.96,134.199 401.342,133.457 401.562,132.627 C401.78,131.798 401.889,130.947 401.889,130.073 C401.889,127.714 401.255,125.978 399.99,124.865 C398.722,123.752 396.845,123.195 394.356,123.195 L388.788,123.195 Z M388.788,114.876 L394.356,114.876 C396.888,114.876 399.181,115.214 401.234,115.891 C403.286,116.569 405.043,117.54 406.507,118.806 C407.969,120.073 409.094,121.655 409.88,123.555 C410.666,125.455 411.059,127.606 411.059,130.006 C411.059,132.016 410.765,133.948 410.175,135.804 C409.585,137.661 408.636,139.298 407.326,140.716 C406.016,142.136 404.29,143.271 402.151,144.123 C400.011,144.974 397.412,145.4 394.356,145.4 L384.728,145.4 C384.029,145.4 383.373,145.269 382.762,145.007 C382.151,144.745 381.616,144.407 381.158,143.992 C380.699,143.577 380.328,143.086 380.044,142.518 C379.759,141.951 379.619,141.338 379.619,140.684 L379.619,102.955 C379.619,101.775 380.077,100.76 380.994,99.909 C381.911,99.057 382.981,98.631 384.203,98.631 C385.469,98.631 386.55,99.068 387.446,99.941 C388.34,100.815 388.788,101.819 388.788,102.955 L388.788,114.876 L388.788,114.876 Z" id="Fill-10" fill="#0A0B09"/>
            <path d="M92.971,15.414 C50.455,15.414 15.867,50.003 15.867,92.518 C15.867,135.034 50.455,169.623 92.971,169.623 C135.487,169.623 170.076,135.034 170.076,92.518 C170.076,50.003 135.487,15.414 92.971,15.414 Z M92.971,184.808 C42.082,184.808 0.681,143.407 0.681,92.518 C0.681,41.63 42.082,0.228 92.971,0.228 C143.86,0.228 185.261,41.63 185.261,92.518 C185.261,143.407 143.86,184.808 92.971,184.808 L92.971,184.808 Z" id="Fill-12" fill="#F5C047"/>
            <path d="M97.7188813,201.033 L82.5556026,201.033 C83.7104986,199.283905 85.2417806,196.840285 86.961,193.894 C90.6,187.685 95.027,179.212 98.966,170.497 C102.913,161.785 106.354,152.823 108.282,145.789 C109.257,142.277 109.85,139.245 110.123,137.056 C110.248,135.955 110.331,135.084 110.34,134.467 C110.365,133.858 110.378,133.534 110.378,133.534 C110.378,133.534 110.35,132.711 110.322,131.889 C110.232,131.038 110.099,130.177 110.099,130.177 L110.095,130.155 C110.095,130.155 109.219,125.921 108.122,121.801 C107.02,117.683 105.797,113.618 105.797,113.618 C105.797,113.618 104.66,109.747 102.788,104.009 C100.924,98.267 98.314,90.663 95.545,83.116 C92.784,75.567 89.867,68.074 87.563,62.487 C85.9673724,58.586887 84.656023,55.6131121 84.0089891,54.1715615 C84.491581,53.4736087 85.3566592,52.7660963 86.417,52.115 C89.217,50.396 92.597,50.005 97.228,48.314 C100.257,47.208 101.817,43.856 100.711,40.826 C99.714,38.095 97.391,36.865 94.205,37.07 C92.682,37.168 88.519,38.304 85.375,41.63 C82.0346329,45.1651809 80.5626498,49.8814128 81.3457643,53.1459962 L81.3212759,53.1572774 C79.8185987,50.1555027 75.6529339,47.4950823 70.82,46.943 C66.273,46.424 62.357,48.237 61.129,49.144 C58.56,51.039 57.575,53.476 58.572,56.207 C59.678,59.237 63.031,60.797 66.061,59.691 C70.692,58 73.529,56.122 76.778,55.634 C77.7861445,55.482113 78.7186963,55.4439308 79.4731389,55.5578127 C79.9610969,56.6334947 81.3901726,59.8264653 83.212,64.28 C85.49,69.8 88.385,77.238 91.127,84.734 C93.876,92.227 96.468,99.778 98.314,105.464 C100.168,111.149 101.289,114.964 101.289,114.964 C101.289,114.964 102.496,118.976 103.574,123.005 C104.646,127.039 105.479,131.066 105.479,131.066 L105.481,131.083 C105.481,131.083 105.556,131.665 105.63,132.247 C105.652,132.874 105.674,133.502 105.674,133.502 C105.674,133.502 105.662,133.769 105.639,134.27 C105.636,134.766 105.561,135.516 105.454,136.476 C105.213,138.4 104.673,141.197 103.747,144.536 C101.917,151.222 98.556,160.007 94.679,168.558 C90.811,177.118 86.448,185.465 82.898,191.523 C81.128,194.556 79.574,197.022 78.451,198.71 C77.6909388,199.848742 77.1359148,200.639376 76.8554369,201.033 L59.7711874,201.033 C60.9805591,199.412153 62.5596213,197.226018 64.323,194.611 C68.301,188.745 73.23,180.708 77.644,172.369 C82.07,164.037 85.937,155.376 88.149,148.518 C89.269,145.095 89.965,142.121 90.307,139.972 C90.656,137.826 90.699,136.531 90.699,136.531 L90.743,134.938 C90.743,134.938 90.725,134.62 90.696,134.143 C90.664,133.664 90.646,133.037 90.501,132.369 C90.441,132.04 90.38,131.712 90.324,131.404 C90.243,131.092 90.134,130.794 90.054,130.542 C89.882,130.04 89.768,129.706 89.768,129.706 L89.759,129.684 C89.759,129.684 89.465,129.036 88.951,127.901 C88.452,126.761 87.652,125.165 86.63,123.286 C84.589,119.525 81.372,114.756 77.619,110.51 C73.894,106.239 69.829,102.396 66.809,99.554 C64.076202,96.9950004 62.1677069,95.2086823 61.8304151,94.8929933 C62.1016024,94.2650571 62.5189887,93.5842547 63.033,92.894 C64.996,90.259 67.99,88.642 71.663,85.355 C74.067,83.204 74.272,79.512 72.121,77.109 C70.183,74.942 67.569,74.661 64.686,76.033 C63.308,76.689 59.863,79.288 58.177,83.543 C56.7008124,87.2699682 56.7008859,91.2725842 57.8319857,94.0989399 C55.1709922,92.3519399 50.835561,91.7277081 46.63,92.875 C42.215,94.079 39.251,97.215 38.446,98.513 C36.764,101.226 36.753,103.854 38.692,106.021 C40.842,108.424 44.534,108.629 46.938,106.479 C50.612,103.191 52.55,100.395 55.386,98.736 C56.2815872,98.2120955 57.1479582,97.8266408 57.9000024,97.657111 C58.3366675,98.0663703 58.555,98.271 58.555,98.271 C58.555,98.271 60.568,100.156 63.586,102.982 C66.587,105.805 70.545,109.555 74.071,113.601 C77.627,117.626 80.602,122.049 82.509,125.556 C83.461,127.308 84.209,128.796 84.676,129.866 C85.158,130.929 85.434,131.536 85.434,131.536 L85.44,131.551 C85.44,131.551 85.5,131.743 85.591,132.03 C85.635,132.176 85.703,132.333 85.753,132.522 C85.789,132.726 85.826,132.944 85.864,133.162 C85.968,133.581 85.975,134.065 85.999,134.417 C86.023,134.77 86.039,135.006 86.039,135.006 L86,136.283 C86,136.283 86.007,136.538 85.944,137.041 C85.886,137.541 85.842,138.268 85.663,139.216 C85.363,141.101 84.732,143.829 83.674,147.066 C81.585,153.55 77.824,162.006 73.486,170.167 C69.161,178.34 64.311,186.247 60.426,191.976 C57.1111817,196.889218 54.5182502,200.182395 53.8369079,201.033 L38.248,201.033 C36.892,201.033 35.792,202.132 35.792,203.489 C35.792,204.845 36.892,205.945 38.248,205.945 L148.38,205.945 C149.737,205.945 150.836,204.845 150.836,203.489 C150.836,202.132 149.737,201.033 148.38,201.033 L103.352932,201.033 C103.858325,200.195949 104.457364,199.20342 105.135,198.081 C105.867,196.842 106.629,195.421 107.494,193.883 C110.874,187.702 114.904,179.277 118.554,170.689 C122.217,162.107 125.504,153.366 127.638,146.652 C128.148,144.962 128.615,143.413 129.03,142.039 C129.396,140.641 129.715,139.422 129.978,138.417 C130.256,137.423 130.376,136.582 130.504,136.037 C130.617,135.483 130.678,135.187 130.678,135.187 C130.678,135.187 130.731,134.928 130.811,134.538 C130.904,134.159 130.968,133.608 131.034,133.06 C131.167,131.966 131.299,130.871 131.299,130.871 L131.301,130.851 C131.301,130.851 131.522,127.419 131.662,123.974 C131.807,120.529 131.849,117.072 131.849,117.072 C131.849,117.072 131.851,116.568 131.853,115.686 C131.862,114.805 131.857,113.545 131.833,112.033 C131.789,109.008 131.622,104.974 131.343,100.974 C130.798457,93.7549362 130.253087,86.5358724 130.158426,85.2829322 C130.751236,85.0263812 131.462311,84.8192527 132.24,84.661 C135.46,84.006 138.769,84.798 143.699,84.798 C146.924,84.798 149.539,82.183 149.539,78.958 C149.539,76.05 147.779,74.099 144.715,73.199 C143.251,72.769 138.95,72.408 134.857,74.455 C131.787392,75.9894569 129.389812,78.39649 128.109779,80.8523429 C126.829706,78.39649 124.432608,75.9894569 121.363,74.455 C117.269,72.408 112.969,72.769 111.504,73.199 C108.441,74.099 106.681,76.05 106.681,78.958 C106.681,82.183 109.295,84.798 112.521,84.798 C117.45,84.798 120.759,84.006 123.979,84.661 C124.494856,84.7659239 124.981317,84.892333 125.42337,85.0403869 C125.441123,85.2927954 125.45,85.419 125.45,85.419 C125.45,85.419 126.05,93.357 126.649,101.295 C126.924,105.238 127.086,109.161 127.128,112.108 C127.152,113.581 127.157,114.81 127.148,115.67 C127.146,116.53 127.144,117.021 127.144,117.021 C127.144,117.021 127.103,120.397 126.961,123.781 C126.824,127.164 126.605,130.552 126.605,130.552 L126.604,130.571 C126.604,130.571 126.488,131.498 126.372,132.426 C126.318,132.889 126.269,133.351 126.178,133.715 C126.104,134.074 126.055,134.313 126.055,134.313 C126.055,134.313 125.999,134.585 125.895,135.095 C125.773,135.606 125.675,136.349 125.405,137.308 C125.155,138.265 124.851,139.426 124.502,140.759 C124.101,142.088 123.648,143.589 123.154,145.225 C121.078,151.76 117.838,160.382 114.226,168.844 C110.627,177.312 106.65,185.622 103.36,191.637 C102.521,193.127 101.778,194.515 101.074,195.706 C100.36,196.889 99.737,197.919 99.225,198.768 C98.4997952,199.858815 97.9823279,200.636907 97.7188813,201.033 Z" id="Combined-Shape" fill="url(#linearGradient-1)"/>
        </g>
    </g>
</symbol><symbol id="icon-close" viewBox="0 0 14 14"><path d="M14 1.41L12.59 0 7 5.59 1.41 0 0 1.41 5.59 7 0 12.59 1.41 14 7 8.41 12.59 14 14 12.59 8.41 7 14 1.41z"/></symbol><symbol id="pic-te-st" viewBox="0 0 99 40">
    <!-- Generator: Sketch 3.6.1 (26313) - http://www.bohemiancoding.com/sketch -->
    <title>Group 4</title>
    <desc>Created with Sketch.</desc>
    
    <g id="Page-1" stroke="none" stroke-width="1" fill="none" fill-rule="evenodd">
        <g id="Artboard-11" transform="translate(-419.000000, -324.000000)" fill="#000000">
            <g id="Group-4" transform="translate(419.000000, 324.000000)">
                <path d="M10.8947571,20.2447753 C10.0551926,20.0074165 9.44,19.2355512 9.44,18.32 C9.44,18.1584583 9.45915204,18.0013898 9.49530937,17.8509412 L8.10147835,17.0462125 C7.74242639,17.3892907 7.25582009,17.6 6.72,17.6 C6.1643194,17.6 5.6615685,17.373381 5.29912591,17.0075217 L3.93103022,17.7973921 C3.97600667,17.963984 4,18.13919 4,18.32 C4,19.4245695 3.1045695,20.32 2,20.32 C0.8954305,20.32 0,19.4245695 0,18.32 C0,17.2154305 0.8954305,16.32 2,16.32 C2.51876395,16.32 2.99139736,16.5175083 3.34680528,16.84143 L4.76476788,16.0227689 C4.73544064,15.8864883 4.72,15.7450473 4.72,15.6 C4.72,14.4954305 5.6154305,13.6 6.72,13.6 C7.25287827,13.6 7.73708166,13.808402 8.09555291,14.1481487 L10.88,12.5405474 L10.88,9.28054151 C10.564862,9.1888079 10.2818621,9.02161346 10.0518661,8.79982381 L8.65950417,9.66986811 C8.69901392,9.82670225 8.72,9.99090034 8.72,10.16 C8.72,11.2645695 7.8245695,12.16 6.72,12.16 C5.6154305,12.16 4.72,11.2645695 4.72,10.16 C4.72,10.0004036 4.73869355,9.84517337 4.77401052,9.69637935 L3.32387941,8.85914577 C3.10623481,9.05149138 2.8463883,9.19717667 2.56,9.28054151 L2.56,10.9594585 C3.39200649,11.2016475 4,11.9698215 4,12.88 C4,13.9845695 3.1045695,14.88 2,14.88 C0.8954305,14.88 0,13.9845695 0,12.88 C0,11.9698215 0.607993513,11.2016475 1.44,10.9594585 L1.44,9.28054151 C0.607993513,9.03835253 0,8.27017851 0,7.36 C0,6.2554305 0.8954305,5.36 2,5.36 C2.55950335,5.36 3.06534625,5.5897477 3.4283343,5.9600487 L4.76144695,5.12702747 C4.73427618,4.99560709 4.72,4.85947073 4.72,4.72 C4.72,3.6154305 5.6154305,2.72 6.72,2.72 C7.8245695,2.72 8.72,3.6154305 8.72,4.72 C8.72,5.8245695 7.8245695,6.72 6.72,6.72 C6.15938448,6.72 5.65264295,6.48933801 5.28950276,6.11774139 L3.95789862,6.94982001 C3.98549454,7.0822154 4,7.21941373 4,7.36 C4,7.551382 3.97311884,7.73648558 3.92292623,7.91174101 L5.32861665,8.72331675 C5.68859913,8.3746152 6.17923653,8.16 6.72,8.16 C7.25080916,8.16 7.7333207,8.3667867 8.0913715,8.70419699 L9.49486314,7.82719807 C9.45899449,7.67731533 9.44,7.52087587 9.44,7.36 C9.44,6.4208924 10.0872566,5.63295968 10.96,5.41797171 L10.96,3.94202829 C10.0872566,3.72704032 9.44,2.9391076 9.44,2 C9.44,0.8954305 10.3354305,0 11.44,0 C12.5445695,0 13.44,0.8954305 13.44,2 C13.44,2.91017851 12.8320065,3.67835253 12,3.92054151 L12,5.43945849 C12.8320065,5.68164747 13.44,6.44982149 13.44,7.36 C13.44,8.27017851 12.8320065,9.03835253 12,9.28054151 L12,12.5867354 L14.6531524,14.1185336 C14.9085726,13.8585168 15.2345139,13.668004 15.6,13.5779717 L15.6,12.1020283 C14.7272566,11.8870403 14.08,11.0991076 14.08,10.16 C14.08,9.0554305 14.9754305,8.16 16.08,8.16 C16.6102255,8.16 17.0922595,8.36633217 17.4501899,8.70308437 L18.8390453,7.83523117 C18.8134356,7.70746641 18.8,7.57530222 18.8,7.44 C18.8,7.26978459 18.8212639,7.10453564 18.8612803,6.9467646 L17.4268053,6.11857004 C17.0713974,6.44249169 16.598764,6.64 16.08,6.64 C14.9754305,6.64 14.08,5.7445695 14.08,4.64 C14.08,3.5354305 14.9754305,2.64 16.08,2.64 C17.1845695,2.64 18.08,3.5354305 18.08,4.64 C18.08,4.82080997 18.0560067,4.99601599 18.0110302,5.16260787 L19.4306954,5.98225196 C19.7885352,5.64599218 20.2702116,5.44 20.8,5.44 C21.9045695,5.44 22.8,6.3354305 22.8,7.44 C22.8,8.35017851 22.1920065,9.11835253 21.36,9.36054151 L21.36,10.8794585 C22.1920065,11.1216475 22.8,11.8898215 22.8,12.8 C22.8,13.9045695 21.9045695,14.8 20.8,14.8 C19.6954305,14.8 18.8,13.9045695 18.8,12.8 C18.8,11.8608924 19.4472566,11.0729597 20.32,10.8579717 L20.32,9.38202829 C19.9489149,9.29061674 19.6185956,9.09562266 19.3614636,8.82946777 L18.0191007,9.66826925 C18.058871,9.82558617 18.08,9.99032562 18.08,10.16 C18.08,11.0701785 17.4720065,11.8383525 16.64,12.0805415 L16.64,13.5994585 C17.4720065,13.8416475 18.08,14.6098215 18.08,15.52 C18.08,15.7075149 18.0541942,15.8890025 18.0059403,16.0611051 L19.4166496,16.8755785 C19.7758813,16.5314428 20.2632481,16.32 20.8,16.32 C21.9045695,16.32 22.8,17.2154305 22.8,18.32 C22.8,19.4245695 21.9045695,20.32 20.8,20.32 C19.6954305,20.32 18.8,19.4245695 18.8,18.32 C18.8,18.1565138 18.8196159,17.9976092 18.8566224,17.8455113 L17.4123208,17.0116433 C17.0586045,17.3277981 16.5917478,17.52 16.08,17.52 C14.9754305,17.52 14.08,16.6245695 14.08,15.52 C14.08,15.3779531 14.0948084,15.2393648 14.1229658,15.1056949 L11.4,13.5335898 L8.66080576,15.1150644 C8.69947467,15.2703278 8.72,15.4327669 8.72,15.6 C8.72,15.7643883 8.70016703,15.9241444 8.66276336,16.077006 L10.0526262,16.8794436 C10.4122381,16.5330267 10.9012415,16.32 11.44,16.32 C12.5445695,16.32 13.44,17.2154305 13.44,18.32 C13.44,19.2488077 12.8068634,20.0297385 11.9486341,20.2547483 L11.9486341,22.8741813 L14.2275674,21.5573852 C14.1834948,21.3923555 14.16,21.2189215 14.16,21.04 C14.16,19.9354305 15.0554305,19.04 16.16,19.04 C17.2645695,19.04 18.16,19.9354305 18.16,21.04 C18.16,22.1445695 17.2645695,23.04 16.16,23.04 C15.6148464,23.04 15.1206361,22.821886 14.7598751,22.4681641 L11.9486341,24.0922003 L11.9486341,28.874693 L22.2886037,28.874693 C22.4826724,28.874693 22.64,29.0324854 22.64,29.2264254 C22.64,29.4213085 22.4826724,29.5784722 22.2886037,29.5784722 L11.9847473,29.5784722 C12.1665689,30.9115351 13.4320981,31.0903874 15.4054442,31.2516374 C17.328546,31.4094298 19.508208,31.5882822 20.0941825,33.7539985 C20.1324938,33.8954459 20.0492766,34.0400365 19.9092205,34.0783845 C19.8856685,34.0843567 19.8627445,34.0875 19.8398206,34.0875 C19.7236305,34.0875 19.6174894,34.0101754 19.5857727,33.8923026 C19.1439366,32.2603143 17.5552736,31.974905 15.9009789,31.8240278 C15.9455708,31.8736915 15.9879644,31.9252412 16.0272178,31.9786769 C16.3431291,32.405848 16.8377217,32.6048173 17.3612048,32.8154167 C18.0172074,33.0788231 18.6951919,33.3519737 19.0023103,34.1010161 C19.0575791,34.2358626 18.9932036,34.3901974 18.8581719,34.445519 C18.8255131,34.4587208 18.7915982,34.4650073 18.7586253,34.4650073 C18.6546824,34.4650073 18.5563919,34.4037135 18.5146263,34.3009284 C18.2919811,33.7583991 17.7697541,33.5484284 17.1649379,33.3054532 C16.9360122,33.2133553 16.7042602,33.1187427 16.4825571,33.0036988 C16.5481887,33.2495029 16.6000032,33.5000219 16.6486774,33.7442544 C16.736919,34.1849415 16.8204502,34.6020541 16.979976,34.9519006 C17.0405832,35.0845468 16.9824882,35.2410819 16.8499688,35.3017471 C16.8144837,35.3177778 16.7774285,35.325636 16.7406873,35.325636 C16.6405127,35.325636 16.5450485,35.268114 16.5007706,35.1716155 C16.3151806,34.7658187 16.2219146,34.2987281 16.1317888,33.8479825 C15.9157382,32.7685819 15.7292061,31.8362865 14.4385548,31.6935819 C14.4351005,31.6932675 14.4325883,31.6926389 14.4297621,31.6920102 C13.5143731,31.5889108 12.6614756,31.4066009 12.1015653,30.9159357 C12.364092,31.5291886 12.7541136,31.9774196 13.1372266,32.4149635 C13.2954963,32.5963304 13.454708,32.779269 13.6044989,32.9725804 C13.6070111,32.975095 13.6101514,32.9776096 13.6126636,32.9804386 C13.7699912,33.1844371 13.953383,33.3573173 14.1477658,33.5418275 C14.4074662,33.7866886 14.6797276,34.0463231 14.9017448,34.3942836 C14.9067692,34.4005702 14.9117936,34.4062281 14.91619,34.4134576 C15.2088633,34.8799196 16.0718097,35.8323319 16.6191589,36.1410015 C16.7460258,36.2120395 16.7909317,36.3729751 16.7196475,36.5002778 C16.6712874,36.5860892 16.5817896,36.6344956 16.4897797,36.6344956 C16.4458159,36.6344956 16.4015381,36.6234942 16.3607146,36.6008626 C16.052654,36.4270395 15.6839862,36.1042251 15.3460931,35.7572076 C15.3778098,36.0822222 15.3778098,36.4509284 15.3316478,36.884386 C15.3172026,37.0201754 15.2032108,37.1201316 15.0700633,37.1201316 C15.0606425,37.1201316 15.0515357,37.1195029 15.0421149,37.1188743 C14.8976624,37.1037865 14.7924634,36.9733406 14.8078507,36.82875 C14.9362878,35.6185892 14.6991973,34.9776754 14.3368101,34.5049269 C14.4969639,35.3268933 14.3933349,36.4147807 13.7844364,37.9980482 C13.7439269,38.1030336 13.6440663,38.1674708 13.5382392,38.1674708 C13.5065225,38.1674708 13.4744917,38.1614985 13.4437171,38.1498684 C13.3077433,38.0970614 13.2399135,37.9446126 13.292356,37.8085088 C14.4721557,34.7425585 13.6698166,33.8253509 12.7406104,32.7626096 C12.3725707,32.3414108 11.9797228,31.8897222 11.6905039,31.2862135 C11.7737211,32.3194079 11.9074966,33.1671491 12.0233726,33.9020468 C12.3728847,36.1139693 12.5832829,37.4498611 10.8492253,39.8896711 C10.7980389,39.9619664 10.7167059,40 10.6344308,40 C10.5813602,40 10.5282897,39.9849123 10.4818137,39.9515936 C10.3631114,39.8667251 10.335477,39.7023319 10.4199503,39.5838304 C11.6939582,37.7912208 11.8418649,36.6750439 11.680141,35.2212792 C11.5727437,35.4067325 11.4471329,35.5620102 11.3234062,35.7147734 C10.9939918,36.1224561 10.682791,36.5075073 10.7484227,37.5891082 C10.7572154,37.7346418 10.6466779,37.8600585 10.5012833,37.8685453 C10.4959449,37.869174 10.4906064,37.869174 10.485268,37.869174 C10.346782,37.869174 10.230592,37.7610453 10.2221133,37.6211696 C10.1442346,36.3349415 10.5530978,35.8298173 10.9136009,35.3834722 C11.2731619,34.9383845 11.5834207,34.553962 11.3968886,33.300424 C11.3149275,32.7541228 11.2348506,32.1462135 11.1754995,31.455636 C10.8922471,32.0327412 10.4237187,32.6620249 9.64681567,33.3180263 L9.64650164,33.3180263 C8.71949371,34.1003874 8.9710294,34.9537865 9.26181847,35.9407749 C9.45243291,36.5879751 9.64964191,37.2565497 9.52717135,37.9521564 C9.50487543,38.080402 9.39339582,38.1699854 9.26809901,38.1699854 C9.25271169,38.1699854 9.23732436,38.1687281 9.22193703,38.1662135 C9.07842666,38.1410673 8.98296243,38.0043348 9.0080846,37.8606871 C9.10888729,37.2873538 8.92989185,36.6788158 8.75654891,36.0907091 C8.67804214,35.8241594 8.59733718,35.5484942 8.54144036,35.2687427 C8.51788833,35.3718421 8.49590643,35.4749415 8.47361051,35.5799269 C8.27891372,36.4914766 8.07762237,37.4350877 6.85542898,38.2369371 C6.81115117,38.2658553 6.76059281,38.28 6.71129056,38.28 C6.62556116,38.28 6.54108788,38.2381944 6.49052952,38.1608699 C6.41076664,38.0385965 6.44499559,37.8754605 6.56652407,37.7956213 C7.60720981,37.112902 7.7695618,36.3516009 7.95797805,35.4692836 C8.03993912,35.0858041 8.1278667,34.6781213 8.30120965,34.2666667 C8.22458704,34.3128728 8.14890651,34.3575073 8.07825042,34.3993129 C7.30574381,34.8566594 6.8799231,35.107807 6.70909237,36.0797076 C6.68679644,36.2079532 6.57563086,36.2981652 6.45002003,36.2981652 C6.4346327,36.2981652 6.41987343,36.2969079 6.40417207,36.2937646 C6.26097573,36.2686184 6.16488344,36.131886 6.19000561,35.9882383 C6.40322999,34.7774488 6.99328687,34.428231 7.8100713,33.9451096 C8.24091645,33.6901901 8.72954258,33.4016374 9.30609629,32.9153728 C9.30641032,32.9153728 9.30672435,32.9147442 9.30672435,32.9147442 C10.2170888,32.1462135 10.659867,31.4339474 10.8759176,30.8065497 C10.8055756,30.8926754 10.7317792,30.9759722 10.6495041,31.0532968 C9.86600657,31.7881944 8.5894865,32.1044079 6.8544869,31.9975365 C6.08386446,32.1399269 5.99719298,32.5598684 5.87943283,33.4858772 C5.7723496,34.3279605 5.63888809,35.3759284 4.71878875,36.4657018 C4.66666026,36.5279386 4.59254987,36.5596857 4.5174974,36.5596857 C4.4572042,36.5596857 4.396911,36.5389401 4.34760875,36.4971345 C4.23644316,36.4031506 4.22231194,36.2368713 4.31620604,36.1255994 C5.13581671,35.1543275 5.25797324,34.1924854 5.35657775,33.4195541 C5.42503565,32.8829971 5.49223744,32.3652997 5.79684371,31.9909357 C5.51013699,32.009481 5.24949451,32.0443713 5.0127181,32.0927778 C4.33944404,32.3728436 4.31023953,32.7270906 4.25873909,33.3661184 C4.22388208,33.7939181 4.18148842,34.3260746 3.8947817,34.9151243 C3.8495618,35.0087939 3.75566771,35.0634868 3.65800529,35.0634868 C3.61937996,35.0634868 3.58012657,35.055 3.54275735,35.0370833 C3.41180806,34.9732749 3.35748137,34.8154825 3.42122887,34.6840936 C3.6639718,34.1843129 3.70071297,33.727595 3.73337179,33.3236842 C3.75598174,33.0420468 3.77921974,32.7663816 3.8680894,32.511462 C2.85441,33.0976827 2.69457022,33.9620833 2.6851494,34.0199196 C2.66379556,34.1487939 2.5516879,34.2402632 2.42544901,34.2402632 C2.41100377,34.2402632 2.39624449,34.2390058 2.38148522,34.2364912 C2.23828887,34.2126023 2.14125451,34.0771272 2.16512056,33.9331652 C2.29449972,33.1580336 3.01048145,32.009481 4.82084755,31.6017982 C4.8236738,31.6005409 4.82555796,31.5992836 4.8283842,31.5980263 C4.85978691,31.5851389 4.89150364,31.579481 4.92322038,31.5788523 C5.46648722,31.4678947 6.10459024,31.4210599 6.85197469,31.469152 C8.43247296,31.5728801 9.62043739,31.2959576 10.289001,30.6685599 C10.6614372,30.3196564 10.8175086,29.9214035 10.8752896,29.5784722 L0.55416166,29.5784722 C0.360092926,29.5784722 0.202765361,29.4213085 0.202765361,29.2264254 C0.202765361,29.0324854 0.360092926,28.874693 0.55416166,28.874693 L10.8944452,28.874693 L10.8944452,24.0922003 L8.0757382,22.4630409 C7.85485794,22.6787978 7.58323074,22.8430141 7.28051042,22.9352364 C7.07942539,23.0031706 6.86401368,23.04 6.64,23.04 C5.5354305,23.04 4.64,22.1445695 4.64,21.04 C4.64,19.9354305 5.5354305,19.04 6.64,19.04 C7.41888859,19.04 8.09378526,19.4852424 8.42405682,20.1350939 C8.57622719,20.4127368 8.66422495,20.7302382 8.66422495,21.0686842 C8.66422495,21.2346491 8.64130097,21.3946418 8.60236161,21.548348 L10.8944452,22.8735526 L10.8947571,20.2447753 Z M17.1079685,21.6367267 C17.2169435,21.4639708 17.28,21.2593492 17.28,21.04 C17.28,20.4214411 16.7785589,19.92 16.16,19.92 C15.7304873,19.92 15.3574439,20.1617742 15.1695412,20.5166512 L15.2006986,20.5346418 C15.1096307,20.6918056 15.0568741,20.8741155 15.0568741,21.0686842 C15.0568741,21.2638816 15.1102588,21.4468202 15.2016406,21.6046126 C15.3872306,21.924598 15.7317183,22.1402266 16.1273925,22.1402266 C16.5224385,22.1402266 16.8672402,21.924598 17.0525162,21.6046126 L17.1079685,21.6367267 Z M6.98581184,22.1055944 C7.43513308,21.9598814 7.76,21.5378791 7.76,21.04 C7.76,20.4214411 7.25855892,19.92 6.64,19.92 C6.02144108,19.92 5.52,20.4214411 5.52,21.04 C5.52,21.2675865 5.58788139,21.4793184 5.70450192,21.6560536 L5.79119122,21.6058699 C5.9764672,21.9252266 6.32064087,22.1402266 6.71537291,22.1402266 C6.80882819,22.1402266 6.899454,22.1281943 6.98581184,22.1055944 Z M12.3911961,18.9115792 C12.4981876,18.7399122 12.56,18.5371746 12.56,18.32 C12.56,17.7014411 12.0585589,17.2 11.44,17.2 C10.8214411,17.2 10.32,17.7014411 10.32,18.32 C10.32,18.5305108 10.3780773,18.727457 10.4790832,18.8956897 L10.4953168,18.8863085 C10.6805928,19.2059795 11.0257086,19.4222368 11.4213827,19.4222368 C11.8176849,19.4222368 12.1624866,19.2059795 12.3474485,18.8863085 L12.3911961,18.9115792 Z M2,8.48 C2.61855892,8.48 3.12,7.97855892 3.12,7.36 C3.12,6.74144108 2.61855892,6.24 2,6.24 C1.38144108,6.24 0.88,6.74144108 0.88,7.36 C0.88,7.97855892 1.38144108,8.48 2,8.48 Z M2,14 C2.61855892,14 3.12,13.4985589 3.12,12.88 C3.12,12.2614411 2.61855892,11.76 2,11.76 C1.38144108,11.76 0.88,12.2614411 0.88,12.88 C0.88,13.4985589 1.38144108,14 2,14 Z M6.72,5.84 C7.33855892,5.84 7.84,5.33855892 7.84,4.72 C7.84,4.10144108 7.33855892,3.6 6.72,3.6 C6.10144108,3.6 5.6,4.10144108 5.6,4.72 C5.6,5.33855892 6.10144108,5.84 6.72,5.84 Z M11.44,3.12 C12.0585589,3.12 12.56,2.61855892 12.56,2 C12.56,1.38144108 12.0585589,0.88 11.44,0.88 C10.8214411,0.88 10.32,1.38144108 10.32,2 C10.32,2.61855892 10.8214411,3.12 11.44,3.12 Z M11.44,8.48 C12.0585589,8.48 12.56,7.97855892 12.56,7.36 C12.56,6.74144108 12.0585589,6.24 11.44,6.24 C10.8214411,6.24 10.32,6.74144108 10.32,7.36 C10.32,7.97855892 10.8214411,8.48 11.44,8.48 Z M6.72,11.28 C7.33855892,11.28 7.84,10.7785589 7.84,10.16 C7.84,9.54144108 7.33855892,9.04 6.72,9.04 C6.10144108,9.04 5.6,9.54144108 5.6,10.16 C5.6,10.7785589 6.10144108,11.28 6.72,11.28 Z M16.08,5.76 C16.6985589,5.76 17.2,5.25855892 17.2,4.64 C17.2,4.02144108 16.6985589,3.52 16.08,3.52 C15.4614411,3.52 14.96,4.02144108 14.96,4.64 C14.96,5.25855892 15.4614411,5.76 16.08,5.76 Z M20.8,8.56 C21.4185589,8.56 21.92,8.05855892 21.92,7.44 C21.92,6.82144108 21.4185589,6.32 20.8,6.32 C20.1814411,6.32 19.68,6.82144108 19.68,7.44 C19.68,8.05855892 20.1814411,8.56 20.8,8.56 Z M20.8,13.92 C21.4185589,13.92 21.92,13.4185589 21.92,12.8 C21.92,12.1814411 21.4185589,11.68 20.8,11.68 C20.1814411,11.68 19.68,12.1814411 19.68,12.8 C19.68,13.4185589 20.1814411,13.92 20.8,13.92 Z M16.08,11.28 C16.6985589,11.28 17.2,10.7785589 17.2,10.16 C17.2,9.54144108 16.6985589,9.04 16.08,9.04 C15.4614411,9.04 14.96,9.54144108 14.96,10.16 C14.96,10.7785589 15.4614411,11.28 16.08,11.28 Z M16.08,16.64 C16.6985589,16.64 17.2,16.1385589 17.2,15.52 C17.2,14.9014411 16.6985589,14.4 16.08,14.4 C15.4614411,14.4 14.96,14.9014411 14.96,15.52 C14.96,16.1385589 15.4614411,16.64 16.08,16.64 Z M20.8,19.44 C21.4185589,19.44 21.92,18.9385589 21.92,18.32 C21.92,17.7014411 21.4185589,17.2 20.8,17.2 C20.1814411,17.2 19.68,17.7014411 19.68,18.32 C19.68,18.9385589 20.1814411,19.44 20.8,19.44 Z M6.72,16.72 C7.33855892,16.72 7.84,16.2185589 7.84,15.6 C7.84,14.9814411 7.33855892,14.48 6.72,14.48 C6.10144108,14.48 5.6,14.9814411 5.6,15.6 C5.6,16.2185589 6.10144108,16.72 6.72,16.72 Z M2,19.44 C2.61855892,19.44 3.12,18.9385589 3.12,18.32 C3.12,17.7014411 2.61855892,17.2 2,17.2 C1.38144108,17.2 0.88,17.7014411 0.88,18.32 C0.88,18.9385589 1.38144108,19.44 2,19.44 Z" id="Oval-1"/>
                <path d="M36.18,4.56 L36.18,3.88 L31.3,3.88 L31.3,4.56 L33.36,4.56 L33.36,11 L34.12,11 L34.12,4.56 L36.18,4.56 Z M41.93,11 L41.93,10.32 L38.27,10.32 L38.27,7.75 L41.39,7.75 L41.39,7.07 L38.27,7.07 L38.27,4.56 L41.93,4.56 L41.93,3.88 L37.51,3.88 L37.51,11 L41.93,11 Z M48.4,11 L48.4,3.88 L43.51,3.88 L43.51,11 L44.27,11 L44.27,4.56 L47.64,4.56 L47.64,11 L48.4,11 Z M55.18,11 L55.18,3.88 L51.26,3.88 L51.26,6.77 C51.26,9.73 50.63,10.32 49.75,10.32 L49.56,10.32 L49.56,11 L49.92,11 C51.28,11 52,10 52,7 L52,4.56 L54.42,4.56 L54.42,11 L55.18,11 Z M62.34,11 L62.34,3.88 L61.62,3.88 L58,9.68 L58,3.88 L57.24,3.88 L57.24,11 L57.96,11 L61.58,5.19 L61.58,11 L62.34,11 Z M70.14,12.72 L70.14,10.32 L69.29,10.32 L69.29,3.88 L68.53,3.88 L68.53,10.32 L65.16,10.32 L65.16,3.88 L64.4,3.88 L64.4,11 L69.39,11 L69.39,12.72 L70.14,12.72 Z M76.54,11 L73.93,3.88 L73.29,3.88 L70.67,11 L71.48,11 L72.05,9.39 L75.16,9.39 L75.73,11 L76.54,11 Z M74.94,8.73 L72.28,8.73 L73.62,4.97 L74.94,8.73 Z" id="&#x422;&#x435;&#x43F;&#x43B;&#x438;&#x446;&#x430;"/>
                <path d="M36.72,20.0400002 L35.96,20.0400002 C35.77,20.9100002 35.14,21.4800002 34.25,21.4800002 C33.78,21.4800002 33.33,21.3000002 33.02,20.9800002 C32.57,20.5200002 32.52,20.0300002 32.52,18.5400002 C32.52,17.0500002 32.57,16.5600002 33.02,16.1000002 C33.33,15.7800002 33.78,15.6000002 34.25,15.6000002 C35.14,15.6000002 35.75,16.1700002 35.94,17.0400002 L36.72,17.0400002 C36.48,15.7000002 35.53,14.9200002 34.25,14.9200002 C33.55,14.9200002 32.91,15.1800002 32.43,15.6600002 C31.76,16.3300002 31.76,17.0300002 31.76,18.5400002 C31.76,20.0500002 31.76,20.7500002 32.43,21.4200002 C32.91,21.9000002 33.55,22.1600002 34.25,22.1600002 C35.52,22.1600002 36.49,21.3800002 36.72,20.0400002 L36.72,20.0400002 Z M42.91,18.0500002 C42.91,17.1800002 42.86,16.2800002 42.24,15.6600002 C41.76,15.1800002 41.12,14.9200002 40.42,14.9200002 C39.72,14.9200002 39.08,15.1800002 38.6,15.6600002 C37.99,16.2700002 37.93,17.1400002 37.93,17.9900002 L37.93,18.5400002 C37.93,19.9600002 37.95,20.7700002 38.6,21.4200002 C39.08,21.9000002 39.71,22.1600002 40.42,22.1600002 C41.13,22.1600002 41.76,21.9000002 42.24,21.4200002 C42.89,20.7700002 42.91,19.9600002 42.91,18.5400002 L42.91,18.0500002 Z M42.15,18.8900002 C42.15,19.7100002 42.14,20.4800002 41.65,20.9700002 C41.32,21.3000002 40.89,21.4800002 40.42,21.4800002 C39.95,21.4800002 39.52,21.3000002 39.19,20.9700002 C38.73,20.5100002 38.69,19.8100002 38.69,19.0400002 L38.69,18.3300002 C38.69,17.3500002 38.69,16.6100002 39.19,16.1100002 C39.52,15.7800002 39.96,15.6000002 40.42,15.6000002 C40.88,15.6000002 41.32,15.7800002 41.65,16.1100002 C42.12,16.5800002 42.15,17.3200002 42.15,18.1600002 L42.15,18.8900002 Z M50.44,23.8200002 L50.44,21.4200002 L49.59,21.4200002 L49.59,14.9800002 L48.83,14.9800002 L48.83,21.4200002 L45.46,21.4200002 L45.46,14.9800002 L44.7,14.9800002 L44.7,22.1000002 L49.69,22.1000002 L49.69,23.8200002 L50.44,23.8200002 Z M56.98,22.1000002 L56.98,14.9800002 L56.26,14.9800002 L52.64,20.7800002 L52.64,14.9800002 L51.88,14.9800002 L51.88,22.1000002 L52.6,22.1000002 L56.22,16.2900002 L56.22,22.1000002 L56.98,22.1000002 Z M64,22.1000002 L61.39,14.9800002 L60.75,14.9800002 L58.13,22.1000002 L58.94,22.1000002 L59.51,20.4900002 L62.62,20.4900002 L63.19,22.1000002 L64,22.1000002 Z M62.4,19.8300002 L59.74,19.8300002 L61.08,16.0700002 L62.4,19.8300002 Z M69.86,22.1000002 L69.86,14.9800002 L65.94,14.9800002 L65.94,17.8700002 C65.94,20.8300002 65.31,21.4200002 64.43,21.4200002 L64.24,21.4200002 L64.24,22.1000002 L64.6,22.1000002 C65.96,22.1000002 66.68,21.1000002 66.68,18.1000002 L66.68,15.6600002 L69.1,15.6600002 L69.1,22.1000002 L69.86,22.1000002 Z M76.79,20.0100002 C76.79,18.7500002 75.92,17.9100002 74.59,17.9100002 L72.68,17.9100002 L72.68,14.9800002 L71.92,14.9800002 L71.92,22.1000002 L74.59,22.1000002 C75.91,22.1000002 76.79,21.2600002 76.79,20.0100002 L76.79,20.0100002 Z M76.02,20.0100002 C76.02,20.9000002 75.47,21.4200002 74.52,21.4200002 L72.68,21.4200002 L72.68,18.5900002 L74.52,18.5900002 C75.47,18.5900002 76.02,19.1100002 76.02,20.0100002 L76.02,20.0100002 Z M83.12,22.1000002 L83.12,14.9800002 L82.36,14.9800002 L82.36,18.1700002 L78.98,18.1700002 L78.98,14.9800002 L78.22,14.9800002 L78.22,22.1000002 L78.98,22.1000002 L78.98,18.8500002 L82.36,18.8500002 L82.36,22.1000002 L83.12,22.1000002 Z M91.76,22.1000002 L91.76,14.9800002 L91,14.9800002 L91,22.1000002 L91.76,22.1000002 Z M90.05,20.0100002 C90.05,18.7500002 89.18,17.9100002 87.85,17.9100002 L85.94,17.9100002 L85.94,14.9800002 L85.18,14.9800002 L85.18,22.1000002 L87.85,22.1000002 C89.17,22.1000002 90.05,21.2600002 90.05,20.0100002 L90.05,20.0100002 Z M89.28,20.0100002 C89.28,20.9000002 88.73,21.4200002 87.78,21.4200002 L85.94,21.4200002 L85.94,18.5900002 L87.78,18.5900002 C88.73,18.5900002 89.28,19.1100002 89.28,20.0100002 L89.28,20.0100002 Z M98.15,22.1000002 L95.95,18.4500002 L98,14.9800002 L97.12,14.9800002 L95.54,17.7900002 L93.96,14.9800002 L93.08,14.9800002 L95.12,18.4500002 L92.94,22.1000002 L93.8,22.1000002 L95.54,19.1100002 L97.27,22.1000002 L98.15,22.1000002 Z" id="&#x441;&#x43E;&#x446;&#x438;&#x430;&#x43B;&#x44C;&#x43D;&#x44B;&#x445;"/>
                <path d="M36.18,27.56 L36.18,26.88 L31.3,26.88 L31.3,27.56 L33.36,27.56 L33.36,34 L34.12,34 L34.12,27.56 L36.18,27.56 Z M41.93,34 L41.93,33.32 L38.27,33.32 L38.27,30.75 L41.39,30.75 L41.39,30.07 L38.27,30.07 L38.27,27.56 L41.93,27.56 L41.93,26.88 L37.51,26.88 L37.51,34 L41.93,34 Z M47.84,34 L45.64,30.35 L47.69,26.88 L46.81,26.88 L45.23,29.69 L43.65,26.88 L42.77,26.88 L44.81,30.35 L42.63,34 L43.49,34 L45.23,31.01 L46.96,34 L47.84,34 Z M53.92,34 L53.92,26.88 L53.16,26.88 L53.16,30.07 L49.78,30.07 L49.78,26.88 L49.02,26.88 L49.02,34 L49.78,34 L49.78,30.75 L53.16,30.75 L53.16,34 L53.92,34 Z M60.69,29.95 C60.69,29.08 60.64,28.18 60.02,27.56 C59.54,27.08 58.9,26.82 58.2,26.82 C57.5,26.82 56.86,27.08 56.38,27.56 C55.77,28.17 55.71,29.04 55.71,29.89 L55.71,30.44 C55.71,31.86 55.73,32.67 56.38,33.32 C56.86,33.8 57.49,34.06 58.2,34.06 C58.91,34.06 59.54,33.8 60.02,33.32 C60.67,32.67 60.69,31.86 60.69,30.44 L60.69,29.95 Z M59.93,30.79 C59.93,31.61 59.92,32.38 59.43,32.87 C59.1,33.2 58.67,33.38 58.2,33.38 C57.73,33.38 57.3,33.2 56.97,32.87 C56.51,32.41 56.47,31.71 56.47,30.94 L56.47,30.23 C56.47,29.25 56.47,28.51 56.97,28.01 C57.3,27.68 57.74,27.5 58.2,27.5 C58.66,27.5 59.1,27.68 59.43,28.01 C59.9,28.48 59.93,29.22 59.93,30.06 L59.93,30.79 Z M66.99,34 L66.99,26.88 L63.07,26.88 L63.07,29.77 C63.07,32.73 62.44,33.32 61.56,33.32 L61.37,33.32 L61.37,34 L61.73,34 C63.09,34 63.81,33 63.81,30 L63.81,27.56 L66.23,27.56 L66.23,34 L66.99,34 Z M73.76,29.95 C73.76,29.08 73.71,28.18 73.09,27.56 C72.61,27.08 71.97,26.82 71.27,26.82 C70.57,26.82 69.93,27.08 69.45,27.56 C68.84,28.17 68.78,29.04 68.78,29.89 L68.78,30.44 C68.78,31.86 68.8,32.67 69.45,33.32 C69.93,33.8 70.56,34.06 71.27,34.06 C71.98,34.06 72.61,33.8 73.09,33.32 C73.74,32.67 73.76,31.86 73.76,30.44 L73.76,29.95 Z M73,30.79 C73,31.61 72.99,32.38 72.5,32.87 C72.17,33.2 71.74,33.38 71.27,33.38 C70.8,33.38 70.37,33.2 70.04,32.87 C69.58,32.41 69.54,31.71 69.54,30.94 L69.54,30.23 C69.54,29.25 69.54,28.51 70.04,28.01 C70.37,27.68 70.81,27.5 71.27,27.5 C71.73,27.5 72.17,27.68 72.5,28.01 C72.97,28.48 73,29.22 73,30.06 L73,30.79 Z M79.9,27.56 L79.9,26.88 L75.62,26.88 L75.62,34 L76.38,34 L76.38,27.56 L79.9,27.56 Z M86.34,34 L86.34,26.88 L85.62,26.88 L82,32.68 L82,26.88 L81.24,26.88 L81.24,34 L81.96,34 L85.58,28.19 L85.58,34 L86.34,34 Z M93.5,34 L93.5,26.88 L92.78,26.88 L89.16,32.68 L89.16,26.88 L88.4,26.88 L88.4,34 L89.12,34 L92.74,28.19 L92.74,34 L93.5,34 Z M92.41,25.17 L91.77,25.17 C91.73,25.66 91.44,25.91 90.95,25.91 C90.46,25.91 90.17,25.66 90.13,25.17 L89.49,25.17 C89.55,26.06 90.12,26.43 90.95,26.43 C91.78,26.43 92.35,26.06 92.41,25.17 L92.41,25.17 Z" id="&#x442;&#x435;&#x445;&#x43D;&#x43E;&#x43B;&#x43E;&#x433;&#x438;&#x439;"/>
            </g>
        </g>
    </g>
</symbol><symbol id="icon-down" viewBox="0 0 12 8"><path d="M1.41.58L6 5.17 10.59.58 12 2 6 8 0 2 1.41.58z"/></symbol><symbol id="icon-facebook" viewBox="0 0 15 32"><path d="M14.66 10.216H9.667V6.94c0-1.23.815-1.516 1.39-1.516h3.523V.019L9.727 0C4.341 0 3.115 4.032 3.115 6.612v3.604H0v5.57h3.115V31.55h6.552V15.786h4.421l.572-5.57z"/></symbol><symbol id="icon-instagram" viewBox="0 0 20 20"><path d="M5.8 0h8.4C17.4 0 20 2.6 20 5.8v8.4a5.8 5.8 0 0 1-5.8 5.8H5.8C2.6 20 0 17.4 0 14.2V5.8A5.8 5.8 0 0 1 5.8 0zm-.2 2A3.6 3.6 0 0 0 2 5.6v8.8C2 16.39 3.61 18 5.6 18h8.8a3.6 3.6 0 0 0 3.6-3.6V5.6C18 3.61 16.39 2 14.4 2H5.6zm9.65 1.5a1.25 1.25 0 1 1 0 2.5 1.25 1.25 0 0 1 0-2.5zM10 5a5 5 0 1 1 0 10 5 5 0 0 1 0-10zm0 2a3 3 0 1 0 0 6 3 3 0 0 0 0-6z"/></symbol><symbol id="icon-mail" viewBox="0 0 20 20"><path d="M2 8l8 5 8-5-8-5-8 5zm18 0v10a2 2 0 0 1-2 2H2a2 2 0 0 1-2-2V8c0-.73.39-1.36.97-1.71L10 .64l9.03 5.65c.58.35.97.98.97 1.71z"/></symbol><symbol id="icon-marker" viewBox="0 0 14 20"><path d="M7 9.5a2.5 2.5 0 1 1 0-5 2.5 2.5 0 0 1 0 5zM7 0a7 7 0 0 0-7 7c0 5.25 7 13 7 13s7-7.75 7-13a7 7 0 0 0-7-7z"/></symbol><symbol id="icon-menu" viewBox="0 0 24 21"><path d="M23.244 16.009H.75c-.413 0-.75.36-.75.801v3.421c0 .423.337.769.75.769h22.494c.414 0 .75-.346.75-.77v-3.42c0-.441-.336-.801-.75-.801zm0-8H.75c-.413 0-.75.36-.75.801v3.421A.76.76 0 0 0 .75 13h22.494a.76.76 0 0 0 .75-.769V8.81c0-.441-.336-.801-.75-.801zm0-8H.75C.337.009 0 .369 0 .81v3.42c0 .423.337.769.75.769h22.494a.76.76 0 0 0 .75-.769V.81c0-.441-.336-.801-.75-.801z"/></symbol><symbol id="icon-next" viewBox="0 0 15 24"><path d="M3 0L.17 2.83 9.34 12 .17 21.17 3 24l12-12L3 0z"/></symbol><symbol id="icon-ok" viewBox="0 0 19 32"><path d="M9.25 4.83a3.416 3.416 0 0 1 3.413 3.414c0 1.88-1.53 3.41-3.413 3.41a3.417 3.417 0 0 1-3.413-3.41A3.418 3.418 0 0 1 9.25 4.83zm0 11.654c4.547 0 8.243-3.696 8.243-8.24C17.493 3.698 13.797 0 9.25 0 4.705 0 1.008 3.698 1.008 8.244c0 4.544 3.697 8.24 8.242 8.24zm3.335 6.724a15.434 15.434 0 0 0 4.786-1.983 2.415 2.415 0 0 0 .757-3.33 2.413 2.413 0 0 0-3.33-.76 10.465 10.465 0 0 1-11.097 0 2.412 2.412 0 0 0-3.33.76 2.414 2.414 0 0 0 .757 3.33c1.49.935 3.108 1.6 4.786 1.983l-4.608 4.608a2.415 2.415 0 0 0 3.417 3.414l4.526-4.528 4.53 4.528c.942.943 2.47.943 3.414 0a2.413 2.413 0 0 0 0-3.414l-4.608-4.608z"/></symbol><symbol id="icon-photo" viewBox="0 0 20 18"><path d="M2 2h3l2-2h6l2 2h3a2 2 0 0 1 2 2v12a2 2 0 0 1-2 2H2a2 2 0 0 1-2-2V4a2 2 0 0 1 2-2zm8 3a5 5 0 1 0 0 10 5 5 0 0 0 0-10zm0 2a3 3 0 1 1 0 6 3 3 0 0 1 0-6z"/></symbol><symbol id="icon-prev" viewBox="0 0 15 25"><path d="M14.83 21.67L5.66 12.5l9.17-9.17L12 .5l-12 12 12 12 2.83-2.83z"/></symbol><symbol id="icon-search" viewBox="0 0 18 18"><path d="M11 0a6.5 6.5 0 0 0-6.5 6.5c0 1.61.59 3.09 1.56 4.23l-.27.27H5l-5 5 1.5 1.5 5-5v-.79l.27-.27C7.91 12.41 9.39 13 11 13a6.5 6.5 0 1 0 0-13zm0 2c2.5 0 4.5 2 4.5 4.5S13.5 11 11 11 6.5 9 6.5 6.5 8.5 2 11 2z"/></symbol><symbol id="icon-te-st" viewBox="0 0 99 40"><g><path d="M10.895 20.245a2 2 0 0 1-1.4-2.394l-1.394-.805c-.359.343-.845.554-1.381.554a1.994 1.994 0 0 1-1.42-.592l-1.369.79A2.003 2.003 0 0 1 2 20.32a2 2 0 1 1 1.347-3.479l1.418-.818a2 2 0 0 1 3.33-1.875l2.785-1.607V9.28a1.998 1.998 0 0 1-.828-.481l-1.392.87a2 2 0 1 1-3.885.027l-1.451-.838a1.996 1.996 0 0 1-.764.422v1.678a2 2 0 1 1-1.12 0V9.281A2 2 0 1 1 3.428 5.96l1.333-.833a2 2 0 1 1 .528.99l-1.331.833a2.009 2.009 0 0 1-.035.962l1.406.811c.36-.348.85-.563 1.391-.563.53 0 1.013.207 1.371.544l1.404-.877a2.005 2.005 0 0 1 1.465-2.409V3.942A2 2 0 1 1 12 3.921v1.518a2 2 0 0 1 0 3.842v3.306l2.653 1.532c.256-.26.582-.451.947-.541v-1.476a2 2 0 1 1 1.85-3.399l1.389-.868a2.01 2.01 0 0 1 .022-.888l-1.434-.828a2 2 0 1 1 .584-.956l1.42.82a2 2 0 1 1 1.93 3.378l-.001 1.518a2 2 0 1 1-1.04-.021V9.382a1.998 1.998 0 0 1-.959-.553l-1.342.84a2.004 2.004 0 0 1-1.379 2.412v1.518a2 2 0 0 1 1.366 2.462l1.41.815a2 2 0 1 1-.56.97l-1.444-.834a2 2 0 0 1-3.29-1.906l-2.722-1.572-2.74 1.581a2.004 2.004 0 0 1 .003.962l1.39.802a2 2 0 1 1 1.896 3.375v2.62l2.279-1.317a2.003 2.003 0 0 1 1.932-2.517 2 2 0 1 1-1.4 3.428l-2.811 1.624v4.783h10.34a.352.352 0 0 1 0 .703H11.985c.182 1.334 1.447 1.512 3.42 1.674 1.924.157 4.103.336 4.69 2.502a.264.264 0 0 1-.255.334.263.263 0 0 1-.254-.196c-.442-1.632-2.03-1.917-3.685-2.068.045.05.087.101.126.155.316.427.81.626 1.334.836.656.264 1.334.537 1.641 1.286a.264.264 0 1 1-.487.2c-.223-.543-.745-.753-1.35-.996a7.767 7.767 0 0 1-.682-.301c.065.246.117.496.166.74.088.44.171.858.331 1.208a.264.264 0 0 1-.48.22c-.185-.406-.278-.873-.368-1.324-.216-1.08-.403-2.012-1.693-2.154l-.01-.002c-.915-.103-1.768-.285-2.327-.776.262.613.652 1.061 1.035 1.499.158.181.318.364.467.558l.009.007c.157.204.34.377.535.562.26.245.532.504.754.852.005.007.01.012.014.02.293.466 1.156 1.418 1.703 1.727a.264.264 0 0 1-.258.46c-.308-.174-.677-.497-1.015-.844.032.325.032.694-.014 1.127a.263.263 0 0 1-.262.236l-.028-.001a.264.264 0 0 1-.234-.29c.128-1.21-.109-1.851-.471-2.324.16.822.056 1.91-.553 3.493a.264.264 0 1 1-.492-.19c1.18-3.065.378-3.983-.551-5.045-.368-.422-.761-.873-1.05-1.477.083 1.033.216 1.881.332 2.616.35 2.212.56 3.548-1.174 5.988a.262.262 0 0 1-.367.062.264.264 0 0 1-.062-.368c1.274-1.793 1.422-2.909 1.26-4.363-.107.186-.233.341-.357.494-.329.407-.64.793-.575 1.874a.264.264 0 0 1-.247.28h-.016a.264.264 0 0 1-.263-.248c-.078-1.286.331-1.791.692-2.238.36-.445.67-.829.483-2.083a28.944 28.944 0 0 1-.222-1.844c-.283.577-.751 1.206-1.528 1.862-.928.782-.676 1.636-.385 2.623.19.647.388 1.316.265 2.011a.263.263 0 1 1-.519-.091c.1-.574-.078-1.182-.251-1.77a9.547 9.547 0 0 1-.216-.822l-.067.31c-.195.912-.396 1.856-1.619 2.658a.264.264 0 0 1-.288-.441c1.04-.683 1.203-1.444 1.391-2.327.082-.383.17-.79.343-1.202l-.223.132c-.772.458-1.198.709-1.369 1.68a.263.263 0 1 1-.519-.09c.213-1.212.803-1.56 1.62-2.044.43-.255.92-.543 1.496-1.03.911-.769 1.354-1.481 1.57-2.108-.07.086-.144.169-.226.246-.784.735-2.06 1.051-3.796.945-.77.142-.857.562-.975 1.488-.107.842-.24 1.89-1.16 2.98a.261.261 0 0 1-.371.031.264.264 0 0 1-.032-.371c.82-.972.942-1.934 1.04-2.706.069-.537.136-1.055.44-1.43a5.778 5.778 0 0 0-.783.103c-.674.28-.703.634-.754 1.273-.035.428-.078.96-.364 1.55a.263.263 0 0 1-.352.121.264.264 0 0 1-.122-.353c.243-.5.28-.956.312-1.36.023-.282.046-.558.135-.813-1.014.587-1.173 1.451-1.183 1.509a.264.264 0 0 1-.52-.087c.13-.775.845-1.924 2.656-2.331l.007-.004a.26.26 0 0 1 .095-.02 7.292 7.292 0 0 1 1.929-.109c1.58.104 2.768-.173 3.437-.8.372-.35.529-.748.586-1.09H.555a.351.351 0 0 1 0-.704h10.34v-4.783l-2.82-1.629c-.22.216-.492.38-.794.472a2 2 0 1 1 1.144-2.8 1.936 1.936 0 0 1 .177 1.413l2.292 1.326v-2.63zm6.213 1.392a1.12 1.12 0 0 0-1.938-1.12l.03.018a1.062 1.062 0 0 0 .002 1.07 1.07 1.07 0 0 0 1.85 0l.056.032zm-10.122.469a1.12 1.12 0 1 0-1.281-.45l.086-.05a1.068 1.068 0 0 0 1.195.5zm5.405-3.194a1.12 1.12 0 1 0-1.912-.016l.016-.01a1.07 1.07 0 0 0 1.852 0l.044.026zM2 8.48a1.12 1.12 0 1 0 0-2.24 1.12 1.12 0 0 0 0 2.24zM2 14a1.12 1.12 0 1 0 0-2.24A1.12 1.12 0 0 0 2 14zm4.72-8.16a1.12 1.12 0 1 0 0-2.24 1.12 1.12 0 0 0 0 2.24zm4.72-2.72a1.12 1.12 0 1 0 0-2.24 1.12 1.12 0 0 0 0 2.24zm0 5.36a1.12 1.12 0 1 0 0-2.24 1.12 1.12 0 0 0 0 2.24zm-4.72 2.8a1.12 1.12 0 1 0 0-2.24 1.12 1.12 0 0 0 0 2.24zm9.36-5.52a1.12 1.12 0 1 0 0-2.24 1.12 1.12 0 0 0 0 2.24zm4.72 2.8a1.12 1.12 0 1 0 0-2.24 1.12 1.12 0 0 0 0 2.24zm0 5.36a1.12 1.12 0 1 0 0-2.24 1.12 1.12 0 0 0 0 2.24zm-4.72-2.64a1.12 1.12 0 1 0 0-2.24 1.12 1.12 0 0 0 0 2.24zm0 5.36a1.12 1.12 0 1 0 0-2.24 1.12 1.12 0 0 0 0 2.24zm4.72 2.8a1.12 1.12 0 1 0 0-2.24 1.12 1.12 0 0 0 0 2.24zM6.72 16.72a1.12 1.12 0 1 0 0-2.24 1.12 1.12 0 0 0 0 2.24zM2 19.44a1.12 1.12 0 1 0 0-2.24 1.12 1.12 0 0 0 0 2.24zM36.18 4.56v-.68H31.3v.68h2.06V11h.76V4.56h2.06zM41.93 11v-.68h-3.66V7.75h3.12v-.68h-3.12V4.56h3.66v-.68h-4.42V11h4.42zm6.47 0V3.88h-4.89V11h.76V4.56h3.37V11h.76zm6.78 0V3.88h-3.92v2.89c0 2.96-.63 3.55-1.51 3.55h-.19V11h.36C51.28 11 52 10 52 7V4.56h2.42V11h.76zm7.16 0V3.88h-.72L58 9.68v-5.8h-.76V11h.72l3.62-5.81V11h.76zm7.8 1.72v-2.4h-.85V3.88h-.76v6.44h-3.37V3.88h-.76V11h4.99v1.72h.75zm6.4-1.72l-2.61-7.12h-.64L70.67 11h.81l.57-1.61h3.11l.57 1.61h.81zm-1.6-2.27h-2.66l1.34-3.76 1.32 3.76zM36.72 20.04h-.76c-.19.87-.82 1.44-1.71 1.44-.47 0-.92-.18-1.23-.5-.45-.46-.5-.95-.5-2.44s.05-1.98.5-2.44c.31-.32.76-.5 1.23-.5.89 0 1.5.57 1.69 1.44h.78c-.24-1.34-1.19-2.12-2.47-2.12-.7 0-1.34.26-1.82.74-.67.67-.67 1.37-.67 2.88 0 1.51 0 2.21.67 2.88.48.48 1.12.74 1.82.74 1.27 0 2.24-.78 2.47-2.12zm6.19-1.99c0-.87-.05-1.77-.67-2.39-.48-.48-1.12-.74-1.82-.74s-1.34.26-1.82.74c-.61.61-.67 1.48-.67 2.33v.55c0 1.42.02 2.23.67 2.88.48.48 1.11.74 1.82.74s1.34-.26 1.82-.74c.65-.65.67-1.46.67-2.88v-.49zm-.76.84c0 .82-.01 1.59-.5 2.08-.33.33-.76.51-1.23.51s-.9-.18-1.23-.51c-.46-.46-.5-1.16-.5-1.93v-.71c0-.98 0-1.72.5-2.22.33-.33.77-.51 1.23-.51.46 0 .9.18 1.23.51.47.47.5 1.21.5 2.05v.73zm8.29 4.93v-2.4h-.85v-6.44h-.76v6.44h-3.37v-6.44h-.76v7.12h4.99v1.72h.75zm6.54-1.72v-7.12h-.72l-3.62 5.8v-5.8h-.76v7.12h.72l3.62-5.81v5.81h.76zm7.02 0l-2.61-7.12h-.64l-2.62 7.12h.81l.57-1.61h3.11l.57 1.61H64zm-1.6-2.27h-2.66l1.34-3.76 1.32 3.76zm7.46 2.27v-7.12h-3.92v2.89c0 2.96-.63 3.55-1.51 3.55h-.19v.68h.36c1.36 0 2.08-1 2.08-4v-2.44h2.42v6.44h.76zm6.93-2.09c0-1.26-.87-2.1-2.2-2.1h-1.91v-2.93h-.76v7.12h2.67c1.32 0 2.2-.84 2.2-2.09zm-.77 0c0 .89-.55 1.41-1.5 1.41h-1.84v-2.83h1.84c.95 0 1.5.52 1.5 1.42zm7.1 2.09v-7.12h-.76v3.19h-3.38v-3.19h-.76v7.12h.76v-3.25h3.38v3.25h.76zm8.64 0v-7.12H91v7.12h.76zm-1.71-2.09c0-1.26-.87-2.1-2.2-2.1h-1.91v-2.93h-.76v7.12h2.67c1.32 0 2.2-.84 2.2-2.09zm-.77 0c0 .89-.55 1.41-1.5 1.41h-1.84v-2.83h1.84c.95 0 1.5.52 1.5 1.42zm8.87 2.09l-2.2-3.65L98 14.98h-.88l-1.58 2.81-1.58-2.81h-.88l2.04 3.47-2.18 3.65h.86l1.74-2.99 1.73 2.99h.88zM36.18 27.56v-.68H31.3v.68h2.06V34h.76v-6.44h2.06zM41.93 34v-.68h-3.66v-2.57h3.12v-.68h-3.12v-2.51h3.66v-.68h-4.42V34h4.42zm5.91 0l-2.2-3.65 2.05-3.47h-.88l-1.58 2.81-1.58-2.81h-.88l2.04 3.47L42.63 34h.86l1.74-2.99L46.96 34h.88zm6.08 0v-7.12h-.76v3.19h-3.38v-3.19h-.76V34h.76v-3.25h3.38V34h.76zm6.77-4.05c0-.87-.05-1.77-.67-2.39-.48-.48-1.12-.74-1.82-.74s-1.34.26-1.82.74c-.61.61-.67 1.48-.67 2.33v.55c0 1.42.02 2.23.67 2.88.48.48 1.11.74 1.82.74s1.34-.26 1.82-.74c.65-.65.67-1.46.67-2.88v-.49zm-.76.84c0 .82-.01 1.59-.5 2.08-.33.33-.76.51-1.23.51s-.9-.18-1.23-.51c-.46-.46-.5-1.16-.5-1.93v-.71c0-.98 0-1.72.5-2.22.33-.33.77-.51 1.23-.51.46 0 .9.18 1.23.51.47.47.5 1.21.5 2.05v.73zM66.99 34v-7.12h-3.92v2.89c0 2.96-.63 3.55-1.51 3.55h-.19V34h.36c1.36 0 2.08-1 2.08-4v-2.44h2.42V34h.76zm6.77-4.05c0-.87-.05-1.77-.67-2.39-.48-.48-1.12-.74-1.82-.74s-1.34.26-1.82.74c-.61.61-.67 1.48-.67 2.33v.55c0 1.42.02 2.23.67 2.88.48.48 1.11.74 1.82.74s1.34-.26 1.82-.74c.65-.65.67-1.46.67-2.88v-.49zm-.76.84c0 .82-.01 1.59-.5 2.08-.33.33-.76.51-1.23.51s-.9-.18-1.23-.51c-.46-.46-.5-1.16-.5-1.93v-.71c0-.98 0-1.72.5-2.22.33-.33.77-.51 1.23-.51.46 0 .9.18 1.23.51.47.47.5 1.21.5 2.05v.73zm6.9-3.23v-.68h-4.28V34h.76v-6.44h3.52zM86.34 34v-7.12h-.72L82 32.68v-5.8h-.76V34h.72l3.62-5.81V34h.76zm7.16 0v-7.12h-.72l-3.62 5.8v-5.8h-.76V34h.72l3.62-5.81V34h.76zm-1.09-8.83h-.64c-.04.49-.33.74-.82.74-.49 0-.78-.25-.82-.74h-.64c.06.89.63 1.26 1.46 1.26s1.4-.37 1.46-1.26z"/></g></symbol><symbol id="icon-telegram" viewBox="0 0 32 27"><path d="M29.84.177L1.494 11.11c-1.935.777-1.923 1.856-.353 2.337l7.07 2.206 2.705 8.294c.329.907.166 1.267 1.12 1.267.735 0 1.061-.335 1.471-.735.26-.255 1.808-1.76 3.535-3.438l7.353 5.433c1.353.746 2.33.36 2.667-1.257L31.89 2.47c.494-1.981-.756-2.88-2.05-2.293zM9.32 15.147L25.255 5.092c.795-.482 1.525-.223.926.309l-13.644 12.31-.532 5.667-2.685-8.233z"/></symbol><symbol id="icon-twitter" viewBox="0 0 32 26"><path d="M31.528 3.033a12.87 12.87 0 0 1-3.715 1.018A6.48 6.48 0 0 0 30.657.472a12.948 12.948 0 0 1-4.107 1.57 6.468 6.468 0 0 0-11.021 5.9A18.366 18.366 0 0 1 2.194 1.184a6.435 6.435 0 0 0-.875 3.252A6.465 6.465 0 0 0 4.197 9.82a6.45 6.45 0 0 1-2.93-.81v.082a6.473 6.473 0 0 0 5.189 6.343 6.503 6.503 0 0 1-2.922.11 6.475 6.475 0 0 0 6.042 4.492 12.976 12.976 0 0 1-8.033 2.77c-.522 0-1.037-.031-1.543-.091a18.304 18.304 0 0 0 9.916 2.906c11.898 0 18.403-9.856 18.403-18.404 0-.28-.005-.56-.018-.838a13.1 13.1 0 0 0 3.227-3.347z"/></symbol><symbol id="icon-up" viewBox="0 0 12 8"><path d="M1.41 8L6 3.41 10.59 8 12 6.58l-6-6-6 6L1.41 8z"/></symbol><symbol id="icon-viber" viewBox="0 0 31 31"><g><path d="M28.046 22.425c-.943-.759-1.951-1.44-2.943-2.136-1.978-1.39-3.788-1.498-5.264.738-.829 1.255-1.99 1.31-3.203.76-3.345-1.518-5.928-3.855-7.44-7.255-.67-1.504-.661-2.852.905-3.916.829-.563 1.664-1.229 1.597-2.458-.087-1.603-3.98-6.96-5.516-7.526C5.546.398 4.912.413 4.266.631.66 1.843-.831 4.807.598 8.317c4.265 10.47 11.771 17.76 22.103 22.208.59.254 1.244.355 1.575.446 2.352.024 5.108-2.243 5.904-4.492.766-2.164-.854-3.023-2.134-4.054zM16.46 1.706c7.554 1.161 11.038 4.753 12 12.36.089.703-.173 1.76.83 1.78 1.047.02.795-1.021.804-1.725C30.182 6.956 23.934.314 16.679.07c-.547.079-1.68-.378-1.75.85-.048.827.906.69 1.532.787z"/><path d="M17.938 3.792c-.726-.088-1.685-.43-1.855.578-.177 1.058.892.95 1.579 1.104 4.665 1.043 6.289 2.741 7.057 7.369.112.674-.11 1.724 1.036 1.55.85-.13.543-1.03.614-1.555.037-4.443-3.77-8.487-8.43-9.046z"/><path d="M18.367 7.425c-.485.012-.961.064-1.14.582-.267.775.296.96.87 1.052 1.913.307 2.92 1.436 3.111 3.344.052.518.38.938.881.878.693-.082.756-.7.735-1.285.034-2.144-2.39-4.623-4.457-4.571z"/></g></symbol><symbol id="icon-vk" viewBox="0 0 32 21"><path d="M.005 1.527c-.219-1.336 6.241-.509 6.241-.509s3.75 9.417 5.228 9.417c1.478 0 .766-7.985.766-7.985s-1.833-.478-1.833-1.21C10.407.51 12.24 0 12.24 0h5.393c.646 0 .903 1.05.903 1.75v8.558h1.478s1.316-2.115 2.354-4.263c1.038-2.149 2.3-5.027 2.3-5.027h6.267s1.15.032 1.013.986c-.186 1.299-4.356 7.466-5.228 9.576-.657 1.59 2.76 3.744 4.215 6.045.945 1.493 1.013 3.245 1.013 3.245h-7.445l-3.723-4.327s-.766-.318-1.368.127c-.603.446-.63 1.337-.63 1.337v2.863h-5.83s-4.461-1.527-8.239-8.208C.936 5.982.224 2.863.005 1.527z"/></symbol><symbol id="icon-whatsapp" viewBox="0 0 32 32"><path d="M16.172 0C7.579 0 .614 6.965.614 15.558c0 2.939.815 5.688 2.232 8.033L.038 31.938l8.614-2.758a15.49 15.49 0 0 0 7.52 1.935c8.592 0 15.557-6.965 15.557-15.557C31.73 6.965 24.764 0 16.172 0zm0 28.637c-2.657 0-5.131-.797-7.197-2.163l-5.026 1.61 1.633-4.858a13.009 13.009 0 0 1-2.49-7.668c0-7.213 5.867-13.08 13.08-13.08 7.212 0 13.08 5.867 13.08 13.08 0 7.212-5.868 13.08-13.08 13.08zm-3.65-19.514c-.251-.608-.444-.628-.834-.647a8.936 8.936 0 0 0-.436-.012c-.502 0-1.022.147-1.335.468-.382.39-1.335 1.304-1.335 3.18 0 1.877 1.367 3.69 1.557 3.944.19.255 2.665 4.161 6.515 5.757 3.005 1.244 3.897 1.133 4.583.983.997-.217 2.25-.952 2.568-1.842.317-.89.317-1.654.222-1.813-.095-.159-.35-.254-.73-.445-.382-.19-2.258-1.113-2.607-1.24-.35-.128-.673-.089-.942.283-.37.514-.728 1.041-1.023 1.354-.232.246-.606.28-.927.144-.422-.18-1.61-.594-3.067-1.893-1.133-1.01-1.899-2.259-2.121-2.64-.223-.382-.02-.61.152-.817.195-.237.376-.407.566-.63.19-.222.297-.341.425-.596.127-.254.041-.517-.054-.708-.096-.19-.86-2.066-1.176-2.83z"/></symbol><symbol id="icon-youtube" viewBox="0 0 24 24"><path d="M10 16.5v-9l6 4.5m4-7.6c-.6-.2-4.3-.4-8-.4s-7.4.19-8 .38C2.44 4.9 2 8.4 2 12c0 3.59.44 7.1 2 7.61.6.2 4.3.39 8 .39s7.4-.19 8-.39c1.56-.51 2-4.02 2-7.61 0-3.6-.44-7.09-2-7.6z"/></symbol></svg>