<svg xmlns="http://www.w3.org/2000/svg"><symbol id="icon-add-cal" viewBox="0 0 18 20"><path d="M16 18V6H2v12h14zM13 0h2v2h1a2 2 0 0 1 2 2v14a2 2 0 0 1-2 2H2a2 2 0 0 1-2-2V4c0-1.11.89-2 2-2h1V0h2v2h8V0zM8 8h2v3h3v2h-3v3H8v-3H5v-2h3V8z"/></symbol><symbol id="pic-logo-small" viewBox="0 0 213.21333 188.94667"><path d="M170.62 67.653a1.418 1.418 0 0 1-1.79-2.2c7.174-5.85 13.894-7.914 20.233-6.783 6.285 1.12 12.089 5.389 17.488 12.21a1.416 1.416 0 0 1-.234 1.987 1.417 1.417 0 0 1-1.986-.233c-4.963-6.273-10.198-10.18-15.756-11.168-5.515-.983-11.476.9-17.955 6.187zm-5.572 21.354a1.42 1.42 0 0 1-1.91.612 1.42 1.42 0 0 1-.613-1.91c4.303-8.304 9.363-13.302 15.108-15.271 5.8-1.989 12.188-.877 19.106 3.042a1.42 1.42 0 0 1 .533 1.932 1.42 1.42 0 0 1-1.932.534c-6.184-3.503-11.8-4.53-16.784-2.82-5.043 1.729-9.564 6.269-13.508 13.88zm-63.692 66.285c.834.023 2.058.128 2.608 1.081.55.955.424 2.739.424 4.193 0 1.638-.136 3.595-.807 4.563-.524.751-1.493.714-2.225.714-.652 0-1.666.166-2.147-.439-.75-.95-.818-3.043-.883-4.838-.062-1.777.065-3.564.834-4.52.504-.622 1.473-.774 2.196-.754zm21.773-30.997l3.884-6.079c-.167 2.795.964 5.751 3.398 8.873-3.067-.008-5.678-.679-7.282-2.794zm7.452-7.245a.77.77 0 0 1 .716-.815c.42-.026.789.294.815.714.067 1 .32 2 .86 2.99.556 1.012 1.423 2.039 2.715 3.077.328.263.38.747.117 1.075a.768.768 0 0 1-1.076.118c-1.457-1.17-2.45-2.354-3.097-3.537a8.641 8.641 0 0 1-1.05-3.622zm4.792-1.37a.767.767 0 0 1 1.295-.822c.733 1.155 1.619 2.155 2.744 2.905l.01.01c1.117.741 2.486 1.241 4.19 1.415a.766.766 0 0 1-.15 1.523c-1.951-.198-3.529-.775-4.834-1.63l-.067-.04c-1.314-.877-2.345-2.036-3.188-3.361zm-4.838-7.124c1.152 1.608 2.814 2.968 6.297 3.46.283-1.268-.037-2.283-.961-3.04l-5.336-.42zm-13.932 28.74a.77.77 0 0 1-.751-.78.768.768 0 0 1 .78-.752l4.469.101a.766.766 0 1 1-.03 1.531l-4.468-.1zm30.404-20.14l1.016 1.222-1.178.98-1.016-1.222 1.178-.98zm-4.131 6.87l1.016 1.222-1.176.979-1.016-1.222 1.176-.979zm-3.47 5.184l1.014 1.221-1.176.98-1.015-1.22 1.176-.981zm-5.114.184l1.015 1.22-1.175.98-1.016-1.221 1.176-.98zm-12.698-35.335c4.697 9.1 9.251 9.013 12.295 1.259-3.864 2.952-7.962 2.534-12.295-1.26zm3.776-12.13a1.776 1.776 0 0 1-.549-2.45 1.778 1.778 0 0 1 2.45-.548c2.726 1.73 5.302 3.77 7.63 6.296 1.999 2.173 3.811 4.704 5.364 7.696l2.92-1.169.027-.011a31.823 31.823 0 0 0-1.804-2.562v-.006c-1.72-2.193-3.659-3.966-5.88-5.14a1.774 1.774 0 1 1 1.652-3.14c2.685 1.423 4.997 3.518 7.017 6.097l.003-.002c1.959 2.496 3.657 5.46 5.184 8.704-.073 1.637-.967 2.356-2.687 2.16l-3.136-2.43-3.502 1.402-1.56.623-.71-1.52c-1.546-3.318-3.413-6.032-5.498-8.3-2.093-2.271-4.433-4.12-6.921-5.7zM68.88 70.714c-1.587-.001-2.887-.417-3.906-1.208-2.911-2.264-3.21-7.352-1.378-14.722l.1-.396.275-.325c3.598-4.228 6.76-8.588 9.305-13.13 2.472-4.411 4.352-8.974 5.45-13.723-.161-5.848-1.66-10.57-4.28-14.324-2.582-3.708-6.293-6.522-10.917-8.6-3.368-1.082-6.698-1.362-9.962.118l-19.5 14.563c1.177 2.52 3.127 3.103 6.164.95l3.216-4.027c5.035-6.904 8.285-4.839 11.258-1.61 2.295 3.155 4.82 4.751 7.44 5.638 5.513 2.298 6.81 7.277 5.227 14.092-3.44 5.196-5.314 4.793-5.63-1.21.06-5.769-2.19-6.726-4.91-5.784-2.312.804-4.566.739-6.549-1.461-2.684-1.573-5.363-2.072-8.042-.203-4.956 1.6-9.918 1.532-14.878-.201.929 6.179-12.276 8.981 4.2 10.8l13.494-3.936c13.674-1.332 15.853 5.328 8.131 12.527l-2.683.622-3.943 7.771c-10.793 4.55-14.515 14.841-13.407 29.063-.804 9.526 3.864 12.77 13.996 9.74 3.326 3.616 3.977 8.577 2.8 14.457l3.83.59c-4.656 4.049-4.692 7.593 5.451 10.032-.128 4.827 1.833 6.596 5.895 5.31.616 6.116 2.041 6.753 4.272 1.92l12.818-.443C68.46 112.769 64.614 99.908 65.274 86.132c1.587-3.065 3.268-4.012 5.158-.297-1.784 7.643-.711 14.822 4.88 19.784-1.14 6.074.452 5.75 3.37 2.494 4.327 7.906 7.025 7.77 8.987 3.984l1.474-9c3.593 4.88 7.68 9.32 12.671 12.984l4.869.12.018-.992-15.4-13.37-.761-5.668c-11.925-.917-15.89-3.998-15.4-8.293 4.913 4.114 10.567 3.534 16.838-.93l5.077.253c-2.24 4.477.826 7.224 8.292 8.545l.413.668c3.846-1.843 6.043-3.53 6.582-5.053.401-1.136-.483-2.412-2.662-3.825-2.834-.78-5.666-1.751-8.46-3.425-2.881-1.723-5.67-4.175-8.273-7.873l.004-.003-.032-.046c-1.763-2.675-3.677-4.545-5.82-5.11-2.057-.543-4.507.114-7.493 2.403-1.851 1.853-3.91 3.106-6.169 3.759v-.003l-.008.003c-2.286.658-4.75.695-7.373.104a1.774 1.774 0 0 1-1.34-2.117 1.775 1.775 0 0 1 2.117-1.34c1.669.377 3.224.43 4.666.17-.578-1.318-1.472-2.41-2.619-3.343zm82.11 19.46l-.367.12c-1.246-3.752-3.466-6.917-6.703-9.454-3.313-2.597-7.719-4.565-13.252-5.864l-.84-.198-.367-.788c-1.207-2.605-3.64-4.444-6.957-5.717-3.55-1.364-8.108-2.088-13.284-2.404l-.538-.032-.434-.33c-3.485-2.661-7.595-3.622-12.147-3.349-4.606.278-9.687 1.813-15.058 4.136a6.712 6.712 0 0 0 1.204 1.666c2.05-.715 3.961-.785 5.755-.312 3.068.81 5.623 3.195 7.844 6.552l.002-.002c2.287 3.25 4.704 5.385 7.188 6.87 2.496 1.494 5.134 2.375 7.8 3.098.24.065.457.18.64.324 3.84 2.457 5.24 5.14 4.211 8.051-.842 2.378-3.53 4.68-8.044 6.904l2.274 3.662.592 17.262-2.203-.143.457 3.052c2.29 1.505 2.526 3.088.712 4.751-6.698 5.983-15.217 3.862-24.752-2.803-3.992 3.54.607 6.334 11.516 8.377 6.781 9.13 7.624 9.028 7.15 1.223 1.922.213 5.853.518 8.003.728 1.652-1.598 1.893-4.598 1.178-8.557 2.223 2.505 4.923 3.587 8.103 3.246-4.625-4.326-7.082-9.739-8.545-15.64l10.168 5.313c3.178-.567 1.69-3.627-1.917-7.82 7.148 2.15 10.345 1.535 4.862-5.164l-4.125-5.163c6.177 3.785 11.01 4.085 13.881-.717 1.474 6.758 5.644 4.408 9.462-.158l-.354 5.08c-2.188-.372-3.504 2.114-3.541 8.778 3.508-.542 6.147-2.192 7.515-5.458.666 1.53.42 4.302 2.505 3.834 1.973.125 2.672-2.53 2.504-7.08l10.02.442-.625-1.105c.376-.088.712-.32.913-.68 1.373-2.475 2.681-4.71 3.94-6.693 1.435 1.401 3.568 2.584 6.439 3.51 3.294 1.066 7.621 1.835 13.076 2.28a1.42 1.42 0 0 0 .221-2.831c-5.243-.427-9.357-1.153-12.432-2.149-2.75-.888-4.632-1.979-5.7-3.24 2.941-4.295 5.587-7.143 8.036-8.573 3.405-1.99 6.548-.907 9.812 3.15a1.42 1.42 0 0 0 1.992.214 1.42 1.42 0 0 0 .216-1.992c-4.299-5.339-8.599-6.665-13.455-3.826-3.736 2.182-7.717 7.047-12.277 14.69l.153-6.062a1.418 1.418 0 0 0-2.833-.068l-.224 8.957c-1.043-1.454-2.14-2.746-3.307-3.846.102-4.33.524-8.465 1.376-12.322.88-3.995 2.232-7.707 4.18-11.051a1.42 1.42 0 0 0-2.453-1.423c-2.095 3.598-3.548 7.583-4.49 11.862-.758 3.423-1.194 7.033-1.373 10.786a13.596 13.596 0 0 0-2.973-1.391l-.43-3.681.1-.832zM29.653 17.833L51.902 1.22l.458-.342C56.273-.32 60.247-.2 64.263.737l.344.151c5.383 2.355 9.72 5.615 12.757 9.973 3.039 4.359 4.756 9.786 4.907 16.483l.006.216-.048.208c-1.174 5.187-3.19 10.143-5.859 14.903-2.57 4.585-5.769 9.03-9.425 13.358-1.379 5.703-1.413 9.412.209 10.673 1.674 1.301 5.481.323 11.814-3.362l.078-.044.103-.047c5.91-2.597 11.55-4.319 16.742-4.632 5.198-.312 9.945.77 14.073 3.75 5.28.353 9.995 1.138 13.805 2.603 3.855 1.478 6.802 3.654 8.515 6.75 5.667 1.42 10.257 3.54 13.816 6.329 2.335 1.829 4.227 3.947 5.675 6.33l3.516-13.865c18.933-17.38 36.857-22.191 52.334-4.213l4.66 5.971.922 3.966c-5.567 12.677-9.846 26.965-12.838 42.862-3.17.932-5.289-4.097-7.473-8.75 1.852 9.926 2.237 17.2-7.757 17.019-3.231-6.524-7.796-10.943-13.272-13.925-6.476 14.878-13.722 28.78-26.327 35.9-6.684 1.224-12.224 3.59-16.97 6.746h-11.534l-2.828 13.273 11.967.434c11.01 3.312 11.08 10.488-1.957 10.662l-17.19.435c-9.667 5.955-20.632 11.153-22.349 5.853-.435-1.345-1.646-2.74-3.815-4.143-1.473-.95-1.348-3.53-1.687-5.895-4.347-.548-8.143-.507-10.415 1.168-2.517 1.234-4.802.88-4.077-.776.92-2.096-.578-3.277-4.06-3.269-1.544.003.485-3.387 2.234-5.559 2.395-2.574 6.118-3.598 10.443-3.914l12.185-.655c6.804-8.944 7.331-15.792-1.305-19.581-6.82-1.348-12.307-4.683-17.19-8.922-13.409-4.52-19.52-15.39-26.79-27.995-5.435-3.448-10.146-11.387-11.72-20.307-1.754-17.024 4.445-30.406 14.534-39.999l-2.584.599c-11.788 7.758-21.7 7.057-30.054-.659-1.727-.833-2.652-.232-.708 5.49.487 3.122-.923 3.93-4.223 2.415L.011 46.292c-.214-9.072 2.51-15.208 7.447-19.127 5.081-4.945 11.743-7.872 19.3-9.662l2.894.33zM4.736 40.113c-6.179.831 9.962-17.333 11.18-11.905-5.192 2.68-9.117 6.476-11.18 11.905zm44.643-4.7c3.255-.964 4.184.534 2.788 4.495-5.47 1.279-6.397-.223-2.788-4.495zM194.016 92.09c-.784 0-1.423-.64-1.423-1.423 0-.784.639-1.422 1.423-1.422h1.317c.784 0 1.423.638 1.423 1.422 0 .784-.639 1.423-1.423 1.423h-1.317" fill="#231f20" fill-rule="evenodd"/></symbol><symbol id="icon-close" viewBox="0 0 14 14"><path d="M14 1.41L12.59 0 7 5.59 1.41 0 0 1.41 5.59 7 0 12.59 1.41 14 7 8.41 12.59 14 14 12.59 8.41 7 14 1.41z"/></symbol><symbol id="pic-logo" viewBox="0 0 213.21333 188.94667"><path d="M170.62 67.653a1.418 1.418 0 0 1-1.79-2.2c7.174-5.85 13.894-7.914 20.233-6.783 6.285 1.12 12.089 5.389 17.488 12.21a1.416 1.416 0 0 1-.234 1.987 1.417 1.417 0 0 1-1.986-.233c-4.963-6.273-10.198-10.18-15.756-11.168-5.515-.983-11.476.9-17.955 6.187zm-5.572 21.354a1.42 1.42 0 0 1-1.91.612 1.42 1.42 0 0 1-.613-1.91c4.303-8.304 9.363-13.302 15.108-15.271 5.8-1.989 12.188-.877 19.106 3.042a1.42 1.42 0 0 1 .533 1.932 1.42 1.42 0 0 1-1.932.534c-6.184-3.503-11.8-4.53-16.784-2.82-5.043 1.729-9.564 6.269-13.508 13.88zm-63.692 66.285c.834.023 2.058.128 2.608 1.081.55.955.424 2.739.424 4.193 0 1.638-.136 3.595-.807 4.563-.524.751-1.493.714-2.225.714-.652 0-1.666.166-2.147-.439-.75-.95-.818-3.043-.883-4.838-.062-1.777.065-3.564.834-4.52.504-.622 1.473-.774 2.196-.754zm21.773-30.997l3.884-6.079c-.167 2.795.964 5.751 3.398 8.873-3.067-.008-5.678-.679-7.282-2.794zm7.452-7.245a.77.77 0 0 1 .716-.815c.42-.026.789.294.815.714.067 1 .32 2 .86 2.99.556 1.012 1.423 2.039 2.715 3.077.328.263.38.747.117 1.075a.768.768 0 0 1-1.076.118c-1.457-1.17-2.45-2.354-3.097-3.537a8.641 8.641 0 0 1-1.05-3.622zm4.792-1.37a.767.767 0 0 1 1.295-.822c.733 1.155 1.619 2.155 2.744 2.905l.01.01c1.117.741 2.486 1.241 4.19 1.415a.766.766 0 0 1-.15 1.523c-1.951-.198-3.529-.775-4.834-1.63l-.067-.04c-1.314-.877-2.345-2.036-3.188-3.361zm-4.838-7.124c1.152 1.608 2.814 2.968 6.297 3.46.283-1.268-.037-2.283-.961-3.04l-5.336-.42zm-13.932 28.74a.77.77 0 0 1-.751-.78.768.768 0 0 1 .78-.752l4.469.101a.766.766 0 1 1-.03 1.531l-4.468-.1zm30.404-20.14l1.016 1.222-1.178.98-1.016-1.222 1.178-.98zm-4.131 6.87l1.016 1.222-1.176.979-1.016-1.222 1.176-.979zm-3.47 5.184l1.014 1.221-1.176.98-1.015-1.22 1.176-.981zm-5.114.184l1.015 1.22-1.175.98-1.016-1.221 1.176-.98zm-12.698-35.335c4.697 9.1 9.251 9.013 12.295 1.259-3.864 2.952-7.962 2.534-12.295-1.26zm3.776-12.13a1.776 1.776 0 0 1-.549-2.45 1.778 1.778 0 0 1 2.45-.548c2.726 1.73 5.302 3.77 7.63 6.296 1.999 2.173 3.811 4.704 5.364 7.696l2.92-1.169.027-.011a31.823 31.823 0 0 0-1.804-2.562v-.006c-1.72-2.193-3.659-3.966-5.88-5.14a1.774 1.774 0 1 1 1.652-3.14c2.685 1.423 4.997 3.518 7.017 6.097l.003-.002c1.959 2.496 3.657 5.46 5.184 8.704-.073 1.637-.967 2.356-2.687 2.16l-3.136-2.43-3.502 1.402-1.56.623-.71-1.52c-1.546-3.318-3.413-6.032-5.498-8.3-2.093-2.271-4.433-4.12-6.921-5.7zM68.88 70.714c-1.587-.001-2.887-.417-3.906-1.208-2.911-2.264-3.21-7.352-1.378-14.722l.1-.396.275-.325c3.598-4.228 6.76-8.588 9.305-13.13 2.472-4.411 4.352-8.974 5.45-13.723-.161-5.848-1.66-10.57-4.28-14.324-2.582-3.708-6.293-6.522-10.917-8.6-3.368-1.082-6.698-1.362-9.962.118l-19.5 14.563c1.177 2.52 3.127 3.103 6.164.95l3.216-4.027c5.035-6.904 8.285-4.839 11.258-1.61 2.295 3.155 4.82 4.751 7.44 5.638 5.513 2.298 6.81 7.277 5.227 14.092-3.44 5.196-5.314 4.793-5.63-1.21.06-5.769-2.19-6.726-4.91-5.784-2.312.804-4.566.739-6.549-1.461-2.684-1.573-5.363-2.072-8.042-.203-4.956 1.6-9.918 1.532-14.878-.201.929 6.179-12.276 8.981 4.2 10.8l13.494-3.936c13.674-1.332 15.853 5.328 8.131 12.527l-2.683.622-3.943 7.771c-10.793 4.55-14.515 14.841-13.407 29.063-.804 9.526 3.864 12.77 13.996 9.74 3.326 3.616 3.977 8.577 2.8 14.457l3.83.59c-4.656 4.049-4.692 7.593 5.451 10.032-.128 4.827 1.833 6.596 5.895 5.31.616 6.116 2.041 6.753 4.272 1.92l12.818-.443C68.46 112.769 64.614 99.908 65.274 86.132c1.587-3.065 3.268-4.012 5.158-.297-1.784 7.643-.711 14.822 4.88 19.784-1.14 6.074.452 5.75 3.37 2.494 4.327 7.906 7.025 7.77 8.987 3.984l1.474-9c3.593 4.88 7.68 9.32 12.671 12.984l4.869.12.018-.992-15.4-13.37-.761-5.668c-11.925-.917-15.89-3.998-15.4-8.293 4.913 4.114 10.567 3.534 16.838-.93l5.077.253c-2.24 4.477.826 7.224 8.292 8.545l.413.668c3.846-1.843 6.043-3.53 6.582-5.053.401-1.136-.483-2.412-2.662-3.825-2.834-.78-5.666-1.751-8.46-3.425-2.881-1.723-5.67-4.175-8.273-7.873l.004-.003-.032-.046c-1.763-2.675-3.677-4.545-5.82-5.11-2.057-.543-4.507.114-7.493 2.403-1.851 1.853-3.91 3.106-6.169 3.759v-.003l-.008.003c-2.286.658-4.75.695-7.373.104a1.774 1.774 0 0 1-1.34-2.117 1.775 1.775 0 0 1 2.117-1.34c1.669.377 3.224.43 4.666.17-.578-1.318-1.472-2.41-2.619-3.343zm82.11 19.46l-.367.12c-1.246-3.752-3.466-6.917-6.703-9.454-3.313-2.597-7.719-4.565-13.252-5.864l-.84-.198-.367-.788c-1.207-2.605-3.64-4.444-6.957-5.717-3.55-1.364-8.108-2.088-13.284-2.404l-.538-.032-.434-.33c-3.485-2.661-7.595-3.622-12.147-3.349-4.606.278-9.687 1.813-15.058 4.136a6.712 6.712 0 0 0 1.204 1.666c2.05-.715 3.961-.785 5.755-.312 3.068.81 5.623 3.195 7.844 6.552l.002-.002c2.287 3.25 4.704 5.385 7.188 6.87 2.496 1.494 5.134 2.375 7.8 3.098.24.065.457.18.64.324 3.84 2.457 5.24 5.14 4.211 8.051-.842 2.378-3.53 4.68-8.044 6.904l2.274 3.662.592 17.262-2.203-.143.457 3.052c2.29 1.505 2.526 3.088.712 4.751-6.698 5.983-15.217 3.862-24.752-2.803-3.992 3.54.607 6.334 11.516 8.377 6.781 9.13 7.624 9.028 7.15 1.223 1.922.213 5.853.518 8.003.728 1.652-1.598 1.893-4.598 1.178-8.557 2.223 2.505 4.923 3.587 8.103 3.246-4.625-4.326-7.082-9.739-8.545-15.64l10.168 5.313c3.178-.567 1.69-3.627-1.917-7.82 7.148 2.15 10.345 1.535 4.862-5.164l-4.125-5.163c6.177 3.785 11.01 4.085 13.881-.717 1.474 6.758 5.644 4.408 9.462-.158l-.354 5.08c-2.188-.372-3.504 2.114-3.541 8.778 3.508-.542 6.147-2.192 7.515-5.458.666 1.53.42 4.302 2.505 3.834 1.973.125 2.672-2.53 2.504-7.08l10.02.442-.625-1.105c.376-.088.712-.32.913-.68 1.373-2.475 2.681-4.71 3.94-6.693 1.435 1.401 3.568 2.584 6.439 3.51 3.294 1.066 7.621 1.835 13.076 2.28a1.42 1.42 0 0 0 .221-2.831c-5.243-.427-9.357-1.153-12.432-2.149-2.75-.888-4.632-1.979-5.7-3.24 2.941-4.295 5.587-7.143 8.036-8.573 3.405-1.99 6.548-.907 9.812 3.15a1.42 1.42 0 0 0 1.992.214 1.42 1.42 0 0 0 .216-1.992c-4.299-5.339-8.599-6.665-13.455-3.826-3.736 2.182-7.717 7.047-12.277 14.69l.153-6.062a1.418 1.418 0 0 0-2.833-.068l-.224 8.957c-1.043-1.454-2.14-2.746-3.307-3.846.102-4.33.524-8.465 1.376-12.322.88-3.995 2.232-7.707 4.18-11.051a1.42 1.42 0 0 0-2.453-1.423c-2.095 3.598-3.548 7.583-4.49 11.862-.758 3.423-1.194 7.033-1.373 10.786a13.596 13.596 0 0 0-2.973-1.391l-.43-3.681.1-.832zM29.653 17.833L51.902 1.22l.458-.342C56.273-.32 60.247-.2 64.263.737l.344.151c5.383 2.355 9.72 5.615 12.757 9.973 3.039 4.359 4.756 9.786 4.907 16.483l.006.216-.048.208c-1.174 5.187-3.19 10.143-5.859 14.903-2.57 4.585-5.769 9.03-9.425 13.358-1.379 5.703-1.413 9.412.209 10.673 1.674 1.301 5.481.323 11.814-3.362l.078-.044.103-.047c5.91-2.597 11.55-4.319 16.742-4.632 5.198-.312 9.945.77 14.073 3.75 5.28.353 9.995 1.138 13.805 2.603 3.855 1.478 6.802 3.654 8.515 6.75 5.667 1.42 10.257 3.54 13.816 6.329 2.335 1.829 4.227 3.947 5.675 6.33l3.516-13.865c18.933-17.38 36.857-22.191 52.334-4.213l4.66 5.971.922 3.966c-5.567 12.677-9.846 26.965-12.838 42.862-3.17.932-5.289-4.097-7.473-8.75 1.852 9.926 2.237 17.2-7.757 17.019-3.231-6.524-7.796-10.943-13.272-13.925-6.476 14.878-13.722 28.78-26.327 35.9-6.684 1.224-12.224 3.59-16.97 6.746h-11.534l-2.828 13.273 11.967.434c11.01 3.312 11.08 10.488-1.957 10.662l-17.19.435c-9.667 5.955-20.632 11.153-22.349 5.853-.435-1.345-1.646-2.74-3.815-4.143-1.473-.95-1.348-3.53-1.687-5.895-4.347-.548-8.143-.507-10.415 1.168-2.517 1.234-4.802.88-4.077-.776.92-2.096-.578-3.277-4.06-3.269-1.544.003.485-3.387 2.234-5.559 2.395-2.574 6.118-3.598 10.443-3.914l12.185-.655c6.804-8.944 7.331-15.792-1.305-19.581-6.82-1.348-12.307-4.683-17.19-8.922-13.409-4.52-19.52-15.39-26.79-27.995-5.435-3.448-10.146-11.387-11.72-20.307-1.754-17.024 4.445-30.406 14.534-39.999l-2.584.599c-11.788 7.758-21.7 7.057-30.054-.659-1.727-.833-2.652-.232-.708 5.49.487 3.122-.923 3.93-4.223 2.415L.011 46.292c-.214-9.072 2.51-15.208 7.447-19.127 5.081-4.945 11.743-7.872 19.3-9.662l2.894.33zM4.736 40.113c-6.179.831 9.962-17.333 11.18-11.905-5.192 2.68-9.117 6.476-11.18 11.905zm44.643-4.7c3.255-.964 4.184.534 2.788 4.495-5.47 1.279-6.397-.223-2.788-4.495zM194.016 92.09c-.784 0-1.423-.64-1.423-1.423 0-.784.639-1.422 1.423-1.422h1.317c.784 0 1.423.638 1.423 1.422 0 .784-.639 1.423-1.423 1.423h-1.317" fill="#231f20" fill-rule="evenodd"/></symbol><symbol id="icon-down" viewBox="0 0 12 8"><path d="M1.41.58L6 5.17 10.59.58 12 2 6 8 0 2 1.41.58z"/></symbol><symbol id="pic-te-st" viewBox="0 0 99 40"><g fill="#000" fill-rule="evenodd"><path d="M10.895 20.245a2 2 0 0 1-1.4-2.394l-1.394-.805c-.359.343-.845.554-1.381.554a1.994 1.994 0 0 1-1.42-.592l-1.369.79A2.003 2.003 0 0 1 2 20.32a2 2 0 1 1 1.347-3.479l1.418-.818a2 2 0 0 1 3.33-1.875l2.785-1.607V9.28a1.998 1.998 0 0 1-.828-.481l-1.392.87a2 2 0 1 1-3.885.027l-1.451-.838a1.996 1.996 0 0 1-.764.422v1.678a2 2 0 1 1-1.12 0V9.281A2 2 0 1 1 3.428 5.96l1.333-.833a2 2 0 1 1 .528.99l-1.331.833a2.009 2.009 0 0 1-.035.962l1.406.811c.36-.348.85-.563 1.391-.563.53 0 1.013.207 1.371.544l1.404-.877a2.005 2.005 0 0 1 1.465-2.409V3.942A2 2 0 1 1 12 3.921v1.518a2 2 0 0 1 0 3.842v3.306l2.653 1.532c.256-.26.582-.451.947-.541v-1.476a2 2 0 1 1 1.85-3.399l1.389-.868a2.01 2.01 0 0 1 .022-.888l-1.434-.828a2 2 0 1 1 .584-.956l1.42.82a2 2 0 1 1 1.93 3.378l-.001 1.518a2 2 0 1 1-1.04-.021V9.382a1.998 1.998 0 0 1-.959-.553l-1.342.84a2.004 2.004 0 0 1-1.379 2.412v1.518a2 2 0 0 1 1.366 2.462l1.41.815a2 2 0 1 1-.56.97l-1.444-.834a2 2 0 0 1-3.29-1.906l-2.722-1.572-2.74 1.581a2.004 2.004 0 0 1 .003.962l1.39.802a2 2 0 1 1 1.896 3.375v2.62l2.279-1.317a2.003 2.003 0 0 1 1.932-2.517 2 2 0 1 1-1.4 3.428l-2.811 1.624v4.783h10.34a.352.352 0 0 1 0 .703H11.985c.182 1.334 1.447 1.512 3.42 1.674 1.924.157 4.103.336 4.69 2.502a.264.264 0 0 1-.255.334.263.263 0 0 1-.254-.196c-.442-1.632-2.03-1.917-3.685-2.068.045.05.087.101.126.155.316.427.81.626 1.334.836.656.264 1.334.537 1.641 1.286a.264.264 0 1 1-.487.2c-.223-.543-.745-.753-1.35-.996a7.767 7.767 0 0 1-.682-.301c.065.246.117.496.166.74.088.44.171.858.331 1.208a.264.264 0 0 1-.48.22c-.185-.406-.278-.873-.368-1.324-.216-1.08-.403-2.012-1.693-2.154l-.01-.002c-.915-.103-1.768-.285-2.327-.776.262.613.652 1.061 1.035 1.499.158.181.318.364.467.558l.009.007c.157.204.34.377.535.562.26.245.532.504.754.852.005.007.01.012.014.02.293.466 1.156 1.418 1.703 1.727a.264.264 0 0 1-.258.46c-.308-.174-.677-.497-1.015-.844.032.325.032.694-.014 1.127a.263.263 0 0 1-.262.236l-.028-.001a.264.264 0 0 1-.234-.29c.128-1.21-.109-1.851-.471-2.324.16.822.056 1.91-.553 3.493a.264.264 0 1 1-.492-.19c1.18-3.065.378-3.983-.551-5.045-.368-.422-.761-.873-1.05-1.477.083 1.033.216 1.881.332 2.616.35 2.212.56 3.548-1.174 5.988a.262.262 0 0 1-.367.062.264.264 0 0 1-.062-.368c1.274-1.793 1.422-2.909 1.26-4.363-.107.186-.233.341-.357.494-.329.407-.64.793-.575 1.874a.264.264 0 0 1-.247.28h-.016a.264.264 0 0 1-.263-.248c-.078-1.286.331-1.791.692-2.238.36-.445.67-.829.483-2.083a28.944 28.944 0 0 1-.222-1.844c-.283.577-.751 1.206-1.528 1.862-.928.782-.676 1.636-.385 2.623.19.647.388 1.316.265 2.011a.263.263 0 1 1-.519-.091c.1-.574-.078-1.182-.251-1.77a9.547 9.547 0 0 1-.216-.822l-.067.31c-.195.912-.396 1.856-1.619 2.658a.264.264 0 0 1-.288-.441c1.04-.683 1.203-1.444 1.391-2.327.082-.383.17-.79.343-1.202l-.223.132c-.772.458-1.198.709-1.369 1.68a.263.263 0 1 1-.519-.09c.213-1.212.803-1.56 1.62-2.044.43-.255.92-.543 1.496-1.03.911-.769 1.354-1.481 1.57-2.108-.07.086-.144.169-.226.246-.784.735-2.06 1.051-3.796.945-.77.142-.857.562-.975 1.488-.107.842-.24 1.89-1.16 2.98a.261.261 0 0 1-.371.031.264.264 0 0 1-.032-.371c.82-.972.942-1.934 1.04-2.706.069-.537.136-1.055.44-1.43a5.778 5.778 0 0 0-.783.103c-.674.28-.703.634-.754 1.273-.035.428-.078.96-.364 1.55a.263.263 0 0 1-.352.121.264.264 0 0 1-.122-.353c.243-.5.28-.956.312-1.36.023-.282.046-.558.135-.813-1.014.587-1.173 1.451-1.183 1.509a.264.264 0 0 1-.52-.087c.13-.775.845-1.924 2.656-2.331l.007-.004a.26.26 0 0 1 .095-.02 7.292 7.292 0 0 1 1.929-.109c1.58.104 2.768-.173 3.437-.8.372-.35.529-.748.586-1.09H.555a.351.351 0 0 1 0-.704h10.34v-4.783l-2.82-1.629c-.22.216-.492.38-.794.472a2 2 0 1 1 1.144-2.8 1.936 1.936 0 0 1 .177 1.413l2.292 1.326v-2.63zm6.213 1.392a1.12 1.12 0 0 0-1.938-1.12l.03.018a1.062 1.062 0 0 0 .002 1.07 1.07 1.07 0 0 0 1.85 0l.056.032zm-10.122.469a1.12 1.12 0 1 0-1.281-.45l.086-.05a1.068 1.068 0 0 0 1.195.5zm5.405-3.194a1.12 1.12 0 1 0-1.912-.016l.016-.01a1.07 1.07 0 0 0 1.852 0l.044.026zM2 8.48a1.12 1.12 0 1 0 0-2.24 1.12 1.12 0 0 0 0 2.24zM2 14a1.12 1.12 0 1 0 0-2.24A1.12 1.12 0 0 0 2 14zm4.72-8.16a1.12 1.12 0 1 0 0-2.24 1.12 1.12 0 0 0 0 2.24zm4.72-2.72a1.12 1.12 0 1 0 0-2.24 1.12 1.12 0 0 0 0 2.24zm0 5.36a1.12 1.12 0 1 0 0-2.24 1.12 1.12 0 0 0 0 2.24zm-4.72 2.8a1.12 1.12 0 1 0 0-2.24 1.12 1.12 0 0 0 0 2.24zm9.36-5.52a1.12 1.12 0 1 0 0-2.24 1.12 1.12 0 0 0 0 2.24zm4.72 2.8a1.12 1.12 0 1 0 0-2.24 1.12 1.12 0 0 0 0 2.24zm0 5.36a1.12 1.12 0 1 0 0-2.24 1.12 1.12 0 0 0 0 2.24zm-4.72-2.64a1.12 1.12 0 1 0 0-2.24 1.12 1.12 0 0 0 0 2.24zm0 5.36a1.12 1.12 0 1 0 0-2.24 1.12 1.12 0 0 0 0 2.24zm4.72 2.8a1.12 1.12 0 1 0 0-2.24 1.12 1.12 0 0 0 0 2.24zM6.72 16.72a1.12 1.12 0 1 0 0-2.24 1.12 1.12 0 0 0 0 2.24zM2 19.44a1.12 1.12 0 1 0 0-2.24 1.12 1.12 0 0 0 0 2.24zM36.18 4.56v-.68H31.3v.68h2.06V11h.76V4.56h2.06zM41.93 11v-.68h-3.66V7.75h3.12v-.68h-3.12V4.56h3.66v-.68h-4.42V11h4.42zm6.47 0V3.88h-4.89V11h.76V4.56h3.37V11h.76zm6.78 0V3.88h-3.92v2.89c0 2.96-.63 3.55-1.51 3.55h-.19V11h.36C51.28 11 52 10 52 7V4.56h2.42V11h.76zm7.16 0V3.88h-.72L58 9.68v-5.8h-.76V11h.72l3.62-5.81V11h.76zm7.8 1.72v-2.4h-.85V3.88h-.76v6.44h-3.37V3.88h-.76V11h4.99v1.72h.75zm6.4-1.72l-2.61-7.12h-.64L70.67 11h.81l.57-1.61h3.11l.57 1.61h.81zm-1.6-2.27h-2.66l1.34-3.76 1.32 3.76zM36.72 20.04h-.76c-.19.87-.82 1.44-1.71 1.44-.47 0-.92-.18-1.23-.5-.45-.46-.5-.95-.5-2.44s.05-1.98.5-2.44c.31-.32.76-.5 1.23-.5.89 0 1.5.57 1.69 1.44h.78c-.24-1.34-1.19-2.12-2.47-2.12-.7 0-1.34.26-1.82.74-.67.67-.67 1.37-.67 2.88 0 1.51 0 2.21.67 2.88.48.48 1.12.74 1.82.74 1.27 0 2.24-.78 2.47-2.12zm6.19-1.99c0-.87-.05-1.77-.67-2.39-.48-.48-1.12-.74-1.82-.74s-1.34.26-1.82.74c-.61.61-.67 1.48-.67 2.33v.55c0 1.42.02 2.23.67 2.88.48.48 1.11.74 1.82.74s1.34-.26 1.82-.74c.65-.65.67-1.46.67-2.88v-.49zm-.76.84c0 .82-.01 1.59-.5 2.08-.33.33-.76.51-1.23.51s-.9-.18-1.23-.51c-.46-.46-.5-1.16-.5-1.93v-.71c0-.98 0-1.72.5-2.22.33-.33.77-.51 1.23-.51.46 0 .9.18 1.23.51.47.47.5 1.21.5 2.05v.73zm8.29 4.93v-2.4h-.85v-6.44h-.76v6.44h-3.37v-6.44h-.76v7.12h4.99v1.72h.75zm6.54-1.72v-7.12h-.72l-3.62 5.8v-5.8h-.76v7.12h.72l3.62-5.81v5.81h.76zm7.02 0l-2.61-7.12h-.64l-2.62 7.12h.81l.57-1.61h3.11l.57 1.61H64zm-1.6-2.27h-2.66l1.34-3.76 1.32 3.76zm7.46 2.27v-7.12h-3.92v2.89c0 2.96-.63 3.55-1.51 3.55h-.19v.68h.36c1.36 0 2.08-1 2.08-4v-2.44h2.42v6.44h.76zm6.93-2.09c0-1.26-.87-2.1-2.2-2.1h-1.91v-2.93h-.76v7.12h2.67c1.32 0 2.2-.84 2.2-2.09zm-.77 0c0 .89-.55 1.41-1.5 1.41h-1.84v-2.83h1.84c.95 0 1.5.52 1.5 1.42zm7.1 2.09v-7.12h-.76v3.19h-3.38v-3.19h-.76v7.12h.76v-3.25h3.38v3.25h.76zm8.64 0v-7.12H91v7.12h.76zm-1.71-2.09c0-1.26-.87-2.1-2.2-2.1h-1.91v-2.93h-.76v7.12h2.67c1.32 0 2.2-.84 2.2-2.09zm-.77 0c0 .89-.55 1.41-1.5 1.41h-1.84v-2.83h1.84c.95 0 1.5.52 1.5 1.42zm8.87 2.09l-2.2-3.65L98 14.98h-.88l-1.58 2.81-1.58-2.81h-.88l2.04 3.47-2.18 3.65h.86l1.74-2.99 1.73 2.99h.88zM36.18 27.56v-.68H31.3v.68h2.06V34h.76v-6.44h2.06zM41.93 34v-.68h-3.66v-2.57h3.12v-.68h-3.12v-2.51h3.66v-.68h-4.42V34h4.42zm5.91 0l-2.2-3.65 2.05-3.47h-.88l-1.58 2.81-1.58-2.81h-.88l2.04 3.47L42.63 34h.86l1.74-2.99L46.96 34h.88zm6.08 0v-7.12h-.76v3.19h-3.38v-3.19h-.76V34h.76v-3.25h3.38V34h.76zm6.77-4.05c0-.87-.05-1.77-.67-2.39-.48-.48-1.12-.74-1.82-.74s-1.34.26-1.82.74c-.61.61-.67 1.48-.67 2.33v.55c0 1.42.02 2.23.67 2.88.48.48 1.11.74 1.82.74s1.34-.26 1.82-.74c.65-.65.67-1.46.67-2.88v-.49zm-.76.84c0 .82-.01 1.59-.5 2.08-.33.33-.76.51-1.23.51s-.9-.18-1.23-.51c-.46-.46-.5-1.16-.5-1.93v-.71c0-.98 0-1.72.5-2.22.33-.33.77-.51 1.23-.51.46 0 .9.18 1.23.51.47.47.5 1.21.5 2.05v.73zM66.99 34v-7.12h-3.92v2.89c0 2.96-.63 3.55-1.51 3.55h-.19V34h.36c1.36 0 2.08-1 2.08-4v-2.44h2.42V34h.76zm6.77-4.05c0-.87-.05-1.77-.67-2.39-.48-.48-1.12-.74-1.82-.74s-1.34.26-1.82.74c-.61.61-.67 1.48-.67 2.33v.55c0 1.42.02 2.23.67 2.88.48.48 1.11.74 1.82.74s1.34-.26 1.82-.74c.65-.65.67-1.46.67-2.88v-.49zm-.76.84c0 .82-.01 1.59-.5 2.08-.33.33-.76.51-1.23.51s-.9-.18-1.23-.51c-.46-.46-.5-1.16-.5-1.93v-.71c0-.98 0-1.72.5-2.22.33-.33.77-.51 1.23-.51.46 0 .9.18 1.23.51.47.47.5 1.21.5 2.05v.73zm6.9-3.23v-.68h-4.28V34h.76v-6.44h3.52zM86.34 34v-7.12h-.72L82 32.68v-5.8h-.76V34h.72l3.62-5.81V34h.76zm7.16 0v-7.12h-.72l-3.62 5.8v-5.8h-.76V34h.72l3.62-5.81V34h.76zm-1.09-8.83h-.64c-.04.49-.33.74-.82.74-.49 0-.78-.25-.82-.74h-.64c.06.89.63 1.26 1.46 1.26s1.4-.37 1.46-1.26z"/></g></symbol><symbol id="icon-facebook" viewBox="0 0 15 32"><path d="M14.66 10.216H9.667V6.94c0-1.23.815-1.516 1.39-1.516h3.523V.019L9.727 0C4.341 0 3.115 4.032 3.115 6.612v3.604H0v5.57h3.115V31.55h6.552V15.786h4.421l.572-5.57z"/></symbol><symbol id="icon-instagram" viewBox="0 0 20 20"><path d="M5.8 0h8.4C17.4 0 20 2.6 20 5.8v8.4a5.8 5.8 0 0 1-5.8 5.8H5.8C2.6 20 0 17.4 0 14.2V5.8A5.8 5.8 0 0 1 5.8 0zm-.2 2A3.6 3.6 0 0 0 2 5.6v8.8C2 16.39 3.61 18 5.6 18h8.8a3.6 3.6 0 0 0 3.6-3.6V5.6C18 3.61 16.39 2 14.4 2H5.6zm9.65 1.5a1.25 1.25 0 1 1 0 2.5 1.25 1.25 0 0 1 0-2.5zM10 5a5 5 0 1 1 0 10 5 5 0 0 1 0-10zm0 2a3 3 0 1 0 0 6 3 3 0 0 0 0-6z"/></symbol><symbol id="icon-logo" viewBox="0 0 213.21333 188.94667"><path d="M170.62 67.653a1.418 1.418 0 0 1-1.79-2.2c7.174-5.85 13.894-7.914 20.233-6.783 6.285 1.12 12.089 5.389 17.488 12.21a1.416 1.416 0 0 1-.234 1.987 1.417 1.417 0 0 1-1.986-.233c-4.963-6.273-10.198-10.18-15.756-11.168-5.515-.983-11.476.9-17.955 6.187zm-5.572 21.354a1.42 1.42 0 0 1-1.91.612 1.42 1.42 0 0 1-.613-1.91c4.303-8.304 9.363-13.302 15.108-15.271 5.8-1.989 12.188-.877 19.106 3.042a1.42 1.42 0 0 1 .533 1.932 1.42 1.42 0 0 1-1.932.534c-6.184-3.503-11.8-4.53-16.784-2.82-5.043 1.729-9.564 6.269-13.508 13.88zm-63.692 66.285c.834.023 2.058.128 2.608 1.081.55.955.424 2.739.424 4.193 0 1.638-.136 3.595-.807 4.563-.524.751-1.493.714-2.225.714-.652 0-1.666.166-2.147-.439-.75-.95-.818-3.043-.883-4.838-.062-1.777.065-3.564.834-4.52.504-.622 1.473-.774 2.196-.754zm21.773-30.997l3.884-6.079c-.167 2.795.964 5.751 3.398 8.873-3.067-.008-5.678-.679-7.282-2.794zm7.452-7.245a.77.77 0 0 1 .716-.815c.42-.026.789.294.815.714.067 1 .32 2 .86 2.99.556 1.012 1.423 2.039 2.715 3.077.328.263.38.747.117 1.075a.768.768 0 0 1-1.076.118c-1.457-1.17-2.45-2.354-3.097-3.537a8.641 8.641 0 0 1-1.05-3.622zm4.792-1.37a.767.767 0 0 1 1.295-.822c.733 1.155 1.619 2.155 2.744 2.905l.01.01c1.117.741 2.486 1.241 4.19 1.415a.766.766 0 0 1-.15 1.523c-1.951-.198-3.529-.775-4.834-1.63l-.067-.04c-1.314-.877-2.345-2.036-3.188-3.361zm-4.838-7.124c1.152 1.608 2.814 2.968 6.297 3.46.283-1.268-.037-2.283-.961-3.04l-5.336-.42zm-13.932 28.74a.77.77 0 0 1-.751-.78.768.768 0 0 1 .78-.752l4.469.101a.766.766 0 1 1-.03 1.531l-4.468-.1zm30.404-20.14l1.016 1.222-1.178.98-1.016-1.222 1.178-.98zm-4.131 6.87l1.016 1.222-1.176.979-1.016-1.222 1.176-.979zm-3.47 5.184l1.014 1.221-1.176.98-1.015-1.22 1.176-.981zm-5.114.184l1.015 1.22-1.175.98-1.016-1.221 1.176-.98zm-12.698-35.335c4.697 9.1 9.251 9.013 12.295 1.259-3.864 2.952-7.962 2.534-12.295-1.26zm3.776-12.13a1.776 1.776 0 0 1-.549-2.45 1.778 1.778 0 0 1 2.45-.548c2.726 1.73 5.302 3.77 7.63 6.296 1.999 2.173 3.811 4.704 5.364 7.696l2.92-1.169.027-.011a31.823 31.823 0 0 0-1.804-2.562v-.006c-1.72-2.193-3.659-3.966-5.88-5.14a1.774 1.774 0 1 1 1.652-3.14c2.685 1.423 4.997 3.518 7.017 6.097l.003-.002c1.959 2.496 3.657 5.46 5.184 8.704-.073 1.637-.967 2.356-2.687 2.16l-3.136-2.43-3.502 1.402-1.56.623-.71-1.52c-1.546-3.318-3.413-6.032-5.498-8.3-2.093-2.271-4.433-4.12-6.921-5.7zM68.88 70.714c-1.587-.001-2.887-.417-3.906-1.208-2.911-2.264-3.21-7.352-1.378-14.722l.1-.396.275-.325c3.598-4.228 6.76-8.588 9.305-13.13 2.472-4.411 4.352-8.974 5.45-13.723-.161-5.848-1.66-10.57-4.28-14.324-2.582-3.708-6.293-6.522-10.917-8.6-3.368-1.082-6.698-1.362-9.962.118l-19.5 14.563c1.177 2.52 3.127 3.103 6.164.95l3.216-4.027c5.035-6.904 8.285-4.839 11.258-1.61 2.295 3.155 4.82 4.751 7.44 5.638 5.513 2.298 6.81 7.277 5.227 14.092-3.44 5.196-5.314 4.793-5.63-1.21.06-5.769-2.19-6.726-4.91-5.784-2.312.804-4.566.739-6.549-1.461-2.684-1.573-5.363-2.072-8.042-.203-4.956 1.6-9.918 1.532-14.878-.201.929 6.179-12.276 8.981 4.2 10.8l13.494-3.936c13.674-1.332 15.853 5.328 8.131 12.527l-2.683.622-3.943 7.771c-10.793 4.55-14.515 14.841-13.407 29.063-.804 9.526 3.864 12.77 13.996 9.74 3.326 3.616 3.977 8.577 2.8 14.457l3.83.59c-4.656 4.049-4.692 7.593 5.451 10.032-.128 4.827 1.833 6.596 5.895 5.31.616 6.116 2.041 6.753 4.272 1.92l12.818-.443C68.46 112.769 64.614 99.908 65.274 86.132c1.587-3.065 3.268-4.012 5.158-.297-1.784 7.643-.711 14.822 4.88 19.784-1.14 6.074.452 5.75 3.37 2.494 4.327 7.906 7.025 7.77 8.987 3.984l1.474-9c3.593 4.88 7.68 9.32 12.671 12.984l4.869.12.018-.992-15.4-13.37-.761-5.668c-11.925-.917-15.89-3.998-15.4-8.293 4.913 4.114 10.567 3.534 16.838-.93l5.077.253c-2.24 4.477.826 7.224 8.292 8.545l.413.668c3.846-1.843 6.043-3.53 6.582-5.053.401-1.136-.483-2.412-2.662-3.825-2.834-.78-5.666-1.751-8.46-3.425-2.881-1.723-5.67-4.175-8.273-7.873l.004-.003-.032-.046c-1.763-2.675-3.677-4.545-5.82-5.11-2.057-.543-4.507.114-7.493 2.403-1.851 1.853-3.91 3.106-6.169 3.759v-.003l-.008.003c-2.286.658-4.75.695-7.373.104a1.774 1.774 0 0 1-1.34-2.117 1.775 1.775 0 0 1 2.117-1.34c1.669.377 3.224.43 4.666.17-.578-1.318-1.472-2.41-2.619-3.343zm82.11 19.46l-.367.12c-1.246-3.752-3.466-6.917-6.703-9.454-3.313-2.597-7.719-4.565-13.252-5.864l-.84-.198-.367-.788c-1.207-2.605-3.64-4.444-6.957-5.717-3.55-1.364-8.108-2.088-13.284-2.404l-.538-.032-.434-.33c-3.485-2.661-7.595-3.622-12.147-3.349-4.606.278-9.687 1.813-15.058 4.136a6.712 6.712 0 0 0 1.204 1.666c2.05-.715 3.961-.785 5.755-.312 3.068.81 5.623 3.195 7.844 6.552l.002-.002c2.287 3.25 4.704 5.385 7.188 6.87 2.496 1.494 5.134 2.375 7.8 3.098.24.065.457.18.64.324 3.84 2.457 5.24 5.14 4.211 8.051-.842 2.378-3.53 4.68-8.044 6.904l2.274 3.662.592 17.262-2.203-.143.457 3.052c2.29 1.505 2.526 3.088.712 4.751-6.698 5.983-15.217 3.862-24.752-2.803-3.992 3.54.607 6.334 11.516 8.377 6.781 9.13 7.624 9.028 7.15 1.223 1.922.213 5.853.518 8.003.728 1.652-1.598 1.893-4.598 1.178-8.557 2.223 2.505 4.923 3.587 8.103 3.246-4.625-4.326-7.082-9.739-8.545-15.64l10.168 5.313c3.178-.567 1.69-3.627-1.917-7.82 7.148 2.15 10.345 1.535 4.862-5.164l-4.125-5.163c6.177 3.785 11.01 4.085 13.881-.717 1.474 6.758 5.644 4.408 9.462-.158l-.354 5.08c-2.188-.372-3.504 2.114-3.541 8.778 3.508-.542 6.147-2.192 7.515-5.458.666 1.53.42 4.302 2.505 3.834 1.973.125 2.672-2.53 2.504-7.08l10.02.442-.625-1.105c.376-.088.712-.32.913-.68 1.373-2.475 2.681-4.71 3.94-6.693 1.435 1.401 3.568 2.584 6.439 3.51 3.294 1.066 7.621 1.835 13.076 2.28a1.42 1.42 0 0 0 .221-2.831c-5.243-.427-9.357-1.153-12.432-2.149-2.75-.888-4.632-1.979-5.7-3.24 2.941-4.295 5.587-7.143 8.036-8.573 3.405-1.99 6.548-.907 9.812 3.15a1.42 1.42 0 0 0 1.992.214 1.42 1.42 0 0 0 .216-1.992c-4.299-5.339-8.599-6.665-13.455-3.826-3.736 2.182-7.717 7.047-12.277 14.69l.153-6.062a1.418 1.418 0 0 0-2.833-.068l-.224 8.957c-1.043-1.454-2.14-2.746-3.307-3.846.102-4.33.524-8.465 1.376-12.322.88-3.995 2.232-7.707 4.18-11.051a1.42 1.42 0 0 0-2.453-1.423c-2.095 3.598-3.548 7.583-4.49 11.862-.758 3.423-1.194 7.033-1.373 10.786a13.596 13.596 0 0 0-2.973-1.391l-.43-3.681.1-.832zM29.653 17.833L51.902 1.22l.458-.342C56.273-.32 60.247-.2 64.263.737l.344.151c5.383 2.355 9.72 5.615 12.757 9.973 3.039 4.359 4.756 9.786 4.907 16.483l.006.216-.048.208c-1.174 5.187-3.19 10.143-5.859 14.903-2.57 4.585-5.769 9.03-9.425 13.358-1.379 5.703-1.413 9.412.209 10.673 1.674 1.301 5.481.323 11.814-3.362l.078-.044.103-.047c5.91-2.597 11.55-4.319 16.742-4.632 5.198-.312 9.945.77 14.073 3.75 5.28.353 9.995 1.138 13.805 2.603 3.855 1.478 6.802 3.654 8.515 6.75 5.667 1.42 10.257 3.54 13.816 6.329 2.335 1.829 4.227 3.947 5.675 6.33l3.516-13.865c18.933-17.38 36.857-22.191 52.334-4.213l4.66 5.971.922 3.966c-5.567 12.677-9.846 26.965-12.838 42.862-3.17.932-5.289-4.097-7.473-8.75 1.852 9.926 2.237 17.2-7.757 17.019-3.231-6.524-7.796-10.943-13.272-13.925-6.476 14.878-13.722 28.78-26.327 35.9-6.684 1.224-12.224 3.59-16.97 6.746h-11.534l-2.828 13.273 11.967.434c11.01 3.312 11.08 10.488-1.957 10.662l-17.19.435c-9.667 5.955-20.632 11.153-22.349 5.853-.435-1.345-1.646-2.74-3.815-4.143-1.473-.95-1.348-3.53-1.687-5.895-4.347-.548-8.143-.507-10.415 1.168-2.517 1.234-4.802.88-4.077-.776.92-2.096-.578-3.277-4.06-3.269-1.544.003.485-3.387 2.234-5.559 2.395-2.574 6.118-3.598 10.443-3.914l12.185-.655c6.804-8.944 7.331-15.792-1.305-19.581-6.82-1.348-12.307-4.683-17.19-8.922-13.409-4.52-19.52-15.39-26.79-27.995-5.435-3.448-10.146-11.387-11.72-20.307-1.754-17.024 4.445-30.406 14.534-39.999l-2.584.599c-11.788 7.758-21.7 7.057-30.054-.659-1.727-.833-2.652-.232-.708 5.49.487 3.122-.923 3.93-4.223 2.415L.011 46.292c-.214-9.072 2.51-15.208 7.447-19.127 5.081-4.945 11.743-7.872 19.3-9.662l2.894.33zM4.736 40.113c-6.179.831 9.962-17.333 11.18-11.905-5.192 2.68-9.117 6.476-11.18 11.905zm44.643-4.7c3.255-.964 4.184.534 2.788 4.495-5.47 1.279-6.397-.223-2.788-4.495zM194.016 92.09c-.784 0-1.423-.64-1.423-1.423 0-.784.639-1.422 1.423-1.422h1.317c.784 0 1.423.638 1.423 1.422 0 .784-.639 1.423-1.423 1.423h-1.317"/></symbol><symbol id="icon-mail" viewBox="0 0 20 20"><path d="M2 8l8 5 8-5-8-5-8 5zm18 0v10a2 2 0 0 1-2 2H2a2 2 0 0 1-2-2V8c0-.73.39-1.36.97-1.71L10 .64l9.03 5.65c.58.35.97.98.97 1.71z"/></symbol><symbol id="icon-marker" viewBox="0 0 14 20"><path d="M7 9.5a2.5 2.5 0 1 1 0-5 2.5 2.5 0 0 1 0 5zM7 0a7 7 0 0 0-7 7c0 5.25 7 13 7 13s7-7.75 7-13a7 7 0 0 0-7-7z"/></symbol><symbol id="icon-menu" viewBox="0 0 24 21"><path d="M23.244 16.009H.75c-.413 0-.75.36-.75.801v3.421c0 .423.337.769.75.769h22.494c.414 0 .75-.346.75-.77v-3.42c0-.441-.336-.801-.75-.801zm0-8H.75c-.413 0-.75.36-.75.801v3.421A.76.76 0 0 0 .75 13h22.494a.76.76 0 0 0 .75-.769V8.81c0-.441-.336-.801-.75-.801zm0-8H.75C.337.009 0 .369 0 .81v3.42c0 .423.337.769.75.769h22.494a.76.76 0 0 0 .75-.769V.81c0-.441-.336-.801-.75-.801z"/></symbol><symbol id="icon-next" viewBox="0 0 15 24"><path d="M3 0L.17 2.83 9.34 12 .17 21.17 3 24l12-12L3 0z"/></symbol><symbol id="icon-ok" viewBox="0 0 19 32"><path d="M9.25 4.83a3.416 3.416 0 0 1 3.413 3.414c0 1.88-1.53 3.41-3.413 3.41a3.417 3.417 0 0 1-3.413-3.41A3.418 3.418 0 0 1 9.25 4.83zm0 11.654c4.547 0 8.243-3.696 8.243-8.24C17.493 3.698 13.797 0 9.25 0 4.705 0 1.008 3.698 1.008 8.244c0 4.544 3.697 8.24 8.242 8.24zm3.335 6.724a15.434 15.434 0 0 0 4.786-1.983 2.415 2.415 0 0 0 .757-3.33 2.413 2.413 0 0 0-3.33-.76 10.465 10.465 0 0 1-11.097 0 2.412 2.412 0 0 0-3.33.76 2.414 2.414 0 0 0 .757 3.33c1.49.935 3.108 1.6 4.786 1.983l-4.608 4.608a2.415 2.415 0 0 0 3.417 3.414l4.526-4.528 4.53 4.528c.942.943 2.47.943 3.414 0a2.413 2.413 0 0 0 0-3.414l-4.608-4.608z"/></symbol><symbol id="icon-prev" viewBox="0 0 15 25"><path d="M14.83 21.67L5.66 12.5l9.17-9.17L12 .5l-12 12 12 12 2.83-2.83z"/></symbol><symbol id="icon-search" viewBox="0 0 18 18"><path d="M11 0a6.5 6.5 0 0 0-6.5 6.5c0 1.61.59 3.09 1.56 4.23l-.27.27H5l-5 5 1.5 1.5 5-5v-.79l.27-.27C7.91 12.41 9.39 13 11 13a6.5 6.5 0 1 0 0-13zm0 2c2.5 0 4.5 2 4.5 4.5S13.5 11 11 11 6.5 9 6.5 6.5 8.5 2 11 2z"/></symbol><symbol id="icon-te-st" viewBox="0 0 99 40"><g><path d="M10.895 20.245a2 2 0 0 1-1.4-2.394l-1.394-.805c-.359.343-.845.554-1.381.554a1.994 1.994 0 0 1-1.42-.592l-1.369.79A2.003 2.003 0 0 1 2 20.32a2 2 0 1 1 1.347-3.479l1.418-.818a2 2 0 0 1 3.33-1.875l2.785-1.607V9.28a1.998 1.998 0 0 1-.828-.481l-1.392.87a2 2 0 1 1-3.885.027l-1.451-.838a1.996 1.996 0 0 1-.764.422v1.678a2 2 0 1 1-1.12 0V9.281A2 2 0 1 1 3.428 5.96l1.333-.833a2 2 0 1 1 .528.99l-1.331.833a2.009 2.009 0 0 1-.035.962l1.406.811c.36-.348.85-.563 1.391-.563.53 0 1.013.207 1.371.544l1.404-.877a2.005 2.005 0 0 1 1.465-2.409V3.942A2 2 0 1 1 12 3.921v1.518a2 2 0 0 1 0 3.842v3.306l2.653 1.532c.256-.26.582-.451.947-.541v-1.476a2 2 0 1 1 1.85-3.399l1.389-.868a2.01 2.01 0 0 1 .022-.888l-1.434-.828a2 2 0 1 1 .584-.956l1.42.82a2 2 0 1 1 1.93 3.378l-.001 1.518a2 2 0 1 1-1.04-.021V9.382a1.998 1.998 0 0 1-.959-.553l-1.342.84a2.004 2.004 0 0 1-1.379 2.412v1.518a2 2 0 0 1 1.366 2.462l1.41.815a2 2 0 1 1-.56.97l-1.444-.834a2 2 0 0 1-3.29-1.906l-2.722-1.572-2.74 1.581a2.004 2.004 0 0 1 .003.962l1.39.802a2 2 0 1 1 1.896 3.375v2.62l2.279-1.317a2.003 2.003 0 0 1 1.932-2.517 2 2 0 1 1-1.4 3.428l-2.811 1.624v4.783h10.34a.352.352 0 0 1 0 .703H11.985c.182 1.334 1.447 1.512 3.42 1.674 1.924.157 4.103.336 4.69 2.502a.264.264 0 0 1-.255.334.263.263 0 0 1-.254-.196c-.442-1.632-2.03-1.917-3.685-2.068.045.05.087.101.126.155.316.427.81.626 1.334.836.656.264 1.334.537 1.641 1.286a.264.264 0 1 1-.487.2c-.223-.543-.745-.753-1.35-.996a7.767 7.767 0 0 1-.682-.301c.065.246.117.496.166.74.088.44.171.858.331 1.208a.264.264 0 0 1-.48.22c-.185-.406-.278-.873-.368-1.324-.216-1.08-.403-2.012-1.693-2.154l-.01-.002c-.915-.103-1.768-.285-2.327-.776.262.613.652 1.061 1.035 1.499.158.181.318.364.467.558l.009.007c.157.204.34.377.535.562.26.245.532.504.754.852.005.007.01.012.014.02.293.466 1.156 1.418 1.703 1.727a.264.264 0 0 1-.258.46c-.308-.174-.677-.497-1.015-.844.032.325.032.694-.014 1.127a.263.263 0 0 1-.262.236l-.028-.001a.264.264 0 0 1-.234-.29c.128-1.21-.109-1.851-.471-2.324.16.822.056 1.91-.553 3.493a.264.264 0 1 1-.492-.19c1.18-3.065.378-3.983-.551-5.045-.368-.422-.761-.873-1.05-1.477.083 1.033.216 1.881.332 2.616.35 2.212.56 3.548-1.174 5.988a.262.262 0 0 1-.367.062.264.264 0 0 1-.062-.368c1.274-1.793 1.422-2.909 1.26-4.363-.107.186-.233.341-.357.494-.329.407-.64.793-.575 1.874a.264.264 0 0 1-.247.28h-.016a.264.264 0 0 1-.263-.248c-.078-1.286.331-1.791.692-2.238.36-.445.67-.829.483-2.083a28.944 28.944 0 0 1-.222-1.844c-.283.577-.751 1.206-1.528 1.862-.928.782-.676 1.636-.385 2.623.19.647.388 1.316.265 2.011a.263.263 0 1 1-.519-.091c.1-.574-.078-1.182-.251-1.77a9.547 9.547 0 0 1-.216-.822l-.067.31c-.195.912-.396 1.856-1.619 2.658a.264.264 0 0 1-.288-.441c1.04-.683 1.203-1.444 1.391-2.327.082-.383.17-.79.343-1.202l-.223.132c-.772.458-1.198.709-1.369 1.68a.263.263 0 1 1-.519-.09c.213-1.212.803-1.56 1.62-2.044.43-.255.92-.543 1.496-1.03.911-.769 1.354-1.481 1.57-2.108-.07.086-.144.169-.226.246-.784.735-2.06 1.051-3.796.945-.77.142-.857.562-.975 1.488-.107.842-.24 1.89-1.16 2.98a.261.261 0 0 1-.371.031.264.264 0 0 1-.032-.371c.82-.972.942-1.934 1.04-2.706.069-.537.136-1.055.44-1.43a5.778 5.778 0 0 0-.783.103c-.674.28-.703.634-.754 1.273-.035.428-.078.96-.364 1.55a.263.263 0 0 1-.352.121.264.264 0 0 1-.122-.353c.243-.5.28-.956.312-1.36.023-.282.046-.558.135-.813-1.014.587-1.173 1.451-1.183 1.509a.264.264 0 0 1-.52-.087c.13-.775.845-1.924 2.656-2.331l.007-.004a.26.26 0 0 1 .095-.02 7.292 7.292 0 0 1 1.929-.109c1.58.104 2.768-.173 3.437-.8.372-.35.529-.748.586-1.09H.555a.351.351 0 0 1 0-.704h10.34v-4.783l-2.82-1.629c-.22.216-.492.38-.794.472a2 2 0 1 1 1.144-2.8 1.936 1.936 0 0 1 .177 1.413l2.292 1.326v-2.63zm6.213 1.392a1.12 1.12 0 0 0-1.938-1.12l.03.018a1.062 1.062 0 0 0 .002 1.07 1.07 1.07 0 0 0 1.85 0l.056.032zm-10.122.469a1.12 1.12 0 1 0-1.281-.45l.086-.05a1.068 1.068 0 0 0 1.195.5zm5.405-3.194a1.12 1.12 0 1 0-1.912-.016l.016-.01a1.07 1.07 0 0 0 1.852 0l.044.026zM2 8.48a1.12 1.12 0 1 0 0-2.24 1.12 1.12 0 0 0 0 2.24zM2 14a1.12 1.12 0 1 0 0-2.24A1.12 1.12 0 0 0 2 14zm4.72-8.16a1.12 1.12 0 1 0 0-2.24 1.12 1.12 0 0 0 0 2.24zm4.72-2.72a1.12 1.12 0 1 0 0-2.24 1.12 1.12 0 0 0 0 2.24zm0 5.36a1.12 1.12 0 1 0 0-2.24 1.12 1.12 0 0 0 0 2.24zm-4.72 2.8a1.12 1.12 0 1 0 0-2.24 1.12 1.12 0 0 0 0 2.24zm9.36-5.52a1.12 1.12 0 1 0 0-2.24 1.12 1.12 0 0 0 0 2.24zm4.72 2.8a1.12 1.12 0 1 0 0-2.24 1.12 1.12 0 0 0 0 2.24zm0 5.36a1.12 1.12 0 1 0 0-2.24 1.12 1.12 0 0 0 0 2.24zm-4.72-2.64a1.12 1.12 0 1 0 0-2.24 1.12 1.12 0 0 0 0 2.24zm0 5.36a1.12 1.12 0 1 0 0-2.24 1.12 1.12 0 0 0 0 2.24zm4.72 2.8a1.12 1.12 0 1 0 0-2.24 1.12 1.12 0 0 0 0 2.24zM6.72 16.72a1.12 1.12 0 1 0 0-2.24 1.12 1.12 0 0 0 0 2.24zM2 19.44a1.12 1.12 0 1 0 0-2.24 1.12 1.12 0 0 0 0 2.24zM36.18 4.56v-.68H31.3v.68h2.06V11h.76V4.56h2.06zM41.93 11v-.68h-3.66V7.75h3.12v-.68h-3.12V4.56h3.66v-.68h-4.42V11h4.42zm6.47 0V3.88h-4.89V11h.76V4.56h3.37V11h.76zm6.78 0V3.88h-3.92v2.89c0 2.96-.63 3.55-1.51 3.55h-.19V11h.36C51.28 11 52 10 52 7V4.56h2.42V11h.76zm7.16 0V3.88h-.72L58 9.68v-5.8h-.76V11h.72l3.62-5.81V11h.76zm7.8 1.72v-2.4h-.85V3.88h-.76v6.44h-3.37V3.88h-.76V11h4.99v1.72h.75zm6.4-1.72l-2.61-7.12h-.64L70.67 11h.81l.57-1.61h3.11l.57 1.61h.81zm-1.6-2.27h-2.66l1.34-3.76 1.32 3.76zM36.72 20.04h-.76c-.19.87-.82 1.44-1.71 1.44-.47 0-.92-.18-1.23-.5-.45-.46-.5-.95-.5-2.44s.05-1.98.5-2.44c.31-.32.76-.5 1.23-.5.89 0 1.5.57 1.69 1.44h.78c-.24-1.34-1.19-2.12-2.47-2.12-.7 0-1.34.26-1.82.74-.67.67-.67 1.37-.67 2.88 0 1.51 0 2.21.67 2.88.48.48 1.12.74 1.82.74 1.27 0 2.24-.78 2.47-2.12zm6.19-1.99c0-.87-.05-1.77-.67-2.39-.48-.48-1.12-.74-1.82-.74s-1.34.26-1.82.74c-.61.61-.67 1.48-.67 2.33v.55c0 1.42.02 2.23.67 2.88.48.48 1.11.74 1.82.74s1.34-.26 1.82-.74c.65-.65.67-1.46.67-2.88v-.49zm-.76.84c0 .82-.01 1.59-.5 2.08-.33.33-.76.51-1.23.51s-.9-.18-1.23-.51c-.46-.46-.5-1.16-.5-1.93v-.71c0-.98 0-1.72.5-2.22.33-.33.77-.51 1.23-.51.46 0 .9.18 1.23.51.47.47.5 1.21.5 2.05v.73zm8.29 4.93v-2.4h-.85v-6.44h-.76v6.44h-3.37v-6.44h-.76v7.12h4.99v1.72h.75zm6.54-1.72v-7.12h-.72l-3.62 5.8v-5.8h-.76v7.12h.72l3.62-5.81v5.81h.76zm7.02 0l-2.61-7.12h-.64l-2.62 7.12h.81l.57-1.61h3.11l.57 1.61H64zm-1.6-2.27h-2.66l1.34-3.76 1.32 3.76zm7.46 2.27v-7.12h-3.92v2.89c0 2.96-.63 3.55-1.51 3.55h-.19v.68h.36c1.36 0 2.08-1 2.08-4v-2.44h2.42v6.44h.76zm6.93-2.09c0-1.26-.87-2.1-2.2-2.1h-1.91v-2.93h-.76v7.12h2.67c1.32 0 2.2-.84 2.2-2.09zm-.77 0c0 .89-.55 1.41-1.5 1.41h-1.84v-2.83h1.84c.95 0 1.5.52 1.5 1.42zm7.1 2.09v-7.12h-.76v3.19h-3.38v-3.19h-.76v7.12h.76v-3.25h3.38v3.25h.76zm8.64 0v-7.12H91v7.12h.76zm-1.71-2.09c0-1.26-.87-2.1-2.2-2.1h-1.91v-2.93h-.76v7.12h2.67c1.32 0 2.2-.84 2.2-2.09zm-.77 0c0 .89-.55 1.41-1.5 1.41h-1.84v-2.83h1.84c.95 0 1.5.52 1.5 1.42zm8.87 2.09l-2.2-3.65L98 14.98h-.88l-1.58 2.81-1.58-2.81h-.88l2.04 3.47-2.18 3.65h.86l1.74-2.99 1.73 2.99h.88zM36.18 27.56v-.68H31.3v.68h2.06V34h.76v-6.44h2.06zM41.93 34v-.68h-3.66v-2.57h3.12v-.68h-3.12v-2.51h3.66v-.68h-4.42V34h4.42zm5.91 0l-2.2-3.65 2.05-3.47h-.88l-1.58 2.81-1.58-2.81h-.88l2.04 3.47L42.63 34h.86l1.74-2.99L46.96 34h.88zm6.08 0v-7.12h-.76v3.19h-3.38v-3.19h-.76V34h.76v-3.25h3.38V34h.76zm6.77-4.05c0-.87-.05-1.77-.67-2.39-.48-.48-1.12-.74-1.82-.74s-1.34.26-1.82.74c-.61.61-.67 1.48-.67 2.33v.55c0 1.42.02 2.23.67 2.88.48.48 1.11.74 1.82.74s1.34-.26 1.82-.74c.65-.65.67-1.46.67-2.88v-.49zm-.76.84c0 .82-.01 1.59-.5 2.08-.33.33-.76.51-1.23.51s-.9-.18-1.23-.51c-.46-.46-.5-1.16-.5-1.93v-.71c0-.98 0-1.72.5-2.22.33-.33.77-.51 1.23-.51.46 0 .9.18 1.23.51.47.47.5 1.21.5 2.05v.73zM66.99 34v-7.12h-3.92v2.89c0 2.96-.63 3.55-1.51 3.55h-.19V34h.36c1.36 0 2.08-1 2.08-4v-2.44h2.42V34h.76zm6.77-4.05c0-.87-.05-1.77-.67-2.39-.48-.48-1.12-.74-1.82-.74s-1.34.26-1.82.74c-.61.61-.67 1.48-.67 2.33v.55c0 1.42.02 2.23.67 2.88.48.48 1.11.74 1.82.74s1.34-.26 1.82-.74c.65-.65.67-1.46.67-2.88v-.49zm-.76.84c0 .82-.01 1.59-.5 2.08-.33.33-.76.51-1.23.51s-.9-.18-1.23-.51c-.46-.46-.5-1.16-.5-1.93v-.71c0-.98 0-1.72.5-2.22.33-.33.77-.51 1.23-.51.46 0 .9.18 1.23.51.47.47.5 1.21.5 2.05v.73zm6.9-3.23v-.68h-4.28V34h.76v-6.44h3.52zM86.34 34v-7.12h-.72L82 32.68v-5.8h-.76V34h.72l3.62-5.81V34h.76zm7.16 0v-7.12h-.72l-3.62 5.8v-5.8h-.76V34h.72l3.62-5.81V34h.76zm-1.09-8.83h-.64c-.04.49-.33.74-.82.74-.49 0-.78-.25-.82-.74h-.64c.06.89.63 1.26 1.46 1.26s1.4-.37 1.46-1.26z"/></g></symbol><symbol id="icon-telegram" viewBox="0 0 32 27"><path d="M29.84.177L1.494 11.11c-1.935.777-1.923 1.856-.353 2.337l7.07 2.206 2.705 8.294c.329.907.166 1.267 1.12 1.267.735 0 1.061-.335 1.471-.735.26-.255 1.808-1.76 3.535-3.438l7.353 5.433c1.353.746 2.33.36 2.667-1.257L31.89 2.47c.494-1.981-.756-2.88-2.05-2.293zM9.32 15.147L25.255 5.092c.795-.482 1.525-.223.926.309l-13.644 12.31-.532 5.667-2.685-8.233z"/></symbol><symbol id="icon-twitter" viewBox="0 0 32 26"><path d="M31.528 3.033a12.87 12.87 0 0 1-3.715 1.018A6.48 6.48 0 0 0 30.657.472a12.948 12.948 0 0 1-4.107 1.57 6.468 6.468 0 0 0-11.021 5.9A18.366 18.366 0 0 1 2.194 1.184a6.435 6.435 0 0 0-.875 3.252A6.465 6.465 0 0 0 4.197 9.82a6.45 6.45 0 0 1-2.93-.81v.082a6.473 6.473 0 0 0 5.189 6.343 6.503 6.503 0 0 1-2.922.11 6.475 6.475 0 0 0 6.042 4.492 12.976 12.976 0 0 1-8.033 2.77c-.522 0-1.037-.031-1.543-.091a18.304 18.304 0 0 0 9.916 2.906c11.898 0 18.403-9.856 18.403-18.404 0-.28-.005-.56-.018-.838a13.1 13.1 0 0 0 3.227-3.347z"/></symbol><symbol id="icon-up" viewBox="0 0 12 8"><path d="M1.41 8L6 3.41 10.59 8 12 6.58l-6-6-6 6L1.41 8z"/></symbol><symbol id="icon-viber" viewBox="0 0 31 31"><g><path d="M28.046 22.425c-.943-.759-1.951-1.44-2.943-2.136-1.978-1.39-3.788-1.498-5.264.738-.829 1.255-1.99 1.31-3.203.76-3.345-1.518-5.928-3.855-7.44-7.255-.67-1.504-.661-2.852.905-3.916.829-.563 1.664-1.229 1.597-2.458-.087-1.603-3.98-6.96-5.516-7.526C5.546.398 4.912.413 4.266.631.66 1.843-.831 4.807.598 8.317c4.265 10.47 11.771 17.76 22.103 22.208.59.254 1.244.355 1.575.446 2.352.024 5.108-2.243 5.904-4.492.766-2.164-.854-3.023-2.134-4.054zM16.46 1.706c7.554 1.161 11.038 4.753 12 12.36.089.703-.173 1.76.83 1.78 1.047.02.795-1.021.804-1.725C30.182 6.956 23.934.314 16.679.07c-.547.079-1.68-.378-1.75.85-.048.827.906.69 1.532.787z"/><path d="M17.938 3.792c-.726-.088-1.685-.43-1.855.578-.177 1.058.892.95 1.579 1.104 4.665 1.043 6.289 2.741 7.057 7.369.112.674-.11 1.724 1.036 1.55.85-.13.543-1.03.614-1.555.037-4.443-3.77-8.487-8.43-9.046z"/><path d="M18.367 7.425c-.485.012-.961.064-1.14.582-.267.775.296.96.87 1.052 1.913.307 2.92 1.436 3.111 3.344.052.518.38.938.881.878.693-.082.756-.7.735-1.285.034-2.144-2.39-4.623-4.457-4.571z"/></g></symbol><symbol id="icon-vk" viewBox="0 0 32 21"><path d="M.005 1.527c-.219-1.336 6.241-.509 6.241-.509s3.75 9.417 5.228 9.417c1.478 0 .766-7.985.766-7.985s-1.833-.478-1.833-1.21C10.407.51 12.24 0 12.24 0h5.393c.646 0 .903 1.05.903 1.75v8.558h1.478s1.316-2.115 2.354-4.263c1.038-2.149 2.3-5.027 2.3-5.027h6.267s1.15.032 1.013.986c-.186 1.299-4.356 7.466-5.228 9.576-.657 1.59 2.76 3.744 4.215 6.045.945 1.493 1.013 3.245 1.013 3.245h-7.445l-3.723-4.327s-.766-.318-1.368.127c-.603.446-.63 1.337-.63 1.337v2.863h-5.83s-4.461-1.527-8.239-8.208C.936 5.982.224 2.863.005 1.527z"/></symbol><symbol id="icon-whatsup" viewBox="0 0 32 32"><path d="M16.172 0C7.579 0 .614 6.965.614 15.558c0 2.939.815 5.688 2.232 8.033L.038 31.938l8.614-2.758a15.49 15.49 0 0 0 7.52 1.935c8.592 0 15.557-6.965 15.557-15.557C31.73 6.965 24.764 0 16.172 0zm0 28.637c-2.657 0-5.131-.797-7.197-2.163l-5.026 1.61 1.633-4.858a13.009 13.009 0 0 1-2.49-7.668c0-7.213 5.867-13.08 13.08-13.08 7.212 0 13.08 5.867 13.08 13.08 0 7.212-5.868 13.08-13.08 13.08zm-3.65-19.514c-.251-.608-.444-.628-.834-.647a8.936 8.936 0 0 0-.436-.012c-.502 0-1.022.147-1.335.468-.382.39-1.335 1.304-1.335 3.18 0 1.877 1.367 3.69 1.557 3.944.19.255 2.665 4.161 6.515 5.757 3.005 1.244 3.897 1.133 4.583.983.997-.217 2.25-.952 2.568-1.842.317-.89.317-1.654.222-1.813-.095-.159-.35-.254-.73-.445-.382-.19-2.258-1.113-2.607-1.24-.35-.128-.673-.089-.942.283-.37.514-.728 1.041-1.023 1.354-.232.246-.606.28-.927.144-.422-.18-1.61-.594-3.067-1.893-1.133-1.01-1.899-2.259-2.121-2.64-.223-.382-.02-.61.152-.817.195-.237.376-.407.566-.63.19-.222.297-.341.425-.596.127-.254.041-.517-.054-.708-.096-.19-.86-2.066-1.176-2.83z"/></symbol><symbol id="icon-youtube" viewBox="0 0 24 24"><path d="M10 16.5v-9l6 4.5m4-7.6c-.6-.2-4.3-.4-8-.4s-7.4.19-8 .38C2.44 4.9 2 8.4 2 12c0 3.59.44 7.1 2 7.61.6.2 4.3.39 8 .39s7.4-.19 8-.39c1.56-.51 2-4.02 2-7.61 0-3.6-.44-7.09-2-7.6z"/></symbol></svg>