<svg xmlns="http://www.w3.org/2000/svg"><symbol id="icon-close" viewBox="0 0 14 14"><path d="M14 1.41L12.59 0 7 5.59 1.41 0 0 1.41 5.59 7 0 12.59 1.41 14 7 8.41 12.59 14 14 12.59 8.41 7 14 1.41z"/></symbol><symbol id="pic-logo" viewBox="0 0 72 72"><path d="M48 24V0H24v24H0v24h24v24h24V48h24V24H48z" fill="#D82332" fill-rule="evenodd"/></symbol><symbol id="icon-down" viewBox="0 0 12 8"><path d="M1.41.58L6 5.17 10.59.58 12 2 6 8 0 2 1.41.58z"/></symbol><symbol id="pic-te-st" viewBox="0 0 99 40"><g fill="#000" fill-rule="evenodd"><path d="M10.895 20.245a2 2 0 0 1-1.4-2.394L8.1 17.047a1.994 1.994 0 0 1-2.802-.04l-1.367.79A2.003 2.003 0 0 1 2 20.32a2 2 0 1 1 1.347-3.48l1.418-.817a2 2 0 0 1 3.33-1.875l2.785-1.607V9.28a1.998 1.998 0 0 1-.828-.48l-1.392.87a2 2 0 1 1-3.885.027l-1.45-.838a1.996 1.996 0 0 1-.765.42v1.68a2 2 0 1 1-1.12 0V9.28a2 2 0 1 1 1.988-3.32l1.333-.833a2 2 0 1 1 .528.99l-1.33.833a2.01 2.01 0 0 1-.035.962l1.406.81c.36-.347.85-.562 1.39-.562.53 0 1.013.207 1.37.544l1.405-.877a2.005 2.005 0 0 1 1.465-2.41V3.943a2 2 0 1 1 1.04-.02v1.517a2 2 0 0 1 0 3.84v3.307l2.653 1.532c.256-.26.582-.452.947-.542v-1.476a2 2 0 1 1 1.85-3.4l1.39-.867a2.01 2.01 0 0 1 .02-.888l-1.433-.828a2 2 0 1 1 .584-.956l1.42.818a2 2 0 1 1 1.93 3.378v1.52a2 2 0 1 1-1.04-.022V9.382c-.37-.09-.7-.286-.96-.553l-1.34.838a2.004 2.004 0 0 1-1.38 2.413v1.52a2 2 0 0 1 1.366 2.46l1.41.816a2 2 0 1 1-.56.97l-1.444-.834a2 2 0 0 1-3.29-1.906L11.4 13.534l-2.74 1.58a2.004 2.004 0 0 1 .003.963l1.39.802a2 2 0 1 1 1.896 3.375v2.62l2.278-1.318a2.003 2.003 0 0 1 1.932-2.517 2 2 0 1 1-1.4 3.428l-2.81 1.624v4.783h10.34a.352.352 0 0 1 0 .703H11.984c.182 1.334 1.447 1.512 3.42 1.674 1.924.157 4.103.336 4.69 2.502a.264.264 0 0 1-.255.334.263.263 0 0 1-.254-.196c-.442-1.632-2.03-1.917-3.685-2.068.046.05.088.1.127.155.316.426.81.625 1.334.835.657.264 1.335.537 1.642 1.286a.264.264 0 0 1-.487.2c-.223-.542-.745-.752-1.35-.995a7.767 7.767 0 0 1-.682-.3c.065.245.117.495.166.74.087.44.17.857.33 1.207a.264.264 0 0 1-.48.22c-.185-.406-.278-.873-.368-1.324-.216-1.08-.403-2.012-1.693-2.154-.005 0-.007 0-.01-.002-.916-.103-1.77-.285-2.328-.776.262.613.652 1.06 1.035 1.5.158.18.318.363.467.557l.01.007c.156.204.34.377.534.562.26.245.532.504.754.852.005.007.01.012.014.02.293.466 1.156 1.418 1.703 1.727a.264.264 0 0 1-.26.46c-.307-.173-.676-.496-1.014-.843.032.325.032.694-.014 1.127a.263.263 0 0 1-.262.236h-.028a.264.264 0 0 1-.234-.29c.128-1.21-.11-1.852-.47-2.325.16.822.055 1.91-.554 3.493a.264.264 0 0 1-.492-.19c1.18-3.065.378-3.983-.55-5.045-.37-.422-.762-.873-1.05-1.477.082 1.033.215 1.88.33 2.616.35 2.212.56 3.548-1.173 5.988a.262.262 0 0 1-.368.062.264.264 0 0 1-.062-.368c1.274-1.793 1.422-2.91 1.26-4.363a3.82 3.82 0 0 1-.357.495c-.33.407-.64.793-.575 1.874a.264.264 0 0 1-.247.28h-.015a.264.264 0 0 1-.263-.25c-.078-1.285.33-1.79.692-2.237.36-.445.67-.83.483-2.083a28.944 28.944 0 0 1-.222-1.844c-.283.577-.75 1.206-1.528 1.862-.928.782-.676 1.636-.385 2.623.19.648.388 1.317.265 2.012a.263.263 0 0 1-.52-.09c.102-.575-.077-1.183-.25-1.77a9.547 9.547 0 0 1-.216-.823l-.066.31c-.195.91-.396 1.855-1.62 2.657a.264.264 0 0 1-.287-.44c1.04-.684 1.203-1.445 1.39-2.328.083-.384.17-.792.344-1.203-.075.046-.15.09-.222.132-.772.457-1.198.708-1.37 1.68a.263.263 0 1 1-.518-.092c.213-1.21.803-1.56 1.62-2.043.43-.255.92-.543 1.496-1.03.91-.77 1.354-1.48 1.57-2.108-.07.086-.144.17-.226.246-.784.735-2.06 1.05-3.796.945-.77.142-.857.562-.975 1.488-.108.842-.24 1.89-1.16 2.98a.26.26 0 0 1-.372.03.264.264 0 0 1-.032-.37c.82-.972.942-1.934 1.04-2.706.07-.537.136-1.055.44-1.43-.286.02-.547.054-.783.103-.674.28-.703.634-.754 1.273-.036.428-.08.96-.365 1.55a.263.263 0 0 1-.352.12.264.264 0 0 1-.122-.352c.244-.5.28-.956.313-1.36.023-.282.046-.558.135-.813-1.014.588-1.173 1.452-1.183 1.51a.264.264 0 1 1-.52-.087c.13-.775.845-1.924 2.656-2.33l.008-.005a.26.26 0 0 1 .095-.02 7.292 7.292 0 0 1 1.93-.11c1.58.105 2.767-.172 3.436-.8.37-.348.528-.747.585-1.09H.555a.35.35 0 0 1 0-.703h10.34v-4.783l-2.82-1.63c-.22.217-.492.38-.794.473a2 2 0 1 1 1.144-2.8 1.936 1.936 0 0 1 .178 1.413l2.292 1.326v-2.63zm6.213 1.392a1.12 1.12 0 1 0-1.938-1.12l.03.018a1.062 1.062 0 0 0 .002 1.07 1.07 1.07 0 0 0 1.85 0l.056.032zm-10.122.47a1.12 1.12 0 1 0-1.28-.45l.085-.05a1.068 1.068 0 0 0 1.196.5zm5.405-3.195a1.12 1.12 0 1 0-1.912-.016l.017-.01a1.07 1.07 0 0 0 1.852 0l.044.026zM2 8.48a1.12 1.12 0 1 0 0-2.24 1.12 1.12 0 0 0 0 2.24zM2 14a1.12 1.12 0 1 0 0-2.24A1.12 1.12 0 0 0 2 14zm4.72-8.16a1.12 1.12 0 1 0 0-2.24 1.12 1.12 0 0 0 0 2.24zm4.72-2.72a1.12 1.12 0 1 0 0-2.24 1.12 1.12 0 0 0 0 2.24zm0 5.36a1.12 1.12 0 1 0 0-2.24 1.12 1.12 0 0 0 0 2.24zm-4.72 2.8a1.12 1.12 0 1 0 0-2.24 1.12 1.12 0 0 0 0 2.24zm9.36-5.52a1.12 1.12 0 1 0 0-2.24 1.12 1.12 0 0 0 0 2.24zm4.72 2.8a1.12 1.12 0 1 0 0-2.24 1.12 1.12 0 0 0 0 2.24zm0 5.36a1.12 1.12 0 1 0 0-2.24 1.12 1.12 0 0 0 0 2.24zm-4.72-2.64a1.12 1.12 0 1 0 0-2.24 1.12 1.12 0 0 0 0 2.24zm0 5.36a1.12 1.12 0 1 0 0-2.24 1.12 1.12 0 0 0 0 2.24zm4.72 2.8a1.12 1.12 0 1 0 0-2.24 1.12 1.12 0 0 0 0 2.24zM6.72 16.72a1.12 1.12 0 1 0 0-2.24 1.12 1.12 0 0 0 0 2.24zM2 19.44a1.12 1.12 0 1 0 0-2.24 1.12 1.12 0 0 0 0 2.24zM36.18 4.56v-.68H31.3v.68h2.06V11h.76V4.56h2.06zM41.93 11v-.68h-3.66V7.75h3.12v-.68h-3.12V4.56h3.66v-.68h-4.42V11h4.42zm6.47 0V3.88h-4.89V11h.76V4.56h3.37V11h.76zm6.78 0V3.88h-3.92v2.89c0 2.96-.63 3.55-1.51 3.55h-.19V11h.36C51.28 11 52 10 52 7V4.56h2.42V11h.76zm7.16 0V3.88h-.72L58 9.68v-5.8h-.76V11h.72l3.62-5.81V11h.76zm7.8 1.72v-2.4h-.85V3.88h-.76v6.44h-3.37V3.88h-.76V11h4.99v1.72h.75zm6.4-1.72l-2.61-7.12h-.64L70.67 11h.81l.57-1.61h3.11l.57 1.61h.81zm-1.6-2.27h-2.66l1.34-3.76 1.32 3.76zM36.72 20.04h-.76c-.19.87-.82 1.44-1.71 1.44-.47 0-.92-.18-1.23-.5-.45-.46-.5-.95-.5-2.44s.05-1.98.5-2.44c.31-.32.76-.5 1.23-.5.89 0 1.5.57 1.69 1.44h.78c-.24-1.34-1.19-2.12-2.47-2.12-.7 0-1.34.26-1.82.74-.67.67-.67 1.37-.67 2.88 0 1.51 0 2.21.67 2.88.48.48 1.12.74 1.82.74 1.27 0 2.24-.78 2.47-2.12zm6.19-1.99c0-.87-.05-1.77-.67-2.39-.48-.48-1.12-.74-1.82-.74s-1.34.26-1.82.74c-.61.61-.67 1.48-.67 2.33v.55c0 1.42.02 2.23.67 2.88.48.48 1.11.74 1.82.74s1.34-.26 1.82-.74c.65-.65.67-1.46.67-2.88v-.49zm-.76.84c0 .82-.01 1.59-.5 2.08-.33.33-.76.51-1.23.51s-.9-.18-1.23-.51c-.46-.46-.5-1.16-.5-1.93v-.71c0-.98 0-1.72.5-2.22.33-.33.77-.51 1.23-.51.46 0 .9.18 1.23.51.47.47.5 1.21.5 2.05v.73zm8.29 4.93v-2.4h-.85v-6.44h-.76v6.44h-3.37v-6.44h-.76v7.12h4.99v1.72h.75zm6.54-1.72v-7.12h-.72l-3.62 5.8v-5.8h-.76v7.12h.72l3.62-5.81v5.81h.76zm7.02 0l-2.61-7.12h-.64l-2.62 7.12h.81l.57-1.61h3.11l.57 1.61H64zm-1.6-2.27h-2.66l1.34-3.76 1.32 3.76zm7.46 2.27v-7.12h-3.92v2.89c0 2.96-.63 3.55-1.51 3.55h-.19v.68h.36c1.36 0 2.08-1 2.08-4v-2.44h2.42v6.44h.76zm6.93-2.09c0-1.26-.87-2.1-2.2-2.1h-1.91v-2.93h-.76v7.12h2.67c1.32 0 2.2-.84 2.2-2.09zm-.77 0c0 .89-.55 1.41-1.5 1.41h-1.84v-2.83h1.84c.95 0 1.5.52 1.5 1.42zm7.1 2.09v-7.12h-.76v3.19h-3.38v-3.19h-.76v7.12h.76v-3.25h3.38v3.25h.76zm8.64 0v-7.12H91v7.12h.76zm-1.71-2.09c0-1.26-.87-2.1-2.2-2.1h-1.91v-2.93h-.76v7.12h2.67c1.32 0 2.2-.84 2.2-2.09zm-.77 0c0 .89-.55 1.41-1.5 1.41h-1.84v-2.83h1.84c.95 0 1.5.52 1.5 1.42zm8.87 2.09l-2.2-3.65L98 14.98h-.88l-1.58 2.81-1.58-2.81h-.88l2.04 3.47-2.18 3.65h.86l1.74-2.99 1.73 2.99h.88zM36.18 27.56v-.68H31.3v.68h2.06V34h.76v-6.44h2.06zM41.93 34v-.68h-3.66v-2.57h3.12v-.68h-3.12v-2.51h3.66v-.68h-4.42V34h4.42zm5.91 0l-2.2-3.65 2.05-3.47h-.88l-1.58 2.81-1.58-2.81h-.88l2.04 3.47L42.63 34h.86l1.74-2.99L46.96 34h.88zm6.08 0v-7.12h-.76v3.19h-3.38v-3.19h-.76V34h.76v-3.25h3.38V34h.76zm6.77-4.05c0-.87-.05-1.77-.67-2.39-.48-.48-1.12-.74-1.82-.74s-1.34.26-1.82.74c-.61.61-.67 1.48-.67 2.33v.55c0 1.42.02 2.23.67 2.88.48.48 1.11.74 1.82.74s1.34-.26 1.82-.74c.65-.65.67-1.46.67-2.88v-.49zm-.76.84c0 .82-.01 1.59-.5 2.08-.33.33-.76.51-1.23.51s-.9-.18-1.23-.51c-.46-.46-.5-1.16-.5-1.93v-.71c0-.98 0-1.72.5-2.22.33-.33.77-.51 1.23-.51.46 0 .9.18 1.23.51.47.47.5 1.21.5 2.05v.73zM66.99 34v-7.12h-3.92v2.89c0 2.96-.63 3.55-1.51 3.55h-.19V34h.36c1.36 0 2.08-1 2.08-4v-2.44h2.42V34h.76zm6.77-4.05c0-.87-.05-1.77-.67-2.39-.48-.48-1.12-.74-1.82-.74s-1.34.26-1.82.74c-.61.61-.67 1.48-.67 2.33v.55c0 1.42.02 2.23.67 2.88.48.48 1.11.74 1.82.74s1.34-.26 1.82-.74c.65-.65.67-1.46.67-2.88v-.49zm-.76.84c0 .82-.01 1.59-.5 2.08-.33.33-.76.51-1.23.51s-.9-.18-1.23-.51c-.46-.46-.5-1.16-.5-1.93v-.71c0-.98 0-1.72.5-2.22.33-.33.77-.51 1.23-.51.46 0 .9.18 1.23.51.47.47.5 1.21.5 2.05v.73zm6.9-3.23v-.68h-4.28V34h.76v-6.44h3.52zM86.34 34v-7.12h-.72L82 32.68v-5.8h-.76V34h.72l3.62-5.81V34h.76zm7.16 0v-7.12h-.72l-3.62 5.8v-5.8h-.76V34h.72l3.62-5.81V34h.76zm-1.09-8.83h-.64c-.04.49-.33.74-.82.74-.49 0-.78-.25-.82-.74h-.64c.06.89.63 1.26 1.46 1.26s1.4-.37 1.46-1.26z"/></g></symbol><symbol id="icon-facebook" viewBox="0 0 15 32"><path d="M14.66 10.216H9.667V6.94c0-1.228.815-1.515 1.39-1.515h3.523V.02L9.727 0C4.34 0 3.115 4.032 3.115 6.612v3.604H0v5.57h3.115V31.55h6.552V15.785h4.42l.573-5.57z"/></symbol><symbol id="icon-mail" viewBox="0 0 20 20"><path d="M2 8l8 5 8-5-8-5-8 5zm18 0v10a2 2 0 0 1-2 2H2a2 2 0 0 1-2-2V8c0-.73.39-1.36.97-1.71L10 .64l9.03 5.65c.58.35.97.98.97 1.71z"/></symbol><symbol id="icon-menu" viewBox="0 0 24 21"><path d="M23.244 16.01H.75c-.413 0-.75.36-.75.8v3.42c0 .424.337.77.75.77h22.494a.76.76 0 0 0 .75-.77v-3.42c0-.44-.336-.8-.75-.8zm0-8H.75c-.413 0-.75.36-.75.8v3.42c0 .425.337.77.75.77h22.494a.76.76 0 0 0 .75-.77V8.81c0-.44-.336-.8-.75-.8zm0-8H.75C.337.01 0 .37 0 .81v3.42c0 .423.337.77.75.77h22.494a.76.76 0 0 0 .75-.77V.81c0-.44-.336-.8-.75-.8z"/></symbol><symbol id="icon-next" viewBox="0 0 15 24"><path d="M3 0L.17 2.83 9.34 12 .17 21.17 3 24l12-12L3 0z"/></symbol><symbol id="icon-ok" viewBox="0 0 19 32"><path d="M9.25 4.83a3.416 3.416 0 0 1 3.413 3.414c0 1.88-1.53 3.41-3.413 3.41a3.417 3.417 0 0 1-3.413-3.41A3.418 3.418 0 0 1 9.25 4.83zm0 11.654c4.547 0 8.243-3.696 8.243-8.24C17.493 3.698 13.797 0 9.25 0 4.705 0 1.008 3.698 1.008 8.244c0 4.544 3.697 8.24 8.242 8.24zm3.335 6.724a15.434 15.434 0 0 0 4.786-1.983 2.415 2.415 0 0 0 .758-3.33 2.413 2.413 0 0 0-3.33-.76 10.465 10.465 0 0 1-11.097 0 2.412 2.412 0 0 0-3.328.76 2.414 2.414 0 0 0 .756 3.33c1.49.935 3.108 1.6 4.786 1.983l-4.608 4.608a2.415 2.415 0 0 0 3.417 3.414l4.526-4.528 4.53 4.528c.94.943 2.47.943 3.413 0a2.413 2.413 0 0 0 0-3.414l-4.608-4.608z"/></symbol><symbol id="icon-prev" viewBox="0 0 15 25"><path d="M14.83 21.67L5.66 12.5l9.17-9.17L12 .5l-12 12 12 12 2.83-2.83z"/></symbol><symbol id="icon-te-st" viewBox="0 0 99 40"><g><path d="M10.895 20.245a2 2 0 0 1-1.4-2.394L8.1 17.047a1.994 1.994 0 0 1-2.802-.04l-1.367.79A2.003 2.003 0 0 1 2 20.32a2 2 0 1 1 1.347-3.48l1.418-.817a2 2 0 0 1 3.33-1.875l2.785-1.607V9.28a1.998 1.998 0 0 1-.828-.48l-1.392.87a2 2 0 1 1-3.885.027l-1.45-.838a1.996 1.996 0 0 1-.765.42v1.68a2 2 0 1 1-1.12 0V9.28a2 2 0 1 1 1.988-3.32l1.333-.833a2 2 0 1 1 .528.99l-1.33.833a2.01 2.01 0 0 1-.035.962l1.406.81c.36-.347.85-.562 1.39-.562.53 0 1.013.207 1.37.544l1.405-.877a2.005 2.005 0 0 1 1.465-2.41V3.943a2 2 0 1 1 1.04-.02v1.517a2 2 0 0 1 0 3.84v3.307l2.653 1.532c.256-.26.582-.452.947-.542v-1.476a2 2 0 1 1 1.85-3.4l1.39-.867a2.01 2.01 0 0 1 .02-.888l-1.433-.828a2 2 0 1 1 .584-.956l1.42.818a2 2 0 1 1 1.93 3.378v1.52a2 2 0 1 1-1.04-.022V9.382c-.37-.09-.7-.286-.96-.553l-1.34.838a2.004 2.004 0 0 1-1.38 2.413v1.52a2 2 0 0 1 1.366 2.46l1.41.816a2 2 0 1 1-.56.97l-1.444-.834a2 2 0 0 1-3.29-1.906L11.4 13.534l-2.74 1.58a2.004 2.004 0 0 1 .003.963l1.39.802a2 2 0 1 1 1.896 3.375v2.62l2.278-1.318a2.003 2.003 0 0 1 1.932-2.517 2 2 0 1 1-1.4 3.428l-2.81 1.624v4.783h10.34a.352.352 0 0 1 0 .703H11.984c.182 1.334 1.447 1.512 3.42 1.674 1.924.157 4.103.336 4.69 2.502a.264.264 0 0 1-.255.334.263.263 0 0 1-.254-.196c-.442-1.632-2.03-1.917-3.685-2.068.046.05.088.1.127.155.316.426.81.625 1.334.835.657.264 1.335.537 1.642 1.286a.264.264 0 0 1-.487.2c-.223-.542-.745-.752-1.35-.995a7.767 7.767 0 0 1-.682-.3c.065.245.117.495.166.74.087.44.17.857.33 1.207a.264.264 0 0 1-.48.22c-.185-.406-.278-.873-.368-1.324-.216-1.08-.403-2.012-1.693-2.154-.005 0-.007 0-.01-.002-.916-.103-1.77-.285-2.328-.776.262.613.652 1.06 1.035 1.5.158.18.318.363.467.557l.01.007c.156.204.34.377.534.562.26.245.532.504.754.852.005.007.01.012.014.02.293.466 1.156 1.418 1.703 1.727a.264.264 0 0 1-.26.46c-.307-.173-.676-.496-1.014-.843.032.325.032.694-.014 1.127a.263.263 0 0 1-.262.236h-.028a.264.264 0 0 1-.234-.29c.128-1.21-.11-1.852-.47-2.325.16.822.055 1.91-.554 3.493a.264.264 0 0 1-.492-.19c1.18-3.065.378-3.983-.55-5.045-.37-.422-.762-.873-1.05-1.477.082 1.033.215 1.88.33 2.616.35 2.212.56 3.548-1.173 5.988a.262.262 0 0 1-.368.062.264.264 0 0 1-.062-.368c1.274-1.793 1.422-2.91 1.26-4.363a3.82 3.82 0 0 1-.357.495c-.33.407-.64.793-.575 1.874a.264.264 0 0 1-.247.28h-.015a.264.264 0 0 1-.263-.25c-.078-1.285.33-1.79.692-2.237.36-.445.67-.83.483-2.083a28.944 28.944 0 0 1-.222-1.844c-.283.577-.75 1.206-1.528 1.862-.928.782-.676 1.636-.385 2.623.19.648.388 1.317.265 2.012a.263.263 0 0 1-.52-.09c.102-.575-.077-1.183-.25-1.77a9.547 9.547 0 0 1-.216-.823l-.066.31c-.195.91-.396 1.855-1.62 2.657a.264.264 0 0 1-.287-.44c1.04-.684 1.203-1.445 1.39-2.328.083-.384.17-.792.344-1.203-.075.046-.15.09-.222.132-.772.457-1.198.708-1.37 1.68a.263.263 0 1 1-.518-.092c.213-1.21.803-1.56 1.62-2.043.43-.255.92-.543 1.496-1.03.91-.77 1.354-1.48 1.57-2.108-.07.086-.144.17-.226.246-.784.735-2.06 1.05-3.796.945-.77.142-.857.562-.975 1.488-.108.842-.24 1.89-1.16 2.98a.26.26 0 0 1-.372.03.264.264 0 0 1-.032-.37c.82-.972.942-1.934 1.04-2.706.07-.537.136-1.055.44-1.43-.286.02-.547.054-.783.103-.674.28-.703.634-.754 1.273-.036.428-.08.96-.365 1.55a.263.263 0 0 1-.352.12.264.264 0 0 1-.122-.352c.244-.5.28-.956.313-1.36.023-.282.046-.558.135-.813-1.014.588-1.173 1.452-1.183 1.51a.264.264 0 1 1-.52-.087c.13-.775.845-1.924 2.656-2.33l.008-.005a.26.26 0 0 1 .095-.02 7.292 7.292 0 0 1 1.93-.11c1.58.105 2.767-.172 3.436-.8.37-.348.528-.747.585-1.09H.555a.35.35 0 0 1 0-.703h10.34v-4.783l-2.82-1.63c-.22.217-.492.38-.794.473a2 2 0 1 1 1.144-2.8 1.936 1.936 0 0 1 .178 1.413l2.292 1.326v-2.63zm6.213 1.392a1.12 1.12 0 1 0-1.938-1.12l.03.018a1.062 1.062 0 0 0 .002 1.07 1.07 1.07 0 0 0 1.85 0l.056.032zm-10.122.47a1.12 1.12 0 1 0-1.28-.45l.085-.05a1.068 1.068 0 0 0 1.196.5zm5.405-3.195a1.12 1.12 0 1 0-1.912-.016l.017-.01a1.07 1.07 0 0 0 1.852 0l.044.026zM2 8.48a1.12 1.12 0 1 0 0-2.24 1.12 1.12 0 0 0 0 2.24zM2 14a1.12 1.12 0 1 0 0-2.24A1.12 1.12 0 0 0 2 14zm4.72-8.16a1.12 1.12 0 1 0 0-2.24 1.12 1.12 0 0 0 0 2.24zm4.72-2.72a1.12 1.12 0 1 0 0-2.24 1.12 1.12 0 0 0 0 2.24zm0 5.36a1.12 1.12 0 1 0 0-2.24 1.12 1.12 0 0 0 0 2.24zm-4.72 2.8a1.12 1.12 0 1 0 0-2.24 1.12 1.12 0 0 0 0 2.24zm9.36-5.52a1.12 1.12 0 1 0 0-2.24 1.12 1.12 0 0 0 0 2.24zm4.72 2.8a1.12 1.12 0 1 0 0-2.24 1.12 1.12 0 0 0 0 2.24zm0 5.36a1.12 1.12 0 1 0 0-2.24 1.12 1.12 0 0 0 0 2.24zm-4.72-2.64a1.12 1.12 0 1 0 0-2.24 1.12 1.12 0 0 0 0 2.24zm0 5.36a1.12 1.12 0 1 0 0-2.24 1.12 1.12 0 0 0 0 2.24zm4.72 2.8a1.12 1.12 0 1 0 0-2.24 1.12 1.12 0 0 0 0 2.24zM6.72 16.72a1.12 1.12 0 1 0 0-2.24 1.12 1.12 0 0 0 0 2.24zM2 19.44a1.12 1.12 0 1 0 0-2.24 1.12 1.12 0 0 0 0 2.24zM36.18 4.56v-.68H31.3v.68h2.06V11h.76V4.56h2.06zM41.93 11v-.68h-3.66V7.75h3.12v-.68h-3.12V4.56h3.66v-.68h-4.42V11h4.42zm6.47 0V3.88h-4.89V11h.76V4.56h3.37V11h.76zm6.78 0V3.88h-3.92v2.89c0 2.96-.63 3.55-1.51 3.55h-.19V11h.36C51.28 11 52 10 52 7V4.56h2.42V11h.76zm7.16 0V3.88h-.72L58 9.68v-5.8h-.76V11h.72l3.62-5.81V11h.76zm7.8 1.72v-2.4h-.85V3.88h-.76v6.44h-3.37V3.88h-.76V11h4.99v1.72h.75zm6.4-1.72l-2.61-7.12h-.64L70.67 11h.81l.57-1.61h3.11l.57 1.61h.81zm-1.6-2.27h-2.66l1.34-3.76 1.32 3.76zM36.72 20.04h-.76c-.19.87-.82 1.44-1.71 1.44-.47 0-.92-.18-1.23-.5-.45-.46-.5-.95-.5-2.44s.05-1.98.5-2.44c.31-.32.76-.5 1.23-.5.89 0 1.5.57 1.69 1.44h.78c-.24-1.34-1.19-2.12-2.47-2.12-.7 0-1.34.26-1.82.74-.67.67-.67 1.37-.67 2.88 0 1.51 0 2.21.67 2.88.48.48 1.12.74 1.82.74 1.27 0 2.24-.78 2.47-2.12zm6.19-1.99c0-.87-.05-1.77-.67-2.39-.48-.48-1.12-.74-1.82-.74s-1.34.26-1.82.74c-.61.61-.67 1.48-.67 2.33v.55c0 1.42.02 2.23.67 2.88.48.48 1.11.74 1.82.74s1.34-.26 1.82-.74c.65-.65.67-1.46.67-2.88v-.49zm-.76.84c0 .82-.01 1.59-.5 2.08-.33.33-.76.51-1.23.51s-.9-.18-1.23-.51c-.46-.46-.5-1.16-.5-1.93v-.71c0-.98 0-1.72.5-2.22.33-.33.77-.51 1.23-.51.46 0 .9.18 1.23.51.47.47.5 1.21.5 2.05v.73zm8.29 4.93v-2.4h-.85v-6.44h-.76v6.44h-3.37v-6.44h-.76v7.12h4.99v1.72h.75zm6.54-1.72v-7.12h-.72l-3.62 5.8v-5.8h-.76v7.12h.72l3.62-5.81v5.81h.76zm7.02 0l-2.61-7.12h-.64l-2.62 7.12h.81l.57-1.61h3.11l.57 1.61H64zm-1.6-2.27h-2.66l1.34-3.76 1.32 3.76zm7.46 2.27v-7.12h-3.92v2.89c0 2.96-.63 3.55-1.51 3.55h-.19v.68h.36c1.36 0 2.08-1 2.08-4v-2.44h2.42v6.44h.76zm6.93-2.09c0-1.26-.87-2.1-2.2-2.1h-1.91v-2.93h-.76v7.12h2.67c1.32 0 2.2-.84 2.2-2.09zm-.77 0c0 .89-.55 1.41-1.5 1.41h-1.84v-2.83h1.84c.95 0 1.5.52 1.5 1.42zm7.1 2.09v-7.12h-.76v3.19h-3.38v-3.19h-.76v7.12h.76v-3.25h3.38v3.25h.76zm8.64 0v-7.12H91v7.12h.76zm-1.71-2.09c0-1.26-.87-2.1-2.2-2.1h-1.91v-2.93h-.76v7.12h2.67c1.32 0 2.2-.84 2.2-2.09zm-.77 0c0 .89-.55 1.41-1.5 1.41h-1.84v-2.83h1.84c.95 0 1.5.52 1.5 1.42zm8.87 2.09l-2.2-3.65L98 14.98h-.88l-1.58 2.81-1.58-2.81h-.88l2.04 3.47-2.18 3.65h.86l1.74-2.99 1.73 2.99h.88zM36.18 27.56v-.68H31.3v.68h2.06V34h.76v-6.44h2.06zM41.93 34v-.68h-3.66v-2.57h3.12v-.68h-3.12v-2.51h3.66v-.68h-4.42V34h4.42zm5.91 0l-2.2-3.65 2.05-3.47h-.88l-1.58 2.81-1.58-2.81h-.88l2.04 3.47L42.63 34h.86l1.74-2.99L46.96 34h.88zm6.08 0v-7.12h-.76v3.19h-3.38v-3.19h-.76V34h.76v-3.25h3.38V34h.76zm6.77-4.05c0-.87-.05-1.77-.67-2.39-.48-.48-1.12-.74-1.82-.74s-1.34.26-1.82.74c-.61.61-.67 1.48-.67 2.33v.55c0 1.42.02 2.23.67 2.88.48.48 1.11.74 1.82.74s1.34-.26 1.82-.74c.65-.65.67-1.46.67-2.88v-.49zm-.76.84c0 .82-.01 1.59-.5 2.08-.33.33-.76.51-1.23.51s-.9-.18-1.23-.51c-.46-.46-.5-1.16-.5-1.93v-.71c0-.98 0-1.72.5-2.22.33-.33.77-.51 1.23-.51.46 0 .9.18 1.23.51.47.47.5 1.21.5 2.05v.73zM66.99 34v-7.12h-3.92v2.89c0 2.96-.63 3.55-1.51 3.55h-.19V34h.36c1.36 0 2.08-1 2.08-4v-2.44h2.42V34h.76zm6.77-4.05c0-.87-.05-1.77-.67-2.39-.48-.48-1.12-.74-1.82-.74s-1.34.26-1.82.74c-.61.61-.67 1.48-.67 2.33v.55c0 1.42.02 2.23.67 2.88.48.48 1.11.74 1.82.74s1.34-.26 1.82-.74c.65-.65.67-1.46.67-2.88v-.49zm-.76.84c0 .82-.01 1.59-.5 2.08-.33.33-.76.51-1.23.51s-.9-.18-1.23-.51c-.46-.46-.5-1.16-.5-1.93v-.71c0-.98 0-1.72.5-2.22.33-.33.77-.51 1.23-.51.46 0 .9.18 1.23.51.47.47.5 1.21.5 2.05v.73zm6.9-3.23v-.68h-4.28V34h.76v-6.44h3.52zM86.34 34v-7.12h-.72L82 32.68v-5.8h-.76V34h.72l3.62-5.81V34h.76zm7.16 0v-7.12h-.72l-3.62 5.8v-5.8h-.76V34h.72l3.62-5.81V34h.76zm-1.09-8.83h-.64c-.04.49-.33.74-.82.74-.49 0-.78-.25-.82-.74h-.64c.06.89.63 1.26 1.46 1.26s1.4-.37 1.46-1.26z"/></g></symbol><symbol id="icon-telegram" viewBox="0 0 32 27"><path d="M29.84.177L1.494 11.11c-1.935.777-1.923 1.856-.353 2.337l7.07 2.206 2.706 8.294c.33.907.166 1.267 1.12 1.267.735 0 1.06-.335 1.47-.735l3.536-3.44 7.353 5.434c1.353.746 2.33.36 2.667-1.257L31.89 2.47c.494-1.98-.756-2.88-2.05-2.293zM9.32 15.147L25.255 5.092c.795-.482 1.525-.223.926.31l-13.643 12.31-.532 5.666-2.685-8.234z"/></symbol><symbol id="icon-twitter" viewBox="0 0 32 26"><path d="M31.528 3.033a12.87 12.87 0 0 1-3.715 1.018A6.48 6.48 0 0 0 30.657.473a12.948 12.948 0 0 1-4.107 1.57 6.468 6.468 0 0 0-11.02 5.9A18.366 18.366 0 0 1 2.193 1.184a6.435 6.435 0 0 0-.875 3.252A6.465 6.465 0 0 0 4.197 9.82a6.45 6.45 0 0 1-2.93-.81v.082a6.473 6.473 0 0 0 5.19 6.343 6.503 6.503 0 0 1-2.923.11 6.475 6.475 0 0 0 6.042 4.492 12.976 12.976 0 0 1-8.033 2.77c-.522 0-1.037-.03-1.543-.09a18.304 18.304 0 0 0 9.916 2.905c11.898 0 18.403-9.856 18.403-18.404 0-.28-.006-.56-.02-.838a13.1 13.1 0 0 0 3.228-3.347z"/></symbol><symbol id="icon-up" viewBox="0 0 12 8"><path d="M1.41 8L6 3.41 10.59 8 12 6.58l-6-6-6 6L1.41 8z"/></symbol><symbol id="icon-viber" viewBox="0 0 31 31"><g><path d="M28.046 22.425c-.943-.76-1.95-1.44-2.943-2.136-1.978-1.39-3.788-1.5-5.264.737-.83 1.255-1.99 1.31-3.204.76-3.345-1.518-5.928-3.855-7.44-7.255-.67-1.504-.66-2.852.905-3.916.83-.563 1.665-1.23 1.598-2.458-.087-1.603-3.98-6.96-5.516-7.526-.636-.234-1.27-.22-1.916 0C.66 1.84-.83 4.806.598 8.316c4.265 10.47 11.77 17.76 22.103 22.208.59.254 1.245.355 1.576.446 2.352.025 5.108-2.242 5.904-4.49.766-2.165-.854-3.024-2.134-4.055zM16.46 1.706c7.554 1.16 11.038 4.753 12 12.36.09.703-.173 1.76.83 1.78 1.047.02.795-1.02.804-1.725C30.182 6.957 23.934.315 16.68.07 16.13.147 15-.31 14.927.917c-.047.828.907.692 1.533.788z"/><path d="M17.938 3.792c-.726-.088-1.685-.43-1.855.578-.177 1.058.892.95 1.58 1.104 4.664 1.043 6.288 2.74 7.056 7.37.11.673-.112 1.723 1.035 1.55.85-.13.543-1.03.614-1.556.036-4.443-3.77-8.487-8.432-9.046z"/><path d="M18.367 7.425c-.485.012-.96.064-1.14.582-.267.775.296.96.87 1.052 1.913.306 2.92 1.435 3.11 3.343.053.518.382.938.882.878.692-.08.755-.698.734-1.284.034-2.144-2.39-4.623-4.457-4.57z"/></g></symbol><symbol id="icon-vk" viewBox="0 0 32 21"><path d="M.005 1.527c-.22-1.336 6.24-.51 6.24-.51s3.75 9.418 5.23 9.418c1.477 0 .765-7.985.765-7.985s-1.833-.478-1.833-1.21C10.407.51 12.24 0 12.24 0h5.393c.646 0 .903 1.05.903 1.75v8.558h1.478s1.316-2.115 2.354-4.263c1.038-2.15 2.3-5.027 2.3-5.027h6.267s1.15.032 1.013.986c-.186 1.3-4.356 7.466-5.228 9.576-.657 1.59 2.76 3.744 4.215 6.045.945 1.493 1.013 3.245 1.013 3.245h-7.445l-3.723-4.327s-.766-.318-1.368.127c-.603.446-.63 1.337-.63 1.337v2.863h-5.83s-4.46-1.527-8.24-8.208C.937 5.982.225 2.862.006 1.527z"/></symbol><symbol id="icon-whatsup" viewBox="0 0 32 32"><path d="M16.172 0C7.58 0 .614 6.965.614 15.558c0 2.94.815 5.688 2.232 8.033L.038 31.94l8.614-2.758a15.49 15.49 0 0 0 7.52 1.935c8.592 0 15.557-6.965 15.557-15.557C31.73 6.965 24.763 0 16.17 0zm0 28.637c-2.657 0-5.13-.797-7.197-2.163l-5.026 1.61 1.632-4.858a13.01 13.01 0 0 1-2.49-7.668c0-7.213 5.867-13.08 13.08-13.08 7.212 0 13.08 5.867 13.08 13.08 0 7.212-5.868 13.08-13.08 13.08zm-3.65-19.514c-.25-.608-.444-.628-.834-.647a8.936 8.936 0 0 0-.436-.012c-.502 0-1.022.147-1.335.468-.382.39-1.335 1.304-1.335 3.18 0 1.877 1.367 3.69 1.557 3.944.19.255 2.664 4.16 6.514 5.757 3.005 1.244 3.897 1.133 4.583.983.997-.217 2.25-.952 2.568-1.842.317-.89.317-1.654.222-1.813-.095-.158-.35-.253-.73-.444-.382-.19-2.258-1.113-2.607-1.24-.35-.128-.673-.09-.942.283-.37.513-.728 1.04-1.023 1.353-.232.246-.606.28-.927.144-.422-.18-1.61-.594-3.067-1.893-1.132-1.01-1.898-2.26-2.12-2.64-.223-.382-.02-.61.152-.817.195-.237.376-.407.566-.63.19-.222.297-.34.425-.596.127-.253.04-.516-.054-.707-.097-.19-.86-2.066-1.177-2.83z"/></symbol><symbol id="icon-youtube" viewBox="0 0 24 24"><path d="M10 16.5v-9l6 4.5m4-7.6c-.6-.2-4.3-.4-8-.4s-7.4.19-8 .38C2.44 4.9 2 8.4 2 12c0 3.59.44 7.1 2 7.61.6.2 4.3.39 8 .39s7.4-.19 8-.39c1.56-.51 2-4.02 2-7.61 0-3.6-.44-7.09-2-7.6z"/></symbol></svg>