<svg xmlns="http://www.w3.org/2000/svg" xmlns:xlink="http://www.w3.org/1999/xlink"><defs><path id="a" d="M3.05 7.427c0 .195-.052.378-.143.536L5.76 9.61a1.067 1.067 0 0 1 1.853 0l2.854-1.65a1.062 1.062 0 0 1 0-1.07l-.76-.438a1.933 1.933 0 0 0-.2 1.455l-1.46.844a1.94 1.94 0 0 0-2.72 0l-1.46-.844c.04-.153.063-.314.063-.48a1.94 1.94 0 0 0-.063-.483l1.46-.843c.35.344.83.556 1.36.556a1.95 1.95 0 0 0 1.685-.976l-.76-.44a1.07 1.07 0 0 1-1.85 0L2.906 6.893c.09.157.144.34.144.535"/><path d="M9.707 2.96l.76-.44a1.07 1.07 0 0 0 1.853 0l.76.44a1.96 1.96 0 0 1-1.16.903V5.55c.492.138.906.467 1.158.9l-.76.44a1.07 1.07 0 0 0-1.85 0l-.76-.438a1.957 1.957 0 0 1 1.157-.902V3.863a1.96 1.96 0 0 1-1.158-.903zm4.706.77a1.936 1.936 0 0 0 0 1.95l.76-.44a1.063 1.063 0 0 1 0-1.07l-.76-.44zm-6.656.976c0 .195-.053.378-.144.535l.76.44a1.937 1.937 0 0 0 0-1.95l-.76.44c.09.16.144.34.144.536z" id="b"/><path d="M14.15 10.143c0-.354.096-.686.262-.973l.76.44a1.066 1.066 0 0 0 0 1.07l-.758.44a1.934 1.934 0 0 1-.264-.977zm-2.758-1.646c-.395 0-.74-.216-.925-.536L7.613 9.61a1.067 1.067 0 0 1 0 1.07l.76.44a1.933 1.933 0 0 0 .2-1.455l1.46-.844c.23.225.515.392.832.48v3.26l.527.306.528-.306V9.3c.493-.137.906-.466 1.158-.9l-.76-.44c-.185.32-.53.537-.926.537z" id="c"/><path id="d" d="M.295 11.893l.76.44c.184-.322.53-.54.926-.54.397 0 .743.218.928.54l.76-.44a1.96 1.96 0 0 0-1.16-.904V9.302c.318-.09.604-.257.834-.482l1.46.845c-.04.154-.064.315-.064.48 0 .357.097.69.264.976l.76-.44a1.063 1.063 0 0 1 0-1.07L2.906 7.964a1.07 1.07 0 0 1-1.852 0l-.76.438c.252.435.666.764 1.16.903v1.686c-.495.14-.91.47-1.16.903"/><path d="M3.93 12.866c0 .355-.097.688-.264.975l-.76-.438a1.064 1.064 0 0 0 .002-1.07l.76-.44c.165.288.262.62.262.974zm2.757 1.648c.396 0 .74.216.926.537l3.78-2.184-.528-.306-2.82 1.63a1.94 1.94 0 0 0-1.358-.555c-.72 0-1.35.394-1.687.977l.76.44c.185-.32.53-.538.927-.538zm0-2.417c.72 0 1.348-.394 1.685-.977l-.76-.44a1.067 1.067 0 0 1-1.85 0l-.76.44c.337.583.965.977 1.685.977z" id="e"/><path id="f" d="M21.332 10.99V9.3c.493-.138.906-.467 1.158-.902l-.76-.44a1.07 1.07 0 0 1-1.852 0l-2.853 1.65a1.065 1.065 0 0 1 0 1.072l.758.44a1.936 1.936 0 0 0 .202-1.458l1.46-.843c.228.224.514.392.832.48v1.69c-.493.137-.906.466-1.158.9l.758.44a1.07 1.07 0 0 1 1.852 0l.76-.44a1.957 1.957 0 0 0-1.158-.9"/><path d="M19.878 13.4l-.76.44a1.938 1.938 0 0 1 0-1.95l.76.44a1.067 1.067 0 0 0 0 1.07zm-5.14.788L11.92 12.56l-.528.306 3.78 2.184a1.068 1.068 0 0 1 1.853 0l.76-.44a1.958 1.958 0 0 0-1.16-.903V12.02c.493-.14.906-.468 1.158-.9l-.76-.44a1.07 1.07 0 0 1-1.85 0l-.76.44c.253.432.666.76 1.158.9v1.687a1.95 1.95 0 0 0-.83.48z" id="g"/><path d="M5.76 16.122l-2.852 1.65a1.07 1.07 0 0 0-1.855 0l-.76-.44a1.94 1.94 0 0 1 3.047-.423l1.462-.843a1.94 1.94 0 0 1 .2-1.454l.76.44a1.064 1.064 0 0 0 0 1.07zm-3.78-1.306c.72 0 1.348-.393 1.686-.975l-.76-.438a1.068 1.068 0 0 1-1.85 0l-.76.44c.338.58.966.974 1.685.974z" id="h"/><path d="M22.49 17.33l-.76.44a1.07 1.07 0 0 0-1.852 0l-2.854-1.65a1.067 1.067 0 0 0 0-1.07l.76-.44a1.932 1.932 0 0 1 .2 1.454l1.462.845a1.942 1.942 0 0 1 3.044.42zm-1.686-2.516c.72 0 1.348-.393 1.686-.975l-.76-.44a1.07 1.07 0 0 1-1.852 0l-.76.44c.338.58.967.974 1.686.974z" id="i"/><path id="j" d="M11.393 16.356c-.528 0-1.007.212-1.36.554l-1.46-.844a1.93 1.93 0 0 0 .062-.48c0-.167-.022-.328-.062-.482l2.82-1.63 2.82 1.628a1.936 1.936 0 0 0 .2 1.457l.76-.44a1.067 1.067 0 0 1 0-1.07l-3.78-2.184-3.78 2.185a1.068 1.068 0 0 1 0 1.072l2.854 1.65a1.07 1.07 0 0 1 1.85 0l.76-.44a1.95 1.95 0 0 0-1.684-.976"/><path d="M17.784 20.05l-.76.44a1.068 1.068 0 0 0-1.852 0l-.76-.44a1.948 1.948 0 0 1 1.687-.976c.72 0 1.347.393 1.684.977zm1.95-1.745c0-.196.053-.378.144-.535l-2.854-1.65a1.07 1.07 0 0 1-1.85 0l-.76.44a1.94 1.94 0 0 0 3.045.42l1.46.842a1.937 1.937 0 0 0 .2 1.457l.758-.44a1.067 1.067 0 0 1-.144-.535zm-7.27 0c0 .197-.054.38-.146.537l.76.44a1.93 1.93 0 0 0 0-1.95l-.76.44c.092.156.145.34.145.534z" id="k"/><path id="l" d="M6.687 19.074c-.72 0-1.35.394-1.687.978l.76.44a1.07 1.07 0 0 1 1.854 0l.76-.44a1.948 1.948 0 0 0-1.687-.978"/><path id="m" d="M3.665 19.28a1.94 1.94 0 0 0 .202-1.456l1.46-.844a1.94 1.94 0 0 0 2.72 0l1.46.844a1.933 1.933 0 0 0 .2 1.457l.76-.44a1.07 1.07 0 0 1 0-1.07l-2.855-1.648a1.068 1.068 0 0 1-1.85 0l-2.854 1.65a1.065 1.065 0 0 1-.002 1.07l.76.44"/><path d="M14.412 5.68l.76-.44a1.07 1.07 0 0 0 1.853 0l2.854 1.65a1.063 1.063 0 0 0-.002 1.07l-2.853 1.65a1.07 1.07 0 0 0-1.854 0l-.758-.44a1.94 1.94 0 0 1 3.046-.422l1.46-.843a1.93 1.93 0 0 1-.063-.48c0-.166.024-.328.063-.482l-1.46-.843a1.94 1.94 0 0 1-3.046-.42zm-1.95 1.745c0 .196-.052.378-.144.536l.76.44a1.932 1.932 0 0 0 0-1.95l-.76.44c.092.158.144.34.144.535z" id="n"/><path d="M5 3.732a1.948 1.948 0 0 1 1.687-.977c.72 0 1.348.394 1.685.976l-.76.44a1.068 1.068 0 0 0-1.85 0L5 3.733zm4.708-2.72a1.936 1.936 0 0 0 0 1.948l.758-.44a1.064 1.064 0 0 1 0-1.07l-.758-.44z" id="o"/><path id="p" d="M1.055 6.892a1.07 1.07 0 0 1 1.852 0l2.854-1.65a1.064 1.064 0 0 1 0-1.07L5 3.73a1.94 1.94 0 0 0-.2 1.454l-1.462.844a1.94 1.94 0 0 0-3.043.423l.76.44"/><path id="q" d="M20.804 5.475c-.528 0-1.007.21-1.358.555l-1.46-.844a1.922 1.922 0 0 0-.203-1.455l-.76.44a1.067 1.067 0 0 1 .002 1.07l2.854 1.65a1.07 1.07 0 0 1 1.85 0l.76-.44a1.947 1.947 0 0 0-1.686-.975"/><path d="M17.783 3.73l-.76.44a1.07 1.07 0 0 0-1.85 0l-.76-.44a1.95 1.95 0 0 1 1.686-.975c.718 0 1.345.394 1.683.976zm-5.32-1.743c0 .194-.053.376-.143.534l.76.44a1.93 1.93 0 0 0-.003-1.95l-.76.44c.092.158.145.34.145.537z" id="r"/><path d="M17.024 21.56a1.067 1.067 0 0 0 0-1.07l.76-.44a1.938 1.938 0 0 1 0 1.95l-.76-.44zm5.466-2.28l-.76-.44a1.07 1.07 0 0 1-1.852 0l-.76.44c.338.58.967.975 1.686.975.72 0 1.348-.394 1.686-.976z" id="s"/><path d="M.297 19.28l.76-.438a1.07 1.07 0 0 0 1.85 0l.758.44a1.947 1.947 0 0 1-1.684.973 1.948 1.948 0 0 1-1.683-.974zm5.32 1.744c0-.194.052-.376.142-.533L5 20.053a1.935 1.935 0 0 0 .003 1.95l.76-.44a1.064 1.064 0 0 1-.146-.538z" id="t"/><path id="u" d="M.91 18.305c0-.194.053-.376.143-.533l-.76-.44a1.94 1.94 0 0 0 .004 1.95l.76-.44a1.066 1.066 0 0 1-.146-.537"/></defs><symbol id="icon-facebook" viewBox="0 0 15 32"><path d="M14.66 10.216H9.667V6.94c0-1.228.815-1.515 1.39-1.515h3.523V.02L9.727 0C4.34 0 3.115 4.032 3.115 6.612v3.604H0v5.57h3.115V31.55h6.552V15.785h4.42l.573-5.57z"/></symbol><symbol id="pic-te-st" viewBox="0 0 87 40"><g fill="none" fill-rule="evenodd"><path d="M37.18 6.56v-.68H32.3v.68h2.06V13h.76V6.56h2.06zm4.21 4.17v-.33c0-1.47-.77-2.38-2.02-2.38s-2.02.94-2.02 2.49c0 1.67.75 2.55 2.17 2.55.36 0 .68-.06.95-.17.3-.12.47-.24.83-.59l-.49-.43c-.27.26-.4.35-.62.44-.18.07-.4.12-.63.12-.67 0-1.11-.26-1.34-.81-.1-.24-.13-.44-.15-.89h3.32zm-.72-.54h-2.6c.02-.44.05-.6.15-.82.2-.46.63-.74 1.15-.74.58 0 1.04.34 1.21.91.06.18.07.27.09.65zM46.74 13V8.08h-3.81V13h.71V8.7h2.38V13h.72zm5.46 0V8.08h-3.15v2.11c0 2.05-.6 2.19-1.04 2.19h-.16V13h.33c.9 0 1.56-.54 1.56-2.6V8.7h1.74V13h.72zm5.77 0V8.08h-.72l-2.53 3.79V8.08h-.71V13h.71l2.53-3.81V13h.72zm6.36 1.47v-2.09h-.74v-4.3h-.72v4.3h-2.38v-4.3h-.71V13h3.85v1.47h.7zM69.07 13V9.66c0-1.09-.67-1.64-1.99-1.64-.47 0-.82.06-1.1.2-.24.12-.36.23-.62.53l.49.45c.18-.24.28-.33.45-.41.2-.1.44-.15.76-.15.9 0 1.29.33 1.29 1.08v.47h-1.48c-1.06 0-1.7.53-1.7 1.42 0 .94.61 1.45 1.75 1.45.38 0 .64-.03.87-.13.2-.08.32-.17.56-.4V13h.72zm-.72-1.74c0 .84-.37 1.18-1.29 1.18-.83 0-1.19-.25-1.19-.84 0-.58.37-.87 1.1-.87h1.38v.53zM36.43 23.33l-.49-.47c-.26.27-.38.37-.58.46-.16.07-.33.1-.54.1-.97 0-1.47-.64-1.47-1.88 0-1.24.51-1.88 1.48-1.88.21 0 .39.04.55.11.19.08.31.18.56.44l.49-.46c-.33-.34-.49-.46-.76-.58-.24-.1-.51-.15-.83-.15-1.38 0-2.21.95-2.21 2.52s.83 2.52 2.21 2.52c.32 0 .59-.05.83-.15.27-.12.43-.24.76-.58zm5.13-1.82c0-.92-.18-1.51-.6-1.93a1.97 1.97 0 0 0-1.41-.56c-.56 0-1.05.2-1.41.56-.42.43-.6 1.01-.6 1.96s.18 1.53.6 1.96c.36.36.85.56 1.41.56.56 0 1.05-.2 1.41-.56.43-.44.6-1.01.6-1.99zm-.72.06c0 .78-.11 1.2-.39 1.49-.22.23-.55.36-.9.36s-.67-.13-.89-.36c-.29-.3-.4-.72-.4-1.52s.11-1.23.4-1.52c.22-.23.55-.36.89-.36.35 0 .68.13.9.36.29.29.39.71.39 1.55zm6.82 3.9v-2.09h-.74v-4.3h-.72v4.3h-2.38v-4.3h-.71V24h3.85v1.47h.7zm5.2-1.47v-4.92h-.72l-2.53 3.79v-3.79h-.71V24h.71l2.53-3.81V24h.72zm5.31 0v-3.34c0-1.09-.67-1.64-1.99-1.64-.47 0-.82.06-1.1.2-.24.12-.36.23-.62.53l.49.45c.18-.24.28-.33.45-.41.2-.1.44-.15.76-.15.9 0 1.29.33 1.29 1.08v.47h-1.48c-1.06 0-1.7.53-1.7 1.42 0 .94.61 1.45 1.75 1.45.38 0 .64-.03.87-.13.2-.08.32-.17.56-.4V24h.72zm-.72-1.74c0 .84-.37 1.18-1.29 1.18-.83 0-1.19-.25-1.19-.84 0-.58.37-.87 1.1-.87h1.38v.53zM63.58 24v-4.92h-3.15v2.11c0 2.05-.6 2.19-1.04 2.19h-.16V24h.33c.9 0 1.56-.54 1.56-2.6v-1.7h1.74V24h.72zm5.56-1.48c0-.9-.62-1.49-1.56-1.49H66.1v-1.95h-.71V24h2.19c.94 0 1.56-.59 1.56-1.48zm-.72 0c0 .55-.32.86-.92.86h-1.4v-1.72h1.4c.6 0 .92.31.92.86zM74.26 24v-4.92h-.72v2.07h-2.38v-2.07h-.71V24h.71v-2.23h2.38V24h.72zm7.07 0v-4.92h-.72V24h.72zm-1.51-1.48c0-.9-.62-1.49-1.56-1.49h-1.48v-1.95h-.71V24h2.19c.94 0 1.56-.59 1.56-1.48zm-.72 0c0 .55-.32.86-.92.86h-1.4v-1.72h1.4c.6 0 .92.31.92.86zM86.79 24l-1.67-2.51 1.6-2.41h-.87l-1.11 1.82-1.13-1.82h-.87l1.6 2.41L82.67 24h.87l1.2-1.91L85.92 24h.87zm-50.66 6.7v-.62h-4.02v.62h1.69V35h.72v-4.3h1.61zm4.67 2.03v-.33c0-1.47-.77-2.38-2.02-2.38s-2.02.94-2.02 2.49c0 1.67.75 2.55 2.17 2.55.36 0 .68-.06.95-.17.3-.12.47-.24.83-.59l-.49-.43c-.27.26-.4.35-.62.44-.18.07-.4.12-.63.12-.67 0-1.11-.26-1.34-.81-.1-.24-.13-.44-.15-.89h3.32zm-.72-.54h-2.6c.02-.44.05-.6.15-.82.2-.46.63-.74 1.15-.74.58 0 1.04.34 1.21.91.06.18.07.27.09.65zm5.7 2.81l-1.67-2.51 1.6-2.41h-.87l-1.11 1.82-1.13-1.82h-.87l1.6 2.41L41.66 35h.87l1.2-1.91L44.91 35h.87zm5.05 0v-4.92h-.72v2.07h-2.38v-2.07h-.71V35h.71v-2.23h2.38V35h.72zm5.56-2.49c0-.92-.18-1.51-.6-1.93a1.97 1.97 0 0 0-1.41-.56c-.56 0-1.05.2-1.41.56-.42.43-.6 1.01-.6 1.96s.18 1.53.6 1.96c.36.36.85.56 1.41.56.56 0 1.05-.2 1.41-.56.43-.44.6-1.01.6-1.99zm-.72.06c0 .78-.11 1.2-.39 1.49-.22.23-.55.36-.9.36s-.67-.13-.89-.36c-.29-.3-.4-.72-.4-1.52s.11-1.23.4-1.52c.22-.23.55-.36.89-.36.35 0 .68.13.9.36.29.29.39.71.39 1.55zM61.49 35v-4.92h-3.15v2.11c0 2.05-.6 2.19-1.04 2.19h-.16V35h.33c.9 0 1.56-.54 1.56-2.6v-1.7h1.74V35h.72zm5.56-2.49c0-.92-.18-1.51-.6-1.93a1.97 1.97 0 0 0-1.41-.56c-.56 0-1.05.2-1.41.56-.42.43-.6 1.01-.6 1.96s.18 1.53.6 1.96c.36.36.85.56 1.41.56.56 0 1.05-.2 1.41-.56.43-.44.6-1.01.6-1.99zm-.72.06c0 .78-.11 1.2-.39 1.49-.22.23-.55.36-.9.36s-.67-.13-.89-.36c-.29-.3-.4-.72-.4-1.52s.11-1.23.4-1.52c.22-.23.55-.36.89-.36.35 0 .68.13.9.36.29.29.39.71.39 1.55zm5.42-1.87v-.62h-3.12V35h.72v-4.3h2.4zm4.98 4.3v-4.92h-.72l-2.53 3.79v-3.79h-.71V35h.71l2.53-3.81V35h.72zm5.25-7.04h-.64c-.04.5-.33.75-.82.75-.49 0-.78-.25-.82-.75h-.64c.06.9.63 1.26 1.46 1.26s1.4-.36 1.46-1.26zM82.5 35v-4.92h-.72l-2.53 3.79v-3.79h-.71V35h.71l2.53-3.81V35h.72z" fill="#111"/><g><use fill="#F38D06" xlink:href="#a"/><use fill="#DEDE02" xlink:href="#b"/><use fill="#DB9906" xlink:href="#c"/><use fill="#E6201E" xlink:href="#d"/><use fill="#BE0C39" xlink:href="#e"/><path d="M.91 12.866c0-.195.053-.377.144-.534l-.76-.44a1.936 1.936 0 0 0 .002 1.95l.76-.44a1.064 1.064 0 0 1-.145-.536" fill="#B70E0B"/><use fill="#A9CA0F" xlink:href="#f"/><path d="M21.874 12.864c0 .196-.053.378-.144.536l.76.44a1.938 1.938 0 0 0 0-1.95l-.76.44c.09.156.144.34.144.534" fill="#00A8B0"/><use fill="#419F62" xlink:href="#g"/><use fill="#E6005B" xlink:href="#h"/><use xlink:href="#h"/><use fill="#168B8F" xlink:href="#i"/><use fill="#AF0E79" xlink:href="#j"/><use fill="#1269B6" xlink:href="#k"/><use fill="#702282" xlink:href="#l"/><use fill="#7F1F82" xlink:href="#m"/><use fill="#6EB62A" xlink:href="#n"/><use fill="#FFD102" xlink:href="#o"/><path d="M10.467 1.45a1.068 1.068 0 0 1 1.85 0l.76-.44a1.948 1.948 0 0 0-1.685-.974c-.72 0-1.347.393-1.684.975l.76.44" fill="#DEDC00"/><use fill="#F7AB02" xlink:href="#p"/><path d="M.91 7.427c0-.195.054-.378.145-.535l-.76-.44a1.94 1.94 0 0 0 0 1.95l.76-.44a1.067 1.067 0 0 1-.144-.535" fill="#ED6607"/><use fill="#DCDD02" xlink:href="#q"/><path d="M21.874 7.425c0 .196-.053.377-.143.534l.76.438a1.934 1.934 0 0 0 0-1.948l-.76.44c.09.157.144.34.144.535" fill="#76B82A"/><use fill="#B8CF09" xlink:href="#r"/><use fill="#0E70BC" xlink:href="#s"/><use fill="#B80D79" xlink:href="#t"/><path d="M21.874 18.305c0 .195-.053.377-.144.535l.76.44a1.937 1.937 0 0 0 0-1.95l-.76.44c.09.157.144.34.144.535" fill="#0090D7"/><use fill="#C52987" xlink:href="#u"/><path d="M22.26 28.83H11.92v-4.782l2.82-1.63A1.94 1.94 0 0 0 17.782 22l-.76-.44a1.07 1.07 0 0 1-1.85-1.07l-.76-.44a1.936 1.936 0 0 0-.2 1.455L11.92 22.83v-2.648a1.96 1.96 0 0 0 1.158-.9l-.76-.44a1.07 1.07 0 0 1-1.85 0l-.76.44a1.96 1.96 0 0 0 1.158.9v2.647l-2.292-1.326a1.938 1.938 0 0 0-.2-1.452l-.76.44a1.065 1.065 0 0 1-.003 1.07 1.068 1.068 0 0 1-1.848 0l-.76.44c.338.58.966.972 1.685.972.53 0 1.01-.212 1.36-.556l2.82 1.63v4.782H.524a.352.352 0 0 0 0 .704h10.32c-.056.343-.212.74-.585 1.09-.668.627-1.856.904-3.437.8a7.292 7.292 0 0 0-1.93.11.26.26 0 0 0-.093.02c-.003 0-.005.002-.008.003-1.81.408-2.526 1.556-2.656 2.332a.263.263 0 1 0 .52.085c.01-.058.17-.922 1.183-1.508-.09.255-.113.53-.135.812-.033.403-.07.86-.313 1.36a.264.264 0 0 0 .474.23c.287-.59.33-1.12.364-1.548.05-.64.08-.994.754-1.274.237-.048.497-.083.784-.102-.305.375-.372.892-.44 1.43-.1.772-.22 1.734-1.04 2.705a.264.264 0 1 0 .402.34c.92-1.09 1.054-2.137 1.16-2.98.118-.925.205-1.345.976-1.487 1.735.107 3.01-.21 3.795-.944.083-.08.157-.162.227-.248-.216.627-.66 1.34-1.57 2.108-.576.487-1.065.776-1.496 1.03-.816.484-1.406.833-1.62 2.044a.264.264 0 1 0 .52.09c.17-.97.597-1.222 1.37-1.68.07-.04.146-.086.222-.132-.173.412-.26.82-.343 1.203-.19.882-.352 1.643-1.392 2.326a.264.264 0 0 0 .29.442c1.22-.802 1.422-1.745 1.617-2.657.022-.105.044-.208.068-.31.056.28.136.555.215.82.173.59.352 1.198.25 1.77a.264.264 0 0 0 .52.093c.123-.696-.074-1.365-.265-2.012-.29-.987-.542-1.84.385-2.623.777-.656 1.245-1.285 1.53-1.862.058.692.138 1.3.22 1.846.187 1.253-.124 1.638-.483 2.083-.36.445-.77.95-.692 2.237.01.14.125.248.263.248h.016a.264.264 0 0 0 .248-.28c-.066-1.082.245-1.467.575-1.875a3.82 3.82 0 0 0 .356-.493c.163 1.453.015 2.57-1.26 4.362a.264.264 0 1 0 .43.305c1.734-2.44 1.524-3.776 1.175-5.988-.116-.734-.25-1.582-.333-2.615.29.603.682 1.055 1.05 1.476.93 1.063 1.73 1.98.552 5.046a.264.264 0 0 0 .492.19c.61-1.584.712-2.672.552-3.494.362.473.6 1.114.47 2.324a.264.264 0 0 0 .235.29l.028.002c.134 0 .248-.1.263-.236.046-.434.046-.802.014-1.127.338.347.707.67 1.015.843a.266.266 0 0 0 .36-.1.264.264 0 0 0-.102-.36c-.547-.308-1.41-1.26-1.703-1.727-.004-.008-.01-.014-.014-.02-.222-.348-.494-.608-.754-.853-.195-.184-.38-.357-.536-.56l-.008-.01c-.15-.192-.31-.375-.468-.557-.383-.437-.773-.885-1.035-1.5.56.492 1.413.674 2.328.777l.01.002c1.29.142 1.477 1.074 1.693 2.153.09.45.183.918.37 1.324a.264.264 0 0 0 .478-.22c-.158-.35-.242-.767-.33-1.207-.05-.245-.1-.495-.166-.74.22.114.453.21.682.3.605.244 1.127.454 1.35.996a.263.263 0 0 0 .343.145c.134-.054.2-.21.144-.344-.308-.75-.986-1.022-1.642-1.285-.523-.21-1.018-.41-1.334-.836a2.038 2.038 0 0 0-.126-.155c1.654.15 3.243.436 3.685 2.068a.263.263 0 0 0 .508-.14c-.586-2.164-2.765-2.343-4.688-2.5-1.974-.162-3.24-.34-3.42-1.674H22.26a.35.35 0 0 0 0-.704" fill="#213A8F"/></g></g></symbol><symbol id="icon-menu" viewBox="0 0 24 21"><path d="M23.244 16.01H.75c-.413 0-.75.36-.75.8v3.42c0 .424.337.77.75.77h22.494a.76.76 0 0 0 .75-.77v-3.42c0-.44-.336-.8-.75-.8zm0-8H.75c-.413 0-.75.36-.75.8v3.42c0 .425.337.77.75.77h22.494a.76.76 0 0 0 .75-.77V8.81c0-.44-.336-.8-.75-.8zm0-8H.75C.337.01 0 .37 0 .81v3.42c0 .423.337.77.75.77h22.494a.76.76 0 0 0 .75-.77V.81c0-.44-.336-.8-.75-.8z"/></symbol><symbol id="icon-next" viewBox="0 0 15 24"><path d="M3 0L.17 2.83 9.34 12 .17 21.17 3 24l12-12L3 0z"/></symbol><symbol id="icon-ok" viewBox="0 0 19 32"><path d="M9.25 4.83a3.416 3.416 0 0 1 3.413 3.414c0 1.88-1.53 3.41-3.413 3.41a3.417 3.417 0 0 1-3.413-3.41A3.418 3.418 0 0 1 9.25 4.83zm0 11.654c4.547 0 8.243-3.696 8.243-8.24C17.493 3.698 13.797 0 9.25 0 4.705 0 1.008 3.698 1.008 8.244c0 4.544 3.697 8.24 8.242 8.24zm3.335 6.724a15.434 15.434 0 0 0 4.786-1.983 2.415 2.415 0 0 0 .758-3.33 2.413 2.413 0 0 0-3.33-.76 10.465 10.465 0 0 1-11.097 0 2.412 2.412 0 0 0-3.328.76 2.414 2.414 0 0 0 .756 3.33c1.49.935 3.108 1.6 4.786 1.983l-4.608 4.608a2.415 2.415 0 0 0 3.417 3.414l4.526-4.528 4.53 4.528c.94.943 2.47.943 3.413 0a2.413 2.413 0 0 0 0-3.414l-4.608-4.608z"/></symbol><symbol id="icon-prev" viewBox="0 0 15 25"><path d="M14.83 21.67L5.66 12.5l9.17-9.17L12 .5l-12 12 12 12 2.83-2.83z"/></symbol><symbol id="icon-telegram" viewBox="0 0 32 27"><path d="M29.84.177L1.494 11.11c-1.935.777-1.923 1.856-.353 2.337l7.07 2.206 2.706 8.294c.33.907.166 1.267 1.12 1.267.735 0 1.06-.335 1.47-.735l3.536-3.44 7.353 5.434c1.353.746 2.33.36 2.667-1.257L31.89 2.47c.494-1.98-.756-2.88-2.05-2.293zM9.32 15.147L25.255 5.092c.795-.482 1.525-.223.926.31l-13.643 12.31-.532 5.666-2.685-8.234z"/></symbol><symbol id="icon-twitter" viewBox="0 0 32 26"><path d="M31.528 3.033a12.87 12.87 0 0 1-3.715 1.018A6.48 6.48 0 0 0 30.657.473a12.948 12.948 0 0 1-4.107 1.57 6.468 6.468 0 0 0-11.02 5.9A18.366 18.366 0 0 1 2.193 1.184a6.435 6.435 0 0 0-.875 3.252A6.465 6.465 0 0 0 4.197 9.82a6.45 6.45 0 0 1-2.93-.81v.082a6.473 6.473 0 0 0 5.19 6.343 6.503 6.503 0 0 1-2.923.11 6.475 6.475 0 0 0 6.042 4.492 12.976 12.976 0 0 1-8.033 2.77c-.522 0-1.037-.03-1.543-.09a18.304 18.304 0 0 0 9.916 2.905c11.898 0 18.403-9.856 18.403-18.404 0-.28-.006-.56-.02-.838a13.1 13.1 0 0 0 3.228-3.347z"/></symbol><symbol id="icon-viber" viewBox="0 0 31 31"><g><path d="M28.046 22.425c-.943-.76-1.95-1.44-2.943-2.136-1.978-1.39-3.788-1.5-5.264.737-.83 1.255-1.99 1.31-3.204.76-3.345-1.518-5.928-3.855-7.44-7.255-.67-1.504-.66-2.852.905-3.916.83-.563 1.665-1.23 1.598-2.458-.087-1.603-3.98-6.96-5.516-7.526-.636-.234-1.27-.22-1.916 0C.66 1.84-.83 4.806.598 8.316c4.265 10.47 11.77 17.76 22.103 22.208.59.254 1.245.355 1.576.446 2.352.025 5.108-2.242 5.904-4.49.766-2.165-.854-3.024-2.134-4.055zM16.46 1.706c7.554 1.16 11.038 4.753 12 12.36.09.703-.173 1.76.83 1.78 1.047.02.795-1.02.804-1.725C30.182 6.957 23.934.315 16.68.07 16.13.147 15-.31 14.927.917c-.047.828.907.692 1.533.788z"/><path d="M17.938 3.792c-.726-.088-1.685-.43-1.855.578-.177 1.058.892.95 1.58 1.104 4.664 1.043 6.288 2.74 7.056 7.37.11.673-.112 1.723 1.035 1.55.85-.13.543-1.03.614-1.556.036-4.443-3.77-8.487-8.432-9.046z"/><path d="M18.367 7.425c-.485.012-.96.064-1.14.582-.267.775.296.96.87 1.052 1.913.306 2.92 1.435 3.11 3.343.053.518.382.938.882.878.692-.08.755-.698.734-1.284.034-2.144-2.39-4.623-4.457-4.57z"/></g></symbol><symbol id="icon-vk" viewBox="0 0 32 21"><path d="M.005 1.527c-.22-1.336 6.24-.51 6.24-.51s3.75 9.418 5.23 9.418c1.477 0 .765-7.985.765-7.985s-1.833-.478-1.833-1.21C10.407.51 12.24 0 12.24 0h5.393c.646 0 .903 1.05.903 1.75v8.558h1.478s1.316-2.115 2.354-4.263c1.038-2.15 2.3-5.027 2.3-5.027h6.267s1.15.032 1.013.986c-.186 1.3-4.356 7.466-5.228 9.576-.657 1.59 2.76 3.744 4.215 6.045.945 1.493 1.013 3.245 1.013 3.245h-7.445l-3.723-4.327s-.766-.318-1.368.127c-.603.446-.63 1.337-.63 1.337v2.863h-5.83s-4.46-1.527-8.24-8.208C.937 5.982.225 2.862.006 1.527z"/></symbol><symbol id="icon-whatsup" viewBox="0 0 32 32"><path d="M16.172 0C7.58 0 .614 6.965.614 15.558c0 2.94.815 5.688 2.232 8.033L.038 31.94l8.614-2.758a15.49 15.49 0 0 0 7.52 1.935c8.592 0 15.557-6.965 15.557-15.557C31.73 6.965 24.763 0 16.17 0zm0 28.637c-2.657 0-5.13-.797-7.197-2.163l-5.026 1.61 1.632-4.858a13.01 13.01 0 0 1-2.49-7.668c0-7.213 5.867-13.08 13.08-13.08 7.212 0 13.08 5.867 13.08 13.08 0 7.212-5.868 13.08-13.08 13.08zm-3.65-19.514c-.25-.608-.444-.628-.834-.647a8.936 8.936 0 0 0-.436-.012c-.502 0-1.022.147-1.335.468-.382.39-1.335 1.304-1.335 3.18 0 1.877 1.367 3.69 1.557 3.944.19.255 2.664 4.16 6.514 5.757 3.005 1.244 3.897 1.133 4.583.983.997-.217 2.25-.952 2.568-1.842.317-.89.317-1.654.222-1.813-.095-.158-.35-.253-.73-.444-.382-.19-2.258-1.113-2.607-1.24-.35-.128-.673-.09-.942.283-.37.513-.728 1.04-1.023 1.353-.232.246-.606.28-.927.144-.422-.18-1.61-.594-3.067-1.893-1.132-1.01-1.898-2.26-2.12-2.64-.223-.382-.02-.61.152-.817.195-.237.376-.407.566-.63.19-.222.297-.34.425-.596.127-.253.04-.516-.054-.707-.097-.19-.86-2.066-1.177-2.83z"/></symbol><symbol id="icon-youtube" viewBox="0 0 24 24"><path d="M10 16.5v-9l6 4.5m4-7.6c-.6-.2-4.3-.4-8-.4s-7.4.19-8 .38C2.44 4.9 2 8.4 2 12c0 3.59.44 7.1 2 7.61.6.2 4.3.39 8 .39s7.4-.19 8-.39c1.56-.51 2-4.02 2-7.61 0-3.6-.44-7.09-2-7.6z"/></symbol></svg>