<?xml version="1.0" encoding="UTF-8" standalone="no"?>
<svg width="387px" height="387px" viewBox="0 0 387 387" version="1.1" xmlns="http://www.w3.org/2000/svg" xmlns:xlink="http://www.w3.org/1999/xlink">
    <!-- Generator: Sketch 39.1 (31720) - http://www.bohemiancoding.com/sketch -->
    <title>Group</title>
    <desc>Created with Sketch.</desc>
    <defs></defs>
    <g id="Page-1" stroke="none" stroke-width="1" fill="none" fill-rule="evenodd">
        <g id="Artboard-Copy" transform="translate(-96.000000, -181.000000)">
            <g id="Group" transform="translate(102.000000, 187.000000)">
                <path d="M41.5367939,305.974427 C34.7276336,305.974427 29.2039695,311.496157 29.2039695,318.309751 C29.2039695,325.120292 34.7276336,330.645076 41.5367939,330.645076 C48.3490076,330.645076 53.8696183,325.120292 53.8696183,318.309751 C53.8696183,311.496157 48.3490076,305.974427 41.5367939,305.974427 L41.5367939,305.974427 Z M334.132214,305.974427 C327.323053,305.974427 321.799389,311.496157 321.799389,318.309751 C321.799389,325.120292 327.323053,330.645076 334.132214,330.645076 C340.944427,330.645076 346.465038,325.120292 346.465038,318.309751 C346.465038,311.496157 340.944427,305.974427 334.132214,305.974427 L334.132214,305.974427 Z M41.5367939,44.5351838 C34.7276336,44.5351838 29.2039695,50.0599676 29.2039695,56.8705081 C29.2039695,63.6841027 34.7276336,69.2058324 41.5367939,69.2058324 C48.3490076,69.2058324 53.8696183,63.6841027 53.8696183,56.8705081 C53.8696183,50.0599676 48.3490076,44.5351838 41.5367939,44.5351838 L41.5367939,44.5351838 Z M334.132214,44.5351838 C327.323053,44.5351838 321.799389,50.0599676 321.799389,56.8705081 C321.799389,63.6841027 327.323053,69.2058324 334.132214,69.2058324 C340.944427,69.2058324 346.465038,63.6841027 346.465038,56.8705081 C346.465038,50.0599676 340.944427,44.5351838 334.132214,44.5351838 L334.132214,44.5351838 Z" id="Stroke-19" stroke="#33476F" stroke-width="11.9938931"></path>
                <path d="M187.833588,59.2725216 C116.978626,59.2725216 59.5435115,116.719278 59.5435115,187.591657 C59.5435115,258.460981 116.978626,315.910792 187.833588,315.910792 C258.691603,315.910792 316.126718,258.460981 316.126718,187.591657 C316.126718,116.719278 258.691603,59.2725216 187.833588,59.2725216 M187.833588,0.466710811 C84.5053435,0.466710811 0.746564885,84.2394135 0.746564885,187.591657 C0.746564885,290.940846 84.5053435,374.713549 187.833588,374.713549 C291.164885,374.713549 374.920611,290.940846 374.920611,187.591657 C374.920611,84.2394135 291.164885,0.466710811 187.833588,0.466710811" id="Fill-21" fill="#FFFFFF"></path>
                <path d="M187.833588,59.2725216 C116.978626,59.2725216 59.5435115,116.719278 59.5435115,187.591657 C59.5435115,258.460981 116.978626,315.910792 187.833588,315.910792 C258.691603,315.910792 316.126718,258.460981 316.126718,187.591657 C316.126718,116.719278 258.691603,59.2725216 187.833588,59.2725216 L187.833588,59.2725216 Z M187.833588,0.466710811 C84.5053435,0.466710811 0.746564885,84.2394135 0.746564885,187.591657 C0.746564885,290.940846 84.5053435,374.713549 187.833588,374.713549 C291.164885,374.713549 374.920611,290.940846 374.920611,187.591657 C374.920611,84.2394135 291.164885,0.466710811 187.833588,0.466710811 L187.833588,0.466710811 Z" id="Stroke-23" stroke="#33476F" stroke-width="11.9938931"></path>
                <path d="M131.320916,366.018657 C149.152977,371.662549 168.13313,374.713549 187.833893,374.713549 C207.736183,374.713549 226.905649,371.595359 244.896489,365.838468 L239.525496,305.059738 C223.711756,312.032143 206.227786,315.910792 187.833893,315.910792 C169.873588,315.910792 152.777405,312.212332 137.256794,305.545332 L131.320916,366.018657 Z" id="Fill-25" fill="#DD4531"></path>
                <path d="M131.320916,366.018657 C149.152977,371.662549 168.13313,374.713549 187.833893,374.713549 C207.736183,374.713549 226.905649,371.595359 244.896489,365.838468 L239.525496,305.059738 C223.711756,312.032143 206.227786,315.910792 187.833893,315.910792 C169.873588,315.910792 152.777405,312.212332 137.256794,305.545332 L131.320916,366.018657 L131.320916,366.018657 Z" id="Stroke-27" stroke="#33476F" stroke-width="11.9938931"></path>
                <path d="M187.833588,0.465794595 C168.135878,0.465794595 149.149618,3.51984865 131.320611,9.16374054 L137.256489,69.6370649 C152.777099,62.9700649 169.873282,59.2716054 187.833588,59.2716054 C206.227481,59.2716054 223.71145,63.1502541 239.525191,70.1226595 L244.896183,9.34392973 C226.905344,3.58398378 207.735878,0.465794595 187.833588,0.465794595" id="Fill-29" fill="#DD4531"></path>
                <path d="M187.833588,0.465794595 C168.135878,0.465794595 149.149618,3.51984865 131.320611,9.16374054 L137.256489,69.6370649 C152.777099,62.9700649 169.873282,59.2716054 187.833588,59.2716054 C206.227481,59.2716054 223.71145,63.1502541 239.525191,70.1226595 L244.896183,9.34392973 C226.905344,3.58398378 207.735878,0.465794595 187.833588,0.465794595 L187.833588,0.465794595 Z" id="Stroke-31" stroke="#33476F" stroke-width="11.9938931"></path>
                <path d="M366.223817,244.117616 C371.869618,226.281941 374.92,207.294886 374.92,187.59013 C374.92,167.683805 371.802443,148.513508 366.046718,130.519022 L305.277252,135.894157 C312.248244,151.711103 316.126107,169.195562 316.126107,187.59013 C316.126107,205.55713 312.428397,222.656778 305.765802,238.180535 L366.223817,244.117616 Z" id="Fill-33" fill="#DD4531"></path>
                <path d="M366.223817,244.117616 C371.869618,226.281941 374.92,207.294886 374.92,187.59013 C374.92,167.683805 371.802443,148.513508 366.046718,130.519022 L305.277252,135.894157 C312.248244,151.711103 316.126107,169.195562 316.126107,187.59013 C316.126107,205.55713 312.428397,222.656778 305.765802,238.180535 L366.223817,244.117616 L366.223817,244.117616 Z" id="Stroke-35" stroke="#33476F" stroke-width="11.9938931"></path>
                <path d="M9.61984733,130.520549 C3.86412214,148.515035 0.746564885,167.685332 0.746564885,187.591657 C0.746564885,207.293359 3.8,226.283468 9.44580153,244.119143 L69.9038168,238.182062 C63.2381679,222.658305 59.5435115,205.558657 59.5435115,187.591657 C59.5435115,169.194035 63.421374,151.709576 70.389313,135.89263 L9.61984733,130.520549 Z" id="Fill-37" fill="#DD4531"></path>
                <path d="M9.61984733,130.520549 C3.86412214,148.515035 0.746564885,167.685332 0.746564885,187.591657 C0.746564885,207.293359 3.8,226.283468 9.44580153,244.119143 L69.9038168,238.182062 C63.2381679,222.658305 59.5435115,205.558657 59.5435115,187.591657 C59.5435115,169.194035 63.421374,151.709576 70.389313,135.89263 L9.61984733,130.520549 L9.61984733,130.520549 Z" id="Stroke-39" stroke="#33476F" stroke-width="11.9938931"></path>
                <path d="M187.833588,59.2725216 C116.978626,59.2725216 59.540458,116.722332 59.540458,187.591657 C59.540458,258.460981 116.978626,315.910792 187.833588,315.910792 C258.68855,315.910792 316.126718,258.460981 316.126718,187.591657 C316.126718,116.722332 258.68855,59.2725216 187.833588,59.2725216 L187.833588,59.2725216 Z" id="Stroke-43" stroke="#33476F" stroke-width="11.9938931"></path>
            </g>
        </g>
    </g>
</svg>