<?xml version="1.0" encoding="UTF-8" standalone="no"?>
<svg width="308px" height="308px" viewBox="0 0 308 308" version="1.1" xmlns="http://www.w3.org/2000/svg" xmlns:xlink="http://www.w3.org/1999/xlink">
    <!-- Generator: Sketch 3.8.3 (29802) - http://www.bohemiancoding.com/sketch -->
    <title>Group</title>
    <desc>Created with Sketch.</desc>
    <defs>
        <path d="M61,26.3837631 L61,0 L47,0 L47,26.1605819 C49.0988768,25.7275189 51.2728685,25.5 53.5,25.5 C56.0828992,25.5 58.5943251,25.8060136 61,26.3837631 L61,26.3837631 L61,26.3837631 L61,26.3837631 L61,26.3837631 Z M22.194418,51 L-1.98951966e-13,51 L-1.98951966e-13,65 L22.3837631,65 C21.8936053,62.5943251 21.6339859,60.0828992 21.6339859,57.5 C21.6339859,55.2728685 21.8270111,53.0988768 22.194418,51 L22.194418,51 L22.194418,51 L22.194418,51 Z M26.8622233,75.2382817 L8.0380592,94.062446 L17.9375542,103.961941 L36.9849385,84.914556 C32.9401033,82.472633 29.4794819,79.160825 26.8622233,75.2382817 L26.8622233,75.2382817 L26.8622233,75.2382817 L26.8622233,75.2382817 L26.8622233,75.2382817 Z M47,88.839418 L47,116 L61,116 L61,88.616237 C58.5943251,89.193986 56.0828992,89.5 53.5,89.5 C51.2728685,89.5 49.0988768,89.272481 47,88.839418 L47,88.839418 L47,88.839418 L47,88.839418 L47,88.839418 Z M70.6326099,84.532105 L90.062446,103.961941 L99.961941,94.062446 L80.532105,74.6326099 C78.002184,78.616023 74.6160232,82.002184 70.6326099,84.532105 L70.6326099,84.532105 L70.6326099,84.532105 L70.6326099,84.532105 L70.6326099,84.532105 Z M84.616237,65 L112,65 L112,51 L84.839418,51 C85.272481,53.0988768 85.5,55.2728685 85.5,57.5 C85.5,60.0828992 85.193986,62.5943251 84.616237,65 L84.616237,65 L84.616237,65 L84.616237,65 L84.616237,65 Z M80.914556,40.9849385 L99.961941,21.9375542 L90.062446,12.0380592 L71.2382817,30.8622233 C75.1608249,33.4794819 78.472633,36.9401033 80.914556,40.9849385 L80.914556,40.9849385 L80.914556,40.9849385 L80.914556,40.9849385 L80.914556,40.9849385 Z" id="path-1"></path>
    </defs>
    <g id="Page-1" stroke="none" stroke-width="1" fill="none" fill-rule="evenodd">
        <g id="Group" transform="translate(1.000000, 1.000000)">
            <path d="M306,153 C306,68.5004333 237.499567,0 153,0 C68.5004333,0 0,68.5004333 0,153 C0,237.499567 68.5004333,306 153,306 C237.499567,306 306,237.499567 306,153 L306,153 L306,153 L306,153 L306,153 Z M29.8704002,87.8168896 C19.7340017,107.150942 14,129.155847 14,152.5 C14,229.543723 76.4562774,292 153.5,292 C230.543723,292 293,229.543723 293,152.5 C293,75.4562774 230.543723,13 153.5,13 C99.8004304,13 53.187598,43.341929 29.8704002,87.8168896 Z" id="path-12" stroke="#224883" fill="#224883"></path>
            <g id="Line" transform="translate(191.000000, 115.000000)" stroke="#224883">
                <path d="M65.408854,27.509115 C63.03014,28.260797 11.84999,29.251444 8.701823,27.509115 C7.433556,26.807202 6.285805,25.993097 5.280497,25.170974 C2.377913,22.797293 0.66276,20.356771 0.66276,20.356771 L0.66276,10.75 L2.996094,5.389323 L8.701823,0.5 L14.585938,0.5 L28.773438,0.5 L63.5,0.5" id="path-1"></path>
                <path d="M65.408854,27.509115 C63.03014,28.260797 11.84999,29.251444 8.701823,27.509115 C7.433556,26.807202 6.285805,25.993097 5.280497,25.170974 C2.377913,22.797293 0.66276,20.356771 0.66276,20.356771 L0.66276,10.75 L2.996094,5.389323 L8.701823,0.5 L14.585938,0.5 L28.773438,0.5 L63.5,0.5" id="path-1"></path>
                <path d="M65.408854,27.509115 C63.03014,28.260797 11.84999,29.251444 8.701823,27.509115 C7.433556,26.807202 6.285805,25.993097 5.280497,25.170974 C2.377913,22.797293 0.66276,20.356771 0.66276,20.356771 L0.66276,10.75 L2.996094,5.389323 L8.701823,0.5 L14.585938,0.5 L28.773438,0.5 L63.5,0.5" id="path-1" stroke-width="12"></path>
            </g>
            <g id="Line" transform="translate(192.000000, 143.000000)" stroke="#224883">
                <path d="M57.940308,27.476891 C43.365291,28.052491 10.540454,28.393492 8.039062,27.009115 C6.770796,26.307202 5.623045,25.493097 4.617736,24.670974 C1.715153,22.297293 0,19.856771 0,19.856771 L0,10.25 L2.333333,4.889323 L8.039062,0 L13.923177,0 L28.110677,0 L62.83724,0" id="path-2"></path>
                <path d="M57.940308,27.476891 C43.365291,28.052491 10.540454,28.393492 8.039062,27.009115 C6.770796,26.307202 5.623045,25.493097 4.617736,24.670974 C1.715153,22.297293 0,19.856771 0,19.856771 L0,10.25 L2.333333,4.889323 L8.039062,0 L13.923177,0 L28.110677,0 L62.83724,0" id="path-2"></path>
                <path d="M59.9345232,26.5156785 C44.8578568,27.0711425 10.90324,27.4002144 8.315754,26.0642665 C7.00383626,25.3869082 5.81658146,24.6012827 4.77667129,23.8079197 C1.7741859,21.5172762 0,19.1621299 0,19.1621299 L0,9.89142855 L2.41364269,4.71828187 L8.315754,0 L14.4023911,0 L29.0782028,0 L65,0" id="path-2" stroke-width="12"></path>
            </g>
            <g id="Line" transform="translate(192.000000, 171.000000)" stroke="#224883">
                <polyline id="path-3" points="0 10.25 2.333333 4.889323 8.039062 0 13.923177 0 28.110677 0 41.611884 0 56.83724 0"></polyline>
                <polyline id="path-3" points="0 10.25 2.333333 4.889323 8.039062 0 13.923177 0 28.110677 0 41.611884 0 56.83724 0"></polyline>
                <polyline id="path-3" stroke-width="12" points="0 10.25 2.333333 4.889323 8.039062 0 13.923177 0 28.110677 0 41.611884 0 56.83724 0"></polyline>
            </g>
            <g id="Line" transform="translate(91.000000, 41.000000)" stroke="#224883">
                <path d="M0.0816605,144.560908 C0.0816605,142.751203 65.5,63.653742 65.5,61.46011 L65.5,14.2721352 C65.5,14.2721352 69.683141,1.7814477 78.285156,0.6848958 C79.922253,0.476205 89.566283,-0.0395446 91.499999,0.6848958 C99.726869,3.7669798 103.16146,14.2721348 103.16146,14.2721348 L103.161458,50.9179687 L135.322913,50.9179678 C135.322913,50.9179678 151.130897,53.9865219 161.049476,67.500003 C167.782862,76.673846 169.822551,95.305053 170.338538,105.869792 C170.831032,115.953502 166.454216,129.585347 161.049476,138.427089 C152.450438,152.494458 140.251304,158.236979 140.251304,158.236979 L121.280876,158.236979" id="path-4"></path>
                <path d="M0.0293203259,144.318644 C1.10397272,143.004434 4.20766846,138.848177 5.39473599,137.3313 C20.9822,117.41308 65.5,63.2697028 65.5,61.46011 L65.5,14.2721352 C65.5,14.2721352 69.683141,1.7814477 78.285156,0.6848958 C79.922253,0.476205 89.566283,-0.0395446 91.499999,0.6848958 C99.726869,3.7669798 103.16146,14.2721348 103.16146,14.2721348 L103.161458,50.9179687 L135.322913,50.9179678 C135.322913,50.9179678 151.130897,53.9865219 161.049476,67.500003 C167.782862,76.673846 169.822551,95.305053 170.338538,105.869792 C170.831032,115.953502 166.454216,129.585347 161.049476,138.427089 C152.450438,152.494458 140.251304,158.236979 140.251304,158.236979 L121.280876,158.236979" id="path-4" stroke-width="12"></path>
            </g>
            <g id="Line" transform="translate(36.000000, 213.000000)" stroke="#224883">
                <path d="M0.6512556,17.084955 L8.907057,13.024122 L27.052764,3.426247 C27.052764,3.426247 36.9184623,-1.419306 47.8383227,3.426247 C53.3775256,5.8842 82.696372,21.775506 88.901498,20.979487 C95.963723,20.073517 106.475299,13.339978 133.714486,1.40565 C150.289246,-5.856263 176.357029,25.121113 192.585664,20.979487 C208.572616,16.89954 224.801216,6.242999 230.590089,3.426247 C232.7204,2.38968 240.461715,1.274767 247.923389,1.502418" id="path-5"></path>
                <path d="M0.6512556,17.084955 L8.907057,13.024122 L27.052764,3.426247 C27.052764,3.426247 36.9184623,-1.419306 47.8383227,3.426247 C53.3775256,5.8842 82.696372,21.775506 88.901498,20.979487 C95.963723,20.073517 106.475299,13.339978 133.714486,1.40565 C150.289246,-5.856263 176.357029,25.121113 192.585664,20.979487 C208.572616,16.89954 224.801216,6.242999 230.590089,3.426247 C232.7204,2.38968 240.461715,1.274767 247.923389,1.502418" id="path-5"></path>
                <path d="M0.6512556,17.084955 L8.907057,13.024122 L27.052764,3.426247 C27.052764,3.426247 36.9184623,-1.419306 47.8383227,3.426247 C53.3775256,5.8842 82.696372,21.775506 88.901498,20.979487 C95.963723,20.073517 106.475299,13.339978 133.714486,1.40565 C150.289246,-5.856263 176.357029,25.121113 192.585664,20.979487 C208.572616,16.89954 224.801216,6.242999 230.590089,3.426247 C232.7204,2.38968 240.461715,1.274767 247.923389,1.502418" id="path-5" stroke-width="12"></path>
            </g>
            <g id="Line" transform="translate(17.000000, 182.000000)" stroke="#224883">
                <path d="M0.531288967,21.277438 L12.1949587,21.277438 L44.9836182,3.724198 C44.9836182,3.724198 55.0333779,-1.121355 66.1569672,3.724198 C71.7995134,6.182151 101.665354,22.073456 107.986246,21.277438 C115.180229,20.371467 125.887916,13.637928 153.635298,1.7036 C170.519288,-5.558313 197.073411,25.419063 213.604818,21.277438 C229.890035,17.197491 256.293736,2.119158 260.521966,1.7036 C265.104151,1.253255 270.689859,3.724198 272.707921,3.724198" id="path-6"></path>
                <path d="M0.531288967,21.277438 L12.1949587,21.277438 L44.9836182,3.724198 C44.9836182,3.724198 55.0333779,-1.121355 66.1569672,3.724198 C71.7995134,6.182151 101.665354,22.073456 107.986246,21.277438 C115.180229,20.371467 125.887916,13.637928 153.635298,1.7036 C170.519288,-5.558313 197.073411,25.419063 213.604818,21.277438 C229.890035,17.197491 256.293736,2.119158 260.521966,1.7036 C265.104151,1.253255 270.689859,3.724198 272.707921,3.724198" id="path-6"></path>
                <path d="M0.531288967,21.277438 L12.1949587,21.277438 L44.9836182,3.724198 C44.9836182,3.724198 55.0333779,-1.121355 66.1569672,3.724198 C71.7995134,6.182151 101.665354,22.073456 107.986246,21.277438 C115.180229,20.371467 125.887916,13.637928 153.635298,1.7036 C170.519288,-5.558313 197.073411,25.419063 213.604818,21.277438 C229.890035,17.197491 256.293736,2.119158 260.521966,1.7036 C265.104151,1.253255 270.689859,3.724198 272.707921,3.724198" id="path-6" stroke-width="12"></path>
            </g>
            <g id="Line" transform="translate(52.000000, 242.000000)" stroke="#224883">
                <path d="M0.9536758,10.642363 L15.1597424,3.128297 C15.1597424,3.128297 25.0254406,-1.717256 35.9453011,3.128297 C41.484504,5.58625 70.803351,21.477556 77.008476,20.681537 C84.070701,19.775566 94.582277,13.042027 121.821465,1.1077 C138.396224,-6.154213 164.464008,24.823162 180.692642,20.681537 C194.552928,17.144325 208.594847,8.663847 215.8578,4.634649" id="path-7"></path>
                <path d="M0.9536758,10.642363 L15.1597424,3.128297 C15.1597424,3.128297 25.0254406,-1.717256 35.9453011,3.128297 C41.484504,5.58625 70.803351,21.477556 77.008476,20.681537 C84.070701,19.775566 94.582277,13.042027 121.821465,1.1077 C138.396224,-6.154213 164.464008,24.823162 180.692642,20.681537 C194.552928,17.144325 208.594847,8.663847 215.8578,4.634649" id="path-7"></path>
                <path d="M0.9536758,10.642363 L15.1597424,3.128297 C15.1597424,3.128297 25.0254406,-1.717256 35.9453011,3.128297 C41.484504,5.58625 70.803351,21.477556 77.008476,20.681537 C84.070701,19.775566 94.582277,13.042027 121.821465,1.1077 C138.396224,-6.154213 164.464008,24.823162 180.692642,20.681537 C194.552928,17.144325 208.594847,8.663847 215.8578,4.634649" id="path-7" stroke-width="12"></path>
            </g>
            <g id="Line" transform="translate(71.000000, 270.000000)" stroke="#224883">
                <path d="M0.581473793,1.809749 C4.69304726,0.981096 8.22696372,1.091113 14.722531,3.830347 C20.5510952,6.2883 51.4015237,22.179605 57.930797,21.383587 C65.3619453,20.477616 76.4226324,13.744077 105.084763,1.809749 C114.934437,-2.291455 127.970066,5.803707 140.527475,12.881362" id="path-8"></path>
                <path d="M0.581473793,1.809749 C4.69304726,0.981096 8.22696372,1.091113 14.722531,3.830347 C20.5510952,6.2883 51.4015237,22.179605 57.930797,21.383587 C65.3619453,20.477616 76.4226324,13.744077 105.084763,1.809749 C114.934437,-2.291455 127.970066,5.803707 140.527475,12.881362" id="path-8"></path>
                <path d="M0.581473793,1.809749 C4.69304726,0.981096 8.22696372,1.091113 14.722531,3.830347 C20.5510952,6.2883 51.4015237,22.179605 57.930797,21.383587 C65.3619453,20.477616 76.4226324,13.744077 105.084763,1.809749 C114.934437,-2.291455 127.970066,5.803707 140.527475,12.881362" id="path-8" stroke-width="12"></path>
            </g>
            <g id="Combined-Shape" transform="translate(22.000000, 24.000000)">
                <mask id="mask-2" fill="white">
                    <use xlink:href="#path-1"></use>
                </mask>
                <use id="path-1" fill="#224883" xlink:href="#path-1"></use>
            </g>
            <path d="M75.5,125 C99.5243866,125 119,105.524387 119,81.5 C119,57.4756134 99.5243866,38 75.5,38 C51.4756134,38 32,57.4756134 32,81.5 C32,105.524387 51.4756134,125 75.5,125 L75.5,125 L75.5,125 L75.5,125 L75.5,125 Z M75.5,113.5 C93.173112,113.5 107.5,99.173112 107.5,81.5 C107.5,63.826888 93.173112,49.5 75.5,49.5 C57.826888,49.5 43.5,63.826888 43.5,81.5 C43.5,99.173112 57.826888,113.5 75.5,113.5 L75.5,113.5 L75.5,113.5 L75.5,113.5 L75.5,113.5 Z" id="Combined-Shape" stroke="#224883" fill="#224883"></path>
        </g>
    </g>
</svg>