<?xml version="1.0" encoding="UTF-8" standalone="no"?>
<svg width="312px" height="312px" viewBox="0 0 312 312" version="1.1" xmlns="http://www.w3.org/2000/svg" xmlns:xlink="http://www.w3.org/1999/xlink">
    <!-- Generator: Sketch 3.8.3 (29802) - http://www.bohemiancoding.com/sketch -->
    <title>Group 3</title>
    <desc>Created with Sketch.</desc>
    <defs></defs>
    <g id="Page-1" stroke="none" stroke-width="1" fill="none" fill-rule="evenodd">
        <g id="Group-3" transform="translate(1.000000, 1.000000)" stroke="#224883">
            <g id="Group-2">
                <path d="M155,310 C240.604136,310 310,240.604136 310,155 C310,69.3958638 240.604136,0 155,0 C69.3958638,0 0,69.3958638 0,155 C0,240.604136 69.3958638,310 155,310 Z M155.5,295 C233.096007,295 296,232.096007 296,154.5 C296,76.9039927 233.096007,14 155.5,14 C77.9039927,14 15,76.9039927 15,154.5 C15,232.096007 77.9039927,295 155.5,295 Z" id="Combined-Shape" fill="#224883"></path>
                <g id="Group" transform="translate(19.000000, 45.000000)" stroke-linecap="square" stroke-width="12">
                    <polyline id="Line" points="119.443251 212.5 153.576376 212.5 153.576376 208.440957 162.149775 215.91321 197.911167 238.568222"></polyline>
                    <path d="M97.5,248.5 C97.5,248.5 107.686165,242.07233 113,237.958393 C118.019499,234.07233 128.5,224.5 128.5,224.5" id="Line"></path>
                    <polyline id="Line" points="69.0570818 234.663589 88.5 224.91991 108.5 209.5"></polyline>
                    <polyline id="Line" points="52.5 219.5 73.6962242 207.741011 90.7664909 192.822429 121.06411 216.909427 172.458847 249.229114"></polyline>
                    <path d="M30.5,205.5 L51.5,216.5" id="Line"></path>
                    <polyline id="Line" points="174.584286 190.460499 202.5 179.763079 235 159"></polyline>
                    <polyline id="Line" points="198 204 226.5 191.763079 255 171"></polyline>
                    <path d="M154.877507,178.649468 L171.464813,193.959716 C171.464813,193.959716 180.828892,200.823534 195.286763,210.05133 C209.744635,219.279126 221,226.47287 221,226.47287" id="Line"></path>
                    <path d="M149.417442,176.575556 C149.417442,176.575556 169.759056,172.103068 183.997444,164 C198.235832,155.896933 217.139289,140.637636 217.139289,140.637636 L237.362388,157.441256 L266.950193,172.103068" id="Line"></path>
                    <polyline id="Line" points="150.637101 211.875257 126.889581 88.4800009 76.5305699 88.4800009 55.6590976 198.709656 50.5017479 226.47287"></polyline>
                    <path d="M100.979267,19.8680353 L102.388378,18.8373184 L111.215503,12.0563691 L117.5,10.5 L126.941428,12.0563691 L133.803855,14.742578 L139.692282,18.8373184 L140.957703,23.0192204 L142.40786,28.9474678 C142.40786,28.9474678 142.214526,31.0137345 140.957703,34.7673264 C139.700879,38.5209183 137.973899,42.189806 137.973899,42.189806 L129.649855,51.3458786 L100.979269,69.8789902 L67.7275565,45.7956963 L65.6203144,42.189806 L63.5976969,38.0186414 L62.7056506,32.6785506 L62.7056506,27.2971478 L64.3130097,21.3420601 L67.7275565,16.1597509 L73.1234296,13.3488603 L79.6825785,11.4024212 L86.3989307,10.651541 L92.642886,12.0563691 C92.642886,12.0563691 100.493393,20.8867678 100.979267,21.3420601" id="Line"></path>
                    <path d="M71.2198751,124 L131.5,124" id="Line"></path>
                    <path d="M0,70 L77,57" id="Line"></path>
                    <path d="M141.610647,16.0844482 L227.738457,0.686890976" id="Line"></path>
                    <path d="M129.884407,57.1071544 L275.475454,78.9585266" id="Line"></path>
                    <path d="M37,10 L64,16" id="Line"></path>
                    <path d="M69.5,155 L131.5,155" id="Line"></path>
                    <path d="M64.5,187 L140.235443,187" id="Line"></path>
                    <polyline id="Line" points="8 164.034505 20.262146 156.95117 32.4697571 147.244525 43.6669604 159.292199 56.9395143 170.601951"></polyline>
                    <path d="M16.1929957,164.024689 C16.1929957,164.024689 25.6715915,174.226795 31.6300587,179.088322 C38.4730093,184.671501 55.6359138,194.151955 55.6359138,194.151955" id="Line"></path>
                    <path d="M131.5,253.5 L149.5,237.5" id="Line"></path>
                </g>
            </g>
        </g>
    </g>
</svg>