<?xml version="1.0" encoding="UTF-8" standalone="no"?>
<svg width="312px" height="312px" viewBox="0 0 312 312" version="1.1" xmlns="http://www.w3.org/2000/svg" xmlns:xlink="http://www.w3.org/1999/xlink">
    <!-- Generator: Sketch 3.8.3 (29802) - http://www.bohemiancoding.com/sketch -->
    <title>Group 5</title>
    <desc>Created with Sketch.</desc>
    <defs></defs>
    <g id="Page-1" stroke="none" stroke-width="1" fill="none" fill-rule="evenodd">
        <g id="Group-5" transform="translate(1.000000, 1.000000)">
            <g id="Group-3" style="mix-blend-mode: exclusion;" fill="#224883" stroke="#224883">
                <g id="Group-2">
                    <path d="M155,310 C240.604136,310 310,240.604136 310,155 C310,69.3958638 240.604136,0 155,0 C69.3958638,0 0,69.3958638 0,155 C0,240.604136 69.3958638,310 155,310 Z M155.5,295 C233.096007,295 296,232.096007 296,154.5 C296,76.9039927 233.096007,14 155.5,14 C77.9039927,14 15,76.9039927 15,154.5 C15,232.096007 77.9039927,295 155.5,295 Z" id="Combined-Shape"></path>
                </g>
            </g>
            <g id="Group-4" transform="translate(20.000000, 30.000000)">
                <path d="M56.1630145,243.5 L58.6376289,243.5 L61.3057882,243.5 L67.5431148,245.009149 L74.1446915,248.63121 L86.3121948,255.552556 L95.4130298,259.71979 L104.952047,261.852394 C104.952047,261.852394 108.099849,262.143691 111.349256,261.852394 C114.598662,261.561097 117.369595,260.739208 117.369595,260.739208 L127.738091,255.552556 C127.738091,255.552556 135.643374,250.459605 135.935516,250.318419 C139.926814,248.389513 148.785835,245.009149 148.785835,245.009149 L157.048775,243.5 L165.930824,244.143605 L176.997765,248.63121 L186.794037,255.552556" id="Line" stroke="#224883" stroke-width="12" stroke-linecap="square"></path>
                <polyline id="Line" stroke="#224883" stroke-width="12" stroke-linecap="square" points="153.851073 214.459654 167.538467 215.412441 197.092208 231.628078 203.010966 233.447525 208.826339 233.447525 215.473597 233.447525 222.599906 230.865919 228.991111 227.365275 243.901305 219.451559"></polyline>
                <path d="M184.5,194.5 C184.5,194.5 192.323332,199.876257 194.76666,201.233661 C197.209987,202.591065 202.5,204.5 202.5,204.5 C202.5,204.5 207.027713,205.150848 209.214632,205.150848 C211.230628,205.150848 215.383436,203.657785 215.383436,203.657785 L224.014057,201.233661 L232.888462,196.351151 L246.702904,188.181979 L252.171463,186.007901 L259.104225,185.354535 L263.528114,185.354535" id="Line" stroke="#224883" stroke-width="12" stroke-linecap="square"></path>
                <polyline id="Line" stroke="#224883" stroke-width="12" stroke-linecap="square" points="211.659794 174.370542 220.612164 173.167196 232.328863 167.756343 240.282249 162.27757 249.575428 158.177657 258.064972 156.296902 264.957466 157.207526 271.10463 158.177657"></polyline>
                <polyline id="Line" stroke="#224883" stroke-width="12" stroke-linecap="square" points="132.781013 189.627167 143.275393 189.627167 149.307397 193.197543 152.007211 198.179158 153.103452 202.246147 153.103452 207.724375 149.307397 212.803645 145.064748 216.384739"></polyline>
                <polyline id="Line" stroke="#224883" stroke-width="12" stroke-linecap="square" points="34.0960922 221.505095 47.5004826 215.342089 55.6737614 214.320876 63.0723458 215.342089 72.194191 219.041084 94.2125015 231.428429 104.250755 234.209225 114.507553 232.626494 129.080827 225.962111"></polyline>
                <polyline id="Line" stroke="#224883" stroke-width="12" stroke-linecap="square" points="109.802823 173.197842 117.472343 172.327875 121.302934 173.197842 125.380641 175.220618 128.662219 180.608932 130.402747 185.217789 129.515514 189.849274 127.967914 193.548865 113.294003 205.885596"></polyline>
                <path d="M135.5,38 C146.269553,38 155,29.4934102 155,19 C155,8.50658975 146.269553,0 135.5,0 C124.730447,0 116,8.50658975 116,19 C116,29.4934102 124.730447,38 135.5,38 Z M135,27 C139.418278,27 143,23.418278 143,19 C143,14.581722 139.418278,11 135,11 C130.581722,11 127,14.581722 127,19 C127,23.418278 130.581722,27 135,27 Z" id="Combined-Shape" stroke="#979797" fill="#224883"></path>
                <path d="M96,70 C103.179702,70 109,64.1797017 109,57 C109,49.8202983 103.179702,44 96,44 C88.8202983,44 83,49.8202983 83,57 C83,64.1797017 88.8202983,70 96,70 Z" id="Oval-5-Copy-2" stroke="#979797" fill="#224883"></path>
                <path d="M174,70 C181.179702,70 187,64.1797017 187,57 C187,49.8202983 181.179702,44 174,44 C166.820298,44 161,49.8202983 161,57 C161,64.1797017 166.820298,70 174,70 Z" id="Oval-5-Copy-3" stroke="#979797" fill="#224883"></path>
                <path d="M99.4355682,57.7857937 L171.734381,57.7857937" id="Line" stroke="#224883" stroke-width="12" stroke-linecap="square"></path>
                <path d="M136,34.5 L136,99" id="Line" stroke="#224883" stroke-width="12" stroke-linecap="square"></path>
                <polyline id="Line" stroke="#224883" stroke-width="12" stroke-linecap="square" points="135.724396 144.460933 151.19986 156.541717 157.10299 158.809157 163.684846 158.809157 171.24804 152.696357 175.903969 144.460933 175.903969 137.221972 171.248036 129.183248 114.448328 90.4811948 101.787312 84.4266349 82.7355963 84.4266349 67.1920446 89.3873433 56.9010065 98.180442 46.6294221 111.61002 43.0607382 126.412168 43.0607382 139.822292 46.7526292 152.696357 54.2769106 165.572584 65.6357439 178.572017 82.7355974 192.124802 104.899913 206.066662 133.397507 223.739321 154.37082 212.752271 186.188522 192.044826 208.249084 173.304372 223.407891 152.696357 225.651559 144.460933 228.418313 134.185027 225.651559 122.35498 223.407891 113.907725 218.557412 106.076507 213.818323 99.3456424 204.578809 91.8277092 198.176354 88.5270548 185.877262 84.0159445 167.281631 84.4266349 154.796641 88.5270549 146.001381 95.3747778 138.353892 103.186542"></polyline>
                <path d="M0.955789297,175.223 L6.18571079,175.223 C8.30048551,175.223 14.585859,173.733755 14.585859,173.733755 C14.585859,173.733755 15.5777535,173.12347 21.6950509,170.973205 C27.8123484,168.82294 31.3421688,165.810437 31.3421688,165.810437 L48.5155314,156.120873" id="Line" stroke="#224883" stroke-width="12" stroke-linecap="square"></path>
                <polyline id="Line" stroke="#224883" stroke-width="12" stroke-linecap="square" points="14.5 204.5 44.3296604 187.554968 53.2216568 185.594715 64.2799377 186.227688 77.2305888 192.927204 91.0202408 200.519314 99.6847763 203.824114"></polyline>
                <path d="M62.5,173.5 L86.089241,156.015856 L91.3090401,154.124081 L96.7372475,154.124081 L102.086262,156.015856 L105.317226,159.551695 L108.17424,164.538668 L106.181835,175.631485 L102.086262,179 L88.7432043,190.002307" id="Line" stroke="#224883" stroke-width="12" stroke-linecap="square"></path>
            </g>
        </g>
    </g>
</svg>