<?xml version="1.0" encoding="UTF-8" standalone="no"?>
<svg width="412px" height="206px" viewBox="0 0 412 206" version="1.1" xmlns="http://www.w3.org/2000/svg" xmlns:xlink="http://www.w3.org/1999/xlink">
    <!-- Generator: Sketch 41.2 (35397) - http://www.bohemiancoding.com/sketch -->
    <title>Group 8</title>
    <desc>Created with Sketch.</desc>
    <defs>
        <linearGradient x1="50%" y1="27.1793351%" x2="50%" y2="100%" id="linearGradient-1">
            <stop stop-color="#EF4138" offset="0%"></stop>
            <stop stop-color="#A9AD37" offset="100%"></stop>
        </linearGradient>
    </defs>
    <g id="Concept" stroke="none" stroke-width="1" fill="none" fill-rule="evenodd">
        <g id="Group-8">
            <path d="M242.162,90.204 C241.267,91.055 240.187,91.481 238.92,91.481 C237.698,91.481 236.628,91.055 235.711,90.204 C234.794,89.352 234.335,88.359 234.335,87.223 L234.335,71.961 L220.383,71.961 L220.383,87.223 C220.383,88.359 219.935,89.352 219.04,90.204 C218.145,91.055 217.064,91.481 215.798,91.481 C214.531,91.481 213.451,91.055 212.556,90.204 C211.661,89.352 211.213,88.359 211.213,87.223 L211.213,48.315 C211.213,47.179 211.661,46.197 212.556,45.367 C213.451,44.538 214.531,44.123 215.798,44.123 C217.064,44.123 218.145,44.538 219.04,45.367 C219.935,46.197 220.383,47.179 220.383,48.315 L220.383,63.577 L234.335,63.577 L234.335,48.315 C234.335,47.179 234.794,46.197 235.711,45.367 C236.628,44.538 237.698,44.123 238.92,44.123 C240.143,44.123 241.213,44.538 242.13,45.367 C243.047,46.197 243.505,47.179 243.505,48.315 L243.505,87.223 C243.505,88.359 243.057,89.352 242.162,90.204" id="Fill-1" fill="#0A0B09"></path>
            <path d="M267.676,52.441 C264.793,52.441 262.763,53.25 261.584,54.865 C260.405,56.481 259.816,58.621 259.816,61.284 L259.816,74.254 C259.816,76.874 260.448,79.014 261.715,80.673 C262.981,82.333 264.968,83.162 267.676,83.162 C270.383,83.162 272.37,82.333 273.637,80.673 C274.903,79.014 275.536,76.874 275.536,74.254 L275.536,61.284 C275.536,58.621 274.947,56.481 273.768,54.865 C272.588,53.25 270.558,52.441 267.676,52.441 Z M267.676,91.481 C264.836,91.481 262.359,91.033 260.242,90.138 C258.122,89.244 256.354,88.02 254.936,86.469 C253.516,84.921 252.447,83.096 251.726,81.001 C251.005,78.904 250.645,76.656 250.645,74.254 L250.645,61.284 C250.645,58.97 250.961,56.776 251.595,54.701 C252.228,52.628 253.221,50.803 254.576,49.232 C255.928,47.66 257.687,46.415 259.848,45.498 C262.01,44.581 264.619,44.123 267.676,44.123 C270.732,44.123 273.342,44.581 275.503,45.498 C277.665,46.415 279.422,47.66 280.777,49.232 C282.129,50.803 283.123,52.628 283.757,54.701 C284.389,56.776 284.706,58.97 284.706,61.284 L284.706,74.254 C284.706,76.656 284.346,78.904 283.625,81.001 C282.906,83.096 281.834,84.921 280.416,86.469 C278.996,88.02 277.228,89.244 275.111,90.138 C272.992,91.033 270.514,91.481 267.676,91.481 L267.676,91.481 Z" id="Fill-2" fill="#0A0B09"></path>
            <path d="M300.95,71.175 L300.95,82.573 L308.286,82.573 C310.469,82.573 312.095,82.071 313.166,81.066 C314.236,80.062 314.771,78.708 314.771,77.005 C314.771,75.128 314.192,73.686 313.035,72.681 C311.877,71.677 310.425,71.175 308.679,71.175 L300.95,71.175 Z M308.483,62.791 C309.049,62.791 309.629,62.692 310.218,62.496 C310.808,62.299 311.353,61.995 311.856,61.579 C312.358,61.165 312.762,60.63 313.068,59.974 C313.372,59.319 313.526,58.555 313.526,57.681 C313.526,56.416 313.188,55.313 312.511,54.374 C311.833,53.435 310.644,52.965 308.941,52.965 L300.95,52.965 L300.95,62.791 L308.483,62.791 Z M296.889,90.891 C295.448,90.891 294.236,90.422 293.253,89.483 C292.271,88.545 291.78,87.442 291.78,86.175 L291.78,49.428 C291.78,48.075 292.281,46.951 293.286,46.054 C294.29,45.161 295.491,44.712 296.889,44.712 L307.958,44.712 C310.404,44.712 312.554,45.072 314.411,45.793 C316.266,46.513 317.805,47.474 319.029,48.674 C320.25,49.877 321.167,51.252 321.78,52.801 C322.391,54.352 322.697,55.935 322.697,57.55 C322.697,59.866 322.041,61.754 320.732,63.216 C319.421,64.68 317.784,65.892 315.819,66.852 C316.823,67.245 317.817,67.736 318.799,68.326 C319.782,68.915 320.655,69.626 321.419,70.455 C322.183,71.285 322.794,72.246 323.253,73.337 C323.712,74.428 323.941,75.695 323.941,77.135 C323.941,79.058 323.57,80.848 322.828,82.507 C322.084,84.167 321.015,85.619 319.618,86.863 C318.22,88.107 316.517,89.089 314.509,89.81 C312.499,90.531 310.229,90.891 307.697,90.891 L296.889,90.891 L296.889,90.891 Z" id="Fill-3" fill="#0A0B09"></path>
            <path d="M346.668,63.118 C346.363,62.158 346.122,61.099 345.948,59.941 C345.773,58.785 345.62,57.704 345.49,56.699 C345.359,57.704 345.205,58.785 345.031,59.941 C344.856,61.099 344.616,62.158 344.311,63.118 L340.839,74.319 L350.009,74.319 L346.668,63.118 Z M336.253,88.402 C335.904,89.363 335.292,90.117 334.419,90.662 C333.545,91.208 332.716,91.481 331.93,91.481 C330.663,91.481 329.561,91.098 328.622,90.335 C327.683,89.571 327.214,88.555 327.214,87.289 C327.214,87.115 327.225,86.874 327.247,86.568 C327.269,86.263 327.323,86.022 327.411,85.847 L340.184,48.577 C340.62,47.31 341.221,46.252 341.985,45.4 C342.748,44.549 343.917,44.123 345.49,44.123 C347.062,44.123 348.23,44.538 348.994,45.367 C349.757,46.197 350.379,47.266 350.861,48.577 L363.634,85.847 C363.721,86.022 363.775,86.263 363.797,86.568 C363.819,86.874 363.83,87.115 363.83,87.289 C363.83,88.555 363.382,89.571 362.488,90.335 C361.592,91.098 360.467,91.481 359.114,91.481 C358.24,91.481 357.367,91.196 356.494,90.63 C355.62,90.062 355.009,89.319 354.66,88.402 L352.368,81.787 L338.415,81.787 L336.253,88.402 L336.253,88.402 Z" id="Fill-4" fill="#0A0B09"></path>
            <path d="M377.913,58.598 C377.913,60.301 378.448,61.612 379.518,62.529 C380.587,63.446 382.149,63.904 384.202,63.904 L390.883,63.904 L390.883,53.031 L384.595,53.031 C383.241,53.031 382.127,53.195 381.254,53.522 C380.38,53.849 379.703,54.275 379.223,54.799 C378.743,55.324 378.405,55.913 378.208,56.568 C378.012,57.223 377.913,57.901 377.913,58.598 Z M368.743,58.598 C368.743,56.895 369.015,55.215 369.562,53.555 C370.108,51.896 371.003,50.411 372.247,49.1 C373.492,47.791 375.151,46.732 377.226,45.924 C379.299,45.116 381.886,44.712 384.988,44.712 L395.075,44.712 C395.73,44.712 396.363,44.843 396.975,45.105 C397.585,45.367 398.12,45.706 398.579,46.121 C399.037,46.536 399.398,47.027 399.661,47.594 C399.922,48.162 400.053,48.773 400.053,49.428 L400.053,87.158 C400.053,88.337 399.617,89.352 398.744,90.204 C397.87,91.055 396.799,91.481 395.534,91.481 C394.921,91.481 394.332,91.36 393.765,91.121 C393.197,90.881 392.695,90.564 392.258,90.171 C391.822,89.778 391.483,89.319 391.244,88.796 C391.002,88.271 390.883,87.725 390.883,87.158 L390.883,72.158 L387.673,72.158 L376.735,89.384 C375.861,90.739 374.573,91.416 372.87,91.416 C372.433,91.416 371.942,91.305 371.396,91.088 C370.849,90.87 370.326,90.587 369.824,90.236 C369.322,89.887 368.907,89.462 368.579,88.959 C368.251,88.458 368.088,87.922 368.088,87.354 C368.088,87.005 368.154,86.568 368.285,86.044 C368.415,85.52 368.612,85.061 368.874,84.669 L377.783,71.175 C374.943,70.258 372.727,68.752 371.134,66.655 C369.539,64.559 368.743,61.874 368.743,58.598 L368.743,58.598 Z" id="Fill-5" fill="#0A0B09"></path>
            <path d="M237.414,118.086 L249.335,100.596 C250.339,99.287 251.606,98.631 253.134,98.631 C253.832,98.631 254.454,98.773 255.001,99.057 C255.547,99.341 256.017,99.691 256.41,100.105 C256.803,100.52 257.097,100.989 257.294,101.513 C257.491,102.038 257.588,102.54 257.588,103.02 C257.588,103.37 257.544,103.708 257.457,104.035 C257.37,104.363 257.217,104.723 256.999,105.116 L245.536,122.278 L256.999,139.57 C257.217,139.963 257.37,140.313 257.457,140.619 C257.544,140.924 257.588,141.252 257.588,141.601 C257.588,142.082 257.491,142.584 257.294,143.107 C257.097,143.631 256.803,144.101 256.41,144.515 C256.017,144.931 255.547,145.28 255.001,145.564 C254.454,145.847 253.832,145.99 253.134,145.99 C251.563,145.99 250.295,145.357 249.335,144.09 L237.414,126.536 L237.414,141.732 C237.414,142.868 236.965,143.861 236.071,144.713 C235.175,145.564 234.095,145.99 232.828,145.99 C231.562,145.99 230.481,145.564 229.586,144.713 C228.691,143.861 228.244,142.868 228.244,141.732 L228.244,126.536 L216.323,144.09 C215.361,145.357 214.095,145.99 212.523,145.99 C211.824,145.99 211.202,145.847 210.657,145.564 C210.11,145.28 209.641,144.931 209.247,144.515 C208.855,144.101 208.56,143.631 208.364,143.107 C208.167,142.584 208.069,142.082 208.069,141.601 C208.069,141.252 208.112,140.924 208.2,140.619 C208.286,140.313 208.44,139.963 208.659,139.57 L220.121,122.343 L208.659,105.116 C208.44,104.723 208.286,104.363 208.2,104.035 C208.112,103.708 208.069,103.37 208.069,103.02 C208.069,102.54 208.167,102.038 208.364,101.513 C208.56,100.989 208.855,100.52 209.247,100.105 C209.641,99.691 210.11,99.341 210.657,99.057 C211.202,98.773 211.824,98.631 212.523,98.631 C214.051,98.631 215.317,99.287 216.323,100.596 L228.244,118.086 L228.244,102.824 C228.244,101.688 228.691,100.706 229.586,99.876 C230.481,99.047 231.562,98.631 232.828,98.631 C234.095,98.631 235.175,99.047 236.071,99.876 C236.965,100.706 237.414,101.688 237.414,102.824 L237.414,118.086" id="Fill-6" fill="#0A0B09"></path>
            <path d="M267.544,145.99 C266.104,145.99 264.935,145.552 264.04,144.679 C263.145,143.806 262.698,142.758 262.698,141.536 L262.698,102.889 C262.698,101.754 263.133,100.76 264.007,99.909 C264.88,99.057 265.95,98.631 267.217,98.631 C268.483,98.631 269.576,99.057 270.493,99.909 C271.41,100.76 271.868,101.754 271.868,102.889 L271.868,127.649 C273.352,125.029 274.717,122.638 275.961,120.476 C277.206,118.315 278.407,116.218 279.564,114.188 C280.721,112.158 281.9,110.094 283.101,107.998 C284.302,105.902 285.623,103.588 287.064,101.055 C287.544,100.313 288.188,99.723 288.996,99.287 C289.804,98.85 290.644,98.631 291.518,98.631 C292.915,98.631 294.062,99.057 294.957,99.909 C295.852,100.76 296.3,101.819 296.3,103.086 L296.3,141.732 C296.3,142.868 295.863,143.861 294.99,144.713 C294.116,145.564 293.046,145.99 291.781,145.99 C290.513,145.99 289.422,145.564 288.505,144.713 C287.588,143.861 287.129,142.868 287.129,141.732 L287.129,117.234 L271.933,143.697 C271.496,144.396 270.873,144.953 270.067,145.367 C269.258,145.782 268.417,145.99 267.544,145.99" id="Fill-7" fill="#0A0B09"></path>
            <path d="M332.851,132.103 C332.851,133.937 332.479,135.684 331.738,137.343 C330.995,139.004 329.924,140.477 328.528,141.764 C327.129,143.053 325.438,144.08 323.452,144.843 C321.463,145.607 319.247,145.99 316.803,145.99 C315.362,145.99 313.767,145.847 312.021,145.564 C310.274,145.28 308.648,144.843 307.141,144.254 C305.634,143.665 304.368,142.944 303.342,142.092 C302.316,141.241 301.802,140.225 301.802,139.047 C301.802,137.956 302.228,137.027 303.079,136.262 C303.931,135.499 304.924,135.116 306.06,135.116 C306.758,135.116 307.446,135.27 308.123,135.575 C308.8,135.88 309.521,136.219 310.286,136.589 C311.048,136.962 311.9,137.3 312.84,137.605 C313.779,137.911 314.88,138.064 316.148,138.064 C318.637,138.064 320.525,137.464 321.814,136.262 C323.101,135.062 323.745,133.61 323.745,131.907 C323.745,130.815 323.484,129.909 322.96,129.188 C322.436,128.467 321.737,127.889 320.864,127.453 C319.99,127.016 318.986,126.689 317.851,126.469 C316.714,126.252 315.514,126.099 314.248,126.011 C313.636,125.968 313.025,125.903 312.414,125.815 C311.802,125.728 311.256,125.552 310.777,125.291 C310.295,125.029 309.913,124.626 309.63,124.079 C309.346,123.534 309.204,122.78 309.204,121.819 C309.204,120.902 309.346,120.181 309.63,119.658 C309.913,119.133 310.274,118.741 310.711,118.478 C311.147,118.216 311.638,118.052 312.185,117.987 C312.73,117.922 313.243,117.889 313.724,117.889 C314.815,117.846 315.908,117.692 316.999,117.43 C318.09,117.169 319.063,116.787 319.914,116.284 C320.766,115.783 321.453,115.161 321.977,114.418 C322.501,113.675 322.763,112.78 322.763,111.732 C322.763,111.121 322.654,110.509 322.436,109.898 C322.217,109.287 321.868,108.73 321.388,108.227 C320.907,107.726 320.275,107.322 319.489,107.015 C318.703,106.711 317.72,106.557 316.54,106.557 C314.706,106.557 313.025,106.907 311.497,107.605 C310.754,107.955 310,108.358 309.237,108.817 C308.473,109.275 307.632,109.505 306.715,109.505 C305.667,109.505 304.706,109.144 303.833,108.423 C302.959,107.704 302.523,106.797 302.523,105.706 C302.523,104.615 302.992,103.632 303.931,102.757 C304.87,101.885 306.06,101.143 307.501,100.531 C308.943,99.92 310.514,99.45 312.217,99.123 C313.92,98.795 315.536,98.631 317.065,98.631 C319.466,98.631 321.584,99.024 323.418,99.81 C325.252,100.596 326.781,101.612 328.003,102.856 C329.226,104.101 330.143,105.499 330.754,107.048 C331.366,108.599 331.671,110.117 331.671,111.601 C331.671,113.828 331.049,115.727 329.805,117.299 C328.56,118.872 326.737,120.269 324.335,121.492 C326.955,122.54 329.029,123.905 330.558,125.586 C332.086,127.267 332.851,129.44 332.851,132.103" id="Fill-8" fill="#0A0B09"></path>
            <path d="M369.957,144.713 C369.062,145.564 367.982,145.99 366.715,145.99 C365.493,145.99 364.423,145.564 363.506,144.713 C362.589,143.861 362.13,142.868 362.13,141.732 L362.13,126.469 L348.178,126.469 L348.178,141.732 C348.178,142.868 347.73,143.861 346.835,144.713 C345.94,145.564 344.859,145.99 343.593,145.99 C342.326,145.99 341.245,145.564 340.351,144.713 C339.455,143.861 339.008,142.868 339.008,141.732 L339.008,102.824 C339.008,101.688 339.455,100.706 340.351,99.876 C341.245,99.047 342.326,98.631 343.593,98.631 C344.859,98.631 345.94,99.047 346.835,99.876 C347.73,100.706 348.178,101.688 348.178,102.824 L348.178,118.086 L362.13,118.086 L362.13,102.824 C362.13,101.688 362.589,100.706 363.506,99.876 C364.423,99.047 365.493,98.631 366.715,98.631 C367.938,98.631 369.008,99.047 369.925,99.876 C370.842,100.706 371.3,101.688 371.3,102.824 L371.3,141.732 C371.3,142.868 370.852,143.861 369.957,144.713" id="Fill-9" fill="#0A0B09"></path>
            <path d="M388.788,123.195 L388.788,137.082 L394.356,137.082 C395.884,137.082 397.14,136.875 398.122,136.459 C399.105,136.045 399.869,135.509 400.415,134.854 C400.96,134.199 401.342,133.457 401.562,132.627 C401.78,131.798 401.889,130.947 401.889,130.073 C401.889,127.714 401.255,125.978 399.99,124.865 C398.722,123.752 396.845,123.195 394.356,123.195 L388.788,123.195 Z M388.788,114.876 L394.356,114.876 C396.888,114.876 399.181,115.214 401.234,115.891 C403.286,116.569 405.043,117.54 406.507,118.806 C407.969,120.073 409.094,121.655 409.88,123.555 C410.666,125.455 411.059,127.606 411.059,130.006 C411.059,132.016 410.765,133.948 410.175,135.804 C409.585,137.661 408.636,139.298 407.326,140.716 C406.016,142.136 404.29,143.271 402.151,144.123 C400.011,144.974 397.412,145.4 394.356,145.4 L384.728,145.4 C384.029,145.4 383.373,145.269 382.762,145.007 C382.151,144.745 381.616,144.407 381.158,143.992 C380.699,143.577 380.328,143.086 380.044,142.518 C379.759,141.951 379.619,141.338 379.619,140.684 L379.619,102.955 C379.619,101.775 380.077,100.76 380.994,99.909 C381.911,99.057 382.981,98.631 384.203,98.631 C385.469,98.631 386.55,99.068 387.446,99.941 C388.34,100.815 388.788,101.819 388.788,102.955 L388.788,114.876 L388.788,114.876 Z" id="Fill-10" fill="#0A0B09"></path>
            <path d="M92.971,15.414 C50.455,15.414 15.867,50.003 15.867,92.518 C15.867,135.034 50.455,169.623 92.971,169.623 C135.487,169.623 170.076,135.034 170.076,92.518 C170.076,50.003 135.487,15.414 92.971,15.414 Z M92.971,184.808 C42.082,184.808 0.681,143.407 0.681,92.518 C0.681,41.63 42.082,0.228 92.971,0.228 C143.86,0.228 185.261,41.63 185.261,92.518 C185.261,143.407 143.86,184.808 92.971,184.808 L92.971,184.808 Z" id="Fill-12" fill="#F5C047"></path>
            <path d="M97.7188813,201.033 L82.5556026,201.033 C83.7104986,199.283905 85.2417806,196.840285 86.961,193.894 C90.6,187.685 95.027,179.212 98.966,170.497 C102.913,161.785 106.354,152.823 108.282,145.789 C109.257,142.277 109.85,139.245 110.123,137.056 C110.248,135.955 110.331,135.084 110.34,134.467 C110.365,133.858 110.378,133.534 110.378,133.534 C110.378,133.534 110.35,132.711 110.322,131.889 C110.232,131.038 110.099,130.177 110.099,130.177 L110.095,130.155 C110.095,130.155 109.219,125.921 108.122,121.801 C107.02,117.683 105.797,113.618 105.797,113.618 C105.797,113.618 104.66,109.747 102.788,104.009 C100.924,98.267 98.314,90.663 95.545,83.116 C92.784,75.567 89.867,68.074 87.563,62.487 C85.9673724,58.586887 84.656023,55.6131121 84.0089891,54.1715615 C84.491581,53.4736087 85.3566592,52.7660963 86.417,52.115 C89.217,50.396 92.597,50.005 97.228,48.314 C100.257,47.208 101.817,43.856 100.711,40.826 C99.714,38.095 97.391,36.865 94.205,37.07 C92.682,37.168 88.519,38.304 85.375,41.63 C82.0346329,45.1651809 80.5626498,49.8814128 81.3457643,53.1459962 L81.3212759,53.1572774 C79.8185987,50.1555027 75.6529339,47.4950823 70.82,46.943 C66.273,46.424 62.357,48.237 61.129,49.144 C58.56,51.039 57.575,53.476 58.572,56.207 C59.678,59.237 63.031,60.797 66.061,59.691 C70.692,58 73.529,56.122 76.778,55.634 C77.7861445,55.482113 78.7186963,55.4439308 79.4731389,55.5578127 C79.9610969,56.6334947 81.3901726,59.8264653 83.212,64.28 C85.49,69.8 88.385,77.238 91.127,84.734 C93.876,92.227 96.468,99.778 98.314,105.464 C100.168,111.149 101.289,114.964 101.289,114.964 C101.289,114.964 102.496,118.976 103.574,123.005 C104.646,127.039 105.479,131.066 105.479,131.066 L105.481,131.083 C105.481,131.083 105.556,131.665 105.63,132.247 C105.652,132.874 105.674,133.502 105.674,133.502 C105.674,133.502 105.662,133.769 105.639,134.27 C105.636,134.766 105.561,135.516 105.454,136.476 C105.213,138.4 104.673,141.197 103.747,144.536 C101.917,151.222 98.556,160.007 94.679,168.558 C90.811,177.118 86.448,185.465 82.898,191.523 C81.128,194.556 79.574,197.022 78.451,198.71 C77.6909388,199.848742 77.1359148,200.639376 76.8554369,201.033 L59.7711874,201.033 C60.9805591,199.412153 62.5596213,197.226018 64.323,194.611 C68.301,188.745 73.23,180.708 77.644,172.369 C82.07,164.037 85.937,155.376 88.149,148.518 C89.269,145.095 89.965,142.121 90.307,139.972 C90.656,137.826 90.699,136.531 90.699,136.531 L90.743,134.938 C90.743,134.938 90.725,134.62 90.696,134.143 C90.664,133.664 90.646,133.037 90.501,132.369 C90.441,132.04 90.38,131.712 90.324,131.404 C90.243,131.092 90.134,130.794 90.054,130.542 C89.882,130.04 89.768,129.706 89.768,129.706 L89.759,129.684 C89.759,129.684 89.465,129.036 88.951,127.901 C88.452,126.761 87.652,125.165 86.63,123.286 C84.589,119.525 81.372,114.756 77.619,110.51 C73.894,106.239 69.829,102.396 66.809,99.554 C64.076202,96.9950004 62.1677069,95.2086823 61.8304151,94.8929933 C62.1016024,94.2650571 62.5189887,93.5842547 63.033,92.894 C64.996,90.259 67.99,88.642 71.663,85.355 C74.067,83.204 74.272,79.512 72.121,77.109 C70.183,74.942 67.569,74.661 64.686,76.033 C63.308,76.689 59.863,79.288 58.177,83.543 C56.7008124,87.2699682 56.7008859,91.2725842 57.8319857,94.0989399 C55.1709922,92.3519399 50.835561,91.7277081 46.63,92.875 C42.215,94.079 39.251,97.215 38.446,98.513 C36.764,101.226 36.753,103.854 38.692,106.021 C40.842,108.424 44.534,108.629 46.938,106.479 C50.612,103.191 52.55,100.395 55.386,98.736 C56.2815872,98.2120955 57.1479582,97.8266408 57.9000024,97.657111 C58.3366675,98.0663703 58.555,98.271 58.555,98.271 C58.555,98.271 60.568,100.156 63.586,102.982 C66.587,105.805 70.545,109.555 74.071,113.601 C77.627,117.626 80.602,122.049 82.509,125.556 C83.461,127.308 84.209,128.796 84.676,129.866 C85.158,130.929 85.434,131.536 85.434,131.536 L85.44,131.551 C85.44,131.551 85.5,131.743 85.591,132.03 C85.635,132.176 85.703,132.333 85.753,132.522 C85.789,132.726 85.826,132.944 85.864,133.162 C85.968,133.581 85.975,134.065 85.999,134.417 C86.023,134.77 86.039,135.006 86.039,135.006 L86,136.283 C86,136.283 86.007,136.538 85.944,137.041 C85.886,137.541 85.842,138.268 85.663,139.216 C85.363,141.101 84.732,143.829 83.674,147.066 C81.585,153.55 77.824,162.006 73.486,170.167 C69.161,178.34 64.311,186.247 60.426,191.976 C57.1111817,196.889218 54.5182502,200.182395 53.8369079,201.033 L38.248,201.033 C36.892,201.033 35.792,202.132 35.792,203.489 C35.792,204.845 36.892,205.945 38.248,205.945 L148.38,205.945 C149.737,205.945 150.836,204.845 150.836,203.489 C150.836,202.132 149.737,201.033 148.38,201.033 L103.352932,201.033 C103.858325,200.195949 104.457364,199.20342 105.135,198.081 C105.867,196.842 106.629,195.421 107.494,193.883 C110.874,187.702 114.904,179.277 118.554,170.689 C122.217,162.107 125.504,153.366 127.638,146.652 C128.148,144.962 128.615,143.413 129.03,142.039 C129.396,140.641 129.715,139.422 129.978,138.417 C130.256,137.423 130.376,136.582 130.504,136.037 C130.617,135.483 130.678,135.187 130.678,135.187 C130.678,135.187 130.731,134.928 130.811,134.538 C130.904,134.159 130.968,133.608 131.034,133.06 C131.167,131.966 131.299,130.871 131.299,130.871 L131.301,130.851 C131.301,130.851 131.522,127.419 131.662,123.974 C131.807,120.529 131.849,117.072 131.849,117.072 C131.849,117.072 131.851,116.568 131.853,115.686 C131.862,114.805 131.857,113.545 131.833,112.033 C131.789,109.008 131.622,104.974 131.343,100.974 C130.798457,93.7549362 130.253087,86.5358724 130.158426,85.2829322 C130.751236,85.0263812 131.462311,84.8192527 132.24,84.661 C135.46,84.006 138.769,84.798 143.699,84.798 C146.924,84.798 149.539,82.183 149.539,78.958 C149.539,76.05 147.779,74.099 144.715,73.199 C143.251,72.769 138.95,72.408 134.857,74.455 C131.787392,75.9894569 129.389812,78.39649 128.109779,80.8523429 C126.829706,78.39649 124.432608,75.9894569 121.363,74.455 C117.269,72.408 112.969,72.769 111.504,73.199 C108.441,74.099 106.681,76.05 106.681,78.958 C106.681,82.183 109.295,84.798 112.521,84.798 C117.45,84.798 120.759,84.006 123.979,84.661 C124.494856,84.7659239 124.981317,84.892333 125.42337,85.0403869 C125.441123,85.2927954 125.45,85.419 125.45,85.419 C125.45,85.419 126.05,93.357 126.649,101.295 C126.924,105.238 127.086,109.161 127.128,112.108 C127.152,113.581 127.157,114.81 127.148,115.67 C127.146,116.53 127.144,117.021 127.144,117.021 C127.144,117.021 127.103,120.397 126.961,123.781 C126.824,127.164 126.605,130.552 126.605,130.552 L126.604,130.571 C126.604,130.571 126.488,131.498 126.372,132.426 C126.318,132.889 126.269,133.351 126.178,133.715 C126.104,134.074 126.055,134.313 126.055,134.313 C126.055,134.313 125.999,134.585 125.895,135.095 C125.773,135.606 125.675,136.349 125.405,137.308 C125.155,138.265 124.851,139.426 124.502,140.759 C124.101,142.088 123.648,143.589 123.154,145.225 C121.078,151.76 117.838,160.382 114.226,168.844 C110.627,177.312 106.65,185.622 103.36,191.637 C102.521,193.127 101.778,194.515 101.074,195.706 C100.36,196.889 99.737,197.919 99.225,198.768 C98.4997952,199.858815 97.9823279,200.636907 97.7188813,201.033 Z" id="Combined-Shape" fill="url(#linearGradient-1)"></path>
        </g>
    </g>
</svg>