<?xml version="1.0" encoding="UTF-8" standalone="no"?>
<svg width="55px" height="79px" viewBox="0 0 55 79" version="1.1" xmlns="http://www.w3.org/2000/svg" xmlns:xlink="http://www.w3.org/1999/xlink">
    <!-- Generator: Sketch 39.1 (31720) - http://www.bohemiancoding.com/sketch -->
    <title>Group</title>
    <desc>Created with Sketch.</desc>
    <defs></defs>
    <g id="Page-1" stroke="none" stroke-width="1" fill="none" fill-rule="evenodd">
        <g id="Home" transform="translate(-481.000000, -2617.000000)">
            <g id="Group" transform="translate(481.000000, 2617.000000)">
                <path d="M43.6613333,30.2506667 C44.12,30.612 44.2653333,31.192 43.976,31.5533333 L41.8973333,34.1386667 L42.528,34.1386667 L42.528,36.5546667 L39.9653333,36.5546667 L36.244,41.1693333 L42.528,41.1693333 L42.528,43.5853333 L34.288,43.5853333 L24.816,55.376 C24.524,55.7133333 23.9226667,55.6893333 23.4613333,55.328 L18.388,51.2453333 C17.9266667,50.8826667 17.784,50.2773333 18.0733333,49.94 L23.196,43.5853333 L9.86133333,43.5853333 L9.86133333,41.1693333 L25.1293333,41.1693333 L28.8506667,36.5546667 L9.86133333,36.5546667 L9.86133333,34.1386667 L30.8066667,34.1386667 L34.624,29.3813333 L9.86133333,29.3813333 L9.86133333,26.9653333 L36.58,26.9653333 L37.2573333,26.1186667 C37.5253333,25.78 38.1293333,25.804 38.5853333,26.168 L39.5773333,26.9653333 L41.6786667,26.9653333 L42.528,27.6426667 L42.528,29.3306667 L43.6613333,30.2506667 Z" id="Shape" fill="#DC471F"></path>
                <path d="M41.68,26.9653333 L40.04,25.6373333 C39.264,25.0093333 38.904,24.136 39.264,23.6786667 L40.1133333,22.64 C40.4733333,22.18 41.416,22.3506667 42.1893333,22.9786667 L46.0066667,26.048 C46.588,26.5066667 46.924,27.1093333 46.924,27.5706667 C46.924,27.7373333 46.8773333,27.884 46.7813333,28.004 L45.932,29.0666667 C45.5706667,29.5013333 44.6533333,29.356 43.856,28.728 L42.528,27.6426667 L41.68,26.9653333 L41.68,26.9653333 Z" id="Shape" fill="#000000"></path>
                <path d="M54.8,13.968 L54.8,72.4346667 C54.8,75.8906667 51.756,78.7173333 48.0106667,78.7173333 L7.01066667,78.7173333 C3.24,78.7173333 0.198666667,75.8906667 0.198666667,72.4346667 L0.198666667,13.968 C0.198666667,10.488 3.24,7.66133333 7.01066667,7.66133333 L13.9453333,7.66133333 C13.656,7.804 13.412,7.97466667 13.172,8.16933333 C12.448,8.772 11.94,9.57066667 11.5986667,10.488 C11.336,11.188 11.1426667,11.9613333 11.02,12.76 L6.42933333,12.76 C5.19733333,12.76 4.15866667,13.58 4.15866667,14.5213333 L4.15866667,64.4613333 L4.15866667,72.9893333 C4.15866667,73.9306667 5.19733333,74.752 6.42933333,74.752 L47.4533333,74.752 C48.6613333,74.752 49.704,73.9306667 49.704,72.9893333 L49.704,27.5693333 L49.704,14.5213333 C49.704,13.58 48.6626667,12.76 47.4533333,12.76 L42.576,12.76 C42.4306667,11.912 42.188,11.1653333 41.876,10.488 C41.7773333,10.244 41.6573333,10.0266667 41.512,9.81066667 C41.488,9.716 41.4413333,9.64 41.392,9.54666667 C41.2493333,9.32933333 41.1,9.13466667 40.9573333,8.94266667 C40.788,8.748 40.6213333,8.58 40.4493333,8.432 C40.256,8.26533333 40.088,8.12133333 39.892,7.99866667 C39.6986667,7.87866667 39.4826667,7.75733333 39.2906667,7.66133333 L48.012,7.66133333 C51.7546667,7.66 54.8,10.4866667 54.8,13.968 L54.8,13.968 Z" id="Shape" fill="#000000"></path>
                <polygon id="Shape" fill="#000000" points="42.528 62.044 42.528 64.4613333 9.86133333 64.4613333 9.86133333 62.044 14.836 62.044"></polygon>
                <path d="M40.86,12.7586667 C41.0533333,13.8426667 41.1493333,14.9573333 41.1493333,15.9493333 C39.7253333,15.8026667 36.4146667,15.8026667 28.6106667,15.8026667 L25.0586667,15.8026667 C17.6186667,15.8266667 14.4053333,15.8266667 13.004,15.9493333 C13.004,14.788 13.0773333,13.724 13.2466667,12.7586667 C13.3893333,11.9106667 13.5586667,11.14 13.8253333,10.4866667 C14.164,9.616 14.5986667,8.94133333 15.156,8.45733333 C15.6866667,7.99733333 16.3386667,7.75733333 17.112,7.75733333 L20.5186667,7.75733333 L20.5186667,7.66133333 L20.5426667,7.22533333 C20.6653333,3.216 23.42,0.076 26.8266667,0.076 C30.2306667,0.076 33.012,3.216 33.132,7.22533333 L33.132,7.66133333 L33.132,7.75733333 L36.6106667,7.75733333 C37.36,7.75733333 37.9626667,7.952 38.4933333,8.288 C38.6653333,8.408 38.8346667,8.532 38.9773333,8.67466667 C39.1706667,8.84533333 39.3413333,9.036 39.4853333,9.256 C39.6546667,9.44933333 39.7746667,9.68933333 39.92,9.93333333 C40.0186667,10.1013333 40.0893333,10.2946667 40.1853333,10.488 C40.472,11.188 40.6906667,11.9613333 40.86,12.7586667 L40.86,12.7586667 Z M28.8026667,7.66 C29.3333333,7.12933333 29.6746667,6.40266667 29.6746667,5.60533333 C29.6746667,4.036 28.3933333,2.75466667 26.8226667,2.75466667 C25.2293333,2.75466667 23.948,4.036 23.948,5.60533333 C23.948,6.40266667 24.284,7.12933333 24.792,7.66 C25.3253333,8.168 26.0266667,8.45733333 26.8226667,8.45733333 C27.5933333,8.45733333 28.2946667,8.168 28.8026667,7.66 L28.8026667,7.66 Z" id="Shape" fill="#000000"></path>
                <polygon id="Shape" fill="#000000" points="23.0053333 57.1893333 14.836 60.8613333 16.6746667 52.0666667 17.3026667 52.5746667"></polygon>
            </g>
        </g>
    </g>
</svg>