<?xml version="1.0" encoding="UTF-8" standalone="no"?>
<svg width="93px" height="74px" viewBox="0 0 93 74" version="1.1" xmlns="http://www.w3.org/2000/svg" xmlns:xlink="http://www.w3.org/1999/xlink">
    <!-- Generator: Sketch 39.1 (31720) - http://www.bohemiancoding.com/sketch -->
    <title>Group 2</title>
    <desc>Created with Sketch.</desc>
    <defs></defs>
    <g id="Page-1" stroke="none" stroke-width="1" fill="none" fill-rule="evenodd">
        <g id="Home" transform="translate(-194.000000, -2619.000000)">
            <g id="Group-2" transform="translate(194.000000, 2619.000000)">
                <ellipse id="Oval" fill="#DC471F" cx="46.2187702" cy="10.1192324" rx="9.60215978" ry="9.58347887"></ellipse>
                <ellipse id="Oval" fill="#DC471F" cx="46.2187702" cy="34.1780704" rx="11.5704186" ry="11.5479085"></ellipse>
                <polyline id="Shape" fill="#DC471F" points="34.6466794 34.1780704 34.6466794 73.4399577 57.7891888 73.4399577 57.7891888 34.1780704"></polyline>
                <g id="Group" transform="translate(0.000000, 21.697183)" fill="#000000">
                    <ellipse id="Oval" cx="8.77001263" cy="7.3119507" rx="7.25429626" ry="7.2401831"></ellipse>
                    <ellipse id="Oval" cx="8.77001263" cy="25.4875141" rx="8.74261431" ry="8.72560563"></ellipse>
                    <polyline id="Shape" points="0.0273983271 25.4875141 0.0273983271 51.7427746 17.5109547 51.7427746 17.5109547 25.4875141"></polyline>
                </g>
                <g id="Group" transform="translate(74.314536, 21.697183)" fill="#000000">
                    <ellipse id="Oval" cx="9.58543711" cy="7.23851408" rx="7.25262399" ry="7.23851408"></ellipse>
                    <ellipse id="Oval" cx="9.58543711" cy="25.4174155" rx="8.74094204" ry="8.72393662"></ellipse>
                    <polyline id="Shape" points="0.84449507 25.4174155 0.84449507 51.7427746 18.3263791 51.7427746 18.3263791 25.4174155"></polyline>
                </g>
                <g id="Group" transform="translate(11.808894, 6.676056)" fill="#DC471F">
                    <ellipse id="Oval" cx="5.89269893" cy="5.71971127" rx="5.30777693" ry="5.2974507"></ellipse>
                    <polyline id="Shape" points="2.14180301 9.46664789 32.5636927 39.8260141 40.0671568 32.3354789 9.64526712 1.97277465"></polyline>
                </g>
                <g id="Group" transform="translate(40.869187, 6.676056)" fill="#DC471F">
                    <ellipse id="Oval" cx="34.1861638" cy="5.71971127" rx="5.30777693" ry="5.2974507"></ellipse>
                    <polyline id="Shape" points="30.4319233 1.97444366 0.0133781397 32.3371479 7.51851452 39.8276831 37.9404042 9.46497887"></polyline>
                </g>
            </g>
        </g>
    </g>
</svg>