<?xml version="1.0" encoding="UTF-8" standalone="no"?>
<svg width="82px" height="75px" viewBox="0 0 82 75" version="1.1" xmlns="http://www.w3.org/2000/svg" xmlns:xlink="http://www.w3.org/1999/xlink">
    <!-- Generator: Sketch 39.1 (31720) - http://www.bohemiancoding.com/sketch -->
    <title>Group</title>
    <desc>Created with Sketch.</desc>
    <defs></defs>
    <g id="Page-1" stroke="none" stroke-width="1" fill="none" fill-rule="evenodd">
        <g id="Home" transform="translate(-993.000000, -2619.000000)">
            <g id="Group" transform="translate(993.000000, 2619.000000)">
                <path d="M12.2453804,67.4722826 L55.7910326,67.4722826 C58.5652174,67.4722826 62.1798913,68.5630435 64.0891304,70.0915761 L65.2703804,71.0355978 C67.6858696,72.9668478 66.8706522,74.7888587 63.05625,74.7888587 L3.20298913,74.7888587 C-0.611413043,74.7888587 -0.984782609,72.967663 1.90027174,71.0355978 L3.31059783,70.0915761 C5.59076087,68.5630435 9.47119565,67.4722826 12.2453804,67.4722826 L12.2453804,67.4722826 Z" id="Shape" fill="#000000"></path>
                <path d="M11.8850543,70.0084239 C9.45815217,66.0342391 8.06005435,61.3638587 8.06005435,56.3682065 C8.06005435,41.894837 19.792663,30.1622283 34.2652174,30.1622283 C48.7377717,30.1622283 60.4703804,41.894837 60.4703804,56.3682065 C60.4703804,61.3646739 59.0722826,66.0342391 56.6673913,70.0084239 L11.8850543,70.0084239 L11.8850543,70.0084239 Z" id="Shape" fill="#000000"></path>
                <path d="M31.4877717,25.2293478 C31.4877717,11.4122283 42.6880435,0.211956522 56.505163,0.211956522 C70.3222826,0.211956522 81.5217391,11.4122283 81.5217391,25.2293478 C81.5217391,36.7076087 73.7918478,46.380163 63.2527174,49.3255435 C60.401087,35.9584239 48.525,25.9336957 34.3067935,25.9336957 C33.3603261,25.9336957 32.4244565,25.9777174 31.5016304,26.0649457 C31.492663,25.7877717 31.4877717,25.5089674 31.4877717,25.2293478 L31.4877717,25.2293478 Z" id="Shape" fill="#DC471F"></path>
            </g>
        </g>
    </g>
</svg>