<?xml version="1.0" encoding="UTF-8" standalone="no"?>
<svg width="250px" height="34px" viewBox="0 0 250 34" version="1.1" xmlns="http://www.w3.org/2000/svg" xmlns:xlink="http://www.w3.org/1999/xlink">
    <!-- Generator: Sketch 3.8.3 (29802) - http://www.bohemiancoding.com/sketch -->
    <title>Group 4</title>
    <desc>Created with Sketch.</desc>
    <defs></defs>
    <g id="Page-1" stroke="none" stroke-width="1" fill="none" fill-rule="evenodd">
        <g id="Group-4" fill="#7FDBE6">
            <path d="M0,12.8 C3.13975054,12.8 5.38347151,11.8080511 10.3128092,8.90243154 C14.412716,6.48572355 16.1819095,5.70356326 18.05799,5.70356326 C19.8653301,5.70356326 21.5878029,6.48241548 25.5808629,8.88973344 C30.4159663,11.8046987 32.6173143,12.8 35.7147135,12.8 C38.8117,12.8 41.0122642,11.8049687 45.8478155,8.88973344 C49.8405749,6.48259673 51.5635946,5.70356326 53.371437,5.70356326 C55.2474809,5.70356326 57.0165143,6.48570147 61.1160405,8.9023854 C66.0450102,11.808029 68.2886416,12.8 71.4284288,12.8 C74.5681794,12.8 76.8119003,11.8080511 81.741238,8.90243154 C85.8411449,6.48572355 87.6103383,5.70356326 89.4864188,5.70356326 C91.2937589,5.70356326 93.0162317,6.48241548 97.0092917,8.88973344 C101.844395,11.8046987 104.045743,12.8 107.143142,12.8 L107.143142,12.8 C110.240129,12.8 112.440693,11.8049687 117.276244,8.88973344 C121.269004,6.48259673 122.992023,5.70356326 124.799866,5.70356326 C126.675459,5.70356326 128.444283,6.48563321 132.544134,8.90240847 C134.085097,9.81077313 134.777621,10.2076576 135.663365,10.6717647 C138.333235,12.0707066 140.560165,12.8 142.856858,12.8 C145.996608,12.8 148.240329,11.8080511 153.169667,8.90243154 C157.269574,6.48572355 159.038767,5.70356326 160.914848,5.70356326 C162.722188,5.70356326 164.444661,6.48241548 168.437721,8.88973344 C173.272824,11.8046987 175.474172,12.8 178.571571,12.8 C180.838512,12.8 183.029351,12.0661894 185.651759,10.6608097 C186.519177,10.19595 187.196675,9.79883172 188.704589,8.88970921 C192.69729,6.48250562 194.419943,5.70356326 196.227297,5.70356326 C198.103828,5.70356326 199.87323,6.48579178 203.972813,8.90240847 C208.902171,11.8081608 211.145528,12.8 214.285286,12.8 L214.285286,12.8 C217.425037,12.8 219.668758,11.8080511 224.598096,8.90243154 C228.698003,6.48572355 230.467196,5.70356326 232.343276,5.70356326 L232.343276,5.70356326 C234.150617,5.70356326 235.873089,6.48241548 239.866149,8.88973344 C244.701253,11.8046987 246.902601,12.8 250,12.8 L250,7.89643674 C248.192158,7.89643674 246.469138,7.11740327 242.476378,4.71026656 C237.640827,1.79503126 235.440263,0.8 232.343276,0.8 L232.343276,0.8 C229.203526,0.8 226.959805,1.79194889 222.030467,4.69756846 C217.93056,7.11427645 216.161367,7.89643674 214.285286,7.89643674 L214.285286,7.89643674 C212.409256,7.89643674 210.640405,7.11438748 206.540519,4.69759153 C201.611605,1.79210126 199.36747,0.8 196.227297,0.8 C193.130281,0.8 190.929441,1.79516683 186.094279,4.71029079 C184.659572,5.57527746 184.029239,5.94474956 183.261867,6.3559932 C181.306864,7.40370271 179.835775,7.89643674 178.571571,7.89643674 C176.763729,7.89643674 175.040709,7.11740327 171.04795,4.71026656 C166.212398,1.79503126 164.011834,0.8 160.914848,0.8 C157.775097,0.8 155.531376,1.79194889 150.602039,4.69756846 C146.502132,7.11427645 144.732938,7.89643674 142.856858,7.89643674 C141.542141,7.89643674 140.023713,7.39916933 138.011912,6.34503823 C137.225567,5.93301375 136.580017,5.56305013 135.111841,4.69759153 C130.182447,1.79181852 127.93923,0.8 124.799866,0.8 C121.702467,0.8 119.501119,1.79530133 114.666015,4.71026656 C110.672955,7.11758452 108.950482,7.89643674 107.143142,7.89643674 L107.143142,7.89643674 C105.3353,7.89643674 103.61228,7.11740327 99.6195208,4.71026656 C94.7839695,1.79503126 92.5834053,0.8 89.4864188,0.8 C86.3466683,0.8 84.1029473,1.79194889 79.1736097,4.69756846 C75.0737028,7.11427645 73.3045094,7.89643674 71.4284288,7.89643674 C69.552385,7.89643674 67.7833515,7.11429853 63.6838254,4.6976146 C58.7548556,1.79197097 56.5112242,0.8 53.371437,0.8 C50.2740379,0.8 48.0726898,1.79530133 43.2375864,4.71026656 C39.2445264,7.11758452 37.5220536,7.89643674 35.7147135,7.89643674 C33.9068711,7.89643674 32.1838514,7.11740327 28.191092,4.71026656 C23.3555406,1.79503126 21.1549765,0.8 18.05799,0.8 C14.9182395,0.8 12.6745185,1.79194889 7.74518084,4.69756846 C3.64527395,7.11427645 1.87608052,7.89643674 0,7.89643674 L0,12.8" id="Stroke-24"></path>
            <path d="M0,34 C3.13975054,34 5.38347151,33.0080511 10.3128092,30.1024315 C14.412716,27.6857236 16.1819095,26.9035633 18.05799,26.9035633 C19.8653301,26.9035633 21.5878029,27.6824155 25.5808629,30.0897334 C30.4159663,33.0046987 32.6173143,34 35.7147135,34 C38.8117,34 41.0122642,33.0049687 45.8478155,30.0897334 C49.8405749,27.6825967 51.5635946,26.9035633 53.371437,26.9035633 C55.2474809,26.9035633 57.0165143,27.6857015 61.1160405,30.1023854 C66.0450102,33.008029 68.2886416,34 71.4284288,34 C74.5681794,34 76.8119003,33.0080511 81.741238,30.1024315 C85.8411449,27.6857236 87.6103383,26.9035633 89.4864188,26.9035633 C91.2937589,26.9035633 93.0162317,27.6824155 97.0092917,30.0897334 C101.844395,33.0046987 104.045743,34 107.143142,34 L107.143142,34 C110.240129,34 112.440693,33.0049687 117.276244,30.0897334 C121.269004,27.6825967 122.992023,26.9035633 124.799866,26.9035633 C126.675459,26.9035633 128.444283,27.6856332 132.544134,30.1024085 C134.085097,31.0107731 134.777621,31.4076576 135.663365,31.8717647 C138.333235,33.2707066 140.560165,34 142.856858,34 C145.996608,34 148.240329,33.0080511 153.169667,30.1024315 C157.269574,27.6857236 159.038767,26.9035633 160.914848,26.9035633 C162.722188,26.9035633 164.444661,27.6824155 168.437721,30.0897334 C173.272824,33.0046987 175.474172,34 178.571571,34 C180.838512,34 183.029351,33.2661894 185.651759,31.8608097 C186.519177,31.39595 187.196675,30.9988317 188.704589,30.0897092 C192.69729,27.6825056 194.419943,26.9035633 196.227297,26.9035633 C198.103828,26.9035633 199.87323,27.6857918 203.972813,30.1024085 C208.902171,33.0081608 211.145528,34 214.285286,34 L214.285286,34 C217.425037,34 219.668758,33.0080511 224.598096,30.1024315 C228.698003,27.6857236 230.467196,26.9035633 232.343276,26.9035633 L232.343276,26.9035633 C234.150617,26.9035633 235.873089,27.6824155 239.866149,30.0897334 C244.701253,33.0046987 246.902601,34 250,34 L250,29.0964367 C248.192158,29.0964367 246.469138,28.3174033 242.476378,25.9102666 C237.640827,22.9950313 235.440263,22 232.343276,22 L232.343276,22 C229.203526,22 226.959805,22.9919489 222.030467,25.8975685 C217.93056,28.3142764 216.161367,29.0964367 214.285286,29.0964367 L214.285286,29.0964367 C212.409256,29.0964367 210.640405,28.3143875 206.540519,25.8975915 C201.611605,22.9921013 199.36747,22 196.227297,22 C193.130281,22 190.929441,22.9951668 186.094279,25.9102908 C184.659572,26.7752775 184.029239,27.1447496 183.261867,27.5559932 C181.306864,28.6037027 179.835775,29.0964367 178.571571,29.0964367 C176.763729,29.0964367 175.040709,28.3174033 171.04795,25.9102666 C166.212398,22.9950313 164.011834,22 160.914848,22 C157.775097,22 155.531376,22.9919489 150.602039,25.8975685 C146.502132,28.3142764 144.732938,29.0964367 142.856858,29.0964367 C141.542141,29.0964367 140.023713,28.5991693 138.011912,27.5450382 C137.225567,27.1330138 136.580017,26.7630501 135.111841,25.8975915 C130.182447,22.9918185 127.93923,22 124.799866,22 C121.702467,22 119.501119,22.9953013 114.666015,25.9102666 C110.672955,28.3175845 108.950482,29.0964367 107.143142,29.0964367 L107.143142,29.0964367 C105.3353,29.0964367 103.61228,28.3174033 99.6195208,25.9102666 C94.7839695,22.9950313 92.5834053,22 89.4864188,22 C86.3466683,22 84.1029473,22.9919489 79.1736097,25.8975685 C75.0737028,28.3142764 73.3045094,29.0964367 71.4284288,29.0964367 C69.552385,29.0964367 67.7833515,28.3142985 63.6838254,25.8976146 C58.7548556,22.991971 56.5112242,22 53.371437,22 C50.2740379,22 48.0726898,22.9953013 43.2375864,25.9102666 C39.2445264,28.3175845 37.5220536,29.0964367 35.7147135,29.0964367 C33.9068711,29.0964367 32.1838514,28.3174033 28.191092,25.9102666 C23.3555406,22.9950313 21.1549765,22 18.05799,22 C14.9182395,22 12.6745185,22.9919489 7.74518084,25.8975685 C3.64527395,28.3142764 1.87608052,29.0964367 0,29.0964367 L0,34" id="Stroke-24"></path>
            <path d="M0,23.4 C3.13975054,23.4 5.38347151,22.4080511 10.3128092,19.5024315 C14.412716,17.0857236 16.1819095,16.3035633 18.05799,16.3035633 C19.8653301,16.3035633 21.5878029,17.0824155 25.5808629,19.4897334 C30.4159663,22.4046987 32.6173143,23.4 35.7147135,23.4 C38.8117,23.4 41.0122642,22.4049687 45.8478155,19.4897334 C49.8405749,17.0825967 51.5635946,16.3035633 53.371437,16.3035633 C55.2474809,16.3035633 57.0165143,17.0857015 61.1160405,19.5023854 C66.0450102,22.408029 68.2886416,23.4 71.4284288,23.4 C74.5681794,23.4 76.8119003,22.4080511 81.741238,19.5024315 C85.8411449,17.0857236 87.6103383,16.3035633 89.4864188,16.3035633 C91.2937589,16.3035633 93.0162317,17.0824155 97.0092917,19.4897334 C101.844395,22.4046987 104.045743,23.4 107.143142,23.4 L107.143142,23.4 C110.240129,23.4 112.440693,22.4049687 117.276244,19.4897334 C121.269004,17.0825967 122.992023,16.3035633 124.799866,16.3035633 C126.675459,16.3035633 128.444283,17.0856332 132.544134,19.5024085 C134.085097,20.4107731 134.777621,20.8076576 135.663365,21.2717647 C138.333235,22.6707066 140.560165,23.4 142.856858,23.4 C145.996608,23.4 148.240329,22.4080511 153.169667,19.5024315 C157.269574,17.0857236 159.038767,16.3035633 160.914848,16.3035633 C162.722188,16.3035633 164.444661,17.0824155 168.437721,19.4897334 C173.272824,22.4046987 175.474172,23.4 178.571571,23.4 C180.838512,23.4 183.029351,22.6661894 185.651759,21.2608097 C186.519177,20.79595 187.196675,20.3988317 188.704589,19.4897092 C192.69729,17.0825056 194.419943,16.3035633 196.227297,16.3035633 C198.103828,16.3035633 199.87323,17.0857918 203.972813,19.5024085 C208.902171,22.4081608 211.145528,23.4 214.285286,23.4 L214.285286,23.4 C217.425037,23.4 219.668758,22.4080511 224.598096,19.5024315 C228.698003,17.0857236 230.467196,16.3035633 232.343276,16.3035633 L232.343276,16.3035633 C234.150617,16.3035633 235.873089,17.0824155 239.866149,19.4897334 C244.701253,22.4046987 246.902601,23.4 250,23.4 L250,18.4964367 C248.192158,18.4964367 246.469138,17.7174033 242.476378,15.3102666 C237.640827,12.3950313 235.440263,11.4 232.343276,11.4 L232.343276,11.4 C229.203526,11.4 226.959805,12.3919489 222.030467,15.2975685 C217.93056,17.7142764 216.161367,18.4964367 214.285286,18.4964367 L214.285286,18.4964367 C212.409256,18.4964367 210.640405,17.7143875 206.540519,15.2975915 C201.611605,12.3921013 199.36747,11.4 196.227297,11.4 C193.130281,11.4 190.929441,12.3951668 186.094279,15.3102908 C184.659572,16.1752775 184.029239,16.5447496 183.261867,16.9559932 C181.306864,18.0037027 179.835775,18.4964367 178.571571,18.4964367 C176.763729,18.4964367 175.040709,17.7174033 171.04795,15.3102666 C166.212398,12.3950313 164.011834,11.4 160.914848,11.4 C157.775097,11.4 155.531376,12.3919489 150.602039,15.2975685 C146.502132,17.7142764 144.732938,18.4964367 142.856858,18.4964367 C141.542141,18.4964367 140.023713,17.9991693 138.011912,16.9450382 C137.225567,16.5330138 136.580017,16.1630501 135.111841,15.2975915 C130.182447,12.3918185 127.93923,11.4 124.799866,11.4 C121.702467,11.4 119.501119,12.3953013 114.666015,15.3102666 C110.672955,17.7175845 108.950482,18.4964367 107.143142,18.4964367 L107.143142,18.4964367 C105.3353,18.4964367 103.61228,17.7174033 99.6195208,15.3102666 C94.7839695,12.3950313 92.5834053,11.4 89.4864188,11.4 C86.3466683,11.4 84.1029473,12.3919489 79.1736097,15.2975685 C75.0737028,17.7142764 73.3045094,18.4964367 71.4284288,18.4964367 C69.552385,18.4964367 67.7833515,17.7142985 63.6838254,15.2976146 C58.7548556,12.391971 56.5112242,11.4 53.371437,11.4 C50.2740379,11.4 48.0726898,12.3953013 43.2375864,15.3102666 C39.2445264,17.7175845 37.5220536,18.4964367 35.7147135,18.4964367 C33.9068711,18.4964367 32.1838514,17.7174033 28.191092,15.3102666 C23.3555406,12.3950313 21.1549765,11.4 18.05799,11.4 C14.9182395,11.4 12.6745185,12.3919489 7.74518084,15.2975685 C3.64527395,17.7142764 1.87608052,18.4964367 0,18.4964367 L0,23.4" id="Stroke-24"></path>
        </g>
    </g>
</svg>