<?xml version="1.0" encoding="UTF-8" standalone="no"?>
<svg width="250px" height="12px" viewBox="0 0 250 12" version="1.1" xmlns="http://www.w3.org/2000/svg" xmlns:xlink="http://www.w3.org/1999/xlink">
    <!-- Generator: Sketch 3.8.3 (29802) - http://www.bohemiancoding.com/sketch -->
    <title>Stroke 24</title>
    <desc>Created with Sketch.</desc>
    <defs></defs>
    <g id="Page-1" stroke="none" stroke-width="1" fill="none" fill-rule="evenodd">
        <path d="M0,12 C3.13975054,12 5.38347151,11.0080511 10.3128092,8.10243154 C14.412716,5.68572355 16.1819095,4.90356326 18.05799,4.90356326 C19.8653301,4.90356326 21.5878029,5.68241548 25.5808629,8.08973344 C30.4159663,11.0046987 32.6173143,12 35.7147135,12 C38.8117,12 41.0122642,11.0049687 45.8478155,8.08973344 C49.8405749,5.68259673 51.5635946,4.90356326 53.371437,4.90356326 C55.2474809,4.90356326 57.0165143,5.68570147 61.1160405,8.1023854 C66.0450102,11.008029 68.2886416,12 71.4284288,12 C74.5681794,12 76.8119003,11.0080511 81.741238,8.10243154 C85.8411449,5.68572355 87.6103383,4.90356326 89.4864188,4.90356326 C91.2937589,4.90356326 93.0162317,5.68241548 97.0092917,8.08973344 C101.844395,11.0046987 104.045743,12 107.143142,12 L107.143142,12 C110.240129,12 112.440693,11.0049687 117.276244,8.08973344 C121.269004,5.68259673 122.992023,4.90356326 124.799866,4.90356326 C126.675459,4.90356326 128.444283,5.68563321 132.544134,8.10240847 C134.085097,9.01077313 134.777621,9.40765758 135.663365,9.87176465 C138.333235,11.2707066 140.560165,12 142.856858,12 C145.996608,12 148.240329,11.0080511 153.169667,8.10243154 C157.269574,5.68572355 159.038767,4.90356326 160.914848,4.90356326 C162.722188,4.90356326 164.444661,5.68241548 168.437721,8.08973344 C173.272824,11.0046987 175.474172,12 178.571571,12 C180.838512,12 183.029351,11.2661894 185.651759,9.86080968 C186.519177,9.39595002 187.196675,8.99883172 188.704589,8.08970921 C192.69729,5.68250562 194.419943,4.90356326 196.227297,4.90356326 C198.103828,4.90356326 199.87323,5.68579178 203.972813,8.10240847 C208.902171,11.0081608 211.145528,12 214.285286,12 L214.285286,12 C217.425037,12 219.668758,11.0080511 224.598096,8.10243154 C228.698003,5.68572355 230.467196,4.90356326 232.343276,4.90356326 L232.343276,4.90356326 C234.150617,4.90356326 235.873089,5.68241548 239.866149,8.08973344 C244.701253,11.0046987 246.902601,12 250,12 L250,7.09643674 C248.192158,7.09643674 246.469138,6.31740327 242.476378,3.91026656 C237.640827,0.995031265 235.440263,4.24569609e-10 232.343276,0 L232.343276,0 C229.203526,0 226.959805,0.991948891 222.030467,3.89756846 C217.93056,6.31427645 216.161367,7.09643674 214.285286,7.09643674 L214.285286,7.09643674 C212.409256,7.09643674 210.640405,6.31438748 206.540519,3.89759153 C201.611605,0.992101263 199.36747,0 196.227297,0 C193.130281,0 190.929441,0.995166825 186.094279,3.91029079 C184.659572,4.77527746 184.029239,5.14474956 183.261867,5.5559932 C181.306864,6.60370271 179.835775,7.09643674 178.571571,7.09643674 C176.763729,7.09643674 175.040709,6.31740327 171.04795,3.91026656 C166.212398,0.995031264 164.011834,0 160.914848,0 C157.775097,0 155.531376,0.991948891 150.602039,3.89756846 C146.502132,6.31427645 144.732938,7.09643674 142.856858,7.09643674 C141.542141,7.09643674 140.023713,6.59916933 138.011912,5.54503823 C137.225567,5.13301375 136.580017,4.76305013 135.111841,3.89759153 C130.182447,0.991818522 127.93923,0 124.799866,0 C121.702467,0 119.501119,0.995301328 114.666015,3.91026656 C110.672955,6.31758452 108.950482,7.09643674 107.143142,7.09643674 L107.143142,7.09643674 C105.3353,7.09643674 103.61228,6.31740327 99.6195208,3.91026656 C94.7839695,0.995031264 92.5834053,0 89.4864188,0 C86.3466683,0 84.1029473,0.991948891 79.1736097,3.89756846 C75.0737028,6.31427645 73.3045094,7.09643674 71.4284288,7.09643674 C69.552385,7.09643674 67.7833515,6.31429853 63.6838254,3.8976146 C58.7548556,0.991970973 56.5112242,0 53.371437,0 C50.2740379,0 48.0726898,0.995301328 43.2375864,3.91026656 C39.2445264,6.31758452 37.5220536,7.09643674 35.7147135,7.09643674 C33.9068711,7.09643674 32.1838514,6.31740327 28.191092,3.91026656 C23.3555406,0.995031264 21.1549765,0 18.05799,0 C14.9182395,0 12.6745185,0.991948891 7.74518084,3.89756846 C3.64527395,6.31427645 1.87608052,7.09643674 0,7.09643674 L0,12" id="Stroke-24" fill="#224883"></path>
    </g>
</svg>