<?xml version="1.0" encoding="UTF-8" standalone="no"?>
<svg width="354px" height="41px" viewBox="0 0 354 41" version="1.1" xmlns="http://www.w3.org/2000/svg" xmlns:xlink="http://www.w3.org/1999/xlink">
    <!-- Generator: Sketch 3.8.3 (29802) - http://www.bohemiancoding.com/sketch -->
    <title>Group 3</title>
    <desc>Created with Sketch.</desc>
    <defs></defs>
    <g id="Page-1" stroke="none" stroke-width="1" fill="none" fill-rule="evenodd">
        <g id="Group-3" fill="#7FDBE6">
            <path d="M353.954962,36.0256058 L353.954962,31.1375518 C351.395382,31.1375518 348.955897,30.0729751 343.302869,26.7835378 C336.456599,22.7997659 333.340997,21.4400206 328.956222,21.4400206 L328.956222,21.4400206 C324.510901,21.4400206 321.334196,22.7955538 314.355142,26.7661854 C308.550413,30.0687022 306.045553,31.1375518 303.389361,31.1375518 L303.389361,31.1375518 C300.73324,31.1375518 298.228866,30.0688539 292.424166,26.766217 C285.445712,22.795762 282.26842,21.4400206 277.822501,21.4400206 C273.437685,21.4400206 270.321691,22.7999512 263.475974,26.783571 C261.444686,27.9656058 260.552248,28.4705024 259.465788,29.0324814 C256.697857,30.4642134 254.615059,31.1375518 252.825174,31.1375518 C250.265595,31.1375518 247.82611,30.0729751 242.173082,26.7835378 C235.326812,22.7997659 232.21121,21.4400206 227.826435,21.4400206 C223.381114,21.4400206 220.204409,22.7955538 213.225355,26.7661854 C207.420625,30.0687022 204.915766,31.1375518 202.259574,31.1375518 C200.398172,31.1375518 198.248351,30.4580184 195.400004,29.017511 C194.286681,28.454465 193.372698,27.9488967 191.294026,26.766217 C184.314892,22.7953756 181.138901,21.4400206 176.694127,21.4400206 C172.308768,21.4400206 169.192055,22.800135 162.34642,26.7835378 C156.692966,30.0732228 154.254255,31.1375518 151.695387,31.1375518 L151.695387,31.1375518 C149.135808,31.1375518 146.696323,30.0729751 141.043295,26.7835378 C134.197025,22.7997659 131.081423,21.4400206 126.696648,21.4400206 C122.251327,21.4400206 119.074622,22.7955538 112.095568,26.7661854 C106.290838,30.0687022 103.785979,31.1375518 101.129787,31.1375518 C98.473647,31.1375518 95.9690143,30.0687324 90.1648238,26.7662485 C83.1862906,22.7955839 80.0097128,21.4400206 75.5643398,21.4400206 C71.1789806,21.4400206 68.0622683,22.800135 61.216633,26.7835378 C55.5631793,30.0732228 53.1244681,31.1375518 50.5656002,31.1375518 C48.006021,31.1375518 45.5665355,30.0729751 39.9135075,26.7835378 C33.067238,22.7997659 29.9516356,21.4400206 25.5668606,21.4400206 C21.1215395,21.4400206 17.9448348,22.7955538 10.9657807,26.7661854 C5.1610512,30.0687022 2.65619204,31.1375518 0,31.1375518 L0,36.0256058 L0,40.9136597 C4.44532113,40.9136597 7.6220258,39.5581265 14.6010799,35.5874949 C20.4058094,32.2849781 22.9106686,31.2161285 25.5668606,31.2161285 C28.1257286,31.2161285 30.5644398,32.2804575 36.2178934,35.5701425 C43.0635287,39.5535453 46.180241,40.9136597 50.5656002,40.9136597 C54.9503751,40.9136597 58.0659775,39.5539144 64.9122471,35.5701425 C70.565275,32.2807052 73.0047606,31.2161285 75.5643398,31.2161285 C78.2204799,31.2161285 80.7251126,32.2849479 86.5293031,35.5874318 C93.5078363,39.5580964 96.6844141,40.9136597 101.129787,40.9136597 C105.575108,40.9136597 108.751813,39.5581265 115.730867,35.5874949 C121.535597,32.2849781 124.040456,31.2161285 126.696648,31.2161285 C129.255516,31.2161285 131.694227,32.2804575 137.347681,35.5701425 C144.193316,39.5535453 147.310028,40.9136597 151.695387,40.9136597 L151.695387,40.9136597 C156.080162,40.9136597 159.195765,39.5539144 166.042034,35.5701425 C171.695062,32.2807052 174.134548,31.2161285 176.694127,31.2161285 C179.349629,31.2161285 181.853965,32.2848546 187.658616,35.5874633 C189.840341,36.8287757 190.82083,37.3711323 192.074885,38.005351 C195.854939,39.9170546 199.007871,40.9136597 202.259574,40.9136597 C206.704895,40.9136597 209.8816,39.5581265 216.860654,35.5874949 C222.665384,32.2849781 225.170243,31.2161285 227.826435,31.2161285 C230.385303,31.2161285 232.824014,32.2804575 238.477468,35.5701425 C245.323103,39.5535453 248.439815,40.9136597 252.825174,40.9136597 C256.034755,40.9136597 259.136588,39.9108816 262.849445,37.9903806 C264.077552,37.3551335 265.036768,36.8124573 267.171702,35.5701093 C272.824647,32.2805807 275.263615,31.2161285 277.822501,31.2161285 C280.479331,31.2161285 282.984486,32.2850714 288.788756,35.5874633 C295.76784,39.5582764 298.944029,40.9136597 303.389361,40.9136597 L303.389361,40.9136597 C307.834683,40.9136597 311.011387,39.5581265 317.990441,35.5874949 C323.795171,32.2849781 326.30003,31.2161285 328.956222,31.2161285 L328.956222,31.2161285 C331.51509,31.2161285 333.953801,32.2804575 339.607255,35.5701425 C346.45289,39.5535453 349.569602,40.9136597 353.954962,40.9136597 L353.954962,36.0256058 Z" id="Combined-Shape"></path>
            <path d="M353.954962,14.5855852 L353.954962,9.69753125 C351.395382,9.69753125 348.955897,8.63295451 343.302869,5.34351724 C336.456599,1.35974534 333.340997,5.80189354e-10 328.956222,0 L328.956222,0 C324.510901,0 321.334196,1.35553317 314.355142,5.32616484 C308.550413,8.6286816 306.045553,9.69753125 303.389361,9.69753125 L303.389361,9.69753125 C300.73324,9.69753125 298.228866,8.62883333 292.424166,5.32619637 C285.445712,1.35574139 282.26842,0 277.822501,0 C273.437685,0 270.321691,1.35993059 263.475974,5.34355036 C261.444686,6.52558517 260.552248,7.03048183 259.465788,7.59246078 C256.697857,9.0241928 254.615059,9.69753125 252.825174,9.69753125 C250.265595,9.69753125 247.82611,8.63295451 242.173082,5.34351724 C235.326812,1.35974534 232.21121,0 227.826435,0 C223.381114,0 220.204409,1.35553317 213.225355,5.32616484 C207.420625,8.6286816 204.915766,9.69753125 202.259574,9.69753125 C200.398172,9.69753125 198.248351,9.01799778 195.400004,7.57749042 C194.286681,7.01444444 193.372698,6.50887609 191.294026,5.32619637 C184.314892,1.35535501 181.138901,0 176.694127,0 C172.308768,0 169.192055,1.36011439 162.34642,5.34351724 C156.692966,8.63320219 154.254255,9.69753125 151.695387,9.69753125 L151.695387,9.69753125 C149.135808,9.69753125 146.696323,8.63295451 141.043295,5.34351724 C134.197025,1.35974534 131.081423,0 126.696648,0 C122.251327,0 119.074622,1.35553317 112.095568,5.32616484 C106.290838,8.6286816 103.785979,9.69753125 101.129787,9.69753125 C98.473647,9.69753125 95.9690143,8.62871178 90.1648238,5.3262279 C83.1862906,1.35556334 80.0097128,0 75.5643398,0 C71.1789806,0 68.0622683,1.36011439 61.216633,5.34351724 C55.5631793,8.63320219 53.1244681,9.69753125 50.5656002,9.69753125 C48.006021,9.69753125 45.5665355,8.63295451 39.9135075,5.34351724 C33.067238,1.35974534 29.9516356,0 25.5668606,0 C21.1215395,0 17.9448348,1.35553317 10.9657807,5.32616484 C5.1610512,8.6286816 2.65619204,9.69753125 0,9.69753125 L0,14.5855852 L0,19.4736391 C4.44532113,19.4736391 7.6220258,18.1181059 14.6010799,14.1474743 C20.4058094,10.8449575 22.9106686,9.77610787 25.5668606,9.77610787 C28.1257286,9.77610787 30.5644398,10.8404369 36.2178934,14.1301219 C43.0635287,18.1135247 46.180241,19.4736391 50.5656002,19.4736391 C54.9503751,19.4736391 58.0659775,18.1138938 64.9122471,14.1301219 C70.565275,10.8406846 73.0047606,9.77610787 75.5643398,9.77610787 C78.2204799,9.77610787 80.7251126,10.8449273 86.5293031,14.1474112 C93.5078363,18.1180758 96.6844141,19.4736391 101.129787,19.4736391 C105.575108,19.4736391 108.751813,18.1181059 115.730867,14.1474743 C121.535597,10.8449575 124.040456,9.77610787 126.696648,9.77610787 C129.255516,9.77610787 131.694227,10.8404369 137.347681,14.1301219 C144.193316,18.1135247 147.310028,19.4736391 151.695387,19.4736391 L151.695387,19.4736391 C156.080162,19.4736391 159.195765,18.1138938 166.042034,14.1301219 C171.695062,10.8406846 174.134548,9.77610787 176.694127,9.77610787 C179.349629,9.77610787 181.853965,10.8448341 187.658616,14.1474427 C189.840341,15.3887551 190.82083,15.9311117 192.074885,16.5653304 C195.854939,18.477034 199.007871,19.4736391 202.259574,19.4736391 C206.704895,19.4736391 209.8816,18.1181059 216.860654,14.1474743 C222.665384,10.8449575 225.170243,9.77610787 227.826435,9.77610787 C230.385303,9.77610787 232.824014,10.8404369 238.477468,14.1301219 C245.323103,18.1135247 248.439815,19.4736391 252.825174,19.4736391 C256.034755,19.4736391 259.136588,18.4708611 262.849445,16.55036 C264.077552,15.9151129 265.036768,15.3724368 267.171702,14.1300887 C272.824647,10.8405601 275.263615,9.77610787 277.822501,9.77610787 C280.479331,9.77610787 282.984486,10.8450508 288.788756,14.1474427 C295.76784,18.1182558 298.944029,19.4736391 303.389361,19.4736391 L303.389361,19.4736391 C307.834683,19.4736391 311.011387,18.1181059 317.990441,14.1474743 C323.795171,10.8449575 326.30003,9.77610787 328.956222,9.77610787 L328.956222,9.77610787 C331.51509,9.77610787 333.953801,10.8404369 339.607255,14.1301219 C346.45289,18.1135247 349.569602,19.4736391 353.954962,19.4736391 L353.954962,14.5855852 Z" id="Combined-Shape"></path>
        </g>
    </g>
</svg>