<?xml version="1.0" encoding="UTF-8" standalone="no"?>
<svg width="250px" height="65px" viewBox="0 0 250 65" version="1.1" xmlns="http://www.w3.org/2000/svg" xmlns:xlink="http://www.w3.org/1999/xlink">
    <!-- Generator: Sketch 3.8.3 (29802) - http://www.bohemiancoding.com/sketch -->
    <title>Group</title>
    <desc>Created with Sketch.</desc>
    <defs></defs>
    <g id="Page-1" stroke="none" stroke-width="1" fill="none" fill-rule="evenodd">
        <g id="Group" fill="#224883">
            <path d="M0,22.6 C3.13975054,22.6 5.38347151,21.6080511 10.3128092,18.7024315 C14.412716,16.2857236 16.1819095,15.5035633 18.05799,15.5035633 C19.8653301,15.5035633 21.5878029,16.2824155 25.5808629,18.6897334 C30.4159663,21.6046987 32.6173143,22.6 35.7147135,22.6 C38.8117,22.6 41.0122642,21.6049687 45.8478155,18.6897334 C49.8405749,16.2825967 51.5635946,15.5035633 53.371437,15.5035633 C55.2474809,15.5035633 57.0165143,16.2857015 61.1160405,18.7023854 C66.0450102,21.608029 68.2886416,22.6 71.4284288,22.6 C74.5681794,22.6 76.8119003,21.6080511 81.741238,18.7024315 C85.8411449,16.2857236 87.6103383,15.5035633 89.4864188,15.5035633 C91.2937589,15.5035633 93.0162317,16.2824155 97.0092917,18.6897334 C101.844395,21.6046987 104.045743,22.6 107.143142,22.6 L107.143142,22.6 C110.240129,22.6 112.440693,21.6049687 117.276244,18.6897334 C121.269004,16.2825967 122.992023,15.5035633 124.799866,15.5035633 C126.675459,15.5035633 128.444283,16.2856332 132.544134,18.7024085 C134.085097,19.6107731 134.777621,20.0076576 135.663365,20.4717647 C138.333235,21.8707066 140.560165,22.6 142.856858,22.6 C145.996608,22.6 148.240329,21.6080511 153.169667,18.7024315 C157.269574,16.2857236 159.038767,15.5035633 160.914848,15.5035633 C162.722188,15.5035633 164.444661,16.2824155 168.437721,18.6897334 C173.272824,21.6046987 175.474172,22.6 178.571571,22.6 C180.838512,22.6 183.029351,21.8661894 185.651759,20.4608097 C186.519177,19.99595 187.196675,19.5988317 188.704589,18.6897092 C192.69729,16.2825056 194.419943,15.5035633 196.227297,15.5035633 C198.103828,15.5035633 199.87323,16.2857918 203.972813,18.7024085 C208.902171,21.6081608 211.145528,22.6 214.285286,22.6 L214.285286,22.6 C217.425037,22.6 219.668758,21.6080511 224.598096,18.7024315 C228.698003,16.2857236 230.467196,15.5035633 232.343276,15.5035633 L232.343276,15.5035633 C234.150617,15.5035633 235.873089,16.2824155 239.866149,18.6897334 C244.701253,21.6046987 246.902601,22.6 250,22.6 L250,17.6964367 C248.192158,17.6964367 246.469138,16.9174033 242.476378,14.5102666 C237.640827,11.5950313 235.440263,10.6 232.343276,10.6 L232.343276,10.6 C229.203526,10.6 226.959805,11.5919489 222.030467,14.4975685 C217.93056,16.9142764 216.161367,17.6964367 214.285286,17.6964367 L214.285286,17.6964367 C212.409256,17.6964367 210.640405,16.9143875 206.540519,14.4975915 C201.611605,11.5921013 199.36747,10.6 196.227297,10.6 C193.130281,10.6 190.929441,11.5951668 186.094279,14.5102908 C184.659572,15.3752775 184.029239,15.7447496 183.261867,16.1559932 C181.306864,17.2037027 179.835775,17.6964367 178.571571,17.6964367 C176.763729,17.6964367 175.040709,16.9174033 171.04795,14.5102666 C166.212398,11.5950313 164.011834,10.6 160.914848,10.6 C157.775097,10.6 155.531376,11.5919489 150.602039,14.4975685 C146.502132,16.9142764 144.732938,17.6964367 142.856858,17.6964367 C141.542141,17.6964367 140.023713,17.1991693 138.011912,16.1450382 C137.225567,15.7330138 136.580017,15.3630501 135.111841,14.4975915 C130.182447,11.5918185 127.93923,10.6 124.799866,10.6 C121.702467,10.6 119.501119,11.5953013 114.666015,14.5102666 C110.672955,16.9175845 108.950482,17.6964367 107.143142,17.6964367 L107.143142,17.6964367 C105.3353,17.6964367 103.61228,16.9174033 99.6195208,14.5102666 C94.7839695,11.5950313 92.5834053,10.6 89.4864188,10.6 C86.3466683,10.6 84.1029473,11.5919489 79.1736097,14.4975685 C75.0737028,16.9142764 73.3045094,17.6964367 71.4284288,17.6964367 C69.552385,17.6964367 67.7833515,16.9142985 63.6838254,14.4976146 C58.7548556,11.591971 56.5112242,10.6 53.371437,10.6 C50.2740379,10.6 48.0726898,11.5953013 43.2375864,14.5102666 C39.2445264,16.9175845 37.5220536,17.6964367 35.7147135,17.6964367 C33.9068711,17.6964367 32.1838514,16.9174033 28.191092,14.5102666 C23.3555406,11.5950313 21.1549765,10.6 18.05799,10.6 C14.9182395,10.6 12.6745185,11.5919489 7.74518084,14.4975685 C3.64527395,16.9142764 1.87608052,17.6964367 0,17.6964367 L0,22.6" id="Stroke-24"></path>
            <path d="M0,12 C3.13975054,12 5.38347151,11.0080511 10.3128092,8.10243154 C14.412716,5.68572355 16.1819095,4.90356326 18.05799,4.90356326 C19.8653301,4.90356326 21.5878029,5.68241548 25.5808629,8.08973344 C30.4159663,11.0046987 32.6173143,12 35.7147135,12 C38.8117,12 41.0122642,11.0049687 45.8478155,8.08973344 C49.8405749,5.68259673 51.5635946,4.90356326 53.371437,4.90356326 C55.2474809,4.90356326 57.0165143,5.68570147 61.1160405,8.1023854 C66.0450102,11.008029 68.2886416,12 71.4284288,12 C74.5681794,12 76.8119003,11.0080511 81.741238,8.10243154 C85.8411449,5.68572355 87.6103383,4.90356326 89.4864188,4.90356326 C91.2937589,4.90356326 93.0162317,5.68241548 97.0092917,8.08973344 C101.844395,11.0046987 104.045743,12 107.143142,12 L107.143142,12 C110.240129,12 112.440693,11.0049687 117.276244,8.08973344 C121.269004,5.68259673 122.992023,4.90356326 124.799866,4.90356326 C126.675459,4.90356326 128.444283,5.68563321 132.544134,8.10240847 C134.085097,9.01077313 134.777621,9.40765758 135.663365,9.87176465 C138.333235,11.2707066 140.560165,12 142.856858,12 C145.996608,12 148.240329,11.0080511 153.169667,8.10243154 C157.269574,5.68572355 159.038767,4.90356326 160.914848,4.90356326 C162.722188,4.90356326 164.444661,5.68241548 168.437721,8.08973344 C173.272824,11.0046987 175.474172,12 178.571571,12 C180.838512,12 183.029351,11.2661894 185.651759,9.86080968 C186.519177,9.39595002 187.196675,8.99883172 188.704589,8.08970921 C192.69729,5.68250562 194.419943,4.90356326 196.227297,4.90356326 C198.103828,4.90356326 199.87323,5.68579178 203.972813,8.10240847 C208.902171,11.0081608 211.145528,12 214.285286,12 L214.285286,12 C217.425037,12 219.668758,11.0080511 224.598096,8.10243154 C228.698003,5.68572355 230.467196,4.90356326 232.343276,4.90356326 L232.343276,4.90356326 C234.150617,4.90356326 235.873089,5.68241548 239.866149,8.08973344 C244.701253,11.0046987 246.902601,12 250,12 L250,7.09643674 C248.192158,7.09643674 246.469138,6.31740327 242.476378,3.91026656 C237.640827,0.995031265 235.440263,4.24569609e-10 232.343276,0 L232.343276,0 C229.203526,0 226.959805,0.991948891 222.030467,3.89756846 C217.93056,6.31427645 216.161367,7.09643674 214.285286,7.09643674 L214.285286,7.09643674 C212.409256,7.09643674 210.640405,6.31438748 206.540519,3.89759153 C201.611605,0.992101263 199.36747,0 196.227297,0 C193.130281,0 190.929441,0.995166825 186.094279,3.91029079 C184.659572,4.77527746 184.029239,5.14474956 183.261867,5.5559932 C181.306864,6.60370271 179.835775,7.09643674 178.571571,7.09643674 C176.763729,7.09643674 175.040709,6.31740327 171.04795,3.91026656 C166.212398,0.995031264 164.011834,0 160.914848,0 C157.775097,0 155.531376,0.991948891 150.602039,3.89756846 C146.502132,6.31427645 144.732938,7.09643674 142.856858,7.09643674 C141.542141,7.09643674 140.023713,6.59916933 138.011912,5.54503823 C137.225567,5.13301375 136.580017,4.76305013 135.111841,3.89759153 C130.182447,0.991818522 127.93923,0 124.799866,0 C121.702467,0 119.501119,0.995301328 114.666015,3.91026656 C110.672955,6.31758452 108.950482,7.09643674 107.143142,7.09643674 L107.143142,7.09643674 C105.3353,7.09643674 103.61228,6.31740327 99.6195208,3.91026656 C94.7839695,0.995031264 92.5834053,0 89.4864188,0 C86.3466683,0 84.1029473,0.991948891 79.1736097,3.89756846 C75.0737028,6.31427645 73.3045094,7.09643674 71.4284288,7.09643674 C69.552385,7.09643674 67.7833515,6.31429853 63.6838254,3.8976146 C58.7548556,0.991970973 56.5112242,0 53.371437,0 C50.2740379,0 48.0726898,0.995301328 43.2375864,3.91026656 C39.2445264,6.31758452 37.5220536,7.09643674 35.7147135,7.09643674 C33.9068711,7.09643674 32.1838514,6.31740327 28.191092,3.91026656 C23.3555406,0.995031264 21.1549765,0 18.05799,0 C14.9182395,0 12.6745185,0.991948891 7.74518084,3.89756846 C3.64527395,6.31427645 1.87608052,7.09643674 0,7.09643674 L0,12" id="Stroke-24"></path>
            <path d="M0,43.8 C3.13975054,43.8 5.38347151,42.8080511 10.3128092,39.9024315 C14.412716,37.4857236 16.1819095,36.7035633 18.05799,36.7035633 C19.8653301,36.7035633 21.5878029,37.4824155 25.5808629,39.8897334 C30.4159663,42.8046987 32.6173143,43.8 35.7147135,43.8 C38.8117,43.8 41.0122642,42.8049687 45.8478155,39.8897334 C49.8405749,37.4825967 51.5635946,36.7035633 53.371437,36.7035633 C55.2474809,36.7035633 57.0165143,37.4857015 61.1160405,39.9023854 C66.0450102,42.808029 68.2886416,43.8 71.4284288,43.8 C74.5681794,43.8 76.8119003,42.8080511 81.741238,39.9024315 C85.8411449,37.4857236 87.6103383,36.7035633 89.4864188,36.7035633 C91.2937589,36.7035633 93.0162317,37.4824155 97.0092917,39.8897334 C101.844395,42.8046987 104.045743,43.8 107.143142,43.8 L107.143142,43.8 C110.240129,43.8 112.440693,42.8049687 117.276244,39.8897334 C121.269004,37.4825967 122.992023,36.7035633 124.799866,36.7035633 C126.675459,36.7035633 128.444283,37.4856332 132.544134,39.9024085 C134.085097,40.8107731 134.777621,41.2076576 135.663365,41.6717647 C138.333235,43.0707066 140.560165,43.8 142.856858,43.8 C145.996608,43.8 148.240329,42.8080511 153.169667,39.9024315 C157.269574,37.4857236 159.038767,36.7035633 160.914848,36.7035633 C162.722188,36.7035633 164.444661,37.4824155 168.437721,39.8897334 C173.272824,42.8046987 175.474172,43.8 178.571571,43.8 C180.838512,43.8 183.029351,43.0661894 185.651759,41.6608097 C186.519177,41.19595 187.196675,40.7988317 188.704589,39.8897092 C192.69729,37.4825056 194.419943,36.7035633 196.227297,36.7035633 C198.103828,36.7035633 199.87323,37.4857918 203.972813,39.9024085 C208.902171,42.8081608 211.145528,43.8 214.285286,43.8 L214.285286,43.8 C217.425037,43.8 219.668758,42.8080511 224.598096,39.9024315 C228.698003,37.4857236 230.467196,36.7035633 232.343276,36.7035633 L232.343276,36.7035633 C234.150617,36.7035633 235.873089,37.4824155 239.866149,39.8897334 C244.701253,42.8046987 246.902601,43.8 250,43.8 L250,38.8964367 C248.192158,38.8964367 246.469138,38.1174033 242.476378,35.7102666 C237.640827,32.7950313 235.440263,31.8 232.343276,31.8 L232.343276,31.8 C229.203526,31.8 226.959805,32.7919489 222.030467,35.6975685 C217.93056,38.1142764 216.161367,38.8964367 214.285286,38.8964367 L214.285286,38.8964367 C212.409256,38.8964367 210.640405,38.1143875 206.540519,35.6975915 C201.611605,32.7921013 199.36747,31.8 196.227297,31.8 C193.130281,31.8 190.929441,32.7951668 186.094279,35.7102908 C184.659572,36.5752775 184.029239,36.9447496 183.261867,37.3559932 C181.306864,38.4037027 179.835775,38.8964367 178.571571,38.8964367 C176.763729,38.8964367 175.040709,38.1174033 171.04795,35.7102666 C166.212398,32.7950313 164.011834,31.8 160.914848,31.8 C157.775097,31.8 155.531376,32.7919489 150.602039,35.6975685 C146.502132,38.1142764 144.732938,38.8964367 142.856858,38.8964367 C141.542141,38.8964367 140.023713,38.3991693 138.011912,37.3450382 C137.225567,36.9330138 136.580017,36.5630501 135.111841,35.6975915 C130.182447,32.7918185 127.93923,31.8 124.799866,31.8 C121.702467,31.8 119.501119,32.7953013 114.666015,35.7102666 C110.672955,38.1175845 108.950482,38.8964367 107.143142,38.8964367 L107.143142,38.8964367 C105.3353,38.8964367 103.61228,38.1174033 99.6195208,35.7102666 C94.7839695,32.7950313 92.5834053,31.8 89.4864188,31.8 C86.3466683,31.8 84.1029473,32.7919489 79.1736097,35.6975685 C75.0737028,38.1142764 73.3045094,38.8964367 71.4284288,38.8964367 C69.552385,38.8964367 67.7833515,38.1142985 63.6838254,35.6976146 C58.7548556,32.791971 56.5112242,31.8 53.371437,31.8 C50.2740379,31.8 48.0726898,32.7953013 43.2375864,35.7102666 C39.2445264,38.1175845 37.5220536,38.8964367 35.7147135,38.8964367 C33.9068711,38.8964367 32.1838514,38.1174033 28.191092,35.7102666 C23.3555406,32.7950313 21.1549765,31.8 18.05799,31.8 C14.9182395,31.8 12.6745185,32.7919489 7.74518084,35.6975685 C3.64527395,38.1142764 1.87608052,38.8964367 0,38.8964367 L0,43.8" id="Stroke-24"></path>
            <path d="M0,33.2 C3.13975054,33.2 5.38347151,32.2080511 10.3128092,29.3024315 C14.412716,26.8857236 16.1819095,26.1035633 18.05799,26.1035633 C19.8653301,26.1035633 21.5878029,26.8824155 25.5808629,29.2897334 C30.4159663,32.2046987 32.6173143,33.2 35.7147135,33.2 C38.8117,33.2 41.0122642,32.2049687 45.8478155,29.2897334 C49.8405749,26.8825967 51.5635946,26.1035633 53.371437,26.1035633 C55.2474809,26.1035633 57.0165143,26.8857015 61.1160405,29.3023854 C66.0450102,32.208029 68.2886416,33.2 71.4284288,33.2 C74.5681794,33.2 76.8119003,32.2080511 81.741238,29.3024315 C85.8411449,26.8857236 87.6103383,26.1035633 89.4864188,26.1035633 C91.2937589,26.1035633 93.0162317,26.8824155 97.0092917,29.2897334 C101.844395,32.2046987 104.045743,33.2 107.143142,33.2 L107.143142,33.2 C110.240129,33.2 112.440693,32.2049687 117.276244,29.2897334 C121.269004,26.8825967 122.992023,26.1035633 124.799866,26.1035633 C126.675459,26.1035633 128.444283,26.8856332 132.544134,29.3024085 C134.085097,30.2107731 134.777621,30.6076576 135.663365,31.0717647 C138.333235,32.4707066 140.560165,33.2 142.856858,33.2 C145.996608,33.2 148.240329,32.2080511 153.169667,29.3024315 C157.269574,26.8857236 159.038767,26.1035633 160.914848,26.1035633 C162.722188,26.1035633 164.444661,26.8824155 168.437721,29.2897334 C173.272824,32.2046987 175.474172,33.2 178.571571,33.2 C180.838512,33.2 183.029351,32.4661894 185.651759,31.0608097 C186.519177,30.59595 187.196675,30.1988317 188.704589,29.2897092 C192.69729,26.8825056 194.419943,26.1035633 196.227297,26.1035633 C198.103828,26.1035633 199.87323,26.8857918 203.972813,29.3024085 C208.902171,32.2081608 211.145528,33.2 214.285286,33.2 L214.285286,33.2 C217.425037,33.2 219.668758,32.2080511 224.598096,29.3024315 C228.698003,26.8857236 230.467196,26.1035633 232.343276,26.1035633 L232.343276,26.1035633 C234.150617,26.1035633 235.873089,26.8824155 239.866149,29.2897334 C244.701253,32.2046987 246.902601,33.2 250,33.2 L250,28.2964367 C248.192158,28.2964367 246.469138,27.5174033 242.476378,25.1102666 C237.640827,22.1950313 235.440263,21.2 232.343276,21.2 L232.343276,21.2 C229.203526,21.2 226.959805,22.1919489 222.030467,25.0975685 C217.93056,27.5142764 216.161367,28.2964367 214.285286,28.2964367 L214.285286,28.2964367 C212.409256,28.2964367 210.640405,27.5143875 206.540519,25.0975915 C201.611605,22.1921013 199.36747,21.2 196.227297,21.2 C193.130281,21.2 190.929441,22.1951668 186.094279,25.1102908 C184.659572,25.9752775 184.029239,26.3447496 183.261867,26.7559932 C181.306864,27.8037027 179.835775,28.2964367 178.571571,28.2964367 C176.763729,28.2964367 175.040709,27.5174033 171.04795,25.1102666 C166.212398,22.1950313 164.011834,21.2 160.914848,21.2 C157.775097,21.2 155.531376,22.1919489 150.602039,25.0975685 C146.502132,27.5142764 144.732938,28.2964367 142.856858,28.2964367 C141.542141,28.2964367 140.023713,27.7991693 138.011912,26.7450382 C137.225567,26.3330138 136.580017,25.9630501 135.111841,25.0975915 C130.182447,22.1918185 127.93923,21.2 124.799866,21.2 C121.702467,21.2 119.501119,22.1953013 114.666015,25.1102666 C110.672955,27.5175845 108.950482,28.2964367 107.143142,28.2964367 L107.143142,28.2964367 C105.3353,28.2964367 103.61228,27.5174033 99.6195208,25.1102666 C94.7839695,22.1950313 92.5834053,21.2 89.4864188,21.2 C86.3466683,21.2 84.1029473,22.1919489 79.1736097,25.0975685 C75.0737028,27.5142764 73.3045094,28.2964367 71.4284288,28.2964367 C69.552385,28.2964367 67.7833515,27.5142985 63.6838254,25.0976146 C58.7548556,22.191971 56.5112242,21.2 53.371437,21.2 C50.2740379,21.2 48.0726898,22.1953013 43.2375864,25.1102666 C39.2445264,27.5175845 37.5220536,28.2964367 35.7147135,28.2964367 C33.9068711,28.2964367 32.1838514,27.5174033 28.191092,25.1102666 C23.3555406,22.1950313 21.1549765,21.2 18.05799,21.2 C14.9182395,21.2 12.6745185,22.1919489 7.74518084,25.0975685 C3.64527395,27.5142764 1.87608052,28.2964367 0,28.2964367 L0,33.2" id="Stroke-24"></path>
            <path d="M0,65 C3.13975054,65 5.38347151,64.0080511 10.3128092,61.1024315 C14.412716,58.6857236 16.1819095,57.9035633 18.05799,57.9035633 C19.8653301,57.9035633 21.5878029,58.6824155 25.5808629,61.0897334 C30.4159663,64.0046987 32.6173143,65 35.7147135,65 C38.8117,65 41.0122642,64.0049687 45.8478155,61.0897334 C49.8405749,58.6825967 51.5635946,57.9035633 53.371437,57.9035633 C55.2474809,57.9035633 57.0165143,58.6857015 61.1160405,61.1023854 C66.0450102,64.008029 68.2886416,65 71.4284288,65 C74.5681794,65 76.8119003,64.0080511 81.741238,61.1024315 C85.8411449,58.6857236 87.6103383,57.9035633 89.4864188,57.9035633 C91.2937589,57.9035633 93.0162317,58.6824155 97.0092917,61.0897334 C101.844395,64.0046987 104.045743,65 107.143142,65 L107.143142,65 C110.240129,65 112.440693,64.0049687 117.276244,61.0897334 C121.269004,58.6825967 122.992023,57.9035633 124.799866,57.9035633 C126.675459,57.9035633 128.444283,58.6856332 132.544134,61.1024085 C134.085097,62.0107731 134.777621,62.4076576 135.663365,62.8717647 C138.333235,64.2707066 140.560165,65 142.856858,65 C145.996608,65 148.240329,64.0080511 153.169667,61.1024315 C157.269574,58.6857236 159.038767,57.9035633 160.914848,57.9035633 C162.722188,57.9035633 164.444661,58.6824155 168.437721,61.0897334 C173.272824,64.0046987 175.474172,65 178.571571,65 C180.838512,65 183.029351,64.2661894 185.651759,62.8608097 C186.519177,62.39595 187.196675,61.9988317 188.704589,61.0897092 C192.69729,58.6825056 194.419943,57.9035633 196.227297,57.9035633 C198.103828,57.9035633 199.87323,58.6857918 203.972813,61.1024085 C208.902171,64.0081608 211.145528,65 214.285286,65 L214.285286,65 C217.425037,65 219.668758,64.0080511 224.598096,61.1024315 C228.698003,58.6857236 230.467196,57.9035633 232.343276,57.9035633 L232.343276,57.9035633 C234.150617,57.9035633 235.873089,58.6824155 239.866149,61.0897334 C244.701253,64.0046987 246.902601,65 250,65 L250,60.0964367 C248.192158,60.0964367 246.469138,59.3174033 242.476378,56.9102666 C237.640827,53.9950313 235.440263,53 232.343276,53 L232.343276,53 C229.203526,53 226.959805,53.9919489 222.030467,56.8975685 C217.93056,59.3142764 216.161367,60.0964367 214.285286,60.0964367 L214.285286,60.0964367 C212.409256,60.0964367 210.640405,59.3143875 206.540519,56.8975915 C201.611605,53.9921013 199.36747,53 196.227297,53 C193.130281,53 190.929441,53.9951668 186.094279,56.9102908 C184.659572,57.7752775 184.029239,58.1447496 183.261867,58.5559932 C181.306864,59.6037027 179.835775,60.0964367 178.571571,60.0964367 C176.763729,60.0964367 175.040709,59.3174033 171.04795,56.9102666 C166.212398,53.9950313 164.011834,53 160.914848,53 C157.775097,53 155.531376,53.9919489 150.602039,56.8975685 C146.502132,59.3142764 144.732938,60.0964367 142.856858,60.0964367 C141.542141,60.0964367 140.023713,59.5991693 138.011912,58.5450382 C137.225567,58.1330138 136.580017,57.7630501 135.111841,56.8975915 C130.182447,53.9918185 127.93923,53 124.799866,53 C121.702467,53 119.501119,53.9953013 114.666015,56.9102666 C110.672955,59.3175845 108.950482,60.0964367 107.143142,60.0964367 L107.143142,60.0964367 C105.3353,60.0964367 103.61228,59.3174033 99.6195208,56.9102666 C94.7839695,53.9950313 92.5834053,53 89.4864188,53 C86.3466683,53 84.1029473,53.9919489 79.1736097,56.8975685 C75.0737028,59.3142764 73.3045094,60.0964367 71.4284288,60.0964367 C69.552385,60.0964367 67.7833515,59.3142985 63.6838254,56.8976146 C58.7548556,53.991971 56.5112242,53 53.371437,53 C50.2740379,53 48.0726898,53.9953013 43.2375864,56.9102666 C39.2445264,59.3175845 37.5220536,60.0964367 35.7147135,60.0964367 C33.9068711,60.0964367 32.1838514,59.3174033 28.191092,56.9102666 C23.3555406,53.9950313 21.1549765,53 18.05799,53 C14.9182395,53 12.6745185,53.9919489 7.74518084,56.8975685 C3.64527395,59.3142764 1.87608052,60.0964367 0,60.0964367 L0,65" id="Stroke-24"></path>
            <path d="M0,54.4 C3.13975054,54.4 5.38347151,53.4080511 10.3128092,50.5024315 C14.412716,48.0857236 16.1819095,47.3035633 18.05799,47.3035633 C19.8653301,47.3035633 21.5878029,48.0824155 25.5808629,50.4897334 C30.4159663,53.4046987 32.6173143,54.4 35.7147135,54.4 C38.8117,54.4 41.0122642,53.4049687 45.8478155,50.4897334 C49.8405749,48.0825967 51.5635946,47.3035633 53.371437,47.3035633 C55.2474809,47.3035633 57.0165143,48.0857015 61.1160405,50.5023854 C66.0450102,53.408029 68.2886416,54.4 71.4284288,54.4 C74.5681794,54.4 76.8119003,53.4080511 81.741238,50.5024315 C85.8411449,48.0857236 87.6103383,47.3035633 89.4864188,47.3035633 C91.2937589,47.3035633 93.0162317,48.0824155 97.0092917,50.4897334 C101.844395,53.4046987 104.045743,54.4 107.143142,54.4 L107.143142,54.4 C110.240129,54.4 112.440693,53.4049687 117.276244,50.4897334 C121.269004,48.0825967 122.992023,47.3035633 124.799866,47.3035633 C126.675459,47.3035633 128.444283,48.0856332 132.544134,50.5024085 C134.085097,51.4107731 134.777621,51.8076576 135.663365,52.2717647 C138.333235,53.6707066 140.560165,54.4 142.856858,54.4 C145.996608,54.4 148.240329,53.4080511 153.169667,50.5024315 C157.269574,48.0857236 159.038767,47.3035633 160.914848,47.3035633 C162.722188,47.3035633 164.444661,48.0824155 168.437721,50.4897334 C173.272824,53.4046987 175.474172,54.4 178.571571,54.4 C180.838512,54.4 183.029351,53.6661894 185.651759,52.2608097 C186.519177,51.79595 187.196675,51.3988317 188.704589,50.4897092 C192.69729,48.0825056 194.419943,47.3035633 196.227297,47.3035633 C198.103828,47.3035633 199.87323,48.0857918 203.972813,50.5024085 C208.902171,53.4081608 211.145528,54.4 214.285286,54.4 L214.285286,54.4 C217.425037,54.4 219.668758,53.4080511 224.598096,50.5024315 C228.698003,48.0857236 230.467196,47.3035633 232.343276,47.3035633 L232.343276,47.3035633 C234.150617,47.3035633 235.873089,48.0824155 239.866149,50.4897334 C244.701253,53.4046987 246.902601,54.4 250,54.4 L250,49.4964367 C248.192158,49.4964367 246.469138,48.7174033 242.476378,46.3102666 C237.640827,43.3950313 235.440263,42.4 232.343276,42.4 L232.343276,42.4 C229.203526,42.4 226.959805,43.3919489 222.030467,46.2975685 C217.93056,48.7142764 216.161367,49.4964367 214.285286,49.4964367 L214.285286,49.4964367 C212.409256,49.4964367 210.640405,48.7143875 206.540519,46.2975915 C201.611605,43.3921013 199.36747,42.4 196.227297,42.4 C193.130281,42.4 190.929441,43.3951668 186.094279,46.3102908 C184.659572,47.1752775 184.029239,47.5447496 183.261867,47.9559932 C181.306864,49.0037027 179.835775,49.4964367 178.571571,49.4964367 C176.763729,49.4964367 175.040709,48.7174033 171.04795,46.3102666 C166.212398,43.3950313 164.011834,42.4 160.914848,42.4 C157.775097,42.4 155.531376,43.3919489 150.602039,46.2975685 C146.502132,48.7142764 144.732938,49.4964367 142.856858,49.4964367 C141.542141,49.4964367 140.023713,48.9991693 138.011912,47.9450382 C137.225567,47.5330138 136.580017,47.1630501 135.111841,46.2975915 C130.182447,43.3918185 127.93923,42.4 124.799866,42.4 C121.702467,42.4 119.501119,43.3953013 114.666015,46.3102666 C110.672955,48.7175845 108.950482,49.4964367 107.143142,49.4964367 L107.143142,49.4964367 C105.3353,49.4964367 103.61228,48.7174033 99.6195208,46.3102666 C94.7839695,43.3950313 92.5834053,42.4 89.4864188,42.4 C86.3466683,42.4 84.1029473,43.3919489 79.1736097,46.2975685 C75.0737028,48.7142764 73.3045094,49.4964367 71.4284288,49.4964367 C69.552385,49.4964367 67.7833515,48.7142985 63.6838254,46.2976146 C58.7548556,43.391971 56.5112242,42.4 53.371437,42.4 C50.2740379,42.4 48.0726898,43.3953013 43.2375864,46.3102666 C39.2445264,48.7175845 37.5220536,49.4964367 35.7147135,49.4964367 C33.9068711,49.4964367 32.1838514,48.7174033 28.191092,46.3102666 C23.3555406,43.3950313 21.1549765,42.4 18.05799,42.4 C14.9182395,42.4 12.6745185,43.3919489 7.74518084,46.2975685 C3.64527395,48.7142764 1.87608052,49.4964367 0,49.4964367 L0,54.4" id="Stroke-24"></path>
        </g>
    </g>
</svg>