<?xml version="1.0" encoding="UTF-8" standalone="no"?>
<svg width="510px" height="350px" viewBox="0 0 510 350" version="1.1" xmlns="http://www.w3.org/2000/svg" xmlns:xlink="http://www.w3.org/1999/xlink" xmlns:sketch="http://www.bohemiancoding.com/sketch/ns">
    <!-- Generator: Sketch 3.4.2 (15855) - http://www.bohemiancoding.com/sketch -->
    <title>Artboard 8</title>
    <desc>Created with Sketch.</desc>
    <defs>
        <path id="path-1" d="M4.9733531,9.84246862 C4.9733531,7.2958159 2.9125876,5.23242678 0.368830189,5.23242678 C2.9125876,5.23242678 4.9733531,3.16903766 4.9733531,0.623849372 C4.9733531,3.16903766 7.03704582,5.23242678 9.58080323,5.23242678 C7.03704582,5.23242678 4.9733531,7.2958159 4.9733531,9.84246862 L4.9733531,9.84246862 Z"></path>
    </defs>
    <g id="Page-1" stroke="none" stroke-width="1" fill="none" fill-rule="evenodd" sketch:type="MSPage">
        <g id="Artboard-8" sketch:type="MSArtboardGroup">
            <g id="Group" sketch:type="MSLayerGroup" transform="translate(288.500000, 178.000000) scale(-1, 1) translate(-288.500000, -178.000000) translate(17.000000, 3.000000)">
                <path d="M338.376817,62.0642259 C333.208803,62.0642259 329.018482,57.8730126 329.018482,52.6991632 C329.018482,57.8730126 324.828162,62.0642259 319.658685,62.0642259 C324.828162,62.0642259 329.018482,66.2569038 329.018482,71.4278243 C329.018482,66.2569038 333.208803,62.0642259 338.376817,62.0642259" id="Fill-150" fill="#8BBF41" sketch:type="MSShapeGroup"></path>
                <path d="M335.467156,5.77719665 C333.652278,5.77719665 332.17842,4.30251046 332.17842,2.48661088 C332.17842,4.30251046 330.704563,5.77719665 328.889685,5.77719665 C330.704563,5.77719665 332.17842,7.24895397 332.17842,9.06631799 C332.17842,7.24895397 333.652278,5.77719665 335.467156,5.77719665" id="Fill-151" fill="#F8F8F7" sketch:type="MSShapeGroup"></path>
                <path d="M296.249677,231.158159 C291.90714,231.158159 288.387154,227.636192 288.387154,223.292678 C288.387154,227.636192 284.867167,231.158159 280.524631,231.158159 C284.867167,231.158159 288.387154,234.68159 288.387154,239.026569 C288.387154,234.68159 291.90714,231.158159 296.249677,231.158159" id="Fill-152" fill="#8BBF41" sketch:type="MSShapeGroup"></path>
                <path d="M473.345248,65.8702929 C473.345248,61.5267782 469.825261,58.0033473 465.482725,58.0033473 C469.825261,58.0033473 473.345248,54.4813808 473.345248,50.1364017 C473.345248,54.4813808 476.865235,58.0033473 481.207771,58.0033473 C476.865235,58.0033473 473.345248,61.5267782 473.345248,65.8702929" id="Fill-153" fill="#CEDCDF" sketch:type="MSShapeGroup"></path>
                <path d="M429.597889,117.857741 C429.597889,115.312552 427.53566,113.250628 424.991903,113.250628 C427.53566,113.250628 429.597889,111.185774 429.597889,108.640586 C429.597889,111.185774 431.660119,113.250628 434.203876,113.250628 C431.660119,113.250628 429.597889,115.312552 429.597889,117.857741" id="Fill-154" fill="#CEDCDF" sketch:type="MSShapeGroup"></path>
                <path d="M522.534315,185.428243 C522.534315,182.598954 520.243763,180.30272 517.414601,180.30272 C520.243763,180.30272 522.534315,178.009414 522.534315,175.177197 C522.534315,178.009414 524.829259,180.30272 527.65842,180.30272 C524.829259,180.30272 522.534315,182.598954 522.534315,185.428243" id="Fill-155" fill="#CEDCDF" sketch:type="MSShapeGroup"></path>
                <path d="M507.719636,233.543724 C507.719636,230.711506 505.42762,228.418201 502.596995,228.418201 C505.42762,228.418201 507.719636,226.120502 507.719636,223.292678 C507.719636,226.120502 510.013116,228.418201 512.843741,228.418201 C510.013116,228.418201 507.719636,230.711506 507.719636,233.543724" id="Fill-156" fill="#CEDCDF" sketch:type="MSShapeGroup"></path>
                <path d="M522.534315,63.1288703 C522.534315,60.2981172 520.243763,58.0033473 517.414601,58.0033473 C520.243763,58.0033473 522.534315,55.707113 522.534315,52.8778243 C522.534315,55.707113 524.829259,58.0033473 527.65842,58.0033473 C524.829259,58.0033473 522.534315,60.2981172 522.534315,63.1288703" id="Fill-157" fill="#CEDCDF" sketch:type="MSShapeGroup"></path>
                <path d="M536.655243,346.767992 C536.655243,343.935774 534.36469,341.642469 531.534065,341.642469 C534.36469,341.642469 536.655243,339.346234 536.655243,336.516946 C536.655243,339.346234 538.948722,341.642469 541.779348,341.642469 C538.948722,341.642469 536.655243,343.935774 536.655243,346.767992" id="Fill-158" fill="#CEDCDF" sketch:type="MSShapeGroup"></path>
                <path d="M331.260736,39.7403766 C331.260736,36.5054393 328.642334,33.882636 325.407752,33.882636 C328.642334,33.882636 331.260736,31.2598326 331.260736,28.0248954 C331.260736,31.2598326 333.882065,33.882636 337.116647,33.882636 C333.882065,33.882636 331.260736,36.5054393 331.260736,39.7403766" id="Fill-159" fill="#CEDCDF" sketch:type="MSShapeGroup"></path>
                <path d="M374.683173,322.878661 C373.067345,322.878661 371.755949,321.567992 371.755949,319.949791 C371.755949,321.567992 370.446016,322.878661 368.828725,322.878661 C370.446016,322.878661 371.755949,324.190795 371.755949,325.807531 C371.755949,324.190795 373.067345,322.878661 374.683173,322.878661" id="Fill-160" fill="#F7C476" sketch:type="MSShapeGroup"></path>
                <path d="M275.025841,50.1364017 C276.264057,50.1364017 277.266631,51.1410042 277.266631,52.3799163 C277.266631,51.1410042 278.270668,50.1364017 279.50742,50.1364017 C278.270668,50.1364017 277.266631,49.1332636 277.266631,47.8943515 C277.266631,49.1332636 276.264057,50.1364017 275.025841,50.1364017" id="Fill-161" fill="#F5F5F3" sketch:type="MSShapeGroup"></path>
                <path d="M449.128326,163.285983 C450.366542,163.285983 451.37058,164.290586 451.37058,165.528033 C451.37058,164.290586 452.373154,163.285983 453.609906,163.285983 C452.373154,163.285983 451.37058,162.281381 451.37058,161.043933 C451.37058,162.281381 450.366542,163.285983 449.128326,163.285983" id="Fill-162" fill="#F5F5F3" sketch:type="MSShapeGroup"></path>
                <path d="M451.224218,96.939749 C452.462434,96.939749 453.465008,97.9443515 453.465008,99.1817992 C453.465008,97.9443515 454.469046,96.939749 455.704334,96.939749 C454.469046,96.939749 453.465008,95.9366109 453.465008,94.6976987 C453.465008,95.9366109 452.462434,96.939749 451.224218,96.939749" id="Fill-163" fill="#CC544A" sketch:type="MSShapeGroup"></path>
                <path d="M286.923542,16.1087866 C287.732919,16.1087866 288.387154,16.7633891 288.387154,17.5732218 C288.387154,16.7633891 289.042852,16.1087866 289.850765,16.1087866 C289.042852,16.1087866 288.387154,15.4541841 288.387154,14.6443515 C288.387154,15.4541841 287.732919,16.1087866 286.923542,16.1087866" id="Fill-164" fill="#F5F5F3" sketch:type="MSShapeGroup"></path>
                <path d="M382.111003,133.75272 C382.92038,133.75272 383.574615,134.407322 383.574615,135.217155 C383.574615,134.407322 384.230313,133.75272 385.038226,133.75272 C384.230313,133.75272 383.574615,133.096653 383.574615,132.288285 C383.574615,133.096653 382.92038,133.75272 382.111003,133.75272" id="Fill-165" fill="#C7C7C2" sketch:type="MSShapeGroup"></path>
                <path d="M329.798588,344.142259 C330.607965,344.142259 331.262199,344.796862 331.262199,345.606695 C331.262199,344.796862 331.917898,344.142259 332.725811,344.142259 C331.917898,344.142259 331.262199,343.487657 331.262199,342.677824 C331.262199,343.487657 330.607965,344.142259 329.798588,344.142259" id="Fill-166" fill="#F5F5F3" sketch:type="MSShapeGroup"></path>
                <path d="M477.736084,122.4341 C478.545461,122.4341 479.199695,123.090167 479.199695,123.898536 C479.199695,123.090167 479.855394,122.4341 480.663307,122.4341 C479.855394,122.4341 479.199695,121.778033 479.199695,120.969665 C479.199695,121.778033 478.545461,122.4341 477.736084,122.4341" id="Fill-167" fill="#F5F5F3" sketch:type="MSShapeGroup"></path>
                <path d="M522.537243,19.0376569 C523.345156,19.0376569 524.000854,19.6922594 524.000854,20.5020921 C524.000854,19.6922594 524.656553,19.0376569 525.464466,19.0376569 C524.656553,19.0376569 524.000854,18.3830544 524.000854,17.5732218 C524.000854,18.3830544 523.345156,19.0376569 522.537243,19.0376569" id="Fill-168" fill="#E5749E" sketch:type="MSShapeGroup"></path>
                <path d="M313.431016,180.30272 C314.240394,180.30272 314.894628,180.958787 314.894628,181.767155 C314.894628,180.958787 315.55179,180.30272 316.35824,180.30272 C315.55179,180.30272 314.894628,179.646653 314.894628,178.838285 C314.894628,179.646653 314.240394,180.30272 313.431016,180.30272" id="Fill-169" fill="#F8EB33" sketch:type="MSShapeGroup"></path>
                <path d="M231.647313,155.230126 C232.884065,155.230126 233.888102,156.234728 233.888102,157.472176 C233.888102,156.234728 234.890677,155.230126 236.127429,155.230126 C234.890677,155.230126 233.888102,154.225523 233.888102,152.988075 C233.888102,154.225523 232.884065,155.230126 231.647313,155.230126" id="Fill-170" fill="#F5F5F3" sketch:type="MSShapeGroup"></path>
                <path d="M196.368412,289.097071 C197.606628,289.097071 198.609202,290.101674 198.609202,291.339121 C198.609202,290.101674 199.61324,289.097071 200.849992,289.097071 C199.61324,289.097071 198.609202,288.093933 198.609202,286.855021 C198.609202,288.093933 197.606628,289.097071 196.368412,289.097071" id="Fill-171" fill="#F5F5F3" sketch:type="MSShapeGroup"></path>
                <path d="M294.383571,124.676151 C295.620323,124.676151 296.624361,125.679289 296.624361,126.916736 C296.624361,125.679289 297.628399,124.676151 298.863687,124.676151 C297.628399,124.676151 296.624361,123.671548 296.624361,122.4341 C296.624361,123.671548 295.620323,124.676151 294.383571,124.676151" id="Fill-172" fill="#F5F5F3" sketch:type="MSShapeGroup"></path>
                <path d="M74.2007305,228.418201 C71.3730323,228.418201 69.0780889,226.121967 69.0780889,223.292678 C69.0780889,226.121967 66.7846092,228.418201 63.9554474,228.418201 C66.7846092,228.418201 69.0780889,230.711506 69.0780889,233.543724 C69.0780889,230.711506 71.3730323,228.418201 74.2007305,228.418201" id="Fill-173" fill="#3BAB48" sketch:type="MSShapeGroup"></path>
                <path d="M256.776065,65.8702929 C256.776065,61.5267782 253.256078,58.0033473 248.913542,58.0033473 C253.256078,58.0033473 256.776065,54.4813808 256.776065,50.1364017 C256.776065,54.4813808 260.297515,58.0033473 264.638588,58.0033473 C260.297515,58.0033473 256.776065,61.5267782 256.776065,65.8702929" id="Fill-174" fill="#CEDCDF" sketch:type="MSShapeGroup"></path>
                <path d="M274.588221,192.328661 C274.588221,189.499372 272.297668,187.203138 269.467043,187.203138 C272.297668,187.203138 274.588221,184.909833 274.588221,182.077615 C274.588221,184.909833 276.883164,187.203138 279.712326,187.203138 C276.883164,187.203138 274.588221,189.499372 274.588221,192.328661" id="Fill-175" fill="#CEDCDF" sketch:type="MSShapeGroup"></path>
                <path d="M190.38224,42.2401674 C190.38224,39.0066946 187.763838,36.3824268 184.529256,36.3824268 C187.763838,36.3824268 190.38224,33.7596234 190.38224,30.5246862 C190.38224,33.7596234 193.003569,36.3824268 196.238151,36.3824268 C193.003569,36.3824268 190.38224,39.0066946 190.38224,42.2401674" id="Fill-176" fill="#CEDCDF" sketch:type="MSShapeGroup"></path>
                <path d="M135.141137,260.883264 C133.523846,260.883264 132.213914,259.57113 132.213914,257.954393 C132.213914,259.57113 130.902518,260.883264 129.28669,260.883264 C130.902518,260.883264 132.213914,262.193933 132.213914,263.812134 C132.213914,262.193933 133.523846,260.883264 135.141137,260.883264" id="Fill-177" fill="#F7C476" sketch:type="MSShapeGroup"></path>
                <path d="M134.147345,52.6361925 C135.385561,52.6361925 136.389598,53.640795 136.389598,54.8797071 C136.389598,53.640795 137.392173,52.6361925 138.628925,52.6361925 C137.392173,52.6361925 136.389598,51.6330544 136.389598,50.3956067 C136.389598,51.6330544 135.385561,52.6361925 134.147345,52.6361925" id="Fill-178" fill="#F5F5F3" sketch:type="MSShapeGroup"></path>
                <path d="M145.674752,86.3108787 C146.912968,86.3108787 147.917005,87.3140167 147.917005,88.5529289 C147.917005,87.3140167 148.91958,86.3108787 150.156332,86.3108787 C148.91958,86.3108787 147.917005,85.3062762 147.917005,84.0688285 C147.917005,85.3062762 146.912968,86.3108787 145.674752,86.3108787" id="Fill-179" fill="#F5F5F3" sketch:type="MSShapeGroup"></path>
                <path d="M230.319817,133.75272 C231.558032,133.75272 232.56207,134.757322 232.56207,135.993305 C232.56207,134.757322 233.564644,133.75272 234.801396,133.75272 C233.564644,133.75272 232.56207,132.748117 232.56207,131.510669 C232.56207,132.748117 231.558032,133.75272 230.319817,133.75272" id="Fill-180" fill="#CC544A" sketch:type="MSShapeGroup"></path>
                <path d="M146.045046,18.6085774 C146.854423,18.6085774 147.508658,19.2646444 147.508658,20.0730126 C147.508658,19.2646444 148.164356,18.6085774 148.97227,18.6085774 C148.164356,18.6085774 147.508658,17.9539749 147.508658,17.1441423 C147.508658,17.9539749 146.854423,18.6085774 146.045046,18.6085774" id="Fill-181" fill="#F5F5F3" sketch:type="MSShapeGroup"></path>
                <path d="M106.669496,10.4912134 C107.478873,10.4912134 108.133108,11.1458159 108.133108,11.9556485 C108.133108,11.1458159 108.788806,10.4912134 109.59672,10.4912134 C108.788806,10.4912134 108.133108,9.83661088 108.133108,9.02677824 C108.133108,9.83661088 107.478873,10.4912134 106.669496,10.4912134" id="Fill-182" fill="#F5F5F3" sketch:type="MSShapeGroup"></path>
                <path d="M165.541819,133.75272 C166.351197,133.75272 167.005431,134.407322 167.005431,135.217155 C167.005431,134.407322 167.662593,133.75272 168.469043,133.75272 C167.662593,133.75272 167.005431,133.096653 167.005431,132.288285 C167.005431,133.096653 166.351197,133.75272 165.541819,133.75272" id="Fill-183" fill="#C7C7C2" sketch:type="MSShapeGroup"></path>
                <path d="M117.820755,235.806276 C118.630132,235.806276 119.284367,236.463808 119.284367,237.270711 C119.284367,236.463808 119.940065,235.806276 120.747978,235.806276 C119.940065,235.806276 119.284367,235.150209 119.284367,234.341841 C119.284367,235.150209 118.630132,235.806276 117.820755,235.806276" id="Fill-184" fill="#F5F5F3" sketch:type="MSShapeGroup"></path>
                <path d="M262.630512,105.231381 C263.439889,105.231381 264.094124,105.888912 264.094124,106.695816 C264.094124,105.888912 264.751286,105.231381 265.557736,105.231381 C264.751286,105.231381 264.094124,104.575314 264.094124,103.766946 C264.094124,104.575314 263.439889,105.231381 262.630512,105.231381" id="Fill-185" fill="#F5F5F3" sketch:type="MSShapeGroup"></path>
                <path d="M171.611418,94.6976987 C172.420795,94.6976987 173.07503,95.3537657 173.07503,96.1621339 C173.07503,95.3537657 173.730728,94.6976987 174.538642,94.6976987 C173.730728,94.6976987 173.07503,94.0416318 173.07503,93.2332636 C173.07503,94.0416318 172.420795,94.6976987 171.611418,94.6976987" id="Fill-186" fill="#F5F5F3" sketch:type="MSShapeGroup"></path>
                <path d="M367.365113,16.1087866 C368.174491,16.1087866 368.828725,16.7633891 368.828725,17.5732218 C368.828725,16.7633891 369.484423,16.1087866 370.292337,16.1087866 C369.484423,16.1087866 368.828725,15.4541841 368.828725,14.6443515 C368.828725,15.4541841 368.174491,16.1087866 367.365113,16.1087866" id="Fill-187" fill="#E5749E" sketch:type="MSShapeGroup"></path>
                <path d="M129.285226,131.510669 C130.094604,131.510669 130.748838,132.165272 130.748838,132.975105 C130.748838,132.165272 131.404536,131.510669 132.21245,131.510669 C131.404536,131.510669 130.748838,130.854603 130.748838,130.046234 C130.748838,130.854603 130.094604,131.510669 129.285226,131.510669" id="Fill-188" fill="#F8EB33" sketch:type="MSShapeGroup"></path>
                <path d="M343.723391,203.799582 C342.170499,204.249163 340.547353,203.354393 340.098024,201.800628 C340.547353,203.354393 339.651623,204.979916 338.100194,205.429498 C339.651623,204.979916 341.276232,205.873222 341.725561,207.428452 C341.276232,205.873222 342.170499,204.249163 343.723391,203.799582" id="Fill-189" fill="#F7C476" sketch:type="MSShapeGroup"></path>
                <path d="M369.288299,271.383264 C370.065477,271.157741 370.874854,271.607322 371.101714,272.383473 C370.874854,271.607322 371.324183,270.794561 372.098434,270.569038 C371.324183,270.794561 370.510415,270.346444 370.286482,269.570293 C370.510415,270.346444 370.065477,271.157741 369.288299,271.383264" id="Fill-190" fill="#F5F5F3" sketch:type="MSShapeGroup"></path>
                <path d="M302.13486,81.1619247 C302.910574,80.9364017 303.722879,81.3845188 303.946811,82.1606695 C303.722879,81.3845188 304.16928,80.5732218 304.946458,80.3462343 C304.16928,80.5732218 303.358439,80.1251046 303.13158,79.348954 C303.358439,80.1251046 302.910574,80.9364017 302.13486,81.1619247" id="Fill-191" fill="#F8EB33" sketch:type="MSShapeGroup"></path>
                <path d="M47.1224474,62.0642259 C48.3606631,62.0642259 49.3647008,63.067364 49.3647008,64.3062762 C49.3647008,63.067364 50.3672749,62.0642259 51.604027,62.0642259 C50.3672749,62.0642259 49.3647008,61.0596234 49.3647008,59.8221757 C49.3647008,61.0596234 48.3606631,62.0642259 47.1224474,62.0642259" id="Fill-192" fill="#F5F5F3" sketch:type="MSShapeGroup"></path>
                <path d="M59.756345,142.016527 C60.9945606,142.016527 61.9971348,143.019665 61.9971348,144.258577 C61.9971348,143.019665 63.0011725,142.016527 64.2379245,142.016527 C63.0011725,142.016527 61.9971348,141.011925 61.9971348,139.774477 C61.9971348,141.011925 60.9945606,142.016527 59.756345,142.016527" id="Fill-193" fill="#F5F5F3" sketch:type="MSShapeGroup"></path>
                <path d="M243.7909,17.5732218 C246.620062,17.5732218 248.913542,19.8665272 248.913542,22.6987448 C248.913542,19.8665272 251.208485,17.5732218 254.036183,17.5732218 C251.208485,17.5732218 248.913542,15.2799163 248.913542,12.4476987 C248.913542,15.2799163 246.620062,17.5732218 243.7909,17.5732218" id="Fill-194" fill="#3BAB48" sketch:type="MSShapeGroup"></path>
                <path d="M111.837509,159.712762 C110.599294,159.712762 109.59672,158.708159 109.59672,157.470711 C109.59672,158.708159 108.592682,159.712762 107.357394,159.712762 C108.592682,159.712762 109.59672,160.7159 109.59672,161.954812 C109.59672,160.7159 110.599294,159.712762 111.837509,159.712762" id="Fill-199" fill="#F5F5F3" sketch:type="MSShapeGroup"></path>
                <path d="M434.885919,142.016527 C436.500283,143.634728 436.500283,146.257531 434.885919,147.874268 C436.500283,146.257531 439.123075,146.257531 440.740367,147.874268 C439.123075,146.257531 439.123075,143.634728 440.740367,142.016527 C439.123075,143.634728 436.500283,143.634728 434.885919,142.016527" id="Fill-200" fill="#3BAB48" sketch:type="MSShapeGroup"></path>
                <path d="M266.573482,260.883264 C268.858181,258.595816 268.858181,254.886402 266.572019,252.59749 C267.7151,253.742678 269.213838,254.313808 270.712577,254.313808 C272.211315,254.313808 273.70859,253.742678 274.851671,252.598954 C272.565509,254.886402 272.564046,258.594351 274.851671,260.883264 C273.707127,259.738075 272.209852,259.166946 270.712577,259.166946 C269.213838,259.166946 267.716563,259.73954 266.573482,260.883264" id="Fill-201" fill="#CEDCDF" sketch:type="MSShapeGroup"></path>
                <path d="M474.202925,10.3769874 C475.346005,11.5192469 475.346005,13.3746862 474.202925,14.51841 C475.346005,13.3746862 477.200402,13.3746862 478.343482,14.51841 C477.200402,13.3746862 477.200402,11.5192469 478.343482,10.3769874 C477.200402,11.5192469 475.346005,11.5192469 474.202925,10.3769874" id="Fill-202" fill="#F7C476" sketch:type="MSShapeGroup"></path>
                <path d="M321.963873,285.034728 C321.088633,284.157531 321.088633,282.738494 321.963873,281.864226 C321.088633,282.738494 319.66893,282.738494 318.795154,281.864226 C319.66893,282.738494 319.66893,284.157531 318.79369,285.033264 C319.66893,284.157531 321.088633,284.157531 321.963873,285.034728" id="Fill-203" fill="#F5F5F3" sketch:type="MSShapeGroup"></path>
                <path d="M439.960261,283.448745 C439.085022,282.571548 439.085022,281.15251 439.960261,280.278243 C439.085022,281.15251 437.665318,281.15251 436.793005,280.278243 C437.665318,281.15251 437.665318,282.571548 436.791542,283.44728 C437.665318,282.571548 439.085022,282.571548 439.960261,283.448745" id="Fill-204" fill="#F5F5F3" sketch:type="MSShapeGroup"></path>
                <path d="M289.503889,300.677824 C288.930154,300.106695 288.931617,299.179707 289.503889,298.607113 C288.931617,299.179707 288.003687,299.178243 287.432879,298.607113 C288.003687,299.178243 288.003687,300.106695 287.432879,300.677824 C288.003687,300.106695 288.930154,300.106695 289.503889,300.677824" id="Fill-205" fill="#F5F5F3" sketch:type="MSShapeGroup"></path>
                <path d="M280.444132,150.918828 C278.828305,150.918828 277.516908,149.606695 277.516908,147.989958 C277.516908,149.606695 276.206976,150.918828 274.589685,150.918828 C276.206976,150.918828 277.516908,152.229498 277.516908,153.847699 C277.516908,152.229498 278.828305,150.918828 280.444132,150.918828" id="Fill-206" fill="#F7C476" sketch:type="MSShapeGroup"></path>
                <path d="M218.67093,184.009205 C218.67093,183.202301 218.016695,182.54477 217.207318,182.54477 C218.016695,182.54477 218.67093,181.888703 218.67093,181.080335 C218.67093,181.888703 219.326628,182.54477 220.134542,182.54477 C219.326628,182.54477 218.67093,183.202301 218.67093,184.009205" id="Fill-207" fill="#B4CAD2" sketch:type="MSShapeGroup"></path>
                <path d="M197.403186,143.053347 C197.116318,142.766318 196.741633,142.622803 196.368412,142.622803 C195.992264,142.622803 195.61758,142.766318 195.332175,143.053347 C195.904447,142.480753 195.904447,141.552301 195.332175,140.979707 C195.61758,141.266736 195.992264,141.410251 196.368412,141.410251 C196.743097,141.410251 197.117782,141.266736 197.403186,140.979707 C196.830914,141.552301 196.82945,142.479289 197.403186,143.053347" id="Fill-208" fill="#B4CAD2" sketch:type="MSShapeGroup"></path>
                <path d="M101.491237,317.310879 C101.204369,317.023849 100.829685,316.881799 100.455,316.881799 C100.080315,316.881799 99.7056307,317.023849 99.4202264,317.310879 C99.991035,316.738285 99.991035,315.809833 99.4202264,315.240167 C99.7056307,315.525732 100.080315,315.667782 100.456464,315.667782 C100.831148,315.667782 101.205833,315.525732 101.491237,315.240167 C100.918965,315.811297 100.917501,316.738285 101.491237,317.310879" id="Fill-209" fill="#83ABBA" sketch:type="MSShapeGroup"></path>
                <path d="M322.998647,248.672803 C322.711779,248.385774 322.337094,248.242259 321.96241,248.242259 C321.587725,248.242259 321.21304,248.385774 320.926173,248.672803 C321.498445,248.100209 321.498445,247.171757 320.926173,246.599163 C321.21304,246.886192 321.587725,247.029707 321.96241,247.029707 C322.028272,247.029707 322.094135,247.023849 322.159997,247.015063 C322.31514,247.101464 322.467356,247.183473 322.616644,247.262552 C322.48931,247.748745 322.615181,248.289121 322.998647,248.672803" id="Fill-210" fill="#83ABBA" sketch:type="MSShapeGroup"></path>
                <path d="M503.634695,298.607113 C503.347827,298.321548 502.973143,298.178033 502.598458,298.178033 C502.223774,298.178033 501.849089,298.321548 501.562221,298.607113 C502.134493,298.035983 502.134493,297.107531 501.562221,296.534937 C501.849089,296.820502 502.223774,296.964017 502.598458,296.964017 C502.973143,296.964017 503.347827,296.820502 503.634695,296.534937 C503.062423,297.107531 503.06096,298.034519 503.634695,298.607113" id="Fill-211" fill="#83ABBA" sketch:type="MSShapeGroup"></path>
                <path d="M424.773825,343.71318 C424.486957,343.427615 424.112272,343.2841 423.737588,343.2841 C423.362903,343.2841 422.988218,343.427615 422.702814,343.71318 C423.273623,343.140586 423.273623,342.213598 422.702814,341.642469 C422.988218,341.928033 423.362903,342.071548 423.739051,342.071548 C424.113736,342.071548 424.486957,341.928033 424.773825,341.642469 C424.201553,342.215063 424.200089,343.140586 424.773825,343.71318" id="Fill-212" fill="#83ABBA" sketch:type="MSShapeGroup"></path>
                <path d="M139.665162,292.374477 C139.378294,292.088912 139.003609,291.945397 138.628925,291.945397 C138.25424,291.945397 137.879555,292.088912 137.594151,292.374477 C138.16496,291.803347 138.16496,290.874895 137.594151,290.303766 C137.879555,290.589331 138.255704,290.732845 138.630388,290.732845 C139.005073,290.732845 139.379757,290.589331 139.665162,290.303766 C139.092889,290.87636 139.091426,291.803347 139.665162,292.374477" id="Fill-213" fill="#83ABBA" sketch:type="MSShapeGroup"></path>
                <path d="M218.67093,347.677406 C218.384062,347.391841 218.009377,347.248326 217.634693,347.248326 C217.260008,347.248326 216.885323,347.391841 216.599919,347.677406 C217.172191,347.104812 217.172191,346.177824 216.599919,345.606695 C216.886787,345.892259 217.261472,346.035774 217.636156,346.035774 C218.010841,346.035774 218.385526,345.892259 218.67093,345.606695 C218.100121,346.179289 218.098658,347.104812 218.67093,347.677406" id="Fill-214" fill="#83ABBA" sketch:type="MSShapeGroup"></path>
                <path d="M317.393013,155.487866 C316.822205,154.913808 316.822205,153.98682 317.393013,153.417155 C316.822205,153.98682 315.894275,153.98682 315.323466,153.417155 C315.894275,153.98682 315.895739,154.915272 315.323466,155.487866 C315.895739,154.915272 316.822205,154.913808 317.393013,155.487866" id="Fill-215" fill="#C7C7C2" sketch:type="MSShapeGroup"></path>
                <path d="M441.77514,54.95 C441.202868,54.3774059 441.202868,53.4504184 441.77514,52.8792887 C441.202868,53.4504184 440.274938,53.4504184 439.705593,52.8792887 C440.274938,53.4504184 440.274938,54.3788703 439.705593,54.95 C440.274938,54.3788703 441.202868,54.3774059 441.77514,54.95" id="Fill-216" fill="#F5F5F3" sketch:type="MSShapeGroup"></path>
                <path d="M358.819084,156.351883 C358.248275,155.779289 358.249739,154.852301 358.819084,154.281172 C358.249739,154.852301 357.321809,154.850837 356.749536,154.281172 C357.321809,154.850837 357.321809,155.779289 356.749536,156.351883 C357.321809,155.779289 358.248275,155.779289 358.819084,156.351883" id="Fill-217" fill="#F8EB33" sketch:type="MSShapeGroup"></path>
                <path d="M426.907771,241.413598 C426.032531,240.536402 426.032531,239.117364 426.907771,238.243096 C426.032531,239.117364 424.612827,239.117364 423.740515,238.243096 C424.612827,239.117364 424.612827,240.536402 423.739051,241.412134 C424.612827,240.536402 426.032531,240.536402 426.907771,241.413598" id="Fill-218" fill="#F5F5F3" sketch:type="MSShapeGroup"></path>
                <path d="M352.016216,240.611088 C351.140976,239.733891 351.140976,238.313389 352.016216,237.439121 C351.140976,238.313389 349.721272,238.313389 348.847496,237.439121 C349.721272,238.313389 349.721272,239.733891 348.847496,240.609623 C349.721272,239.733891 351.140976,239.733891 352.016216,240.611088" id="Fill-219" fill="#F5F5F3" sketch:type="MSShapeGroup"></path>
                <path d="M392.786588,252.246025 C390.24283,252.246025 388.180601,250.181172 388.180601,247.637448 C388.180601,250.181172 386.119836,252.246025 383.574615,252.246025 C386.119836,252.246025 388.180601,254.30795 388.180601,256.854603 C388.180601,254.30795 390.24283,252.246025 392.786588,252.246025" id="Fill-220" fill="#F7C476" sketch:type="MSShapeGroup"></path>
                <path d="M479.199695,311.981799 C477.583868,311.981799 476.272472,310.672594 476.272472,309.052929 C476.272472,310.672594 474.962539,311.981799 473.345248,311.981799 C474.962539,311.981799 476.272472,313.295397 476.272472,314.910669 C476.272472,313.295397 477.583868,311.981799 479.199695,311.981799" id="Fill-221" fill="#F7C476" sketch:type="MSShapeGroup"></path>
                <path d="M542.511154,88.5529289 C540.895326,88.5529289 539.58393,87.2422594 539.58393,85.6240586 C539.58393,87.2422594 538.273997,88.5529289 536.656706,88.5529289 C538.273997,88.5529289 539.58393,89.8650628 539.58393,91.4817992 C539.58393,89.8650628 540.895326,88.5529289 542.511154,88.5529289" id="Fill-222" fill="#F7C476" sketch:type="MSShapeGroup"></path>
                <path d="M424.991903,28.0248954 C423.376075,28.0248954 422.064679,26.7127615 422.064679,25.0960251 C422.064679,26.7127615 420.754747,28.0248954 419.137456,28.0248954 C420.754747,28.0248954 422.064679,29.3355649 422.064679,30.9537657 C422.064679,29.3355649 423.376075,28.0248954 424.991903,28.0248954" id="Fill-223" fill="#F7C476" sketch:type="MSShapeGroup"></path>
                <path d="M297.599127,318.271548 C295.055369,318.271548 292.99314,316.206695 292.99314,313.662971 C292.99314,316.206695 290.930911,318.271548 288.387154,318.271548 C290.930911,318.271548 292.99314,320.333473 292.99314,322.878661 C292.99314,320.333473 295.055369,318.271548 297.599127,318.271548" id="Fill-224" fill="#F7C476" sketch:type="MSShapeGroup"></path>
                <path d="M210.468849,88.5529289 C211.705601,88.5529289 212.709639,89.5560669 212.709639,90.7949791 C212.709639,89.5560669 213.713677,88.5529289 214.948965,88.5529289 C213.713677,88.5529289 212.709639,87.5483264 212.709639,86.3108787 C212.709639,87.5483264 211.705601,88.5529289 210.468849,88.5529289" id="Fill-225" fill="#F7C476" sketch:type="MSShapeGroup"></path>
                <path d="M369.515159,187.203138 C370.751911,187.203138 371.755949,188.207741 371.755949,189.443724 C371.755949,188.207741 372.759987,187.203138 373.995275,187.203138 C372.759987,187.203138 371.755949,186.198536 371.755949,184.962552 C371.755949,186.198536 370.751911,187.203138 369.515159,187.203138" id="Fill-226" fill="#F7C476" sketch:type="MSShapeGroup"></path>
                <path d="M177.679553,178.062134 C178.48893,178.062134 179.143164,178.718201 179.143164,179.526569 C179.143164,178.718201 179.800326,178.062134 180.606776,178.062134 C179.800326,178.062134 179.143164,177.406067 179.143164,176.597699 C179.143164,177.406067 178.48893,178.062134 177.679553,178.062134" id="Fill-227" fill="#F7C476" sketch:type="MSShapeGroup"></path>
                <path d="M230.183701,47.8943515 C230.991615,47.8943515 231.647313,48.5504184 231.647313,49.3587866 C231.647313,48.5504184 232.303011,47.8943515 233.110925,47.8943515 C232.303011,47.8943515 231.647313,47.239749 231.647313,46.4299163 C231.647313,47.239749 230.991615,47.8943515 230.183701,47.8943515" id="Fill-228" fill="#F7C476" sketch:type="MSShapeGroup"></path>
                <path d="M232.423027,273.285565 C233.232404,273.285565 233.886639,273.941632 233.886639,274.75 C233.886639,273.941632 234.542337,273.285565 235.350251,273.285565 C234.542337,273.285565 233.886639,272.629498 233.886639,271.82113 C233.886639,272.629498 233.232404,273.285565 232.423027,273.285565" id="Fill-229" fill="#F7C476" sketch:type="MSShapeGroup"></path>
                <path d="M221.49131,215.424268 C222.729526,215.424268 223.7321,216.427406 223.7321,217.666318 C223.7321,216.427406 224.736137,215.424268 225.972889,215.424268 C224.736137,215.424268 223.7321,214.419665 223.7321,213.182218 C223.7321,214.419665 222.729526,215.424268 221.49131,215.424268" id="Fill-230" fill="#F7C476" sketch:type="MSShapeGroup"></path>
                <path d="M176.217404,252.246025 C173.673647,252.246025 171.611418,250.181172 171.611418,247.637448 C171.611418,250.181172 169.550652,252.246025 167.005431,252.246025 C169.550652,252.246025 171.611418,254.30795 171.611418,256.854603 C171.611418,254.30795 173.673647,252.246025 176.217404,252.246025" id="Fill-231" fill="#F7C476" sketch:type="MSShapeGroup"></path>
                <path d="M262.630512,311.981799 C261.014685,311.981799 259.703288,310.672594 259.703288,309.052929 C259.703288,310.672594 258.393356,311.981799 256.776065,311.981799 C258.393356,311.981799 259.703288,313.295397 259.703288,314.910669 C259.703288,313.295397 261.014685,311.981799 262.630512,311.981799" id="Fill-232" fill="#F7C476" sketch:type="MSShapeGroup"></path>
                <path d="M208.42272,28.0248954 C206.806892,28.0248954 205.495496,26.7127615 205.495496,25.0960251 C205.495496,26.7127615 204.185563,28.0248954 202.568272,28.0248954 C204.185563,28.0248954 205.495496,29.3355649 205.495496,30.9537657 C205.495496,29.3355649 206.806892,28.0248954 208.42272,28.0248954" id="Fill-233" fill="#F7C476" sketch:type="MSShapeGroup"></path>
                <path d="M91.5064771,276.546862 C88.9627197,276.546862 86.9004906,274.483473 86.9004906,271.938285 C86.9004906,274.483473 84.8397251,276.546862 82.2959677,276.546862 C84.8397251,276.546862 86.9004906,278.610251 86.9004906,281.153975 C86.9004906,278.610251 88.9627197,276.546862 91.5064771,276.546862" id="Fill-234" fill="#F7C476" sketch:type="MSShapeGroup"></path>
                <path d="M77.8143881,108.586402 C79.0526038,108.586402 80.0551779,109.591004 80.0551779,110.828452 C80.0551779,109.591004 81.0592156,108.586402 82.2959677,108.586402 C81.0592156,108.586402 80.0551779,107.583264 80.0551779,106.345816 C80.0551779,107.583264 79.0526038,108.586402 77.8143881,108.586402" id="Fill-235" fill="#F7C476" sketch:type="MSShapeGroup"></path>
                <path d="M129.973124,180.30272 C131.209876,180.30272 132.213914,181.307322 132.213914,182.54477 C132.213914,181.307322 133.217951,180.30272 134.45324,180.30272 C133.217951,180.30272 132.213914,179.299582 132.213914,178.062134 C132.213914,179.299582 131.209876,180.30272 129.973124,180.30272" id="Fill-236" fill="#F7C476" sketch:type="MSShapeGroup"></path>
                <path d="M68.7882938,167.042259 C69.5976712,167.042259 70.2519057,167.698326 70.2519057,168.506695 C70.2519057,167.698326 70.9076038,167.042259 71.7155175,167.042259 C70.9076038,167.042259 70.2519057,166.386192 70.2519057,165.577824 C70.2519057,166.386192 69.5976712,167.042259 68.7882938,167.042259" id="Fill-237" fill="#F7C476" sketch:type="MSShapeGroup"></path>
                <path d="M89.3052049,50.3956067 C90.1131186,50.3956067 90.7688167,51.0516736 90.7688167,51.8600418 C90.7688167,51.0516736 91.4245148,50.3956067 92.2324286,50.3956067 C91.4245148,50.3956067 90.7688167,49.7395397 90.7688167,48.9311715 C90.7688167,49.7395397 90.1131186,50.3956067 89.3052049,50.3956067" id="Fill-238" fill="#F7C476" sketch:type="MSShapeGroup"></path>
                <path d="M316.35824,127.837866 C317.548156,127.495188 318.790763,128.177615 319.134712,129.368201 C318.790763,128.177615 319.47427,126.935774 320.662722,126.590167 C319.47427,126.935774 318.233127,126.250418 317.887714,125.059833 C318.233127,126.250418 317.548156,127.495188 316.35824,127.837866" id="Fill-239" fill="#F7C476" sketch:type="MSShapeGroup"></path>
                <path d="M170.147806,311.981799 C170.957183,311.981799 171.611418,312.637866 171.611418,313.446234 C171.611418,312.637866 172.267116,311.981799 173.07503,311.981799 C172.267116,311.981799 171.611418,311.327197 171.611418,310.517364 C171.611418,311.327197 170.957183,311.981799 170.147806,311.981799" id="Fill-240" fill="#F7C476" sketch:type="MSShapeGroup"></path>
                <path d="M65.258062,5.77719665 C67.8018194,5.77719665 69.8640485,7.84058577 69.8640485,10.3857741 C69.8640485,7.84058577 71.9262776,5.77719665 74.470035,5.77719665 C71.9262776,5.77719665 69.8640485,3.7123431 69.8640485,1.16861925 C69.8640485,3.7123431 67.8018194,5.77719665 65.258062,5.77719665" id="Fill-242" fill="#F7C476" sketch:type="MSShapeGroup"></path>
                <path d="M87.1756496,191.26841 C85.937434,191.26841 84.9333962,190.265272 84.9333962,189.027824 C84.9333962,190.265272 83.9308221,191.26841 82.6940701,191.26841 C83.9308221,191.26841 84.9333962,192.273013 84.9333962,193.511925 C84.9333962,192.273013 85.937434,191.26841 87.1756496,191.26841" id="Fill-243" fill="#F7C476" sketch:type="MSShapeGroup"></path>
                <path d="M96.2017439,132.814017 C95.3923666,132.814017 94.7381321,132.159414 94.7381321,131.349582 C94.7381321,132.159414 94.0809704,132.814017 93.2745202,132.814017 C94.0809704,132.814017 94.7381321,133.470084 94.7381321,134.278452 C94.7381321,133.470084 95.3923666,132.814017 96.2017439,132.814017" id="Fill-245" fill="#F7C476" sketch:type="MSShapeGroup"></path>
                <path d="M125.78134,100.646234 C124.544588,100.646234 123.54055,99.6416318 123.54055,98.4041841 C123.54055,99.6416318 122.537976,100.646234 121.301224,100.646234 C122.537976,100.646234 123.54055,101.649372 123.54055,102.888285 C123.54055,101.649372 124.544588,100.646234 125.78134,100.646234" id="Fill-247" fill="#F7C476" sketch:type="MSShapeGroup"></path>
                <path d="M381.527022,58.8058577 C383.324337,60.6056485 383.324337,63.5242678 381.527022,65.3225941 C383.324337,63.5242678 386.241315,63.5228033 388.040094,65.3225941 C386.241315,63.5228033 386.241315,60.6056485 388.040094,58.8058577 C386.241315,60.6056485 383.324337,60.6056485 381.527022,58.8058577" id="Fill-248" fill="#F7C476" sketch:type="MSShapeGroup"></path>
                <path d="M495.49555,79.4646444 C497.292865,81.2644351 497.292865,84.18159 495.49555,85.9813808 C497.292865,84.18159 500.209844,84.18159 502.008623,85.9813808 C500.209844,84.18159 500.211307,81.2644351 502.008623,79.4661088 C500.211307,81.2644351 497.292865,81.2644351 495.49555,79.4646444" id="Fill-249" fill="#F7C476" sketch:type="MSShapeGroup"></path>
                <path d="M394.762464,303.543724 C393.88576,302.669456 393.88576,301.248954 394.761,300.373222 C393.88576,301.248954 392.46752,301.248954 391.593744,300.374686 C392.46752,301.248954 392.46752,302.669456 391.593744,303.543724 C392.46752,302.669456 393.88576,302.669456 394.762464,303.543724" id="Fill-250" fill="#F7C476" sketch:type="MSShapeGroup"></path>
                <path d="M352.016216,121.262552 C351.140976,120.38682 351.140976,118.966318 352.016216,118.09205 C351.140976,118.966318 349.721272,118.966318 348.847496,118.093515 C349.721272,118.966318 349.721272,120.38682 348.847496,121.262552 C349.721272,120.38682 351.140976,120.38682 352.016216,121.262552" id="Fill-251" fill="#F7C476" sketch:type="MSShapeGroup"></path>
                <path d="M468.711453,256.128243 C468.140644,255.555649 468.140644,254.628661 468.711453,254.057531 C468.140644,254.628661 467.212714,254.628661 466.641906,254.057531 C467.212714,254.628661 467.212714,255.557113 466.641906,256.128243 C467.212714,255.557113 468.140644,255.555649 468.711453,256.128243" id="Fill-252" fill="#F7C476" sketch:type="MSShapeGroup"></path>
                <path d="M469.746226,343.71318 C469.175418,343.139121 469.175418,342.213598 469.746226,341.642469 C469.175418,342.213598 468.247488,342.213598 467.676679,341.642469 C468.247488,342.213598 468.247488,343.140586 467.676679,343.71318 C468.247488,343.140586 469.175418,343.139121 469.746226,343.71318" id="Fill-253" fill="#F7C476" sketch:type="MSShapeGroup"></path>
                <path d="M278.299941,348.712762 C277.727668,348.140167 277.729132,347.214644 278.299941,346.64205 C277.729132,347.214644 276.801202,347.214644 276.230394,346.64205 C276.801202,347.214644 276.801202,348.140167 276.230394,348.712762 C276.801202,348.140167 277.727668,348.140167 278.299941,348.712762" id="Fill-254" fill="#F7C476" sketch:type="MSShapeGroup"></path>
                <g id="Group-257" transform="translate(174.169811, 207.949791)">
                    <mask id="mask-2" sketch:name="Clip 256" fill="white">
                        <use xlink:href="#path-1"></use>
                    </mask>
                    <g id="Clip-256"></g>
                    <path d="M0.368830189,0.623849372 L9.58080323,0.623849372 L9.58080323,9.84246862 L0.368830189,9.84246862 L0.368830189,0.623849372 Z" id="Fill-255" fill="#B9AE84" sketch:type="MSShapeGroup" mask="url(#mask-2)"></path>
                </g>
                <path d="M509.790647,157.387238 C509.218375,156.814644 509.218375,155.887657 509.790647,155.316527 C509.218375,155.887657 508.290445,155.886192 507.7211,155.316527 C508.290445,155.886192 508.290445,156.814644 507.7211,157.387238 C508.290445,156.814644 509.218375,156.814644 509.790647,157.387238" id="Fill-258" fill="#F7C476" sketch:type="MSShapeGroup"></path>
                <path d="M476.628129,206.032845 C475.754353,205.158577 475.754353,203.73954 476.628129,202.863808 C475.754353,203.73954 474.33465,203.73954 473.45941,202.863808 C474.33465,203.73954 474.33465,205.158577 473.45941,206.032845 C474.33465,205.158577 475.754353,205.158577 476.628129,206.032845" id="Fill-259" fill="#F7C476" sketch:type="MSShapeGroup"></path>
                <path d="M270.781367,164.828033 C299.273499,185.901255 305.199663,214.517782 308.167868,229.204603 C311.137536,243.888494 326.244938,248.888075 326.244938,248.888075 L325.470687,250.351046 L332.245747,253.935983 L372.249186,210.291423 L235.154127,137.725732 C242.445841,143.458996 270.781367,164.828033 270.781367,164.828033" id="Fill-260" fill="#E6E6E2" sketch:type="MSShapeGroup"></path>
                <path d="M295.245639,118.557741 C328.68917,130.264435 355.665,119.0659 369.468323,113.25795 C383.270183,107.45 395.904081,117.132845 395.904081,117.132845 L396.676868,115.66841 L403.450464,119.254812 L389.900345,176.902301 L254.416722,105.191841 L252.805286,104.338075 C261.644038,107.143933 295.245639,118.557741 295.245639,118.557741" id="Fill-261" fill="#F5F5F3" sketch:type="MSShapeGroup"></path>
                <path d="M191.449213,104.518201 C191.823898,104.913598 192.213218,105.314854 192.620102,105.730753 C216.913132,130.582218 248.49934,145.799163 248.49934,145.799163 L374.091873,212.274268 L383.378491,194.711297 L196.154725,95.6144351 L191.449213,104.518201" id="Fill-262" fill="#C7C7C2" sketch:type="MSShapeGroup"></path>
                <path d="M202.593154,87.0182008 C201.993073,86.9098326 201.419337,86.810251 200.85731,86.7194561 L196.16058,95.6027197 L383.441426,194.730335 L392.729507,177.1659 L267.1399,110.690795 C267.1399,110.690795 236.791908,93.1292887 202.593154,87.0182008" id="Fill-263" fill="#E6E6E2" sketch:type="MSShapeGroup"></path>
                <path d="M197.571501,96.3642259 L183.378857,88.8516736 C181.972326,91.4861925 181.29321,94.1485356 192.618639,105.730753 L197.571501,96.3642259" id="Fill-264" fill="#1F2C30" sketch:type="MSShapeGroup"></path>
                <path d="M197.580283,96.3539749 L183.387639,88.8414226 C184.559992,86.460251 186.592949,84.1361925 202.533146,86.9845188 L197.580283,96.3539749" id="Fill-265" fill="#23353B" sketch:type="MSShapeGroup"></path>
                <path d="M238.862919,118.217992 L236.712873,117.077197 L227.819968,133.900628 C228.518111,134.348745 229.203081,134.783682 229.87927,135.211297 L238.862919,118.217992" id="Fill-266" fill="#8B938B" sketch:type="MSShapeGroup"></path>
                <path d="M247.853887,101.214435 C247.119154,100.895188 246.374175,100.575941 245.61017,100.249372 L236.718728,117.065481 L238.868774,118.204812 L247.853887,101.214435" id="Fill-267" fill="#A1A6A0" sketch:type="MSShapeGroup"></path>
                <path d="M265.960229,132.562134 L256.673612,150.128033 L259.252496,151.491423 L268.540577,133.928452 L265.960229,132.562134" id="Fill-268" fill="#8B938B" sketch:type="MSShapeGroup"></path>
                <path d="M275.252701,114.984519 L265.966084,132.550418 L268.543504,133.915272 L277.833049,116.349372 L275.252701,114.984519" id="Fill-269" fill="#A1A6A0" sketch:type="MSShapeGroup"></path>
                <path d="M295.349555,148.118828 L286.061474,165.683264 L288.643286,167.048117 L297.928439,149.482218 L295.349555,148.118828" id="Fill-270" fill="#8B938B" sketch:type="MSShapeGroup"></path>
                <path d="M304.643491,130.539749 L295.356873,148.107113 L297.935757,149.470502 L307.222375,131.904603 L304.643491,130.539749" id="Fill-271" fill="#A1A6A0" sketch:type="MSShapeGroup"></path>
                <path d="M324.738881,163.674059 L315.452264,181.238494 L318.032612,182.604812 L327.320693,165.038912 L324.738881,163.674059" id="Fill-272" fill="#8B938B" sketch:type="MSShapeGroup"></path>
                <path d="M334.032817,146.096444 L324.744736,163.662343 L327.328011,165.027197 L336.613164,147.461297 L334.032817,146.096444" id="Fill-273" fill="#A1A6A0" sketch:type="MSShapeGroup"></path>
                <path d="M354.131135,179.230753 L344.844518,196.796653 L347.424865,198.160042 L356.711482,180.595607 L354.131135,179.230753" id="Fill-274" fill="#8B938B" sketch:type="MSShapeGroup"></path>
                <path d="M363.42507,161.653138 L354.136989,179.220502 L356.717337,180.585356 L366.003954,163.017992 L363.42507,161.653138" id="Fill-275" fill="#A1A6A0" sketch:type="MSShapeGroup"></path>
                <path d="M380.842051,223.45523 L393.224208,200.034519 L359.675296,182.276778 C359.675296,182.276778 344.714256,204.332636 358.04776,211.391213 L380.842051,223.45523" id="Fill-276" fill="#B2B6B6" sketch:type="MSShapeGroup"></path>
                <path d="M405.606364,176.615272 L393.224208,200.034519 L359.67676,182.278243 C359.67676,182.278243 369.478569,157.492678 382.813536,164.549791 L405.606364,176.615272" id="Fill-277" fill="#C9CAC9" sketch:type="MSShapeGroup"></path>
                <path d="M393.376423,205.999163 L386.646736,218.726569 C385.657334,220.596653 386.37304,222.914854 388.240609,223.904812 L398.550291,204.404393 C396.681259,203.4159 394.364361,204.130544 393.376423,205.999163" id="Fill-278" fill="#B2B6B6" sketch:type="MSShapeGroup"></path>
                <path d="M410.045499,182.625314 C408.175003,181.635356 405.859569,182.351464 404.870167,184.221548 L398.14048,196.950418 C397.154005,198.819038 397.865321,201.137238 399.734353,202.127197 L399.768016,202.138912 L410.074771,182.64728 L410.045499,182.625314" id="Fill-279" fill="#C9CAC9" sketch:type="MSShapeGroup"></path>
                <path d="M390.794612,204.629916 L384.063461,217.360251 L386.646736,218.726569 L393.376423,205.997699 L390.794612,204.629916" id="Fill-280" fill="#91928E" sketch:type="MSShapeGroup"></path>
                <path d="M402.304456,182.862552 L395.573305,195.591423 L398.15658,196.957741 L404.886267,184.230335 L402.304456,182.862552" id="Fill-281" fill="#B2B6B6" sketch:type="MSShapeGroup"></path>
                <path d="M392.018191,205.278661 C392.208461,205.379707 392.280178,205.616946 392.180652,205.807322 L385.816868,217.844979 C385.715879,218.03682 385.478774,218.110042 385.28704,218.007531 C385.093844,217.906485 385.02359,217.670711 385.12458,217.477406 L391.4869,205.441213 C391.589353,205.250837 391.826458,205.176151 392.018191,205.278661" id="Fill-282" fill="#797A77" sketch:type="MSShapeGroup"></path>
                <path d="M403.526571,183.511297 C403.716841,183.610879 403.791485,183.848117 403.689032,184.039958 L397.326712,196.074686 C397.224259,196.266527 396.987154,196.339749 396.796884,196.238703 C396.606615,196.137657 396.533434,195.898954 396.63296,195.708577 L402.996744,183.673849 C403.099197,183.480544 403.334838,183.407322 403.526571,183.511297" id="Fill-283" fill="#797A77" sketch:type="MSShapeGroup"></path>
                <path d="M326.244938,248.888075 L360.244642,212.553975 L366.931884,216.093515 L332.245747,253.935983 L325.470687,250.351046 L326.244938,248.888075" id="Fill-284" fill="#ADADAA" sketch:type="MSShapeGroup"></path>
                <path d="M395.898226,117.144561 L385.010418,165.711088 L391.696197,169.250628 L403.446073,119.266527 L396.671013,115.680126 L395.898226,117.144561" id="Fill-285" fill="#E6E6E2" sketch:type="MSShapeGroup"></path>
                <path d="M318.258008,220.420921 L314.563852,218.4659 L330.113264,189.057113 L333.80742,191.012134 L318.258008,220.420921" id="Fill-286" fill="#B2B2AF" sketch:type="MSShapeGroup"></path>
                <path d="M352.436272,155.777824 L348.740652,153.821339 L364.290065,124.412552 L367.984221,126.369038 L352.436272,155.777824" id="Fill-287" fill="#D8D7D1" sketch:type="MSShapeGroup"></path>
                <path d="M229.400668,113.211088 L214.969456,105.572594 L229.400668,113.211088" id="Fill-288" fill="#457892" sketch:type="MSShapeGroup"></path>
                <path d="M222.130908,126.962134 C222.130908,126.962134 210.442504,119.446653 208.981819,116.898536 L214.969456,105.572594 L229.400668,113.211088 L222.130908,126.962134" id="Fill-289" fill="#B2B2AF" sketch:type="MSShapeGroup"></path>
                <path d="M229.400668,113.211088 L229.400668,113.211088 L214.969456,105.572594 L214.97531,105.560879 L229.406523,113.199372 L229.400668,113.211088" id="Fill-290" fill="#457892" sketch:type="MSShapeGroup"></path>
                <path d="M229.406523,113.199372 L214.97531,105.560879 L220.957092,94.2466527 C221.0171,94.2422594 221.080035,94.240795 221.147361,94.240795 C224.399507,94.240795 236.670429,99.4615063 236.670429,99.4615063 L229.406523,113.199372" id="Fill-291" fill="#CBCAC6" sketch:type="MSShapeGroup"></path>
                <path d="M407.264636,195.46841 C407.264636,195.46841 436.001191,177.189331 449.81476,212.880544 C449.81476,212.880544 445.390261,215.76841 442.509873,213.415063 C442.509873,213.415063 451.887235,241.930544 468.20358,238.591632 C468.20358,238.591632 454.455873,256.719874 422.834539,230.111088 C422.834539,230.111088 421.534852,235.793096 424.87335,237.589958 C424.87335,237.589958 407.449051,242.406485 397.697005,215.765481 C397.697005,215.765481 403.62317,221.356695 410.38652,220.050418 C410.38652,220.050418 401.748283,214.756485 403.166523,209.45523 C403.166523,209.45523 419.556049,207.753556 429.562763,223.838912 C429.562763,223.838912 429.704733,198.376778 407.264636,195.46841" id="Fill-292" fill="#F7C476" sketch:type="MSShapeGroup"></path>
            </g>
        </g>
    </g>
</svg>