<svg xmlns="http://www.w3.org/2000/svg" xmlns:xlink="http://www.w3.org/1999/xlink" xmlns:sketch="http://www.bohemiancoding.com/sketch/ns"><defs><path id="a" d="M3.05 7.427c0 .195-.052.378-.143.536L5.76 9.61a1.067 1.067 0 0 1 1.853 0l2.854-1.65a1.062 1.062 0 0 1 0-1.07l-.76-.438a1.933 1.933 0 0 0-.2 1.455l-1.46.844a1.94 1.94 0 0 0-2.72 0l-1.46-.844c.04-.153.063-.314.063-.48a1.94 1.94 0 0 0-.063-.483l1.46-.843c.35.344.83.556 1.36.556a1.95 1.95 0 0 0 1.685-.976l-.76-.44a1.07 1.07 0 0 1-1.85 0L2.906 6.893c.09.157.144.34.144.535"/><path d="M9.707 2.96l.76-.44a1.07 1.07 0 0 0 1.853 0l.76.44a1.96 1.96 0 0 1-1.16.903V5.55c.492.138.906.467 1.158.9l-.76.44a1.07 1.07 0 0 0-1.85 0l-.76-.438a1.957 1.957 0 0 1 1.157-.902V3.863a1.96 1.96 0 0 1-1.158-.903zm4.706.77a1.936 1.936 0 0 0 0 1.95l.76-.44a1.063 1.063 0 0 1 0-1.07l-.76-.44zm-6.656.976c0 .195-.053.378-.144.535l.76.44a1.937 1.937 0 0 0 0-1.95l-.76.44c.09.16.144.34.144.536z" id="b"/><path d="M14.15 10.143c0-.354.096-.686.262-.973l.76.44a1.066 1.066 0 0 0 0 1.07l-.758.44a1.934 1.934 0 0 1-.264-.977zm-2.758-1.646c-.395 0-.74-.216-.925-.536L7.613 9.61a1.067 1.067 0 0 1 0 1.07l.76.44a1.933 1.933 0 0 0 .2-1.455l1.46-.844c.23.225.515.392.832.48v3.26l.527.306.528-.306V9.3c.493-.137.906-.466 1.158-.9l-.76-.44c-.185.32-.53.537-.926.537z" id="c"/><path id="d" d="M.295 11.893l.76.44c.184-.322.53-.54.926-.54.397 0 .743.218.928.54l.76-.44a1.96 1.96 0 0 0-1.16-.904V9.302c.318-.09.604-.257.834-.482l1.46.845c-.04.154-.064.315-.064.48 0 .357.097.69.264.976l.76-.44a1.063 1.063 0 0 1 0-1.07L2.906 7.964a1.07 1.07 0 0 1-1.852 0l-.76.438c.252.435.666.764 1.16.903v1.686c-.495.14-.91.47-1.16.903"/><path d="M3.93 12.866c0 .355-.097.688-.264.975l-.76-.438a1.064 1.064 0 0 0 .002-1.07l.76-.44c.165.288.262.62.262.974zm2.757 1.648c.396 0 .74.216.926.537l3.78-2.184-.528-.306-2.82 1.63a1.94 1.94 0 0 0-1.358-.555c-.72 0-1.35.394-1.687.977l.76.44c.185-.32.53-.538.927-.538zm0-2.417c.72 0 1.348-.394 1.685-.977l-.76-.44a1.067 1.067 0 0 1-1.85 0l-.76.44c.337.583.965.977 1.685.977z" id="e"/><path id="f" d="M21.332 10.99V9.3c.493-.138.906-.467 1.158-.902l-.76-.44a1.07 1.07 0 0 1-1.852 0l-2.853 1.65a1.065 1.065 0 0 1 0 1.072l.758.44a1.936 1.936 0 0 0 .202-1.458l1.46-.843c.228.224.514.392.832.48v1.69c-.493.137-.906.466-1.158.9l.758.44a1.07 1.07 0 0 1 1.852 0l.76-.44a1.957 1.957 0 0 0-1.158-.9"/><path d="M19.878 13.4l-.76.44a1.938 1.938 0 0 1 0-1.95l.76.44a1.067 1.067 0 0 0 0 1.07zm-5.14.788L11.92 12.56l-.528.306 3.78 2.184a1.068 1.068 0 0 1 1.853 0l.76-.44a1.958 1.958 0 0 0-1.16-.903V12.02c.493-.14.906-.468 1.158-.9l-.76-.44a1.07 1.07 0 0 1-1.85 0l-.76.44c.253.432.666.76 1.158.9v1.687a1.95 1.95 0 0 0-.83.48z" id="g"/><path d="M5.76 16.122l-2.852 1.65a1.07 1.07 0 0 0-1.855 0l-.76-.44a1.94 1.94 0 0 1 3.047-.423l1.462-.843a1.94 1.94 0 0 1 .2-1.454l.76.44a1.064 1.064 0 0 0 0 1.07zm-3.78-1.306c.72 0 1.348-.393 1.686-.975l-.76-.438a1.068 1.068 0 0 1-1.85 0l-.76.44c.338.58.966.974 1.685.974z" id="h"/><path d="M22.49 17.33l-.76.44a1.07 1.07 0 0 0-1.852 0l-2.854-1.65a1.067 1.067 0 0 0 0-1.07l.76-.44a1.932 1.932 0 0 1 .2 1.454l1.462.845a1.942 1.942 0 0 1 3.044.42zm-1.686-2.516c.72 0 1.348-.393 1.686-.975l-.76-.44a1.07 1.07 0 0 1-1.852 0l-.76.44c.338.58.967.974 1.686.974z" id="i"/><path id="j" d="M11.393 16.356c-.528 0-1.007.212-1.36.554l-1.46-.844a1.93 1.93 0 0 0 .062-.48c0-.167-.022-.328-.062-.482l2.82-1.63 2.82 1.628a1.936 1.936 0 0 0 .2 1.457l.76-.44a1.067 1.067 0 0 1 0-1.07l-3.78-2.184-3.78 2.185a1.068 1.068 0 0 1 0 1.072l2.854 1.65a1.07 1.07 0 0 1 1.85 0l.76-.44a1.95 1.95 0 0 0-1.684-.976"/><path d="M17.784 20.05l-.76.44a1.068 1.068 0 0 0-1.852 0l-.76-.44a1.948 1.948 0 0 1 1.687-.976c.72 0 1.347.393 1.684.977zm1.95-1.745c0-.196.053-.378.144-.535l-2.854-1.65a1.07 1.07 0 0 1-1.85 0l-.76.44a1.94 1.94 0 0 0 3.045.42l1.46.842a1.937 1.937 0 0 0 .2 1.457l.758-.44a1.067 1.067 0 0 1-.144-.535zm-7.27 0c0 .197-.054.38-.146.537l.76.44a1.93 1.93 0 0 0 0-1.95l-.76.44c.092.156.145.34.145.534z" id="k"/><path id="l" d="M6.687 19.074c-.72 0-1.35.394-1.687.978l.76.44a1.07 1.07 0 0 1 1.854 0l.76-.44a1.948 1.948 0 0 0-1.687-.978"/><path id="m" d="M3.665 19.28a1.94 1.94 0 0 0 .202-1.456l1.46-.844a1.94 1.94 0 0 0 2.72 0l1.46.844a1.933 1.933 0 0 0 .2 1.457l.76-.44a1.07 1.07 0 0 1 0-1.07l-2.855-1.648a1.068 1.068 0 0 1-1.85 0l-2.854 1.65a1.065 1.065 0 0 1-.002 1.07l.76.44"/><path d="M14.412 5.68l.76-.44a1.07 1.07 0 0 0 1.853 0l2.854 1.65a1.063 1.063 0 0 0-.002 1.07l-2.853 1.65a1.07 1.07 0 0 0-1.854 0l-.758-.44a1.94 1.94 0 0 1 3.046-.422l1.46-.843a1.93 1.93 0 0 1-.063-.48c0-.166.024-.328.063-.482l-1.46-.843a1.94 1.94 0 0 1-3.046-.42zm-1.95 1.745c0 .196-.052.378-.144.536l.76.44a1.932 1.932 0 0 0 0-1.95l-.76.44c.092.158.144.34.144.535z" id="n"/><path d="M5 3.732a1.948 1.948 0 0 1 1.687-.977c.72 0 1.348.394 1.685.976l-.76.44a1.068 1.068 0 0 0-1.85 0L5 3.733zm4.708-2.72a1.936 1.936 0 0 0 0 1.948l.758-.44a1.064 1.064 0 0 1 0-1.07l-.758-.44z" id="o"/><path id="p" d="M1.055 6.892a1.07 1.07 0 0 1 1.852 0l2.854-1.65a1.064 1.064 0 0 1 0-1.07L5 3.73a1.94 1.94 0 0 0-.2 1.454l-1.462.844a1.94 1.94 0 0 0-3.043.423l.76.44"/><path id="q" d="M20.804 5.475c-.528 0-1.007.21-1.358.555l-1.46-.844a1.922 1.922 0 0 0-.203-1.455l-.76.44a1.067 1.067 0 0 1 .002 1.07l2.854 1.65a1.07 1.07 0 0 1 1.85 0l.76-.44a1.947 1.947 0 0 0-1.686-.975"/><path d="M17.783 3.73l-.76.44a1.07 1.07 0 0 0-1.85 0l-.76-.44a1.95 1.95 0 0 1 1.686-.975c.718 0 1.345.394 1.683.976zm-5.32-1.743c0 .194-.053.376-.143.534l.76.44a1.93 1.93 0 0 0-.003-1.95l-.76.44c.092.158.145.34.145.537z" id="r"/><path d="M17.024 21.56a1.067 1.067 0 0 0 0-1.07l.76-.44a1.938 1.938 0 0 1 0 1.95l-.76-.44zm5.466-2.28l-.76-.44a1.07 1.07 0 0 1-1.852 0l-.76.44c.338.58.967.975 1.686.975.72 0 1.348-.394 1.686-.976z" id="s"/><path d="M.297 19.28l.76-.438a1.07 1.07 0 0 0 1.85 0l.758.44a1.947 1.947 0 0 1-1.684.973 1.948 1.948 0 0 1-1.683-.974zm5.32 1.744c0-.194.052-.376.142-.533L5 20.053a1.935 1.935 0 0 0 .003 1.95l.76-.44a1.064 1.064 0 0 1-.146-.538z" id="t"/><path id="u" d="M.91 18.305c0-.194.053-.376.143-.533l-.76-.44a1.94 1.94 0 0 0 .004 1.95l.76-.44a1.066 1.066 0 0 1-.146-.537"/></defs><symbol id="pic-favorite_border" viewBox="0 0 24 24"><path d="M0 0h24v24H0z" fill="none"/><path d="M16.5 3c-1.74 0-3.41.81-4.5 2.09C10.91 3.81 9.24 3 7.5 3 4.42 3 2 5.42 2 8.5c0 3.78 3.4 6.86 8.55 11.54L12 21.35l1.45-1.32C18.6 15.36 22 12.28 22 8.5 22 5.42 19.58 3 16.5 3zm-4.4 15.55l-.1.1-.1-.1C7.14 14.24 4 11.39 4 8.5 4 6.5 5.5 5 7.5 5c1.54 0 3.04.99 3.57 2.36h1.87C13.46 5.99 14.96 5 16.5 5c2 0 3.5 1.5 3.5 3.5 0 2.89-3.14 5.74-7.9 10.05z"/></symbol><symbol id="icon-facebook" viewBox="0 0 15 32">
    <!-- Generator: Sketch 3.3.3 (12072) - http://www.bohemiancoding.com/sketch -->
    <title>Shape</title>
    <desc>Created with Sketch.</desc>
    
    <g id="Page-1" stroke="none" stroke-width="1" sketch:type="MSPage">
        <path d="M14.6599184,10.2158367 L9.66726531,10.2158367 L9.66726531,6.94138776 C9.66726531,5.71167347 10.4822857,5.42497959 11.0563265,5.42497959 L14.5795918,5.42497959 L14.5795918,0.0189387755 L9.72734694,0 C4.34089796,0 3.11510204,4.032 3.11510204,6.6122449 L3.11510204,10.2158367 L2.66453526e-15,10.2158367 L2.66453526e-15,15.786449 L3.11510204,15.786449 L3.11510204,31.5493878 L9.66726531,31.5493878 L9.66726531,15.786449 L14.0884898,15.786449 L14.6599184,10.2158367 L14.6599184,10.2158367 Z" id="Shape" sketch:type="MSShapeGroup"/>
    </g>
</symbol><symbol id="pic-logo-old" viewBox="0 0 273 125"><title>Group</title><g fill="#FFF" fill-rule="evenodd"><path d="M121.193 60.927v31.8h-7.517V54.22h24.23v6.707h-16.713zM165.54 92.727V68.012l-14.98 24.715h-6.705V54.22h7.517v24.662l14.98-24.66h6.707v38.505h-7.52zM189.718 60.927v31.8H182.2V54.22h24.23v6.707h-16.712zM212.38 92.727V54.22h25.363v6.707h-17.846v9.032h15.195v6.705h-15.195v9.356h17.846v6.707H212.38zM259.647 71.473c3.353 0 5.57-2.055 5.57-5.246 0-3.19-2.217-5.3-5.57-5.3h-7.03v10.546h7.03zm.38-17.252c7.408 0 12.707 4.977 12.707 12.007 0 7.03-5.245 12.006-12.708 12.006h-7.41v14.494H245.1V54.22h14.926zM46.61 0C22.216 0 0 34.84 0 73.093c0 15.875 5.008 29.274 14.483 38.748C22.968 120.327 34.377 125 46.61 125c12.233 0 23.642-4.674 32.127-13.16 9.475-9.473 14.483-22.872 14.483-38.747C93.22 34.84 71.004 0 46.61 0zm0 120.763c-21.186 0-42.373-15.89-42.373-47.67 0-37.076 21.187-68.856 42.373-68.856 21.187 0 42.373 31.78 42.373 68.856 0 31.78-21.186 47.67-42.373 47.67z"/><path d="M44.756 48.695l1.854-1.07V36.017c-11.318 0-21.957 4.407-29.962 12.41l10.458 10.46 17.65-10.192zM69.544 91.63V65.15L46.61 51.908l-22.934 13.24V91.63l22.934 13.243L69.544 91.63zm-28.23-13.24c0-7.314 2.37-13.242 5.296-13.242s5.297 5.928 5.297 13.242c0 7.313-2.37 13.24-5.297 13.24-2.926 0-5.296-5.927-5.296-13.24zM46.61 109.11v5.297c9.62 0 18.665-3.748 25.468-10.55l-3.745-3.745c-5.803 5.803-13.517 8.998-21.723 8.998z"/></g></symbol><symbol id="icon-instagram" viewBox="0 0 32 32">
    <!-- Generator: Sketch 3.3.3 (12072) - http://www.bohemiancoding.com/sketch -->
    <title>Shape</title>
    <desc>Created with Sketch.</desc>
    
    <g id="Page-1" stroke="none" stroke-width="1" sketch:type="MSPage">
        <path d="M25.5968,0 L6.13184,0 C2.75072,0 0,2.75008 0,6.1312 L0,12.608 L0,25.5968 C0,28.97792 2.75072,31.728 6.13184,31.728 L25.59744,31.728 C28.97856,31.728 31.72864,28.97792 31.72864,25.5968 L31.72864,12.60736 L31.72864,6.13056 C31.728,2.74944 28.97792,0 25.5968,0 L25.5968,0 Z M27.35552,3.65632 L28.05696,3.65376 L28.05696,4.352 L28.05696,9.03168 L22.69696,9.04896 L22.6784,3.67168 L27.35552,3.65632 L27.35552,3.65632 Z M11.33568,12.60736 C12.352,11.20128 14.00064,10.27904 15.86432,10.27904 C17.728,10.27904 19.37664,11.20128 20.39168,12.60736 C21.0528,13.52512 21.44896,14.64768 21.44896,15.86368 C21.44896,18.94272 18.94144,21.44768 15.86368,21.44768 C12.784,21.44768 10.27904,18.94272 10.27904,15.86368 C10.27968,14.64768 10.67456,13.52512 11.33568,12.60736 L11.33568,12.60736 Z M28.6368,25.59616 C28.6368,27.2736 27.27296,28.63616 25.5968,28.63616 L6.13184,28.63616 C4.45504,28.63616 3.0912,27.2736 3.0912,25.59616 L3.0912,12.60736 L7.8272,12.60736 C7.41824,13.61344 7.18848,14.71232 7.18848,15.86368 C7.18848,20.6464 11.07968,24.54016 15.86432,24.54016 C20.64832,24.54016 24.53952,20.6464 24.53952,15.86368 C24.53952,14.71232 24.30848,13.61344 23.89952,12.60736 L28.6368,12.60736 L28.6368,25.59616 L28.6368,25.59616 Z" id="Shape" sketch:type="MSShapeGroup"/>
    </g>
</symbol><symbol id="pic-logo" viewBox="0 0 440 180"><path fill-rule="evenodd" clip-rule="evenodd" fill="#FF7F2F" d="M93.52 59.257C75.645 56.97 59.298 69.607 57.01 87.48c-1.196 9.317 1.674 18.213 7.217 24.923 2.242-2.192 6.134-5.955 6.88-6.393 1.063-.62 1.985-1.318 1.985-1.318s-.435-2.556.252-5.543c.68-2.968 1.342-3.818 1.466-4.747.172-1.282.27-4.002-.246-5.185-.623-1.43-.797-2.48.175-3.187.97-.706 2.8.494 3.623 2.397.822 1.902.734 2.58.734 2.58s.848-3.368 1.843-5.258c.996-1.888 2.222-4.657 2.69-5.846.47-1.19.985-2.53 2.266-2.453 1.282.073 2.604.813 1.522 3.342-1.083 2.53-1.247 3.237-1.425 4.124-.18.888-.803 4.394-.944 4.69-.145.3.2.39.35.24.142-.15 1.968-2.45 3.075-3.748 1.105-1.3 3.192-3.56 3.624-4.112.433-.55 1.434-2.142 2.713-2.068 1.282.072 1.893 1.193 1.668 2.23-.228 1.037-1.047 1.94-1.573 2.54-.53.6-2.354 3.74-2.69 4.24-.332.496-2.185 3.278-2.185 3.278l.24.45s2.19-1.32 3.062-1.88c.877-.56 4.588-3.62 5.463-3.952 1.512-.572 3.18 1.278 2.165 2.615-.912 1.197-2.103 2.124-2.54 2.528-.433.402-2.63 2.56-3.555 3.215-.92.658-2.08 2.308-1.89 2.632.155.258 1.78.39 2.762.054 1.376-.472 4.97-1.427 5.677-1.245.99.263 1.61 1.892.64 2.696-.967.806-2.923 1.493-3.46 1.75-.532.258-4.08 1.564-4.08 1.564s-2.704 1.614-4.07 2.91c-.46.802-2.44 3.73-3.842 4.623-.782.5-1.48.857-1.48.857s-1.324 3.04-1.95 3.76c-1.1 2.085-3.072 4.934-4.986 7.49 2.23.813 4.585 1.402 7.04 1.717 17.878 2.29 34.227-10.346 36.512-28.222 2.29-17.877-10.35-34.222-28.22-36.51zm15.322-13.642l-1.325 4.792-1.548 4.835-.006.016a3.288 3.288 0 0 1-4.13 2.13 3.286 3.286 0 0 1-1.814-4.824l2.514-4.17c1.192-2.18 2.39-4.36 2.39-4.36l.005-.01a2.127 2.127 0 0 1 3.912 1.59zm-36.995 91.97s.538-2.386 1.08-4.775c.672-2.464 1.346-4.925 1.346-4.925a3.297 3.297 0 1 1 6.078 2.442l-.13.23c.002 0-1.123 2.045-2.245 4.09l-2.156 4.378a2.123 2.123 0 0 1-2.847.966 2.13 2.13 0 0 1-1.135-2.373l.01-.03zm63.356-26.455l-1.48-.374a97.332 97.332 0 0 1-.715-.18c-.252-.055-.55-.168-.836-.255l-1.838-.6c-.577-.193-1.152-.39-1.694-.57-.546-.192-1.022-.326-1.444-.458l-1.39-.425-.1-.03a3.23 3.23 0 0 1-2.14-4.036 3.23 3.23 0 0 1 4.715-1.842l1.384.807c.407.242.91.522 1.384.827l1.532.952 1.41.864c.233.137.425.277.667.398l.657.337 1.355.707h.004a2.09 2.09 0 0 1-1.47 3.88zM44.568 73.07l1.36.283c.406.08.888.19 1.39.274.504.096 1.04.193 1.577.295.577.126 1.154.254 1.694.37.542.12 1.034.28 1.466.394l1.437.406a3.295 3.295 0 1 1-2.56 6.018l-.114-.07s-.443-.26-1.107-.653c-.335-.192-.715-.445-1.152-.665l-1.356-.7-1.496-.71c-.486-.223-.912-.446-1.287-.63-.743-.374-1.24-.62-1.24-.62a2.132 2.132 0 0 1 1.384-3.993h.004zm84.746-10.457l-1.043 1.012c-.624.61-1.45 1.42-2.294 2.227-1.783 1.585-3.562 3.17-3.562 3.17a3.293 3.293 0 0 1-4.645-.27 3.294 3.294 0 0 1 .93-5.098l.03-.015 4.02-2.085c1.005-.57 2.01-1.158 2.763-1.59l1.258-.723a2.126 2.126 0 0 1 2.91.777 2.13 2.13 0 0 1-.36 2.588l-.006.005zm-80.466 56.675l1.024-1.108c.152-.166.32-.345.497-.535.182-.19.338-.39.516-.6l1.098-1.297c.433-.476.865-.952 1.268-1.398.39-.456.85-.834 1.204-1.18.733-.69 1.222-1.144 1.222-1.144a3.295 3.295 0 1 1 3.884 5.27l-.2.112-1.167.66c-.35.21-.778.398-1.206.713l-1.375.928c-.506.368-1.016.737-1.49 1.083-.237.168-.47.35-.685.488-.214.14-.418.276-.606.402-.755.497-1.257.832-1.257.832a2.13 2.13 0 0 1-2.95-.596 2.136 2.136 0 0 1 .212-2.623l.008-.005zm70.92 10.628s-1.72-1.73-3.443-3.457l-3.408-3.727a3.29 3.29 0 0 1 .207-4.65 3.288 3.288 0 0 1 4.647.206c.18.19.328.398.45.616l.076.136s1.134 2.06 2.272 4.118a5346.92 5346.92 0 0 0 2.535 4.16 2.127 2.127 0 0 1-3.32 2.61l-.015-.014zM59.77 51.41s.46.432 1.15 1.086c.346.325.747.714 1.18 1.084.43.38.894.79 1.354 1.2.486.453.972.91 1.428 1.337.463.41.86.885 1.214 1.256l1.18 1.276a3.292 3.292 0 0 1-.194 4.65A3.292 3.292 0 0 1 62 62.526l-.107-.192s-.285-.495-.71-1.24c-.22-.37-.433-.82-.766-1.28-.312-.47-.647-.967-.98-1.467l-1.104-1.556c-.367-.497-.666-.957-.927-1.354l-.875-1.317a2.125 2.125 0 0 1 3.23-2.723l.01.012zm78.883 34.163s-.582.153-1.456.38c-.22.06-.458.12-.707.185-.242.07-.546.116-.838.18l-1.87.363c-.594.107-1.186.217-1.74.32-.567.095-1.042.21-1.478.294-.85.176-1.416.29-1.416.29l-.084.02a3.29 3.29 0 1 1-.55-6.51s.626.02 1.567.054c.462.022 1.028.028 1.587.067l1.768.103c.558.027 1.114.053 1.637.08.265.012.505.037.773.025l.73-.012c.906-.012 1.508-.024 1.508-.024a2.128 2.128 0 0 1 .57 4.187zM41.22 97.213l1.28-.425c.383-.13.845-.27 1.304-.442.232-.087.474-.174.716-.262l.75-.266c.548-.177 1.1-.352 1.612-.517.52-.163 1.013-.264 1.435-.38l1.412-.358c1.763-.45 3.558.62 4.004 2.386a3.298 3.298 0 0 1-3.24 4.107l-.13-.002s-.5-.01-1.246-.022c-.374 0-.82-.03-1.287-.01l-1.476.06c-.548.043-1.097.085-1.61.127-.524.046-.985.06-1.393.085-.808.045-1.346.072-1.346.072a2.134 2.134 0 0 1-2.246-2.012 2.14 2.14 0 0 1 1.462-2.138zm56.078 41.865l-.398-1.394c-.236-.837-.56-1.946-.87-3.067l-1.103-4.65a3.294 3.294 0 0 1 2.445-3.958 3.288 3.288 0 0 1 3.96 2.442c.065.266.092.534.09.797v.083l-.08 4.486c.027 1.15.067 2.313.09 3.18l.044 1.444a2.126 2.126 0 0 1-2.065 2.187 2.123 2.123 0 0 1-2.11-1.537l-.002-.015zM82.574 42.79s.197.548.49 1.372c.072.205.152.427.237.663.078.247.187.454.287.687.105.228.213.464.32.702.11.25.213.465.328.74.23.592.464 1.182.682 1.736.118.273.207.557.276.834.074.274.147.535.21.774.264.972.434 1.62.434 1.62a3.3 3.3 0 1 1-6.486.92l-.006-.287-.017-1.23c0-.188-.003-.393-.006-.608a3.43 3.43 0 0 0-.045-.69l-.196-1.542c-.103-.618-.208-1.237-.308-1.814-.047-.29-.106-.577-.118-.82-.025-.248-.05-.483-.07-.7l-.135-1.448a2.127 2.127 0 0 1 4.122-.918l.002.01z"/><path fill="#007CBA" d="M161.963 79.524c0-1.92 1.32-3 3.16-3h7.678c4.16 0 7.52 2.8 7.52 7.04 0 2.8-1.16 4.68-3.72 5.878v.08c3.4.48 6.08 3.32 6.08 6.8 0 5.638-3.76 8.678-9.28 8.678h-8.238c-1.84 0-3.2-1.16-3.2-3.04V79.524zm6 8.28h3.118c1.96 0 3.24-1.16 3.24-3.16 0-1.88-1.48-2.84-3.24-2.84h-3.118v6zm0 11.917h4.718c2.16 0 3.76-1.24 3.76-3.478 0-1.88-1.44-3.16-4.24-3.16h-4.238v6.64zm21.84-3.44c.398 2.84 2.758 4.16 5.437 4.16 2.96 0 5-2.32 6.52-2.32 1.24 0 2.36 1.24 2.36 2.48 0 2.48-5.12 4.88-9.4 4.88-6.48 0-10.797-4.72-10.797-11.078 0-5.84 4.24-11.158 10.317-11.158 6.24 0 10.36 5.68 10.36 10.478 0 1.72-.76 2.56-2.52 2.56H189.8zm9.037-3.838c-.32-2.52-1.92-4.4-4.6-4.4-2.56 0-4.28 1.96-4.558 4.4h9.158zm8.202-5.76c0-1.92 1.2-3.2 2.88-3.2 1.6 0 2.52.88 2.88 2.4 1.08-1.758 3.318-2.638 5.478-2.638 6.2 0 9.28 5.798 9.28 11.398 0 5.44-3.68 10.838-9.48 10.838-1.8 0-3.76-.68-5.28-2v7.04c0 1.92-1.198 3.2-2.878 3.2s-2.88-1.28-2.88-3.2V86.682zm10.278 13.52c3 0 4.48-3.12 4.48-5.8 0-2.72-1.48-5.88-4.48-5.88-3.08 0-4.52 2.88-4.52 5.68s1.36 6 4.52 6zm31.28 5.278c-5.48 0-9.32-3.96-10.16-9.04h-2.28v5.6c0 1.92-1.2 3.2-2.88 3.2s-2.88-1.28-2.88-3.2V86.684c0-1.92 1.202-3.2 2.88-3.2s2.88 1.28 2.88 3.2v4.72h2.48c1.2-4.56 4.96-8.16 9.96-8.16 6.078 0 10.317 5.32 10.317 11.16 0 5.998-4.12 11.077-10.318 11.077zm0-16.957c-3.162 0-4.56 3.12-4.56 5.88 0 2.758 1.44 5.798 4.56 5.798 3.118 0 4.557-3.04 4.557-5.798 0-2.76-1.4-5.88-4.558-5.88zm24.44-2.16c0-1.48 1.28-2.64 2.76-2.64h7.72c3.12 0 5.598 2.08 5.598 5.28 0 2.08-.84 3.48-2.76 4.36v.08c2.56.36 4.56 2.478 4.56 5.078 0 4.2-2.84 6.48-6.96 6.48h-8.157c-1.48 0-2.76-1.2-2.76-2.68V86.363zm5.68 5.8h2.32c1.48 0 2.4-.88 2.4-2.36 0-1.4-1.08-2.12-2.4-2.12h-2.32v4.48zm0 8.878h3.52c1.6 0 2.8-.92 2.8-2.6 0-1.398-1.08-2.358-3.16-2.358h-3.16v4.96zm35.6-8.438h2.918v-5.92c0-1.92 1.2-3.2 2.88-3.2s2.88 1.28 2.88 3.2v15.36c0 1.918-1.2 3.198-2.88 3.198s-2.88-1.28-2.88-3.2v-4.4h-3.678c-4.68 0-8.32-2.918-8.32-7.198v-3.76c0-1.92 1.2-3.2 2.88-3.2s2.88 1.28 2.88 3.2v3.52c0 1.6 1.36 2.4 3.32 2.4zm10.88-5.16c-.16-.44-.28-.88-.28-1.48 0-1.44 1.52-2.48 2.72-2.48 1.4 0 2.4.762 2.88 2.04l3.96 10.84 4.24-10.84c.478-1.278 1.478-2.04 2.88-2.04 1.198 0 2.717 1.04 2.717 2.48 0 .6-.08 1.04-.28 1.48L334.4 111.44c-.48 1.2-1.36 2.28-2.72 2.28-1.96 0-3-1.24-3-2.48 0-.56.16-1.16.36-1.68l2.52-6.24-6.36-15.877zm39.357 23.637c-1.68 0-2.88-1.28-2.88-3.2V105H349.36v2.88c0 1.92-1.2 3.2-2.88 3.2s-2.88-1.28-2.88-3.2v-4.72c0-1.92 1.2-3.2 2.88-3.2h.32c1.08-3.758 1.44-8.078 1.44-13.037 0-2.08 1.2-3.2 2.88-3.2h10.237c1.68 0 2.88 1.28 2.88 3.2V99.96h.32c1.68 0 2.88 1.28 2.88 3.2v4.72c0 1.92-1.2 3.2-2.88 3.2zm-5.76-22.717h-4.918c-.12 4.4-.562 8.518-1.482 11.918h6.4V88.364zm30.4 6.04c0 5.998-4.12 11.077-10.32 11.077s-10.317-5.08-10.317-11.078c0-5.84 4.24-11.158 10.318-11.158s10.318 5.32 10.318 11.158zm-14.88 0c0 2.758 1.442 5.798 4.56 5.798s4.56-3.04 4.56-5.798c0-2.76-1.4-5.88-4.56-5.88s-4.56 3.12-4.56 5.88zM191.79 75h-2.028c-.396 0-.564-.252-.564-.576v-7.388c0-.324.168-.575.564-.575h3.634c.3 0 .516.157.516.493 0 .335-.216.49-.516.49h-3.143v2.508h1.488c1.92 0 2.843 1.068 2.843 2.46 0 1.463-.996 2.59-2.794 2.59zm0-4.066h-1.537v3.083h1.488c1.032 0 1.788-.588 1.788-1.608 0-.876-.636-1.476-1.74-1.476zm8.866 4.138c-.324 0-.53-.216-.53-.564V69.53h-2.038v2.088c0 2.35-.995 3.418-2.087 3.418-.31 0-.514-.144-.514-.468s.204-.48.515-.48c.482 0 1.034-.755 1.034-2.47v-2.423c0-.383.216-.575.527-.575h3.096c.323 0 .527.215.527.563v5.325c0 .348-.204.564-.527.564zm6.67 0c-.323 0-.527-.216-.527-.564v-.252l-.025-.024c-.467.6-1.127.84-1.763.84-1.15 0-2.207-.564-2.207-1.87 0-1.992 2.232-2.148 3.862-2.148h.144v-.79c0-.54-.442-.805-1.126-.805-1.008 0-1.187.646-1.643.646-.323 0-.48-.203-.48-.43 0-.66 1.248-1.13 2.124-1.13 1.392 0 2.17.625 2.17 1.8v4.162c0 .348-.203.564-.527.564zm-.515-3.202h-.227c-1.343 0-2.722 0-2.722 1.33 0 .696.648.96 1.345.96.9 0 1.606-.575 1.606-1.69v-.6zm3.783-3.25h2.878c.35 0 .53.168.53.455 0 .288-.18.456-.53.456h-2.35v4.978c0 .348-.203.564-.527.564s-.528-.216-.528-.564v-5.325c0-.348.228-.563.528-.563zm6.972-.073c1.8 0 2.806 1.572 2.806 3.263 0 1.69-1.006 3.262-2.805 3.262-1.8 0-2.807-1.57-2.807-3.262 0-1.69 1.007-3.263 2.807-3.263zm0 5.614c1.295 0 1.75-1.27 1.75-2.35s-.455-2.35-1.75-2.35c-1.296 0-1.75 1.27-1.75 2.35s.454 2.35 1.75 2.35zm8.723-5.085c0 .288-.18.456-.528.456h-1.535v4.978c0 .348-.204.564-.528.564-.323 0-.528-.216-.528-.564V69.53h-1.536c-.347 0-.527-.167-.527-.455 0-.287.18-.455.527-.455h4.126c.348 0 .528.168.528.455zM230.476 75h-2.41c-.324 0-.528-.216-.528-.563v-5.254c0-.348.204-.563.528-.563h2.278c1.128 0 1.728.803 1.728 1.523 0 .695-.372 1.235-.888 1.403v.012c.768.084 1.38.732 1.38 1.583 0 .997-.744 1.86-2.088 1.86zm-.31-5.493h-1.573v1.68h1.56c.552 0 .863-.396.863-.864 0-.456-.264-.816-.85-.816zm.24 2.543h-1.813v2.062h1.776c.658 0 1.137-.407 1.137-1.03 0-.577-.407-1.032-1.102-1.032zm6.262-3.503c1.8 0 2.806 1.572 2.806 3.263 0 1.69-1.007 3.262-2.806 3.262-1.8 0-2.806-1.57-2.806-3.262 0-1.69 1.007-3.263 2.806-3.263zm0 5.614c1.295 0 1.75-1.27 1.75-2.35s-.455-2.35-1.75-2.35-1.75 1.27-1.75 2.35.455 2.35 1.75 2.35zm4.454-5.05c0-.346.204-.563.528-.563.323 0 .527.217.527.564v.313h.025c.3-.576.863-.876 1.703-.876 1.726 0 2.722 1.572 2.722 3.263 0 1.69-.996 3.262-2.722 3.262-.84 0-1.428-.468-1.703-.864h-.025v2.82c0 .347-.204.563-.527.563-.324 0-.528-.215-.528-.563V69.11zm2.7 5.05c1.294 0 1.75-1.27 1.75-2.35s-.456-2.35-1.75-2.35c-1.297 0-1.752 1.27-1.752 2.35s.455 2.35 1.75 2.35zm8.937.912c-.325 0-.53-.216-.53-.564v-3.993h-.022l-2.927 4.197c-.143.204-.203.36-.527.36s-.528-.216-.528-.564V69.11c0-.346.204-.563.528-.563.324 0 .528.217.528.564v3.983h.025l2.926-4.197c.133-.192.205-.35.53-.35.323 0 .527.218.527.565v5.398c0 .348-.204.564-.528.564zm6.96-5.997c0 .288-.18.456-.528.456h-1.535v4.978c0 .348-.204.564-.53.564-.322 0-.526-.216-.526-.564V69.53h-1.534c-.348 0-.527-.167-.527-.455 0-.287.178-.455.526-.455h4.126c.348 0 .527.168.527.455zm1.92 3.143c0 1.09.696 1.943 1.884 1.943 1.403 0 1.764-.863 2.16-.863.19 0 .383.168.383.468 0 .515-1.308 1.307-2.555 1.307-2.04 0-2.927-1.57-2.927-3.262 0-1.727 1.08-3.263 2.868-3.263 1.738 0 2.746 1.572 2.746 3.107 0 .37-.133.564-.59.564h-3.97zm3.503-.792c0-.91-.527-1.943-1.69-1.967-1.308-.025-1.776.995-1.812 1.966h3.503zm7.08 3.646c-.324 0-.528-.216-.528-.564V69.53h-2.04v2.088c0 2.35-.994 3.418-2.085 3.418-.313 0-.517-.144-.517-.468s.204-.48.517-.48c.48 0 1.03-.755 1.03-2.47v-2.423c0-.383.217-.575.528-.575h3.095c.323 0 .527.215.527.563v5.325c0 .348-.204.564-.527.564zm4.8-4.006c1.487 0 2.22.828 2.22 1.92 0 1.14-.78 2.014-2.184 2.014h-1.907c-.324 0-.528-.216-.528-.563V69.11c0-.346.204-.563.528-.563.323 0 .527.217.527.564v1.956h1.344zm-.048.9h-1.295v2.122h1.26c.73 0 1.247-.395 1.247-1.115 0-.612-.432-1.007-1.212-1.007zm4.753 2.542c0 .348-.204.564-.527.564-.324 0-.528-.216-.528-.564V69.11c0-.346.204-.563.53-.563.322 0 .526.217.526.564v2.052h2.95v-2.05c0-.348.204-.565.53-.565.322 0 .526.217.526.564v5.398c0 .348-.204.564-.527.564-.325 0-.53-.216-.53-.564v-2.434h-2.95v2.434zm8.28-3.442c1.487 0 2.22.828 2.22 1.92 0 1.14-.78 2.014-2.185 2.014h-1.906c-.324 0-.528-.216-.528-.563V69.11c0-.346.203-.563.527-.563.323 0 .528.217.528.564v1.956h1.343zm-.05.9h-1.293v2.122h1.26c.73 0 1.246-.395 1.246-1.115 0-.612-.43-1.007-1.21-1.007zm4.223 2.542c0 .348-.202.564-.526.564s-.528-.216-.528-.564V69.11c0-.346.204-.563.528-.563s.527.217.527.564v5.398zm6.29.564c-.323 0-.527-.216-.527-.564v-3.993h-.024l-2.927 4.197c-.144.204-.204.36-.528.36-.324 0-.528-.216-.528-.564V69.11c0-.346.204-.563.528-.563.324 0 .528.217.528.564v3.983h.024l2.926-4.197c.132-.192.204-.35.528-.35.324 0 .53.218.53.565v5.398c0 .348-.206.564-.53.564zm-3.214-8.683c.372 0 .577.682 1.247.682.672 0 .876-.683 1.248-.683.23 0 .373.19.373.43 0 .708-.96 1.164-1.62 1.164-.66 0-1.618-.456-1.618-1.164 0-.24.144-.43.37-.43zm14.685 10.59c-.322 0-.526-.217-.526-.565V75h-4.594v1.415c0 .348-.203.564-.528.564s-.527-.217-.527-.565v-1.763c0-.348.203-.564.527-.564h.408c.54-1.427.635-3.01.635-4.905 0-.3.205-.563.53-.563h3.02c.324 0 .53.215.53.563v4.905h.526c.325 0 .53.216.53.564v1.763c0 .348-.205.564-.53.564zm-1.582-7.45h-1.98c0 1.812-.167 3.263-.598 4.558h2.578V69.53zm4.034 2.688c0 1.09.695 1.943 1.883 1.943 1.403 0 1.764-.863 2.16-.863.19 0 .383.168.383.468 0 .515-1.308 1.307-2.555 1.307-2.04 0-2.927-1.57-2.927-3.262 0-1.727 1.08-3.263 2.868-3.263 1.738 0 2.746 1.572 2.746 3.107 0 .37-.132.564-.588.564h-3.97zm3.502-.792c0-.91-.527-1.943-1.69-1.967-1.308-.025-1.776.995-1.812 1.966h3.502zm6.864-2.35c0 .287-.18.455-.527.455h-1.534v4.978c0 .348-.204.564-.53.564-.322 0-.526-.216-.526-.564V69.53h-1.535c-.348 0-.527-.167-.527-.455 0-.287.18-.455.527-.455h4.126c.35 0 .528.168.528.455zm3.853-.53c1.08 0 1.717.373 1.717.805 0 .217-.18.445-.433.445-.407 0-.563-.336-1.283-.336-1.306 0-1.82 1.27-1.82 2.35s.514 2.35 1.82 2.35c.745 0 .936-.36 1.272-.36.24 0 .41.157.41.445 0 .395-.59.827-1.68.827-1.944 0-2.88-1.57-2.88-3.262 0-1.69.936-3.263 2.88-3.263zm7.68 6.526c-.252 0-.42-.156-.612-.324l-2.806-2.52v2.28c0 .348-.205.564-.528.564-.324 0-.528-.216-.528-.564V69.11c0-.346.204-.563.528-.563.323 0 .528.217.528.564v1.968l2.53-2.206c.204-.18.42-.325.6-.325.276 0 .444.204.444.468 0 .156-.06.276-.264.456l-2.47 2.16 2.77 2.482a.718.718 0 0 1 .252.54c0 .24-.216.42-.444.42zm6.264 0c-.324 0-.528-.216-.528-.564v-3.993h-.024l-2.926 4.197c-.144.204-.204.36-.528.36-.324 0-.528-.216-.528-.564V69.11c0-.346.204-.563.528-.563.324 0 .528.217.528.564v3.983h.024l2.926-4.197c.132-.192.204-.35.528-.35.323 0 .528.218.528.565v5.398c0 .348-.205.564-.528.564zm6.936 0c-.324 0-.53-.216-.53-.564v-3.993h-.022l-2.927 4.197c-.142.204-.203.36-.526.36-.324 0-.528-.216-.528-.564V69.11c0-.346.204-.563.528-.563.323 0 .527.217.527.564v3.983h.026l2.925-4.197c.133-.192.206-.35.53-.35.323 0 .527.218.527.565v5.398c0 .348-.204.564-.527.564zm-3.215-8.683c.372 0 .576.682 1.248.682.67 0 .875-.683 1.247-.683.228 0 .37.19.37.43 0 .708-.958 1.164-1.617 1.164-.66 0-1.62-.456-1.62-1.164 0-.24.144-.43.372-.43zm14.685 10.59c-.323 0-.527-.217-.527-.565V75H355.9c-.324 0-.528-.216-.528-.563V69.11c0-.346.204-.563.528-.563.323 0 .527.217.527.564v4.978h2.95V69.11c0-.346.205-.563.53-.563.322 0 .526.217.526.564v4.978h.527c.325 0 .53.216.53.564v1.763c0 .348-.205.564-.53.564zm2.272-4.762c0 1.09.695 1.943 1.883 1.943 1.403 0 1.763-.863 2.16-.863.19 0 .383.168.383.468 0 .515-1.308 1.307-2.555 1.307-2.04 0-2.927-1.57-2.927-3.262 0-1.727 1.08-3.263 2.867-3.263 1.74 0 2.747 1.572 2.747 3.107 0 .37-.132.564-.588.564h-3.97zm3.502-.792c0-.91-.527-1.943-1.69-1.967-1.308-.025-1.776.995-1.812 1.966h3.502zm3.6 3.082c0 .348-.203.564-.526.564-.324 0-.528-.216-.528-.564V69.11c0-.346.204-.563.528-.563.323 0 .527.217.527.564v2.052h2.95v-2.05c0-.348.205-.565.53-.565.322 0 .526.217.526.564v5.398c0 .348-.203.564-.526.564-.324 0-.528-.216-.528-.564v-2.434h-2.95v2.434zm10.44-5.433c0 .288-.18.456-.528.456h-1.536v4.978c0 .348-.204.564-.528.564-.323 0-.527-.216-.527-.564V69.53h-1.535c-.348 0-.528-.167-.528-.455 0-.287.18-.455.528-.455h4.126c.347 0 .527.168.527.455zm1.297.036c0-.346.205-.563.53-.563.322 0 .526.217.526.564v.313h.025c.3-.576.864-.876 1.704-.876 1.727 0 2.723 1.572 2.723 3.263 0 1.69-.996 3.262-2.723 3.262-.84 0-1.428-.468-1.703-.864h-.024v2.82c0 .347-.204.563-.527.563-.325 0-.53-.215-.53-.563V69.11zm2.7 5.05c1.295 0 1.75-1.27 1.75-2.35s-.455-2.35-1.75-2.35c-1.296 0-1.75 1.27-1.75 2.35s.454 2.35 1.75 2.35z"/></symbol><symbol id="icon-lj" viewBox="0 0 32 32">
    <!-- Generator: Sketch 3.4 (15575) - http://www.bohemiancoding.com/sketch -->
    <title>Shape</title>
    <desc>Created with Sketch.</desc>
    
    <g id="Page-1" stroke="none" stroke-width="1" sketch:type="MSPage">
        <path d="M3.29246899,11.0894299 L0,7.80017411 C1.50110494,4.31688207 4.28366705,1.52039108 7.75517311,0 L7.76267327,0 L11.050961,3.28400188 C12.8735016,2.4964843 14.8814036,2.05611732 16.9943079,2.05611732 C25.2616353,2.05611732 31.9646421,8.76019554 31.9646421,17.0275229 C31.9646421,25.2969932 25.2605639,32 16.9943079,32 C8.72483761,32 2.0229023,25.2991361 2.0229023,17.0275229 C2.0229023,14.9081899 2.4964843,12.9195741 3.29150204,11.0938191 L3.29235984,11.0925324 C3.2918243,11.0909274 3.29214661,11.0901786 3.29246899,11.0894299 Z M3.29246899,11.0894299 L3.29364495,11.0906047 L3.29235984,11.0925324 L15.4685596,23.2462332 C16.968593,19.7629411 19.7532981,16.9664501 23.2237327,15.4449876 L23.2258756,15.4449876 L11.0531039,3.29043059 L11.0477466,3.28935914 C7.57484389,4.81049481 4.79273113,7.60504017 3.29246899,11.0894299 Z M24.095895,19.596866 C22.0794214,20.4797429 20.4636711,22.1072792 19.5904373,24.1280386 L25.2755642,25.303422 L24.095895,19.596866 Z" id="Shape" sketch:type="MSShapeGroup"/>
    </g>
</symbol><symbol id="pic-search" viewBox="0 0 24 24"><path d="M15.5 14h-.79l-.28-.27A6.47 6.47 0 0 0 16 9.5 6.5 6.5 0 1 0 9.5 16c1.61 0 3.09-.59 4.23-1.57l.27.28v.79l5 4.99L20.49 19l-4.99-5zm-6 0C7.01 14 5 11.99 5 9.5S7.01 5 9.5 5 14 7.01 14 9.5 11.99 14 9.5 14z"/><path d="M0 0h24v24H0z" fill="none"/></symbol><symbol id="icon-ok" viewBox="0 0 19 32">
    <!-- Generator: Sketch 3.3.3 (12072) - http://www.bohemiancoding.com/sketch -->
    <title>odnoklassniki</title>
    <desc>Created with Sketch.</desc>
    
    <g id="Page-1" stroke="none" stroke-width="1" sketch:type="MSPage">
        <path d="M9.25001007,4.83066372 C11.1322373,4.83066372 12.6628262,6.3614992 12.6628262,8.24367713 C12.6628262,10.1239317 11.1322373,11.6549151 9.25001007,11.6549151 C7.3697555,11.6549151 5.83724323,10.1239317 5.83724323,8.24367713 C5.83724323,6.3614992 7.3697555,4.83066372 9.25001007,4.83066372 L9.25001007,4.83066372 L9.25001007,4.83066372 Z M9.25001007,16.4836554 C13.7965519,16.4836554 17.4925036,12.7876544 17.4925036,8.24367713 C17.4925036,3.69752985 13.7965519,0 9.25001007,0 C4.7045039,0 1.00756587,3.69752985 1.00756587,8.24367713 C1.00756587,12.7876544 4.7045039,16.4836554 9.25001007,16.4836554 L9.25001007,16.4836554 L9.25001007,16.4836554 Z M12.5848049,23.2076924 C14.2627564,22.8252794 15.881033,22.1616051 17.3711316,21.2251026 C18.4991364,20.5142308 18.8391357,19.023343 18.1282639,17.8953876 C17.4183291,16.7649168 15.9282304,16.4248682 14.7983022,17.1357401 C11.4221295,19.2591331 7.0750302,19.2581961 3.70078086,17.1357401 C2.57090199,16.4248682 1.08075401,16.7649168 0.371805568,17.8953876 C-0.339066283,19.0240828 -3.98381299e-06,20.5142308 1.12795148,21.2251026 C2.61809946,22.1604214 4.23632668,22.8252794 5.9143275,23.2076924 L1.30613797,27.8156353 C0.364111936,28.7586477 0.364111936,30.2873132 1.30712433,31.2303255 C1.77909905,31.7013632 2.39656232,31.9373506 3.01397627,31.9373506 C3.63237659,31.9373506 4.2507769,31.7013632 4.72280094,31.2303255 L9.24907302,26.70213 L13.7791919,31.2303255 C14.7212673,32.1733873 16.2499327,32.1733873 17.1929451,31.2303255 C18.1369439,30.2873132 18.1369439,28.7579079 17.1929451,27.8156353 L12.5848049,23.2076924 L12.5848049,23.2076924 Z" id="odnoklassniki" sketch:type="MSShapeGroup"/>
    </g>
</symbol><symbol id="pic-te-st" viewBox="0 0 87 40"><title>&#x422;&#x435;&#x43F;&#x43B;&#x438;&#x446;&#x430; + Group Copy</title><g fill="none" fill-rule="evenodd"><path d="M37.18 6.56v-.68H32.3v.68h2.06V13h.76V6.56h2.06zm4.21 4.17v-.33c0-1.47-.77-2.38-2.02-2.38s-2.02.94-2.02 2.49c0 1.67.75 2.55 2.17 2.55.36 0 .68-.06.95-.17.3-.12.47-.24.83-.59l-.49-.43c-.27.26-.4.35-.62.44-.18.07-.4.12-.63.12-.67 0-1.11-.26-1.34-.81-.1-.24-.13-.44-.15-.89h3.32zm-.72-.54h-2.6c.02-.44.05-.6.15-.82.2-.46.63-.74 1.15-.74.58 0 1.04.34 1.21.91.06.18.07.27.09.65zM46.74 13V8.08h-3.81V13h.71V8.7h2.38V13h.72zm5.46 0V8.08h-3.15v2.11c0 2.05-.6 2.19-1.04 2.19h-.16V13h.33c.9 0 1.56-.54 1.56-2.6V8.7h1.74V13h.72zm5.77 0V8.08h-.72l-2.53 3.79V8.08h-.71V13h.71l2.53-3.81V13h.72zm6.36 1.47v-2.09h-.74v-4.3h-.72v4.3h-2.38v-4.3h-.71V13h3.85v1.47h.7zM69.07 13V9.66c0-1.09-.67-1.64-1.99-1.64-.47 0-.82.06-1.1.2-.24.12-.36.23-.62.53l.49.45c.18-.24.28-.33.45-.41.2-.1.44-.15.76-.15.9 0 1.29.33 1.29 1.08v.47h-1.48c-1.06 0-1.7.53-1.7 1.42 0 .94.61 1.45 1.75 1.45.38 0 .64-.03.87-.13.2-.08.32-.17.56-.4V13h.72zm-.72-1.74c0 .84-.37 1.18-1.29 1.18-.83 0-1.19-.25-1.19-.84 0-.58.37-.87 1.1-.87h1.38v.53zM36.43 23.33l-.49-.47c-.26.27-.38.37-.58.46-.16.07-.33.1-.54.1-.97 0-1.47-.64-1.47-1.88 0-1.24.51-1.88 1.48-1.88.21 0 .39.04.55.11.19.08.31.18.56.44l.49-.46c-.33-.34-.49-.46-.76-.58-.24-.1-.51-.15-.83-.15-1.38 0-2.21.95-2.21 2.52s.83 2.52 2.21 2.52c.32 0 .59-.05.83-.15.27-.12.43-.24.76-.58zm5.13-1.82c0-.92-.18-1.51-.6-1.93a1.97 1.97 0 0 0-1.41-.56c-.56 0-1.05.2-1.41.56-.42.43-.6 1.01-.6 1.96s.18 1.53.6 1.96c.36.36.85.56 1.41.56.56 0 1.05-.2 1.41-.56.43-.44.6-1.01.6-1.99zm-.72.06c0 .78-.11 1.2-.39 1.49-.22.23-.55.36-.9.36s-.67-.13-.89-.36c-.29-.3-.4-.72-.4-1.52s.11-1.23.4-1.52c.22-.23.55-.36.89-.36.35 0 .68.13.9.36.29.29.39.71.39 1.55zm6.82 3.9v-2.09h-.74v-4.3h-.72v4.3h-2.38v-4.3h-.71V24h3.85v1.47h.7zm5.2-1.47v-4.92h-.72l-2.53 3.79v-3.79h-.71V24h.71l2.53-3.81V24h.72zm5.31 0v-3.34c0-1.09-.67-1.64-1.99-1.64-.47 0-.82.06-1.1.2-.24.12-.36.23-.62.53l.49.45c.18-.24.28-.33.45-.41.2-.1.44-.15.76-.15.9 0 1.29.33 1.29 1.08v.47h-1.48c-1.06 0-1.7.53-1.7 1.42 0 .94.61 1.45 1.75 1.45.38 0 .64-.03.87-.13.2-.08.32-.17.56-.4V24h.72zm-.72-1.74c0 .84-.37 1.18-1.29 1.18-.83 0-1.19-.25-1.19-.84 0-.58.37-.87 1.1-.87h1.38v.53zM63.58 24v-4.92h-3.15v2.11c0 2.05-.6 2.19-1.04 2.19h-.16V24h.33c.9 0 1.56-.54 1.56-2.6v-1.7h1.74V24h.72zm5.56-1.48c0-.9-.62-1.49-1.56-1.49H66.1v-1.95h-.71V24h2.19c.94 0 1.56-.59 1.56-1.48zm-.72 0c0 .55-.32.86-.92.86h-1.4v-1.72h1.4c.6 0 .92.31.92.86zM74.26 24v-4.92h-.72v2.07h-2.38v-2.07h-.71V24h.71v-2.23h2.38V24h.72zm7.07 0v-4.92h-.72V24h.72zm-1.51-1.48c0-.9-.62-1.49-1.56-1.49h-1.48v-1.95h-.71V24h2.19c.94 0 1.56-.59 1.56-1.48zm-.72 0c0 .55-.32.86-.92.86h-1.4v-1.72h1.4c.6 0 .92.31.92.86zM86.79 24l-1.67-2.51 1.6-2.41h-.87l-1.11 1.82-1.13-1.82h-.87l1.6 2.41L82.67 24h.87l1.2-1.91L85.92 24h.87zm-50.66 6.7v-.62h-4.02v.62h1.69V35h.72v-4.3h1.61zm4.67 2.03v-.33c0-1.47-.77-2.38-2.02-2.38s-2.02.94-2.02 2.49c0 1.67.75 2.55 2.17 2.55.36 0 .68-.06.95-.17.3-.12.47-.24.83-.59l-.49-.43c-.27.26-.4.35-.62.44-.18.07-.4.12-.63.12-.67 0-1.11-.26-1.34-.81-.1-.24-.13-.44-.15-.89h3.32zm-.72-.54h-2.6c.02-.44.05-.6.15-.82.2-.46.63-.74 1.15-.74.58 0 1.04.34 1.21.91.06.18.07.27.09.65zm5.7 2.81l-1.67-2.51 1.6-2.41h-.87l-1.11 1.82-1.13-1.82h-.87l1.6 2.41L41.66 35h.87l1.2-1.91L44.91 35h.87zm5.05 0v-4.92h-.72v2.07h-2.38v-2.07h-.71V35h.71v-2.23h2.38V35h.72zm5.56-2.49c0-.92-.18-1.51-.6-1.93a1.97 1.97 0 0 0-1.41-.56c-.56 0-1.05.2-1.41.56-.42.43-.6 1.01-.6 1.96s.18 1.53.6 1.96c.36.36.85.56 1.41.56.56 0 1.05-.2 1.41-.56.43-.44.6-1.01.6-1.99zm-.72.06c0 .78-.11 1.2-.39 1.49-.22.23-.55.36-.9.36s-.67-.13-.89-.36c-.29-.3-.4-.72-.4-1.52s.11-1.23.4-1.52c.22-.23.55-.36.89-.36.35 0 .68.13.9.36.29.29.39.71.39 1.55zM61.49 35v-4.92h-3.15v2.11c0 2.05-.6 2.19-1.04 2.19h-.16V35h.33c.9 0 1.56-.54 1.56-2.6v-1.7h1.74V35h.72zm5.56-2.49c0-.92-.18-1.51-.6-1.93a1.97 1.97 0 0 0-1.41-.56c-.56 0-1.05.2-1.41.56-.42.43-.6 1.01-.6 1.96s.18 1.53.6 1.96c.36.36.85.56 1.41.56.56 0 1.05-.2 1.41-.56.43-.44.6-1.01.6-1.99zm-.72.06c0 .78-.11 1.2-.39 1.49-.22.23-.55.36-.9.36s-.67-.13-.89-.36c-.29-.3-.4-.72-.4-1.52s.11-1.23.4-1.52c.22-.23.55-.36.89-.36.35 0 .68.13.9.36.29.29.39.71.39 1.55zm5.42-1.87v-.62h-3.12V35h.72v-4.3h2.4zm4.98 4.3v-4.92h-.72l-2.53 3.79v-3.79h-.71V35h.71l2.53-3.81V35h.72zm5.25-7.04h-.64c-.04.5-.33.75-.82.75-.49 0-.78-.25-.82-.75h-.64c.06.9.63 1.26 1.46 1.26s1.4-.36 1.46-1.26zM82.5 35v-4.92h-.72l-2.53 3.79v-3.79h-.71V35h.71l2.53-3.81V35h.72z" fill="#111"/><g><use fill="#F38D06" xlink:href="#a"/><use fill="#DEDE02" xlink:href="#b"/><use fill="#DB9906" xlink:href="#c"/><use fill="#E6201E" xlink:href="#d"/><use fill="#BE0C39" xlink:href="#e"/><path d="M.91 12.866c0-.195.053-.377.144-.534l-.76-.44a1.936 1.936 0 0 0 .002 1.95l.76-.44a1.064 1.064 0 0 1-.145-.536" fill="#B70E0B"/><use fill="#A9CA0F" xlink:href="#f"/><path d="M21.874 12.864c0 .196-.053.378-.144.536l.76.44a1.938 1.938 0 0 0 0-1.95l-.76.44c.09.156.144.34.144.534" fill="#00A8B0"/><use fill="#419F62" xlink:href="#g"/><use fill="#E6005B" xlink:href="#h"/><use xlink:href="#h"/><use fill="#168B8F" xlink:href="#i"/><use fill="#AF0E79" xlink:href="#j"/><use fill="#1269B6" xlink:href="#k"/><use fill="#702282" xlink:href="#l"/><use fill="#7F1F82" xlink:href="#m"/><use fill="#6EB62A" xlink:href="#n"/><use fill="#FFD102" xlink:href="#o"/><path d="M10.467 1.45a1.068 1.068 0 0 1 1.85 0l.76-.44a1.948 1.948 0 0 0-1.685-.974c-.72 0-1.347.393-1.684.975l.76.44" fill="#DEDC00"/><use fill="#F7AB02" xlink:href="#p"/><path d="M.91 7.427c0-.195.054-.378.145-.535l-.76-.44a1.94 1.94 0 0 0 0 1.95l.76-.44a1.067 1.067 0 0 1-.144-.535" fill="#ED6607"/><use fill="#DCDD02" xlink:href="#q"/><path d="M21.874 7.425c0 .196-.053.377-.143.534l.76.438a1.934 1.934 0 0 0 0-1.948l-.76.44c.09.157.144.34.144.535" fill="#76B82A"/><use fill="#B8CF09" xlink:href="#r"/><use fill="#0E70BC" xlink:href="#s"/><use fill="#B80D79" xlink:href="#t"/><path d="M21.874 18.305c0 .195-.053.377-.144.535l.76.44a1.937 1.937 0 0 0 0-1.95l-.76.44c.09.157.144.34.144.535" fill="#0090D7"/><use fill="#C52987" xlink:href="#u"/><path d="M22.26 28.83H11.92v-4.782l2.82-1.63A1.94 1.94 0 0 0 17.782 22l-.76-.44a1.07 1.07 0 0 1-1.85-1.07l-.76-.44a1.936 1.936 0 0 0-.2 1.455L11.92 22.83v-2.648a1.96 1.96 0 0 0 1.158-.9l-.76-.44a1.07 1.07 0 0 1-1.85 0l-.76.44a1.96 1.96 0 0 0 1.158.9v2.647l-2.292-1.326a1.938 1.938 0 0 0-.2-1.452l-.76.44a1.065 1.065 0 0 1-.003 1.07 1.068 1.068 0 0 1-1.848 0l-.76.44c.338.58.966.972 1.685.972.53 0 1.01-.212 1.36-.556l2.82 1.63v4.782H.524a.352.352 0 0 0 0 .704h10.32c-.056.343-.212.74-.585 1.09-.668.627-1.856.904-3.437.8a7.292 7.292 0 0 0-1.93.11.26.26 0 0 0-.093.02c-.003 0-.005.002-.008.003-1.81.408-2.526 1.556-2.656 2.332a.263.263 0 1 0 .52.085c.01-.058.17-.922 1.183-1.508-.09.255-.113.53-.135.812-.033.403-.07.86-.313 1.36a.264.264 0 0 0 .474.23c.287-.59.33-1.12.364-1.548.05-.64.08-.994.754-1.274.237-.048.497-.083.784-.102-.305.375-.372.892-.44 1.43-.1.772-.22 1.734-1.04 2.705a.264.264 0 1 0 .402.34c.92-1.09 1.054-2.137 1.16-2.98.118-.925.205-1.345.976-1.487 1.735.107 3.01-.21 3.795-.944.083-.08.157-.162.227-.248-.216.627-.66 1.34-1.57 2.108-.576.487-1.065.776-1.496 1.03-.816.484-1.406.833-1.62 2.044a.264.264 0 1 0 .52.09c.17-.97.597-1.222 1.37-1.68.07-.04.146-.086.222-.132-.173.412-.26.82-.343 1.203-.19.882-.352 1.643-1.392 2.326a.264.264 0 0 0 .29.442c1.22-.802 1.422-1.745 1.617-2.657.022-.105.044-.208.068-.31.056.28.136.555.215.82.173.59.352 1.198.25 1.77a.264.264 0 0 0 .52.093c.123-.696-.074-1.365-.265-2.012-.29-.987-.542-1.84.385-2.623.777-.656 1.245-1.285 1.53-1.862.058.692.138 1.3.22 1.846.187 1.253-.124 1.638-.483 2.083-.36.445-.77.95-.692 2.237.01.14.125.248.263.248h.016a.264.264 0 0 0 .248-.28c-.066-1.082.245-1.467.575-1.875a3.82 3.82 0 0 0 .356-.493c.163 1.453.015 2.57-1.26 4.362a.264.264 0 1 0 .43.305c1.734-2.44 1.524-3.776 1.175-5.988-.116-.734-.25-1.582-.333-2.615.29.603.682 1.055 1.05 1.476.93 1.063 1.73 1.98.552 5.046a.264.264 0 0 0 .492.19c.61-1.584.712-2.672.552-3.494.362.473.6 1.114.47 2.324a.264.264 0 0 0 .235.29l.028.002c.134 0 .248-.1.263-.236.046-.434.046-.802.014-1.127.338.347.707.67 1.015.843a.266.266 0 0 0 .36-.1.264.264 0 0 0-.102-.36c-.547-.308-1.41-1.26-1.703-1.727-.004-.008-.01-.014-.014-.02-.222-.348-.494-.608-.754-.853-.195-.184-.38-.357-.536-.56l-.008-.01c-.15-.192-.31-.375-.468-.557-.383-.437-.773-.885-1.035-1.5.56.492 1.413.674 2.328.777l.01.002c1.29.142 1.477 1.074 1.693 2.153.09.45.183.918.37 1.324a.264.264 0 0 0 .478-.22c-.158-.35-.242-.767-.33-1.207-.05-.245-.1-.495-.166-.74.22.114.453.21.682.3.605.244 1.127.454 1.35.996a.263.263 0 0 0 .343.145c.134-.054.2-.21.144-.344-.308-.75-.986-1.022-1.642-1.285-.523-.21-1.018-.41-1.334-.836a2.038 2.038 0 0 0-.126-.155c1.654.15 3.243.436 3.685 2.068a.263.263 0 0 0 .508-.14c-.586-2.164-2.765-2.343-4.688-2.5-1.974-.162-3.24-.34-3.42-1.674H22.26a.35.35 0 0 0 0-.704" fill="#213A8F"/></g></g></symbol><symbol id="icon-telegram" viewBox="0 0 32 27">
    <!-- Generator: Sketch 3.3.3 (12072) - http://www.bohemiancoding.com/sketch -->
    <title>path9</title>
    <desc>Created with Sketch.</desc>
    
    <g id="Page-1" stroke="none" stroke-width="1" sketch:type="MSPage">
        <path d="M29.8395284,0.177464413 L1.4938725,11.1104417 C-0.440764139,11.8866545 -0.429290764,12.9657099 1.14124074,13.446869 L8.21073295,15.6534015 L10.9156866,23.9465813 C11.2445295,24.8542678 11.0824241,25.2142694 12.0355851,25.2142694 C12.7711661,25.2142694 13.0974833,24.8789005 13.5071685,24.4786884 C13.7676949,24.2237412 15.3145406,22.719841 17.0417047,21.0405748 L24.3953027,26.4737471 C25.7484637,27.2202744 26.7255191,26.8335367 27.0624675,25.2170062 L31.8895339,2.46999728 C32.3837459,0.48862376 31.1341629,-0.410115792 29.8395284,0.177464413 L29.8395284,0.177464413 Z M9.32020973,15.1464533 L25.2548843,5.09316247 C26.0503594,4.61074055 26.7797293,4.87010971 26.1808853,5.40168979 L12.5366383,17.7122492 L12.0053749,23.3785801 L9.32020973,15.1464533 L9.32020973,15.1464533 Z" id="path9" sketch:type="MSShapeGroup"/>
    </g>
</symbol><symbol id="icon-twitter" viewBox="0 0 32 26">
    <!-- Generator: Sketch 3.3.3 (12072) - http://www.bohemiancoding.com/sketch -->
    <title>Shape</title>
    <desc>Created with Sketch.</desc>
    
    <g id="Page-1" stroke="none" stroke-width="1" sketch:type="MSPage">
        <path d="M31.52832,3.03296 C30.36928,3.54816 29.12192,3.89568 27.81312,4.0512 C29.14944,3.2512 30.17408,1.984 30.65728,0.47232 C29.40736,1.21408 28.02368,1.75232 26.54976,2.04288 C25.37024,0.78592 23.68896,0 21.82848,0 C18.25664,0 15.36064,2.896 15.36064,6.46848 C15.36064,6.97472 15.4176,7.46816 15.52832,7.9424 C10.15232,7.67232 5.3856,5.0976 2.1952,1.184 C1.6384,2.13888 1.31968,3.24992 1.31968,4.43648 C1.31968,6.68032 2.46144,8.66048 4.19712,9.82016 C3.13728,9.78624 2.13952,9.49504 1.2672,9.01056 C1.26656,9.03744 1.26656,9.06496 1.26656,9.09248 C1.26656,12.22592 3.49632,14.83968 6.45568,15.43488 C5.91296,15.58208 5.34144,15.66144 4.75136,15.66144 C4.33408,15.66144 3.92896,15.62112 3.53408,15.54496 C4.35776,18.11456 6.74624,19.98528 9.57632,20.03712 C7.36256,21.77216 4.57408,22.8064 1.54304,22.8064 C1.02144,22.8064 0.50624,22.77568 0,22.71552 C2.86336,24.55168 6.26304,25.62176 9.91552,25.62176 C21.81376,25.62176 28.31936,15.76576 28.31936,7.21792 C28.31936,6.9376 28.3136,6.65792 28.30144,6.38016 C29.5648,5.47008 30.66176,4.33024 31.52832,3.03296 L31.52832,3.03296 Z" id="Shape" sketch:type="MSShapeGroup"/>
    </g>
</symbol><symbol id="icon-viber" viewBox="0 0 31 31">
    <!-- Generator: Sketch 3.3.3 (12072) - http://www.bohemiancoding.com/sketch -->
    <title>g15</title>
    <desc>Created with Sketch.</desc>
    
    <g id="Page-1" stroke="none" stroke-width="1" sketch:type="MSPage">
        <g id="g15" sketch:type="MSLayerGroup">
            <path d="M28.0456345,22.4253904 C27.1026948,21.6662774 26.094961,20.9848723 25.1030607,20.2887566 C23.1247626,18.8993327 21.315356,18.7914173 19.8391281,21.0267583 C19.0101677,22.2817653 17.8497129,22.3366775 16.6363672,21.7860959 C13.2912164,20.2694419 10.7082107,17.9323619 9.1951501,14.5324112 C8.52587289,13.0282219 8.53463189,11.679561 10.1006956,10.6156797 C10.9297684,10.0530826 11.7651296,9.38728656 11.6983142,8.15788273 C11.6110611,6.55487399 7.71892223,1.19773669 6.18194285,0.632332204 C5.54590491,0.398309772 4.91256206,0.413469575 4.26551923,0.630984666 C0.661416566,1.8429828 -0.831318648,4.80700491 0.59830687,8.31655533 C4.86326462,18.7871501 12.3690513,26.0764323 22.7010742,30.5254413 C23.2900606,30.7787785 23.9445149,30.8800684 24.275897,30.9709149 C26.6281368,30.9946091 29.3837398,28.7282748 30.1795732,26.4791216 C30.9457609,24.3153125 29.3264694,23.4563693 28.0456345,22.4253904 L28.0456345,22.4253904 Z" id="path17-6" sketch:type="MSShapeGroup"/>
            <path d="M16.4608504,1.70575851 C24.01425,2.86733626 27.497748,6.4589742 28.4596656,14.0667245 C28.5488277,14.7694656 28.2870684,15.8268338 29.2896367,15.8463731 C30.3374598,15.8663615 30.085021,14.8246024 30.09378,14.1211875 C30.1823806,6.95610343 23.9348576,0.313751763 16.6792638,0.0688367326 C16.1318265,0.14755541 14.9991085,-0.308698496 14.9284751,0.918234849 C14.8814236,1.74551088 15.8350313,1.60952184 16.4608504,1.70575851 L16.4608504,1.70575851 Z" id="path19-1" sketch:type="MSShapeGroup"/>
            <path d="M17.9383135,3.79174733 C17.2117659,3.70426965 16.2526558,3.36188271 16.082866,4.37006572 C15.9056647,5.42810763 16.9745992,5.32064148 17.6615067,5.4743731 C22.3266833,6.51703063 23.951028,8.2150408 24.7191247,12.8425986 C24.8313072,13.5172659 24.608402,14.5673349 25.7549322,14.3932779 C26.6046672,14.2639143 26.2977654,13.3637589 26.3688481,12.8379945 C26.4064668,8.395274 22.5994474,4.35142478 17.9383135,3.79174733 L17.9383135,3.79174733 Z" id="path21-2" sketch:type="MSShapeGroup"/>
            <path d="M18.3667183,7.42470976 C17.8817169,7.43672531 17.4056991,7.489167 17.2274872,8.00740765 C16.9597763,8.78201741 17.5229349,8.96674241 18.0962,9.05882417 C20.0099286,9.36606283 21.0171009,10.4945136 21.2082267,12.402852 C21.2598824,12.9208681 21.5885693,13.3405139 22.0889551,13.2814468 C22.7822634,13.1987978 22.8449239,12.5816254 22.8237002,11.9955586 C22.8579501,9.8515134 20.4346276,7.37339102 18.3667183,7.42470976 L18.3667183,7.42470976 Z" id="path23" sketch:type="MSShapeGroup"/>
        </g>
    </g>
</symbol><symbol id="icon-vk" viewBox="0 0 32 21">
    <!-- Generator: Sketch 3.3.3 (12072) - http://www.bohemiancoding.com/sketch -->
    <title>vkontakte</title>
    <desc>Created with Sketch.</desc>
    
    <g id="Page-1" stroke="none" stroke-width="1" sketch:type="MSPage">
        <path d="M0.0054438677,1.52695383 C-0.213527289,0.190760493 6.24612006,1.01805207 6.24612006,1.01805207 C6.24612006,1.01805207 9.99600007,10.4350338 11.4740549,10.4350337 C12.9521098,10.4350335 12.2404538,2.44968778 12.2404538,2.44968778 C12.2404538,2.44968778 10.4065708,1.97247588 10.4065709,1.24075096 C10.4065709,0.509026033 12.2404538,0 12.2404538,0 C12.2404538,0 16.986418,6.3958816e-08 17.632617,0 C18.2788159,-6.48236808e-08 18.535979,1.04986625 18.5359797,1.74977699 C18.5359803,2.44968773 18.5359797,10.3077772 18.5359797,10.3077772 L20.0140346,10.3077772 C20.0140346,10.3077772 21.3297427,8.19306598 22.3678669,6.04468412 C23.4059912,3.89630234 24.6670634,1.01805207 24.6670634,1.01805207 L30.935111,1.01805207 C30.935111,1.01805207 32.0847093,1.04961765 31.9478523,2.00416573 C31.7616698,3.30274945 27.5915791,9.46950121 26.7199174,11.580218 C26.0630041,13.1709243 29.4795482,15.3239543 30.935111,17.6249021 C31.8797907,19.118248 31.9478523,20.8700673 31.9478523,20.8700673 L24.502942,20.8700673 L20.7803265,16.5432218 C20.7803265,16.5432218 20.0140346,16.2252048 19.4117571,16.6704783 C18.8094797,17.1157518 18.7822152,18.0066716 18.7822152,18.0066716 L18.7822152,20.8700673 L12.9521098,20.8700673 C12.9521098,20.8700673 8.49057378,19.3429892 4.7133224,12.6620226 C0.936070612,5.98105597 0.224414962,2.86314716 0.0054438677,1.52695383 L0.0054438677,1.52695383 Z" id="vkontakte" sketch:type="MSShapeGroup"/>
    </g>
</symbol><symbol id="icon-whatsup" viewBox="0 0 32 32">
    <!-- Generator: Sketch 3.3.3 (12072) - http://www.bohemiancoding.com/sketch -->
    <title>whatsup</title>
    <desc>Created with Sketch.</desc>
    
    <g id="Page-1" stroke="none" stroke-width="1" sketch:type="MSPage">
        <path d="M16.1717356,0.0001125236 C7.57912571,0.0001125236 0.613633177,6.96532685 0.613633177,15.5579368 C0.613633177,18.4970125 1.42934767,21.2458244 2.84603445,23.5908819 L0.0382519515,31.9377344 L8.65186327,29.1797431 C10.8806484,30.4124247 13.4439252,31.1149267 16.1717356,31.1149267 C24.7637893,31.1149267 31.7292818,24.1499905 31.7292818,15.5580759 C31.7294209,6.96532685 24.7639284,0.0001125236 16.1717356,0.0001125236 L16.1717356,0.0001125236 L16.1717356,0.0001125236 Z M16.1717356,28.6371852 C13.5147178,28.6371852 11.0408706,27.8402468 8.97536742,26.4740466 L3.94881369,28.0837789 L5.582468,23.2262095 C4.01668559,21.0698859 3.09151374,18.4202394 3.09151374,15.5575196 C3.09151374,8.34515699 8.95923393,2.47757585 16.1717356,2.47757585 C23.3838202,2.47757585 29.2516794,8.34515699 29.2516794,15.5575196 C29.2516794,22.7696041 23.3839592,28.6371852 16.1717356,28.6371852 L16.1717356,28.6371852 Z M12.5227867,9.122624 C12.2707706,8.51525396 12.0777251,8.49466985 11.6884353,8.47617198 C11.5549167,8.46977422 11.4101326,8.46365461 11.2517185,8.46365461 C10.7501897,8.46365461 10.230163,8.61135944 9.91681185,8.93194292 C9.5354497,9.32206721 8.58190515,10.2358344 8.58190515,12.1120473 C8.58190515,13.9885383 9.94852248,15.8017472 10.1389254,16.0562668 C10.3298846,16.3105082 12.8042882,20.2174538 16.6540712,21.8125825 C19.6589325,23.0572252 20.551142,22.946377 21.236676,22.7964469 C22.2341703,22.5786448 23.4867406,21.844015 23.8045424,20.9538917 C24.1223442,20.0632122 24.1223442,19.2997924 24.0270732,19.1412392 C23.9316632,18.9819906 23.6774217,18.8869978 23.2960596,18.6957603 C22.9146974,18.5050793 21.0394581,17.58255 20.6899456,17.4555683 C20.3402941,17.3284476 20.017068,17.3672514 19.748223,17.7390169 C19.3771529,18.2526459 19.0202691,18.7804612 18.7247204,19.0933951 C18.492732,19.3390135 18.1194366,19.3732276 17.7984359,19.2367884 C17.3763227,19.0569557 16.1881473,18.6429093 14.7312659,17.3441639 C13.5977496,16.3335958 12.8322436,15.085198 12.6097128,14.7032795 C12.387182,14.3219173 12.5901023,14.0942404 12.7615901,13.8867305 C12.957139,13.6498742 13.1375281,13.4797772 13.3282092,13.2573855 C13.5188902,13.0345765 13.6254269,12.9159398 13.7525476,12.661142 C13.8796683,12.4069006 13.794133,12.1444533 13.6987229,11.9534941 C13.6031738,11.7625348 12.8396149,9.88660011 12.5227867,9.122624 L12.5227867,9.122624 Z" id="whatsup" sketch:type="MSShapeGroup"/>
    </g>
</symbol><symbol id="icon-youtube" viewBox="0 0 32 31">
    <!-- Generator: Sketch 3.4.2 (15855) - http://www.bohemiancoding.com/sketch -->
    <title>1449088535_18-youtube</title>
    <desc>Created with Sketch.</desc>
    
    <g id="Page-1" stroke="none" stroke-width="1" sketch:type="MSPage">
        <g id="1449088535_18-youtube" sketch:type="MSLayerGroup">
            <g id="Group" sketch:type="MSShapeGroup">
                <path d="M26.18304,14.8544 L6.26048,14.8544 C3.09376,14.8544 0.52672,17.424 0.52672,20.59008 L0.52672,25.19872 C0.52672,28.3648 3.09376,30.93376 6.26048,30.93376 L26.18304,30.93376 C29.34912,30.93376 31.9168,28.3648 31.9168,25.19872 L31.9168,20.59008 C31.9168,17.424 29.34912,14.8544 26.18304,14.8544 L26.18304,14.8544 Z M10.44608,18.44224 L8.59392,18.44224 L8.59392,27.64544 L6.80448,27.64544 L6.80448,18.44224 L4.9536,18.44224 L4.9536,16.8768 L10.44608,16.8768 L10.44608,18.44224 L10.44608,18.44224 Z M15.67808,27.64544 L14.09088,27.64544 L14.09088,26.77504 C13.79584,27.09696 13.49184,27.34272 13.1744,27.50848 C12.85696,27.68128 12.5504,27.76192 12.25216,27.76192 C11.88352,27.76192 11.6096,27.6448 11.42208,27.40672 C11.23776,27.16928 11.14368,26.81728 11.14368,26.34176 L11.14368,19.70048 L12.73088,19.70048 L12.73088,25.7952 C12.73088,25.98336 12.76608,26.1184 12.82944,26.20224 C12.89792,26.28864 13.00672,26.32832 13.15584,26.32832 C13.27104,26.32832 13.41952,26.27328 13.59808,26.16192 C13.77792,26.04928 13.94176,25.90848 14.09088,25.7344 L14.09088,19.69984 L15.67808,19.69984 L15.67808,27.64544 L15.67808,27.64544 Z M21.44064,26.00512 C21.44064,26.5664 21.31584,26.99776 21.06688,27.29856 C20.8192,27.59936 20.45696,27.7472 19.98784,27.7472 C19.67552,27.7472 19.39776,27.69088 19.15648,27.5744 C18.91392,27.4592 18.68544,27.28192 18.47744,27.03616 L18.47744,27.6448 L16.87104,27.6448 L16.87104,16.8768 L18.47744,16.8768 L18.47744,20.34496 C18.69248,20.10496 18.91968,19.91872 19.15712,19.79392 C19.39968,19.66656 19.64352,19.60512 19.89056,19.60512 C20.39296,19.60512 20.77568,19.7728 21.04064,20.11136 C21.30688,20.44992 21.43936,20.94592 21.43936,21.59616 L21.43936,26.00512 L21.44064,26.00512 Z M26.94656,23.86432 L23.90912,23.86432 L23.90912,25.36128 C23.90912,25.77856 23.96032,26.06912 24.064,26.23104 C24.17024,26.3936 24.3488,26.47296 24.60288,26.47296 C24.86656,26.47296 25.04896,26.40448 25.1552,26.26752 C25.2576,26.12928 25.31264,25.82848 25.31264,25.36128 L25.31264,24.99968 L26.94656,24.99968 L26.94656,25.40736 C26.94656,26.22144 26.7488,26.8352 26.34752,27.24928 C25.95264,27.65952 25.35744,27.86304 24.5664,27.86304 C23.85408,27.86304 23.2928,27.64608 22.88512,27.2096 C22.47872,26.77568 22.27136,26.17344 22.27136,25.408 L22.27136,21.83936 C22.27136,21.15264 22.49792,20.58752 22.94784,20.15424 C23.39648,19.72096 23.9744,19.50464 24.68544,19.50464 C25.41312,19.50464 25.97184,19.70496 26.3616,20.10688 C26.75136,20.50944 26.94656,21.08544 26.94656,21.83872 L26.94656,23.86432 L26.94656,23.86432 Z" id="Shape"/>
                <path d="M24.61824,20.89344 C24.3648,20.89344 24.18432,20.96448 24.07424,21.11296 C23.9616,21.25248 23.90912,21.4912 23.90912,21.82464 L23.90912,22.62784 L25.31264,22.62784 L25.31264,21.82464 C25.31264,21.4912 25.25632,21.25184 25.14496,21.11296 C25.03808,20.96512 24.85952,20.89344 24.61824,20.89344 L24.61824,20.89344 Z" id="Shape"/>
                <path d="M19.14176,20.86656 C19.02912,20.86656 18.9152,20.89152 18.80576,20.94336 C18.6944,20.99392 18.5856,21.07776 18.47808,21.18656 L18.47808,26.13568 C18.60544,26.26368 18.73152,26.36224 18.8544,26.41856 C18.97664,26.47296 19.10336,26.50368 19.2384,26.50368 C19.4336,26.50368 19.57568,26.44736 19.6672,26.33344 C19.75744,26.2208 19.80352,26.04096 19.80352,25.78688 L19.80352,21.68384 C19.80352,21.41376 19.74976,21.21152 19.63712,21.07264 C19.52064,20.93568 19.35552,20.86656 19.14176,20.86656 L19.14176,20.86656 Z" id="Shape"/>
                <path d="M8.86912,12.09472 L10.88128,12.09472 L10.88128,7.17312 L13.22432,0.2304 L11.17888,0.2304 L9.93344,4.9728 L9.80672,4.9728 L8.4992,0.2304 L6.47232,0.2304 L8.86912,7.39456 L8.86912,12.09472 Z" id="Shape"/>
                <path d="M15.95072,12.31552 C16.76352,12.31552 17.40096,12.1024 17.8656,11.67616 C18.32704,11.248 18.55808,10.66368 18.55808,9.91488 L18.55808,5.39392 C18.55808,4.72768 18.32192,4.1792 17.85152,3.75616 C17.37792,3.3344 16.7712,3.12192 16.03136,3.12192 C15.21856,3.12192 14.57152,3.32288 14.09024,3.72416 C13.61024,4.12544 13.36896,4.66368 13.36896,5.344 L13.36896,9.88032 C13.36896,10.62464 13.60384,11.21344 14.07296,11.65504 C14.54208,12.09472 15.16928,12.31552 15.95072,12.31552 L15.95072,12.31552 Z M15.2096,5.27744 C15.2096,5.08736 15.27808,4.93376 15.41184,4.81344 C15.55072,4.69568 15.72672,4.63872 15.9456,4.63872 C16.18176,4.63872 16.37312,4.69568 16.51904,4.81344 C16.66432,4.93376 16.73664,5.08736 16.73664,5.27744 L16.73664,10.04608 C16.73664,10.27968 16.6656,10.46528 16.5216,10.59904 C16.37888,10.73344 16.18688,10.79936 15.9456,10.79936 C15.70944,10.79936 15.52704,10.73536 15.39904,10.60096 C15.27296,10.46976 15.20896,10.28544 15.20896,10.04544 L15.20896,5.27744 L15.2096,5.27744 Z" id="Shape"/>
                <path d="M21.25696,12.22272 C21.59296,12.22272 21.93792,12.12672 22.29312,11.9424 C22.65216,11.75552 22.99584,11.48224 23.32288,11.12576 L23.32288,12.09536 L25.1104,12.09536 L25.1104,3.34336 L23.32288,3.34336 L23.32288,9.98656 C23.15648,10.17664 22.97152,10.3328 22.77312,10.45696 C22.57088,10.57984 22.40448,10.64128 22.27328,10.64128 C22.1056,10.64128 21.98208,10.5952 21.90976,10.49984 C21.83616,10.40832 21.79456,10.25856 21.79456,10.05312 L21.79456,3.34336 L20.0096,3.34336 L20.0096,10.65792 C20.0096,11.17952 20.11456,11.56928 20.32192,11.82784 C20.53312,12.09024 20.8416,12.22272 21.25696,12.22272 L21.25696,12.22272 Z" id="Shape"/>
            </g>
        </g>
    </g>
</symbol><symbol id="plain-logo-small" viewBox="0 0 120 120"><path clip-rule="evenodd" d="M63.5209961 29.2573242C45.644043 26.9692383 29.2973633 39.605957 27.0092773 57.480957c-1.1953125 9.3164063 1.6748047 18.2119141 7.2177734 24.921875 2.2421875-2.1914063 6.1337891-5.9550781 6.8808594-6.3925781 1.0625-0.6210938 1.984375-1.3183594 1.984375-1.3183594s-0.4355469-2.5556641 0.2519531-5.5429688c0.6806641-2.9667969 1.3417969-3.8173828 1.4658203-4.7460938 0.171875-1.2822266 0.2685547-4.0019531-0.2460938-5.1845703 -0.6230469-1.4296875-0.796875-2.4804688 0.1748047-3.1875 0.9707031-0.7070313 2.7998047 0.4931641 3.6240234 2.3964844 0.8222656 1.9013672 0.734375 2.5810547 0.734375 2.5810547s0.8476563-3.3691406 1.8427734-5.2597656c0.9960938-1.8867188 2.2216797-4.6552734 2.6904297-5.8447266 0.4697266-1.1904297 0.984375-2.5283203 2.265625-2.453125 1.2822266 0.0722656 2.6035156 0.8125 1.5224609 3.3408203 -1.0830078 2.5302734-1.2470703 3.2373047-1.4257813 4.1240234 -0.1787109 0.8886719-0.8027344 4.3945313-0.9433594 4.6894531 -0.1445313 0.3017578 0.2021484 0.390625 0.3496094 0.2412109 0.1435547-0.1513672 1.96875-2.4492188 3.0761719-3.7480469 1.1044922-1.2998047 3.1914063-3.5615234 3.6240234-4.1123047 0.4335938-0.5498047 1.4345703-2.1416016 2.7138672-2.0673828 1.2822266 0.0712891 1.8925781 1.1923828 1.6679688 2.2304688 -0.2285156 1.0361328-1.0478516 1.9384766-1.5742188 2.5390625 -0.5302734 0.5996094-2.3535156 3.7412109-2.6884766 4.2402344 -0.3330078 0.4960938-2.1865234 3.2773438-2.1865234 3.2773438l0.2402344 0.4501953c0 0 2.1904297-1.3203125 3.0625-1.8798828 0.8769531-0.5585938 4.5878906-3.6210938 5.4628906-3.9521484 1.5117188-0.5712891 3.1796875 1.2783203 2.1650391 2.6152344 -0.9121094 1.1982422-2.1035156 2.125-2.5390625 2.5292969 -0.4345703 0.4013672-2.6328125 2.5585938-3.5566406 3.2148438 -0.9189453 0.6582031-2.0810547 2.3076172-1.8886719 2.6318359 0.1542969 0.2578125 1.7783203 0.3886719 2.7607422 0.0537109 1.3769531-0.4707031 4.9707031-1.4257813 5.6777344-1.2431641 0.9912109 0.2626953 1.6113281 1.8916016 0.6396484 2.6953125 -0.9658203 0.8056641-2.921875 1.4921875-3.4580078 1.75 -0.5332031 0.2568359-4.0820313 1.5634766-4.0820313 1.5634766s-2.703125 1.6132813-4.0693359 2.9111328c-0.4589844 0.8007813-2.4384766 3.7294922-3.8417969 4.6220703 -0.7822266 0.5-1.4814453 0.8564453-1.4814453 0.8564453s-1.3222656 3.0410156-1.9492188 3.7607422c-1.0986328 2.0839844-3.0712891 4.9335938-4.9853516 7.4902344 2.2324219 0.8125 4.5859375 1.4013672 7.0419922 1.7158203C73.1079102 96.2807617 89.456543 83.644043 91.7416992 65.7680664 94.0307617 47.8911133 81.3930664 31.5463867 63.5209961 29.2573242zM78.8422852 15.6147461c0 0-0.6621094 2.3964844-1.3251953 4.7919922 -0.7744141 2.4189453-1.5478516 4.8349609-1.5478516 4.8349609l-0.0048828 0.0166016c-0.5537109 1.7275391-2.4013672 2.6806641-4.1308594 2.1289063 -1.7255859-0.5527344-2.6787109-2.4023438-2.1259766-4.1298828 0.0771484-0.2431641 0.1904297-0.4824219 0.3125-0.6933594 0 0 1.2578125-2.0849609 2.5136719-4.1689453 1.1923828-2.1806641 2.3896484-4.3603516 2.3896484-4.3603516l0.0058594-0.0097656c0.5654297-1.0273438 1.8564453-1.40625 2.8867188-0.8408203C78.6977539 13.6674805 79.1000977 14.6870117 78.8422852 15.6147461zM41.847168 107.5864258c0 0 0.5380859-2.3876953 1.0791016-4.7763672 0.6728516-2.4638672 1.3466797-4.9248047 1.3466797-4.9248047 0.4824219-1.7597656 2.296875-2.7910156 4.0527344-2.3105469 1.7548828 0.4814453 2.7880859 2.2939453 2.3076172 4.0498047 -0.0693359 0.2490234-0.1630859 0.484375-0.2822266 0.703125l-0.1289063 0.2304688c0 0-1.125 2.0439453-2.2470703 4.0888672 -1.0771484 2.1875-2.15625 4.3779297-2.15625 4.3779297 -0.5185547 1.0527344-1.7910156 1.4863281-2.8457031 0.9658203 -0.8964844-0.4433594-1.3457031-1.4355469-1.1347656-2.3740234L41.847168 107.5864258zM105.2026367 81.1303711c0 0-0.5917969-0.1503906-1.4785156-0.3740234 -0.2226563-0.0546875-0.4619141-0.1152344-0.7158203-0.1796875 -0.2519531-0.0556641-0.5488281-0.1689453-0.8359375-0.2558594 -0.5878906-0.1923828-1.2119141-0.3955078-1.8378906-0.6015625 -0.5771484-0.1923828-1.1523438-0.3886719-1.6943359-0.5703125 -0.5458984-0.1914063-1.0224609-0.3251953-1.4443359-0.4570313 -0.8339844-0.2558594-1.390625-0.4248047-1.390625-0.4248047l-0.1005859-0.0302734c-1.7050781-0.5224609-2.6640625-2.3291016-2.1396484-4.0361328 0.5205078-1.7050781 2.3271484-2.6640625 4.0351563-2.1425781 0.2373047 0.0722656 0.4726563 0.1796875 0.6806641 0.2998047 0 0 0.5527344 0.3232422 1.3828125 0.8066406 0.4072266 0.2421875 0.9101563 0.5224609 1.3847656 0.8271484 0.4882813 0.3046875 1.0087891 0.6279297 1.53125 0.9521484 0.4814453 0.2949219 0.9580078 0.5878906 1.4091797 0.8642578 0.234375 0.1367188 0.4257813 0.2773438 0.6679688 0.3974609 0.2324219 0.1191406 0.4550781 0.2333984 0.6572266 0.3378906 0.8144531 0.4238281 1.3554688 0.7060547 1.3554688 0.7060547h0.0048828c1.0234375 0.53125 1.4238281 1.7939453 0.8935547 2.8154297C107.112793 80.9448242 106.1206055 81.3608398 105.2026367 81.1303711zM14.5678711 43.0698242c0 0 0.5458984 0.1142578 1.3613281 0.2832031 0.4052734 0.0800781 0.8867188 0.1904297 1.3876953 0.2744141 0.5048828 0.0957031 1.0410156 0.1923828 1.578125 0.2949219 0.5771484 0.1259766 1.1542969 0.2539063 1.6943359 0.3710938 0.5429688 0.1181641 1.0341797 0.2783203 1.4667969 0.3925781 0.8642578 0.2441406 1.4365234 0.40625 1.4365234 0.40625 1.7529297 0.4951172 2.7705078 2.3154297 2.2753906 4.0673828 -0.4951172 1.7509766-2.3164063 2.7705078-4.0654297 2.2753906 -0.2773438-0.078125-0.5322266-0.1884766-0.7685547-0.3251953l-0.1152344-0.0703125c0 0-0.4414063-0.2597656-1.1054688-0.6523438 -0.3349609-0.1923828-0.7158203-0.4453125-1.1523438-0.6650391 -0.4306641-0.2226563-0.8935547-0.4619141-1.3574219-0.7011719 -0.5087891-0.2412109-1.0195313-0.4824219-1.4960938-0.7099609 -0.4853516-0.2216797-0.9111328-0.4453125-1.2861328-0.6298828 -0.7441406-0.3730469-1.2421875-0.6191406-1.2421875-0.6191406 -1.0527344-0.5283203-1.4765625-1.8066406-0.953125-2.8583984 0.4404297-0.8837891 1.4140625-1.3251953 2.3369141-1.1347656L14.5678711 43.0698242zM99.3139648 32.612793c0 0-0.4169922 0.4052734-1.0429688 1.0117188 -0.625 0.609375-1.4511719 1.421875-2.2949219 2.2275391 -1.7832031 1.5849609-3.5625 3.1699219-3.5625 3.1699219 -1.3564453 1.2060547-3.4365234 1.0849609-4.6445313-0.2705078 -1.2050781-1.3583984-1.0820313-3.4345703 0.2734375-4.6445313 0.203125-0.1796875 0.4238281-0.3310547 0.65625-0.453125l0.03125-0.0146484c0 0 2.0078125-1.0410156 4.0185547-2.0839844 1.0068359-0.5703125 2.0107422-1.1582031 2.7646484-1.5898438 0.7578125-0.4355469 1.2578125-0.7236328 1.2578125-0.7236328 1.0185547-0.5917969 2.3222656-0.2412109 2.9091797 0.7773438 0.4951172 0.8613281 0.3232422 1.9267578-0.359375 2.5888672L99.3139648 32.612793zM18.8481445 89.2875977c0 0 0.4101563-0.4443359 1.0234375-1.1074219 0.1523438-0.1660156 0.3193359-0.3447266 0.4970703-0.5351563 0.1835938-0.1904297 0.3398438-0.390625 0.5175781-0.5996094 0.3496094-0.4140625 0.7246094-0.8564453 1.0976563-1.2978516 0.4326172-0.4755859 0.8652344-0.9511719 1.2685547-1.3974609 0.3886719-0.4560547 0.8505859-0.8339844 1.203125-1.1806641 0.7333984-0.6884766 1.2226563-1.1435547 1.2226563-1.1435547 1.3291016-1.2402344 3.4150391-1.1679688 4.65625 0.1591797 1.2431641 1.3310547 1.1708984 3.4179688-0.1591797 4.6582031 -0.1923828 0.1757813-0.3984375 0.328125-0.6132813 0.4521484l-0.1992188 0.1123047c0 0-0.4648438 0.2636719-1.1679688 0.6591797 -0.3486328 0.2119141-0.7773438 0.3994141-1.2060547 0.7138672 -0.4394531 0.2958984-0.90625 0.6123047-1.3740234 0.9277344 -0.5058594 0.3671875-1.015625 0.7363281-1.4882813 1.0820313 -0.2382813 0.1679688-0.4707031 0.3505859-0.6865234 0.4873047 -0.2138672 0.140625-0.4179688 0.2763672-0.6054688 0.4023438 -0.7558594 0.4970703-1.2578125 0.8320313-1.2578125 0.8320313 -0.9794922 0.6474609-2.2988281 0.3818359-2.9492188-0.5966797 -0.5517578-0.8339844-0.4375-1.9169922 0.2119141-2.6220703L18.8481445 89.2875977zM89.7680664 99.9155273c0 0-1.7207031-1.7285156-3.4433594-3.4560547 -1.7060547-1.8642578-3.4072266-3.7265625-3.4072266-3.7265625 -1.2294922-1.3408203-1.1357422-3.4248047 0.2060547-4.6513672 1.3417969-1.2275391 3.4238281-1.1337891 4.6474609 0.2070313 0.1787109 0.1904297 0.3271484 0.3994141 0.4492188 0.6171875l0.0761719 0.1367188c0 0 1.1337891 2.0605469 2.2714844 4.1171875 1.2675781 2.0820313 2.5351563 4.1591797 2.5351563 4.1591797 0.6113281 1.0039063 0.2919922 2.3105469-0.7099609 2.9238281 -0.8544922 0.5195313-1.9345703 0.3662109-2.6103516-0.3144531L89.7680664 99.9155273zM29.7700195 21.4086914c0 0 0.4599609 0.4335938 1.1494141 1.0869141 0.3466797 0.3251953 0.7480469 0.7148438 1.1806641 1.0839844 0.4296875 0.3818359 0.8935547 0.7900391 1.3535156 1.2011719 0.4863281 0.4521484 0.9726563 0.9091797 1.4287109 1.3359375 0.4628906 0.4111328 0.8583984 0.8857422 1.2138672 1.2558594 0.7070313 0.765625 1.1787109 1.2763672 1.1787109 1.2763672 1.2304688 1.3378906 1.1445313 3.4189453-0.1933594 4.6513672 -1.3359375 1.2324219-3.4179688 1.1494141-4.6523438-0.1884766 -0.1650391-0.1845703-0.3085938-0.3779297-0.4296875-0.5859375l-0.1064453-0.1914063c0 0-0.2851563-0.4951172-0.7089844-1.2392578 -0.2216797-0.3720703-0.4345703-0.8203125-0.7666016-1.28125 -0.3125-0.46875-0.6474609-0.9667969-0.9804688-1.4667969 -0.3759766-0.5302734-0.7529297-1.0595703-1.1044922-1.5566406 -0.3662109-0.4970703-0.6660156-0.9570313-0.9267578-1.3544922 -0.5244141-0.7890625-0.875-1.3173828-0.875-1.3173828 -0.6494141-0.9765625-0.3828125-2.296875 0.59375-2.9453125 0.8398438-0.5585938 1.9345703-0.4404297 2.6357422 0.2236328L29.7700195 21.4086914zM108.652832 55.5727539c0 0-0.5820313 0.1533203-1.4560547 0.3808594 -0.2207031 0.0585938-0.4580078 0.1181641-0.7070313 0.1845703 -0.2421875 0.0693359-0.5458984 0.1162109-0.8378906 0.1806641 -0.6005859 0.1162109-1.234375 0.2392578-1.8691406 0.3623047 -0.5947266 0.1054688-1.1865234 0.2158203-1.7421875 0.3173828 -0.5654297 0.0966797-1.0400391 0.2109375-1.4765625 0.2958984 -0.8486328 0.1757813-1.4160156 0.2900391-1.4160156 0.2900391l-0.0839844 0.0185547c-1.7802734 0.3671875-3.5195313-0.7763672-3.8867188-2.5546875 -0.3632813-1.7802734 0.7744141-3.5185547 2.5576172-3.8867188 0.2558594-0.0537109 0.5273438-0.0742188 0.7792969-0.0664063 0 0 0.6259766 0.0195313 1.5664063 0.0527344 0.4619141 0.0224609 1.0273438 0.0283203 1.5859375 0.0673828 0.5625 0.03125 1.1669922 0.0673828 1.7685547 0.1025391 0.5576172 0.0273438 1.1142578 0.0527344 1.6367188 0.0810547 0.265625 0.0107422 0.5048828 0.0361328 0.7734375 0.0244141 0.2587891-0.0039063 0.5039063-0.0087891 0.7304688-0.0126953 0.9052734-0.0126953 1.5078125-0.0244141 1.5078125-0.0244141 1.1738281-0.0175781 2.1416016 0.9169922 2.1611328 2.0917969C110.2612305 54.4799805 109.5805664 55.3325195 108.652832 55.5727539zM11.2202148 67.2143555c0 0 0.5126953-0.171875 1.28125-0.4267578 0.3818359-0.1289063 0.84375-0.2705078 1.3027344-0.4414063 0.2314453-0.0869141 0.4736328-0.1738281 0.7158203-0.2617188 0.2460938-0.0878906 0.4980469-0.1777344 0.7490234-0.2666016 0.5488281-0.1767578 1.0996094-0.3515625 1.6132813-0.5166016 0.5195313-0.1640625 1.0126953-0.265625 1.4345703-0.3808594 0.8476563-0.2148438 1.4121094-0.3583984 1.4121094-0.3583984 1.7636719-0.4492188 3.5585938 0.6210938 4.0048828 2.3857422 0.4462891 1.7666016-0.6230469 3.5585938-2.3876953 4.0058594 -0.2861328 0.0732422-0.5712891 0.1074219-0.8535156 0.1015625l-0.1298828-0.0019531c0 0-0.4980469-0.0107422-1.2451172-0.0224609 -0.3740234 0-0.8193359-0.0302734-1.2871094-0.0117188 -0.4697266 0.0205078-0.9726563 0.0419922-1.4765625 0.0605469 -0.5478516 0.0429688-1.0966797 0.0849609-1.6103516 0.1269531 -0.5234375 0.046875-0.984375 0.0605469-1.3925781 0.0859375 -0.8085938 0.0449219-1.3466797 0.0712891-1.3466797 0.0712891 -1.1748047 0.0654297-2.1787109-0.8359375-2.2460938-2.0117188C9.706543 68.371582 10.331543 67.5083008 11.2202148 67.2143555zM67.2983398 109.0776367c0 0-0.1591797-0.5576172-0.3984375-1.3935547 -0.2363281-0.8369141-0.5585938-1.9462891-0.8701172-3.0673828 -0.5517578-2.3242188-1.1025391-4.6484375-1.1025391-4.6484375 -0.4169922-1.7675781 0.6787109-3.5400391 2.4443359-3.9589844 1.7685547-0.4199219 3.5439453 0.6728516 3.9609375 2.4423828 0.0644531 0.2666016 0.0917969 0.5341797 0.0908203 0.796875l-0.0019531 0.0849609c0 0-0.0390625 2.2421875-0.0800781 4.4853516 0.0273438 1.1523438 0.0673828 2.3144531 0.0917969 3.1796875 0.0253906 0.8701172 0.0429688 1.4453125 0.0429688 1.4453125 0.0332031 1.1757813-0.8916016 2.15625-2.0654297 2.1875 -0.9941406 0.0332031-1.8476563-0.625-2.109375-1.5380859L67.2983398 109.0776367zM52.5737305 12.7905273c0 0 0.1972656 0.5478516 0.4892578 1.3710938 0.0732422 0.2050781 0.1533203 0.4277344 0.2382813 0.6630859 0.0771484 0.2470703 0.1855469 0.4541016 0.2861328 0.6875 0.1044922 0.2275391 0.2128906 0.4638672 0.3183594 0.7021484 0.1103516 0.2490234 0.2138672 0.4648438 0.3291016 0.7402344 0.2314453 0.5917969 0.4638672 1.1816406 0.6816406 1.7353516 0.1181641 0.2734375 0.2070313 0.5566406 0.2763672 0.8339844 0.0742188 0.2744141 0.1474609 0.5351563 0.2109375 0.7744141 0.2626953 0.9716797 0.4335938 1.6181641 0.4335938 1.6181641 0.4716797 1.7626953-0.5751953 3.5703125-2.3339844 4.0390625 -1.7607422 0.4707031-3.5703125-0.5742188-4.0400391-2.3349609 -0.0712891-0.2607422-0.1083984-0.5234375-0.1123047-0.7832031l-0.0058594-0.2861328c0 0-0.0058594-0.4931641-0.0175781-1.2324219 0-0.1865234-0.0029297-0.3916016-0.0058594-0.6064453 0.0058594-0.2148438-0.0019531-0.4453125-0.0449219-0.6914063 -0.0634766-0.4951172-0.1298828-1.0175781-0.1962891-1.5410156 -0.1035156-0.6181641-0.2089844-1.2373047-0.3085938-1.8144531 -0.046875-0.2890625-0.1064453-0.5761719-0.1181641-0.8183594 -0.0244141-0.2490234-0.0488281-0.484375-0.0683594-0.7011719 -0.0830078-0.8691406-0.1367188-1.4482422-0.1367188-1.4482422 -0.1113281-1.1708984 0.7460938-2.2089844 1.9169922-2.3203125 0.9902344-0.0957031 1.8867188 0.5048828 2.2060547 1.4023438L52.5737305 12.7905273z"/></symbol></svg>