<?xml version="1.0" encoding="UTF-8" standalone="no"?>
<svg width="48px" height="48px" viewBox="0 0 48 48" version="1.1" xmlns="http://www.w3.org/2000/svg" xmlns:xlink="http://www.w3.org/1999/xlink">
    <!-- Generator: Sketch 42 (36781) - http://www.bohemiancoding.com/sketch -->
    <title>Combined Shape</title>
    <desc>Created with Sketch.</desc>
    <defs></defs>
    <g id="Page-1" stroke="none" stroke-width="1" fill="none" fill-rule="evenodd">
        <path d="M48,42.331 C48,45.462 45.462,48 42.33,48 L5.67,48 C2.538,48 -5.68434189e-14,45.462 -5.68434189e-14,42.331 L-5.68434189e-14,5.669 C-5.68434189e-14,2.538 2.538,0 5.67,0 L42.33,0 C45.462,0 48,2.538 48,5.669 L48,42.331 L48,42.331 Z M39.924,11.396 L27.992,11.396 C26.565,11.396 25.281,12.311 24.797,13.672 C24.744,13.821 24.672,13.958 24.582,14.084 L24.582,37.897 C25.598,37.303 26.768,36.969 27.992,36.969 L40.207,36.969 L40.211,11.4 L39.924,11.396 Z M29.143,32.732 C28.291,32.732 27.596,32.036 27.596,31.186 C27.596,30.334 28.291,29.638 29.143,29.638 C29.994,29.638 30.69,30.334 30.69,31.186 C30.689,32.036 29.993,32.732 29.143,32.732 Z M34.9,32.732 C34.05,32.732 33.355,32.036 33.355,31.186 C33.355,30.334 34.05,29.638 34.9,29.638 C35.751,29.638 36.448,30.334 36.448,31.186 C36.448,32.036 35.751,32.732 34.9,32.732 Z M35.392,26.547 L29.143,26.547 C28.288,26.547 27.596,25.854 27.596,25 C27.596,24.146 28.287,23.453 29.143,23.453 L35.392,23.453 C36.246,23.453 36.938,24.145 36.938,25 C36.938,25.854 36.246,26.547 35.392,26.547 Z M35.392,20.36 L29.143,20.36 C28.288,20.36 27.596,19.668 27.596,18.814 C27.596,17.96 28.287,17.266 29.143,17.266 L35.392,17.266 C36.246,17.266 36.938,17.96 36.938,18.814 C36.938,19.668 36.246,20.36 35.392,20.36 Z M19.468,11.396 L6.391,11.396 L6.387,36.966 L19.468,36.969 C20.692,36.969 21.862,37.304 22.877,37.897 L22.877,14.082 C22.791,13.958 22.717,13.821 22.664,13.673 C22.179,12.312 20.895,11.396 19.468,11.396 Z M18.317,32.732 L11.207,32.732 C10.353,32.732 9.661,32.041 9.661,31.186 C9.661,30.331 10.353,29.638 11.207,29.638 L18.317,29.638 C19.171,29.638 19.863,30.33 19.863,31.186 C19.863,32.041 19.171,32.732 18.317,32.732 Z M18.317,26.547 L11.207,26.547 C10.353,26.547 9.661,25.854 9.661,25 C9.661,24.146 10.353,23.453 11.207,23.453 L18.317,23.453 C19.171,23.453 19.863,24.145 19.863,25 C19.863,25.854 19.171,26.547 18.317,26.547 Z M18.317,20.36 L11.207,20.36 C10.353,20.36 9.661,19.668 9.661,18.814 C9.661,17.96 10.353,17.266 11.207,17.266 L18.317,17.266 C19.171,17.266 19.863,17.96 19.863,18.814 C19.863,19.668 19.171,20.36 18.317,20.36 Z" id="Combined-Shape" fill="#444642" fill-rule="nonzero"></path>
    </g>
</svg>