<?xml version="1.0" encoding="UTF-8" standalone="no"?>
<svg width="48px" height="48px" viewBox="0 0 48 48" version="1.1" xmlns="http://www.w3.org/2000/svg" xmlns:xlink="http://www.w3.org/1999/xlink">
    <!-- Generator: Sketch 42 (36781) - http://www.bohemiancoding.com/sketch -->
    <title>Shape</title>
    <desc>Created with Sketch.</desc>
    <defs></defs>
    <g id="Page-1" stroke="none" stroke-width="1" fill="none" fill-rule="evenodd">
        <path d="M48,5.669 C48,2.538 45.462,0 42.33,0 L5.67,0 C2.538,0 0,2.538 0,5.669 L0,42.331 C0,45.462 2.538,48 5.67,48 L42.33,48 C45.462,48 48,45.462 48,42.331 L48,5.669 L48,5.669 Z M29.254,42.385 C29.202,42.72 28.914,43 28.574,43 L18.609,43 C18.271,43 17.982,42.72 17.93,42.385 L16.332,32 L30.853,32 L29.254,42.385 Z M34,29.922 C34,30.302 32.837,30 32.457,30 L15.022,30 C14.642,30 15,30.302 15,29.922 L15,28.099 C15,27.72 14.643,27 15.022,27 L23,27 L23,16 L19.906,16 C18.234,16 18,14.363 18,12.69 L18,8 L20,8 L20,4.294 C20,3.814 20.52,3.424 21,3.424 C21.48,3.424 22,3.814 22,4.294 L22,8 L26,8 L26,4.294 C26,3.814 26.52,3.424 27,3.424 C27.48,3.424 28,3.814 28,4.294 L28,8 L30,8 L30,12.69 C30,14.362 29.062,16 27.391,16 L25,16 L25,22.421 C26,21.683 26.512,20.827 28.01,20.235 C30.02,19.441 31.878,19.415 32.289,20.155 L32.287,20.151 C32.293,20.165 32.288,20.178 32.292,20.192 C32.298,20.204 32.304,20.215 32.31,20.229 L32.3,20.233 C32.504,21.053 31.159,22.321 29.15,23.116 C27.279,23.855 26.001,23.929 25.001,23.338 L25.001,27 L32.46,27 C32.839,27 34.001,27.72 34.001,28.099 L34.001,29.922 L34,29.922 Z" id="Shape" fill="#83E91C" fill-rule="nonzero"></path>
    </g>
</svg>