<?xml version="1.0" encoding="UTF-8" standalone="no"?>
<svg width="48px" height="48px" viewBox="0 0 48 48" version="1.1" xmlns="http://www.w3.org/2000/svg" xmlns:xlink="http://www.w3.org/1999/xlink">
    <!-- Generator: Sketch 42 (36781) - http://www.bohemiancoding.com/sketch -->
    <title>Combined Shape</title>
    <desc>Created with Sketch.</desc>
    <defs></defs>
    <g id="Page-1" stroke="none" stroke-width="1" fill="none" fill-rule="evenodd">
        <path d="M42.33,-1.42108547e-14 C45.462,-1.42108547e-14 48,2.538 48,5.669 L48,42.331 C48,45.462 45.462,48 42.33,48 L5.67,48 C2.538,48 0,45.462 0,42.331 L0,5.669 C0,2.538 2.538,-1.42108547e-14 5.67,-1.42108547e-14 L42.33,-1.42108547e-14 Z M37.088,21.861 L37.758,22.297 L37.809,23.183 L37.404,23.74 L36.813,23.75 L36.158,23.381 L35.752,22.301 L36.071,21.313 L36.895,19.732 L37.072,19.781 L37.088,21.861 Z M41.391,24.295 L41.723,23.241 L41.631,21.816 C41.631,21.817 41.213,20.874 40.83,20.396 C40.106,19.491 39.432,18.664 39.432,18.664 L38.916,18.428 L36.799,18.296 L36.314,18.171 L36.044,17.752 C36.044,17.752 35.756,16.899 35.581,16.484 C34.171,13.101 31.538,11.461 27.878,11.671 C25.21,11.823 22.78,12.759 20.421,13.927 C20.125,14.073 19.712,14.25 19.433,14.407 C19.433,14.407 20.078,15.155 20.133,15.231 L12.972,18.031 L9.065,20.716 L7.565,23.974 L7.214,26.919 L7.31,28.442 L8.236,28.344 L8.587,27.547 L8.519,25.332 L8.309,23.958 L8.932,22.281 L9.064,22.449 L9.048,23.832 L10.229,26.035 L11.627,28.37 L9.549,30.417 L7.713,35.999 L9.571,35.999 L10.671,32.419 C10.671,32.419 11.902,31.398 11.916,31.39 C11.904,31.447 11.95,32.737 11.95,32.737 L14.476,36.309 L16.517,36.32 L13.857,32.518 L17.642,27.087 L22.876,27.096 L25.297,28.723 L25.434,33.364 L27.853,35.217 L27.959,36 L29.188,36 L29.168,33.673 L30.6,35.388 L30.737,36.342 L32.046,36.348 C32.046,36.348 32.038,35.864 32.043,35.608 C32.071,33.651 32.047,31.694 32.047,29.738 C32.047,29.57 32.061,29.297 32.061,29.297 L32.304,28.752 C32.304,28.752 33.001,28.469 33.001,28.336 L33.001,32.148 C34.001,31.92 35.463,30.345 35.463,30.345 L36.694,29.744 L38.161,29.407 L39.016,29.351 L39.635,28.885 L40.008,28.101 L41.391,24.295 Z" id="Combined-Shape" fill="#88EF21" fill-rule="nonzero"></path>
    </g>
</svg>