<?xml version="1.0" encoding="UTF-8" standalone="no"?>
<svg width="89px" height="90px" viewBox="0 0 89 90" version="1.1" xmlns="http://www.w3.org/2000/svg" xmlns:xlink="http://www.w3.org/1999/xlink">
    <!-- Generator: Sketch 3.8.3 (29802) - http://www.bohemiancoding.com/sketch -->
    <title>Combined Shape</title>
    <desc>Created with Sketch.</desc>
    <defs></defs>
    <g id="Page-1" stroke="none" stroke-width="1" fill="none" fill-rule="evenodd">
        <path d="M44.944,20.988 C49.976,20.988 54.653,22.545 58.516,25.202 L72.805,10.913 C64.963,4.479 55.223,0.98 44.944,0.98 C34.384,0.98 24.395,4.675 16.445,11.45 L30.687,25.691 C34.677,22.737 39.61,20.988 44.944,20.988 Z M20.932,45.001 C20.932,39.434 22.836,34.305 26.027,30.228 L11.815,16.016 C4.772,24.042 0.924,34.225 0.924,45.001 C0.924,56.139 5.035,66.642 12.534,74.786 L26.712,60.607 C23.111,56.407 20.932,50.955 20.932,45.001 Z M44.944,69.013 C40,69.013 35.401,67.51 31.577,64.94 L17.275,79.24 C25.084,85.576 34.749,89.02 44.944,89.02 C54.856,89.02 64.269,85.765 71.961,79.763 L57.598,65.4 C53.922,67.688 49.585,69.013 44.944,69.013 Z M77.521,15.394 L63.336,29.58 C66.842,33.755 68.957,39.135 68.957,45.001 C68.957,51.253 66.555,56.953 62.625,61.231 L76.787,75.393 C84.647,67.168 88.965,56.415 88.965,45 C88.965,33.945 84.916,23.513 77.521,15.394 Z" id="Combined-Shape" fill="#000000"></path>
    </g>
</svg>