<?xml version="1.0" encoding="UTF-8" standalone="no"?>
<svg width="48px" height="48px" viewBox="0 0 48 48" version="1.1" xmlns="http://www.w3.org/2000/svg" xmlns:xlink="http://www.w3.org/1999/xlink">
    <!-- Generator: Sketch 42 (36781) - http://www.bohemiancoding.com/sketch -->
    <title>Combined Shape</title>
    <desc>Created with Sketch.</desc>
    <defs></defs>
    <g id="Page-1" stroke="none" stroke-width="1" fill="none" fill-rule="evenodd">
        <path d="M42.33,-1.42108547e-14 C45.462,-1.42108547e-14 48,2.538 48,5.669 L48,42.331 C48,45.462 45.462,48 42.33,48 L5.67,48 C2.538,48 0,45.462 0,42.331 L0,5.669 C0,2.538 2.538,-1.42108547e-14 5.67,-1.42108547e-14 L42.33,-1.42108547e-14 Z M11.519,34.64 L13.118,34.64 L13.118,36.238 L11.519,36.238 L11.519,34.64 Z M8.323,25.054 L9.921,25.054 L9.921,26.652 L8.323,26.652 L8.323,25.054 Z M11.519,25.054 L13.118,25.054 L13.118,26.652 L11.519,26.652 L11.519,25.054 Z M11.519,28.249 L13.118,28.249 L13.118,29.847 L11.519,29.847 L11.519,28.249 Z M11.519,31.444 L13.118,31.444 L13.118,33.043 L11.519,33.043 L11.519,31.444 Z M8.323,34.64 L9.921,34.64 L9.921,36.238 L8.323,36.238 L8.323,34.64 Z M8.323,28.249 L9.921,28.249 L9.921,29.847 L8.323,29.847 L8.323,28.249 Z M8.323,31.444 L9.921,31.444 L9.921,33.043 L8.323,33.043 L8.323,31.444 Z M15,39 L15,22 L7,22 L7,39 L15,39 Z M14.379,14.649 L15.977,14.649 L15.977,16.248 L14.379,16.248 L14.379,14.649 Z M17.574,14.649 L19.172,14.649 L19.172,16.248 L17.574,16.248 L17.574,14.649 Z M14.379,17.846 L15.977,17.846 L15.977,19.444 L14.379,19.444 L14.379,17.846 Z M13,20 L16,20 L16,24.685 L17.749,23 L18,23 L18,21 L18,19.639 L18.444,19 L18,19 L18,18 L19.24,18 L19.25,18 L20.701,15.177 L21,14.662 L21,11.316 L13,13.242 L13,20 Z M21.604,20.32 L23.202,20.32 L23.202,21.919 L21.604,21.919 L21.604,20.32 Z M20.006,28.31 L21.604,28.31 L21.604,29.909 L20.006,29.909 L20.006,28.31 Z M20.006,31.506 L21.604,31.506 L21.604,33.104 L20.006,33.104 L20.006,31.506 Z M20.006,34.701 L21.604,34.701 L21.604,36.3 L20.006,36.3 L20.006,34.701 Z M24.799,20.32 L26.398,20.32 L26.398,21.919 L24.799,21.919 L24.799,20.32 Z M24.799,23.517 L26.398,23.517 L26.398,25.115 L24.799,25.115 L24.799,23.517 Z M21.604,23.517 L23.202,23.517 L23.202,25.115 L21.604,25.115 L21.604,23.517 Z M23.201,28.31 L24.799,28.31 L24.799,29.909 L23.201,29.909 L23.201,28.31 Z M23.201,34.701 L24.799,34.701 L24.799,36.3 L23.201,36.3 L23.201,34.701 Z M23.201,31.506 L24.799,31.506 L24.799,33.104 L23.201,33.104 L23.201,31.506 Z M26.397,34.701 L27.994,34.701 L27.994,36.3 L26.397,36.3 L26.397,34.701 Z M26.397,31.506 L27.994,31.506 L27.994,33.104 L26.397,33.104 L26.397,31.506 Z M31,39 L31,26.711 L29.592,25 L28,25 L28,20.321 L26.397,17 L25,17 L25,15 L23,15 L23,17 L21.601,17 L20,20.321 L20,25 L18.407,25 L17,26.711 L17,39 L31,39 Z M37.921,25.064 L39.52,25.064 L39.52,26.662 L37.921,26.662 L37.921,25.064 Z M37.921,28.26 L39.52,28.26 L39.52,29.857 L37.921,29.857 L37.921,28.26 Z M34.725,12.152 L36.324,12.152 L36.324,13.75 L34.725,13.75 L34.725,12.152 Z M37.921,21.738 L39.52,21.738 L39.52,23.336 L37.921,23.336 L37.921,21.738 Z M37.921,34.65 L39.52,34.65 L39.52,36.248 L37.921,36.248 L37.921,34.65 Z M37.921,12.152 L39.52,12.152 L39.52,13.75 L37.921,13.75 L37.921,12.152 Z M41,23.601 L41,8.957 L39,8.428 L39,7 L35.753,7 L33,6.506 L33,23.601 L33,24.08 L33,39 L41,39 L41,24.08 L41,23.601 Z M37.921,15.348 L39.52,15.348 L39.52,16.946 L37.921,16.946 L37.921,15.348 Z M37.921,18.543 L39.52,18.543 L39.52,20.141 L37.921,20.141 L37.921,18.543 Z M37.921,31.455 L39.52,31.455 L39.52,33.054 L37.921,33.054 L37.921,31.455 Z M34.725,31.455 L36.324,31.455 L36.324,33.054 L34.725,33.054 L34.725,31.455 Z M34.725,25.064 L36.324,25.064 L36.324,26.662 L34.725,26.662 L34.725,25.064 Z M34.725,34.65 L36.324,34.65 L36.324,36.248 L34.725,36.248 L34.725,34.65 Z M26.397,28.31 L27.994,28.31 L27.994,29.909 L26.397,29.909 L26.397,28.31 Z M34.725,28.26 L36.324,28.26 L36.324,29.857 L34.725,29.857 L34.725,28.26 Z M34.725,18.543 L36.324,18.543 L36.324,20.141 L34.725,20.141 L34.725,18.543 Z M34.725,21.738 L36.324,21.738 L36.324,23.336 L34.725,23.336 L34.725,21.738 Z M34.725,15.348 L36.324,15.348 L36.324,16.946 L34.725,16.946 L34.725,15.348 Z" id="Combined-Shape" fill="#74E107" fill-rule="nonzero"></path>
    </g>
</svg>