<?xml version="1.0" encoding="UTF-8" standalone="no"?>
<svg width="48px" height="48px" viewBox="0 0 48 48" version="1.1" xmlns="http://www.w3.org/2000/svg" xmlns:xlink="http://www.w3.org/1999/xlink">
    <!-- Generator: Sketch 42 (36781) - http://www.bohemiancoding.com/sketch -->
    <title>Combined Shape</title>
    <desc>Created with Sketch.</desc>
    <defs></defs>
    <g id="Page-1" stroke="none" stroke-width="1" fill="none" fill-rule="evenodd">
        <path d="M0,5.0010033 C0,2.23902544 2.23479023,0 5.0010033,0 L42.9989967,0 C45.7609746,0 48,2.23479023 48,5.0010033 L48,42.9989967 C48,45.7609746 45.7652098,48 42.9989967,48 L5.0010033,48 C2.23902544,48 0,45.7652098 0,42.9989967 L0,5.0010033 Z M19.1505455,10.2763636 C19.152,10.0887273 19.1330909,9.89963636 19.0749091,9.71054545 C18.7650909,8.71709091 17.7090909,8.16290909 16.7156364,8.47272727 C15.7221818,8.78254545 15.168,9.83854545 15.4778182,10.832 C15.5505455,11.0705455 15.6712727,11.2829091 15.8196364,11.4647273 C16.4174545,10.9149091 17.5345455,10.1803636 19.1505455,10.2763636 Z M36.8741818,31.4094545 L36.0072727,28.6327273 C36.0072727,28.6327273 31.8414545,29.9316364 27.5156364,16.0436364 C27.4516364,15.84 27.3483636,15.6654545 27.2276364,15.504 C25.6043636,12.1672727 21.7672727,10.4072727 18.1149091,11.5447273 C17.9956364,11.5810909 17.8938182,11.6378182 17.7789091,11.6843636 C17.6596364,11.7105455 17.5403636,11.7221818 17.4225455,11.76 C13.7701818,12.8974545 11.6101818,16.5236364 12.1701818,20.1934545 C12.1614545,20.3941818 12.176,20.5978182 12.2385455,20.8014545 C16.5658182,34.6894545 12.3985455,35.9854545 12.3985455,35.9854545 L13.264,38.7636364 L20.8174545,36.4101818 C15.824,30.4858182 16.9541818,18.0625455 16.9541818,18.0625455 C18.112,26.944 22.5527273,32.5178182 25.1170909,35.0705455 L25.7614545,34.8698182 L36.8741818,31.4094545 Z M32.6458182,36.4872727 C33.8283636,36.1192727 34.5105455,34.9265455 34.2850909,33.7396364 L29.7367273,35.1563636 C30.2254545,36.2603636 31.4647273,36.8552727 32.6458182,36.4872727 Z" id="Combined-Shape" fill="#D8D8D8"></path>
    </g>
</svg>