<?xml version="1.0" encoding="UTF-8" standalone="no"?>
<svg width="48px" height="48px" viewBox="0 0 48 48" version="1.1" xmlns="http://www.w3.org/2000/svg" xmlns:xlink="http://www.w3.org/1999/xlink">
    <!-- Generator: Sketch 42 (36781) - http://www.bohemiancoding.com/sketch -->
    <title>Combined Shape</title>
    <desc>Created with Sketch.</desc>
    <defs></defs>
    <g id="Page-1" stroke="none" stroke-width="1" fill="none" fill-rule="evenodd">
        <path d="M0,5.0010033 C0,2.23902544 2.23479023,0 5.0010033,0 L42.9989967,0 C45.7609746,0 48,2.23479023 48,5.0010033 L48,42.9989967 C48,45.7609746 45.7652098,48 42.9989967,48 L5.0010033,48 C2.23902544,48 0,45.7652098 0,42.9989967 L0,5.0010033 Z M37.2891366,9.48091444 L6.66773924,17.5473079 C6.08212494,17.7014531 5.65161377,18.2064661 5.5928619,18.8100125 C5.53372673,19.4143648 5.85720869,19.9917685 6.40327214,20.2570009 L18.2806387,26.0282124 L21.0102687,38.9433799 C21.1357637,39.5377029 21.6175129,39.9909482 22.2182195,40.0797756 C22.6201026,40.1390726 23.0179718,40.0272732 23.3249335,39.7874485 C23.4771563,39.668519 23.606802,39.5180992 23.7035214,39.3417424 L38.9317886,11.5834131 C39.2115584,11.0741083 39.1607306,10.4482927 38.8034508,9.99099531 C38.4456107,9.53362914 37.8502975,9.33371868 37.2891366,9.48091444 Z M23.0409765,34.5113619 L21.3070194,26.3071107 C21.3938238,26.223084 21.4814341,26.1394407 21.5594808,26.0364253 L24.8356916,21.7263429 C25.682067,20.6132938 25.3230671,20.1537948 24.0383235,20.7057583 L19.0639276,22.8422629 C18.944462,22.893561 18.8415482,22.958265 18.7387031,23.0224087 L11.1954338,19.3568897 L34.7604261,13.1497524 L23.0409765,34.5113619 Z" id="Combined-Shape" fill="#D8D8D8"></path>
    </g>
</svg>