<?xml version="1.0" encoding="UTF-8" standalone="no"?>
<svg width="48px" height="48px" viewBox="0 0 48 48" version="1.1" xmlns="http://www.w3.org/2000/svg" xmlns:xlink="http://www.w3.org/1999/xlink">
    <!-- Generator: Sketch 42 (36781) - http://www.bohemiancoding.com/sketch -->
    <title>Combined Shape</title>
    <desc>Created with Sketch.</desc>
    <defs></defs>
    <g id="Page-1" stroke="none" stroke-width="1" fill="none" fill-rule="evenodd">
        <path d="M36,11.117 C35.338,11.117 35,10.621 35,10.009 L35,1.138 C35,0.525 35.338,0.029 36,0.029 C36.662,0.029 37,0.525 37,1.138 L37,10.009 C37,10.621 36.662,11.117 36,11.117 Z M12,11.117 C11.338,11.117 11,10.621 11,10.009 L11,1.138 C11,0.525 11.338,0.029 12,0.029 C12.662,0.029 13,0.525 13,1.138 L13,10.009 C13,10.621 12.662,11.117 12,11.117 Z M43.142,4 C45.809,4 48,5.344 48,7.809 L48,15 L1.13686838e-13,15 L1.13686838e-13,7.809 C1.13686838e-13,5.344 2.111,4 4.779,4 L10,4 L10,7.548 C9,8.155 8.535,9.027 8.535,10.009 C8.535,11.847 9.881,13.336 11.87,13.336 C13.858,13.336 15.38,11.847 15.38,10.009 C15.38,9.027 15,8.155 14,7.548 L14,4 L34,4 L34,7.548 C33,8.155 32.535,9.027 32.535,10.009 C32.535,11.847 33.88,13.336 35.869,13.336 C37.858,13.336 39.38,11.847 39.38,10.009 C39.38,9.027 39,8.155 38,7.548 L38,4 L43.142,4 Z M0,43.258 L-0.001,43.258 L-0.001,18 L47.999,18 L47.999,43.258 C47.999,45.724 45.808,48 43.141,48 L4.779,48 C2.111,48 0,45.724 0,43.258 Z M32.574,32.658 L33.837,31.395 C34.784,30.448 34.784,28.87 33.838,27.922 C32.891,26.976 31.312,26.976 30.365,27.922 L29.103,29.186 L25.629,32.658 L29.102,36.13 L30.365,37.393 C31.344,38.341 32.889,38.341 33.837,37.393 C34.784,36.447 34.784,34.869 33.838,33.921 L32.574,32.658 Z M27.439,37.667 L23.966,34.195 L20.495,37.667 L19.231,38.929 C18.284,39.877 18.284,41.455 19.232,42.403 C20.178,43.35 21.756,43.35 22.703,42.402 L23.556,41.55 C23.777,41.327 24.124,41.327 24.376,41.55 L25.23,42.402 C26.176,43.35 27.754,43.35 28.702,42.402 C29.649,41.456 29.649,39.877 28.703,38.929 L27.439,37.667 Z M18.928,29.154 L17.665,27.891 C16.718,26.944 15.141,26.944 14.193,27.891 C13.246,28.837 13.246,30.416 14.191,31.364 L14.728,31.901 C14.224,31.775 13.749,31.585 13.277,31.3 C10.941,29.911 9.891,27.102 10.587,24.483 L9,23.978 L9,24.01 C9,24.672 8.63,25.335 8.629,26.03 C8.629,28.777 10.022,31.428 12.453,32.848 C13.115,33.226 13.748,33.511 14.474,33.701 L14.206,33.954 C13.259,34.9 13.252,36.479 14.198,37.426 C15.114,38.342 16.689,38.342 17.636,37.394 L22.402,32.628 L18.928,29.154 Z M20.496,27.618 L23.967,31.09 L27.44,27.617 L28.703,26.355 C29.65,25.407 29.651,23.83 28.704,22.882 C27.757,21.936 26.179,21.935 25.231,22.882 L24.378,23.735 C24.156,23.957 23.778,23.957 23.557,23.735 L22.705,22.883 C21.758,21.936 20.18,21.935 19.232,22.882 C18.284,23.829 18.285,25.407 19.232,26.356 L20.496,27.618 Z" id="Combined-Shape" fill="#7BDC19" fill-rule="nonzero"></path>
    </g>
</svg>