<?xml version="1.0" encoding="UTF-8" standalone="no"?>
<svg width="48px" height="48px" viewBox="0 0 48 48" version="1.1" xmlns="http://www.w3.org/2000/svg" xmlns:xlink="http://www.w3.org/1999/xlink">
    <!-- Generator: Sketch 42 (36781) - http://www.bohemiancoding.com/sketch -->
    <title>Shape</title>
    <desc>Created with Sketch.</desc>
    <defs></defs>
    <g id="Page-1" stroke="none" stroke-width="1" fill="none" fill-rule="evenodd">
        <path d="M48,5.669 C48,2.538 45.461,0 42.33,0 L5.67,0 C2.539,0 0,2.538 0,5.669 L0,42.331 C0,45.462 2.539,48 5.67,48 L42.33,48 C45.461,48 48,45.462 48,42.331 L48,5.669 Z M32.043,36.75 C29.159,38.996 28.491,38.759 27.772,35.209 L27.117,31.947 L25.609,33.716 C22.058,37.725 17.05,40.818 11.891,42.101 C9.782,42.632 7.486,41.144 8.568,39.891 C12.458,35.133 15.742,31.714 18.291,29.639 L21.271,27.179 L20.234,24.906 C19.631,23.667 18.856,22.672 18.515,22.712 C18.228,22.775 18.112,22.465 18.303,22.035 C18.884,20.75 20.538,20.659 22.161,21.779 L23.677,22.849 L26.958,14.721 C28.78,10.256 30.739,5.914 31.316,5.209 C32.194,4.121 32.427,4.032 32.566,4.869 C32.67,5.497 32.805,5.622 33,5.195 C33.17,4.819 33.618,4.828 33.974,5.183 C34.306,5.59 34.512,6.134 34.342,6.509 C34.196,6.83 34.133,8.544 34.2,10.25 C34.431,14.74 32.869,21.775 30.922,25.088 C30.035,26.623 29.402,27.884 29.509,27.932 C29.67,28.005 31.09,28.001 32.719,27.963 C34.295,27.9 35.751,28.106 35.868,28.418 C36.256,29.558 33.471,35.589 32.043,36.75 Z" id="Shape" fill="#444642" fill-rule="nonzero"></path>
    </g>
</svg>