<?xml version="1.0" encoding="UTF-8" standalone="no"?>
<svg width="48px" height="48px" viewBox="0 0 48 48" version="1.1" xmlns="http://www.w3.org/2000/svg" xmlns:xlink="http://www.w3.org/1999/xlink">
    <!-- Generator: Sketch 42 (36781) - http://www.bohemiancoding.com/sketch -->
    <title>Shape</title>
    <desc>Created with Sketch.</desc>
    <defs></defs>
    <g id="Page-1" stroke="none" stroke-width="1" fill="none" fill-rule="evenodd">
        <path d="M48,5.669 C48,2.538 45.461,0 42.33,0 L5.67,0 C2.539,0 0,2.538 0,5.669 L0,42.331 C0,45.462 2.539,48 5.67,48 L42.33,48 C45.461,48 48,45.462 48,42.331 L48,5.669 Z M14.52,14.367 C16.357,10.525 21.57,10.182 24.4,13.258 C24.469,11.757 24.484,10.319 24.285,9.485 C24.063,8.375 23.308,7.531 23.043,7.221 C22.555,6.732 22.954,6.333 23.308,6.244 C23.842,6.111 24.108,6.51 24.373,6.821 C24.641,7.176 25.039,8.109 25.173,9.13 C25.198,9.307 25.217,9.506 25.232,9.715 C26.388,5.803 29.581,4.7 32.586,4.823 C31.504,8.676 28.898,10.037 25.27,10.636 C25.288,11.66 25.238,12.771 25.184,13.511 C27.769,10.134 33.409,10.424 35.294,14.366 C36.848,17.562 33.784,25.685 31.654,28.083 C29.523,30.479 26.327,28.66 24.907,28.66 C23.486,28.66 20.29,30.48 18.159,28.083 C16.03,25.643 13.01,17.563 14.52,14.367 Z M37,39 L15.097,39 C14.476,39 13.944,38 13.633,38 L37,38 L37,39 Z M37,37 L13.321,37 C13.277,37 13.277,36.678 13.277,36.5 C13.277,36.321 13.277,36 13.321,36 L37,36 L37,37 Z M37,35 L13.633,35 C13.988,35 14.476,34 15.097,34 L37,34 L37,35 Z M37,33 L15.629,33 C13.853,33 12.389,34.724 12.389,36.5 C12.389,38.275 13.853,40 15.629,40 L37,40 L37,42 L15.629,42 C12.699,42 10.302,39.429 10.302,36.499 C10.302,33.568 12.699,31 15.629,31 L37,31 L37,33 Z" id="Shape" fill="#87E02E" fill-rule="nonzero"></path>
    </g>
</svg>