<?xml version="1.0" encoding="UTF-8" standalone="no"?>
<svg width="48px" height="48px" viewBox="0 0 48 48" version="1.1" xmlns="http://www.w3.org/2000/svg" xmlns:xlink="http://www.w3.org/1999/xlink">
    <!-- Generator: Sketch 42 (36781) - http://www.bohemiancoding.com/sketch -->
    <title>Shape</title>
    <desc>Created with Sketch.</desc>
    <defs></defs>
    <g id="Page-1" stroke="none" stroke-width="1" fill="none" fill-rule="evenodd">
        <path d="M48,5.669 C48,2.538 45.461,-5.68434189e-14 42.33,-5.68434189e-14 L5.67,-5.68434189e-14 C2.539,-5.68434189e-14 0,2.538 0,5.669 L0,42.331 C0,45.462 2.539,48 5.67,48 L42.33,48 C45.461,48 48,45.462 48,42.331 L48,5.669 Z M40.759,15.262 C38.967,17.91 38.384,21.172 36.445,23.748 C34.745,26.008 33.65,28.817 30.744,29.968 C30.583,30.031 30.431,30.107 30.547,30.275 C31.209,31.231 31.042,32.762 32.596,33.112 C33.269,33.263 33.968,33.411 34.583,33.743 C35.682,34.336 36.181,35.406 36.167,36.538 C36.153,37.67 35.135,37.063 34.53,37.15 C34.466,37.16 34.404,37.169 34.378,37.194 C32.931,38.578 31.649,37.479 30.466,36.801 C29.63,36.322 28.862,36.107 27.915,36.107 C21.957,36.104 17.12,33.43 12.785,29.622 C12.299,29.194 11.798,28.652 11.897,27.979 C12.108,26.556 11.306,26.865 10.463,26.973 C8.146,27.271 6.322,26.91 4.437,27.052 C2.551,27.194 3.496,26.059 3.496,26.059 C3.496,26.059 6.914,25.258 8.643,24.935 C10.615,24.566 12.646,24.421 14.464,23.345 C15.416,22.781 17.19,23.408 17.811,24.251 C18.547,25.249 17.978,26.096 17.405,26.93 C17.943,27.1 18.376,27.127 18.509,26.555 C18.617,26.089 18.641,25.603 18.69,25.125 C18.904,23.058 17.985,21.257 17.281,19.423 C16.864,18.337 16.823,17.336 17.403,16.348 C17.739,15.773 17.766,15.183 17.848,14.541 C18.12,12.429 18.565,10.338 18.952,8.241 C18.99,8.035 19.077,7.824 19.467,7.847 C19.543,8.337 19.624,8.856 19.747,9.648 C20.247,8.064 20.701,6.756 21.423,5.564 C21.569,5.321 21.732,5.069 22.027,5.161 C22.241,5.229 22.205,5.51 22.202,5.724 C22.201,5.88 22.242,6.037 22.265,6.194 C22.34,6.148 22.423,6.112 22.49,6.055 C23.266,5.384 23.067,6.125 23.043,6.464 C22.987,7.266 22.556,8.011 22.575,8.955 C23.788,7.417 23.788,7.417 24.782,7.164 C24.532,8.009 23.907,8.653 23.745,9.579 C24.421,9.642 26.003,8.672 25.117,10.624 C25.102,10.658 25.14,10.724 25.167,10.767 C25.914,12.002 25.719,13.537 26.374,14.766 C26.8,15.563 26.315,15.659 25.873,15.906 C26.128,16.341 27.54,15.987 26.719,17.165 C26.698,17.195 26.869,17.434 26.986,17.473 C28.011,17.821 27.31,18.974 27.943,19.494 C27.701,19.672 27.403,19.819 27.86,20.116 C28.187,20.329 28.339,20.079 28.549,19.94 C29.263,19.468 30,19.03 30.692,18.527 C32.739,17.04 34.738,15.506 35.603,12.965 C35.706,12.665 35.745,12.222 36.249,12.24 C36.514,12.858 35.978,13.398 36.172,14.128 C37.11,12.954 37.918,11.807 38.654,10.607 C38.803,10.261 38.797,9.635 39.394,9.915 C39.83,10.119 39.341,10.447 39.27,10.713 C39.219,10.903 39.051,11.063 38.935,11.236 C38.825,12.028 38.148,12.57 37.867,13.516 C39.133,12.576 39.811,11.257 41.082,10.474 C41.131,11.359 40.234,11.723 40.685,12.566 C40.984,12.122 41.351,11.826 41.882,11.868 C42.354,13.279 40.032,13.768 40.759,15.262 Z" id="Shape" fill="#444642" fill-rule="nonzero"></path>
    </g>
</svg>