<?xml version="1.0" standalone="no"?>
<!DOCTYPE svg PUBLIC "-//W3C//DTD SVG 20010904//EN"
 "http://www.w3.org/TR/2001/REC-SVG-20010904/DTD/svg10.dtd">
<svg version="1.0" xmlns="http://www.w3.org/2000/svg"
 width="245.000000pt" height="185.000000pt" viewBox="0 0 245.000000 185.000000"
 preserveAspectRatio="xMidYMid meet">

<g transform="translate(0.000000,185.000000) scale(0.100000,-0.100000)"
fill="#000000" stroke="none">
<path d="M692 1780 c-30 -13 -45 -55 -39 -113 5 -56 29 -87 68 -87 43 0 69 41
69 107 0 44 -5 58 -25 78 -26 27 -37 29 -73 15z m43 -96 c0 -64 -3 -79 -15
-79 -11 0 -16 15 -18 60 -4 70 4 108 21 102 8 -2 12 -30 12 -83z"/>
<path d="M1727 1772 c-18 -20 -22 -42 -8 -42 5 0 11 9 14 21 7 27 41 21 45 -8
2 -13 -5 -27 -19 -37 l-22 -15 23 -19 c18 -15 22 -24 16 -46 -8 -33 -39 -32
-44 2 -4 23 -16 29 -27 12 -11 -18 24 -60 49 -60 60 0 89 43 60 87 -11 18 -13
28 -5 36 18 18 12 55 -11 71 -29 21 -51 20 -71 -2z"/>
<path d="M502 1683 c3 -84 6 -98 21 -101 14 -3 17 4 17 47 0 44 3 51 19 51 17
0 20 -8 23 -47 3 -40 6 -48 23 -48 18 0 20 8 23 98 l3 97 -26 0 c-23 0 -25 -4
-25 -41 0 -33 -3 -40 -17 -37 -13 2 -19 14 -21 41 -3 29 -7 37 -23 37 -18 0
-20 -6 -17 -97z"/>
<path d="M812 1683 l3 -98 34 -3 c52 -5 81 6 92 35 7 20 6 32 -7 50 -11 18
-13 28 -5 36 15 15 14 50 -1 65 -7 7 -36 12 -65 12 l-54 0 3 -97z m78 47 c0
-20 -5 -30 -15 -30 -10 0 -15 10 -15 30 0 20 5 30 15 30 10 0 15 -10 15 -30z
m6 -75 c6 -25 -9 -55 -27 -55 -5 0 -9 18 -9 40 0 46 25 57 36 15z"/>
<path d="M996 1772 c-2 -4 -12 -39 -21 -77 -8 -39 -18 -78 -21 -87 -3 -10 -1
-18 5 -18 5 0 13 9 16 20 9 28 43 25 55 -5 8 -22 15 -25 52 -22 41 2 43 3 49
40 3 20 9 40 12 43 13 14 27 -10 27 -47 0 -33 3 -40 18 -37 14 3 17 17 20 101
l3 97 -49 0 c-26 0 -53 -5 -60 -12 -15 -15 -16 -64 -2 -73 7 -4 7 -12 0 -25
-5 -10 -10 -28 -10 -39 0 -12 -4 -21 -10 -21 -5 0 -10 6 -10 14 0 7 -7 46 -16
85 -13 56 -20 71 -34 71 -11 0 -21 -4 -24 -8z m172 -44 c-3 -36 -30 -46 -36
-15 -5 26 5 47 23 47 12 0 15 -8 13 -32z m-149 -65 c1 -7 -6 -13 -14 -13 -15
0 -21 40 -8 54 7 7 21 -18 22 -41z"/>
<path d="M1330 1775 c0 -3 7 -17 16 -30 16 -24 15 -29 -10 -86 -32 -74 -32
-81 -4 -77 15 2 30 17 43 43 l20 40 3 -42 c2 -34 7 -43 22 -43 20 0 30 18 31
58 0 25 2 23 22 -15 13 -27 28 -43 39 -43 24 0 23 17 -6 82 -24 55 -24 55 -5
87 13 21 15 31 6 31 -7 0 -21 -17 -32 -37 l-20 -37 -5 35 c-4 25 -10 35 -27
37 -19 3 -22 -2 -25 -35 l-3 -38 -24 38 c-20 32 -41 48 -41 32z"/>
<path d="M1552 1683 c3 -90 5 -98 23 -98 15 0 23 11 33 45 23 76 26 77 32 15
4 -52 8 -60 25 -60 18 0 20 8 23 98 3 97 3 97 -21 97 -25 0 -35 -15 -54 -85
-7 -26 -8 -23 -11 28 -3 53 -5 57 -28 57 l-25 0 3 -97z"/>
<path d="M1850 1685 c0 -77 3 -97 15 -102 23 -8 29 3 27 46 -2 24 3 43 13 51
18 15 23 5 27 -55 2 -32 7 -40 23 -40 18 0 20 8 23 98 l3 97 -26 0 c-23 0 -25
-4 -25 -41 0 -33 -3 -40 -17 -37 -13 2 -19 14 -21 41 -3 29 -7 37 -23 37 -17
0 -19 -8 -19 -95z"/>
<path d="M2010 1680 l0 -100 38 0 c56 0 84 24 80 68 -3 32 -7 38 -38 48 -30
10 -35 16 -38 48 -3 28 -8 36 -23 36 -18 0 -19 -8 -19 -100z m76 -25 c7 -26
-11 -59 -27 -49 -5 3 -9 21 -9 40 0 41 26 48 36 9z"/>
<path d="M1270 1574 c-39 -49 -50 -84 -25 -84 18 0 47 55 43 82 -3 20 -3 20
-18 2z"/>
<path d="M1162 1505 c-30 -36 -33 -45 -28 -85 4 -24 10 -48 14 -52 14 -14 132
52 132 73 0 16 -23 9 -57 -17 -40 -31 -47 -28 -32 13 6 17 9 48 7 69 l-3 39
-33 -40z"/>
<path d="M730 1301 c-64 -22 -80 -30 -65 -36 11 -4 29 -10 40 -15 18 -8 18 -9
2 -9 -10 -1 -31 6 -47 14 -46 24 -35 1 23 -47 145 -122 228 -119 320 12 21 30
42 57 48 58 5 2 18 -7 29 -20 33 -39 16 -93 -72 -230 -51 -79 -75 -128 -83
-169 l-7 -36 -56 9 c-31 5 -85 18 -120 29 -54 17 -72 18 -119 9 -60 -11 -141
-52 -150 -76 -8 -22 52 -136 119 -225 161 -214 420 -332 690 -316 292 17 542
179 667 430 45 92 50 113 24 102 -21 -8 -88 -20 -202 -36 -46 -7 -107 -20
-135 -30 -65 -24 -68 -24 -86 11 -85 167 -155 248 -233 269 -61 17 -180 10
-227 -14 -19 -9 -50 -31 -68 -49 -41 -39 -37 -23 29 94 43 77 76 160 93 233 7
29 -8 38 -18 11 -6 -15 -8 -15 -24 -1 -25 22 -166 57 -231 57 -34 -1 -90 -12
-141 -29z m240 -21 c-8 -5 -19 -10 -25 -10 -5 0 -3 5 5 10 8 5 20 10 25 10 6
0 3 -5 -5 -10z"/>
<path d="M2180 1300 l-25 -8 25 0 c14 0 34 3 45 8 l20 9 -20 -1 c-11 0 -31 -4
-45 -8z"/>
<path d="M275 1270 l-20 -9 20 0 c11 0 27 4 35 9 13 9 13 10 0 9 -8 0 -24 -4
-35 -9z"/>
<path d="M2190 1270 c-8 -5 -11 -12 -7 -16 3 -4 13 -1 22 6 8 7 22 10 30 6 9
-3 13 -2 10 4 -8 12 -35 13 -55 0z"/>
<path d="M2220 1210 c0 -5 7 -7 15 -4 8 4 15 8 15 10 0 2 -7 4 -15 4 -8 0 -15
-4 -15 -10z"/>
<path d="M248 1200 c13 -6 31 -6 45 0 18 7 14 9 -23 9 -37 0 -41 -2 -22 -9z"/>
<path d="M2178 1203 c7 -3 16 -2 19 1 4 3 -2 6 -13 5 -11 0 -14 -3 -6 -6z"/>
<path d="M245 1159 c-23 -9 -22 -9 23 -13 17 -2 32 0 32 4 0 12 -33 18 -55 9z"/>
<path d="M2208 1162 c-44 -5 -33 -18 12 -14 22 2 40 5 40 7 0 7 -27 10 -52 7z"/>
<path d="M2220 1110 l-45 -7 48 -1 c26 -1 47 3 47 8 0 6 -1 9 -2 8 -2 0 -23
-4 -48 -8z"/>
<path d="M230 1096 c0 -2 16 -6 35 -8 19 -2 35 0 35 4 0 4 -16 8 -35 8 -19 0
-35 -2 -35 -4z"/>
<path d="M2180 1053 c0 -5 18 -9 40 -11 22 -1 40 2 40 8 0 5 -18 10 -40 10
-22 0 -40 -3 -40 -7z"/>
<path d="M246 1032 c-3 -5 8 -9 24 -9 16 0 27 4 24 9 -3 4 -14 8 -24 8 -10 0
-21 -4 -24 -8z"/>
<path d="M2218 997 c-21 -6 -38 -15 -38 -20 0 -5 7 -6 16 -3 9 3 27 9 40 12
13 3 24 10 24 15 0 5 -1 8 -2 8 -2 -1 -20 -6 -40 -12z"/>
<path d="M250 960 c0 -13 20 -13 40 0 12 8 9 10 -12 10 -16 0 -28 -4 -28 -10z"/>
<path d="M270 920 c0 -12 8 -12 35 0 18 8 17 9 -7 9 -16 1 -28 -3 -28 -9z"/>
<path d="M2170 910 c0 -5 5 -10 10 -10 6 0 10 5 10 10 0 6 -4 10 -10 10 -5 0
-10 -4 -10 -10z"/>
<path d="M2205 900 c-3 -5 3 -10 14 -10 12 0 21 5 21 10 0 6 -6 10 -14 10 -8
0 -18 -4 -21 -10z"/>
<path d="M275 870 l-40 -8 48 1 c26 0 47 4 47 9 0 4 -3 7 -7 7 -5 -1 -26 -5
-48 -9z"/>
<path d="M2150 840 c0 -8 7 -11 63 -26 34 -9 8 11 -30 24 -18 6 -33 7 -33 2z"/>
<path d="M274 824 c-18 -14 -18 -15 6 -8 31 8 50 24 29 24 -8 0 -24 -7 -35
-16z"/>
<path d="M310 763 c-14 -7 -18 -13 -10 -13 17 0 47 17 40 23 -3 2 -16 -2 -30
-10z"/>
<path d="M2180 770 c20 -13 43 -13 35 0 -3 6 -16 10 -28 10 -18 0 -19 -2 -7
-10z"/>
<path d="M2120 741 c0 -5 11 -12 24 -15 13 -3 32 -9 43 -12 12 -5 15 -4 8 3
-14 15 -75 34 -75 24z"/>
<path d="M331 712 c-30 -42 -26 -50 5 -12 15 17 24 33 21 36 -2 3 -14 -8 -26
-24z"/>
<path d="M2120 681 c8 -5 26 -12 40 -16 24 -7 24 -7 5 9 -11 8 -29 15 -40 15
-16 0 -17 -1 -5 -8z"/>
<path d="M360 660 c0 -5 -6 -10 -14 -10 -8 0 -17 -4 -20 -9 -4 -5 10 -4 29 2
35 10 48 27 20 27 -8 0 -15 -4 -15 -10z"/>
<path d="M377 611 c-38 -25 -42 -31 -19 -24 12 3 28 14 38 24 21 23 17 23 -19
0z"/>
<path d="M2074 622 c3 -5 24 -9 48 -10 31 -1 39 1 28 8 -18 12 -83 13 -76 2z"/>
<path d="M398 562 c-30 -18 -39 -39 -10 -23 29 16 58 40 47 40 -5 0 -22 -7
-37 -17z"/>
<path d="M2020 552 c0 -6 16 -19 36 -31 41 -24 37 -12 -6 19 -17 12 -30 17
-30 12z"/>
<path d="M2010 513 c0 -4 5 -15 10 -23 8 -13 10 -13 10 2 0 9 -4 20 -10 23 -5
3 -10 3 -10 -2z"/>
<path d="M446 479 c-10 -17 -16 -33 -13 -35 2 -3 14 11 25 31 12 19 18 35 14
35 -4 0 -16 -14 -26 -31z"/>
<path d="M2000 461 c19 -16 37 -27 39 -25 6 5 -52 54 -64 54 -5 0 6 -13 25
-29z"/>
<path d="M510 439 c0 -5 5 -7 10 -4 6 3 10 8 10 11 0 2 -4 4 -10 4 -5 0 -10
-5 -10 -11z"/>
<path d="M1970 425 c7 -8 16 -15 21 -15 5 0 6 7 3 15 -4 8 -13 15 -21 15 -13
0 -13 -3 -3 -15z"/>
<path d="M540 420 c0 -6 -11 -8 -25 -4 -15 4 -25 2 -25 -5 0 -6 7 -8 15 -5 8
4 15 1 15 -5 0 -7 -7 -14 -15 -17 -8 -4 -13 -10 -10 -15 7 -10 42 18 56 44 6
11 6 17 -1 17 -5 0 -10 -5 -10 -10z"/>
<path d="M1932 374 c9 -9 21 -15 27 -13 6 2 -2 10 -17 17 -25 11 -25 11 -10
-4z"/>
<path d="M582 335 c-12 -19 -19 -35 -15 -35 5 0 18 16 31 35 12 19 19 35 15
35 -5 0 -18 -16 -31 -35z"/>
<path d="M1818 328 c7 -7 12 -16 12 -20 0 -13 -28 -9 -33 5 -3 7 -6 5 -6 -5
-1 -10 5 -18 12 -19 6 0 21 -2 33 -3 20 -2 20 -1 5 26 -9 15 -20 28 -25 28 -6
0 -5 -5 2 -12z"/>
<path d="M630 308 c-11 -12 -20 -27 -20 -32 0 -6 11 2 25 18 14 16 25 31 25
33 0 8 -11 1 -30 -19z"/>
<path d="M667 273 c-15 -32 -15 -35 -1 -18 24 30 36 55 26 55 -4 0 -16 -17
-25 -37z"/>
<path d="M747 235 c-20 -43 -22 -55 -4 -30 13 17 14 17 22 -6 6 -21 8 -22 12
-5 3 10 0 22 -7 26 -7 4 -9 16 -5 29 10 32 1 25 -18 -14z"/>
<path d="M1720 263 c1 -11 50 -46 56 -40 3 3 -9 15 -25 27 -17 12 -31 18 -31
13z"/>
<path d="M1600 229 c0 -12 30 -79 36 -79 3 0 4 6 1 14 -4 9 1 16 11 19 15 3
14 5 -3 12 -11 5 -25 16 -32 24 -7 9 -13 13 -13 10z"/>
<path d="M822 200 c-14 -23 -15 -30 -3 -30 8 0 24 41 18 47 -2 1 -8 -7 -15
-17z"/>
<path d="M891 193 c0 -6 -4 -20 -7 -30 -5 -14 -4 -15 5 -7 7 7 11 20 8 30 -3
11 -5 14 -6 7z"/>
<path d="M935 190 c-3 -5 -1 -18 4 -27 9 -16 10 -14 11 10 0 28 -5 34 -15 17z"/>
<path d="M1006 169 c-8 -26 -16 -79 -11 -79 7 0 27 82 21 87 -3 3 -7 0 -10 -8z"/>
<path d="M1430 178 c1 -16 29 -89 29 -77 2 30 -11 79 -20 79 -5 0 -9 -1 -9 -2z"/>
<path d="M1521 163 c-1 -12 4 -25 9 -28 12 -7 12 2 0 30 -8 19 -9 19 -9 -2z"/>
<path d="M1052 163 c3 -5 10 -23 17 -40 7 -18 17 -33 21 -33 5 0 2 12 -6 28
-7 15 -14 33 -14 40 0 6 -5 12 -11 12 -6 0 -9 -3 -7 -7z"/>
<path d="M1391 144 c0 -16 4 -38 9 -49 6 -13 7 -5 3 25 -7 53 -13 66 -12 24z"/>
<path d="M1126 152 c-3 -5 -1 -22 4 -38 8 -29 8 -29 9 9 1 36 -3 45 -13 29z"/>
<path d="M1183 115 c0 -27 2 -38 4 -22 2 15 2 37 0 50 -2 12 -4 0 -4 -28z"/>
<path d="M1300 136 c0 -9 5 -16 10 -16 6 0 10 4 10 9 0 6 -4 13 -10 16 -5 3
-10 -1 -10 -9z"/>
<path d="M1340 135 c0 -8 4 -15 10 -15 5 0 7 7 4 15 -4 8 -8 15 -10 15 -2 0
-4 -7 -4 -15z"/>
<path d="M950 124 c0 -8 5 -12 10 -9 6 4 8 11 5 16 -9 14 -15 11 -15 -7z"/>
<path d="M1272 100 c0 -19 2 -27 5 -17 2 9 2 25 0 35 -3 9 -5 1 -5 -18z"/>
</g>
</svg>
