<?xml version="1.0" encoding="UTF-8" standalone="no"?>
<svg width="48px" height="48px" viewBox="0 0 48 48" version="1.1" xmlns="http://www.w3.org/2000/svg" xmlns:xlink="http://www.w3.org/1999/xlink">
    <!-- Generator: Sketch 42 (36781) - http://www.bohemiancoding.com/sketch -->
    <title>Combined Shape</title>
    <desc>Created with Sketch.</desc>
    <defs></defs>
    <g id="Page-1" stroke="none" stroke-width="1" fill="none" fill-rule="evenodd">
        <path d="M42.33,-1.42108547e-14 C45.462,-1.42108547e-14 48,2.538 48,5.669 L48,42.331 C48,45.462 45.462,48 42.33,48 L5.67,48 C2.538,48 0,45.462 0,42.331 L0,5.669 C0,2.538 2.538,-1.42108547e-14 5.67,-1.42108547e-14 L42.33,-1.42108547e-14 Z M27.604,9.834 C27.789,10.14 28.652,10.941 28.9,11.309 C29.207,11.622 30.318,12.484 30.996,13.038 C30.996,13.038 30.562,13.346 29.701,13.407 C28.777,13.407 28.408,13.159 28.097,12.914 C27.791,12.727 27.666,12.237 27.605,12.052 C27.605,11.927 27.545,11.683 27.482,11.373 C27.357,11.066 27.113,10.263 26.927,9.894 C26.804,9.773 26.247,8.968 26.247,8.911 C26.188,8.848 26.003,8.663 25.817,8.663 C25.631,8.663 25.567,8.787 25.567,8.848 C25.567,8.969 25.756,9.525 25.817,9.71 C25.878,9.895 26.126,10.328 26.247,10.509 C26.434,10.637 26.495,11.066 26.495,11.25 C26.495,11.374 26.495,11.808 26.247,11.808 C25.817,11.808 25.263,11.374 25.079,11.126 C24.893,10.941 24.401,10.014 24.276,9.773 C24.153,9.525 23.843,8.538 23.782,8.105 C23.782,8.105 24.153,8.166 24.462,8.166 C24.769,8.166 25.14,8.045 25.632,7.984 C26.126,7.925 26.495,8.294 26.618,8.538 C26.741,8.724 27.42,9.525 27.604,9.834 Z M24.275,28.632 C24.828,28.571 24.828,29.064 24.828,29.311 C24.767,29.496 24.521,30.603 24.275,31.774 C24.275,31.774 24.09,31.774 23.781,31.835 C23.537,31.96 23.166,32.265 23.166,32.513 C23.166,32.822 23.412,33.01 23.412,33.01 C23.412,33.01 23.291,33.071 23.228,33.071 C22.98,33.256 23.165,33.562 23.228,33.625 C23.349,33.625 23.72,33.749 23.72,33.749 C23.72,33.749 23.597,34.796 23.536,34.978 C23.471,35.169 23.227,35.84 22.979,36.397 C22.979,36.397 22.056,35.723 21.87,35.535 C21.747,35.411 21.132,35.106 20.821,34.918 C20.452,34.673 19.464,34.183 19.157,34.055 C18.85,33.875 17.803,33.258 17.555,33.073 C17.244,32.824 16.506,32.268 16.26,31.962 C16.014,31.653 16.198,31.472 16.323,31.408 C16.448,31.344 17.184,30.975 17.37,30.851 C17.555,30.73 17.678,30.541 17.862,30.3 C18.047,30.111 18.293,29.618 18.481,29.373 C18.602,29.121 18.665,28.88 18.665,28.632 C18.665,28.451 18.481,28.079 18.665,27.769 C18.851,27.588 19.343,27.588 19.712,27.769 C20.023,27.954 21.314,28.263 21.808,28.387 C22.302,28.571 23.658,28.632 24.275,28.632 Z M39.992,17.105 C39.994,16.982 40.057,16.617 40.053,16.615 C39.682,16.551 38.696,16.182 38.448,15.994 C38.203,15.809 37.217,14.946 36.969,14.823 C36.723,14.699 36.045,14.332 35.676,14.269 C35.368,14.209 34.813,14.02 34.688,13.775 C34.504,13.591 34.504,13.346 34.752,13.222 C35.059,13.158 35.983,12.725 36.229,12.484 C36.477,12.175 36.909,11.557 37.032,11.308 C37.153,11.124 37.032,10.939 36.969,10.875 C36.908,10.875 36.537,10.875 36.414,11.063 C36.289,11.248 35.982,11.68 35.738,11.862 C35.427,11.986 35.919,11.556 35.982,11.187 C36.045,10.876 36.045,10.57 36.045,10.446 C35.982,10.385 35.797,10.2 35.738,10.261 C35.613,10.261 35.489,10.445 35.55,10.633 C35.55,10.757 35.55,11.123 35.427,11.247 C35.367,11.307 35.304,11.619 35.181,11.68 C35.058,11.741 34.872,11.862 34.872,11.862 C34.872,11.862 34.997,11.309 34.997,11 C34.997,10.57 34.812,9.892 34.751,9.771 C34.686,9.643 34.38,9.643 34.317,9.643 C34.255,9.707 34.069,9.951 34.194,10.136 C34.317,10.324 34.38,10.569 34.38,10.757 C34.38,10.939 34.318,11.495 34.009,11.805 C33.761,12.049 33.455,12.418 32.779,12.418 C32.037,12.418 31.605,11.805 31.605,11.805 C31.605,11.805 32.161,11.247 32.222,11.123 C32.285,10.999 32.779,10.324 32.779,9.706 C32.779,9.025 32.406,8.103 32.222,7.797 C32.036,7.489 31.544,6.935 31.423,6.81 C31.358,6.686 30.989,6.625 30.866,6.75 C30.803,6.81 30.803,7.179 30.989,7.301 C31.112,7.489 31.483,8.042 31.544,8.227 C31.667,8.411 31.792,8.844 31.792,9.338 C31.792,9.771 31.544,10.758 30.62,10.758 C29.634,10.758 28.278,8.909 28.03,8.596 C27.659,8.043 27.107,6.627 26.921,5.7 C26.676,4.777 26.612,3.361 26.612,3.233 C26.612,3.112 26.489,2.678 26.182,2.678 C25.874,2.678 25.811,3.051 25.811,3.172 C25.811,3.296 25.75,4.034 25.75,4.282 C25.75,4.588 25.873,5.947 25.996,6.192 C26.059,6.504 26.059,6.749 26.059,6.749 C26.059,6.749 25.192,6.994 24.825,7.055 C24.456,7.116 23.468,7.116 23.468,7.116 C23.468,7.116 23.347,6.194 23.286,5.885 C23.286,5.58 23.223,4.715 23.223,4.529 C23.223,4.405 23.1,4.157 22.975,4.157 C22.792,4.1 22.669,4.285 22.606,4.47 C22.545,4.653 22.545,5.392 22.545,5.58 C22.545,5.765 22.606,6.752 22.606,6.752 C22.606,6.752 22.172,6.316 22.051,6.131 C21.866,6.01 21.434,5.701 21.311,5.701 C21.251,5.64 21.065,5.58 20.94,5.701 C20.882,5.825 20.882,6.074 21.003,6.194 C21.128,6.315 21.62,6.936 21.743,7.118 C21.866,7.302 22.606,7.859 22.606,7.859 C22.606,8.104 22.606,8.352 22.545,8.662 C22.545,8.662 22.236,8.598 21.99,8.538 C21.742,8.478 21.371,8.293 21.127,8.044 C20.939,7.859 20.141,7.242 19.953,6.997 C19.832,6.752 19.584,6.506 19.461,6.439 C19.4,6.315 19.092,6.073 18.908,6.254 C18.723,6.438 18.908,6.872 18.971,6.996 C19.031,7.056 19.277,7.613 19.461,7.858 C19.709,8.043 20.141,8.536 20.262,8.661 C20.448,8.846 20.633,8.967 20.817,9.09 C20.94,9.214 21.188,9.399 21.434,9.399 C21.682,9.399 21.928,9.464 22.172,9.709 C22.42,9.953 24.515,12.293 24.822,12.545 C25.131,12.851 25.748,13.592 26.551,13.961 C27.349,14.333 28.275,14.762 29.322,14.823 C30.371,14.887 31.111,14.824 31.111,14.824 C30.679,15.872 30.31,16.553 30.062,16.983 C29.756,17.352 28.83,18.897 28.83,18.897 C28.83,18.897 28.09,18.777 27.721,18.777 C26.735,18.777 25.503,19.216 24.7,19.216 C23.532,19.216 19.34,17.935 16.194,17.935 C13.604,17.935 12.065,19.129 11.696,19.381 C11.324,19.623 10.401,20.357 10.092,20.912 C9.723,21.464 9.66,22.313 9.66,22.809 C9.66,23.36 9.599,24.997 10.646,24.997 L11.015,24.997 C11.263,24.997 11.878,26.628 12.249,26.999 C12.558,27.369 13.11,27.768 13.298,28.016 C13.544,28.202 14.16,28.691 14.099,29.557 C14.099,30.419 13.73,30.788 13.544,30.973 C13.419,31.097 12.989,31.282 12.989,31.9 C12.989,32.575 13.481,32.886 13.79,32.947 C14.099,33.012 14.898,33.192 15.33,33.874 C15.762,34.549 16.068,35.106 16.254,35.294 C16.442,35.535 17.548,36.767 17.732,37.136 C17.98,37.508 18.346,38.556 18.409,38.556 C18.409,38.556 18.65,38.496 18.836,38.744 C18.961,38.986 19.071,39.174 19.071,39.174 C19.071,39.174 18.994,39.358 18.994,39.544 L18.994,40.161 C19.994,40.406 20.059,40.714 20.614,41.027 C20.676,40.9 20.755,40.775 20.816,40.651 C20.879,40.714 21.002,40.775 21.127,40.9 C21.249,40.775 21.249,40.53 21.188,40.345 C21.127,40.221 21.065,39.849 21.002,39.731 C20.939,39.668 20.695,39.298 20.695,39.235 C20.695,39.175 20.57,38.927 20.507,38.869 C20.447,38.745 20.138,38.063 20.017,37.943 C19.952,37.883 18.908,36.587 18.845,36.463 C18.722,36.276 18.414,35.786 18.351,35.725 C18.29,35.601 17.919,34.92 17.919,34.92 C17.919,34.92 20.569,36.464 20.694,36.524 C20.815,36.589 21.063,36.769 21.063,37.082 C21.063,37.326 21.247,37.451 21.37,37.451 C21.493,37.451 21.927,37.388 22.05,37.511 C22.171,37.635 22.296,37.821 22.419,37.884 C22.544,37.945 22.605,38.065 22.605,38.065 C22.605,38.065 22.111,39.116 21.988,39.237 C21.928,39.361 21.928,39.67 22.051,39.791 C22.237,39.915 22.729,40.471 22.852,40.777 C22.976,41.088 23.04,41.458 23.04,41.639 C23.04,41.891 23.04,42.012 23.099,42.012 C23.162,42.071 23.345,42.319 23.533,42.319 C23.777,42.319 23.902,42.072 23.902,42.011 C23.902,41.95 24.023,42.257 24.023,42.257 C24.023,42.257 24.332,42.135 24.396,42.074 C24.396,42.074 24.517,41.832 24.517,41.769 C24.517,41.704 24.332,41.407 24.271,41.347 C24.209,41.283 24.025,40.312 24.025,39.698 C24.025,39.081 24.148,38.435 24.209,38.125 C24.271,37.821 24.58,36.524 24.701,36.217 C24.764,35.909 25.318,34.738 25.504,34.433 C25.627,34.06 25.813,34 25.813,34 L26.862,34 C27.108,34 27.846,33.569 28.155,33.442 C28.71,33.261 29.759,32.334 30.005,32.086 C30.313,31.837 31.299,31.284 31.485,31.223 C31.669,31.099 32.716,30.606 32.962,30.482 C33.21,30.361 33.95,30.176 34.011,30.176 C34.011,30.113 34.196,29.988 34.257,29.927 C34.32,29.927 34.38,29.804 34.441,29.679 C34.505,29.62 34.63,28.941 34.63,28.817 C34.63,28.693 34.63,28.512 34.566,28.451 C34.566,28.387 34.136,28.139 34.072,28.139 C33.951,28.078 32.656,27.588 32.287,27.339 C31.916,27.151 30.869,26.782 30.869,26.782 C31.052,26.413 31.175,26.168 31.361,25.92 C31.546,25.736 31.913,25.551 32.101,25.427 C32.347,25.366 32.47,25.366 32.595,25.241 C32.717,25.057 32.656,24.869 32.656,24.752 C32.716,24.564 32.781,24.198 32.902,24.007 C33.025,23.823 33.211,23.333 33.332,23.145 C33.457,22.959 34.072,22.097 34.258,21.852 C34.381,21.668 34.69,21.296 34.815,20.99 C34.936,20.621 35.122,20.064 35.122,19.883 C35.122,19.694 35.185,19.329 35.185,19.329 C35.185,19.329 35.494,19.446 35.74,19.446 C35.924,19.387 36.541,19.138 36.662,19.077 C36.726,18.956 37.033,18.771 37.279,18.771 C37.527,18.771 38.081,18.895 38.39,18.895 C38.638,18.895 39.007,18.831 39.193,18.707 C39.312,18.522 39.622,18.089 39.685,17.908 C39.806,17.719 39.929,17.287 39.992,17.105 Z M29.574,28.816 C29.822,28.816 30.379,29.065 30.87,29.063 C31.362,29.12 31.608,29.12 31.796,29.12 C31.98,29.187 32.04,29.248 32.103,29.311 C32.103,29.372 32.041,29.496 31.98,29.496 C31.915,29.496 28.835,30.974 28.71,31.037 C28.527,31.161 27.972,31.342 27.603,31.406 C27.295,31.406 26.986,31.342 26.986,31.342 C27.051,31.342 26.74,31.776 26.74,31.776 L26.246,31.712 C26.371,31.037 26.865,30.051 27.051,29.803 C27.234,29.558 27.603,29.001 27.914,28.816 C28.158,28.631 28.342,28.51 28.713,28.51 C29.021,28.51 29.392,28.755 29.574,28.816 Z" id="Combined-Shape" fill="#79E210" fill-rule="nonzero"></path>
    </g>
</svg>