<?xml version="1.0" encoding="UTF-8" standalone="no"?>
<svg width="48px" height="48px" viewBox="0 0 48 48" version="1.1" xmlns="http://www.w3.org/2000/svg" xmlns:xlink="http://www.w3.org/1999/xlink">
    <!-- Generator: Sketch 42 (36781) - http://www.bohemiancoding.com/sketch -->
    <title>Combined Shape</title>
    <desc>Created with Sketch.</desc>
    <defs></defs>
    <g id="Page-1" stroke="none" stroke-width="1" fill="none" fill-rule="evenodd">
        <path d="M0,5.0010033 C0,2.23902544 2.23479023,0 5.0010033,0 L42.9989967,0 C45.7609746,0 48,2.23479023 48,5.0010033 L48,42.9989967 C48,45.7609746 45.7652098,48 42.9989967,48 L5.0010033,48 C2.23902544,48 0,45.7652098 0,42.9989967 L0,5.0010033 Z M30.1638462,28.6357692 C33.3938462,26.5349615 35.5384615,22.9002308 35.5384615,18.7692308 C35.5384615,12.2798077 30.2586538,7 23.7692308,7 C17.2798077,7 12,12.2798077 12,18.7692308 C12,22.9002308 14.1446154,26.5349615 17.3739615,28.6357692 L12.1379615,39.1077692 C11.8149615,39.7537692 12.0771538,40.5390385 12.7231538,40.8626923 C12.9108077,40.9561923 13.1102308,41 13.3070385,41 C13.7863077,41 14.2485769,40.7358462 14.4780769,40.2775 L16.7312308,35.7692308 L30.8065769,35.7692308 L33.0603846,40.2775 C33.2905385,40.7358462 33.7521538,41 34.2320769,41 C34.4282308,41 34.6276538,40.9561923 34.8159615,40.8620385 C35.4619615,40.5390385 35.7241538,39.7537692 35.4011538,39.1071154 L30.1638462,28.6357692 Z M14.6153846,18.7692308 C14.6153846,13.7215385 18.7215385,9.61538462 23.7692308,9.61538462 C28.8169231,9.61538462 32.9230769,13.7215385 32.9230769,18.7692308 C32.9230769,23.8169231 28.8169231,27.9230769 23.7692308,27.9230769 C18.7215385,27.9230769 14.6153846,23.8169231 14.6153846,18.7692308 Z M30.3076923,18.7692308 C30.3076923,15.1639231 27.3745385,12.2307692 23.7692308,12.2307692 C20.1639231,12.2307692 17.2307692,15.1639231 17.2307692,18.7692308 C17.2307692,22.3745385 20.1639231,25.3076923 23.7692308,25.3076923 C27.3745385,25.3076923 30.3076923,22.3745385 30.3076923,18.7692308 Z M19.8461538,18.7692308 C19.8461538,16.6056538 21.6056538,14.8461538 23.7692308,14.8461538 C25.9328077,14.8461538 27.6923077,16.6056538 27.6923077,18.7692308 C27.6923077,20.9328077 25.9328077,22.6923077 23.7692308,22.6923077 C21.6056538,22.6923077 19.8461538,20.9328077 19.8461538,18.7692308 Z M18.0389231,33.1538462 L19.7140769,29.8035385 C20.9805769,30.2703846 22.3425385,30.5384615 23.7692308,30.5384615 C25.1959231,30.5384615 26.5578846,30.2703846 27.8237308,29.8035385 L29.4995385,33.1538462 L18.0389231,33.1538462 Z" id="Combined-Shape" fill="#D8D8D8"></path>
    </g>
</svg>