<?xml version="1.0" encoding="UTF-8" standalone="no"?>
<svg width="48px" height="48px" viewBox="0 0 48 48" version="1.1" xmlns="http://www.w3.org/2000/svg" xmlns:xlink="http://www.w3.org/1999/xlink">
    <!-- Generator: Sketch 42 (36781) - http://www.bohemiancoding.com/sketch -->
    <title>Combined Shape</title>
    <desc>Created with Sketch.</desc>
    <defs></defs>
    <g id="Page-1" stroke="none" stroke-width="1" fill="none" fill-rule="evenodd">
        <path d="M42.33,-1.42108547e-14 C45.462,-1.42108547e-14 48,2.538 48,5.669 L48,42.331 C48,45.462 45.462,48 42.33,48 L5.67,48 C2.538,48 -5.68434189e-14,45.462 -5.68434189e-14,42.331 L-5.68434189e-14,5.669 C-5.68434189e-14,2.538 2.538,-1.42108547e-14 5.67,-1.42108547e-14 L42.33,-1.42108547e-14 Z M18,36.182 C17.336,36.182 17,35.657 17,34.993 L17,21.844 C17,21.18 17.336,20.656 18,20.656 C18.664,20.656 19,21.18 19,21.844 L19,34.993 C19,35.658 18.664,36.182 18,36.182 Z M33.853,36.858 L34.761,18 L12.519,18 L13.393,36.858 C13.393,38.152 14.442,39 15.737,39 L31.509,39 C32.803,39 33.853,38.152 33.853,36.858 Z M36,14.568 L36,13.239 C36,12.574 35.846,12 35.181,12 L29,12 L29,8.973 C29,8.344 28.536,8 27.872,8 L19.408,8 C18.744,8 18,8.344 18,8.973 L18,12 L12.1,12 C11.435,12 11,12.575 11,13.239 L11,14.568 C11,15.232 11.435,16 12.1,16 L35.217,16 C35.881,16 36,15.198 36,14.568 Z M24,36.182 C23.336,36.182 23,35.657 23,34.993 L23,21.844 C23,21.18 23.336,20.656 24,20.656 C24.664,20.656 25,21.18 25,21.844 L25,34.993 C25,35.658 24.664,36.182 24,36.182 Z M29,36.182 C28.336,36.182 28,35.657 28,34.993 L28,21.844 C28,21.18 28.336,20.656 29,20.656 C29.664,20.656 30,21.18 30,21.844 L30,34.993 C30,35.658 29.664,36.182 29,36.182 Z M20,10 L27,10 L27,12 L20,12 L20,10 Z" id="Combined-Shape" fill="#8EDE3E" fill-rule="nonzero"></path>
    </g>
</svg>