<?xml version="1.0" encoding="UTF-8" standalone="no"?>
<svg width="48px" height="48px" viewBox="0 0 48 48" version="1.1" xmlns="http://www.w3.org/2000/svg" xmlns:xlink="http://www.w3.org/1999/xlink">
    <!-- Generator: Sketch 42 (36781) - http://www.bohemiancoding.com/sketch -->
    <title>Combined Shape</title>
    <desc>Created with Sketch.</desc>
    <defs></defs>
    <g id="Page-1" stroke="none" stroke-width="1" fill="none" fill-rule="evenodd">
        <path d="M0,5.0010033 C0,2.23902544 2.23479023,0 5.0010033,0 L42.9989967,0 C45.7609746,0 48,2.23479023 48,5.0010033 L48,42.9989967 C48,45.7609746 45.7652098,48 42.9989967,48 L5.0010033,48 C2.23902544,48 0,45.7652098 0,42.9989967 L0,5.0010033 Z M26.7923721,32.768 C26.0664186,32.768 25.3910698,32.5376744 24.8295814,32.1443721 C22.1006512,34.5592558 19.2891163,36.3572093 16.476093,37.5010233 C18.7454884,38.9655814 21.4026047,39.8247442 24.256186,39.8247442 C29.5830698,39.8247442 34.2483721,36.8733023 36.9006512,32.4420465 C34.4615814,32.0342326 32.115907,31.4965581 29.8688372,30.8528372 C29.2693953,31.9888372 28.1226047,32.768 26.7923721,32.768 Z M32.7897674,22.8308837 C31.8085581,24.3110698 30.7752558,25.7112558 29.6973023,27.0325581 C30.0868837,27.6219535 30.3164651,28.3341395 30.3164651,29.1021395 C30.3164651,29.1460465 30.3049302,29.1873488 30.3034419,29.2308837 C32.6662326,29.9025116 35.1466047,30.4513488 37.7307907,30.8569302 C37.9596279,30.356093 38.1631628,29.8422326 38.3421395,29.3142326 C36.8846512,27.0805581 35.0215814,24.8997209 32.7897674,22.8308837 Z M36.9051163,15.563907 C35.9190698,17.6115349 34.8463256,19.568 33.6965581,21.419907 C35.7162791,23.275907 37.4684651,25.2215814 38.9125581,27.2223256 C39.1168372,26.1819535 39.2251163,25.1047442 39.2251163,24 C39.2247442,20.8948837 38.3666977,18.007814 36.9051163,15.563907 Z M23.3237209,28.5365581 C21.3635349,27.6978605 19.5231628,26.7683721 17.8223256,25.752186 C17.1890233,26.3854884 16.3324651,26.7806512 15.3869767,26.7806512 C15.1912558,26.7806512 15.0026047,26.7527442 14.8150698,26.7203721 C13.4762791,29.2323721 12.7949767,31.7172093 12.7782326,34.152186 C13.3962791,34.9324651 14.083907,35.6472558 14.8314419,36.2891163 C17.8003721,35.2591628 20.7994419,33.4333023 23.7144186,30.8498605 C23.4394419,30.327814 23.2693953,29.7387907 23.2693953,29.1025116 C23.2693953,28.9082791 23.295814,28.7222326 23.3237209,28.5365581 Z M11.8632558,23.1133023 C11.8632558,22.5793488 11.9793488,22.0755349 12.1773023,21.6174884 C11.3735814,20.8863256 10.6264186,20.1309767 9.94548837,19.3514419 C9.51906977,20.8219535 9.28688372,22.3817674 9.28688372,24 C9.28688372,26.788093 9.97451163,29.403907 11.1711628,31.6792558 C11.487814,29.7670698 12.1657674,27.8429767 13.167814,25.9378605 C12.3782326,25.2647442 11.8632558,24.256 11.8632558,23.1133023 Z M23.7985116,11.6052093 C24.8295814,11.6052093 25.7501395,12.0770233 26.3949767,12.8141395 C27.9473488,11.8437209 29.583814,10.9153488 31.3144186,10.0461395 C29.2102326,8.85432558 26.8091163,8.17488372 24.256186,8.17488372 C21.3013953,8.17488372 18.5549767,9.09209302 16.2346047,10.6537674 C17.932093,11.3454884 19.5629767,12.0993488 21.1384186,12.8948837 C21.7847442,12.1123721 22.7313488,11.6052093 23.7985116,11.6052093 Z M27.1473488,16.3564651 C29.0331163,17.5947907 30.7912558,18.9026977 32.3964651,20.2701395 C33.6247442,18.2712558 34.7618605,16.1495814 35.7940465,13.9192558 C34.995907,12.900093 34.0701395,12.0011163 33.0584186,11.2204651 C30.9873488,12.2191628 29.0372093,13.2952558 27.2217674,14.436093 C27.2820465,14.7062326 27.3222326,14.983814 27.3222326,15.2725581 C27.3222326,15.652093 27.2504186,16.0115349 27.1473488,16.3564651 Z M23.7985116,18.9387907 C23.0848372,18.9387907 22.4217674,18.7136744 21.8662326,18.331907 C20.6528372,19.3611163 19.5395349,20.4230698 18.543814,21.5170233 C18.7707907,22.0018605 18.9099535,22.5387907 18.9099535,23.1133023 C18.9099535,23.544186 18.8251163,23.9523721 18.6933953,24.3367442 C20.3108837,25.2997209 22.0500465,26.1931163 23.9205581,26.9912558 C24.5594419,26.0528372 25.6046512,25.4344186 26.7923721,25.4344186 C27.3862326,25.4344186 27.9384186,25.6026047 28.4303256,25.8746047 C29.500093,24.5573953 30.5285581,23.1627907 31.500093,21.6822326 C29.9253953,20.3333953 28.1925581,19.04 26.3265116,17.816186 C25.6850233,18.5060465 24.7908837,18.9387907 23.7985116,18.9387907 Z M17.3784186,20.0937674 C18.3793488,19.0143256 19.4822326,17.9631628 20.6829767,16.9469767 C20.4314419,16.4424186 20.2755349,15.8783256 20.2755349,15.272186 C20.2755349,14.9715349 20.319814,14.6846512 20.3856744,14.4052093 C18.560186,13.4906047 16.6472558,12.6396279 14.6554419,11.864186 C12.9248372,13.3964651 11.5332093,15.3376744 10.5988837,17.5434419 C11.3553488,18.4922791 12.2249302,19.4035349 13.1774884,20.2816744 C13.784,19.767814 14.5464186,19.4470698 15.3873488,19.4470698 C16.1259535,19.4470698 16.8109767,19.6870698 17.3784186,20.0937674 Z M15.2824186,24.7389767 C16.2431372,24.7389767 17.0219535,23.9601604 17.0219535,22.9994419 C17.0219535,22.0387233 16.2431372,21.259907 15.2824186,21.259907 C14.3217,21.259907 13.5428837,22.0387233 13.5428837,22.9994419 C13.5428837,23.9601604 14.3217,24.7389767 15.2824186,24.7389767 Z M23.8777674,16.9618605 C24.838486,16.9618605 25.6173023,16.1830442 25.6173023,15.2223256 C25.6173023,14.261607 24.838486,13.4827907 23.8777674,13.4827907 C22.9170489,13.4827907 22.1382326,14.261607 22.1382326,15.2223256 C22.1382326,16.1830442 22.9170489,16.9618605 23.8777674,16.9618605 Z M26.691907,30.8271628 C27.6526256,30.8271628 28.4314419,30.0483465 28.4314419,29.0876279 C28.4314419,28.1269093 27.6526256,27.348093 26.691907,27.348093 C25.7311884,27.348093 24.9523721,28.1269093 24.9523721,29.0876279 C24.9523721,30.0483465 25.7311884,30.8271628 26.691907,30.8271628 Z" id="Combined-Shape" fill="#D8D8D8"></path>
    </g>
</svg>