<?xml version="1.0" encoding="UTF-8" standalone="no"?>
<svg width="48px" height="48px" viewBox="0 0 48 48" version="1.1" xmlns="http://www.w3.org/2000/svg" xmlns:xlink="http://www.w3.org/1999/xlink">
    <!-- Generator: Sketch 42 (36781) - http://www.bohemiancoding.com/sketch -->
    <title>Combined Shape</title>
    <desc>Created with Sketch.</desc>
    <defs></defs>
    <g id="Page-1" stroke="none" stroke-width="1" fill="none" fill-rule="evenodd">
        <path d="M42.33,2.84217094e-14 C45.462,2.84217094e-14 48,2.538 48,5.669 L48,42.331 C48,45.462 45.462,48 42.33,48 L5.67,48 C2.538,48 0,45.462 0,42.331 L0,5.669 C0,2.538 2.538,2.84217094e-14 5.67,2.84217094e-14 L42.33,2.84217094e-14 Z M40.439,18.8 C40.434,17.791 39.629,15.174 38.011,14.178 C37.13,16.435 35.047,18.1 32.55,18.365 C31.701,19.471 30.388,20.145 28.979,20.145 C28.727,20.145 28.481,20.141 28.237,20.102 C28.019,20.474 27.886,20.953 27.886,21.414 C25.825,21.414 26.317,23.715 26.63,25.285 C25.375,25.285 24.583,26.001 24.583,28.001 L27.887,28.001 C27.887,25.001 31.798,24.173 32.909,25.285 C35.421,27.796 37.932,25.08 36.677,22.567 C40.445,22.567 40.445,20.056 40.439,18.8 Z M14.661,15.533 C13.455,16.396 12.819,18 12.82,21 L19.091,21 C19.091,17 22.227,20.107 24.317,19.063 C25.69,18.377 25.808,17.108 26.257,16.398 C26.842,17.28 27.842,17.863 28.982,17.863 C30.227,17.863 31.298,17.156 31.851,16.132 C34.807,16.132 37.207,13.733 37.207,10.774 C37.207,7.815 34.809,5.415 31.85,5.415 C29.522,5.415 27.562,6.903 26.823,8.979 C26.081,7.863 24.817,7.125 23.379,7.125 C21.531,7.125 19.986,8.331 19.455,10.003 C19.121,9.918 18.776,9.83 18.415,9.83 C16.129,9.83 14.277,11.632 14.277,13.917 C14.277,14.532 14.42,15.008 14.661,15.533 Z M15.958,34.868 C14.2243782,34.868 12.819,33.4626218 12.819,31.729 C12.819,29.9953782 14.2243782,28.59 15.958,28.59 C17.6916218,28.59 19.097,29.9953782 19.097,31.729 C19.097,33.4626218 17.6916218,34.868 15.958,34.868 Z M40,40 L40,38.999 L32.12,38.999 C29.513,32.999 29.609,29.999 29.609,29.999 L23.33,29.999 C23.33,29.999 23.348,30.717 23.073,32.097 C23.598,33.955 24.306,36.058 25.276,38.324 L25.488,39 L24.121,39 C20.354,30 20.354,24 20.354,24 L11.564,24 C11.564,24 11.564,30 7.796,39 L5,39 L5,40 L40,40 Z" id="Combined-Shape" fill="#444642" fill-rule="nonzero"></path>
    </g>
</svg>