<?xml version="1.0" encoding="UTF-8" standalone="no"?>
<svg width="48px" height="48px" viewBox="0 0 48 48" version="1.1" xmlns="http://www.w3.org/2000/svg" xmlns:xlink="http://www.w3.org/1999/xlink">
    <!-- Generator: Sketch 42 (36781) - http://www.bohemiancoding.com/sketch -->
    <title>Combined Shape</title>
    <desc>Created with Sketch.</desc>
    <defs></defs>
    <g id="Page-1" stroke="none" stroke-width="1" fill="none" fill-rule="evenodd">
        <path d="M42.33,0 L5.67,0 C2.538,0 0,2.538 0,5.669 L0,42.331 C0,45.462 2.538,48 5.67,48 L42.33,48 C45.462,48 48,45.462 48,42.331 L48,5.669 C48,2.538 45.462,0 42.33,0 Z M35.659,20.794 C37.663,26.264 38.22,34.172 23.999,39.9 C9.779,34.171 10.336,26.263 12.34,20.794 C14.108,15.962 11.059,13.918 11.059,13.918 L14.891,9.578 C14.891,9.578 19.318,13.522 23.999,9.574 C28.682,13.522 33.108,9.578 33.108,9.578 L36.94,13.918 C36.94,13.917 33.891,15.962 35.659,20.794 Z M24.303,15.892 C24.259,16.086 24.198,16.163 24.176,16.157 C24.122,16.191 23.955,16.133 23.832,16.081 C23.56,15.977 23.203,15.852 22.866,16.049 C22.553,16.228 22.361,16.592 22.217,17.237 C22.151,17.539 22.043,17.719 21.906,17.824 C21.669,17.975 21.264,17.863 20.881,17.754 C20.391,17.623 19.878,17.487 19.496,17.785 C19.191,18.035 19.049,18.477 19.066,19.205 C19.093,20.612 19.524,21.319 19.758,21.687 C19.776,21.714 19.776,21.714 19.792,21.74 C19.627,21.771 19.366,21.826 19.057,21.894 L18.797,21.948 C18.045,22.076 17.588,22.404 17.414,22.885 C17.039,23.955 18.193,25.478 19.386,26.828 C19.998,27.529 19.958,27.813 19.922,27.873 C19.871,27.998 19.679,28.046 19.632,28.058 C19.403,28.075 18.967,28.204 18.811,28.598 C18.611,29.097 18.955,29.784 19.842,30.682 C20.815,31.689 20.939,32.462 21.029,33.07 C21.084,33.488 21.173,33.885 21.536,34.146 L26.213,14.41 C25.525,14.428 24.558,14.747 24.303,15.892 Z M30.231,19.833 C29.838,19.768 29.425,19.697 29.274,19.461 C29.168,19.325 29.173,19.101 29.24,18.798 C29.379,18.174 29.342,17.736 29.156,17.445 C28.933,17.125 28.537,17.081 28.267,17.067 C28.134,17.06 27.955,17.044 27.923,16.99 C27.906,16.964 27.883,16.868 27.92,16.696 C28.13,15.75 27.66,15.113 27.158,14.747 L22.505,34.387 C23.06,34.365 23.323,34.006 23.575,33.614 C23.914,33.1 24.352,32.452 25.663,31.952 C26.849,31.492 27.425,31.032 27.476,30.502 C27.501,30.077 27.163,29.777 26.977,29.689 C26.977,29.689 26.78,29.555 26.793,29.4 C26.812,29.313 26.896,29.038 27.721,28.679 C29.372,27.961 31.084,27.075 31.2,25.948 C31.245,25.438 30.969,24.948 30.342,24.514 L30.129,24.354 C29.874,24.183 29.659,24.023 29.529,23.904 C29.555,23.887 29.555,23.887 29.582,23.87 C29.95,23.637 30.64,23.18 31.26,21.915 C31.585,21.265 31.643,20.802 31.472,20.447 C31.254,20.014 30.732,19.921 30.231,19.833 Z" id="Combined-Shape" fill="#444642" fill-rule="nonzero"></path>
    </g>
</svg>