<?xml version="1.0" encoding="UTF-8" standalone="no"?>
<svg width="48px" height="48px" viewBox="0 0 48 48" version="1.1" xmlns="http://www.w3.org/2000/svg" xmlns:xlink="http://www.w3.org/1999/xlink">
    <!-- Generator: Sketch 42 (36781) - http://www.bohemiancoding.com/sketch -->
    <title>Combined Shape</title>
    <desc>Created with Sketch.</desc>
    <defs></defs>
    <g id="Page-1" stroke="none" stroke-width="1" fill="none" fill-rule="evenodd">
        <path d="M0,5.0010033 C0,2.23902544 2.23479023,0 5.0010033,0 L42.9989967,0 C45.7609746,0 48,2.23479023 48,5.0010033 L48,42.9989967 C48,45.7609746 45.7652098,48 42.9989967,48 L5.0010033,48 C2.23902544,48 0,45.7652098 0,42.9989967 L0,5.0010033 Z M32.2769248,9.79331098 C31.7897636,9.60984791 31.357886,9.370512 30.1320851,9.22874509 C29.1689856,9.11783332 27.5990129,9.15702771 26.631341,10.5446756 C25.7804715,11.765122 25.6832055,13.8641062 27.8159908,16.4521864 C29.9483605,19.0411004 30.9347374,19.5456238 29.4483136,20.5038014 C29.4483136,20.5038014 30.0102948,24.2118402 33.0076667,25.7462585 C33.0076667,25.7462585 33.6864503,25.6603645 34.6773995,24.2685469 C35.667933,22.8775633 35.1209157,19.858345 35.1209157,19.858345 C35.1209157,19.858345 33.6714863,18.9005844 32.0237839,17.3486536 C30.7206691,16.1223698 29.8934925,14.9957398 29.8934925,14.9957398 C27.9211545,11.6467049 30.4704378,10.865319 32.0553745,10.7156298 C33.0978664,10.6172269 33.567154,9.73577029 33.3722063,9.77746644 C33.1585537,9.82374917 32.7632547,9.97594012 32.2769248,9.79331098 Z M35.6680161,13.4958875 L36.1227554,13.5480077 C36.0836827,13.8736547 36.1809487,14.3560791 36.1809487,14.3560791 C35.8143307,14.1867928 35.6680161,13.4958875 35.6680161,13.4958875 Z M33.2446798,12.5643955 C33.1316185,12.5072718 32.9379179,12.5147771 32.6926746,12.4539007 C32.6731382,12.4488972 32.185977,12.2195683 32.3817559,11.8234549 C32.4873353,11.6099706 32.7974225,11.5232426 33.0376778,11.6587551 C33.3988921,11.8618154 33.3136805,12.3229748 33.3673015,12.4539007 C33.4491878,12.6536253 33.3581568,12.624438 33.2446798,12.5643955 Z M36.3970953,13.19776 C36.3970953,13.19776 35.6297748,13.0993571 34.9688649,12.7853851 C33.7925284,12.2270736 32.9449842,10.7627048 32.9449842,10.7627048 C32.9449842,10.7627048 31.6127727,11.0921044 30.6692095,11.4569457 C29.0967428,12.0648756 29.7863337,13.5972092 29.7863337,13.5972092 C29.7863337,13.5972092 30.3212966,13.0735055 31.1418225,12.9659294 C32.6627466,12.9225654 33.6790514,13.8874144 34.9634612,14.6858957 C36.245377,15.4831261 37.2047355,15.495218 37.2047355,15.495218 C36.4253607,14.7713728 36.3970953,13.19776 36.3970953,13.19776 Z M36.6284138,13.090726 C36.6371428,13.5527194 36.9264467,14.6935261 37.6035676,15.4624031 C38.2823512,16.2296123 38.2204169,17.0368498 38.2204169,17.0368498 C38.2204169,17.0368498 38.7595365,16.7679096 39.0525814,16.135379 C39.4266814,15.2460001 39.2221734,13.9934477 38.3642375,13.3342316 C37.480946,12.6562521 36.6284138,13.090726 36.6284138,13.090726 Z M37.5019787,15.8478007 C36.2466656,15.9570446 34.6750302,14.7382661 34.6750302,14.7382661 C35.4689534,15.5184011 35.6535093,16.4498931 35.6535093,16.4498931 C35.6535093,16.4498931 35.8538606,16.7413492 36.4765292,16.7792927 C37.3939054,16.8372503 37.5019787,15.8478007 37.5019787,15.8478007 Z M31.0867466,15.8820332 C32.1932511,14.8846612 35.271678,16.2673056 35.271678,16.2673056 C34.2844698,14.1695723 32.6471591,13.4503136 31.4275932,13.4127871 C30.2076118,13.3735927 29.7416495,14.0248866 30.2479314,14.8454669 C30.7554604,15.6652132 31.0867466,15.8820332 31.0867466,15.8820332 Z M26.0484102,27.4237781 C25.7840462,27.7444215 25.1193953,27.8411566 25.1193953,27.8411566 C25.1193953,27.8411566 25.0391717,27.5943154 25.124799,27.1173114 C25.2104263,26.6398904 26.0571392,26.2929785 26.0571392,26.2929785 C26.0301208,26.7958341 26.5542764,26.8321097 26.5542764,26.8321097 C26.5542764,26.8321097 26.3127741,27.1052195 26.0484102,27.4237781 Z M24.2257121,26.2508654 C24.2257121,26.2508654 24.5357994,25.7254938 24.6904274,25.6604478 C24.8446397,25.5979036 25.5866046,25.5812252 25.5866046,25.5812252 C25.4307296,25.951487 25.8272755,26.168307 25.8272755,26.168307 C25.8272755,26.168307 25.142257,26.5198055 24.7827054,26.4751906 C24.4219068,26.4318266 24.2257121,26.2508654 24.2257121,26.2508654 Z M23.3856499,29.3042745 C22.5094247,29.3955891 21.4548785,28.7563871 21.4548785,28.7563871 C22.0742218,28.4820264 24.1005965,27.7965417 24.707054,27.2390641 C24.5424501,28.3698638 25.4136873,28.1317787 25.4136873,28.1317787 C25.4136873,28.1317787 25.16595,28.8126769 23.3856499,29.3042745 Z M20.2502767,27.1027177 C20.2502767,27.1027177 20.2777107,26.9317635 21.4548785,26.5114663 C21.7990505,26.3884627 23.3345229,25.9815082 23.8669918,26.0473881 C23.8669918,26.0473881 23.8408048,26.6911767 24.2826584,26.7224488 C24.2826584,26.7224488 23.6766165,27.7702731 21.5400902,27.8453262 C20.9693799,27.8077996 20.2502767,27.1027177 20.2502767,27.1027177 Z M19.7988628,24.608037 C19.7988628,24.608037 20.5832257,24.4212382 21.3127206,24.3774573 C21.6789228,24.3557753 23.4708616,24.0955913 23.9546975,24.3307576 C23.9546975,24.3307576 23.3199746,24.7835778 23.8532748,25.3039458 C23.8532748,25.3039458 22.5680337,26.0473881 20.7478296,25.7279956 C20.0511724,25.5366103 19.7988628,24.608037 19.7988628,24.608037 Z M21.9973235,22.1817379 C22.3481461,22.2909818 23.6130195,22.4907064 24.0029148,22.733795 C24.0029148,22.733795 23.7734669,22.8384523 23.7169362,23.1249049 C23.6674719,23.3721631 24.0008365,23.7828701 24.0008365,23.7828701 C24.0008365,23.7828701 22.703541,24.4170686 21.3160459,23.3721631 C20.928229,23.079873 21.1123693,22.0462254 21.1123693,22.0462254 C21.1123693,22.0462254 21.6456695,22.0687414 21.9973235,22.1817379 Z M24.6779574,24.4387506 L25.4419526,24.4441711 C25.1763416,24.9503624 25.5890986,25.1867796 25.5890986,25.1867796 C25.5890986,25.1867796 24.8014104,25.290186 24.5391247,25.2985253 C24.2772548,25.3051966 23.9962642,24.93285 23.9962642,24.93285 C24.1313558,24.5175563 24.6779574,24.4387506 24.6779574,24.4387506 Z M24.6010591,22.9422757 C24.9506347,22.9451945 25.8488902,23.3775836 25.8488902,23.3775836 C25.2586436,23.5118452 25.5757972,24.0714075 25.5757972,24.0714075 C24.9668457,24.1276973 24.4189971,23.8183119 24.2452484,23.6853012 C24.0723311,23.5522904 24.0087342,23.2462407 24.0087342,23.2462407 C24.0087342,23.2462407 24.2510678,22.939357 24.6010591,22.9422757 Z M28.9426967,20.5526693 C28.9426967,20.5526693 25.6522799,18.9123427 24.4701241,18.6467382 C22.3340134,18.1697342 18.4130303,20.1640612 15.8363131,22.8880707 C13.2591801,25.6129142 15.3196395,27.7957078 17.2341999,29.7124798 C19.4122929,31.8973582 20.3417234,32.7884049 22.1985061,34.6939191 C22.5996244,35.105877 24.0690058,34.7122654 24.3287974,34.315735 C24.5885891,33.9200385 24.6368064,31.8752592 26.6793921,31.2027003 C29.615661,30.2378514 32.0319309,29.1962815 32.3898199,26.5343992 C32.3898199,26.5343992 29.5516483,24.5454928 28.9426967,20.5526693 Z M28.2842393,30.9064908 C28.2842393,30.9064908 30.2042033,31.78211 30.5816286,31.7399969 C30.9598852,31.6978838 32.2201863,30.9823778 32.093408,30.5187166 C31.967461,30.0554724 31.4794684,29.1344044 31.4794684,29.1344044 C31.4794684,29.1344044 30.9594695,29.6814579 30.3359696,30.0988364 C29.713301,30.5157979 28.2842393,30.9064908 28.2842393,30.9064908 Z M32.2622934,31.093373 C32.2622934,31.093373 32.0627734,31.5674582 30.9504496,31.9147872 C30.9504496,31.9147872 32.9547939,32.7883215 32.600646,33.1740109 C32.40362,33.3916649 31.9896161,33.1464915 31.5697928,33.3257849 C30.4154866,33.8177995 31.1063245,35.3551366 31.6267391,35.1595817 C31.6267391,35.1595817 31.7468668,34.3923725 33.9054234,33.9666548 C35.9937325,33.5546968 37.9128652,32.8875584 38.7042944,32.2833812 C38.7042944,32.2833812 37.8891722,30.930341 36.8662167,31.5566172 C35.0119279,32.6936713 34.4761337,32.4935298 33.9931291,32.2938052 C32.8808053,31.8326458 32.2622934,31.093373 32.2622934,31.093373 Z M24.4060283,34.8529482 C24.4060283,34.8529482 23.8457097,35.5663693 22.5226429,35.3245317 C22.5226429,35.3245317 24.1242063,36.9465119 23.7987394,37.0399113 C23.5169174,37.1199679 23.1981011,36.8993953 22.5193176,36.8193387 C21.2739804,36.6704834 21.2448838,38.5860046 21.7997987,38.5826689 C21.7997987,38.5826689 22.5770952,37.888011 24.7510316,38.2332552 C26.8513949,38.5680753 29.3541235,38.5021954 30.3039217,38.2082375 C30.3039217,38.2082375 30.0054731,36.6650629 28.8299679,36.89189 C26.3559203,37.3701448 26.3446973,37.1558266 25.8837231,36.880632 C24.8462192,36.2676986 24.4060283,34.8529482 24.4060283,34.8529482 Z M13.1724721,19.6143391 C12.8046071,19.3950173 12.1894206,19.0476884 12.1894206,19.0476884 C12.1894206,19.0476884 11.7371753,19.8912015 12.3777175,20.9782202 C12.6308585,21.4064397 13.5956207,23.0054871 14.2448919,23.3724132 C14.2507112,21.9972742 13.1292427,20.5012162 13.1292427,20.5012162 C14.6231485,21.8947016 14.9340671,22.8257767 14.9340671,22.8257767 C14.9340671,22.8257767 15.5870794,21.0541072 13.1724721,19.6143391 Z M10.9179796,22.7284996 C12.9077756,23.0249592 13.7943924,23.85096 13.8172541,23.872642 L13.8342964,23.8255253 C13.8342964,23.8255253 12.5149706,21.6143784 9.70423307,21.6006187 C9.27401814,21.5981169 8.57154158,21.6122936 8.57154158,21.6122936 C8.57154158,21.6122936 8.39155794,22.3970152 9.70423307,23.1804858 C10.1352793,23.4377511 12.8130036,24.6861339 13.5466552,24.6486073 C12.8030276,23.4669384 10.9179796,22.7284996 10.9179796,22.7284996 Z M13.8909934,26.2906018 C12.6032582,25.7606437 10.5989139,26.2639162 10.5989139,26.2639162 C12.4124673,25.334509 13.7683717,25.4925374 13.7683717,25.4925374 C13.7683717,25.4925374 11.5229407,24.2287271 9.15779776,25.7539723 C8.79658348,25.985386 8.2138189,26.3806655 8.2138189,26.3806655 C8.2138189,26.3806655 8.76748682,27.2220938 10.0169806,27.0769912 C10.5145335,27.0177827 13.3809704,26.7684397 13.9745424,26.3385524 L13.9683074,26.3197891 C13.941289,26.3093651 13.9209214,26.3035276 13.8909934,26.2906018 Z M11.7663551,28.5390668 C13.3770632,27.290684 14.2840477,27.2514896 14.2840477,27.2514896 C14.2840477,27.2514896 12.1811904,26.391298 10.7288512,28.80759 C10.5073009,29.17535 10.158141,29.7874495 10.158141,29.7874495 C10.158141,29.7874495 11.6387454,29.8495768 12.0797677,29.6148275 C12.524531,29.3784103 14.498116,28.569088 14.842288,27.9202959 C13.4851365,27.6359281 11.7663551,28.5390668 11.7663551,28.5390668 Z" id="Combined-Shape" fill="#D8D8D8"></path>
    </g>
</svg>