<?xml version="1.0" encoding="UTF-8" standalone="no"?>
<svg width="48px" height="48px" viewBox="0 0 48 48" version="1.1" xmlns="http://www.w3.org/2000/svg" xmlns:xlink="http://www.w3.org/1999/xlink">
    <!-- Generator: Sketch 42 (36781) - http://www.bohemiancoding.com/sketch -->
    <title>Combined Shape</title>
    <desc>Created with Sketch.</desc>
    <defs></defs>
    <g id="Page-1" stroke="none" stroke-width="1" fill="none" fill-rule="evenodd">
        <path d="M48,5.669 L48,5.669 L48,42.331 C48,45.462 45.462,48 42.33,48 L5.67,48 C2.538,48 -5.68434189e-14,45.462 -5.68434189e-14,42.331 L-5.68434189e-14,5.669 C-5.68434189e-14,2.538 2.538,0 5.67,0 L42.33,0 C45.462,0 48,2.538 48,5.669 Z M37.62,38.804 C38.412,38.797 39.052,38.15 39.045,37.356 L38.855,10.054 C38.851,9.542 38.574,9.07 38.127,8.816 C37.681,8.562 37.133,8.566 36.691,8.826 C36.248,9.086 35.978,9.562 35.981,10.076 L35.988,11.298 L9.643,20.731 L9.639,20.258 C9.634,19.464 8.986,18.826 8.193,18.832 C7.399,18.837 6.76,19.484 6.767,20.279 L6.815,27.536 C6.819,28.049 7.096,28.521 7.542,28.774 C7.989,29.028 8.537,29.024 8.98,28.765 C9.421,28.504 9.692,28.028 9.689,27.514 L9.668,26.803 L14.333,28.403 L14.351,30.326 C14.346,33.253 16.441,35.762 19.322,36.28 C22.202,36.799 25.04,35.177 26.056,32.432 L36.162,35.902 L36.172,37.377 C36.179,38.17 36.825,38.809 37.62,38.804 Z M34.375,15.139 C34.507,15.23 34.585,15.381 34.584,15.541 L34.622,18.956 C34.626,19.36 34.331,19.704 33.932,19.765 L13.456,22.914 C13.341,22.921 13.236,22.845 13.207,22.734 C13.18,22.623 13.235,22.506 13.339,22.457 L33.925,15.082 C34.075,15.027 34.243,15.047 34.375,15.139 Z M17.23,30.299 L17.222,29.381 L23.341,31.486 C22.852,32.669 21.699,33.442 20.42,33.448 C18.67,33.456 17.244,32.049 17.23,30.299 Z" id="Combined-Shape" fill="#7ED321" fill-rule="nonzero"></path>
    </g>
</svg>