<?xml version="1.0" encoding="UTF-8" standalone="no"?>
<svg width="48px" height="48px" viewBox="0 0 48 48" version="1.1" xmlns="http://www.w3.org/2000/svg" xmlns:xlink="http://www.w3.org/1999/xlink">
    <!-- Generator: Sketch 42 (36781) - http://www.bohemiancoding.com/sketch -->
    <title>Combined Shape</title>
    <desc>Created with Sketch.</desc>
    <defs></defs>
    <g id="Page-1" stroke="none" stroke-width="1" fill="none" fill-rule="evenodd">
        <path d="M0,5.0010033 C0,2.23902544 2.23479023,0 5.0010033,0 L42.9989967,0 C45.7609746,0 48,2.23479023 48,5.0010033 L48,42.9989967 C48,45.7609746 45.7652098,48 42.9989967,48 L5.0010033,48 C2.23902544,48 0,45.7652098 0,42.9989967 L0,5.0010033 Z M38.1865934,12.9195165 C36.3767473,11.1092967 33.9608791,10.1124615 31.383978,10.1124615 C28.8074505,10.1124615 26.3915824,11.1092967 24.5813626,12.9195165 L24.1868132,13.3144396 L23.7918901,12.9195165 C21.982044,11.1092967 19.5661758,10.1124615 16.9892747,10.1124615 C14.4127473,10.1124615 11.9968791,11.1092967 10.1866593,12.9195165 C6.43545055,16.6703516 6.43545055,22.7735385 10.1866593,26.5243736 L24.1868132,40.5245275 L38.1865934,26.5243736 C41.9378022,22.7735385 41.9378022,16.6707253 38.1865934,12.9195165 Z M37.1751868,25.5133407 L24.1868132,38.5017143 L11.1980659,25.5133407 C8.00505495,22.3203297 8.00505495,17.1243077 11.1980659,13.9309231 C12.7381538,12.3912088 14.7945934,11.5430769 16.9892747,11.5430769 C19.183956,11.5430769 21.2403956,12.3912088 22.7804835,13.9309231 L24.1868132,15.3372527 L25.5931429,13.9309231 C27.1332308,12.3912088 29.1896703,11.5430769 31.3843516,11.5430769 C33.579033,11.5430769 35.6354725,12.3912088 37.1755604,13.9309231 C40.3685714,17.1243077 40.3685714,22.319956 37.1751868,25.5133407 Z M17.4637802,14.2522418 C17.7716484,13.9443736 17.8624396,13.4844396 17.6950549,13.0805495 C17.5299121,12.6818901 17.1480659,12.4240879 16.6937363,12.4240879 L16.6918681,12.4240879 L16.653011,12.4252088 C16.4109011,12.4405275 16.1826154,12.544022 16.0103736,12.7162637 L9.97967033,18.7477143 C9.80032967,18.9270549 9.69571429,19.1631868 9.68562637,19.4123956 C9.68301099,19.4785275 9.68114286,19.5446593 9.68002198,19.6111648 C9.67628571,19.8805495 9.77716484,20.1331209 9.96397802,20.3225495 C10.1522857,20.5134725 10.4145714,20.6233187 10.6832088,20.6233187 C10.9477363,20.6233187 11.1973187,20.5190769 11.3863736,20.330022 L17.4637802,14.2522418 Z M21.9798022,14.4147692 L21.9525275,14.3815165 C21.9058242,14.3243516 21.8333407,14.2402857 21.8322198,14.2391648 L21.8000879,14.2092747 C21.4245934,13.8883297 20.7289011,13.9757582 20.3552747,14.3493846 L11.5298462,23.1751868 C11.1681758,23.5364835 11.1401538,24.1204615 11.4614725,24.5146374 L11.4812747,24.5381758 C11.6901319,24.7802857 11.9938901,24.9192747 12.3152088,24.9192747 C12.6114945,24.9192747 12.8902198,24.8038242 13.0998242,24.5942198 L21.8617363,15.8323077 C22.2783297,15.4160879 22.2615165,14.7330989 21.9798022,14.4147692 Z M28.5081758,14.3045495 C28.3512527,13.9249451 27.978,13.6701319 27.5800879,13.6701319 C27.3674945,13.6701319 27.1608791,13.7407473 26.9822857,13.8745055 C26.7095385,14.0792527 26.4491209,14.3049231 26.2085055,14.5459121 L24.1868132,16.5676044 L24.1513187,16.5317363 L14.5057802,26.1772747 C14.1160879,26.5665934 14.1160879,27.2006374 14.5057802,27.5903297 L14.5872308,27.6717802 C14.7759121,27.8604615 15.026989,27.9643297 15.2937582,27.9643297 C15.5605275,27.9643297 15.8116044,27.8604615 16.0002857,27.6717802 L28.2866154,15.3854505 C28.5784176,15.0936484 28.6636044,14.6792967 28.5081758,14.3045495 Z M35.1658242,13.8976703 C35.1157582,13.5838242 34.916989,13.3107033 34.633033,13.1668571 L34.4914286,13.0973626 C34.1234066,12.9217582 33.6552527,13.0058242 33.3634505,13.298 L17.4947912,29.1662857 C17.1050989,29.5556044 17.1050989,30.1896484 17.4947912,30.5793407 L17.5762418,30.6607912 C17.7649231,30.8494725 18.016,30.9533407 18.2827692,30.9533407 C18.5495385,30.9533407 18.8006154,30.8494725 18.9892967,30.6607912 L34.8844835,14.7656044 C35.1112747,14.5391868 35.2162637,14.2145055 35.1658242,13.8976703 Z M38.0371429,16.6737143 C38.0147253,16.6255165 37.9911868,16.5773187 37.9676484,16.5298681 C37.7991429,16.1898681 37.4569011,15.9787692 37.0750549,15.9787692 C36.8071648,15.9787692 36.5557143,16.083011 36.3666593,16.2724396 L20.4838022,32.1552967 C20.0944835,32.5446154 20.0944835,33.1786593 20.4838022,33.5683516 L20.5652527,33.6498022 C20.7539341,33.8384835 21.005011,33.9423516 21.2717802,33.9423516 C21.5385495,33.9423516 21.7896264,33.8384835 21.9783077,33.6498022 L37.8331429,17.794967 C38.1301758,17.4983077 38.2123736,17.0473407 38.0371429,16.6737143 Z M36.9072967,22.0827033 C36.6401538,22.0827033 36.3842198,22.1914286 36.1865714,22.3890769 L23.4817802,35.0946154 C23.2871209,35.2889011 23.1802637,35.5470769 23.1802637,35.8216923 C23.1802637,36.0963077 23.2871209,36.3544835 23.4892527,36.5562418 C23.6831648,36.7505275 23.9413407,36.8573846 24.2163297,36.8573846 C24.4909451,36.8573846 24.7491209,36.7505275 24.943033,36.5562418 L37.3750769,24.1241978 C37.4849231,24.0147253 37.5902857,23.9026374 37.6919121,23.7883077 C37.9654066,23.4796923 38.0307912,23.0769231 37.866022,22.7111429 C37.6971429,22.3352747 37.3119341,22.0827033 36.9072967,22.0827033 Z" id="Combined-Shape" fill="#D8D8D8"></path>
    </g>
</svg>