<?xml version="1.0" encoding="UTF-8" standalone="no"?>
<svg width="48px" height="48px" viewBox="0 0 48 48" version="1.1" xmlns="http://www.w3.org/2000/svg" xmlns:xlink="http://www.w3.org/1999/xlink">
    <!-- Generator: Sketch 42 (36781) - http://www.bohemiancoding.com/sketch -->
    <title>Combined Shape</title>
    <desc>Created with Sketch.</desc>
    <defs></defs>
    <g id="Page-1" stroke="none" stroke-width="1" fill="none" fill-rule="evenodd">
        <path d="M42.33,-1.42108547e-14 C45.462,-1.42108547e-14 48,2.538 48,5.669 L48,42.331 C48,45.462 45.462,48 42.33,48 L5.67,48 C2.538,48 0,45.462 0,42.331 L0,5.669 C0,2.538 2.538,-1.42108547e-14 5.67,-1.42108547e-14 L42.33,-1.42108547e-14 Z M9.25,27.015 L10.849,27.015 L10.849,28.613 L9.25,28.613 L9.25,27.015 Z M16.319,22.227 L17.918,22.227 L17.918,23.825 L16.319,23.825 L16.319,22.227 Z M15.967,28.612 L17.566,28.612 L17.566,30.21 L15.967,30.21 L15.967,28.612 Z M12.989,25.177 L14.588,25.177 L14.588,26.775 L12.989,26.775 L12.989,25.177 Z M15.52,17.556 L17.119,17.556 L17.119,19.154 L15.52,19.154 L15.52,17.556 Z M11.875,20.508 L13.474,20.508 L13.474,22.106 L11.875,22.106 L11.875,20.508 Z M11.543,31.262 L13.142,31.262 L13.142,32.86 L11.543,32.86 L11.543,31.262 Z M21,28.43 C21,24.072 21.142,20.309 20.676,17.619 C20.477,16.457 20.008,12.922 17.028,12.922 C11.455,12.922 5.485,23.829 5.485,31.506 C5.485,34.21 5.933,37.809 9.809,37.809 C10.572,37.809 11.283,37.67 12.276,37.383 C15.153,36.555 21,34.828 21,28.737 L21,28.43 Z M26.005,17.412 C26.089,16.922 26.076,16.465 26.196,16.037 C25.551,15.688 25.001,15.115 25.001,14.477 L25.001,10 L23.001,10 L23.001,14.476 C23.001,15.114 22.462,15.687 21.819,16.037 C21.937,16.465 21.988,16.922 22.072,17.412 C22.13,17.756 22.157,18.114 22.202,18.487 C22.91,18.229 23.527,17.836 24.024,17.333 C24.521,17.836 25.143,18.228 25.852,18.487 C25.897,18.114 25.946,17.756 26.005,17.412 Z M30.114,22.227 L31.713,22.227 L31.713,23.825 L30.114,23.825 L30.114,22.227 Z M30.466,28.612 L32.065,28.612 L32.065,30.21 L30.466,30.21 L30.466,28.612 Z M41.651,36.039 C42.268,35.02 42.552,33.537 42.552,31.506 C42.552,23.829 36.565,12.922 30.991,12.922 C28.012,12.922 27.533,16.457 27.332,17.619 C26.868,20.309 27,24.073 27,28.43 L27,28.737 C27,34.827 32.856,36.554 35.734,37.383 C36.725,37.668 37.513,37.809 38.277,37.809 C39.824,37.809 40.937,37.213 41.651,36.039 Z M34.558,20.508 L36.157,20.508 L36.157,22.106 L34.558,22.106 L34.558,20.508 Z M33.443,25.177 L35.042,25.177 L35.042,26.775 L33.443,26.775 L33.443,25.177 Z M34.889,31.262 L36.488,31.262 L36.488,32.86 L34.889,32.86 L34.889,31.262 Z M30.913,17.556 L32.512,17.556 L32.512,19.154 L30.913,19.154 L30.913,17.556 Z M37.183,27.015 L38.782,27.015 L38.782,28.613 L37.183,28.613 L37.183,27.015 Z" id="Combined-Shape" fill="#8DF823" fill-rule="nonzero"></path>
    </g>
</svg>