<?xml version="1.0" encoding="UTF-8" standalone="no"?>
<svg width="48px" height="48px" viewBox="0 0 48 48" version="1.1" xmlns="http://www.w3.org/2000/svg" xmlns:xlink="http://www.w3.org/1999/xlink">
    <!-- Generator: Sketch 42 (36781) - http://www.bohemiancoding.com/sketch -->
    <title>Combined Shape</title>
    <desc>Created with Sketch.</desc>
    <defs></defs>
    <g id="Page-1" stroke="none" stroke-width="1" fill="none" fill-rule="evenodd">
        <path d="M0,5.0010033 C0,2.23902544 2.23479023,0 5.0010033,0 L42.9989967,0 C45.7609746,0 48,2.23479023 48,5.0010033 L48,42.9989967 C48,45.7609746 45.7652098,48 42.9989967,48 L5.0010033,48 C2.23902544,48 0,45.7652098 0,42.9989967 L0,5.0010033 Z M14.114975,33.2084329 L14.114975,33.2084329 C14.3991201,33.4965876 14.7930227,33.6493274 15.1971504,33.6280575 C15.6012781,33.6067876 15.976971,33.4135428 16.229298,33.0971528 C16.6860644,32.5326776 16.6456343,31.7150918 16.1354053,31.1984351 C14.9578128,29.9916306 14.0706257,28.53241 13.5411867,26.9315366 C13.3185297,26.2418021 12.6138413,25.8288637 11.9032819,25.9717453 C11.508489,26.0492483 11.1653371,26.2911074 10.9596109,26.6368601 C10.7538848,26.9826127 10.7050284,27.3995805 10.8252554,27.7835253 C11.4906667,29.8204694 12.6163421,31.676763 14.114975,33.2084329 Z M33.9645729,33.2084329 C35.4631066,31.6766861 36.5887672,29.820417 37.2542925,27.7835253 C37.3745647,27.4000804 37.3261643,26.9835851 37.1211653,26.6379395 C36.9161663,26.292294 36.573898,26.0500888 36.1797435,25.9717453 C35.4691842,25.8288637 34.7644957,26.2418021 34.5418387,26.9315366 C34.0123997,28.53241 33.1252126,29.9916306 31.9476201,31.1984351 C31.3916143,31.7534807 31.3908358,32.6541658 31.9458814,33.2101716 C32.5009269,33.7661775 33.401612,33.766956 33.9576179,33.2119105 L33.9645729,33.2084329 Z M28.1745273,11.7939578 C28.3112474,11.4137438 28.2798031,10.9933245 28.088046,10.6376782 C27.896289,10.2820319 27.5623191,10.0247281 27.1695284,9.93001521 C25.1096836,9.45832747 22.9698643,9.45832747 20.9100196,9.93001521 C20.1417904,10.1047873 19.6606984,10.8692409 19.8354705,11.6374701 C20.0102427,12.4056993 20.7746963,12.8867913 21.5429255,12.7120191 C23.1805503,12.3374541 24.8816101,12.3374541 26.5192349,12.7120191 C27.2245712,12.8742348 27.9386501,12.4781911 28.1745273,11.7939578 L28.1745273,11.7939578 Z M31.3042817,11.7452728 C31.3014675,13.2607239 32.2121874,14.6285194 33.6114749,15.2104085 C35.0107623,15.7922976 36.6228103,15.4735869 37.6953934,14.4029957 C38.7679764,13.3324044 39.0896829,11.7209515 38.5103957,10.320585 C37.9311085,8.9202184 36.5650082,8.00695762 35.0495544,8.00695501 C32.9838105,8.00695145 31.3081178,9.67953235 31.3042817,11.7452728 L31.3042817,11.7452728 Z M37.1464899,16.4086068 L35.4946751,18.4742447 C35.3871289,18.6092708 35.2239148,18.6879315 35.0512932,18.6879315 C34.8786716,18.6879315 34.7154575,18.6092708 34.6079113,18.4742447 L32.9560965,16.4120843 C32.8041296,16.2248455 32.5541299,16.1479225 32.3231906,16.2173441 C30.3648255,16.7981009 29.0219259,18.5980675 29.0230385,20.6407303 L29.0230385,21.7083243 C29.0230385,22.3056225 29.5072443,22.7898283 30.1045425,22.7898283 L39.9980439,22.7898283 C40.5953421,22.7898283 41.0795479,22.3056225 41.0795479,21.7083243 L41.0795479,20.6372528 C41.0806605,18.59459 39.7377609,16.7946234 37.7793958,16.2138666 C37.5484564,16.144445 37.2984568,16.221368 37.1464899,16.4086068 L37.1464899,16.4086068 Z M13.0299935,15.4905455 C15.0984505,15.4905455 16.7752662,13.8137298 16.7752662,11.7452728 C16.7752662,9.67681573 15.0984505,8 13.0299935,8 C10.9615364,8 9.28472071,9.67681573 9.28472071,11.7452728 C9.28472071,13.8137298 10.9615364,15.4905455 13.0299935,15.4905455 Z M8.08150402,22.7933058 L17.9750054,22.7933058 C18.5723036,22.7933058 19.0565095,22.3091 19.0565095,21.7118018 L19.0565095,20.6372528 C19.057622,18.59459 17.7147224,16.7946234 15.7563573,16.2138666 C15.525418,16.144445 15.2754183,16.221368 15.1234514,16.4086068 L13.4716366,18.4742447 C13.3640905,18.6092708 13.2008763,18.6879315 13.0282547,18.6879315 C12.8556331,18.6879315 12.692419,18.6092708 12.5848729,18.4742447 L10.933058,16.4120843 C10.7810911,16.2248455 10.5310915,16.1479225 10.3001521,16.2173441 C8.34302119,16.7977352 7.00042754,18.5958769 7,20.6372528 L7,21.7083243 C7,21.995157 7.11394385,22.2702418 7.31676519,22.4730631 C7.51958654,22.6758845 7.79467132,22.7898283 8.08150402,22.7898283 L8.08150402,22.7933058 Z M24.039774,25.2275592 C22.5240044,25.2275651 21.1576867,26.1412044 20.5786062,27.5419982 C19.9995258,28.9427919 20.3218722,30.5545158 21.3951769,31.6248308 C22.4684816,32.6951458 24.0810983,33.0129952 25.4802713,32.4300096 C26.8794444,31.847024 27.7892689,30.4781631 27.7850467,28.9623995 C27.7850467,27.9690914 27.3904566,27.0164666 26.6880817,26.3140917 C25.9857068,25.6117168 25.0330821,25.2171267 24.039774,25.2171267 L24.039774,25.2275592 Z M18.0097805,37.8543795 L18.0097805,38.9289285 C18.0155031,39.5221485 18.4980369,40.0000276 19.0912845,40 L28.9882634,40 C29.5855616,40 30.0697674,39.5157942 30.0697674,38.918496 L30.0697674,37.8543795 C30.07088,35.8117167 28.7279804,34.0117501 26.7696153,33.4309933 C26.538676,33.3615717 26.2886763,33.4384947 26.1367094,33.6257335 L24.4848946,35.6878939 C24.3773484,35.82292 24.2141343,35.9015807 24.0415127,35.9015807 C23.8688911,35.9015807 23.705677,35.82292 23.5981308,35.6878939 L21.953271,33.629211 C21.8013041,33.4419722 21.5513045,33.3650492 21.3203651,33.4344708 C19.3591009,34.0110568 18.0115745,35.8101179 18.0097805,37.8543795 L18.0097805,37.8543795 Z" id="Combined-Shape" fill="#444642"></path>
    </g>
</svg>