<?xml version="1.0" encoding="UTF-8" standalone="no"?>
<svg width="48px" height="48px" viewBox="0 0 48 48" version="1.1" xmlns="http://www.w3.org/2000/svg" xmlns:xlink="http://www.w3.org/1999/xlink">
    <!-- Generator: Sketch 42 (36781) - http://www.bohemiancoding.com/sketch -->
    <title>Shape</title>
    <desc>Created with Sketch.</desc>
    <defs></defs>
    <g id="Page-1" stroke="none" stroke-width="1" fill="none" fill-rule="evenodd" opacity="0.599999964">
        <g id="Homepage" transform="translate(-434.000000, -2197.000000)" fill="#FFFFFF">
            <path d="M456.48,2218.17333 C455.866667,2220.14667 454.986667,2222.25333 453.786667,2224.57333 C453.253333,2225.58667 452.666667,2226.54667 452.453333,2227.34667 L452.746667,2227.24 L452.746667,2227.24 C456.133333,2225.93333 459.333333,2225.18667 461.653333,2224.76 C461.253333,2224.49333 460.88,2224.2 460.56,2223.90667 C458.96,2222.54667 457.573333,2220.57333 456.48,2218.17333 L456.48,2218.17333 Z M473.76,2228.33333 C473.306667,2228.84 472.506667,2229.13333 471.333333,2229.13333 C469.306667,2229.13333 466,2228.52 463.333333,2227.16 C458.746667,2227.66667 455.333333,2228.28 452.586667,2229.16 C452.453333,2229.21333 452.293333,2229.26667 452.106667,2229.34667 C448.8,2235 446.346667,2237.53333 444.186667,2237.53333 C443.76,2237.53333 443.333333,2237.42667 443.013333,2237.24 L441.733333,2236.41333 L441.653333,2236.28 C441.466667,2235.8 441.413333,2235.34667 441.52,2234.84 C441.813333,2233.42667 443.333333,2231.18667 446.533333,2229.18667 C447.04,2228.81333 447.84,2228.38667 448.906667,2227.88 C449.706667,2226.49333 450.56,2224.86667 451.466667,2223.08 C452.826667,2220.33333 453.68,2217.61333 454.346667,2215.26667 L454.346667,2215.24 C453.36,2212.01333 452.773333,2210.06667 453.76,2206.52 C454,2205.50667 454.88,2204.46667 455.866667,2204.46667 L456.506667,2204.46667 C457.12,2204.46667 457.706667,2204.68 458.133333,2205.10667 C459.893333,2206.86667 459.066667,2211.16 458.186667,2214.70667 C458.133333,2214.86667 458.106667,2215 458.08,2215.08 C459.146667,2218.09333 460.666667,2220.52 462.346667,2221.90667 C463.04,2222.44 463.813333,2222.97333 464.666667,2223.45333 C465.866667,2223.32 467.013333,2223.26667 468.106667,2223.26667 C471.413333,2223.26667 473.413333,2223.85333 474.186667,2225.10667 C474.453333,2225.53333 474.586667,2226.04 474.506667,2226.57333 C474.48,2227.24 474.24,2227.85333 473.76,2228.33333 L473.76,2228.33333 Z M476.666667,2197 L439.333333,2197 C436.373333,2197 434,2199.37333 434,2202.33333 L434,2239.66667 C434,2242.61219 436.387815,2245 439.333333,2245 L476.666667,2245 C479.612185,2245 482,2242.61219 482,2239.66667 L482,2202.33333 C482,2199.37333 479.6,2197 476.666667,2197 L476.666667,2197 Z M472.666667,2226.44 C472.4,2226.17333 471.333333,2225.50667 467.6,2225.50667 C467.413333,2225.50667 467.226667,2225.50667 466.986667,2225.77333 C468.933333,2226.62667 470.826667,2227.13333 472.053333,2227.13333 C472.24,2227.13333 472.4,2227.10667 472.56,2227.08 L472.666667,2227.08 C472.8,2227.02667 472.88,2227 472.906667,2226.73333 C472.853333,2226.65333 472.8,2226.54667 472.666667,2226.44 L472.666667,2226.44 Z M448.213333,2230.33333 C447.653333,2230.65333 447.2,2230.94667 446.933333,2231.16 C445.04,2232.89333 443.84,2234.65333 443.706667,2235.66667 C444.906667,2235.26667 446.48,2233.50667 448.213333,2230.33333 L448.213333,2230.33333 Z M456.266667,2211.90667 L456.4,2211.8 C456.586667,2210.94667 456.666667,2210.2 456.826667,2209.61333 L456.906667,2209.18667 C457.173333,2207.66667 457.12,2206.89333 456.666667,2206.25333 L456.266667,2206.12 C456.213333,2206.2 456.133333,2206.33333 456.08,2206.44 C455.626667,2207.56 455.653333,2209.50667 456.266667,2211.90667 Z" id="Shape"></path>
        </g>
    </g>
</svg>