<?xml version="1.0" encoding="UTF-8" standalone="no"?>
<svg width="75px" height="75px" viewBox="0 0 75 75" version="1.1" xmlns="http://www.w3.org/2000/svg" xmlns:xlink="http://www.w3.org/1999/xlink">
    <!-- Generator: Sketch 39.1 (31720) - http://www.bohemiancoding.com/sketch -->
    <title>Group 3</title>
    <desc>Created with Sketch.</desc>
    <defs></defs>
    <g id="Page-1" stroke="none" stroke-width="1" fill="none" fill-rule="evenodd">
        <g id="Artboard" transform="translate(-756.000000, -573.000000)">
            <g id="Group-3" transform="translate(756.000000, 573.000000)">
                <path d="M64.7357831,18.7389784 C66.3590667,16.3628348 66.1250697,13.0902678 64.0168357,10.9831643 C62.8626765,9.82900508 61.3298265,9.19370883 59.6986299,9.19370883 C58.4506458,9.19370883 57.2637045,9.57126924 56.2576303,10.2619561 C52.4922001,7.66085882 48.1649509,5.82392572 43.4963148,4.96593667 C42.9593652,2.14214659 40.476962,0 37.5005652,0 C34.5241684,0 32.0406348,2.14327701 31.5048156,4.96593667 C26.8361795,5.82392572 22.5089303,7.66085882 18.7435001,10.2619561 C17.7362955,9.57126924 16.5493542,9.19370883 15.3025005,9.19370883 C13.6713039,9.19370883 12.1373235,9.8301355 10.9842947,10.9831643 C8.87719113,13.0902678 8.64319412,16.3628348 10.2653473,18.7389784 C7.66311966,22.5044086 5.82618656,26.8339186 4.96706709,31.5025548 C2.14214659,32.0395044 0,34.523038 0,37.4994348 C0,40.4758316 2.14327701,42.9593652 4.96593667,43.4951844 C5.82505614,48.1649509 7.66198924,52.4933305 10.2642169,56.2598912 C8.6420637,58.6360348 8.87606071,61.9086017 10.9831643,64.0168357 C12.1373235,65.1709949 13.6701735,65.8051607 15.3013701,65.8051607 C16.5493542,65.8051607 17.7362955,65.4287308 18.7423697,64.7380439 C22.5077999,67.3391412 26.8361795,69.1760743 31.5036852,70.0340633 C32.0406348,72.856723 34.523038,75 37.4994348,75 C40.4758316,75 42.9593652,72.856723 43.4951844,70.0340633 C48.1638205,69.1760743 52.4910697,67.3391412 56.2564999,64.7380439 C57.2637045,65.4287308 58.4506458,65.8051607 59.6974995,65.8051607 C61.3286961,65.8051607 62.8626765,65.1698645 64.0157053,64.0168357 C66.1216784,61.9097322 66.3556755,58.6371652 64.7346527,56.2598912 C67.3368803,52.4933305 69.1749439,48.1649509 70.0329329,43.4951844 C72.8555926,42.9582347 74.9988696,40.4758316 74.9988696,37.4994348 C75,34.523038 72.8578534,32.0395044 70.0340633,31.5025548 C69.1749439,26.8339186 67.3380108,22.5044086 64.7357831,18.7389784 Z M61.6192141,61.6192141 C60.5927924,62.643375 58.8044674,62.643375 57.7780457,61.6192141 C56.7188418,60.5600102 56.7188418,58.8361192 57.7780457,57.7780457 C58.2912566,57.2648349 58.9740305,56.9822298 59.6986299,56.9822298 C60.4232294,56.9822298 61.1060033,57.2648349 61.6192141,57.7780457 C62.6772876,58.8361192 62.6772876,60.5611407 61.6192141,61.6192141 L61.6192141,61.6192141 Z M40.2158349,68.8934692 C40.2158349,70.3901457 38.9972418,71.6087389 37.5005652,71.6087389 C36.0038886,71.6087389 34.7852955,70.3901457 34.7852955,68.8934692 C34.7852955,67.3967926 36.0038886,66.1781995 37.5005652,66.1781995 C38.9972418,66.1781995 40.2158349,67.3967926 40.2158349,68.8934692 L40.2158349,68.8934692 Z M13.3796554,61.6192141 C12.321582,60.5600102 12.321582,58.8361192 13.3796554,57.7780457 C13.8928663,57.2648349 14.5756402,56.9822298 15.3002396,56.9822298 C16.0248391,56.9822298 16.707613,57.2648349 17.2208239,57.7780457 C18.2800277,58.8372496 18.2800277,60.5611407 17.2208239,61.6192141 C16.1955326,62.643375 14.4072076,62.643375 13.3796554,61.6192141 L13.3796554,61.6192141 Z M3.3912611,37.4994348 C3.3912611,36.0016278 4.60985425,34.7830347 6.10653082,34.7830347 C7.60320738,34.7830347 8.82180053,36.0016278 8.82180053,37.4994348 C8.82180053,38.9961114 7.60320738,40.2147045 6.10653082,40.2147045 C4.60985425,40.2147045 3.3912611,38.9961114 3.3912611,37.4994348 L3.3912611,37.4994348 Z M13.3796554,13.3807859 C13.8928663,12.867575 14.5756402,12.5849699 15.3002396,12.5849699 C16.0248391,12.5849699 16.707613,12.867575 17.2208239,13.3819163 C17.7340347,13.8951271 18.0166398,14.5767706 18.0166398,15.3025005 C18.0166398,16.0282304 17.7340347,16.7098738 17.2208239,17.2230847 C16.1944022,18.248376 14.4060771,18.248376 13.3796554,17.2230847 C12.321582,16.1627504 12.321582,14.4399898 13.3796554,13.3807859 L13.3796554,13.3807859 Z M34.7841651,6.10653082 C34.7841651,4.60872383 36.0027582,3.39013068 37.4994348,3.39013068 C38.9961114,3.39013068 40.2147045,4.60872383 40.2147045,6.10653082 C40.2147045,7.6043378 38.9961114,8.82293095 37.4994348,8.82293095 C36.0027582,8.82293095 34.7841651,7.60320738 34.7841651,6.10653082 L34.7841651,6.10653082 Z M59.6986299,12.5849699 C60.4243598,12.5849699 61.1060033,12.867575 61.6192141,13.3807859 C62.678418,14.4399898 62.678418,16.1627504 61.6192141,17.2219543 C60.5927924,18.2472455 58.8044674,18.248376 57.7780457,17.2219543 C57.2648349,16.7087434 56.9822298,16.0270999 56.9822298,15.3025005 C56.9822298,14.5767706 57.2648349,13.8951271 57.7780457,13.3819163 C58.2912566,12.867575 58.9729001,12.5849699 59.6986299,12.5849699 L59.6986299,12.5849699 Z M59.6986299,53.5909687 C58.0674333,53.5909687 56.5334529,54.2273954 55.3804241,55.3804241 C53.5627082,57.1981401 53.1433222,59.8828885 54.1019187,62.1132078 C50.8576123,64.3084842 47.1554856,65.8741164 43.174145,66.6484543 C42.2765913,64.3898744 40.0745324,62.7869384 37.5005652,62.7869384 C34.926598,62.7869384 32.7245392,64.3898744 31.8269854,66.6484543 C27.8456449,65.8752468 24.1435182,64.3096146 20.8992117,62.1132078 C21.8578082,59.8828885 21.4384222,57.1981401 19.6207063,55.3804241 C18.4665471,54.2262649 16.9336971,53.5909687 15.3025005,53.5909687 C14.4558156,53.5909687 13.6385217,53.7695751 12.8845313,54.0962666 C10.6915158,50.8530906 9.12701403,47.1532247 8.3538065,43.174145 C10.6123864,42.2765913 12.2153225,40.0745324 12.2153225,37.5005652 C12.2153225,34.926598 10.6123864,32.7234087 8.3538065,31.8269854 C9.12701403,27.8479057 10.6915158,24.1480399 12.8845313,20.9048638 C13.6385217,21.2304249 14.4558156,21.4101617 15.3025005,21.4101617 C16.9336971,21.4101617 18.4676775,20.7737351 19.6207063,19.6207063 C20.7748655,18.4665471 21.4101617,16.9336971 21.4101617,15.3025005 C21.4101617,14.4558156 21.2315553,13.6385217 20.9048638,12.8834009 C24.1480399,10.6903854 27.8479057,9.12588361 31.8269854,8.35267608 C32.7245392,10.611256 34.926598,12.2141921 37.5005652,12.2141921 C40.0745324,12.2141921 42.2765913,10.611256 43.174145,8.35267608 C47.1532247,9.12588361 50.8530906,10.6903854 54.0962666,12.8834009 C53.7695751,13.6385217 53.5909687,14.4558156 53.5909687,15.3025005 C53.5909687,16.9336971 54.2273954,18.4676775 55.3804241,19.6207063 C56.5345833,20.7748655 58.0674333,21.4101617 59.6986299,21.4101617 C60.5453148,21.4101617 61.3626087,21.2315553 62.1165991,20.9048638 C64.3096146,24.1480399 65.8741164,27.8479057 66.6473239,31.8269854 C64.3898744,32.7245392 62.7858079,34.926598 62.7858079,37.5005652 C62.7858079,40.0745324 64.388744,42.2765913 66.6473239,43.174145 C65.8741164,47.1532247 64.3096146,50.8530906 62.1165991,54.0962666 C61.3626087,53.7695751 60.5453148,53.5909687 59.6986299,53.5909687 L59.6986299,53.5909687 Z" id="Shape" fill="#000000"></path>
                <circle id="Oval-2" fill="#DC471F" cx="68.5" cy="37.5" r="6.5"></circle>
            </g>
        </g>
    </g>
</svg>