<?xml version="1.0" encoding="UTF-8" standalone="no"?>
<svg width="294px" height="154px" viewBox="0 0 294 154" version="1.1" xmlns="http://www.w3.org/2000/svg" xmlns:xlink="http://www.w3.org/1999/xlink">
    <!-- Generator: Sketch 39.1 (31720) - http://www.bohemiancoding.com/sketch -->
    <title>Group</title>
    <desc>Created with Sketch.</desc>
    <defs></defs>
    <g id="Page-1" stroke="none" stroke-width="1" fill="none" fill-rule="evenodd">
        <g id="Group" fill="#DC471F">
            <path d="M161.5432,5.8847 C161.4902,6.0727 161.4661,6.2617 161.4221,6.4208 C161.2821,7.2618 161.1083,8.0717 161.0383,8.9118 C161.0023,9.2018 160.9573,9.5219 160.9612,9.7957 C160.9683,9.8388 160.9703,9.8538 160.9493,9.8969 C161.6943,9.8538 162.4052,9.6948 163.0492,9.4626 C163.7412,9.1877 164.6791,8.7956 164.9391,8.0138 C165.1721,7.3049 164.6443,6.4647 163.8843,6.1597 C163.1062,5.8266 162.2802,5.7988 161.5432,5.8847 L161.5432,5.8847 Z M166.1163,0.9456 C166.1693,1.3518 165.7742,1.6557 165.4272,1.6557 C164.2301,1.6557 163.0543,1.7858 161.8692,1.9457 C161.9582,2.7417 161.8952,3.5388 161.8011,4.3209 C162.7351,4.2477 163.8072,4.3347 164.7041,4.8858 C165.9462,5.6667 166.4562,7.1598 166.1081,8.4336 C165.7793,9.6517 164.6672,10.4187 163.5671,10.8377 C162.5342,11.2436 161.3921,11.4897 160.2001,11.4327 C159.8611,11.4046 159.7233,11.1569 159.7131,10.8377 C159.5042,10.3309 159.5552,9.7957 159.5972,9.2889 C159.6723,8.4779 159.8061,7.6816 159.9532,6.8848 C160.2421,5.3348 160.6574,3.7117 160.4643,2.0307 C160.2602,1.9738 160.0482,1.7858 160.0221,1.5387 C159.9773,1.2648 160.1403,1.0758 160.3413,0.9456 C160.5292,0.4827 161.2713,0.2509 161.5843,0.7138 C162.8103,0.5547 164.0382,0.4096 165.2911,0.4096 C165.6254,0.4096 166.0622,0.5258 166.1163,0.9456 L166.1163,0.9456 Z" id="Fill-52"></path>
            <path d="M172.801,4.5088 C172.562,6.6098 172.308,8.7097 172.3259,10.8527 C172.3041,11.6498 170.709,11.2587 170.6991,10.4338 C170.715,8.5788 170.9001,6.7397 171.088,4.9297 C170.643,4.9297 170.1971,4.9297 169.7829,5.0298 L169.741,5.0298 C169.5009,7.4636 169.6191,10.6359 166.9891,11.3176 C166.2549,11.5047 165.7929,9.8827 166.5259,9.6798 C167.4849,9.4187 167.954,8.6377 168.157,7.6669 C168.3959,6.4928 168.411,5.2328 168.5589,4.0167 C168.6151,3.6836 168.9059,3.4217 169.29,3.6397 C169.337,3.6689 169.354,3.6836 169.402,3.7267 C170.112,3.6397 170.8961,3.7556 171.6209,3.6836 C172.0359,3.6689 172.8449,3.9297 172.801,4.5088" id="Fill-53"></path>
            <path d="M177.6037,5.1749 C177.5898,5.1749 177.5567,5.1469 177.5428,5.1469 C177.2568,5.1029 177.0206,5.1029 176.7828,5.1749 C176.2496,5.3209 175.8647,5.6818 175.5937,6.16 C175.1438,7.058 174.8986,8.3619 175.3417,9.4479 C175.9318,10.838 176.8928,9.4039 177.1476,8.7528 C177.6097,7.6669 177.4376,6.3629 177.6037,5.1749 L177.6037,5.1749 Z M181.1028,9.9558 C180.9548,10.5778 180.6688,11.4619 179.9548,11.5197 C179.2438,11.5917 178.6667,10.9698 178.3557,10.3459 C178.3138,10.2589 178.2866,10.173 178.2458,10.101 C178.0456,10.5778 177.7537,10.9979 177.3806,11.2728 C176.8517,11.6938 176.0197,11.882 175.3547,11.3017 C174.5777,10.6359 174.1318,9.7089 173.9657,8.7817 C173.6556,7.058 173.9476,4.8577 175.3167,3.9589 C176.0078,3.5099 176.8077,3.3789 177.6757,3.6689 C177.8798,3.7267 178.0899,3.8137 178.2616,3.93 C178.6517,4.017 179.1237,4.6828 179.0678,5.19 C178.8566,6.45 178.9516,7.869 179.2107,9.2018 C179.2447,9.4039 179.2677,9.7089 179.4128,9.9108 C179.6826,9.7809 179.7918,9.347 179.8448,9.0717 C180.0778,8.1159 181.2737,9.2169 181.1028,9.9558 L181.1028,9.9558 Z" id="Fill-54"></path>
            <path d="M181.7738,4.9581 C181.5076,4.61 181.7386,4.233 182.0207,4.089 C182.7339,3.7709 183.4167,3.437 184.2878,3.4801 C184.9287,3.4951 185.7916,3.8279 186.2508,4.4232 C186.6837,5.0301 186.8707,5.8272 186.5448,6.378 C186.2517,6.8851 185.6518,7.13 185.1218,7.3772 C184.6146,7.594 182.9958,8.0711 183.2336,8.9272 C183.6169,10.158 184.9588,10.4479 185.6697,9.6939 C186.1867,9.1151 187.4626,9.8541 186.8138,10.563 C185.9328,11.4622 184.3096,11.664 183.0587,10.9111 C181.9526,10.273 181.2757,8.782 181.9688,7.8409 C182.6227,6.899 183.7609,6.5512 184.7527,6.0591 C184.8958,6.0009 185.1478,5.9289 185.1447,5.739 C185.1337,5.4221 185.0146,5.1171 184.7306,4.915 C184.0446,4.466 183.4096,4.915 182.8538,5.1749 C182.5417,5.3062 182.0408,5.3062 181.7738,4.9581" id="Fill-55"></path>
            <path d="M189.4282,6.378 C189.287,7.13 189.3859,7.9849 189.6651,8.7528 C189.9109,9.4039 190.4129,10.2589 191.2191,9.9111 C192.4459,9.3319 193.0321,7.899 192.8331,6.4361 C192.745,5.8989 192.4051,4.93 191.6721,5.0448 C190.9699,5.1749 190.488,5.7988 190.0421,6.306 C189.8551,6.5228 189.63,6.5081 189.4282,6.378 L189.4282,6.378 Z M189.3831,4.5811 C189.9109,3.9881 190.5521,3.3939 191.4189,3.422 C192.5791,3.452 193.5469,4.6828 193.878,5.7699 C194.467,7.8259 193.9599,10.419 192.1911,11.3321 C190.7811,12.0699 189.3941,10.9979 188.722,9.4479 C188.0519,7.9129 187.832,5.9859 188.4879,4.64 C188.7082,4.2049 189.0991,4.2908 189.3831,4.5811 L189.3831,4.5811 Z" id="Fill-56"></path>
            <path d="M204.3616,10.4335 C204.3786,11.2144 202.8224,11.3176 202.8074,10.4627 C202.7476,8.8257 203.0574,7.2465 202.8145,5.5945 C202.7895,5.4366 202.7595,5.2617 202.7105,5.1316 C202.6345,5.1747 202.5574,5.2186 202.4845,5.2764 C201.9386,5.6815 201.4445,6.2337 200.8716,6.6376 C200.8804,7.0296 200.8645,7.4495 200.8626,7.8545 C200.8356,8.7095 200.7565,9.5797 200.6877,10.4335 C200.6244,11.2295 199.0064,10.9545 199.0725,10.1724 C199.2145,8.5796 199.4265,6.9126 199.1586,5.2764 C199.1555,5.2617 199.1516,5.2325 199.1484,5.2186 C199.0994,5.2617 199.0095,5.3056 198.9616,5.3495 C198.3505,5.6965 197.8116,6.1455 197.1985,6.4786 C197.1455,6.4936 197.0806,6.5225 197.0414,6.5375 C197.0074,8.0286 196.9986,9.4927 196.9184,10.9545 C196.8915,11.3015 196.5876,11.5625 196.2214,11.3746 C195.8404,11.1716 195.6624,10.6795 195.6814,10.2875 C195.7985,8.2035 195.7585,6.1016 195.8345,4.0164 C195.8744,3.6686 196.1905,3.3936 196.5445,3.5966 C196.9394,3.7984 197.1174,4.2905 197.0984,4.6826 C197.1035,4.7115 197.0896,4.7115 197.0916,4.7256 C198.3224,3.9155 200.0156,2.9585 200.6106,4.7976 C200.6205,4.8575 200.6596,4.9295 200.6695,4.9876 C201.0916,4.5955 201.5125,4.1905 202.0335,3.9736 C202.8406,3.6397 203.9186,3.7556 204.2236,4.8575 C204.7565,6.7405 204.3115,8.6085 204.3616,10.4335" id="Fill-57"></path>
            <path d="M207.6906,6.783 C208.1567,6.6521 208.6006,6.3921 208.9506,6.1452 C209.2137,5.9712 209.9765,5.2761 209.3257,4.9581 C208.3486,4.4362 207.8928,5.7251 207.6906,6.783 L207.6906,6.783 Z M210.0377,8.2752 C209.7327,7.8542 209.0385,7.8693 208.6496,7.9563 C208.5705,7.9852 208.4617,7.9991 208.3506,7.9991 C208.0847,8.0711 207.8406,8.1162 207.5676,8.1442 C207.5475,8.71 207.6167,9.4632 208.1246,9.8391 C208.2675,9.9561 208.3936,9.9561 208.5697,9.9261 C208.8177,9.9111 209.0535,9.824 209.2636,9.6661 C209.5556,9.4921 210.4215,8.7531 210.0377,8.2752 L210.0377,8.2752 Z M211.4446,9.6372 C210.9817,10.4632 210.1185,11.0551 209.1357,11.1722 C208.2037,11.2592 207.0055,10.9111 206.4528,9.9111 C206.0517,9.1732 205.9255,8.405 205.9607,7.681 C205.9156,7.5793 205.8915,7.5212 205.8915,7.4341 C205.8705,7.304 205.9207,7.1892 205.9907,7.1011 C206.0315,6.9282 206.0536,6.7252 206.0885,6.5222 C206.2875,5.4363 206.6506,4.2622 207.6875,3.7993 C208.5447,3.4223 209.8657,3.5821 210.6707,4.4232 C211.5656,5.3782 211.0806,6.406 210.3317,7.0141 C210.3768,7.0291 210.3895,7.0291 210.4366,7.0571 C211.5656,7.5793 211.9806,8.6661 211.4446,9.6372 L211.4446,9.6372 Z" id="Fill-58"></path>
            <path d="M214.0431,6.378 C213.9022,7.13 214.0011,7.9849 214.2803,8.7528 C214.5261,9.4039 215.0281,10.2589 215.8343,9.9111 C217.0611,9.3319 217.6473,7.899 217.4483,6.4361 C217.3602,5.8989 217.0203,4.93 216.2873,5.0448 C215.5851,5.1749 215.1032,5.7988 214.6574,6.306 C214.4703,6.5228 214.2452,6.5081 214.0431,6.378 L214.0431,6.378 Z M213.9983,4.5811 C214.5261,3.9881 215.1673,3.3939 216.0341,3.422 C217.1941,3.452 218.1621,4.6828 218.4932,5.7699 C219.0822,7.8259 218.5751,10.419 216.8063,11.3321 C215.3963,12.0699 214.0094,10.9979 213.3373,9.4479 C212.6671,7.9129 212.4472,5.9859 213.1031,4.64 C213.3231,4.2049 213.7143,4.2908 213.9983,4.5811 L213.9983,4.5811 Z" id="Fill-59"></path>
            <path d="M223.5003,5.3056 C223.1123,5.3206 222.7483,5.3926 222.3993,5.5517 C222.1094,5.6537 221.8443,5.8127 221.6192,6.0588 C221.6731,7.2326 221.6391,8.3755 221.5512,9.5346 C223.2653,9.9697 224.8513,8.2758 224.7252,6.5798 C224.6761,5.8567 224.2713,5.2617 223.5003,5.3056 L223.5003,5.3056 Z M225.9812,6.2617 C226.1462,8.7097 224.1273,11.7507 221.4463,11.0996 C221.3871,11.8386 221.3363,12.5476 221.3301,13.2727 C221.3151,13.6928 221.0523,14.0386 220.6563,14.0825 C220.3201,14.1565 219.9522,13.8665 219.9573,13.4748 C220.0483,10.5486 220.6042,7.6666 220.1243,4.6675 C220.0511,4.2185 220.2303,3.8707 220.5891,3.6836 C220.8652,3.5816 221.3661,3.6686 221.4353,4.0887 C221.4492,4.1757 221.4642,4.2627 221.4693,4.3787 C222.1181,3.9297 222.9271,3.6836 223.7461,3.7556 C225.0682,3.8427 225.8692,4.9876 225.9812,6.2617 L225.9812,6.2617 Z" id="Fill-60"></path>
            <path d="M232.3954,4.1182 C232.7075,6.188 232.1553,8.1592 232.4895,10.273 C232.6004,11.1283 231.3874,11.5342 231.2086,10.4482 C231.2086,10.4482 231.2043,10.419 231.2023,10.4043 C230.4628,11.0701 229.4746,11.5773 228.5698,10.9831 C227.6137,10.3312 227.3577,8.941 227.2948,7.971 C227.2137,6.711 227.3917,5.5091 227.3707,4.2772 C227.3407,3.2491 228.5658,3.4223 228.5828,4.4512 C228.5857,5.4941 228.4326,6.5081 228.4816,7.5643 C228.4808,7.9852 228.4626,9.3172 228.9998,9.5352 C229.4318,9.7092 229.9318,9.3611 230.2156,9.1443 C230.5747,8.8682 230.8585,8.5652 231.1235,8.2312 C231.1873,6.9282 231.3375,5.6392 231.1215,4.3203 C231.0053,3.452 232.2313,3.0322 232.3954,4.1182" id="Fill-61"></path>
            <path d="M243.122,10.4335 C243.139,11.2144 241.5831,11.3176 241.5669,10.4627 C241.508,8.8257 241.8181,7.2465 241.5751,5.5945 C241.5499,5.4366 241.5202,5.2617 241.4711,5.1316 C241.3951,5.1747 241.318,5.2186 241.2449,5.2764 C240.699,5.6815 240.2052,6.2337 239.632,6.6376 C239.6411,7.0296 239.6249,7.4495 239.6229,7.8545 C239.5971,8.7095 239.5169,9.5797 239.448,10.4335 C239.384,11.2295 237.7671,10.9545 237.8331,10.1724 C237.9751,8.5796 238.1869,6.9126 237.919,5.2764 C237.9159,5.2617 237.9111,5.2325 237.9091,5.2186 C237.8601,5.2617 237.7699,5.3056 237.722,5.3495 C237.11,5.6965 236.572,6.1455 235.9591,6.4786 C235.905,6.4936 235.8409,6.5225 235.8021,6.5375 C235.7681,8.0286 235.759,9.4927 235.6791,10.9545 C235.6522,11.3015 235.348,11.5625 234.982,11.3746 C234.6011,11.1716 234.4231,10.6795 234.442,10.2875 C234.5591,8.2035 234.5191,6.1016 234.5951,4.0164 C234.6351,3.6686 234.9511,3.3936 235.3049,3.5966 C235.7001,3.7984 235.8781,4.2905 235.8591,4.6826 C235.8639,4.7115 235.85,4.7115 235.852,4.7256 C237.0831,3.9155 238.7759,2.9585 239.3709,4.7976 C239.3811,4.8575 239.42,4.9295 239.4302,4.9876 C239.852,4.5955 240.2721,4.1905 240.7939,3.9736 C241.6009,3.6397 242.679,3.7556 242.984,4.8575 C243.5172,6.7405 243.073,8.6085 243.122,10.4335" id="Fill-62"></path>
            <path d="M248.3406,4.9003 C247.7927,4.6103 247.2269,4.7254 246.8946,5.1605 C246.5658,5.6095 246.3348,6.1603 246.2379,6.7544 C246.6276,6.7544 247.0007,6.7402 247.4069,6.6674 C247.8409,6.5942 248.6796,6.5373 248.9027,6.1163 C249.1136,5.7112 248.7647,5.1024 248.3406,4.9003 L248.3406,4.9003 Z M250.4958,6.1603 C250.2988,7.1603 249.2848,7.5935 248.3947,7.7684 C247.6546,7.9262 246.8878,7.9994 246.1228,7.9994 C246.1318,8.3903 246.1976,8.7965 246.3388,9.1443 C246.7807,10.1432 248.0328,10.6503 248.6677,9.8532 C248.8987,9.5644 249.3086,9.4334 249.7129,9.6075 C250.0587,9.7662 250.2537,10.1863 250.0507,10.4763 C248.9438,11.8672 246.2157,11.9543 245.0567,9.8963 C244.4886,8.8974 244.5167,7.7102 244.6729,6.7113 C244.8347,5.7543 245.1686,4.6534 245.9547,4.1034 C246.8226,3.4523 248.0189,3.1904 249.1717,3.8563 C250.0278,4.3203 250.6659,5.2472 250.4958,6.1603 L250.4958,6.1603 Z" id="Fill-63"></path>
            <path d="M257.1172,4.5088 C256.8771,6.6098 256.624,8.7097 256.6421,10.8527 C256.62,11.6498 255.0241,11.2587 255.0142,10.4338 C255.0301,8.5788 255.2152,6.7397 255.4043,4.9297 C254.9592,4.9297 254.513,4.9297 254.098,5.0298 L254.0561,5.0298 C253.8171,7.4636 253.9342,10.6359 251.3051,11.3176 C250.57,11.5047 250.1091,9.8827 250.8422,9.6798 C251.8011,9.4187 252.2703,8.6377 252.4721,7.6669 C252.7122,6.4928 252.7272,5.2328 252.8752,4.0167 C252.931,3.6836 253.2221,3.4217 253.6051,3.6397 C253.6522,3.6689 253.6692,3.6836 253.7182,3.7267 C254.4271,3.6397 255.2121,3.7556 255.9372,3.6836 C256.3522,3.6689 257.16,3.9297 257.1172,4.5088" id="Fill-64"></path>
            <path d="M262.1365,7.7686 C261.8437,7.6816 261.5517,7.6816 261.2847,7.7536 C260.8255,7.8406 260.4287,8.1306 260.2146,8.5207 C260.1696,9.1006 260.1707,9.6945 260.4117,9.8104 C261.4228,10.2886 262.3857,9.1157 262.3446,8.1884 C262.3287,8.0135 262.3426,7.8406 262.1365,7.7686 L262.1365,7.7686 Z M263.7546,9.4045 C263.3756,10.2305 262.7826,10.8524 261.8667,11.0415 C261.0205,11.2295 259.8646,11.1277 259.1386,10.3606 C258.7007,9.8966 258.6168,9.3036 258.6357,8.7387 C258.5025,8.6085 258.4606,8.4336 258.5246,8.2315 C258.5796,8.1445 258.6326,8.0425 258.6717,7.9415 C258.7786,6.7255 258.9535,5.5086 258.9626,4.2905 C258.9827,3.4807 260.5506,3.6255 260.5885,4.4515 C260.5866,4.5235 260.5968,4.5805 260.5826,4.6675 C260.5956,4.7407 260.5877,4.7846 260.5707,4.8424 C260.5395,5.4215 260.4845,6.0157 260.4125,6.5945 C260.4936,6.5806 260.5588,6.5506 260.6415,6.5506 C261.4627,6.3777 262.6986,6.4505 263.4257,7.1444 C264.0888,7.7964 264.0187,8.7236 263.7546,9.4045 L263.7546,9.4045 Z" id="Fill-65"></path>
            <path d="M271.0115,4.5088 C270.6906,5.3498 270.6527,6.3057 270.6997,7.2757 C270.7026,7.2899 270.7377,7.3338 270.7417,7.3627 C270.7828,7.5217 270.7848,7.6238 270.7065,7.7389 C270.7757,8.6658 270.8865,9.5939 270.8505,10.4769 C270.8216,11.2297 269.3226,11.5047 269.3646,10.5778 C269.4085,9.7518 269.3507,8.8827 269.2677,8.0427 C268.5766,8.0717 267.8747,8.1159 267.1805,8.1306 C267.1337,9.0286 267.0167,9.9258 266.8667,10.7946 C266.7406,11.5486 265.1605,11.0849 265.3017,10.2447 C265.4695,9.4048 265.5636,8.5357 265.5877,7.6669 C265.5296,7.5648 265.4877,7.4787 265.4687,7.3627 C265.4746,7.2329 265.5106,7.1158 265.6135,7.0577 C265.6107,6.3627 265.5957,5.6818 265.5506,4.9878 C265.4947,4.9008 265.4786,4.7976 265.4738,4.6828 C265.4865,4.5958 265.4865,4.5088 265.4947,4.3937 C265.4877,3.5819 267.0416,3.8137 267.1085,4.6398 C267.1757,5.3926 267.2165,6.1458 267.2006,6.8998 C267.8775,6.8698 268.5366,6.8128 269.2135,6.7827 C269.1945,5.8998 269.2626,5.0448 269.5905,4.2477 C269.7408,3.8857 270.0886,3.6397 270.5047,3.7117 C270.8757,3.7707 271.1467,4.1468 271.0115,4.5088" id="Fill-66"></path>
            <path d="M280.1201,4.538 C280.13,5.6089 280.007,6.6382 279.9041,7.71 C279.867,8.246 279.842,8.767 279.846,9.3042 C279.831,9.6369 279.7479,10.1429 279.8091,10.4341 C279.8661,10.7802 279.772,11.2292 279.3621,11.1861 C278.9661,11.1421 278.639,10.6801 278.5789,10.317 C278.482,9.8101 278.5579,9.2599 278.561,8.767 C278.5591,8.246 278.582,7.71 278.6191,7.1751 C278.724,6.116 278.8451,5.074 278.8522,4.017 C278.8431,2.9441 280.136,3.6981 280.1201,4.538 L280.1201,4.538 Z M276.2879,8.0581 C275.884,7.3772 274.8669,7.797 274.5251,8.174 C274.4891,8.2891 274.4911,8.3911 274.4689,8.5059 C274.4389,8.7531 274.251,9.6369 274.567,9.7809 C274.8771,9.97 275.17,9.896 275.4409,9.7671 C275.916,9.521 276.7151,8.7959 276.2879,8.0581 L276.2879,8.0581 Z M277.2619,6.9571 C278.533,8.174 277.6681,9.8529 276.695,10.535 C275.8219,11.1572 273.4249,11.8091 272.9759,9.9261 C272.7781,9.144 273.01,8.4339 273.0581,7.71 C273.125,6.5951 273.2679,5.5222 273.1111,4.3931 C272.9799,3.5972 274.4791,3.2341 274.5971,4.1182 C274.719,4.9431 274.7122,5.7552 274.6671,6.5801 C275.5212,6.2759 276.5181,6.247 277.2619,6.9571 L277.2619,6.9571 Z" id="Fill-67"></path>
            <path d="M282.6854,1.7422 C282.5125,0.9451 283.9565,0.4961 284.1546,1.366 C284.2655,1.8731 284.5044,1.887 284.8917,1.7861 C285.3154,1.6563 285.6505,1.4091 285.9464,1.0902 C286.5287,0.4822 287.6226,1.294 286.9726,2.0032 C286.0587,2.9591 283.2685,4.1032 282.6854,1.7422 L282.6854,1.7422 Z M287.4556,4.6823 C287.2195,5.4502 287.1957,6.3201 287.2685,7.1892 C287.4876,7.3341 287.6226,7.5643 287.5055,7.8693 C287.4635,7.9563 287.4136,8.0711 287.3586,8.1592 C287.4655,9.0723 287.6146,9.97 287.6316,10.8383 C287.6325,11.6062 286.0505,11.4622 286.0326,10.5931 C286.0315,10.3312 286.0136,10.0562 285.9855,9.7963 C285.8024,9.9561 285.6185,10.1001 285.4056,10.2453 C284.7576,10.7082 283.7476,11.4182 282.7954,10.8831 C281.9966,10.419 281.9195,9.4482 281.8246,8.6953 C281.6536,7.232 281.8404,5.8272 281.7767,4.4232 C281.7455,3.6391 283.2935,3.6692 283.3564,4.553 C283.4125,5.6531 283.2955,6.7252 283.3374,7.8262 C283.3556,8.2752 283.3896,8.7381 283.4794,9.2021 C283.5035,9.3461 283.5285,9.5791 283.5985,9.752 C283.6745,9.7092 283.7535,9.6792 283.7884,9.6372 C284.1056,9.4482 284.4066,9.2452 284.6876,9.0142 C285.0765,8.6661 285.4926,8.3183 285.7775,7.8542 C285.6216,6.6521 285.5397,5.4791 285.8835,4.4362 C285.9895,4.0601 286.3356,3.886 286.7515,3.9592 C287.0375,4.0022 287.5874,4.3053 287.4556,4.6823 L287.4556,4.6823 Z" id="Fill-68"></path>
            <path d="M199.9464,27.7773 C199.3616,28.1095 198.7856,28.4142 198.2535,28.8193 C197.8935,29.0815 197.5086,29.3703 197.4117,29.7904 C197.3927,29.8474 197.4125,30.0512 197.4896,30.1813 C197.6894,30.4713 197.9675,30.7162 198.2635,30.8333 C199.0515,31.1375 199.5745,30.2545 199.7556,29.6603 C199.8925,29.0514 199.9546,28.4142 199.9464,27.7773 L199.9464,27.7773 Z M198.4576,25.4013 C198.8565,25.5464 199.2545,25.1702 199.4106,24.8502 C199.5717,24.5614 199.6675,24.2144 199.7327,23.8513 C199.6646,22.9232 199.6215,21.9824 199.6797,21.0702 C199.4705,20.9835 199.3126,20.7814 199.2905,20.4764 C199.2584,20.4474 199.2085,20.4044 199.1255,20.4044 C199.0076,20.3613 198.8766,20.3324 198.7516,20.3324 C198.5424,20.3324 198.3244,20.3613 198.1586,20.4474 C197.7345,20.6643 197.4604,21.0274 197.3275,21.4903 C197.0295,22.3013 196.9754,23.4173 197.4434,24.3145 C197.6685,24.7493 197.9604,25.2564 198.4576,25.4013 L198.4576,25.4013 Z M201.2135,20.4914 C200.9425,22.9964 201.5794,25.6042 201.4346,28.1095 C201.3736,29.2552 201.1936,30.3693 200.4694,31.2103 C199.8305,31.9774 198.7496,32.5134 197.6044,32.0644 C196.8725,31.7594 196.0315,31.0504 195.9345,30.2102 C195.8356,29.4273 196.2526,28.8343 196.7044,28.3714 C197.2285,27.8354 197.8746,27.4433 198.5106,27.0814 C198.5736,27.0383 198.6495,26.9955 198.7125,26.9512 C197.5026,27.0383 196.3895,25.6904 196.0564,24.3434 C195.6414,22.6644 195.8614,20.7814 196.9116,19.6364 C197.4156,19.0573 198.1966,18.6514 199.0526,18.7812 C199.7687,18.8983 200.3024,19.2745 200.4776,19.9123 C200.8716,19.8544 201.2756,20.0273 201.2135,20.4914 L201.2135,20.4914 Z" id="Fill-69"></path>
            <path d="M206.5316,20.3173 C205.9825,20.0273 205.4175,20.1433 205.0856,20.5784 C204.7557,21.0274 204.5255,21.5773 204.4285,22.1715 C204.8186,22.1715 205.1916,22.1573 205.5964,22.0844 C206.0304,22.0113 206.8706,21.9543 207.0934,21.5342 C207.3046,21.1283 206.9545,20.5194 206.5316,20.3173 L206.5316,20.3173 Z M208.6865,21.5773 C208.4894,22.5774 207.4746,23.0102 206.5854,23.1854 C205.8456,23.3444 205.0785,23.4173 204.3126,23.4173 C204.3214,23.8073 204.3874,24.2133 204.5294,24.5614 C204.9717,25.5603 206.2234,26.0674 206.8584,25.2703 C207.0894,24.9815 207.4996,24.8502 207.9035,25.0254 C208.2505,25.1833 208.4435,25.6042 208.2414,25.8942 C207.1345,27.2855 204.4064,27.3713 203.2476,25.3142 C202.6784,24.3145 202.7076,23.1284 202.8624,22.1284 C203.0265,21.1714 203.3596,20.0713 204.1465,19.5202 C205.0125,18.8694 206.2095,18.6083 207.3615,19.2745 C208.2176,19.7374 208.8565,20.6643 208.6865,21.5773 L208.6865,21.5773 Z" id="Fill-70"></path>
            <path d="M218.8969,25.8506 C218.9139,26.6326 217.3576,26.7335 217.3426,25.8795 C217.2828,24.2425 217.5938,22.6636 217.3508,21.0127 C217.3248,20.8536 217.2958,20.6785 217.2468,20.5486 C217.1697,20.5914 217.0926,20.6357 217.0197,20.6935 C216.4738,21.0997 215.9797,21.6505 215.4068,22.0547 C215.4156,22.4464 215.4006,22.8665 215.3978,23.2724 C215.3717,24.1265 215.2917,24.9965 215.2226,25.8506 C215.1597,26.6465 213.5416,26.3716 213.6077,25.5895 C213.7497,23.9964 213.9617,22.3305 213.6939,20.6935 C213.6916,20.6785 213.6868,20.6507 213.6837,20.6357 C213.6357,20.6785 213.5448,20.7235 213.4969,20.7666 C212.8857,21.1136 212.3468,21.5626 211.7337,21.8965 C211.6807,21.9107 211.6166,21.9396 211.5767,21.9546 C211.5426,23.4456 211.5347,24.9095 211.4548,26.3716 C211.4267,26.7185 211.1228,26.9804 210.7566,26.7917 C210.3756,26.5884 210.1976,26.0966 210.2166,25.7046 C210.3337,23.6205 210.2937,21.5195 210.3697,19.4335 C210.4108,19.0857 210.7257,18.8104 211.0797,19.0137 C211.4746,19.2155 211.6526,19.7084 211.6336,20.0996 C211.6387,20.1285 211.6249,20.1285 211.6268,20.1436 C212.8576,19.3326 214.5508,18.3756 215.1458,20.2156 C215.1557,20.2745 215.1957,20.3465 215.2047,20.4046 C215.6277,20.0126 216.0477,19.6075 216.5688,19.3907 C217.3766,19.0576 218.4538,19.1724 218.7588,20.2745 C219.2917,22.1576 218.8478,24.0256 218.8969,25.8506" id="Fill-71"></path>
            <path d="M224.2883,20.6065 C223.4082,20.4194 222.5484,20.5194 222.0152,21.1714 C221.5084,21.8095 221.3244,22.8084 221.4974,23.6925 C221.6133,24.3145 221.9322,25.0685 222.6284,25.2425 C223.3883,25.4605 224.1254,25.2853 224.7524,24.9534 C225.0222,24.8216 225.4704,24.7496 225.6762,25.1555 C225.8774,25.5325 225.6753,25.9954 225.3783,26.1394 C224.3884,26.6324 223.1743,27.0386 221.9432,26.5745 C220.8253,26.1255 220.1894,24.9664 220.1203,23.8666 C219.9822,22.4314 220.2563,20.9684 221.2334,20.0565 C222.1573,19.2455 223.3552,18.9133 224.7002,19.2155 C225.6382,19.4193 225.0432,20.7955 224.2883,20.6065" id="Fill-72"></path>
            <path d="M231.1445,19.9698 C230.7236,20.8828 230.2967,21.9249 229.6657,22.7367 C229.9188,23.0108 230.1408,23.3447 230.3157,23.5627 C230.7936,24.1846 231.2885,24.8219 231.6406,25.5317 C232.0275,26.3577 231.0824,27.2129 230.5906,26.1689 C230.5906,26.1689 230.5538,26.1116 230.4718,25.9518 C230.3837,25.8358 230.3057,25.7049 230.2198,25.6048 C230.0197,25.3148 229.8207,25.0387 229.6107,24.7788 C229.4457,24.5319 229.2558,24.3147 229.0817,24.0976 C228.9978,24.0117 228.9117,23.9088 228.8408,23.8227 C228.7917,23.7798 228.7628,23.7648 228.7628,23.7648 C228.7158,23.7356 228.7008,23.7217 228.6667,23.6928 C228.5287,23.7798 228.3748,23.8657 228.2197,23.9389 C228.1398,23.9516 228.0757,23.9828 228.0187,23.9828 C227.9966,24.7788 228.0207,25.6048 228.0706,26.4158 C228.1327,27.4728 226.8928,27.1247 226.8197,26.1689 C226.6777,23.8657 226.7168,21.5629 227.0666,19.3757 C227.2347,18.3617 228.4578,19.2016 228.3138,20.0129 C228.2138,20.6787 228.1327,21.3747 228.0828,22.0839 C229.0727,21.3307 229.5798,19.9267 230.0846,18.8547 C230.2527,18.5219 230.6558,18.5219 230.9104,18.7957 C231.2295,19.1296 231.3103,19.6217 231.1445,19.9698" id="Fill-73"></path>
            <path d="M237.7138,19.5352 C238.0259,21.6062 237.4737,23.5772 237.8068,25.6901 C237.9199,26.5462 236.7058,26.9512 236.5269,25.865 C236.5269,25.865 236.523,25.8361 236.521,25.8222 C235.7809,26.4881 234.7918,26.9952 233.8879,26.401 C232.9317,25.7491 232.6758,24.3581 232.6129,23.3881 C232.5318,22.1281 232.7098,20.9262 232.6888,19.6943 C232.6579,18.6661 233.8839,18.8402 233.8998,19.868 C233.9037,20.9112 233.751,21.9251 233.7989,22.9822 C233.7989,23.4023 233.7807,24.7351 234.3179,24.9531 C234.7499,25.126 235.2488,24.7782 235.534,24.5611 C235.892,24.2861 236.1769,23.9822 236.4419,23.6492 C236.506,22.3452 236.6548,21.056 236.4388,19.7371 C236.324,18.8691 237.5488,18.449 237.7138,19.5352" id="Fill-74"></path>
            <path d="M240.3466,17.1601 C240.1737,16.3633 241.6177,15.9143 241.8155,16.7831 C241.9266,17.2902 242.1656,17.3052 242.5525,17.2032 C242.9766,17.0731 243.3117,16.8262 243.6076,16.5081 C244.1887,15.8992 245.2826,16.7111 244.6337,17.42 C243.7196,18.3762 240.9297,19.5202 240.3466,17.1601 L240.3466,17.1601 Z M245.1168,20.0991 C244.8795,20.8681 244.8565,21.7372 244.9297,22.606 C245.1477,22.7512 245.2837,22.9822 245.1655,23.2861 C245.1247,23.3731 245.0757,23.4901 245.0195,23.5772 C245.1275,24.4891 245.2755,25.3882 245.2917,26.2562 C245.2925,27.0232 243.7108,26.8792 243.6938,26.0101 C243.6926,25.7491 243.6748,25.4733 243.6456,25.213 C243.4636,25.3732 243.2788,25.5172 243.0656,25.6621 C242.4176,26.1252 241.4088,26.8362 240.4566,26.3001 C239.6575,25.8361 239.5807,24.8652 239.4857,24.1121 C239.3145,22.6491 239.5008,21.2451 239.4367,19.8403 C239.4066,19.057 240.9555,19.0862 241.0167,19.9701 C241.0737,21.0702 240.9566,22.1423 240.9977,23.2432 C241.0167,23.6923 241.0507,24.1563 241.1417,24.6192 C241.1647,24.764 241.1896,24.9962 241.2585,25.1702 C241.3356,25.126 241.4136,25.0971 241.4496,25.054 C241.7656,24.8652 242.0667,24.6631 242.3487,24.4312 C242.7376,24.0843 243.1538,23.7351 243.4386,23.2722 C243.2836,22.0691 243.2005,20.8962 243.5447,19.8541 C243.6495,19.4771 243.9965,19.3031 244.4115,19.3762 C244.6986,19.4202 245.2486,19.7232 245.1168,20.0991 L245.1168,20.0991 Z" id="Fill-75"></path>
            <path d="M258.0858,26.0821 C257.8148,26.6329 257.7448,27.2271 257.6518,27.8501 C257.6269,28.1971 257.3678,28.5729 256.9761,28.472 C256.567,28.3561 256.4278,27.8501 256.4709,27.5159 C256.499,27.1831 256.533,26.879 256.62,26.5609 C256.2719,26.5609 255.9729,26.517 255.6889,26.227 C255.5069,26.0529 255.423,25.88 255.366,25.7051 C254.818,26.0101 254.2129,26.227 253.5708,26.3001 C252.874,26.3721 251.906,26.4161 251.455,25.6181 C250.9428,24.7059 251.0911,23.402 251.154,22.519 C251.2019,21.534 251.3898,20.5631 251.182,19.55 C251.0191,18.724 252.605,18.724 252.755,19.55 C253.0779,21.1 252.611,22.5771 252.7111,24.1121 C252.7281,24.3011 252.7091,24.8649 252.8171,25.098 C252.914,25.098 253.0118,25.098 253.1071,25.0829 C253.812,24.967 254.43,24.6631 254.9759,24.2569 C255.0859,24.1702 255.218,24.1271 255.3371,24.084 C255.3529,22.4889 255.2829,20.8831 255.5191,19.3482 C255.561,19.014 255.8028,18.6231 256.2229,18.724 C256.6039,18.8399 256.7748,19.3759 256.732,19.709 C256.427,21.403 256.624,23.2002 256.5228,24.9531 L256.565,24.9531 C256.6759,24.9531 256.7689,24.9239 256.8519,24.9239 C257.0671,24.88 257.2629,24.88 257.4758,24.9092 C258.0118,24.9531 258.2899,25.6331 258.0858,26.0821" id="Fill-76"></path>
            <path d="M262.5838,20.3173 C262.0351,20.0273 261.4698,20.1433 261.1379,20.5784 C260.8079,21.0274 260.578,21.5773 260.48,22.1715 C260.87,22.1715 261.2431,22.1573 261.649,22.0844 C262.083,22.0113 262.922,21.9543 263.146,21.5342 C263.356,21.1283 263.0071,20.5194 262.5838,20.3173 L262.5838,20.3173 Z M264.739,21.5773 C264.5409,22.5774 263.5269,23.0102 262.6369,23.1854 C261.8979,23.3444 261.1308,23.4173 260.3649,23.4173 C260.374,23.8073 260.44,24.2133 260.5809,24.5614 C261.0228,25.5603 262.2749,26.0674 262.9098,25.2703 C263.142,24.9815 263.5519,24.8502 263.955,25.0254 C264.3019,25.1833 264.4958,25.6042 264.2929,25.8942 C263.1859,27.2855 260.459,27.3713 259.2999,25.3142 C258.731,24.3145 258.7599,23.1284 258.915,22.1284 C259.0768,21.1714 259.4119,20.0713 260.1979,19.5202 C261.065,18.8694 262.261,18.6083 263.4138,19.2745 C264.2699,19.7374 264.9088,20.6643 264.739,21.5773 L264.739,21.5773 Z" id="Fill-77"></path>
            <path d="M271.9716,19.9267 C271.6507,20.7666 271.6136,21.7227 271.6607,22.6936 C271.6626,22.7067 271.6986,22.7509 271.7026,22.7798 C271.7426,22.9388 271.7457,23.0409 271.6666,23.1557 C271.7378,24.0837 271.8466,25.0107 271.8117,25.8948 C271.7826,26.6468 270.2827,26.9226 270.3255,25.9948 C270.3698,25.1697 270.3117,24.3009 270.2286,23.4598 C269.5375,23.4899 268.8345,23.5327 268.1417,23.5477 C268.0947,24.4468 267.9776,25.3437 267.8277,26.2117 C267.7015,26.9657 266.1218,26.5017 266.2626,25.6618 C266.4307,24.8219 266.5246,23.9516 266.5487,23.0837 C266.4906,22.9827 266.4486,22.8957 266.4288,22.7798 C266.4356,22.6497 266.4727,22.5329 266.5747,22.4756 C266.5716,21.7809 266.5566,21.0997 266.5115,20.4046 C266.4557,20.3176 266.4395,20.2158 266.4336,20.0996 C266.4486,20.0129 266.4477,19.9267 266.4557,19.8108 C266.4486,18.9987 268.0026,19.2308 268.0697,20.0568 C268.1378,20.8097 268.1766,21.5629 268.1616,22.3169 C268.8388,22.2868 269.4967,22.2299 270.1747,22.1998 C270.1557,21.3177 270.2226,20.4616 270.5517,19.6648 C270.7006,19.3028 271.0495,19.0576 271.4645,19.1296 C271.8367,19.1877 272.1077,19.5647 271.9716,19.9267" id="Fill-78"></path>
            <path d="M282.7042,25.8506 C282.7212,26.6326 281.1649,26.7335 281.1499,25.8795 C281.0901,24.2425 281.4011,22.6636 281.1581,21.0127 C281.1321,20.8536 281.1031,20.6785 281.0541,20.5486 C280.977,20.5914 280.8999,20.6357 280.8271,20.6935 C280.2811,21.0997 279.787,21.6505 279.2141,22.0547 C279.2229,22.4464 279.2079,22.8665 279.2051,23.2724 C279.179,24.1265 279.0991,24.9965 279.0302,25.8506 C278.967,26.6465 277.3489,26.3716 277.415,25.5895 C277.557,23.9964 277.7702,22.3305 277.5012,20.6935 C277.4989,20.6785 277.4941,20.6507 277.491,20.6357 C277.4431,20.6785 277.3521,20.7235 277.3042,20.7666 C276.693,21.1136 276.1541,21.5626 275.541,21.8965 C275.488,21.9107 275.4239,21.9396 275.384,21.9546 C275.35,23.4456 275.3412,24.9095 275.2621,26.3716 C275.2351,26.7185 274.9301,26.9804 274.5639,26.7917 C274.1829,26.5884 274.0049,26.0966 274.0239,25.7046 C274.141,23.6205 274.1021,21.5195 274.177,19.4335 C274.2181,19.0857 274.533,18.8104 274.8871,19.0137 C275.2819,19.2155 275.4599,19.7084 275.4409,20.0996 C275.446,20.1285 275.433,20.1285 275.4341,20.1436 C276.6649,19.3326 278.3581,18.3756 278.9531,20.2156 C278.963,20.2745 279.003,20.3465 279.012,20.4046 C279.435,20.0126 279.8551,19.6075 280.3761,19.3907 C281.1839,19.0576 282.2611,19.1724 282.567,20.2745 C283.099,22.1576 282.6551,24.0256 282.7042,25.8506" id="Fill-79"></path>
            <path d="M287.7254,20.7235 C287.3377,20.7377 286.9746,20.8097 286.6236,20.9687 C286.3345,21.0708 286.0686,21.2307 285.8447,21.4756 C285.8985,22.6497 285.8645,23.7937 285.7766,24.9525 C287.4896,25.3877 289.0764,23.6925 288.9506,21.9966 C288.9015,21.2737 288.4965,20.6787 287.7254,20.7235 L287.7254,20.7235 Z M290.2055,21.6797 C290.3716,24.1265 288.3525,27.1675 285.6706,26.5167 C285.6117,27.2557 285.5615,27.9646 285.5555,28.6897 C285.5405,29.1107 285.2786,29.4565 284.8814,29.4996 C284.5444,29.5736 284.1776,29.2836 284.1836,28.8927 C284.2726,25.9668 284.8296,23.0837 284.3505,20.0846 C284.2765,19.6367 284.4554,19.2878 284.8146,19.1007 C285.0895,18.9987 285.5915,19.0857 285.6604,19.5058 C285.6746,19.5925 285.6885,19.6795 285.6944,19.7958 C286.3444,19.3476 287.1526,19.1007 287.9715,19.1727 C289.2936,19.2597 290.0935,20.4046 290.2055,21.6797 L290.2055,21.6797 Z" id="Fill-80"></path>
            <path d="M79.5363,27.0547 C53.2818,23.6945 29.2718,42.2527 25.9116,68.5086 C24.1598,82.1914 28.3698,95.2574 36.5138,105.1155 C39.8068,101.8913 45.5206,96.3644 46.6198,95.7223 C48.1786,94.8112 49.5296,93.7843 49.5296,93.7843 C49.5296,93.7843 48.8958,90.0315 49.9038,85.6443 C50.9038,81.2874 51.8716,80.0374 52.0567,78.6745 C52.3078,76.7906 52.4518,72.7977 51.6936,71.0598 C50.7808,68.9596 50.5257,67.4155 51.9487,66.3778 C53.3757,65.3386 56.0646,67.1017 57.2736,69.8947 C58.4828,72.6885 58.3496,73.6906 58.3496,73.6906 C58.3496,73.6906 59.5977,68.7387 61.0607,65.9667 C62.5236,63.1928 64.3216,59.1256 65.0127,57.3786 C65.7018,55.6296 66.4587,53.6655 68.3386,53.7747 C70.2197,53.8815 72.1628,54.9686 70.5737,58.6837 C68.9826,62.3996 68.7428,63.4357 68.4786,64.7396 C68.2156,66.0436 67.3028,71.1935 67.0956,71.6307 C66.8867,72.0686 67.3947,72.2015 67.6067,71.9816 C67.8187,71.7616 70.5006,68.3855 72.1257,66.4767 C73.7488,64.5667 76.8148,61.2456 77.4503,60.4386 C78.0844,59.6307 79.5553,57.2916 81.4375,57.4007 C83.3174,57.5067 84.2155,59.1525 83.8844,60.6756 C83.5513,62.1998 82.3494,63.5236 81.5713,64.4057 C80.7935,65.2876 78.1153,69.9007 77.6235,70.6326 C77.1328,71.3648 74.4118,75.4478 74.4118,75.4478 L74.7656,76.1066 C74.7656,76.1066 77.9804,74.1657 79.2645,73.3476 C80.5506,72.5275 86.0036,68.0255 87.2874,67.5425 C89.5094,66.7046 91.9594,69.4196 90.4676,71.3826 C89.1273,73.1427 87.3784,74.5055 86.7403,75.0966 C86.0994,75.6856 82.8716,78.8564 81.5155,79.8214 C80.1645,80.7854 78.4563,83.2093 78.7423,83.6872 C78.9666,84.0654 81.3533,84.2573 82.7953,83.7663 C84.8175,83.0724 90.0985,81.6693 91.1346,81.9414 C92.5893,82.3244 93.5003,84.7142 92.0765,85.8974 C90.6544,87.0815 87.7834,88.0895 86.9946,88.4684 C86.2094,88.8455 80.9984,90.7634 80.9984,90.7634 C80.9984,90.7634 77.0268,93.1323 75.0247,95.0403 C74.3498,96.2164 71.4377,100.5174 69.3806,101.8284 C68.2317,102.5623 67.2056,103.0864 67.2056,103.0864 C67.2056,103.0864 65.2636,107.5513 64.3406,108.6095 C62.7257,111.6695 59.8296,115.8562 57.0196,119.6104 C60.2998,120.8044 63.7558,121.6692 67.3626,122.1313 C93.6186,125.4923 117.6283,106.9353 120.9905,80.6783 C124.3504,54.4246 105.7894,30.4158 79.5363,27.0547" id="Fill-81"></path>
            <path d="M102.0403,7.0175 C102.0403,7.0175 101.0663,10.5375 100.0923,14.0545 C98.9573,17.6046 97.8223,21.1555 97.8223,21.1555 L97.8124,21.1816 C97.0014,23.7195 94.2864,25.1187 91.7483,24.3057 C89.2112,23.4947 87.8112,20.7805 88.6233,18.2427 C88.7373,17.8866 88.9034,17.5326 89.0854,17.2225 C89.0854,17.2225 90.9305,14.1616 92.7744,11.0976 C94.5293,7.8976 96.2854,4.6976 96.2854,4.6976 L96.2933,4.6814 C97.1225,3.1706 99.0203,2.6175 100.5334,3.4455 C101.8283,4.1564 102.4184,5.6526 102.0403,7.0175" id="Fill-82"></path>
            <path d="M47.7047,142.0994 C47.7047,142.0994 48.4967,138.5924 49.2875,135.0845 C50.2785,131.4663 51.2695,127.8473 51.2695,127.8473 C51.9765,125.2684 54.6405,123.7504 57.2186,124.4563 C59.7967,125.1635 61.3146,127.8275 60.6085,130.4053 C60.5076,130.7713 60.3687,131.1163 60.1947,131.4374 L60.0067,131.7784 C60.0067,131.7784 58.3547,134.7803 56.7047,137.7825 C55.1226,140.9973 53.5395,144.2103 53.5395,144.2103 C52.7775,145.7575 50.9067,146.3933 49.3595,145.6325 C48.0397,144.9814 47.3826,143.5224 47.6925,142.1464 L47.7047,142.0994 Z" id="Fill-83"></path>
            <path d="M140.759,103.2418 C140.759,103.2418 139.8899,103.0218 138.584,102.695 C138.2591,102.6108 137.9051,102.5229 137.5309,102.4288 C137.1661,102.3469 136.731,102.1808 136.306,102.0518 C135.4449,101.7709 134.525,101.471 133.606,101.1708 C132.7591,100.8848 131.9129,100.5987 131.1189,100.332 C130.3162,100.05 129.6151,99.8569 128.998,99.6619 C127.7729,99.2869 126.9571,99.036 126.9571,99.036 L126.8091,98.9918 C124.3042,98.2227 122.8951,95.5698 123.663,93.064 C124.4311,90.5598 127.0841,89.1507 129.5891,89.9189 C129.9391,90.0258 130.287,90.182 130.5911,90.3569 C130.5911,90.3569 131.4041,90.8308 132.6221,91.5418 C133.22,91.8978 133.959,92.31 134.6571,92.757 C135.3751,93.2029 136.1391,93.6788 136.9042,94.1559 C137.6091,94.5879 138.3141,95.0199 138.974,95.4258 C139.317,95.6259 139.5999,95.8348 139.9571,96.0089 C140.2989,96.1849 140.6229,96.3519 140.9211,96.5078 C142.1171,97.128 142.9119,97.5407 142.9119,97.5407 L142.921,97.545 C144.425,98.3239 145.011,100.1758 144.232,101.6799 C143.5642,102.9688 142.1071,103.5828 140.759,103.2418" id="Fill-84"></path>
            <path d="M7.6398,47.3428 C7.6398,47.3428 8.4386,47.5078 9.6368,47.7567 C10.2338,47.8777 10.9407,48.0368 11.6746,48.1626 C12.4156,48.3007 13.2048,48.4467 13.9948,48.5938 C14.8418,48.7789 15.6876,48.9657 16.4816,49.1397 C17.2807,49.3118 18.0038,49.5488 18.6376,49.7157 C19.9036,50.0729 20.7466,50.3127 20.7466,50.3127 C23.3196,51.0378 24.8166,53.7129 24.0898,56.2867 C23.3638,58.8597 20.6888,60.3547 18.1158,59.6288 C17.7127,59.5137 17.3337,59.3518 16.9876,59.1508 L16.8186,59.0477 C16.8186,59.0477 16.1698,58.6647 15.1958,58.0878 C14.7017,57.8086 14.1436,57.4359 13.5066,57.1147 C12.8697,56.7848 12.1897,56.4347 11.5108,56.0826 C10.7616,55.7289 10.0127,55.3728 9.3117,55.0398 C8.5976,54.7138 7.9748,54.3867 7.4238,54.1148 C6.3296,53.5677 5.5997,53.2026 5.5997,53.2026 C4.0548,52.4307 3.4286,50.5517 4.1997,49.0056 C4.8477,47.7096 6.2757,47.0597 7.6307,47.3397 L7.6398,47.3428 Z" id="Fill-85"></path>
            <path d="M132.1091,31.9833 C132.1091,31.9833 131.4971,32.5794 130.5792,33.4712 C129.6571,34.3633 128.4442,35.5544 127.206,36.7404 C124.5882,39.0674 121.9712,41.3955 121.9712,41.3955 C119.9791,43.1674 116.9261,42.9894 115.1551,40.9964 C113.382,39.0033 113.5611,35.9524 115.5542,34.1793 C115.8541,33.9123 116.1781,33.6903 116.5182,33.5115 L116.561,33.4902 C116.561,33.4902 119.5122,31.9604 122.4631,30.4294 C123.943,29.5923 125.4202,28.7294 126.5282,28.0933 C127.6371,27.4544 128.3761,27.0284 128.3761,27.0284 C129.8723,26.1655 131.7831,26.6774 132.6462,28.1724 C133.377,29.4392 133.121,31.0022 132.119,31.9754 L132.1091,31.9833 Z" id="Fill-86"></path>
            <path d="M13.9242,115.2224 C13.9242,115.2224 14.5274,114.5713 15.4283,113.5964 C15.6542,113.3532 15.8982,113.0893 16.1573,112.8104 C16.4283,112.5315 16.6562,112.2364 16.9173,111.9302 C17.4332,111.3225 17.9823,110.6734 18.5313,110.0242 C19.1652,109.3255 19.7993,108.6265 20.3934,107.9722 C20.9632,107.3004 21.6443,106.7474 22.1594,106.2363 C23.2374,105.2303 23.9563,104.5593 23.9563,104.5593 C25.9102,102.7355 28.9722,102.8404 30.7963,104.7923 C32.6204,106.7474 32.5144,109.8105 30.5613,111.6335 C30.2812,111.8954 29.9782,112.1173 29.6604,112.2985 L29.3702,112.4615 C29.3702,112.4615 28.6833,112.8492 27.6532,113.4295 C27.1413,113.7413 26.5123,114.0163 25.8813,114.4794 C25.2373,114.9134 24.5513,115.3775 23.8653,115.8404 C23.1192,116.3823 22.3743,116.9235 21.6752,117.4314 C21.3263,117.6803 20.9864,117.9454 20.6712,118.1444 C20.3543,118.3552 20.0544,118.5523 19.7772,118.7362 C18.6702,119.4704 17.9324,119.9594 17.9324,119.9594 C16.4944,120.9124 14.5552,120.5195 13.6022,119.0815 C12.7903,117.8555 12.9553,116.2672 13.9114,115.2354 L13.9242,115.2224 Z" id="Fill-87"></path>
            <path d="M118.0892,130.8328 C118.0892,130.8328 115.5601,128.2938 113.0291,125.7537 C110.5272,123.0197 108.0242,120.2828 108.0242,120.2828 C106.2222,118.3119 106.3591,115.2547 108.3281,113.4527 C110.2982,111.6499 113.3562,111.7868 115.159,113.7558 C115.4161,114.0378 115.6341,114.3417 115.8133,114.6617 L115.9241,114.8638 C115.9241,114.8638 117.5931,117.8887 119.2622,120.9118 C121.1231,123.9659 122.9852,127.0196 122.9852,127.0196 C123.8821,128.4928 123.4172,130.4138 121.944,131.3127 C120.6871,132.0778 119.1031,131.8518 118.1071,130.8526 L118.0892,130.8328 Z" id="Fill-88"></path>
            <path d="M29.9663,15.5262 C29.9663,15.5262 30.6424,16.1643 31.6563,17.1244 C32.1634,17.6015 32.7542,18.1724 33.3894,18.7163 C34.0244,19.2773 34.7013,19.8774 35.3782,20.4752 C36.0914,21.1453 36.8043,21.8135 37.4733,22.4413 C38.1542,23.0462 38.7364,23.7413 39.2583,24.2864 C40.2963,25.4115 40.9874,26.1624 40.9874,26.1624 C42.7962,28.1254 42.6712,31.1842 40.7073,32.9944 C38.7432,34.8032 35.6843,34.6774 33.8753,32.7132 C33.6284,32.4462 33.4183,32.1593 33.2434,31.8555 L33.0844,31.5763 C33.0844,31.5763 32.6683,30.8463 32.0452,29.7544 C31.7184,29.2073 31.4032,28.5494 30.9173,27.8714 C30.4592,27.1834 29.9694,26.4524 29.4804,25.7173 C28.9254,24.9404 28.3724,24.1614 27.8522,23.4315 C27.3173,22.7004 26.8782,22.0232 26.4924,21.4424 C25.7214,20.2825 25.2083,19.5075 25.2083,19.5075 C24.2542,18.0714 24.6462,16.1342 26.0814,15.1804 C27.3162,14.3615 28.9203,14.5352 29.9524,15.5103 L29.9663,15.5262 Z" id="Fill-89"></path>
            <path d="M145.8271,65.706 C145.8271,65.706 144.9699,65.9302 143.6838,66.2649 C143.3629,66.348 143.014,66.4381 142.6469,66.5351 C142.2928,66.6391 141.8458,66.708 141.4149,66.7981 C140.539,66.9691 139.605,67.1491 138.6699,67.3311 C137.7999,67.4901 136.9288,67.6491 136.1139,67.7991 C135.283,67.9411 134.582,68.1072 133.9459,68.2311 C132.6978,68.4901 131.8639,68.6631 131.8639,68.6631 L131.744,68.6872 C129.1299,69.2272 126.575,67.5479 126.0339,64.9349 C125.495,62.32 127.1748,59.766 129.7878,59.2271 C130.1639,59.148 130.5639,59.118 130.933,59.129 C130.933,59.129 131.8528,59.1599 133.2339,59.2081 C133.9139,59.2381 134.7439,59.2481 135.5608,59.305 C136.3908,59.3521 137.2758,59.4031 138.161,59.455 C138.98,59.4961 139.7989,59.5369 140.566,59.5752 C140.958,59.5891 141.3069,59.629 141.7009,59.6101 C142.0819,59.6041 142.4408,59.599 142.7739,59.593 C144.1019,59.5721 144.988,59.559 144.988,59.559 C146.714,59.529 148.1359,60.9049 148.1639,62.6301 C148.188,64.101 147.1888,65.3519 145.8271,65.706" id="Fill-90"></path>
            <path d="M2.7222,82.8014 L4.6042,82.1764 C5.1643,81.9865 5.8423,81.7795 6.5161,81.5255 C6.8583,81.4005 7.2103,81.2735 7.5692,81.1434 C7.9303,81.0133 8.3003,80.8835 8.6673,80.7514 C9.4761,80.4935 10.2842,80.2364 11.0422,79.9946 C11.8042,79.7513 12.5261,79.6005 13.1441,79.4324 C14.3882,79.1164 15.2162,78.9063 15.2162,78.9063 C17.8102,78.2495 20.4433,79.8205 21.1001,82.4125 C21.7563,85.0065 20.1873,87.6404 17.5953,88.2964 C17.1752,88.4035 16.7543,88.4506 16.3402,88.4455 L16.1502,88.4415 C16.1502,88.4415 15.4183,88.4273 14.3202,88.4064 C13.7703,88.4064 13.1183,88.3624 12.4312,88.3925 C11.7401,88.4214 11.0022,88.4506 10.2641,88.4815 C9.4571,88.5436 8.6523,88.6073 7.8963,88.6666 C7.1312,88.7366 6.4512,88.7556 5.8531,88.7924 C4.6643,88.8574 3.8723,88.9004 3.8723,88.9004 C2.1471,88.9926 0.6711,87.6694 0.5781,85.9425 C0.5013,84.5025 1.4172,83.2354 2.7222,82.8014" id="Fill-91"></path>
            <path d="M85.0843,144.2889 C85.0843,144.2889 84.8513,143.4708 84.5012,142.2437 C84.1542,141.0148 83.6791,139.3846 83.2242,137.7377 C82.4152,134.3248 81.6062,130.9119 81.6062,130.9119 C80.9913,128.3136 82.5983,125.7097 85.1943,125.0949 C87.7922,124.4787 90.3961,126.0859 91.0121,128.6838 C91.1054,129.0747 91.1473,129.4688 91.1433,129.8529 L91.1402,129.9759 C91.1402,129.9759 91.0841,133.2717 91.0283,136.5667 C91.0643,138.2598 91.1252,139.9649 91.1581,141.2357 C91.1952,142.5118 91.2202,143.3608 91.2202,143.3608 C91.2703,145.0857 89.9123,146.5248 88.1871,146.5758 C86.7272,146.6187 85.4732,145.6537 85.0902,144.3107 L85.0843,144.2889 Z" id="Fill-92"></path>
            <path d="M63.4599,2.8681 C63.4599,2.8681 63.7471,3.6743 64.1779,4.8821 C64.2859,5.1832 64.4021,5.5103 64.526,5.8561 C64.6411,6.2192 64.799,6.5262 64.9501,6.8661 C65.1009,7.2011 65.2579,7.5472 65.4181,7.899 C65.5771,8.2621 65.731,8.5791 65.898,8.9841 C66.2401,9.8521 66.5811,10.7212 66.9,11.533 C67.0729,11.9353 67.2019,12.3483 67.3051,12.7582 C67.4171,13.1621 67.5211,13.5442 67.618,13.8952 C67.9999,15.3221 68.2541,16.2743 68.2541,16.2743 C68.9449,18.86 67.41,21.5161 64.8239,22.2072 C62.2379,22.8983 59.5821,21.363 58.891,18.7761 C58.7881,18.3932 58.734,18.0082 58.726,17.6281 L58.7201,17.2052 C58.7201,17.2052 58.7079,16.4801 58.6909,15.3941 C58.6889,15.1192 58.6861,14.8201 58.683,14.504 C58.6909,14.1871 58.677,13.8492 58.6149,13.4872 C58.5251,12.7641 58.4281,11.9951 58.33,11.2232 C58.1761,10.3173 58.0211,9.4102 57.8771,8.5601 C57.8079,8.1363 57.722,7.7131 57.701,7.357 C57.667,6.9931 57.633,6.6472 57.603,6.3292 C57.4811,5.053 57.4,4.2021 57.4,4.2021 C57.235,2.4832 58.4959,0.9561 60.2151,0.7931 C61.669,0.6542 62.9871,1.5372 63.4551,2.8531 L63.4599,2.8681 Z" id="Fill-93"></path>
            <path d="M182.0218,62.7236 C180.8108,71.2267 173.6936,73.8077 166.6387,71.6287 C166.6487,71.5487 166.6696,71.4787 166.6736,71.3957 C167.0098,64.7187 167.2507,58.0377 167.3619,51.3556 C175.3108,49.8577 183.3657,53.2817 182.0218,62.7236 L182.0218,62.7236 Z M177.5887,35.1867 C178.7228,41.0445 172.2927,43.9435 167.4296,44.6567 C167.4418,39.9178 167.3718,35.1777 167.2167,30.4396 C171.6858,29.1815 176.5226,29.6748 177.5887,35.1867 L177.5887,35.1867 Z M184.0038,48.8976 C182.7738,47.5946 181.3588,46.6206 179.8298,45.9147 C182.9048,43.0257 184.6937,39.0277 183.9927,33.9766 C182.5706,23.7348 171.6036,21.4296 163.3097,24.8547 C162.4766,25.1997 161.9168,25.7718 161.5678,26.4317 C160.9598,26.9586 160.5666,27.7557 160.6058,28.8278 C161.1248,42.9157 160.8266,57.0095 160.1259,71.0855 C158.6096,72.4686 158.2369,75.0606 160.5808,76.2117 C166.6756,79.2023 173.2208,80.4195 179.5077,77.3073 C184.5276,74.8236 187.6778,69.1997 188.4417,63.8257 C189.2167,58.3838 187.8206,52.9356 184.0038,48.8976 L184.0038,48.8976 Z" id="Fill-94"></path>
            <path d="M202.8536,50.7149 C205.5837,48.712 211.4746,47.886 210.6188,52.8097 C209.6468,58.4019 203.8738,59.834 199.0997,58.5598 C198.7848,58.4759 198.4888,58.4478 198.2037,58.4459 C198.8687,55.3689 200.4436,52.4829 202.8536,50.7149 L202.8536,50.7149 Z M216.7147,73.8009 C219.6288,70.7358 214.9958,66.0858 212.0747,69.16 C207.1127,74.3808 200.3379,72.2517 198.3808,65.6787 C198.3227,65.4849 198.2788,65.2819 198.2306,65.0829 C206.5307,66.8809 215.4808,62.9918 217.0609,53.9028 C218.6817,44.572 209.6338,40.6128 201.9168,43.816 C192.7249,47.6289 189.6717,59.4289 192.3147,68.3067 C195.6037,79.3517 208.9906,81.9306 216.7147,73.8009 L216.7147,73.8009 Z" id="Fill-95"></path>
            <path d="M229.0891,70.9424 C228.9922,70.9104 228.9031,70.9033 228.809,70.8803 C229.0341,63.8512 228.9272,56.8123 228.5831,49.7704 C244.6448,43.8523 247.1948,76.8935 229.0891,70.9424 L229.0891,70.9424 Z M227.3761,89.367 C227.8801,85.4549 228.235,81.536 228.4882,77.6132 C240.4609,80.837 249.0467,71.8432 248.2848,59.6954 C247.9389,54.1783 245.65,48.5512 241.1979,45.1182 C236.0649,41.1574 229.732,41.9873 224.182,44.5484 C223.6392,44.7993 223.254,45.1324 222.979,45.5063 C222.3132,46.0304 221.8772,46.8505 221.9381,47.9883 C222.6862,61.8103 222.5822,75.6232 220.8131,89.367 C220.2742,93.5561 226.8432,93.5042 227.3761,89.367 L227.3761,89.367 Z" id="Fill-96"></path>
            <path d="M277.3311,71.5683 C268.2061,74.7323 271.759,53.6944 273.8569,48.7573 C286.9142,45.5394 288.4831,67.7032 277.3311,71.5683 L277.3311,71.5683 Z M258.1451,75.1904 C258.3619,70.9812 258.6491,66.7463 258.8191,62.5085 C260.9131,62.2403 263.03,62.2763 265.1381,62.5054 C265.3711,73.1032 269.6041,82.654 281.6871,76.8694 C298.5612,68.7915 292.035,36.3013 271.4319,42.5993 C270.7561,42.8063 270.255,43.1634 269.887,43.5963 C269.2869,43.8352 268.7449,44.2973 268.3611,45.0655 C267.028,47.7284 265.9741,51.7054 265.463,55.9984 C263.286,55.7872 261.1189,55.7413 258.9541,55.9273 C258.941,52.3585 258.7729,48.7964 258.31,45.2563 C257.7689,41.1214 251.1991,41.0684 251.7461,45.2563 C253.0421,55.1684 252.094,65.2544 251.5812,75.1904 C251.3629,79.422 257.9279,79.401 258.1451,75.1904 L258.1451,75.1904 Z" id="Fill-97"></path>
            <path d="M204.5011,92.4381 C204.1822,99.7951 203.7332,107.1442 203.4653,114.4973 C203.3542,114.5421 203.2442,114.5713 203.1311,114.6283 C197.1401,117.7021 192.6993,117.6432 191.1601,110.5461 C189.9061,104.7671 190.9742,98.1901 192.3813,92.5381 C193.4043,88.429 187.0743,86.6872 186.0521,90.7931 C184.1172,98.5621 182.9243,107.7352 185.7272,115.4341 C188.7603,123.7621 196.3033,124.2751 203.2791,121.6911 C203.2173,125.7891 203.2332,129.8891 203.4083,133.9943 C203.5883,138.2102 210.1523,138.2272 209.9723,133.9943 C209.3821,120.1173 210.4643,106.2933 211.0642,92.4381 C211.2481,88.2051 204.6842,88.2221 204.5011,92.4381" id="Fill-98"></path>
            <path d="M236.9521,105.1852 C237.0031,100.9514 230.4395,100.9562 230.3885,105.1852 C230.2944,112.9323 230.8871,120.6632 230.6895,128.4063 C230.6595,128.4293 230.6275,128.4432 230.5974,128.4681 C228.3785,130.3143 225.5396,131.6444 222.7463,130.2364 C220.0024,128.8553 220.1625,124.7732 220.0534,122.2152 C219.8204,116.8172 220.1804,111.2312 221.0625,105.9012 C221.7505,101.7624 215.4264,99.9882 214.7345,104.1574 C214.0354,108.3762 213.6834,112.6372 213.5105,116.9101 C213.3424,121.0493 212.9863,126.3013 214.6894,130.1961 C217.7383,137.1623 224.2796,138.4274 230.1935,136.1024 C229.7935,139.3484 228.9763,142.7063 227.0354,144.9473 C224.4845,147.8911 220.3405,147.0022 218.7035,143.7962 C216.7774,140.0253 211.1155,143.3472 213.0354,147.1093 C217.6995,156.2443 229.7915,154.3493 234.1402,146.0384 C237.091,140.4023 237.184,132.8292 237.3181,126.6352 C237.4731,119.4832 236.8651,112.3373 236.9521,105.1852" id="Fill-99"></path>
            <path d="M257.4112,127.4304 C256.2802,129.9974 254.4651,131.3935 251.6092,130.8005 C248.2952,130.1134 247.7533,124.6912 247.5282,122.0593 C246.8791,114.4672 249.8931,105.6223 258.9042,110.0874 C259.2401,110.2533 259.5692,110.3423 259.8932,110.3984 C259.8722,117.4144 258.6973,124.5093 257.4112,127.4304 L257.4112,127.4304 Z M243.7901,88.9064 C240.2171,91.1523 243.5081,96.8335 247.1021,94.5743 C254.875,89.6885 258.3282,95.2903 259.4533,103.2834 C248.757,99.7333 241.1922,107.6924 240.8682,119.1864 C240.7191,124.5073 241.788,129.9195 245.0961,134.1604 C248.2252,138.1742 254.5011,138.3194 258.5992,135.9884 C262.939,133.5195 264.5171,127.7623 265.4032,123.2512 C266.8531,115.8613 267.022,107.9943 265.7703,100.5764 C263.8192,89.0053 254.4762,82.1883 243.7901,88.9064 L243.7901,88.9064 Z" id="Fill-100"></path>
            <path d="M171.9183,128.2244 C170.6231,133.1342 164.9414,131.2824 163.6283,127.5202 C162.8273,125.2284 162.5452,122.7634 162.6393,120.3024 C163.4832,120.2803 164.3143,120.2015 165.1262,120.0694 C165.3223,120.0864 165.5273,120.0923 165.7481,120.0713 C170.8771,119.5773 173.1652,123.4964 171.9183,128.2244 L171.9183,128.2244 Z M168.7871,107.5955 C172.7502,106.4804 169.1071,111.9322 167.7973,112.8472 C166.5472,113.7203 165.0981,114.0712 163.6213,114.1855 C163.7831,113.6163 163.9572,113.0525 164.1502,112.5034 C164.9453,110.2484 166.4363,108.2563 168.7871,107.5955 L168.7871,107.5955 Z M173.3821,116.0243 C174.7081,114.7164 175.8012,113.1143 176.5702,111.2034 C178.8481,105.5503 173.3041,100.8383 168.1351,101.5824 C156.9281,103.1964 155.8671,118.1954 157.2133,126.8765 C158.6912,136.4145 170.5012,141.5954 176.5631,132.6524 C180.4843,126.8643 178.3523,119.5535 173.3821,116.0243 L173.3821,116.0243 Z" id="Fill-101"></path>
            <path d="M282.4882,129.6785 C278.4431,133.8375 275.4262,126.2775 274.8221,123.3695 C273.9411,119.1285 274.2631,111.5674 278.2864,108.8495 C278.6571,108.5995 278.9363,108.3056 279.1623,107.9924 C279.1912,107.9924 279.2173,108.0006 279.2473,107.9994 C288.9614,107.7985 287.0902,124.9495 282.4882,129.6785 L282.4882,129.6785 Z M279.2473,101.4355 C278.1313,101.4585 277.3172,101.9395 276.7902,102.6235 C276.2162,102.6006 275.5991,102.7585 274.9732,103.1814 C262.9943,111.2766 267.4172,144.7364 284.8863,136.0145 C297.5041,129.7154 295.3013,101.1044 279.2473,101.4355 L279.2473,101.4355 Z" id="Fill-102"></path>
        </g>
    </g>
</svg>