<?xml version="1.0" encoding="UTF-8" standalone="no"?>
<svg width="84px" height="75px" viewBox="0 0 84 75" version="1.1" xmlns="http://www.w3.org/2000/svg" xmlns:xlink="http://www.w3.org/1999/xlink">
    <!-- Generator: Sketch 39.1 (31720) - http://www.bohemiancoding.com/sketch -->
    <title>Group</title>
    <desc>Created with Sketch.</desc>
    <defs></defs>
    <g id="Page-1" stroke="none" stroke-width="1" fill="none" fill-rule="evenodd">
        <g id="Artboard" transform="translate(-241.000000, -561.000000)">
            <g id="Group" transform="translate(241.000000, 561.000000)">
                <g>
                    <path d="M17.3076923,63.4615385 C14.1201923,63.4615385 11.5384615,66.0461538 11.5384615,69.2307692 C11.5384615,72.4153846 14.1201923,75 17.3076923,75 C20.4923077,75 23.0769231,72.4153846 23.0769231,69.2307692 C23.0769231,66.0461538 20.4923077,63.4615385 17.3076923,63.4615385 L17.3076923,63.4615385 Z M17.3076923,72.1153846 C15.7125,72.1153846 14.4230769,70.8259615 14.4230769,69.2307692 C14.4230769,67.6355769 15.7125,66.3461538 17.3076923,66.3461538 C18.9028846,66.3461538 20.1923077,67.6355769 20.1923077,69.2307692 C20.1923077,70.8259615 18.9028846,72.1153846 17.3076923,72.1153846 L17.3076923,72.1153846 Z" id="Shape" fill="#000000"></path>
                    <path d="M72.1153846,63.4615385 C68.9278846,63.4615385 66.3461538,66.0461538 66.3461538,69.2307692 C66.3461538,72.4153846 68.9278846,75 72.1153846,75 C75.3,75 77.8846154,72.4153846 77.8846154,69.2307692 C77.8846154,66.0461538 75.3,63.4615385 72.1153846,63.4615385 L72.1153846,63.4615385 Z M72.1153846,72.1153846 C70.5201923,72.1153846 69.2307692,70.8259615 69.2307692,69.2307692 C69.2307692,67.6355769 70.5201923,66.3461538 72.1153846,66.3461538 C73.7105769,66.3461538 75,67.6355769 75,69.2307692 C75,70.8259615 73.7105769,72.1153846 72.1153846,72.1153846 L72.1153846,72.1153846 Z" id="Shape" fill="#000000"></path>
                    <polygon id="Shape" fill="#000000" points="57.6923077 0 57.6923077 8.65384615 69.2307692 8.65384615 69.2307692 5.76923077 77.8846154 5.76923077 77.8846154 46.1538462 57.6923077 46.1538462 57.6923077 34.6153846 5.76923077 34.6153846 5.76923077 28.8461538 0 28.8461538 0 66.3461538 5.76923077 66.3461538 5.76923077 60.5769231 83.6538462 60.5769231 83.6538462 0"></polygon>
                    <ellipse id="Oval" fill="#DC471F" cx="67.7884615" cy="36.0576923" rx="7.21153846" ry="7.21153846"></ellipse>
                </g>
            </g>
        </g>
    </g>
</svg>