<?xml version="1.0" encoding="UTF-8" standalone="no"?>
<svg
   xmlns:dc="http://purl.org/dc/elements/1.1/"
   xmlns:cc="http://creativecommons.org/ns#"
   xmlns:rdf="http://www.w3.org/1999/02/22-rdf-syntax-ns#"
   xmlns:svg="http://www.w3.org/2000/svg"
   xmlns="http://www.w3.org/2000/svg"
   viewBox="0 0 213.21333 188.94667"
   height="188.94667"
   width="213.21333"
   xml:space="preserve"
   id="svg2"
   version="1.1"><metadata
     id="metadata8"><rdf:RDF><cc:Work
         rdf:about=""><dc:format>image/svg+xml</dc:format><dc:type
           rdf:resource="http://purl.org/dc/dcmitype/StillImage" /></cc:Work></rdf:RDF></metadata><defs
     id="defs6" /><g
     transform="matrix(1.3333333,0,0,-1.3333333,0,188.94667)"
     id="g10"><g
       transform="scale(0.1)"
       id="g12"><path
         id="path14"
         style="fill:#231f20;fill-opacity:1;fill-rule:evenodd;stroke:none"
         d="m 1279.65,909.699 c -4.55,-3.699 -11.25,-3.004 -14.95,1.543 -3.71,4.547 -3.01,11.258 1.53,14.957 53.8,43.879 104.2,59.356 151.74,50.875 47.14,-8.398 90.67,-40.414 131.16,-91.578 3.63,-4.594 2.84,-11.273 -1.75,-14.902 -4.59,-3.621 -11.27,-2.836 -14.9,1.754 -37.22,47.043 -76.48,76.34 -118.17,83.754 -41.36,7.375 -86.07,-6.75 -134.66,-46.403 z m -41.79,-160.148 c -2.67,-5.211 -9.11,-7.266 -14.32,-4.59 -5.22,2.676 -7.27,9.109 -4.6,14.32 32.27,62.285 70.22,99.77 113.31,114.535 43.5,14.914 91.41,6.575 143.29,-22.816 5.09,-2.887 6.88,-9.398 4,-14.488 -2.89,-5.098 -9.4,-6.895 -14.49,-4.008 -46.38,26.277 -88.5,33.969 -125.88,21.156 -37.82,-12.969 -71.73,-47.019 -101.31,-104.109 z M 760.172,252.41 c 6.254,-0.172 15.43,-0.961 19.555,-8.109 4.121,-7.16 3.183,-20.539 3.183,-31.449 0,-12.282 -1.023,-26.961 -6.055,-34.223 -3.929,-5.629 -11.195,-5.348 -16.683,-5.348 -4.895,0 -12.496,-1.25 -16.106,3.289 -5.625,7.121 -6.136,22.821 -6.621,36.282 -0.468,13.328 0.485,26.73 6.254,33.898 3.778,4.672 11.047,5.809 16.473,5.66 z m 163.297,232.481 29.129,45.586 c -1.25,-20.957 7.226,-43.133 25.488,-66.543 -23.008,0.058 -42.59,5.089 -54.617,20.957 z m 55.886,54.336 c -0.195,3.156 2.208,5.918 5.372,6.113 3.156,0.195 5.918,-2.207 6.113,-5.36 0.5,-7.492 2.402,-15 6.457,-22.421 4.163,-7.59 10.663,-15.293 20.353,-23.079 2.46,-1.972 2.85,-5.605 0.88,-8.066 -1.99,-2.461 -5.61,-2.851 -8.07,-0.879 -10.929,8.77 -18.382,17.649 -23.226,26.524 -4.961,9.082 -7.273,18.164 -7.879,27.168 z M 1015.3,549.5 c -1.69,2.676 -0.91,6.242 1.77,7.93 2.68,1.691 6.24,0.91 7.94,-1.766 5.5,-8.664 12.14,-16.164 20.58,-21.789 l 0.08,-0.078 c 8.37,-5.555 18.64,-9.305 31.42,-10.606 3.14,-0.3 5.46,-3.125 5.15,-6.269 -0.3,-3.145 -3.13,-5.457 -6.27,-5.156 -14.64,1.484 -26.47,5.812 -36.26,12.226 l -0.5,0.305 c -9.86,6.57 -17.59,15.262 -23.91,25.203 z m -36.284,53.43 c 8.64,-12.063 21.104,-22.258 47.224,-25.95 2.12,9.512 -0.28,17.122 -7.21,22.793 l -40.014,3.157 z M 874.52,387.379 c -3.153,0.051 -5.672,2.703 -5.633,5.851 0.051,3.168 2.695,5.692 5.847,5.641 l 33.52,-0.762 c 3.152,-0.031 5.684,-2.679 5.633,-5.847 -0.047,-3.153 -2.688,-5.672 -5.852,-5.633 l -33.515,0.75 z m 228.03,151.047 7.62,-9.16 -8.83,-7.344 -7.62,9.16 8.83,7.344 z m -30.98,-51.524 7.62,-9.16 -8.82,-7.344 -7.62,9.161 8.82,7.343 z m -26.03,-38.875 7.61,-9.16 -8.82,-7.344 -7.61,9.149 8.82,7.355 z m -38.35,-1.379 7.61,-9.16 -8.81,-7.343 -7.623,9.16 8.823,7.343 z M 911.953,711.66 c 35.227,-68.254 69.387,-67.597 92.217,-9.445 -28.982,-22.137 -59.717,-19.004 -92.217,9.445 z m 28.32,90.977 c -6.203,3.926 -8.039,12.176 -4.113,18.367 3.93,6.195 12.18,8.039 18.371,4.113 20.449,-12.98 39.766,-28.273 57.229,-47.219 14.99,-16.3 28.58,-35.281 40.23,-57.718 l 21.9,8.765 0.2,0.086 c -4.3,6.774 -8.84,13.223 -13.53,19.211 v 0.043 c -12.9,16.449 -27.44,29.75 -44.1,38.559 -6.5,3.414 -9,11.465 -5.58,17.965 3.42,6.5 11.46,8.988 17.97,5.578 20.14,-10.672 37.48,-26.383 52.63,-45.727 l 0.02,0.016 c 14.69,-18.719 27.43,-40.946 38.88,-65.281 -0.55,-12.278 -7.25,-17.668 -20.15,-16.204 l -23.52,18.235 -26.27,-10.52 -11.7,-4.676 -5.32,11.407 c -11.6,24.883 -25.6,45.238 -41.24,62.25 -15.696,17.031 -33.242,30.902 -51.907,42.75 z m -423.671,84.101 c -11.907,0.008 -21.653,3.125 -29.297,9.063 -21.836,16.98 -24.075,55.137 -10.336,110.409 l 0.758,2.97 2.054,2.44 c 26.989,31.71 50.707,64.41 69.789,98.47 18.539,33.09 32.641,67.31 40.875,102.93 -1.211,43.86 -12.453,79.27 -32.093,107.43 -19.372,27.81 -47.204,48.91 -81.883,64.5 -25.262,8.11 -50.239,10.21 -74.715,-0.89 L 255.508,1274.84 c 8.824,-18.9 23.445,-23.27 46.222,-7.13 l 24.125,30.21 c 37.762,51.78 62.133,36.29 84.434,12.07 17.211,-23.66 36.149,-35.63 55.805,-42.28 41.34,-17.24 51.062,-54.58 39.195,-105.69 -25.797,-38.97 -39.851,-35.95 -42.219,9.07 0.438,43.27 -16.437,50.45 -36.824,43.38 -17.344,-6.03 -34.254,-5.54 -49.121,10.96 -20.129,11.8 -40.223,15.54 -60.316,1.52 -37.168,-12 -74.387,-11.49 -111.59,1.51 6.969,-46.34 -92.067,-67.36 31.504,-81 l 101.207,29.52 c 102.55,9.99 118.894,-39.96 60.98,-93.95 l -20.121,-4.67 -29.574,-58.28 C 268.27,985.961 240.352,908.77 248.66,802.105 c -6.027,-71.441 28.981,-95.769 104.969,-73.042 24.945,-27.122 29.828,-64.336 21.004,-108.43 l 28.722,-4.422 c -34.917,-30.371 -35.191,-56.953 40.887,-75.246 -0.965,-36.199 13.746,-49.473 44.211,-39.832 4.621,-45.86 15.309,-50.637 32.043,-14.387 l 96.129,3.32 c -103.168,81.27 -132.023,177.727 -127.07,281.047 11.906,22.985 24.511,30.086 38.683,2.223 -13.375,-57.324 -5.332,-111.16 36.598,-148.375 -8.551,-45.559 3.394,-43.125 25.277,-18.711 32.453,-59.289 52.692,-58.273 67.403,-29.875 l 11.058,67.5 c 26.946,-36.602 57.602,-69.902 95.031,-97.383 l 36.516,-0.906 0.137,7.449 -115.496,100.266 -5.715,42.519 c -89.434,6.875 -119.168,29.981 -115.496,62.196 36.847,-30.856 79.254,-26.504 126.285,6.976 l 38.078,-1.902 c -16.805,-33.574 6.191,-54.18 62.188,-64.086 l 3.101,-5.012 c 28.84,13.828 45.32,26.477 49.363,37.899 3.008,8.519 -3.621,18.089 -19.968,28.687 -21.254,5.852 -42.496,13.137 -63.453,25.692 -21.606,12.918 -42.52,31.308 -62.04,59.046 l 0.028,0.02 -0.242,0.348 c -13.219,20.062 -27.575,34.086 -43.649,38.328 -15.429,4.07 -33.804,-0.86 -56.195,-18.028 -13.887,-13.894 -29.328,-23.293 -46.266,-28.191 v 0.02 l -0.062,-0.02 c -17.149,-4.938 -35.625,-5.211 -55.297,-0.781 -7.152,1.601 -11.652,8.73 -10.051,15.879 1.602,7.14 8.731,11.648 15.879,10.047 12.512,-2.825 24.176,-3.223 34.996,-1.27 -4.336,9.883 -11.047,18.07 -19.644,25.07 z m 615.828,-145.949 -2.76,-0.906 c -9.34,28.148 -25.99,51.883 -50.27,70.906 -24.85,19.481 -57.89,34.242 -99.388,43.984 l -6.301,1.485 -2.754,5.91 c -9.055,19.535 -27.305,33.328 -52.18,42.879 -26.621,10.23 -60.808,15.656 -99.629,18.027 l -4.031,0.242 -3.254,2.481 c -26.14,19.953 -56.965,27.16 -91.109,25.109 -34.543,-2.086 -72.652,-13.597 -112.934,-31.019 2.313,-4.551 5.305,-8.688 9.035,-12.496 15.368,5.363 29.708,5.89 43.157,2.343 23.011,-6.078 42.172,-23.964 58.836,-49.14 l 0.015,0.015 c 17.149,-24.371 35.278,-40.386 53.91,-51.523 18.719,-11.211 38.504,-17.813 58.504,-23.238 1.797,-0.489 3.418,-1.348 4.797,-2.43 28.797,-18.426 39.297,-38.551 31.582,-60.383 -6.316,-17.832 -26.472,-35.097 -60.336,-51.777 l 17.055,-27.469 4.441,-129.465 -16.519,1.074 3.426,-22.89 c 17.175,-11.289 18.945,-23.164 5.34,-35.633 C 770.824,412 706.938,427.91 635.426,477.898 c -29.946,-26.55 4.551,-47.507 86.367,-62.828 50.859,-68.48 57.176,-67.711 53.621,-9.172 14.422,-1.597 43.902,-3.886 60.024,-5.457 12.394,11.981 14.203,34.481 8.839,64.176 16.668,-18.789 36.922,-26.902 60.774,-24.344 -34.692,32.442 -53.117,73.036 -64.094,117.293 l 76.262,-39.843 c 23.836,4.25 12.676,27.199 -14.375,58.652 53.609,-16.121 77.586,-11.512 36.465,38.73 l -30.942,38.723 c 46.328,-28.39 82.578,-30.637 104.113,5.371 11.05,-50.683 42.33,-33.058 70.96,1.192 l -2.65,-38.106 c -16.41,2.793 -26.28,-15.851 -26.56,-65.832 26.31,4.063 46.1,16.438 56.36,40.938 5,-11.473 3.15,-32.266 18.79,-28.758 14.8,-0.938 20.04,18.972 18.78,53.105 l 75.15,-3.32 -4.69,8.289 c 2.82,0.656 5.34,2.395 6.85,5.098 10.3,18.566 20.11,35.324 29.55,50.195 10.76,-10.508 26.76,-19.375 48.29,-26.328 24.71,-7.988 57.16,-13.758 98.07,-17.098 5.86,-0.461 10.99,3.926 11.45,9.793 0.45,5.86 -3.93,10.996 -9.79,11.446 -39.32,3.203 -70.18,8.644 -93.24,16.113 -20.63,6.66 -34.74,14.844 -42.75,24.308 22.06,32.204 41.9,53.563 60.27,64.293 25.54,14.926 49.11,6.801 73.59,-23.621 3.67,-4.558 10.38,-5.281 14.94,-1.609 4.56,3.668 5.29,10.375 1.62,14.941 -32.24,40.039 -64.49,49.985 -100.91,28.692 -28.02,-16.364 -57.88,-52.852 -92.08,-110.168 l 1.15,45.457 c 0.14,5.855 -4.5,10.742 -10.37,10.879 -5.86,0.136 -10.74,-4.508 -10.88,-10.368 l -1.68,-67.179 c -7.82,10.91 -16.05,20.597 -24.8,28.847 0.76,32.481 3.93,63.489 10.32,92.411 6.6,29.964 16.74,57.808 31.35,82.886 2.94,5.082 1.21,11.61 -3.87,14.539 -5.07,2.93 -11.6,1.211 -14.53,-3.867 -15.71,-26.988 -26.61,-56.875 -33.68,-88.965 -5.68,-25.675 -8.95,-52.75 -10.29,-80.898 -7.13,4.414 -14.51,7.91 -22.3,10.437 l -3.23,27.61 0.76,6.238 z m -910.043,542.561 166.871,124.61 3.441,2.56 c 29.348,8.99 59.156,8.08 89.274,1.05 l 2.582,-1.13 c 40.371,-17.66 72.902,-42.11 95.675,-74.8 22.79,-32.69 35.672,-73.39 36.805,-123.62 l 0.043,-1.62 -0.359,-1.56 c -8.809,-38.9 -23.93,-76.07 -43.942,-111.77 -19.277,-34.39 -43.269,-67.73 -70.691,-100.187 -10.34,-42.774 -10.598,-70.59 1.566,-80.047 12.555,-9.762 41.114,-2.422 88.606,25.215 l 0.59,0.332 0.769,0.347 c 44.332,19.477 86.621,32.395 125.563,34.739 38.984,2.344 74.593,-5.77 105.547,-28.117 39.597,-2.649 74.968,-8.543 103.543,-19.524 28.91,-11.09 51.015,-27.406 63.859,-50.621 42.501,-10.652 76.931,-26.562 103.621,-47.473 17.51,-13.718 31.7,-29.601 42.56,-47.476 l 26.37,103.988 c 142,130.354 276.43,166.434 392.51,31.598 l 34.95,-44.785 6.91,-29.743 c -41.75,-95.082 -73.84,-202.242 -96.28,-321.468 -23.78,-6.985 -39.67,30.73 -56.05,65.632 13.89,-74.453 16.78,-129.011 -58.18,-127.644 -24.23,48.926 -58.47,82.07 -99.54,104.434 -48.57,-111.582 -102.91,-215.848 -197.45,-269.25 -50.13,-9.18 -91.679,-26.93 -127.28,-50.598 h -86.497 l -21.21,-99.543 89.753,-3.258 c 82.574,-24.84 83.094,-78.6601 -14.683,-79.9608 L 802.703,60.3984 C 730.211,15.7305 647.969,-23.25 635.094,16.5 c -3.262,10.082 -12.344,20.5508 -28.617,31.0703 -11.047,7.1289 -10.11,26.4688 -12.649,44.211 -32.605,4.1093 -61.074,3.8007 -78.113,-8.7618 -18.875,-9.25 -36.012,-6.5976 -30.574,5.8203 6.894,15.7192 -4.336,24.5822 -30.457,24.5192 -11.575,-0.019 3.64,25.403 16.757,41.692 17.961,19.308 45.887,26.988 78.325,29.359 l 91.386,4.91 c 51.028,67.078 54.985,118.442 -9.789,146.86 -51.148,10.109 -92.304,35.121 -128.918,66.91 -100.57,33.902 -146.398,115.433 -200.929,209.965 -40.762,25.859 -76.094,85.402 -87.907,152.304 -13.148,127.676 33.344,228.047 109.012,299.991 l -19.383,-4.49 c -88.41,-58.19 -162.75,-52.93 -225.406,4.94 -12.9492,6.25 -19.8867,1.74 -5.3086,-41.17 3.6563,-23.42 -6.9179,-29.485 -31.6679,-18.12 l -40.7695625,63.4 C -1.52344,1137.95 18.9023,1183.97 55.9375,1213.36 c 38.1055,37.09 88.0705,59.04 144.7505,72.47 l 21.699,-2.48 z M 35.5234,1116.25 c -46.3437,-6.23 74.7146,130 83.8396,89.29 -38.9333,-20.1 -68.3669,-48.57 -83.8396,-89.29 z m 334.8206,35.25 c 24.414,7.23 31.379,-4 20.906,-33.71 -41.02,-9.59 -47.973,1.67 -20.906,33.71 z M 1455.12,726.434 c -5.88,0 -10.67,4.793 -10.67,10.671 0,5.879 4.79,10.665 10.67,10.665 h 9.88 c 5.88,0 10.67,-4.786 10.67,-10.665 0,-5.878 -4.79,-10.671 -10.67,-10.671 h -9.88 v 0" /></g></g></svg>