<?xml version="1.0" encoding="UTF-8" standalone="no"?>
<svg width="75px" height="75px" viewBox="0 0 75 75" version="1.1" xmlns="http://www.w3.org/2000/svg" xmlns:xlink="http://www.w3.org/1999/xlink">
    <!-- Generator: Sketch 39.1 (31720) - http://www.bohemiancoding.com/sketch -->
    <title>Group</title>
    <desc>Created with Sketch.</desc>
    <defs></defs>
    <g id="Page-1" stroke="none" stroke-width="1" fill="none" fill-rule="evenodd">
        <g id="Artboard" transform="translate(-487.000000, -238.000000)">
            <g id="Group" transform="translate(487.000000, 238.000000)">
                <path d="M74.9546875,57.2046875 C74.6507813,56.9695313 36.2570313,35.9273438 35.9078125,35.7789063 L57.33125,74.8414063 C57.3742188,68.965625 57.3390625,63.0867188 57.3476563,57.2101563 C63.2164063,57.2023438 69.0867188,57.2101563 74.9546875,57.2046875 L74.9546875,57.2046875 Z" id="Shape" fill="#DC471F"></path>
                <path d="M38.0875,46.2515625 C36.6945312,46.7484375 35.2015625,47.0335937 33.6398437,47.0335937 C26.3164062,47.0335937 20.3585937,41.0757812 20.3585937,33.7523437 C20.3585937,26.4289062 26.3164062,20.4710937 33.6398437,20.4710937 C40.9632812,20.4710937 46.9210937,26.4289062 46.9210937,33.7523437 C46.9210937,35.1929687 46.6828125,36.5765625 46.2570312,37.8757812 C47.5695312,38.5929687 48.9703125,39.359375 50.425,40.1554687 C51.1867187,38.1648437 51.6085937,36.0070312 51.6085937,33.7523437 C51.6085937,23.8445312 43.5484375,15.7835937 33.6398437,15.7835937 C23.73125,15.7835937 15.6710937,23.8445312 15.6710937,33.7523437 C15.6710937,43.6601562 23.73125,51.7210937 33.6398437,51.7210937 C36.0179687,51.7210937 38.2882812,51.2523437 40.3679687,50.409375 L38.0875,46.2515625 L38.0875,46.2515625 Z" id="Shape" fill="#000000"></path>
                <path d="M45.6476563,60.0367187 C41.9875,61.7148437 37.9226563,62.6585937 33.6398438,62.6585937 C17.7007813,62.6585937 4.7328125,49.6914062 4.7328125,33.7523437 C4.7328125,17.8132812 17.7007813,4.84609375 33.6398438,4.84609375 C49.5789063,4.84609375 62.5460938,17.8132812 62.5460938,33.7523437 C62.5460938,37.9101562 61.65625,41.8632812 60.06875,45.4390625 C61.4726563,46.2085937 62.8554688,46.9679687 64.1882813,47.7007812 C66.1375,43.4492187 67.2328125,38.728125 67.2328125,33.7523437 C67.2328125,15.2289062 52.1625,0.15859375 33.6390625,0.15859375 C15.1148438,0.15859375 0.04453125,15.2289062 0.04453125,33.7523437 C0.04453125,52.2757812 15.1148438,67.3460937 33.6390625,67.3460937 C38.7382813,67.3460937 43.5734375,66.1984375 47.9070313,64.1570312 L45.6476563,60.0367187 L45.6476563,60.0367187 Z" id="Shape" fill="#000000"></path>
            </g>
        </g>
    </g>
</svg>