<?xml version="1.0" encoding="UTF-8" standalone="no"?>
<svg width="204px" height="204px" viewBox="0 0 204 204" version="1.1" xmlns="http://www.w3.org/2000/svg" xmlns:xlink="http://www.w3.org/1999/xlink">
    <!-- Generator: Sketch 39.1 (31720) - http://www.bohemiancoding.com/sketch -->
    <title>Group 4</title>
    <desc>Created with Sketch.</desc>
    <defs></defs>
    <g id="Page-1" stroke="none" stroke-width="1" fill="none" fill-rule="evenodd">
        <g id="Home" transform="translate(-126.000000, -125.000000)">
            <g id="Group-4" transform="translate(128.000000, 127.000000)">
                <ellipse id="Oval" stroke="#FF9800" stroke-width="3" cx="100" cy="100" rx="100" ry="100"></ellipse>
                <g id="Group" transform="translate(121.186028, 125.659175) rotate(8.000000) translate(-121.186028, -125.659175) translate(59.186028, 63.159175)" fill="#FF9800">
                    <polyline id="Rectangle-path" points="115.113088 26.8817398 117.557321 27.7966295 103.531024 65.0617998 101.086792 64.14691 115.113088 26.8817398"></polyline>
                    <polyline id="Rectangle-path" points="120.229709 36.2902532 122.415099 37.7145861 100.576988 71.0356534 98.3915978 69.6113205 120.229709 36.2902532"></polyline>
                    <path d="M96.075658,80.4448925 C13.8703972,53.8252688 74.4915711,11.3225806 74.4915711,11.3225806 C109.305919,31.1169355 104.143745,59.922043 99.3090928,73.2204301 C105.107441,57.8037634 112.059528,23.2836022 71.1880493,-5.68434189e-14 C71.1880493,-5.68434189e-14 0.225005871,50.5510753 95.7023102,81.1599462 C95.7023102,81.1599462 95.982658,80.6801075 96.4355276,79.7930108 C96.2090928,80.2163978 96.075658,80.4448925 96.075658,80.4448925 L96.075658,80.4448925 Z" id="Shape"></path>
                    <path d="M12.5762989,112.725158 C12.5762989,112.725158 8.33738581,45.1821474 66.6618641,69.7963947 C-5.02361419,36.5961259 0.0792553775,117.87704 0.0792553775,117.87704 C60.717951,141.831341 85.526038,92.3904807 89.2285162,84.0168248 C85.371038,92.4590291 63.8004293,132.961717 12.5762989,112.725158 L12.5762989,112.725158 Z" id="Shape"></path>
                    <path d="M56.390889,78.4180108 L56.390889,78.4180108 C55.5174977,78.4180108 54.6184977,78.3346774 53.7181499,78.1680108 C50.8526716,77.6465054 48.5815847,76.438172 47.6461934,74.9354839 C47.1892803,74.2002688 47.059889,73.4153226 47.2755412,72.6666667 C47.7715412,70.9301075 49.942889,69.8924731 53.0873673,69.8924731 C53.9580629,69.8924731 54.8543673,69.9758065 55.7533673,70.141129 C58.6174977,70.6626344 60.8885847,71.8709677 61.823976,73.3736559 C62.2822368,74.1102151 62.4116281,74.8951613 62.195976,75.6451613 C61.7013238,77.3817204 59.529976,78.4180108 56.390889,78.4180108 L56.390889,78.4180108 Z M53.0860194,72.4959677 C50.7677586,72.4959677 49.8404542,73.186828 49.7838455,73.3803763 C49.7798021,73.7231183 51.0966281,75.0456989 54.1885412,75.608871 C54.9352368,75.7446237 55.6751934,75.8145161 56.3895412,75.8145161 L56.3895412,75.8145161 C58.5271934,75.8145161 59.6121934,75.1814516 59.6836281,74.9314516 C59.6917151,74.5887097 58.382976,73.266129 55.2816281,72.7002688 C54.538976,72.5645161 53.7990194,72.4959677 53.0860194,72.4959677 L53.0860194,72.4959677 Z" id="Shape"></path>
                    <path d="M65.5197709,51.1446098 C67.4215535,50.6365453 69.6912926,52.975255 70.5970317,56.3623517 C71.4987274,59.7481044 70.6927274,62.9026743 68.7882491,63.4053625 C66.89051,63.9093947 64.6207709,61.569341 63.7177274,58.1849324 C62.8146839,54.7991797 63.6220317,51.6446098 65.5197709,51.1446098 L65.5197709,51.1446098 Z" id="Shape"></path>
                    <ellipse id="Oval" cx="101.017343" cy="70.2848121" rx="3.69577086" ry="4.17800952"></ellipse>
                    <ellipse id="Oval" cx="97.7231006" cy="77.3493091" rx="3.16108804" ry="3.21488225"></ellipse>
                    <path d="M96.7797376,81.7146439 C96.6409115,83.6608805 95.0868681,85.1407192 93.3009985,85.0170633 C91.5178246,84.8947514 90.1753898,83.2119557 90.3142159,81.2657192 C90.4503463,79.3221708 92.0070854,77.8369557 93.792955,77.9646439 C95.5761289,78.0842676 96.9118246,79.7643751 96.7797376,81.7146439 L96.7797376,81.7146439 Z" id="Shape"></path>
                    <path d="M93.5564489,85.7277874 C93.4176228,87.6726799 91.9808402,89.1646154 90.3405359,89.0517122 C88.7002315,88.9374649 87.4817968,87.2654219 87.619275,85.3191853 C87.751362,83.3729487 89.1921881,81.8823573 90.8297968,81.9952606 C92.4714489,82.1081638 93.6885359,83.7802068 93.5564489,85.7277874 L93.5564489,85.7277874 Z" id="Shape"></path>
                    <path d="M90.6156136,90.4608027 C90.5037441,92.0616091 89.1424397,93.2672543 87.5681789,93.1556952 C85.9966136,93.0495124 84.8132223,91.6651038 84.9197006,90.0723618 C85.0342658,88.4728995 86.4009615,87.2659102 87.9684832,87.372093 C89.5427441,87.4823081 90.7247876,88.8626844 90.6156136,90.4608027 L90.6156136,90.4608027 Z" id="Shape"></path>
                    <path d="M86.7074788,94.7895338 C86.590218,96.5502865 85.1857832,97.886308 83.575131,97.7680285 C81.9644788,97.6591575 80.7554788,96.1430285 80.878131,94.3876521 C80.9980875,92.6295876 82.405218,91.2975984 84.0158701,91.4037811 C85.6265223,91.5153403 86.8328267,93.0287811 86.7074788,94.7895338 L86.7074788,94.7895338 Z" id="Shape"></path>
                    <path d="M84.8859905,97.4570907 C84.7633384,99.2178434 83.464034,100.559241 81.9895123,100.457091 C80.5082514,100.35494 79.4084253,98.8468757 79.5310775,97.0874671 C79.651034,95.3280585 80.9503384,93.9893488 82.4329471,94.0914993 C83.906121,94.194994 85.0059471,95.7030585 84.8859905,97.4570907 L84.8859905,97.4570907 Z" id="Shape"></path>
                    <path d="M123.871957,35.5551075 C123.871957,36.6330645 122.99587,37.5080645 121.914913,37.5080645 L121.914913,37.5080645 C120.832609,37.5080645 119.956522,36.6330645 119.956522,35.5551075 L119.956522,35.5551075 C119.956522,34.4771505 120.832609,33.6021505 121.914913,33.6021505 L121.914913,33.6021505 C122.99587,33.6021505 123.871957,34.4771505 123.871957,35.5551075 L123.871957,35.5551075 L123.871957,35.5551075 Z" id="Shape"></path>
                    <path d="M118.480652,27.4905914 C118.480652,28.5685484 117.604565,29.4435484 116.523609,29.4435484 L116.523609,29.4435484 C115.442652,29.4435484 114.565217,28.5685484 114.565217,27.4905914 L114.565217,27.4905914 C114.565217,26.4126344 115.442652,25.5376344 116.523609,25.5376344 L116.523609,25.5376344 C117.604565,25.5376344 118.480652,26.4126344 118.480652,27.4905914 L118.480652,27.4905914 L118.480652,27.4905914 Z" id="Shape"></path>
                </g>
            </g>
        </g>
    </g>
</svg>