<?xml version="1.0" encoding="UTF-8" standalone="no"?>
<svg width="94px" height="72px" viewBox="0 0 94 72" version="1.1" xmlns="http://www.w3.org/2000/svg" xmlns:xlink="http://www.w3.org/1999/xlink">
    <!-- Generator: Sketch 39.1 (31720) - http://www.bohemiancoding.com/sketch -->
    <title>Group Copy 2</title>
    <desc>Created with Sketch.</desc>
    <defs></defs>
    <g id="Page-1" stroke="none" stroke-width="1" fill="none" fill-rule="evenodd">
        <g id="Artboard" transform="translate(-103.000000, -403.000000)">
            <g id="Group-Copy-2" transform="translate(103.000000, 403.000000)">
                <g id="Group" transform="translate(0.000000, 14.025974)">
                    <polygon id="Shape" fill="#DC471F" points="62.3716364 30.0455065 93.5064935 5.13724675 93.5064935 54.9537662"></polygon>
                    <polygon id="Shape" fill="#DC471F" points="31.1357922 30.0455065 0 5.13724675 0 54.9537662"></polygon>
                    <polygon id="Shape" fill="#DC471F" points="3.68883117 57.830026 46.5615584 23.5318442 89.4333506 57.830026"></polygon>
                    <polygon id="Shape" fill="#000000" points="82.9673766 0.345038961 82.9673766 7.70119481 92.1637403 0.345038961"></polygon>
                    <polygon id="Shape" fill="#000000" points="10.1538701 0.345038961 0.957506494 0.345038961 10.1538701 7.70119481"></polygon>
                </g>
                <path d="M13.9867013,0 L13.9867013,24.5248831 L34.5852468,41.0025974 L46.5615584,31.4228571 L58.5378701,41.0025974 L79.1364156,24.5248831 L79.1364156,0 L13.9867013,0 L13.9867013,0 Z M22.636987,5.74784416 L37.0070649,5.74784416 L37.0070649,8.14348052 L22.636987,8.14348052 L22.636987,5.74784416 L22.636987,5.74784416 Z M60.9325714,25.8676364 L22.6098701,25.8676364 L22.6098701,22.9941818 L60.9325714,22.9941818 L60.9325714,25.8676364 L60.9325714,25.8676364 Z M60.9325714,20.1197922 L22.6098701,20.1197922 L22.6098701,17.2454026 L60.9325714,17.2454026 L60.9325714,20.1197922 L60.9325714,20.1197922 Z M60.9325714,14.371013 L22.6098701,14.371013 L22.6098701,11.4966234 L60.9325714,11.4966234 L60.9325714,14.371013 L60.9325714,14.371013 Z" id="Shape" fill="#000000"></path>
            </g>
        </g>
    </g>
</svg>