<?xml version="1.0" encoding="UTF-8" standalone="no"?>
<svg width="318px" height="159px" viewBox="0 0 318 159" version="1.1" xmlns="http://www.w3.org/2000/svg" xmlns:xlink="http://www.w3.org/1999/xlink">
    <!-- Generator: sketchtool 41.2 (35397) - http://www.bohemiancoding.com/sketch -->
    <title>новаяжизнь лого</title>
    <desc>Created with sketchtool.</desc>
    <defs>
        <linearGradient x1="50%" y1="0%" x2="50%" y2="100%" id="linearGradient-1">
            <stop stop-color="#DC3F39" offset="0%"></stop>
            <stop stop-color="#9FA63A" offset="100%"></stop>
        </linearGradient>
        <linearGradient x1="50%" y1="0%" x2="50%" y2="100%" id="linearGradient-2">
            <stop stop-color="#DF4B41" offset="0%"></stop>
            <stop stop-color="#9FA63A" offset="100%"></stop>
        </linearGradient>
    </defs>
    <g id="Concept" stroke="none" stroke-width="1" fill="none" fill-rule="evenodd">
        <g id="Section-orig-fonts" transform="translate(-168.000000, -15.000000)">
            <g id="Logo" transform="translate(168.000000, 15.000000)">
                <path d="M186.911447,69.6234757 C186.220646,70.2803155 185.387053,70.6091214 184.409126,70.6091214 C183.465932,70.6091214 182.640058,70.2803155 181.932277,69.6234757 C181.224495,68.9658641 180.870218,68.1994223 180.870218,67.3226068 L180.870218,55.5427136 L170.101442,55.5427136 L170.101442,67.3226068 C170.101442,68.1994223 169.755655,68.9658641 169.064854,69.6234757 C168.374053,70.2803155 167.539689,70.6091214 166.562534,70.6091214 C165.584607,70.6091214 164.751015,70.2803155 164.060214,69.6234757 C163.369413,68.9658641 163.023626,68.1994223 163.023626,67.3226068 L163.023626,37.2916748 C163.023626,36.4148592 163.369413,35.6569078 164.060214,35.0162767 C164.751015,34.3764175 165.584607,34.0561019 166.562534,34.0561019 C167.539689,34.0561019 168.374053,34.3764175 169.064854,35.0162767 C169.755655,35.6569078 170.101442,36.4148592 170.101442,37.2916748 L170.101442,49.071568 L180.870218,49.071568 L180.870218,37.2916748 C180.870218,36.4148592 181.224495,35.6569078 181.932277,35.0162767 C182.640058,34.3764175 183.465932,34.0561019 184.409126,34.0561019 C185.353092,34.0561019 186.178966,34.3764175 186.886748,35.0162767 C187.594529,35.6569078 187.948034,36.4148592 187.948034,37.2916748 L187.948034,67.3226068 C187.948034,68.1994223 187.602248,68.9658641 186.911447,69.6234757" id="Fill-1" fill="#0A0B09"></path>
                <path d="M206.604291,40.4763058 C204.379063,40.4763058 202.812218,41.1007282 201.902214,42.3472573 C200.992209,43.5945583 200.537592,45.2463058 200.537592,47.3017282 L200.537592,57.3125534 C200.537592,59.3347864 201.025398,60.986534 202.003325,62.2670243 C202.980481,63.5482864 204.514136,64.1881456 206.604291,64.1881456 C208.693675,64.1881456 210.22733,63.5482864 211.205257,62.2670243 C212.182413,60.986534 212.67099,59.3347864 212.67099,57.3125534 L212.67099,47.3017282 C212.67099,45.2463058 212.216374,43.5945583 211.306369,42.3472573 C210.395592,41.1007282 208.828748,40.4763058 206.604291,40.4763058 Z M206.604291,70.6091214 C204.412252,70.6091214 202.500393,70.263335 200.866398,69.572534 C199.230087,68.8825049 197.865466,67.937767 196.77099,66.7406359 C195.674971,65.5458204 194.849869,64.1372039 194.293369,62.5201893 C193.736869,60.9016311 193.459005,59.1665243 193.459005,57.3125534 L193.459005,47.3017282 C193.459005,45.5156796 193.702908,43.8222524 194.192257,42.2206748 C194.680835,40.6206408 195.447277,39.2120243 196.493126,37.9994563 C197.53666,36.7861165 198.894335,35.8251699 200.562291,35.1173883 C202.231019,34.4096068 204.244762,34.0561019 206.604291,34.0561019 C208.963049,34.0561019 210.977563,34.4096068 212.645519,35.1173883 C214.314248,35.8251699 215.670379,36.7861165 216.716228,37.9994563 C217.759762,39.2120243 218.526976,40.6206408 219.016325,42.2206748 C219.504131,43.8222524 219.748806,45.5156796 219.748806,47.3017282 L219.748806,57.3125534 C219.748806,59.1665243 219.470942,60.9016311 218.914442,62.5201893 C218.359485,64.1372039 217.532068,65.5458204 216.437592,66.7406359 C215.341573,67.937767 213.976951,68.8825049 212.342956,69.572534 C210.707417,70.263335 208.794786,70.6091214 206.604291,70.6091214 L206.604291,70.6091214 Z" id="Fill-2" fill="#0A0B09"></path>
                <path d="M232.28665,54.9360437 L232.28665,63.7335291 L237.948903,63.7335291 C239.63384,63.7335291 240.888859,63.3460631 241.715505,62.5703592 C242.541379,61.7954272 242.954316,60.7503495 242.954316,59.4358981 C242.954316,57.9871456 242.507417,56.8741456 241.614393,56.0984417 C240.720597,55.3235097 239.599879,54.9360437 238.252238,54.9360437 L232.28665,54.9360437 Z M238.100956,48.4648981 C238.53782,48.4648981 238.98549,48.3884854 239.440107,48.2372039 C239.895495,48.0851505 240.31615,47.8505097 240.704388,47.5294223 C241.091854,47.2098786 241.40368,46.7969417 241.639864,46.2906117 C241.874505,45.7850534 241.993369,45.1953641 241.993369,44.5207718 C241.993369,43.5443883 241.732485,42.6930437 241.209947,41.9682816 C240.686636,41.2435194 239.768913,40.8807524 238.454461,40.8807524 L232.28665,40.8807524 L232.28665,48.4648981 L238.100956,48.4648981 Z M229.152189,70.153733 C228.039961,70.153733 227.104485,69.7917379 226.345762,69.0669757 C225.587811,68.3429854 225.208835,67.4916408 225.208835,66.5137136 L225.208835,38.1507379 C225.208835,37.106432 225.595529,36.2388786 226.371233,35.546534 C227.146165,34.8572767 228.07315,34.5107184 229.152189,34.5107184 L237.695738,34.5107184 C239.58367,34.5107184 241.243136,34.7885825 242.676451,35.3450825 C244.108223,35.9008107 245.296092,36.6425534 246.24083,37.568767 C247.183252,38.4972961 247.891034,39.5585825 248.364175,40.7541699 C248.835772,41.951301 249.071956,43.1731311 249.071956,44.4196602 C249.071956,46.2072524 248.565626,47.6644951 247.555282,48.792932 C246.543393,49.9229126 245.279883,50.8583883 243.763209,51.5993592 C244.538141,51.9026942 245.305354,52.2816699 246.063306,52.7370583 C246.822029,53.1916748 247.49585,53.7404563 248.085539,54.3803155 C248.675228,55.0209466 249.146825,55.7626893 249.501102,56.6047718 C249.855379,57.4468544 250.032131,58.4247816 250.032131,59.5362379 C250.032131,61.0204951 249.745777,62.4020971 249.173068,63.6825874 C248.598816,64.9638495 247.773714,66.084568 246.695447,67.0447427 C245.616408,68.0049175 244.301956,68.7628689 242.752092,69.3193689 C241.200684,69.8758689 239.448597,70.153733 237.494286,70.153733 L229.152189,70.153733 L229.152189,70.153733 Z" id="Fill-3" fill="#0A0B09"></path>
                <path d="M267.573845,48.7172913 C267.338432,47.9763204 267.152417,47.1589369 267.018117,46.2651408 C266.883044,45.3728883 266.764951,44.5385243 266.664612,43.7628204 C266.5635,44.5385243 266.444636,45.3728883 266.310335,46.2651408 C266.175262,47.1589369 265.990019,47.9763204 265.754607,48.7172913 L263.074762,57.3627233 L270.152578,57.3627233 L267.573845,48.7172913 Z M259.535083,68.2326117 C259.265709,68.9743544 258.79334,69.5563252 258.119519,69.9769806 C257.444927,70.3984078 256.805068,70.6091214 256.198398,70.6091214 C255.220471,70.6091214 254.369898,70.3135049 253.645136,69.7245874 C252.920374,69.1348981 252.558379,68.3507039 252.558379,67.3735485 C252.558379,67.2392476 252.566869,67.053233 252.58385,66.8170485 C252.60083,66.5816359 252.64251,66.3956214 252.710432,66.2605485 L262.569204,37.4938981 C262.905728,36.5159709 263.369607,35.6993592 263.959296,35.0417476 C264.548214,34.3849078 265.4505,34.0561019 266.664612,34.0561019 C267.877951,34.0561019 268.779466,34.3764175 269.369155,35.0162767 C269.958073,35.6569078 270.43816,36.4820097 270.810189,37.4938981 L280.668961,66.2605485 C280.736112,66.3956214 280.777791,66.5816359 280.794772,66.8170485 C280.811752,67.053233 280.820243,67.2392476 280.820243,67.3735485 C280.820243,68.3507039 280.474456,69.1348981 279.784427,69.7245874 C279.092854,70.3135049 278.224529,70.6091214 277.180223,70.6091214 C276.505631,70.6091214 275.831811,70.3891456 275.15799,69.9522816 C274.483398,69.5138738 274.011801,68.9403932 273.742427,68.2326117 L271.973359,63.1268592 L261.203811,63.1268592 L259.535083,68.2326117 L259.535083,68.2326117 Z" id="Fill-4" fill="#0A0B09"></path>
                <path d="M291.690131,45.2285534 C291.690131,46.5430049 292.103068,47.5548932 292.928942,48.2626748 C293.754044,48.9704563 294.959665,49.3239612 296.544262,49.3239612 L301.700956,49.3239612 L301.700956,40.9316942 L296.847597,40.9316942 C295.802519,40.9316942 294.942684,41.0582767 294.268864,41.3106699 C293.594272,41.5630631 293.071733,41.8918689 292.701248,42.2963155 C292.330762,42.701534 292.069879,43.1561505 291.917825,43.6617087 C291.766544,44.167267 291.690131,44.6905777 291.690131,45.2285534 Z M284.612316,45.2285534 C284.612316,43.9141019 284.822257,42.6174029 285.244456,41.3361408 C285.665883,40.0556505 286.356684,38.9094612 287.316859,37.8975728 C288.277806,36.8872282 289.558296,36.0698447 291.159874,35.4461942 C292.759908,34.8225437 294.75667,34.5107184 297.150932,34.5107184 L304.936529,34.5107184 C305.442087,34.5107184 305.930665,34.6118301 306.403034,34.8140534 C306.873859,35.0162767 307.286796,35.277932 307.641073,35.5982476 C307.994578,35.9185631 308.273214,36.2975388 308.476209,36.7351748 C308.67766,37.1735825 308.778772,37.6451796 308.778772,38.1507379 L308.778772,67.2724369 C308.778772,68.1824417 308.442248,68.9658641 307.768427,69.6234757 C307.093835,70.2803155 306.267189,70.6091214 305.290806,70.6091214 C304.817665,70.6091214 304.363049,70.5157282 303.925413,70.3312573 C303.487005,70.1460146 303.099539,69.9013398 302.762243,69.5980049 C302.425718,69.2946699 302.164063,68.9403932 301.979592,68.5367184 C301.792806,68.1315 301.700956,67.7100728 301.700956,67.2724369 L301.700956,55.694767 L299.223335,55.694767 L290.780898,68.9905631 C290.106306,70.0364126 289.11217,70.5589515 287.797718,70.5589515 C287.460422,70.5589515 287.081447,70.4732767 286.660019,70.3057864 C286.23782,70.1375243 285.834146,69.9190922 285.44668,69.6481748 C285.059214,69.378801 284.738898,69.050767 284.485733,68.6625291 C284.232568,68.275835 284.106757,67.8621262 284.106757,67.4237184 C284.106757,67.1543447 284.157699,66.8170485 284.258811,66.4126019 C284.35915,66.0081553 284.511204,65.6538786 284.713427,65.3513155 L291.589791,54.9360437 C289.397752,54.2282621 287.687345,53.0658641 286.457796,51.4473058 C285.226704,49.8295194 284.612316,47.7571165 284.612316,45.2285534 L284.612316,45.2285534 Z" id="Fill-5" fill="#0A0B09"></path>
                <path d="M183.246728,91.1440485 L192.447888,77.6444854 C193.22282,76.6341408 194.200748,76.1278107 195.380126,76.1278107 C195.918874,76.1278107 196.398961,76.2374126 196.82116,76.4566165 C197.242587,76.6758204 197.605354,76.945966 197.908689,77.2655097 C198.212024,77.5858252 198.438947,77.9478204 198.591,78.352267 C198.743053,78.7574854 198.817922,79.1449515 198.817922,79.5154369 C198.817922,79.7855825 198.783961,80.046466 198.716811,80.2988592 C198.64966,80.5520243 198.531568,80.8298883 198.363306,81.1332233 L189.51565,94.3796214 L198.363306,107.726359 C198.531568,108.029694 198.64966,108.29984 198.716811,108.536024 C198.783961,108.771437 198.817922,109.024602 198.817922,109.293976 C198.817922,109.665233 198.743053,110.052699 198.591,110.456374 C198.438947,110.86082 198.212024,111.223587 197.908689,111.543131 C197.605354,111.864218 197.242587,112.133592 196.82116,112.352796 C196.398961,112.571228 195.918874,112.681602 195.380126,112.681602 C194.167558,112.681602 193.188859,112.193024 192.447888,111.215097 L183.246728,97.6661359 L183.246728,109.395087 C183.246728,110.271903 182.90017,111.038345 182.210141,111.695956 C181.518568,112.352796 180.684976,112.681602 179.707049,112.681602 C178.729893,112.681602 177.895529,112.352796 177.204728,111.695956 C176.513927,111.038345 176.168913,110.271903 176.168913,109.395087 L176.168913,97.6661359 L166.967752,111.215097 C166.225238,112.193024 165.248083,112.681602 164.034743,112.681602 C163.495223,112.681602 163.015136,112.571228 162.594481,112.352796 C162.172282,112.133592 161.810286,111.864218 161.50618,111.543131 C161.203617,111.223587 160.975922,110.86082 160.824641,110.456374 C160.672587,110.052699 160.596947,109.665233 160.596947,109.293976 C160.596947,109.024602 160.630136,108.771437 160.698058,108.536024 C160.764437,108.29984 160.883301,108.029694 161.052335,107.726359 L169.899218,94.4297913 L161.052335,81.1332233 C160.883301,80.8298883 160.764437,80.5520243 160.698058,80.2988592 C160.630136,80.046466 160.596947,79.7855825 160.596947,79.5154369 C160.596947,79.1449515 160.672587,78.7574854 160.824641,78.352267 C160.975922,77.9478204 161.203617,77.5858252 161.50618,77.2655097 C161.810286,76.945966 162.172282,76.6758204 162.594481,76.4566165 C163.015136,76.2374126 163.495223,76.1278107 164.034743,76.1278107 C165.214121,76.1278107 166.191277,76.6341408 166.967752,77.6444854 L176.168913,91.1440485 L176.168913,79.3641553 C176.168913,78.4873398 176.513927,77.7293883 177.204728,77.0887573 C177.895529,76.4488981 178.729893,76.1278107 179.707049,76.1278107 C180.684976,76.1278107 181.518568,76.4488981 182.210141,77.0887573 C182.90017,77.7293883 183.246728,78.4873398 183.246728,79.3641553 L183.246728,91.1440485" id="Fill-6" fill="#0A0B09"></path>
                <path d="M206.502408,112.681602 C205.390951,112.681602 204.488665,112.343534 203.797864,111.669714 C203.107063,110.995893 202.762049,110.187 202.762049,109.243806 L202.762049,79.4143252 C202.762049,78.5382816 203.097801,77.771068 203.772393,77.1142282 C204.446214,76.4566165 205.272087,76.1278107 206.250015,76.1278107 C207.22717,76.1278107 208.070796,76.4566165 208.778578,77.1142282 C209.486359,77.771068 209.839864,78.5382816 209.839864,79.4143252 L209.839864,98.525199 C210.985282,96.502966 212.03885,94.6574854 212.999024,92.9887573 C213.959971,91.320801 214.886956,89.7022427 215.779981,88.1353981 C216.673005,86.5685534 217.58301,84.975466 218.509995,83.3576796 C219.436981,81.7398932 220.456587,79.9538447 221.568816,77.9987621 C221.939301,77.4260534 222.436369,76.970665 223.060019,76.6341408 C223.68367,76.2968447 224.332019,76.1278107 225.006612,76.1278107 C226.084879,76.1278107 226.970184,76.4566165 227.660985,77.1142282 C228.351786,77.771068 228.697573,78.5884515 228.697573,79.5663786 L228.697573,109.395087 C228.697573,110.271903 228.360277,111.038345 227.686456,111.695956 C227.011864,112.352796 226.18599,112.681602 225.209607,112.681602 C224.230908,112.681602 223.388825,112.352796 222.681044,111.695956 C221.973262,111.038345 221.618985,110.271903 221.618985,109.395087 L221.618985,90.4864369 L209.890034,110.911762 C209.552738,111.451282 209.071879,111.881199 208.449772,112.200743 C207.82535,112.521058 207.176228,112.681602 206.502408,112.681602" id="Fill-7" fill="#0A0B09"></path>
                <path d="M256.909267,101.962995 C256.909267,103.378558 256.622141,104.726971 256.050204,106.007461 C255.476723,107.289495 254.650078,108.426422 253.572583,109.419786 C252.492772,110.414694 251.187583,111.207379 249.654699,111.796296 C248.1195,112.385985 246.409092,112.681602 244.522704,112.681602 C243.410476,112.681602 242.179383,112.571228 240.831743,112.352796 C239.48333,112.133592 238.228311,111.796296 237.065141,111.34168 C235.901971,110.887063 234.924816,110.330563 234.132903,109.672951 C233.34099,109.016112 232.944262,108.231917 232.944262,107.322684 C232.944262,106.480602 233.273068,105.763558 233.929908,105.173097 C234.587519,104.58418 235.353961,104.288563 236.230777,104.288563 C236.769524,104.288563 237.300553,104.407427 237.823092,104.64284 C238.345631,104.878252 238.902131,105.139908 239.492592,105.42549 C240.080738,105.713388 240.73835,105.974272 241.463883,106.209684 C242.188646,106.445869 243.038447,106.563961 244.017146,106.563961 C245.938267,106.563961 247.39551,106.100854 248.390417,105.173097 C249.383782,104.246883 249.88085,103.126165 249.88085,101.811714 C249.88085,100.968859 249.679398,100.269568 249.274951,99.713068 C248.870505,99.156568 248.330985,98.7104417 247.657165,98.3739175 C246.982573,98.0366214 246.207641,97.7842282 245.331597,97.6144223 C244.45401,97.446932 243.527796,97.3288398 242.550641,97.2609175 C242.078272,97.2277282 241.606675,97.1775583 241.135078,97.1096359 C240.662709,97.0424854 240.241282,96.9066408 239.871568,96.7051893 C239.499539,96.502966 239.204694,96.1919126 238.986262,95.7697136 C238.767058,95.3490583 238.657456,94.7670874 238.657456,94.0253447 C238.657456,93.3175631 238.767058,92.7610631 238.986262,92.3573883 C239.204694,91.9521699 239.48333,91.6496068 239.820626,91.4466117 C240.15715,91.2443883 240.536126,91.1178058 240.958325,91.0676359 C241.378981,91.017466 241.774937,90.9919951 242.146194,90.9919951 C242.988277,90.9588058 243.831903,90.8399417 244.673985,90.6377184 C245.516068,90.436267 246.267073,90.1414223 246.923913,89.7531845 C247.581524,89.3664903 248.111782,88.8864029 248.516228,88.3129223 C248.920675,87.7394417 249.122898,87.0486408 249.122898,86.2397476 C249.122898,85.7681505 249.038767,85.2957816 248.870505,84.8241845 C248.701471,84.3525874 248.432097,83.9226699 248.061612,83.534432 C247.690354,83.1477379 247.202549,82.8359126 246.595879,82.5989563 C245.989209,82.3643155 245.230485,82.2454515 244.319709,82.2454515 C242.904146,82.2454515 241.606675,82.5155971 240.427296,83.0543447 C239.853816,83.3244903 239.271845,83.6355437 238.682927,83.9898204 C238.093238,84.3433252 237.444117,84.5208495 236.736335,84.5208495 C235.927442,84.5208495 235.185699,84.2422136 234.511879,83.6857136 C233.837286,83.1307573 233.500762,82.4306942 233.500762,81.5886117 C233.500762,80.7465291 233.862757,79.9878058 234.587519,79.3124417 C235.312282,78.6393932 236.230777,78.0666845 237.343005,77.5943155 C238.456005,77.1227184 239.668573,76.7599515 240.983024,76.5075583 C242.297476,76.2543932 243.544777,76.1278107 244.724927,76.1278107 C246.578126,76.1278107 248.212893,76.4311456 249.628456,77.0378155 C251.044019,77.6444854 252.22417,78.4286796 253.167364,79.3888544 C254.11133,80.349801 254.819112,81.4288398 255.290709,82.6244272 C255.763078,83.8215583 255.99849,84.9932184 255.99849,86.1386359 C255.99849,87.857534 255.518403,89.323267 254.558228,90.5366068 C253.597282,91.7507184 252.190209,92.8289854 250.336238,93.7729515 C252.358471,94.5818447 253.959277,95.6354126 255.139427,96.9328835 C256.318806,98.2303544 256.909267,99.9075728 256.909267,101.962995" id="Fill-8" fill="#0A0B09"></path>
                <path d="M285.549335,111.695956 C284.858534,112.352796 284.024942,112.681602 283.047015,112.681602 C282.10382,112.681602 281.277947,112.352796 280.570165,111.695956 C279.862383,111.038345 279.508107,110.271903 279.508107,109.395087 L279.508107,97.6144223 L268.73933,97.6144223 L268.73933,109.395087 C268.73933,110.271903 268.393544,111.038345 267.702743,111.695956 C267.011942,112.352796 266.177578,112.681602 265.200422,112.681602 C264.222495,112.681602 263.388131,112.352796 262.698102,111.695956 C262.006529,111.038345 261.661515,110.271903 261.661515,109.395087 L261.661515,79.3641553 C261.661515,78.4873398 262.006529,77.7293883 262.698102,77.0887573 C263.388131,76.4488981 264.222495,76.1278107 265.200422,76.1278107 C266.177578,76.1278107 267.011942,76.4488981 267.702743,77.0887573 C268.393544,77.7293883 268.73933,78.4873398 268.73933,79.3641553 L268.73933,91.1440485 L279.508107,91.1440485 L279.508107,79.3641553 C279.508107,78.4873398 279.862383,77.7293883 280.570165,77.0887573 C281.277947,76.4488981 282.10382,76.1278107 283.047015,76.1278107 C283.990981,76.1278107 284.816854,76.4488981 285.524636,77.0887573 C286.232417,77.7293883 286.585922,78.4873398 286.585922,79.3641553 L286.585922,109.395087 C286.585922,110.271903 286.240136,111.038345 285.549335,111.695956" id="Fill-9" fill="#0A0B09"></path>
                <path d="M300.083942,95.0874029 L300.083942,105.80601 L304.381573,105.80601 C305.560951,105.80601 306.530388,105.646238 307.28834,105.32515 C308.047063,105.005607 308.636752,104.591898 309.05818,104.08634 C309.478835,103.580782 309.77368,103.008073 309.943485,102.367442 C310.111748,101.727583 310.195879,101.070743 310.195879,100.39615 C310.195879,98.5753689 309.706529,97.2354466 308.730146,96.3763835 C307.751447,95.5173204 306.302694,95.0874029 304.381573,95.0874029 L300.083942,95.0874029 Z M300.083942,88.6664272 L304.381573,88.6664272 C306.335883,88.6664272 308.105723,88.9273107 309.69032,89.4498495 C311.274146,89.9731602 312.630277,90.7226214 313.760257,91.6997767 C314.888694,92.6777039 315.757019,93.8987621 316.363689,95.365267 C316.970359,96.8317718 317.273694,98.4920097 317.273694,100.344437 C317.273694,101.895845 317.046772,103.387049 316.591383,104.819592 C316.135995,106.252908 315.403515,107.516417 314.392398,108.610893 C313.381282,109.706913 312.049078,110.582956 310.398102,111.240568 C308.746354,111.897408 306.74033,112.226214 304.381573,112.226214 L296.950252,112.226214 C296.410733,112.226214 295.904403,112.125102 295.432806,111.922879 C294.961209,111.720655 294.548272,111.459772 294.194767,111.139456 C293.84049,110.819141 293.554136,110.440165 293.334932,110.001757 C293.114956,109.564121 293.006898,109.090981 293.006898,108.586194 L293.006898,79.465267 C293.006898,78.5544903 293.360403,77.771068 294.068184,77.1142282 C294.775966,76.4566165 295.60184,76.1278107 296.545034,76.1278107 C297.522189,76.1278107 298.356553,76.4651068 299.048126,77.1389272 C299.738155,77.8135194 300.083942,78.5884515 300.083942,79.465267 L300.083942,88.6664272 L300.083942,88.6664272 Z" id="Fill-10" fill="#0A0B09"></path>
                <path d="M114.526311,158.957549 L29.5215146,158.957549 C28.4748932,158.957549 27.6258641,158.108519 27.6258641,157.061898 C27.6258641,156.014505 28.4748932,155.166248 29.5215146,155.166248 L114.526311,155.166248 C115.573704,155.166248 116.421961,156.014505 116.421961,157.061898 C116.421961,158.108519 115.573704,158.957549 114.526311,158.957549" id="Fill-11" fill="#9FA63A"></path>
                <path d="M71.7591699,11.8972136 C38.9434223,11.8972136 12.2468592,38.5945485 12.2468592,71.4095243 C12.2468592,104.225272 38.9434223,130.922607 71.7591699,130.922607 C104.574917,130.922607 131.272252,104.225272 131.272252,71.4095243 C131.272252,38.5945485 104.574917,11.8972136 71.7591699,11.8972136 Z M71.7591699,142.643068 C32.480767,142.643068 0.525626214,110.687927 0.525626214,71.4095243 C0.525626214,32.1318932 32.480767,0.175980583 71.7591699,0.175980583 C111.037573,0.175980583 142.992714,32.1318932 142.992714,71.4095243 C142.992714,110.687927 111.037573,142.643068 71.7591699,142.643068 L71.7591699,142.643068 Z" id="Fill-12" fill="#F5C047"></path>
                <path d="M47.1319223,72.6884709 C46.7174417,73.1284223 46.5098155,73.3491699 46.5098155,73.3491699 L45.2648301,74.670568 C45.2648301,74.670568 45.0572039,74.8905437 44.6419515,75.331267 C45.0108932,75.6770534 45.1953641,75.8499466 45.1953641,75.8499466 C45.1953641,75.8499466 46.7490874,77.3048738 49.0785146,79.4861068 C51.3948204,81.6650243 54.4497816,84.5594417 57.1713058,87.6823252 C59.9159854,90.789 62.2122233,94.2028689 63.6841311,96.9097282 C64.4189272,98.262 64.996267,99.4105049 65.3567184,100.236379 C65.7287476,101.05685 65.9417767,101.525359 65.9417767,101.525359 L65.9464078,101.536937 C65.9464078,101.536937 65.9927184,101.685131 66.0629563,101.90665 C66.0969175,102.01934 66.1494029,102.140519 66.1879951,102.286398 C66.2157816,102.443854 66.2443398,102.612117 66.2736699,102.780379 C66.3539417,103.103782 66.3593447,103.477354 66.3778689,103.749044 C66.3963932,104.021505 66.4087427,104.20366 66.4087427,104.20366 L66.3786408,105.189306 C66.3786408,105.189306 66.3840437,105.386126 66.3354175,105.774364 C66.2906505,106.160286 66.2566893,106.721417 66.1185291,107.453126 C65.8869757,108.908053 65.3999417,111.013646 64.5833301,113.512107 C62.9709466,118.516748 60.0680388,125.043466 56.7197767,131.34249 C53.3815485,137.650777 49.6381019,143.753752 46.6394854,148.17565 C43.6478155,152.609898 41.4179563,155.33451 41.4179563,155.33451 C41.4179563,155.33451 41.2643592,155.526699 40.957165,155.911078 C41.4256748,156.294684 41.6595437,156.486874 41.6595437,156.486874 L42.3619223,157.061898 L43.064301,157.636922 C43.064301,157.636922 43.2981699,157.82834 43.7666796,158.211947 C44.0893107,157.808272 44.2506262,157.60682 44.2506262,157.60682 C44.2506262,157.60682 46.5900874,154.743277 49.6473641,150.209461 C52.7177621,145.68182 56.5221845,139.478505 59.9291068,133.042092 C63.3452913,126.611083 66.3300146,119.926136 68.037335,114.632825 C68.901801,111.990801 69.4390049,109.695335 69.7029757,108.036641 C69.9723495,106.380262 70.0055388,105.380723 70.0055388,105.380723 L70.0395,104.151175 C70.0395,104.151175 70.0256068,103.905728 70.0032233,103.537558 C69.9785243,103.167845 69.9646311,102.683898 69.8527136,102.168306 C69.8064029,101.914369 69.7593204,101.661204 69.7160971,101.423476 C69.6535777,101.18266 69.5694466,100.95265 69.507699,100.758146 C69.3749417,100.37068 69.2869515,100.112883 69.2869515,100.112883 L69.2800049,100.095903 C69.2800049,100.095903 69.0530825,99.5957476 68.6563544,98.7197039 C68.2712039,97.839801 67.6537282,96.6079369 66.8649029,95.1576408 C65.289568,92.254733 62.8065437,88.5738058 59.9098107,85.2965534 C57.0346893,82.0000049 53.8971408,79.0338058 51.5661699,76.8402233 C49.2359709,74.6582184 47.6822476,73.2040631 47.6822476,73.2040631 C47.6822476,73.2040631 47.4993204,73.0319417 47.1319223,72.6884709" id="Fill-16" fill="url(#linearGradient-1)"></path>
                <path d="M64.1920049,40.3721068 C63.6432233,40.6252718 63.3676748,40.7526262 63.3676748,40.7526262 L62.5433447,41.1323738 L61.7190146,41.513665 C61.7190146,41.513665 61.4442379,41.6402476 60.8946845,41.8934126 C61.0992233,42.3480291 61.2011068,42.5757233 61.2011068,42.5757233 C61.2011068,42.5757233 62.4800534,45.3443301 64.2267379,49.6141748 C65.985,53.8747573 68.2194903,59.6157379 70.3358883,65.4014854 C72.4576893,71.1849175 74.4583107,77.0131165 75.8831359,81.4018252 C77.3141359,85.7897621 78.1793738,88.7343495 78.1793738,88.7343495 C78.1793738,88.7343495 79.1109903,91.8309903 79.9430388,94.9407524 C80.7704563,98.0543738 81.4134029,101.162592 81.4134029,101.162592 L81.4149466,101.175714 C81.4149466,101.175714 81.472835,101.624927 81.5299515,102.074141 C81.546932,102.558087 81.5639126,103.042806 81.5639126,103.042806 C81.5639126,103.042806 81.5546505,103.248888 81.5368981,103.635583 C81.5345825,104.018417 81.4766942,104.597301 81.3941068,105.338272 C81.2080922,106.823301 80.7912961,108.98215 80.076568,111.55934 C78.6640922,116.719893 76.0699223,123.500549 73.0774806,130.100592 C70.0919854,136.707583 66.7244272,143.15017 63.9843786,147.826005 C62.6182136,150.16701 61.418767,152.070379 60.5519854,153.373252 C59.6828883,154.675354 59.1611214,155.387767 59.1611214,155.387767 C59.1611214,155.387767 59.0191019,155.586131 58.7342913,155.982087 C59.2213252,156.342539 59.4636845,156.521607 59.4636845,156.521607 L60.1938495,157.061898 L60.9247864,157.601417 C60.9247864,157.601417 61.1679175,157.781257 61.6541796,158.140937 C61.9582864,157.718738 62.1103398,157.507252 62.1103398,157.507252 C62.1103398,157.507252 62.6691553,156.743898 63.5768447,155.382364 C64.4829903,154.02083 65.7210291,152.05417 67.1203835,149.656049 C69.9291262,144.863665 73.3460825,138.323825 76.3863786,131.597199 C79.4328495,124.872888 82.088767,117.955617 83.5768835,112.526461 C84.329432,109.815743 84.7871359,107.47551 84.9978495,105.785942 C85.0943301,104.936141 85.1583932,104.263864 85.1653398,103.787636 C85.1846359,103.317583 85.1946699,103.067505 85.1946699,103.067505 C85.1946699,103.067505 85.1730583,102.432277 85.1514466,101.79782 C85.0819806,101.140981 84.9793252,100.476422 84.9793252,100.476422 L84.9762379,100.459442 C84.9762379,100.459442 84.3001019,97.1914515 83.4533883,94.0114515 C82.6028155,90.8329951 81.6588495,87.6954466 81.6588495,87.6954466 C81.6588495,87.6954466 80.7812621,84.7076359 79.3363689,80.2787913 C77.8976505,75.8468592 75.8831359,69.9777524 73.7458981,64.1526408 C71.614835,58.3259854 69.3633641,52.5425534 67.585034,48.2302573 C65.8198252,43.9156456 64.5053738,41.0698544 64.5053738,41.0698544 C64.5053738,41.0698544 64.4011748,40.8375291 64.1920049,40.3721068" id="Fill-24" fill="url(#linearGradient-2)"></path>
                <path d="M100.397694,64.9260291 C99.7933398,64.9669369 99.4915485,64.9877767 99.4915485,64.9877767 L98.5861748,65.0495243 L97.6800291,65.1112718 C97.6800291,65.1112718 97.3782379,65.1321117 96.7746553,65.1730194 C96.8101602,65.6778058 96.8279126,65.930199 96.8279126,65.930199 C96.8279126,65.930199 97.2910194,72.0571019 97.7533544,78.1840049 C97.9656117,81.2273883 98.0906505,84.255335 98.123068,86.5299612 C98.1415922,87.6668883 98.1454515,88.6154854 98.1385049,89.2792718 C98.1369612,89.9430583 98.1354175,90.322034 98.1354175,90.322034 C98.1354175,90.322034 98.1037718,92.9277816 97.9941699,95.5397039 C97.8884272,98.1508544 97.7193932,100.765864 97.7193932,100.765864 L97.7186214,100.780529 C97.7186214,100.780529 97.6290874,101.496029 97.5395534,102.212301 C97.4978738,102.569665 97.4600534,102.926257 97.3898155,103.207209 C97.332699,103.484301 97.2948786,103.668772 97.2948786,103.668772 C97.2948786,103.668772 97.2516553,103.878714 97.1713835,104.272354 C97.0772184,104.666767 97.0015777,105.240248 96.7931796,105.980447 C96.6002184,106.719102 96.3655777,107.615214 96.0962039,108.644083 C95.7866942,109.669864 95.4370485,110.828403 95.0557573,112.091141 C93.4534078,117.135146 90.9526311,123.78999 88.1647282,130.32134 C85.3868592,136.85732 82.317233,143.27135 79.7778641,147.913995 C79.1302864,149.064044 78.5568058,150.135364 78.0134272,151.054631 C77.4623301,151.967723 76.9814709,152.762723 76.5862864,153.418019 C75.748835,154.67767 75.2702913,155.397029 75.2702913,155.397029 C75.2702913,155.397029 75.1344466,155.599252 74.8635291,156.003699 C75.3551942,156.356432 75.6014126,156.532413 75.6014126,156.532413 L76.3385243,157.061898 L77.0764078,157.590612 C77.0764078,157.590612 77.3226262,157.767364 77.8142913,158.120097 C78.1052767,157.687092 78.2511553,157.470204 78.2511553,157.470204 C78.2511553,157.470204 78.7621165,156.701447 79.6582282,155.35535 C80.071165,154.671495 80.5728641,153.840218 81.1478883,152.887762 C81.7128786,151.931447 82.3010243,150.834655 82.9686699,149.647558 C85.5775049,144.876786 88.6880388,138.373995 91.5052718,131.745393 C94.3325388,125.121422 96.8695922,118.374728 98.5167087,113.192563 C98.9103495,111.888146 99.270801,110.692558 99.5911165,109.632044 C99.8736117,108.553005 100.11983,107.612126 100.322825,106.836422 C100.537398,106.069209 100.630019,105.420087 100.728816,104.999432 C100.816034,104.57183 100.863117,104.343364 100.863117,104.343364 C100.863117,104.343364 100.904024,104.143456 100.965772,103.842437 C101.037553,103.549908 101.086951,103.124621 101.137893,102.70165 C101.240549,101.857252 101.342432,101.012083 101.342432,101.012083 L101.343976,100.996646 C101.343976,100.996646 101.514553,98.3476748 101.622612,95.6886699 C101.734529,93.029665 101.766947,90.3613981 101.766947,90.3613981 C101.766947,90.3613981 101.76849,89.9723883 101.770034,89.2916214 C101.776981,88.6116262 101.773121,87.6391019 101.754597,86.4720728 C101.720636,84.1372427 101.591738,81.0236214 101.376393,77.9362427 C100.914058,71.8070243 100.450951,65.6778058 100.450951,65.6778058 C100.450951,65.6778058 100.433199,65.4269563 100.397694,64.9260291" id="Fill-31" fill="url(#linearGradient-1)"></path>
                <path d="M111.6975,56.4982573 C110.567519,56.1663641 107.247816,55.8877282 104.088655,57.4676942 C100.67633,59.1734709 98.3399563,62.2762864 98.1068592,64.8766311 C98.0891068,64.9623058 98.0798447,65.051068 98.0798447,65.1421456 C98.0798447,65.870767 99.1110291,67.9956553 99.1110291,67.267034 C99.1110291,66.3246117 100.388432,65.687068 102.068738,65.3451408 C104.554078,64.8395825 107.108112,65.4508835 110.913306,65.4508835 C113.402505,65.4508835 115.420879,63.4325097 115.420879,60.9433107 C115.420879,58.6987864 114.062432,57.1929175 111.6975,56.4982573" id="Fill-36" fill="#DC3F39"></path>
                <path d="M82.3411602,60.9433107 C82.3411602,63.4325097 84.3587621,65.4508835 86.848733,65.4508835 C90.6531553,65.4508835 93.2071893,64.8395825 95.6925291,65.3451408 C97.3736068,65.687068 98.6502379,66.3246117 98.6502379,67.267034 C98.6502379,67.9956553 99.6821942,65.870767 99.6821942,65.1421456 C99.6821942,65.051068 99.672932,64.9623058 99.6551796,64.8766311 C99.4213107,62.2762864 97.0857087,59.1734709 93.6733835,57.4676942 C90.5134515,55.8877282 87.1945194,56.1663641 86.063767,56.4982573 C83.6996068,57.1929175 82.3411602,58.6987864 82.3411602,60.9433107" id="Fill-37" fill="#DC3F39"></path>
                <path d="M72.7116262,28.6122816 C71.5361068,28.6879223 68.3229175,29.5647379 65.8962379,32.1318932 C63.2758252,34.9051311 62.1450728,38.6200194 62.8173495,41.1431796 C62.8304709,41.2296262 62.8520825,41.3160728 62.8837282,41.4017476 C63.133034,42.0863738 64.8310922,43.7288592 64.5810146,43.044233 C64.2576117,42.1589272 65.2386262,41.1223398 66.7005,40.2246845 C68.861665,38.8978835 71.4705,38.5960922 75.0449126,37.2909029 C77.3828301,36.4372427 78.5869078,33.8500194 77.7332476,31.5113301 C76.9637184,29.4034223 75.1707233,28.4540534 72.7116262,28.6122816" id="Fill-40" fill="#DF4B41"></path>
                <path d="M45.2084854,43.3830728 C46.0621456,45.7217621 48.6501408,46.9258398 50.9888301,46.0721796 C54.5632427,44.7669903 56.752966,43.317466 59.2606893,42.9408058 C60.956432,42.6853252 62.3750825,42.8466408 62.6977136,43.7311748 C62.9477913,44.415801 63.1886068,42.0663058 62.9385291,41.3816796 C62.9068835,41.2960049 62.8682913,41.215733 62.8219806,41.1416359 C61.7112961,38.7790194 58.452568,36.6657087 54.6620388,36.2327039 C51.1524612,35.8321165 48.1299175,37.2314709 47.1820922,37.931534 C45.1992233,39.3941796 44.4389563,41.275165 45.2084854,43.3830728" id="Fill-41" fill="#DF4B41"></path>
                <path d="M49.9275437,58.685665 C48.8639417,59.1919951 46.2049369,61.1980194 44.9036068,64.4822184 C43.4988495,68.0288447 43.8261117,71.8988738 45.3860097,73.9921165 C45.4300049,74.0677573 45.4824903,74.1403107 45.543466,74.208233 C46.0297282,74.7516117 48.2148204,75.6469515 47.7285583,75.1035728 C47.1002767,74.401966 47.6274466,73.075165 48.6516845,71.6997379 C50.1668155,69.6659272 52.4777184,68.4178544 55.3127039,65.880801 C57.1682184,64.2205631 57.3264466,61.3709126 55.6662087,59.5161699 C54.1703738,57.8435825 52.1527718,57.6266942 49.9275437,58.685665" id="Fill-44" fill="#DC3F39"></path>
                <path d="M29.8642136,81.8317427 C31.5236796,83.6864854 34.3733301,83.8447136 36.2288447,82.1852476 C39.0646019,79.6474223 40.5604369,77.4893447 42.7493883,76.2088544 C44.2297864,75.3428447 45.6067573,74.9669563 46.2350388,75.6685631 C46.7205291,76.2119417 46.0729515,73.9404029 45.5866893,73.3977961 C45.5264854,73.3298738 45.4601068,73.2696699 45.3898689,73.2171845 C43.4818689,71.4349951 39.6720437,70.6809029 35.9911165,71.6850728 C32.5834223,72.6143738 30.2956748,75.0348786 29.6743398,76.036733 C28.3760971,78.1307476 28.3676068,80.1591553 29.8642136,81.8317427" id="Fill-45" fill="#DC3F39"></path>
            </g>
        </g>
    </g>
</svg>