<?xml version="1.0" encoding="UTF-8" standalone="no"?>
<svg width="412px" height="206px" viewBox="0 0 412 206" version="1.1" xmlns="http://www.w3.org/2000/svg" xmlns:xlink="http://www.w3.org/1999/xlink">
    <!-- Generator: Sketch 41.2 (35397) - http://www.bohemiancoding.com/sketch -->
    <title>Group 8</title>
    <desc>Created with Sketch.</desc>
    <defs>
        <linearGradient x1="50%" y1="0%" x2="50%" y2="100%" id="linearGradient-1">
            <stop stop-color="#DC3F39" offset="0%"></stop>
            <stop stop-color="#9FA63A" offset="100%"></stop>
        </linearGradient>
        <linearGradient x1="50%" y1="0%" x2="50%" y2="100%" id="linearGradient-2">
            <stop stop-color="#DF4B41" offset="0%"></stop>
            <stop stop-color="#9FA63A" offset="100%"></stop>
        </linearGradient>
    </defs>
    <g id="Concept" stroke="none" stroke-width="1" fill="none" fill-rule="evenodd">
        <g id="Group-8">
            <path d="M148.38,205.945 L38.248,205.945 C36.892,205.945 35.792,204.845 35.792,203.489 C35.792,202.132 36.892,201.033 38.248,201.033 L148.38,201.033 C149.737,201.033 150.836,202.132 150.836,203.489 C150.836,204.845 149.737,205.945 148.38,205.945" id="Fill-11" fill="#9FA63A"></path>
            <path d="M242.162,90.204 C241.267,91.055 240.187,91.481 238.92,91.481 C237.698,91.481 236.628,91.055 235.711,90.204 C234.794,89.352 234.335,88.359 234.335,87.223 L234.335,71.961 L220.383,71.961 L220.383,87.223 C220.383,88.359 219.935,89.352 219.04,90.204 C218.145,91.055 217.064,91.481 215.798,91.481 C214.531,91.481 213.451,91.055 212.556,90.204 C211.661,89.352 211.213,88.359 211.213,87.223 L211.213,48.315 C211.213,47.179 211.661,46.197 212.556,45.367 C213.451,44.538 214.531,44.123 215.798,44.123 C217.064,44.123 218.145,44.538 219.04,45.367 C219.935,46.197 220.383,47.179 220.383,48.315 L220.383,63.577 L234.335,63.577 L234.335,48.315 C234.335,47.179 234.794,46.197 235.711,45.367 C236.628,44.538 237.698,44.123 238.92,44.123 C240.143,44.123 241.213,44.538 242.13,45.367 C243.047,46.197 243.505,47.179 243.505,48.315 L243.505,87.223 C243.505,88.359 243.057,89.352 242.162,90.204" id="Fill-1" fill="#0A0B09"></path>
            <path d="M267.676,52.441 C264.793,52.441 262.763,53.25 261.584,54.865 C260.405,56.481 259.816,58.621 259.816,61.284 L259.816,74.254 C259.816,76.874 260.448,79.014 261.715,80.673 C262.981,82.333 264.968,83.162 267.676,83.162 C270.383,83.162 272.37,82.333 273.637,80.673 C274.903,79.014 275.536,76.874 275.536,74.254 L275.536,61.284 C275.536,58.621 274.947,56.481 273.768,54.865 C272.588,53.25 270.558,52.441 267.676,52.441 Z M267.676,91.481 C264.836,91.481 262.359,91.033 260.242,90.138 C258.122,89.244 256.354,88.02 254.936,86.469 C253.516,84.921 252.447,83.096 251.726,81.001 C251.005,78.904 250.645,76.656 250.645,74.254 L250.645,61.284 C250.645,58.97 250.961,56.776 251.595,54.701 C252.228,52.628 253.221,50.803 254.576,49.232 C255.928,47.66 257.687,46.415 259.848,45.498 C262.01,44.581 264.619,44.123 267.676,44.123 C270.732,44.123 273.342,44.581 275.503,45.498 C277.665,46.415 279.422,47.66 280.777,49.232 C282.129,50.803 283.123,52.628 283.757,54.701 C284.389,56.776 284.706,58.97 284.706,61.284 L284.706,74.254 C284.706,76.656 284.346,78.904 283.625,81.001 C282.906,83.096 281.834,84.921 280.416,86.469 C278.996,88.02 277.228,89.244 275.111,90.138 C272.992,91.033 270.514,91.481 267.676,91.481 L267.676,91.481 Z" id="Fill-2" fill="#0A0B09"></path>
            <path d="M300.95,71.175 L300.95,82.573 L308.286,82.573 C310.469,82.573 312.095,82.071 313.166,81.066 C314.236,80.062 314.771,78.708 314.771,77.005 C314.771,75.128 314.192,73.686 313.035,72.681 C311.877,71.677 310.425,71.175 308.679,71.175 L300.95,71.175 Z M308.483,62.791 C309.049,62.791 309.629,62.692 310.218,62.496 C310.808,62.299 311.353,61.995 311.856,61.579 C312.358,61.165 312.762,60.63 313.068,59.974 C313.372,59.319 313.526,58.555 313.526,57.681 C313.526,56.416 313.188,55.313 312.511,54.374 C311.833,53.435 310.644,52.965 308.941,52.965 L300.95,52.965 L300.95,62.791 L308.483,62.791 Z M296.889,90.891 C295.448,90.891 294.236,90.422 293.253,89.483 C292.271,88.545 291.78,87.442 291.78,86.175 L291.78,49.428 C291.78,48.075 292.281,46.951 293.286,46.054 C294.29,45.161 295.491,44.712 296.889,44.712 L307.958,44.712 C310.404,44.712 312.554,45.072 314.411,45.793 C316.266,46.513 317.805,47.474 319.029,48.674 C320.25,49.877 321.167,51.252 321.78,52.801 C322.391,54.352 322.697,55.935 322.697,57.55 C322.697,59.866 322.041,61.754 320.732,63.216 C319.421,64.68 317.784,65.892 315.819,66.852 C316.823,67.245 317.817,67.736 318.799,68.326 C319.782,68.915 320.655,69.626 321.419,70.455 C322.183,71.285 322.794,72.246 323.253,73.337 C323.712,74.428 323.941,75.695 323.941,77.135 C323.941,79.058 323.57,80.848 322.828,82.507 C322.084,84.167 321.015,85.619 319.618,86.863 C318.22,88.107 316.517,89.089 314.509,89.81 C312.499,90.531 310.229,90.891 307.697,90.891 L296.889,90.891 L296.889,90.891 Z" id="Fill-3" fill="#0A0B09"></path>
            <path d="M346.668,63.118 C346.363,62.158 346.122,61.099 345.948,59.941 C345.773,58.785 345.62,57.704 345.49,56.699 C345.359,57.704 345.205,58.785 345.031,59.941 C344.856,61.099 344.616,62.158 344.311,63.118 L340.839,74.319 L350.009,74.319 L346.668,63.118 Z M336.253,88.402 C335.904,89.363 335.292,90.117 334.419,90.662 C333.545,91.208 332.716,91.481 331.93,91.481 C330.663,91.481 329.561,91.098 328.622,90.335 C327.683,89.571 327.214,88.555 327.214,87.289 C327.214,87.115 327.225,86.874 327.247,86.568 C327.269,86.263 327.323,86.022 327.411,85.847 L340.184,48.577 C340.62,47.31 341.221,46.252 341.985,45.4 C342.748,44.549 343.917,44.123 345.49,44.123 C347.062,44.123 348.23,44.538 348.994,45.367 C349.757,46.197 350.379,47.266 350.861,48.577 L363.634,85.847 C363.721,86.022 363.775,86.263 363.797,86.568 C363.819,86.874 363.83,87.115 363.83,87.289 C363.83,88.555 363.382,89.571 362.488,90.335 C361.592,91.098 360.467,91.481 359.114,91.481 C358.24,91.481 357.367,91.196 356.494,90.63 C355.62,90.062 355.009,89.319 354.66,88.402 L352.368,81.787 L338.415,81.787 L336.253,88.402 L336.253,88.402 Z" id="Fill-4" fill="#0A0B09"></path>
            <path d="M377.913,58.598 C377.913,60.301 378.448,61.612 379.518,62.529 C380.587,63.446 382.149,63.904 384.202,63.904 L390.883,63.904 L390.883,53.031 L384.595,53.031 C383.241,53.031 382.127,53.195 381.254,53.522 C380.38,53.849 379.703,54.275 379.223,54.799 C378.743,55.324 378.405,55.913 378.208,56.568 C378.012,57.223 377.913,57.901 377.913,58.598 Z M368.743,58.598 C368.743,56.895 369.015,55.215 369.562,53.555 C370.108,51.896 371.003,50.411 372.247,49.1 C373.492,47.791 375.151,46.732 377.226,45.924 C379.299,45.116 381.886,44.712 384.988,44.712 L395.075,44.712 C395.73,44.712 396.363,44.843 396.975,45.105 C397.585,45.367 398.12,45.706 398.579,46.121 C399.037,46.536 399.398,47.027 399.661,47.594 C399.922,48.162 400.053,48.773 400.053,49.428 L400.053,87.158 C400.053,88.337 399.617,89.352 398.744,90.204 C397.87,91.055 396.799,91.481 395.534,91.481 C394.921,91.481 394.332,91.36 393.765,91.121 C393.197,90.881 392.695,90.564 392.258,90.171 C391.822,89.778 391.483,89.319 391.244,88.796 C391.002,88.271 390.883,87.725 390.883,87.158 L390.883,72.158 L387.673,72.158 L376.735,89.384 C375.861,90.739 374.573,91.416 372.87,91.416 C372.433,91.416 371.942,91.305 371.396,91.088 C370.849,90.87 370.326,90.587 369.824,90.236 C369.322,89.887 368.907,89.462 368.579,88.959 C368.251,88.458 368.088,87.922 368.088,87.354 C368.088,87.005 368.154,86.568 368.285,86.044 C368.415,85.52 368.612,85.061 368.874,84.669 L377.783,71.175 C374.943,70.258 372.727,68.752 371.134,66.655 C369.539,64.559 368.743,61.874 368.743,58.598 L368.743,58.598 Z" id="Fill-5" fill="#0A0B09"></path>
            <path d="M237.414,118.086 L249.335,100.596 C250.339,99.287 251.606,98.631 253.134,98.631 C253.832,98.631 254.454,98.773 255.001,99.057 C255.547,99.341 256.017,99.691 256.41,100.105 C256.803,100.52 257.097,100.989 257.294,101.513 C257.491,102.038 257.588,102.54 257.588,103.02 C257.588,103.37 257.544,103.708 257.457,104.035 C257.37,104.363 257.217,104.723 256.999,105.116 L245.536,122.278 L256.999,139.57 C257.217,139.963 257.37,140.313 257.457,140.619 C257.544,140.924 257.588,141.252 257.588,141.601 C257.588,142.082 257.491,142.584 257.294,143.107 C257.097,143.631 256.803,144.101 256.41,144.515 C256.017,144.931 255.547,145.28 255.001,145.564 C254.454,145.847 253.832,145.99 253.134,145.99 C251.563,145.99 250.295,145.357 249.335,144.09 L237.414,126.536 L237.414,141.732 C237.414,142.868 236.965,143.861 236.071,144.713 C235.175,145.564 234.095,145.99 232.828,145.99 C231.562,145.99 230.481,145.564 229.586,144.713 C228.691,143.861 228.244,142.868 228.244,141.732 L228.244,126.536 L216.323,144.09 C215.361,145.357 214.095,145.99 212.523,145.99 C211.824,145.99 211.202,145.847 210.657,145.564 C210.11,145.28 209.641,144.931 209.247,144.515 C208.855,144.101 208.56,143.631 208.364,143.107 C208.167,142.584 208.069,142.082 208.069,141.601 C208.069,141.252 208.112,140.924 208.2,140.619 C208.286,140.313 208.44,139.963 208.659,139.57 L220.121,122.343 L208.659,105.116 C208.44,104.723 208.286,104.363 208.2,104.035 C208.112,103.708 208.069,103.37 208.069,103.02 C208.069,102.54 208.167,102.038 208.364,101.513 C208.56,100.989 208.855,100.52 209.247,100.105 C209.641,99.691 210.11,99.341 210.657,99.057 C211.202,98.773 211.824,98.631 212.523,98.631 C214.051,98.631 215.317,99.287 216.323,100.596 L228.244,118.086 L228.244,102.824 C228.244,101.688 228.691,100.706 229.586,99.876 C230.481,99.047 231.562,98.631 232.828,98.631 C234.095,98.631 235.175,99.047 236.071,99.876 C236.965,100.706 237.414,101.688 237.414,102.824 L237.414,118.086" id="Fill-6" fill="#0A0B09"></path>
            <path d="M267.544,145.99 C266.104,145.99 264.935,145.552 264.04,144.679 C263.145,143.806 262.698,142.758 262.698,141.536 L262.698,102.889 C262.698,101.754 263.133,100.76 264.007,99.909 C264.88,99.057 265.95,98.631 267.217,98.631 C268.483,98.631 269.576,99.057 270.493,99.909 C271.41,100.76 271.868,101.754 271.868,102.889 L271.868,127.649 C273.352,125.029 274.717,122.638 275.961,120.476 C277.206,118.315 278.407,116.218 279.564,114.188 C280.721,112.158 281.9,110.094 283.101,107.998 C284.302,105.902 285.623,103.588 287.064,101.055 C287.544,100.313 288.188,99.723 288.996,99.287 C289.804,98.85 290.644,98.631 291.518,98.631 C292.915,98.631 294.062,99.057 294.957,99.909 C295.852,100.76 296.3,101.819 296.3,103.086 L296.3,141.732 C296.3,142.868 295.863,143.861 294.99,144.713 C294.116,145.564 293.046,145.99 291.781,145.99 C290.513,145.99 289.422,145.564 288.505,144.713 C287.588,143.861 287.129,142.868 287.129,141.732 L287.129,117.234 L271.933,143.697 C271.496,144.396 270.873,144.953 270.067,145.367 C269.258,145.782 268.417,145.99 267.544,145.99" id="Fill-7" fill="#0A0B09"></path>
            <path d="M332.851,132.103 C332.851,133.937 332.479,135.684 331.738,137.343 C330.995,139.004 329.924,140.477 328.528,141.764 C327.129,143.053 325.438,144.08 323.452,144.843 C321.463,145.607 319.247,145.99 316.803,145.99 C315.362,145.99 313.767,145.847 312.021,145.564 C310.274,145.28 308.648,144.843 307.141,144.254 C305.634,143.665 304.368,142.944 303.342,142.092 C302.316,141.241 301.802,140.225 301.802,139.047 C301.802,137.956 302.228,137.027 303.079,136.262 C303.931,135.499 304.924,135.116 306.06,135.116 C306.758,135.116 307.446,135.27 308.123,135.575 C308.8,135.88 309.521,136.219 310.286,136.589 C311.048,136.962 311.9,137.3 312.84,137.605 C313.779,137.911 314.88,138.064 316.148,138.064 C318.637,138.064 320.525,137.464 321.814,136.262 C323.101,135.062 323.745,133.61 323.745,131.907 C323.745,130.815 323.484,129.909 322.96,129.188 C322.436,128.467 321.737,127.889 320.864,127.453 C319.99,127.016 318.986,126.689 317.851,126.469 C316.714,126.252 315.514,126.099 314.248,126.011 C313.636,125.968 313.025,125.903 312.414,125.815 C311.802,125.728 311.256,125.552 310.777,125.291 C310.295,125.029 309.913,124.626 309.63,124.079 C309.346,123.534 309.204,122.78 309.204,121.819 C309.204,120.902 309.346,120.181 309.63,119.658 C309.913,119.133 310.274,118.741 310.711,118.478 C311.147,118.216 311.638,118.052 312.185,117.987 C312.73,117.922 313.243,117.889 313.724,117.889 C314.815,117.846 315.908,117.692 316.999,117.43 C318.09,117.169 319.063,116.787 319.914,116.284 C320.766,115.783 321.453,115.161 321.977,114.418 C322.501,113.675 322.763,112.78 322.763,111.732 C322.763,111.121 322.654,110.509 322.436,109.898 C322.217,109.287 321.868,108.73 321.388,108.227 C320.907,107.726 320.275,107.322 319.489,107.015 C318.703,106.711 317.72,106.557 316.54,106.557 C314.706,106.557 313.025,106.907 311.497,107.605 C310.754,107.955 310,108.358 309.237,108.817 C308.473,109.275 307.632,109.505 306.715,109.505 C305.667,109.505 304.706,109.144 303.833,108.423 C302.959,107.704 302.523,106.797 302.523,105.706 C302.523,104.615 302.992,103.632 303.931,102.757 C304.87,101.885 306.06,101.143 307.501,100.531 C308.943,99.92 310.514,99.45 312.217,99.123 C313.92,98.795 315.536,98.631 317.065,98.631 C319.466,98.631 321.584,99.024 323.418,99.81 C325.252,100.596 326.781,101.612 328.003,102.856 C329.226,104.101 330.143,105.499 330.754,107.048 C331.366,108.599 331.671,110.117 331.671,111.601 C331.671,113.828 331.049,115.727 329.805,117.299 C328.56,118.872 326.737,120.269 324.335,121.492 C326.955,122.54 329.029,123.905 330.558,125.586 C332.086,127.267 332.851,129.44 332.851,132.103" id="Fill-8" fill="#0A0B09"></path>
            <path d="M369.957,144.713 C369.062,145.564 367.982,145.99 366.715,145.99 C365.493,145.99 364.423,145.564 363.506,144.713 C362.589,143.861 362.13,142.868 362.13,141.732 L362.13,126.469 L348.178,126.469 L348.178,141.732 C348.178,142.868 347.73,143.861 346.835,144.713 C345.94,145.564 344.859,145.99 343.593,145.99 C342.326,145.99 341.245,145.564 340.351,144.713 C339.455,143.861 339.008,142.868 339.008,141.732 L339.008,102.824 C339.008,101.688 339.455,100.706 340.351,99.876 C341.245,99.047 342.326,98.631 343.593,98.631 C344.859,98.631 345.94,99.047 346.835,99.876 C347.73,100.706 348.178,101.688 348.178,102.824 L348.178,118.086 L362.13,118.086 L362.13,102.824 C362.13,101.688 362.589,100.706 363.506,99.876 C364.423,99.047 365.493,98.631 366.715,98.631 C367.938,98.631 369.008,99.047 369.925,99.876 C370.842,100.706 371.3,101.688 371.3,102.824 L371.3,141.732 C371.3,142.868 370.852,143.861 369.957,144.713" id="Fill-9" fill="#0A0B09"></path>
            <path d="M388.788,123.195 L388.788,137.082 L394.356,137.082 C395.884,137.082 397.14,136.875 398.122,136.459 C399.105,136.045 399.869,135.509 400.415,134.854 C400.96,134.199 401.342,133.457 401.562,132.627 C401.78,131.798 401.889,130.947 401.889,130.073 C401.889,127.714 401.255,125.978 399.99,124.865 C398.722,123.752 396.845,123.195 394.356,123.195 L388.788,123.195 Z M388.788,114.876 L394.356,114.876 C396.888,114.876 399.181,115.214 401.234,115.891 C403.286,116.569 405.043,117.54 406.507,118.806 C407.969,120.073 409.094,121.655 409.88,123.555 C410.666,125.455 411.059,127.606 411.059,130.006 C411.059,132.016 410.765,133.948 410.175,135.804 C409.585,137.661 408.636,139.298 407.326,140.716 C406.016,142.136 404.29,143.271 402.151,144.123 C400.011,144.974 397.412,145.4 394.356,145.4 L384.728,145.4 C384.029,145.4 383.373,145.269 382.762,145.007 C382.151,144.745 381.616,144.407 381.158,143.992 C380.699,143.577 380.328,143.086 380.044,142.518 C379.759,141.951 379.619,141.338 379.619,140.684 L379.619,102.955 C379.619,101.775 380.077,100.76 380.994,99.909 C381.911,99.057 382.981,98.631 384.203,98.631 C385.469,98.631 386.55,99.068 387.446,99.941 C388.34,100.815 388.788,101.819 388.788,102.955 L388.788,114.876 L388.788,114.876 Z" id="Fill-10" fill="#0A0B09"></path>
            <path d="M92.971,15.414 C50.455,15.414 15.867,50.003 15.867,92.518 C15.867,135.034 50.455,169.623 92.971,169.623 C135.487,169.623 170.076,135.034 170.076,92.518 C170.076,50.003 135.487,15.414 92.971,15.414 Z M92.971,184.808 C42.082,184.808 0.681,143.407 0.681,92.518 C0.681,41.63 42.082,0.228 92.971,0.228 C143.86,0.228 185.261,41.63 185.261,92.518 C185.261,143.407 143.86,184.808 92.971,184.808 L92.971,184.808 Z" id="Fill-12" fill="#F5C047"></path>
            <g id="Group" transform="translate(37.000000, 37.000000)">
                <path d="M24.064,57.175 C23.527,57.745 23.258,58.031 23.258,58.031 L21.645,59.743 C21.645,59.743 21.376,60.028 20.838,60.599 C21.316,61.047 21.555,61.271 21.555,61.271 C21.555,61.271 23.568,63.156 26.586,65.982 C29.587,68.805 33.545,72.555 37.071,76.601 C40.627,80.626 43.602,85.049 45.509,88.556 C46.461,90.308 47.209,91.796 47.676,92.866 C48.158,93.929 48.434,94.536 48.434,94.536 L48.44,94.551 C48.44,94.551 48.5,94.743 48.591,95.03 C48.635,95.176 48.703,95.333 48.753,95.522 C48.789,95.726 48.826,95.944 48.864,96.162 C48.968,96.581 48.975,97.065 48.999,97.417 C49.023,97.77 49.039,98.006 49.039,98.006 L49,99.283 C49,99.283 49.007,99.538 48.944,100.041 C48.886,100.541 48.842,101.268 48.663,102.216 C48.363,104.101 47.732,106.829 46.674,110.066 C44.585,116.55 40.824,125.006 36.486,133.167 C32.161,141.34 27.311,149.247 23.426,154.976 C19.55,160.721 16.661,164.251 16.661,164.251 C16.661,164.251 16.462,164.5 16.064,164.998 C16.671,165.495 16.974,165.744 16.974,165.744 L17.884,166.489 L18.794,167.234 C18.794,167.234 19.097,167.482 19.704,167.979 C20.122,167.456 20.331,167.195 20.331,167.195 C20.331,167.195 23.362,163.485 27.323,157.611 C31.301,151.745 36.23,143.708 40.644,135.369 C45.07,127.037 48.937,118.376 51.149,111.518 C52.269,108.095 52.965,105.121 53.307,102.972 C53.656,100.826 53.699,99.531 53.699,99.531 L53.743,97.938 C53.743,97.938 53.725,97.62 53.696,97.143 C53.664,96.664 53.646,96.037 53.501,95.369 C53.441,95.04 53.38,94.712 53.324,94.404 C53.243,94.092 53.134,93.794 53.054,93.542 C52.882,93.04 52.768,92.706 52.768,92.706 L52.759,92.684 C52.759,92.684 52.465,92.036 51.951,90.901 C51.452,89.761 50.652,88.165 49.63,86.286 C47.589,82.525 44.372,77.756 40.619,73.51 C36.894,69.239 32.829,65.396 29.809,62.554 C26.79,59.727 24.777,57.843 24.777,57.843 C24.777,57.843 24.54,57.62 24.064,57.175" id="Fill-16" fill="url(#linearGradient-1)"></path>
                <path d="M46.167,15.306 C45.456,15.634 45.099,15.799 45.099,15.799 L44.031,16.291 L42.963,16.785 C42.963,16.785 42.607,16.949 41.895,17.277 C42.16,17.866 42.292,18.161 42.292,18.161 C42.292,18.161 43.949,21.748 46.212,27.28 C48.49,32.8 51.385,40.238 54.127,47.734 C56.876,55.227 59.468,62.778 61.314,68.464 C63.168,74.149 64.289,77.964 64.289,77.964 C64.289,77.964 65.496,81.976 66.574,86.005 C67.646,90.039 68.479,94.066 68.479,94.066 L68.481,94.083 C68.481,94.083 68.556,94.665 68.63,95.247 C68.652,95.874 68.674,96.502 68.674,96.502 C68.674,96.502 68.662,96.769 68.639,97.27 C68.636,97.766 68.561,98.516 68.454,99.476 C68.213,101.4 67.673,104.197 66.747,107.536 C64.917,114.222 61.556,123.007 57.679,131.558 C53.811,140.118 49.448,148.465 45.898,154.523 C44.128,157.556 42.574,160.022 41.451,161.71 C40.325,163.397 39.649,164.32 39.649,164.32 C39.649,164.32 39.465,164.577 39.096,165.09 C39.727,165.557 40.041,165.789 40.041,165.789 L40.987,166.489 L41.934,167.188 C41.934,167.188 42.249,167.421 42.879,167.887 C43.273,167.34 43.47,167.066 43.47,167.066 C43.47,167.066 44.194,166.077 45.37,164.313 C46.544,162.549 48.148,160.001 49.961,156.894 C53.6,150.685 58.027,142.212 61.966,133.497 C65.913,124.785 69.354,115.823 71.282,108.789 C72.257,105.277 72.85,102.245 73.123,100.056 C73.248,98.955 73.331,98.084 73.34,97.467 C73.365,96.858 73.378,96.534 73.378,96.534 C73.378,96.534 73.35,95.711 73.322,94.889 C73.232,94.038 73.099,93.177 73.099,93.177 L73.095,93.155 C73.095,93.155 72.219,88.921 71.122,84.801 C70.02,80.683 68.797,76.618 68.797,76.618 C68.797,76.618 67.66,72.747 65.788,67.009 C63.924,61.267 61.314,53.663 58.545,46.116 C55.784,38.567 52.867,31.074 50.563,25.487 C48.276,19.897 46.573,16.21 46.573,16.21 C46.573,16.21 46.438,15.909 46.167,15.306" id="Fill-24" fill="url(#linearGradient-2)"></path>
                <path d="M93.075,47.118 C92.292,47.171 91.901,47.198 91.901,47.198 L90.728,47.278 L89.554,47.358 C89.554,47.358 89.163,47.385 88.381,47.438 C88.427,48.092 88.45,48.419 88.45,48.419 C88.45,48.419 89.05,56.357 89.649,64.295 C89.924,68.238 90.086,72.161 90.128,75.108 C90.152,76.581 90.157,77.81 90.148,78.67 C90.146,79.53 90.144,80.021 90.144,80.021 C90.144,80.021 90.103,83.397 89.961,86.781 C89.824,90.164 89.605,93.552 89.605,93.552 L89.604,93.571 C89.604,93.571 89.488,94.498 89.372,95.426 C89.318,95.889 89.269,96.351 89.178,96.715 C89.104,97.074 89.055,97.313 89.055,97.313 C89.055,97.313 88.999,97.585 88.895,98.095 C88.773,98.606 88.675,99.349 88.405,100.308 C88.155,101.265 87.851,102.426 87.502,103.759 C87.101,105.088 86.648,106.589 86.154,108.225 C84.078,114.76 80.838,123.382 77.226,131.844 C73.627,140.312 69.65,148.622 66.36,154.637 C65.521,156.127 64.778,157.515 64.074,158.706 C63.36,159.889 62.737,160.919 62.225,161.768 C61.14,163.4 60.52,164.332 60.52,164.332 C60.52,164.332 60.344,164.594 59.993,165.118 C60.63,165.575 60.949,165.803 60.949,165.803 L61.904,166.489 L62.86,167.174 C62.86,167.174 63.179,167.403 63.816,167.86 C64.193,167.299 64.382,167.018 64.382,167.018 C64.382,167.018 65.044,166.022 66.205,164.278 C66.74,163.392 67.39,162.315 68.135,161.081 C68.867,159.842 69.629,158.421 70.494,156.883 C73.874,150.702 77.904,142.277 81.554,133.689 C85.217,125.107 88.504,116.366 90.638,109.652 C91.148,107.962 91.615,106.413 92.03,105.039 C92.396,103.641 92.715,102.422 92.978,101.417 C93.256,100.423 93.376,99.582 93.504,99.037 C93.617,98.483 93.678,98.187 93.678,98.187 C93.678,98.187 93.731,97.928 93.811,97.538 C93.904,97.159 93.968,96.608 94.034,96.06 C94.167,94.966 94.299,93.871 94.299,93.871 L94.301,93.851 C94.301,93.851 94.522,90.419 94.662,86.974 C94.807,83.529 94.849,80.072 94.849,80.072 C94.849,80.072 94.851,79.568 94.853,78.686 C94.862,77.805 94.857,76.545 94.833,75.033 C94.789,72.008 94.622,67.974 94.343,63.974 C93.744,56.033 93.144,48.092 93.144,48.092 C93.144,48.092 93.121,47.767 93.075,47.118" id="Fill-31" fill="url(#linearGradient-1)"></path>
                <path d="M107.715,36.199 C106.251,35.769 101.95,35.408 97.857,37.455 C93.436,39.665 90.409,43.685 90.107,47.054 C90.084,47.165 90.072,47.28 90.072,47.398 C90.072,48.342 91.408,51.095 91.408,50.151 C91.408,48.93 93.063,48.104 95.24,47.661 C98.46,47.006 101.769,47.798 106.699,47.798 C109.924,47.798 112.539,45.183 112.539,41.958 C112.539,39.05 110.779,37.099 107.715,36.199" id="Fill-36" fill="#DC3F39"></path>
                <path d="M69.681,41.958 C69.681,45.183 72.295,47.798 75.521,47.798 C80.45,47.798 83.759,47.006 86.979,47.661 C89.157,48.104 90.811,48.93 90.811,50.151 C90.811,51.095 92.148,48.342 92.148,47.398 C92.148,47.28 92.136,47.165 92.113,47.054 C91.81,43.685 88.784,39.665 84.363,37.455 C80.269,35.408 75.969,35.769 74.504,36.199 C71.441,37.099 69.681,39.05 69.681,41.958" id="Fill-37" fill="#DC3F39"></path>
                <path d="M57.205,0.07 C55.682,0.168 51.519,1.304 48.375,4.63 C44.98,8.223 43.515,13.036 44.386,16.305 C44.403,16.417 44.431,16.529 44.472,16.64 C44.795,17.527 46.995,19.655 46.671,18.768 C46.252,17.621 47.523,16.278 49.417,15.115 C52.217,13.396 55.597,13.005 60.228,11.314 C63.257,10.208 64.817,6.856 63.711,3.826 C62.714,1.095 60.391,-0.135 57.205,0.07" id="Fill-40" fill="#DF4B41"></path>
                <path d="M21.572,19.207 C22.678,22.237 26.031,23.797 29.061,22.691 C33.692,21 36.529,19.122 39.778,18.634 C41.975,18.303 43.813,18.512 44.231,19.658 C44.555,20.545 44.867,17.501 44.543,16.614 C44.502,16.503 44.452,16.399 44.392,16.303 C42.953,13.242 38.731,10.504 33.82,9.943 C29.273,9.424 25.357,11.237 24.129,12.144 C21.56,14.039 20.575,16.476 21.572,19.207" id="Fill-41" fill="#DF4B41"></path>
                <path d="M27.686,39.033 C26.308,39.689 22.863,42.288 21.177,46.543 C19.357,51.138 19.781,56.152 21.802,58.864 C21.859,58.962 21.927,59.056 22.006,59.144 C22.636,59.848 25.467,61.008 24.837,60.304 C24.023,59.395 24.706,57.676 26.033,55.894 C27.996,53.259 30.99,51.642 34.663,48.355 C37.067,46.204 37.272,42.512 35.121,40.109 C33.183,37.942 30.569,37.661 27.686,39.033" id="Fill-44" fill="#DC3F39"></path>
                <path d="M1.692,69.021 C3.842,71.424 7.534,71.629 9.938,69.479 C13.612,66.191 15.55,63.395 18.386,61.736 C20.304,60.614 22.088,60.127 22.902,61.036 C23.531,61.74 22.692,58.797 22.062,58.094 C21.984,58.006 21.898,57.928 21.807,57.86 C19.335,55.551 14.399,54.574 9.63,55.875 C5.215,57.079 2.251,60.215 1.446,61.513 C-0.236,64.226 -0.247,66.854 1.692,69.021" id="Fill-45" fill="#DC3F39"></path>
            </g>
        </g>
    </g>
</svg>