<svg xmlns="http://www.w3.org/2000/svg" viewBox="0 0 318.538 318.538"><path d="M69.573 236.836s-1.012-23.123-1.557-57.932c-.506-32.442.073-60.422.624-100.72C69.163 39.866 91.33 0 157.946 0c58.32 0 72.135 26.653 69.364 44.84 0 0 8.813.782 13.467 6.836 7.89 10.27 7.807 47.348 7.172 85.113-1.25 74.073-1.603 100.046-1.603 100.046H69.573z" fill="#2F3233"/><path d="M295.387 253.09c-10.522-37.753-63.36-33.565-86.164-44.407s-19.245-47.22-22.134-53.548h-55.64c-2.888 6.33.675 42.71-22.133 53.548-22.803 10.842-75.642 6.655-86.164 44.408-5.806 20.825-5.525 27.188-7.133 50.26 0 0 72.5 15.188 141.61 15.188s144.89-15.187 144.89-15.187c-1.603-23.072-1.327-29.435-7.133-50.26z" fill="#515151"/><path d="M179.76 216.995c22.802 10.842 75.64 6.655 86.163 44.408 5.53 19.83 5.542 26.552 6.913 47.073 18.155-2.816 29.682-5.126 29.682-5.126-1.602-23.067-1.326-29.435-7.133-50.26-10.522-37.754-63.36-33.566-86.164-44.408-22.802-10.842-19.244-47.22-22.133-53.548H157.63s-.68 51.025 22.13 61.86zM58.01 276.08l49.238-6.25 52.024 44.166-49.354-56.892" fill="#393C3D"/><path fill="#393C3D" d="M260.51 276.08l-49.23-6.25-52.025 44.166 49.35-56.892"/><path d="M260.51 276.08c-10.403-21.854-23.77-44.196-50.096-66.853-.41-.18-.815-.36-1.208-.545-6.396-3.04-10.713-8.088-13.686-13.917h-72.512c-2.973 5.83-7.29 10.876-13.686 13.917-.393.185-.798.37-1.208.545-26.327 22.657-39.693 45-50.097 66.852l50.59-12.473 50.665 50.39 50.653-50.39 50.586 12.472z" fill="#EAE5DC"/><path d="M210.414 209.227c-.41-.18-.815-.36-1.208-.545-6.396-3.04-10.713-8.088-13.686-13.917H163.41c3.265 9.724 8.368 18.44 16.35 22.235 12.325 5.857 33.42 7.33 51.866 13.4-6.008-7.026-12.977-14.08-21.212-21.173z" fill="#E0DBD3"/><path d="M199.29 200.678c-11.802-14.95-9.835-40.356-12.2-45.55h-55.64c-2.37 5.194-.404 30.6-12.2 45.55 4.72 53.17 40.023 113.312 40.023 113.312s35.207-59.612 40.018-113.312z" fill="#E8C59E"/><path d="M179.76 216.995c4.44 2.113 10.02 3.653 16.203 5.042 1.534-7.12 2.698-14.293 3.333-21.364-11.803-14.95-9.836-40.356-12.202-45.55h-29.458c-.005.012-.685 51.036 22.123 61.872z" fill="#DDB58E"/><path d="M123.97 192.73c9.228 7.96 20.053 15.85 35.24 18.133 15.237-2.288 26.023-10.342 35.27-18.334-7.69-14.974-5.312-32.83-7.392-37.4H131.45c-2.085 4.574.242 22.622-7.48 37.6z" fill="#CCA281"/><ellipse transform="rotate(100.195 224.155 118.13)" cx="224.153" cy="118.132" rx="21.386" ry="11.629" fill="#DDB58E"/><ellipse transform="rotate(169.8 94.214 118.138)" cx="94.213" cy="118.137" rx="11.629" ry="21.386" fill="#E8C59E"/><path d="M219.643 46.938l-59.91 9.218s-21.23.922-38.552 9.73c-15.9 8.087-28 23.91-28.158 28.377-1.55 44.156 7.464 104.645 66.17 113.48 94.332-14.192 60.45-160.805 60.45-160.805z" fill="#E8C59E"/><path d="M159.194 207.744c94.33-14.192 60.45-160.806 60.45-160.806h-14.14c3.872 61.242 9.228 93.774-13.007 129.24-17.616 28.103-33.303 31.566-33.303 31.566z" fill="#DDB58E"/><path d="M217.4 40.407s-32.7 15.72-81.51 14.883c-43.03-.736-42.463 36.146-42.84 38.636 0 0 10.034-18.593 38.013-23.685 25.422-4.625 45.662 3.115 63.84 4.823 20.222 1.9 26.967-13.445 26.967-13.445l-4.47-21.21z" fill="#DDB58E"/><path d="M215.664 34.404s-30.975 18.17-79.773 16.733c-52.153-1.54-43.11 41.654-42.84 42.795 0 0 5.38-20.24 33.09-26.76 17.992-4.232 35.286-2.552 53.222 1.006 40.34 8.004 43.897-15.918 43.897-15.918s2.026-9.32-7.596-17.856z" fill="#2F3233"/><circle cx="228.22" cy="134.917" r="4.367" fill="#CC7D2E"/><circle cx="90.38" cy="134.917" r="4.367" fill="#CC7D2E"/></svg>