<?xml version="1.0" encoding="UTF-8" standalone="no"?>
<svg width="174px" height="72px" viewBox="0 0 174 72" version="1.1" xmlns="http://www.w3.org/2000/svg" xmlns:xlink="http://www.w3.org/1999/xlink">
    <!-- Generator: Sketch 3.8.3 (29802) - http://www.bohemiancoding.com/sketch -->
    <title>Group 10</title>
    <desc>Created with Sketch.</desc>
    <defs></defs>
    <g id="Page-1" stroke="none" stroke-width="1" fill="none" fill-rule="evenodd">
        <g id="Group-10">
            <path d="M26.6953,33.0347 C25.4483,33.2517 24.2723,32.4717 24.0653,31.2927 C23.8603,30.1137 24.7143,28.9827 25.9563,28.7677 C27.2043,28.5517 28.3813,29.3317 28.5863,30.5087 C28.7873,31.6867 27.9423,32.8197 26.6953,33.0347" id="Fill-213" fill="#F3F4F4"></path>
            <path d="M65.1905,2.0073 C62.6755,-0.5147 58.5845,-0.5147 56.0625,2.0073 L52.3245,5.7443 C54.8755,3.6423 58.7715,3.6793 61.1465,6.0513 C63.4155,8.3203 63.5615,12.0323 61.7335,14.5913 L65.1905,11.1353 C67.7125,8.6153 67.7125,4.5283 65.1905,2.0073" id="Fill-215" fill="#F16521"></path>
            <path d="M61.3628,5.8282 C58.8478,3.3092 54.7588,3.3092 52.2428,5.8282 L47.7378,10.3292 C50.2918,8.2282 54.1898,8.2642 56.5588,10.6382 C58.8258,12.9052 58.9768,16.6172 57.1498,19.1752 L61.3628,14.9592 C63.8868,12.4362 63.8868,8.3492 61.3628,5.8282" id="Fill-217" fill="#F7931D"></path>
            <path d="M57.2647,9.9351 C54.8927,7.5631 50.9927,7.5241 48.4447,9.6261 L47.9997,10.0691 L44.1817,13.8851 C46.3527,12.4731 50.0987,13.3301 51.9447,15.1781 C53.8357,17.0651 54.6857,21.0461 53.1257,23.1981 L57.1107,19.2181 L57.8537,18.4721 C59.6787,15.9161 59.5327,12.2031 57.2647,9.9351" id="Fill-219" fill="#FBAF17"></path>
            <path d="M53.7178,13.4058 C51.8708,11.5588 48.1258,10.6988 45.9558,12.1148 L45.4508,12.6168 L41.4838,16.5858 C43.2218,15.5928 46.9888,17.2398 48.3948,18.6468 C50.4038,20.6538 51.4578,24.1818 50.4198,25.9028 L54.5238,21.8008 L54.9008,21.4278 C56.4618,19.2748 55.6058,15.2928 53.7178,13.4058" id="Fill-221" fill="#FFCB04"></path>
            <path d="M48.669,18.3711 C47.261,16.9651 43.494,15.3201 41.754,16.3121 L41.441,16.6261 L37.307,20.7611 C38.679,20.3371 42.42,22.6861 43.349,23.6151 C44.301,24.5671 46.881,28.1731 46.252,30.0751 L50.346,25.9791 L50.696,25.6321 C51.731,23.9061 50.678,20.3791 48.669,18.3711" id="Fill-223" fill="#FFE200"></path>
            <path d="M44.0772,22.8882 C43.1472,21.9582 39.4102,19.6092 38.0362,20.0322 L37.8022,20.2672 L29.4972,28.5722 C30.4432,28.6252 33.4272,30.8162 34.6732,32.2162 C35.8102,33.5002 38.6072,36.6152 38.3332,37.9952 L46.7552,29.5712 L46.9802,29.3462 C47.6102,27.4442 45.0292,23.8422 44.0772,22.8882" id="Fill-225" fill="#FFF574"></path>
            <path d="M11.5811,55.23 C9.5161,53.168 9.1451,50.055 10.4621,47.61 L7.7891,50.285 C5.2651,52.806 5.2651,56.891 7.7891,59.414 C10.3041,61.934 14.3911,61.934 16.9141,59.414 L20.4521,55.872 C17.8641,57.798 13.8931,57.546 11.5811,55.23" id="Fill-227" fill="#F16521"></path>
            <path d="M15.7066,51.1026 C13.6436,49.0406 13.2686,45.9286 14.5846,43.4826 L10.8186,47.2476 C8.2986,49.7686 8.2986,53.8556 10.8186,56.3766 C13.3426,58.8966 17.4276,58.8986 19.9486,56.3766 L24.5796,51.7496 C21.9896,53.6726 18.0186,53.4166 15.7066,51.1026" id="Fill-229" fill="#F7931D"></path>
            <path d="M20.2007,50.3907 C19.2977,50.0427 18.4907,49.5627 17.9107,48.9777 C17.3337,48.4007 16.8497,47.6447 16.5007,46.8127 C15.7897,45.1467 15.6267,43.1797 16.3497,41.7227 L13.8317,44.2367 L12.5147,45.5537 C11.1987,47.9987 11.5737,51.1137 13.6357,53.1757 C15.9487,55.4897 19.9197,55.7447 22.5067,53.8207 L23.1157,53.2087 L26.0387,50.2857 C24.5187,51.2447 22.1437,51.1437 20.2007,50.3907" id="Fill-231" fill="#FBAF17"></path>
            <path d="M20.9795,45.9873 C19.5785,44.6463 18.0105,41.0163 18.8525,39.2203 L15.9485,42.1193 L15.1415,42.9293 C14.4185,44.3853 14.5875,46.3523 15.2935,48.0183 C15.6465,48.8483 16.1275,49.6043 16.7025,50.1823 C17.2865,50.7663 18.0985,51.2493 18.9965,51.5953 C20.9415,52.3453 23.3135,52.4493 24.8325,51.4913 L25.3515,50.9763 L28.2445,48.0813 C26.0175,49.3553 22.5705,47.5133 20.9795,45.9873" id="Fill-233" fill="#FFCB04"></path>
            <path d="M25.1817,41.8604 C23.8417,40.6974 21.9367,37.1794 22.3117,35.7574 L18.0527,40.0154 L17.6327,40.4364 C16.7927,42.2354 18.3587,45.8644 19.7577,47.2064 C21.3537,48.7334 24.7987,50.5744 27.0227,49.3024 L27.3947,48.9344 L31.6507,44.6734 C29.5737,45.1194 26.6637,43.1514 25.1817,41.8604" id="Fill-235" fill="#FFE200"></path>
            <path d="M27.188,39.9341 C26.194,38.9601 23.621,35.8291 23.585,34.4801 L20.34,37.7281 L20.042,38.0281 C19.667,39.4501 21.576,42.9641 22.911,44.1301 C24.393,45.4221 27.303,47.3891 29.381,46.9441 L29.688,46.6351 L32.719,43.6051 C31.441,43.6241 27.664,40.4061 27.188,39.9341" id="Fill-237" fill="#FFF574"></path>
            <path d="M39.2144,27.6724 C37.9694,26.2714 34.9884,24.0844 34.0404,24.0314 L33.8894,24.1814 L22.2614,35.8044 L22.1584,35.9124 C22.1934,37.2594 24.2514,40.3884 25.2384,41.3634 C25.7184,41.8354 30.0064,45.0544 31.2884,45.0364 L31.4094,44.9164 L38.7214,37.6004 L42.8744,33.4504 C43.1474,32.0734 40.3504,28.9594 39.2144,27.6724" id="Fill-239" fill="#FFF8B1"></path>
            <path d="M2.6494,2.0987 C0.1274,4.6177 0.1274,8.7057 2.6494,11.2267 L7.7314,16.3097 C5.6274,13.7587 5.6704,9.8597 8.0394,7.4867 C10.3064,5.2207 14.0184,5.0717 16.5784,6.8997 L11.7764,2.0987 C9.2584,-0.4223 5.1674,-0.4223 2.6494,2.0987" id="Fill-241" fill="#F16521"></path>
            <path d="M8.1553,7.6031 C5.7813,9.9741 5.7433,13.8721 7.8453,16.4251 L8.2883,16.8661 L12.1043,20.6821 C10.6953,18.5121 11.5513,14.7681 13.3953,12.9231 C15.2853,11.0331 19.2653,10.1801 21.4183,11.7401 L17.4363,7.7591 L16.6933,7.0131 C14.1383,5.1841 10.4233,5.3331 8.1553,7.6031" id="Fill-243" fill="#FBAF17"></path>
            <path d="M12.7759,12.3003 C10.9289,14.1473 10.0719,17.8933 11.4849,20.0633 L11.9919,20.5693 L15.9599,24.5363 C14.9659,22.7983 16.6139,19.0283 18.0179,17.6223 C20.0249,15.6163 23.5529,14.5613 25.2759,15.5953 L21.1719,11.4953 L20.7989,11.1193 C18.6429,9.5583 14.6649,10.4133 12.7759,12.3003" id="Fill-245" fill="#FFCB04"></path>
            <path d="M17.4732,17.0786 C16.0662,18.4846 14.4182,22.2546 15.4132,23.9916 L15.7242,24.3036 L19.8592,28.4386 C19.4352,27.0656 21.7862,23.3266 22.7132,22.3966 C23.6652,21.4436 27.2732,18.8616 29.1732,19.4966 L25.0782,15.4016 L24.7302,15.0526 C23.0052,14.0166 19.4822,15.0686 17.4732,17.0786" id="Fill-247" fill="#FFE200"></path>
            <path d="M21.8052,21.4888 C20.8752,22.4158 18.5302,26.1558 18.9482,27.5278 L19.1852,27.7638 L28.0782,36.6558 C28.1322,35.7088 30.3182,32.7278 31.7232,31.4828 C33.0062,30.3458 36.1202,27.5448 37.5002,27.8228 L28.4882,18.8108 L28.2652,18.5858 C26.3622,17.9548 22.7572,20.5358 21.8052,21.4888" id="Fill-249" fill="#FFF574"></path>
            <path d="M64.0703,64.4312 C62.0093,66.4952 58.8933,66.8682 56.4523,65.5512 L60.6993,69.7992 C63.2183,72.3202 67.3053,72.3202 69.8273,69.7992 C72.3453,67.2792 72.3513,63.1932 69.8273,60.6702 L64.7143,55.5582 C66.6383,58.1472 66.3843,62.1182 64.0703,64.4312" id="Fill-251" fill="#F16521"></path>
            <path d="M59.7154,60.0747 C57.6524,62.1397 54.5404,62.5107 52.0954,61.1957 L56.3044,65.4037 C58.8194,67.9247 62.9124,67.9247 65.4314,65.4037 C67.9514,62.8817 67.9534,58.7977 65.4314,56.2767 L60.3584,51.2027 C62.2844,53.7907 62.0314,57.7617 59.7154,60.0747" id="Fill-253" fill="#F7931D"></path>
            <path d="M56.772,53.3496 C56.425,54.2506 55.941,55.0586 55.357,55.6406 C54.785,56.2206 54.024,56.7006 53.196,57.0546 C51.524,57.7606 49.562,57.9256 48.106,57.2056 L52.31,61.4116 L53.629,62.7306 C56.073,64.0446 59.184,63.6726 61.25,61.6096 C63.561,59.2956 63.816,55.3226 61.895,52.7346 L61.285,52.1266 L56.667,47.5106 C57.625,49.0336 57.523,51.4076 56.772,53.3496" id="Fill-255" fill="#FBAF17"></path>
            <path d="M51.9478,52.1529 C50.6108,53.5519 46.9808,55.1199 45.1818,54.2819 L48.0788,57.1819 L48.8918,57.9919 C50.3458,58.7119 52.3108,58.5469 53.9788,57.8389 C54.8118,57.4859 55.5708,57.0059 56.1448,56.4259 C56.7268,55.8449 57.2078,55.0359 57.5568,54.1379 C58.3078,52.1919 58.4108,49.8179 57.4538,48.2949 L56.9378,47.7809 L54.0448,44.8889 C55.3138,47.1119 53.4768,50.5579 51.9478,52.1529" id="Fill-257" fill="#FFCB04"></path>
            <path d="M47.751,47.8799 C46.584,49.2189 43.071,51.1229 41.648,50.7499 L44.76,53.8609 L45.182,54.2829 C46.98,55.1199 50.61,53.5529 51.948,52.1529 C53.477,50.5579 55.314,47.1119 54.045,44.8889 L53.676,44.5199 L50.565,41.4089 C51.011,43.4869 49.043,46.3949 47.751,47.8799" id="Fill-259" fill="#FFE200"></path>
            <path d="M41.2564,41.3052 C40.2804,42.2962 37.1504,44.8682 35.8044,44.9042 L41.3504,50.4512 L41.6484,50.7502 C43.0714,51.1232 46.5844,49.2182 47.7514,47.8802 C49.0434,46.3952 51.0104,43.4872 50.5654,41.4082 L50.2554,41.0972 L44.9284,35.7752 C44.9494,37.0502 41.7264,40.8262 41.2564,41.3052" id="Fill-261" fill="#FFF574"></path>
            <path d="M32.1167,32.3985 C30.7147,33.6405 28.5237,36.6205 28.4677,37.5685 L28.6187,37.7215 L36.2117,45.3085 L36.3137,45.4185 C37.6667,45.3835 41.1217,43.1395 42.1027,42.1485 C42.5727,41.6675 45.4617,37.5645 45.4447,36.2875 L45.3227,36.1635 L38.0077,28.8495 L37.8887,28.7345 C36.5087,28.4615 33.3987,31.2585 32.1167,32.3985" id="Fill-263" fill="#FFF8B1"></path>
            <path d="M30.1021,37.4448 C31.3471,38.8468 34.3291,41.0378 35.2761,41.0908 L35.4271,40.9388 L43.0151,33.3508 L43.1241,33.2448 C43.0891,31.8948 40.8471,28.4358 39.8551,27.4598 C39.3731,26.9878 35.2701,24.0978 33.9931,24.1168 L33.8711,24.2398 L26.5571,31.5508 L26.4421,31.6698 C26.1671,33.0468 28.9631,36.1598 30.1021,37.4448" id="Fill-265" fill="#FCF6B4"></path>
            <path d="M31.627,35.9224 C32.871,37.3264 35.85,39.5134 36.799,39.5674 L36.952,39.4164 L44.538,31.8274 L44.647,31.7204 C44.612,30.3734 42.368,26.9114 41.377,25.9374 C40.898,25.4654 36.793,22.5754 35.516,22.5924 L35.395,22.7164 L28.078,30.0324 L27.964,30.1454 C27.691,31.5254 30.486,34.6394 31.627,35.9224" id="Fill-267" fill="#FFF8B1"></path>
            <path d="M38.2251,37.2744 C39.6271,36.0314 41.8171,33.0474 41.8711,32.1004 L41.7201,31.9494 L34.1341,24.3604 L34.0271,24.2524 C32.6771,24.2864 29.2141,26.5314 28.2411,27.5224 C27.7691,28.0014 24.8821,32.1084 24.8981,33.3854 L25.0211,33.5044 L32.3371,40.8204 L32.4531,40.9354 C33.8291,41.2114 36.9411,38.4114 38.2251,37.2744" id="Fill-269" fill="#FCF6B4"></path>
            <path d="M35.7193,34.7652 C37.1233,33.5222 39.3123,30.5412 39.3653,29.5942 L39.2143,29.4412 L31.6243,21.8552 L31.5193,21.7442 C30.1683,21.7822 26.7093,24.0242 25.7353,25.0152 C25.2653,25.4932 22.3743,29.6032 22.3923,30.8782 L22.5133,30.9982 L29.8313,38.3142 L29.9453,38.4292 C31.3213,38.7042 34.4393,35.9052 35.7193,34.7652" id="Fill-271" fill="#FFF8B1"></path>
            <path d="M40.6797,35.9683 C41.9747,37.2663 41.9747,39.3713 40.6797,40.6643 C39.3817,41.9603 37.2767,41.9603 35.9807,40.6643 L26.9317,31.6163 C25.6347,30.3183 25.6347,28.2173 26.9317,26.9183 C28.2297,25.6203 30.3307,25.6203 31.6267,26.9183 L40.6797,35.9683 Z" id="Fill-273" fill="#FEFEFE"></path>
            <path d="M35.3477,27.4497 C36.6437,26.1527 38.7467,26.1527 40.0427,27.4497 C41.3387,28.7457 41.3387,30.8467 40.0427,32.1437 L31.9437,40.2437 C30.6427,41.5397 28.5407,41.5397 27.2457,40.2437 C25.9477,38.9467 25.9477,36.8447 27.2457,35.5487 L35.3477,27.4497 Z" id="Fill-275" fill="#FEFEFE"></path>
            <path d="M5.5655,5.0157 C3.0445,7.5347 3.0445,11.6237 5.5655,14.1437 L8.5035,17.0797 C6.3995,14.5277 6.4385,10.6317 8.8105,8.2597 C11.0795,5.9907 14.7905,5.8417 17.3495,7.6717 L14.6935,5.0157 C12.1735,2.4957 8.0855,2.4957 5.5655,5.0157" id="Fill-277" fill="#F7931D"></path>
            <path d="M79.6573,21.9239 L79.6743,21.8999 L79.6573,21.9239 Z" id="Fill-1274" fill="#F16521"></path>
            <path d="M80.9561,23.8145 L83.5761,20.6475 C83.9061,20.2505 84.0701,19.8975 84.0701,19.5935 C84.0701,19.2205 83.9571,18.9185 83.7291,18.6825 C83.4981,18.4485 83.1941,18.3315 82.8181,18.3315 C82.4161,18.3315 82.0531,18.5325 81.7351,18.9375 L78.9421,22.5195 L79.1881,21.6415 L76.9771,18.8895 C76.6681,18.5165 76.3081,18.3315 75.8941,18.3315 C75.5571,18.3315 75.2691,18.4545 75.0341,18.7055 C74.7991,18.9575 74.6801,19.2465 74.6801,19.5785 C74.6801,19.9255 74.8421,20.2855 75.1591,20.6595 L77.8521,23.8005 L74.7451,27.5405 C74.3941,27.9595 74.2221,28.3605 74.2221,28.7475 C74.2221,29.0955 74.3361,29.3855 74.5651,29.6205 C74.7971,29.8585 75.0821,29.9755 75.4311,29.9755 C75.8871,29.9755 76.2851,29.7545 76.6181,29.3115 L79.8531,25.1325 L79.6011,26.0365 L82.1111,29.3245 C82.5061,29.8155 82.9281,30.0605 83.3921,30.0605 C83.7201,30.0605 83.9931,29.9435 84.2241,29.7145 C84.4551,29.4855 84.5721,29.2095 84.5721,28.8905 C84.5721,28.4595 84.3731,28.0075 83.9861,27.5335 L80.9561,23.8145 Z" id="Fill-1275" fill="#F16521"></path>
            <path d="M117.7989,18.3311 C116.9359,18.3311 116.5039,18.9011 116.5039,20.0431 L116.5039,22.9001 L112.0999,22.9001 L111.8259,23.5391 L111.8279,20.0221 C111.8279,18.8931 111.3989,18.3311 110.5369,18.3311 C109.6599,18.3311 109.2209,18.9011 109.2209,20.0381 L109.2209,28.2661 C109.2209,29.4061 109.6599,29.9761 110.5369,29.9761 C111.3989,29.9761 111.8279,29.4061 111.8279,28.2731 L111.8279,24.9031 L116.1949,24.9031 L116.5009,24.1651 L116.5039,28.2731 C116.5039,29.4061 116.9359,29.9761 117.7989,29.9761 C118.6769,29.9761 119.1129,29.4061 119.1129,28.2661 L119.1129,20.0161 C119.1129,18.8931 118.6769,18.3311 117.7989,18.3311" id="Fill-1276" fill="#F16521"></path>
            <path d="M129.5938,18.3311 C128.8698,18.3311 128.3668,19.0161 128.1668,19.3301 L123.6568,25.5281 L123.2258,26.5661 L123.2308,19.9971 C123.2308,18.8861 122.8008,18.3311 121.9348,18.3311 C121.0588,18.3311 120.6228,18.8821 120.6228,19.9961 L120.6228,28.3091 C120.6228,29.4201 121.0588,29.9761 121.9348,29.9761 C122.5458,29.9761 122.9728,29.6271 123.1998,29.2891 L127.8378,22.9921 L128.2688,21.9761 L128.2618,28.3311 C128.2618,29.4271 128.6978,29.9761 129.5758,29.9761 C130.4378,29.9761 130.8698,29.4201 130.8698,28.3091 L130.8698,19.9741 C130.8698,18.8791 130.4398,18.3311 129.5938,18.3311" id="Fill-1277" fill="#F16521"></path>
            <path d="M171.7461,18.3838 C171.0721,18.4178 170.5711,19.0158 170.3761,19.3308 L165.8401,25.5628 L165.4371,26.5008 L165.4401,19.9968 C165.4401,18.8868 165.0061,18.3318 164.1441,18.3318 C163.2671,18.3318 162.8281,18.8828 162.8281,19.9968 L162.8281,28.3088 C162.8281,29.4198 163.2671,29.9758 164.1441,29.9758 C164.7571,29.9758 165.1781,29.6268 165.4091,29.2888 L170.0601,22.9778 L170.4701,21.9878 L170.4701,28.3318 C170.4701,29.4278 170.9041,29.9758 171.7831,29.9758 C172.6441,29.9758 173.0781,29.4198 173.0781,28.3088 L173.0781,20.1928 C173.0781,19.2998 172.8071,18.3338 171.7461,18.3838" id="Fill-1278" fill="#F16521"></path>
            <path d="M139.1026,18.3931 L133.1376,18.3931 C132.1336,18.3931 131.6296,18.7701 131.6296,19.5201 C131.6296,20.2691 132.1336,20.6481 133.1376,20.6481 L135.5916,20.6441 L134.8056,20.9871 L134.8056,28.2691 C134.8056,29.4061 135.2336,29.9761 136.0786,29.9761 C136.9706,29.9761 137.4116,29.4131 137.4116,28.2891 L137.4116,20.6481 L139.1496,20.6481 C140.1166,20.6481 140.6096,20.2691 140.6096,19.5201 C140.6096,18.7701 140.1056,18.3931 139.1026,18.3931" id="Fill-1279" fill="#F16521"></path>
            <path d="M149.1035,24.9888 C149.5805,24.9888 149.9655,24.8598 150.2655,24.6008 C150.5665,24.3448 150.7175,23.9858 150.7175,23.5248 C150.7175,22.0948 150.2115,20.8498 149.2035,19.8028 C148.1965,18.7498 146.9785,18.2278 145.5595,18.2278 C143.9485,18.2278 142.6365,18.7998 141.6295,19.9488 C140.6205,21.0968 140.1155,22.4838 140.1155,24.1098 C140.1155,25.7938 140.6125,27.1948 141.5975,28.3058 C142.6365,29.4758 143.9915,30.0608 145.6465,30.0608 C146.4945,30.0608 147.3245,29.9138 148.1305,29.6208 C149.0455,29.2898 149.7295,28.8288 150.1715,28.2428 C150.3795,27.9628 150.4865,27.7148 150.4865,27.4938 C150.4865,26.7838 150.1395,26.4278 149.4415,26.4278 C149.3605,26.4278 148.8845,26.6458 148.0285,27.0868 C147.1675,27.5208 146.4005,27.7438 145.7165,27.7438 C144.8915,27.7438 144.2025,27.4918 143.6425,26.9808 C143.1685,26.5488 142.8915,26.0018 142.7975,25.3468 L141.9555,24.9958 L149.1035,24.9888 Z M143.6305,21.2098 C144.1575,20.6828 144.7955,20.4178 145.5595,20.4178 C146.3235,20.4178 146.9335,20.6828 147.3895,21.2098 C147.7645,21.6538 147.9875,22.1858 148.0675,22.7988 L148.9575,23.1718 L142.7645,23.1718 C142.8205,22.3918 143.1095,21.7408 143.6305,21.2098 L143.6305,21.2098 Z" id="Fill-1280" fill="#F16521"></path>
            <path d="M159.9571,18.3931 L155.4731,18.3931 C154.3561,18.3931 153.5521,18.6181 153.0501,19.0691 C152.5511,19.5221 152.2981,20.2931 152.2981,21.3931 L152.2981,26.1171 C152.2981,26.4781 152.2871,27.1511 152.2101,27.3761 C151.9601,28.1041 150.9401,28.1931 151.2381,29.2761 C151.3051,29.5161 151.7661,29.9761 152.4071,29.9761 C153.2101,29.9761 153.7461,29.6781 154.1791,29.0801 C154.5551,28.5521 154.7381,27.6301 154.7381,26.7971 L154.7381,21.4981 C154.7381,20.9301 155.0261,20.6481 155.6011,20.6481 L159.3751,20.6561 L158.5801,20.9831 L158.5801,28.2491 C158.5801,29.4001 159.0161,29.9761 159.8971,29.9761 C160.7591,29.9761 161.1901,29.4061 161.1901,28.2661 L161.1901,20.0591 C161.1901,18.9491 160.7781,18.3931 159.9571,18.3931" id="Fill-1281" fill="#F16521"></path>
            <path d="M94.9219,20.1187 C94.0159,18.9257 92.4989,18.2517 90.6629,18.3307 C89.6919,18.3737 88.8289,18.7477 88.1019,19.3267 C87.9109,18.8617 87.4529,18.5317 86.9189,18.5317 C86.2159,18.5317 85.6419,19.1047 85.6419,19.8097 L85.6419,31.4587 C85.6419,32.6437 86.2579,33.0067 86.9749,33.0067 C87.7349,33.0067 88.2479,32.4227 88.2479,31.4587 L88.2529,28.2467 L88.6719,29.1857 C89.3599,29.7937 90.1829,30.1017 91.1489,30.1017 C92.7049,30.1017 93.9519,29.4857 94.8849,28.2497 C95.7329,27.1257 96.1559,25.7607 96.1559,24.1557 C96.1559,22.5297 95.7449,21.1857 94.9219,20.1187 M92.9959,26.5677 C92.5239,27.3217 91.8339,27.7007 90.9309,27.7007 C90.0949,27.7007 89.4189,27.3767 88.9059,26.7317 C88.4329,26.1277 88.1959,25.4057 88.1959,24.5657 L88.1959,24.0507 C88.1959,23.1297 88.4209,22.3697 88.8649,21.7627 C89.3629,21.0747 90.0579,20.7287 90.9519,20.7287 C91.8419,20.7287 92.5189,21.1017 92.9769,21.8437 C93.3659,22.4647 93.5579,23.2397 93.5579,24.1727 C93.5579,25.1387 93.3699,25.9337 92.9959,26.5677" id="Fill-1282" fill="#F16521"></path>
            <path d="M107.9405,28.3477 C107.9405,28.3477 107.6365,27.8467 107.6365,26.9447 C107.6365,26.0407 107.6335,19.8207 107.6335,19.8207 C107.6335,19.1147 107.0625,18.5427 106.3565,18.5427 C105.8905,18.5427 105.4895,18.7947 105.2625,19.1667 C103.3075,17.7907 100.8705,18.3927 100.2735,18.6627 C99.2275,19.1317 98.4295,19.8727 97.8715,20.8847 C97.3435,21.8377 97.0825,22.9107 97.0825,24.1007 C97.0825,25.3187 97.3295,26.3907 97.8325,27.3187 C98.3725,28.3287 99.1735,29.0757 100.2325,29.5617 C100.8435,29.8357 101.5045,29.9757 102.2125,29.9757 C103.2795,29.9757 104.1655,29.5817 104.8785,28.7997 L105.2695,27.9297 L105.2695,28.5207 C105.4505,30.0467 106.7335,30.2807 107.4355,29.9947 C108.0125,29.7637 108.2675,29.2257 107.9405,28.3477 M104.4475,26.4977 C103.9735,27.2147 103.2795,27.5747 102.3635,27.5747 C101.5295,27.5747 100.8595,27.2087 100.3785,26.4747 C99.9735,25.8557 99.7715,25.1007 99.7715,24.2137 C99.7715,23.2617 99.9665,22.4657 100.3555,21.8297 C100.8125,21.0707 101.4965,20.6877 102.4005,20.6877 C103.3055,20.6877 103.9945,21.0527 104.4645,21.7867 C104.8525,22.4107 105.0505,23.1917 105.0505,24.1317 C105.0505,25.1007 104.8495,25.8867 104.4475,26.4977" id="Fill-1283" fill="#F16521"></path>
            <path d="M111.3838,45.7368 C111.9928,45.7368 112.5578,45.6588 113.0738,45.5078 C114.3558,45.1178 114.9918,44.5558 114.9918,43.8148 C114.9918,43.4938 114.8968,43.2298 114.6988,43.0138 C114.5048,42.7978 114.2488,42.6898 113.9238,42.6898 C113.8008,42.6898 113.4568,42.7978 112.8988,43.0138 C112.3418,43.2298 111.8888,43.3358 111.5378,43.3358 C110.5748,43.3358 109.8448,42.9758 109.3408,42.2528 C108.8958,41.6288 108.6688,40.8178 108.6688,39.8198 C108.6688,38.8928 108.8988,38.0998 109.3598,37.4498 C109.8768,36.7008 110.5818,36.3258 111.4778,36.3258 C111.9648,36.3258 112.4048,36.4128 112.7938,36.5838 C113.1848,36.7588 113.5358,36.8438 113.8418,36.8438 C114.5428,36.8438 114.8858,36.4778 114.8858,35.7398 C114.8858,35.1128 114.4518,34.6348 113.5768,34.3018 C112.9188,34.0478 112.2078,33.9218 111.4458,33.9218 C109.8028,33.9218 108.4738,34.5078 107.4608,35.6768 C106.4988,36.7738 106.0188,38.1608 106.0188,39.8298 C106.0188,41.5278 106.4848,42.9168 107.4178,44.0018 C108.3908,45.1578 109.7128,45.7368 111.3838,45.7368" id="Fill-1284" fill="#F16521"></path>
            <path d="M104.4815,33.9214 L98.5145,33.9214 C97.5105,33.9214 97.0095,34.3014 97.0095,35.0474 C97.0095,35.8004 97.5105,36.1784 98.5145,36.1784 L100.9685,36.1734 L100.1795,36.5174 L100.1795,43.7974 C100.1795,44.9354 100.6095,45.5064 101.4555,45.5064 C102.3455,45.5064 102.7895,44.9404 102.7895,43.8174 L102.7895,36.1784 L104.5255,36.1784 C105.4965,36.1784 105.9855,35.8004 105.9855,35.0474 C105.9855,34.3014 105.4835,33.9214 104.4815,33.9214" id="Fill-1285" fill="#F16521"></path>
            <path d="M123.2998,33.9214 L117.3358,33.9214 C116.3338,33.9214 115.8308,34.3014 115.8308,35.0474 C115.8308,35.8004 116.3338,36.1784 117.3358,36.1784 L119.7908,36.1734 L119.0038,36.5174 L119.0038,43.7974 C119.0038,44.9354 119.4278,45.5064 120.2788,45.5064 C121.1678,45.5064 121.6128,44.9404 121.6128,43.8174 L121.6128,36.1784 L123.3448,36.1784 C124.3188,36.1784 124.8048,35.8004 124.8048,35.0474 C124.8048,34.3014 124.3038,33.9214 123.2998,33.9214" id="Fill-1286" fill="#F16521"></path>
            <path d="M95.4102,40.6841 C95.8832,40.6841 96.2702,40.5561 96.5692,40.2971 C96.8712,40.0411 97.0202,39.6841 97.0202,39.2251 C97.0202,37.7921 96.5172,36.5491 95.5082,35.4991 C94.4992,34.4471 93.2832,33.9221 91.8662,33.9221 C90.2532,33.9221 88.9422,34.4971 87.9342,35.6461 C86.9242,36.7931 86.4182,38.1831 86.4182,39.8071 C86.4182,41.4911 86.9132,42.8921 87.9002,44.0031 C88.9422,45.1731 90.2932,45.7571 91.9482,45.7571 C92.7952,45.7571 93.6252,45.6141 94.4332,45.3191 C95.3502,44.9851 96.0322,44.5241 96.4792,43.9411 C96.6862,43.6611 96.7912,43.4131 96.7912,43.1901 C96.7912,42.4821 96.4422,42.1251 95.7462,42.1251 C95.6642,42.1251 95.1862,42.3431 94.3322,42.7841 C93.4742,43.2191 92.7062,43.4401 92.0202,43.4401 C91.1972,43.4401 90.5032,43.1871 89.9482,42.6771 C89.4722,42.2451 89.1932,41.7001 89.1002,41.0411 L88.2592,40.6921 L95.4102,40.6841 Z M89.9372,36.9051 C90.4582,36.3791 91.0992,36.1171 91.8662,36.1171 C92.6292,36.1171 93.2402,36.3791 93.6902,36.9051 C94.0662,37.3491 94.2942,37.8821 94.3742,38.4981 L95.2642,38.8671 L89.0672,38.8681 C89.1272,38.0901 89.4152,37.4371 89.9372,36.9051 L89.9372,36.9051 Z" id="Fill-1287" fill="#F16521"></path>
            <path d="M134.2989,40.4151 C133.9469,39.9431 133.4919,39.5861 132.9179,39.3491 C133.8089,38.8351 134.2559,38.0611 134.2559,37.0331 C134.2559,34.9611 132.9129,33.9221 130.2259,33.9221 L127.2849,33.9221 C126.3399,33.9221 125.8669,34.4321 125.8669,35.4471 L125.8669,43.8971 C125.8669,44.8871 126.3469,45.3801 127.3059,45.3801 L130.4539,45.3801 C133.3649,45.3801 134.8199,44.2621 134.8199,42.0201 C134.8199,41.4231 134.6459,40.8881 134.2989,40.4151 L134.2989,40.4151 Z M129.9969,35.7811 C131.1109,35.7811 131.6639,36.2481 131.6639,37.1791 C131.6639,38.1391 131.1039,38.6181 129.9769,38.6181 L128.4529,38.6181 L128.4529,36.1171 L127.6699,35.7891 L129.9969,35.7811 Z M130.1119,43.5011 L128.4529,43.5011 L128.4529,40.7641 L127.6669,40.4341 L130.1119,40.4341 C131.4819,40.4341 132.1669,40.9641 132.1669,42.0201 C132.1669,43.0101 131.4819,43.5011 130.1119,43.5011 L130.1119,43.5011 Z" id="Fill-1288" fill="#F16521"></path>
            <path d="M83.8575,43.8272 L83.9665,43.8272 L83.8575,43.8272 Z" id="Fill-1289" fill="#F16423"></path>
            <path d="M77.3282,44.8272 L77.3822,44.8272 L77.3282,44.8272 Z" id="Fill-1290" fill="#F16423"></path>
            <path d="M84.8213,43.314 L84.6533,43.314 L84.6533,35.592 C84.6533,34.481 84.2453,33.921 83.4233,33.921 L78.8733,33.921 C77.8043,33.921 77.0133,34.133 76.5133,34.552 C75.9723,35.008 75.7023,35.759 75.7023,36.803 L75.7023,41.625 C75.7023,42.39 75.5433,42.889 75.2213,43.128 C74.9253,43.236 74.6423,43.35 74.3663,43.461 C74.0473,43.613 73.8853,43.99 73.8853,44.587 L73.8853,45.698 C73.8853,46.557 74.3033,46.992 75.1373,46.992 C75.8163,46.992 76.1553,46.564 76.1583,45.713 L75.3433,45.37 L84.5273,45.378 L83.7963,45.691 L83.7963,45.698 C83.7963,46.557 84.1233,46.992 84.7813,46.992 C85.6393,46.992 86.0753,46.557 86.0753,45.698 L86.0753,44.441 C86.0753,43.676 85.6563,43.3 84.8213,43.314 L84.8213,43.314 Z M82.0473,43.314 L76.9983,43.306 L77.9453,42.913 C78.0913,42.546 78.1643,42.131 78.1643,41.665 L78.1643,36.929 C78.1643,36.358 78.4503,36.073 79.0203,36.073 L82.8033,36.069 L82.0473,36.389 L82.0473,43.314 Z" id="Fill-1291" fill="#F16521"></path>
            <polygon id="Fill-1292" fill="#F16423" points="77.3819 44.8272 77.6679 44.8272 77.6679 44.8262"></polygon>
            <polygon id="Fill-1293" fill="#F16423" points="83.5762 43.8272 83.8572 43.8272 83.5762 43.8262"></polygon>
            <path d="M146.4326,44.1377 C146.4326,44.1377 146.1296,43.6347 146.1296,42.7337 C146.1296,41.8297 146.1276,35.6097 146.1276,35.6097 C146.1276,34.9037 145.5576,34.3317 144.8516,34.3317 C144.3856,34.3317 143.9816,34.5837 143.7566,34.9567 C141.8016,33.5797 139.3636,34.1807 138.7676,34.4497 C137.7216,34.9207 136.9236,35.6607 136.3656,36.6727 C135.8346,37.6267 135.5746,38.6987 135.5746,39.8887 C135.5746,41.1067 135.8246,42.1787 136.3256,43.1077 C136.8656,44.1177 137.6676,44.8647 138.7286,45.3487 C139.3346,45.6247 139.9986,45.7637 140.7066,45.7637 C141.7716,45.7637 142.6586,45.3717 143.3736,44.5887 L143.7606,43.7187 L143.7606,44.3097 C143.9446,45.8357 145.2286,46.0697 145.9296,45.7837 C146.5046,45.5527 146.7606,45.0147 146.4326,44.1377 M142.9416,42.2867 C142.4656,43.0037 141.7716,43.3637 140.8566,43.3637 C140.0206,43.3637 139.3556,42.9977 138.8736,42.2637 C138.4656,41.6447 138.2656,40.8887 138.2656,40.0027 C138.2656,39.0507 138.4586,38.2537 138.8466,37.6197 C139.3086,36.8587 139.9886,36.4757 140.8936,36.4757 C141.7986,36.4757 142.4906,36.8417 142.9596,37.5757 C143.3436,38.1997 143.5446,38.9807 143.5446,39.9207 C143.5446,40.8887 143.3406,41.6757 142.9416,42.2867" id="Fill-1294" fill="#F16521"></path>
        </g>
    </g>
</svg>