<?xml version="1.0" encoding="UTF-8" standalone="no"?>
<svg width="75px" height="75px" viewBox="0 0 75 75" version="1.1" xmlns="http://www.w3.org/2000/svg" xmlns:xlink="http://www.w3.org/1999/xlink">
    <!-- Generator: Sketch 39.1 (31720) - http://www.bohemiancoding.com/sketch -->
    <title>Group</title>
    <desc>Created with Sketch.</desc>
    <defs></defs>
    <g id="Page-1" stroke="none" stroke-width="1" fill="none" fill-rule="evenodd">
        <g id="Artboard" transform="translate(-488.000000, -444.000000)">
            <g id="Group" transform="translate(488.000000, 444.000000)">
                <rect id="Rectangle-path" fill="#000000" transform="translate(14.308875, 17.628000) rotate(53.179378) translate(-14.308875, -17.628000) " x="12.77925" y="15.33375" width="3.05925" height="4.5885"></rect>
                <rect id="Rectangle-path" fill="#000000" transform="translate(21.654375, 12.128250) rotate(53.171357) translate(-21.654375, -12.128250) " x="20.12475" y="9.834" width="3.05925" height="4.5885"></rect>
                <polygon id="Shape" fill="#000000" points="57.02775 11.19675 53.15775 10.46025 53.6715 7.44525 57.54225 8.181"></polygon>
                <rect id="Rectangle-path" fill="#000000" transform="translate(46.629375, 7.795500) rotate(9.677078) translate(-46.629375, -7.795500) " x="44.3355" y="6.26625" width="4.58775" height="3.0585"></rect>
                <rect id="Rectangle-path" fill="#000000" transform="translate(37.583250, 6.253125) rotate(9.671430) translate(-37.583250, -6.253125) " x="35.289" y="4.7235" width="4.5885" height="3.05925"></rect>
                <rect id="Rectangle-path" fill="#000000" transform="translate(26.699625, 55.446375) rotate(60.692184) translate(-26.699625, -55.446375) " x="24.40575" y="53.91675" width="4.58775" height="3.05925"></rect>
                <rect id="Rectangle-path" fill="#000000" transform="translate(22.207125, 47.443875) rotate(60.692184) translate(-22.207125, -47.443875) " x="19.91325" y="45.91425" width="4.58775" height="3.05925"></rect>
                <rect id="Rectangle-path" fill="#000000" transform="translate(43.896375, 61.787625) rotate(61.963915) translate(-43.896375, -61.787625) " x="42.36675" y="59.49375" width="3.05925" height="4.58775"></rect>
                <rect id="Rectangle-path" fill="#000000" transform="translate(51.997125, 57.474375) rotate(61.979415) translate(-51.997125, -57.474375) " x="50.4675" y="55.1805" width="3.05925" height="4.58775"></rect>
                <rect id="Rectangle-path" fill="#000000" transform="translate(60.097125, 53.161875) rotate(61.979415) translate(-60.097125, -53.161875) " x="58.5675" y="50.868" width="3.05925" height="4.58775"></rect>
                <path d="M61.53,15.5955 L61.53,15.5955 L60.9705,15.588 C58.98075,15.588 56.20425,13.7745 56.20425,10.821 C56.20425,7.53975 58.11975,5.33475 60.9705,5.33475 C64.35975,5.33475 66.45675,7.80975 66.45675,10.10175 C66.45675,12.21825 65.84625,13.76025 64.64025,14.68425 C63.57825,15.501 62.35575,15.5955 61.53,15.5955 L61.53,15.5955 Z M60.9705,8.39325 C59.48475,8.39325 59.26275,9.91425 59.26275,10.821 C59.26275,11.99925 60.621,12.52875 60.9705,12.52875 L61.53,12.53625 L61.53,12.53625 C61.94325,12.53625 62.457,12.50475 62.7795,12.25725 C63.1785,11.95125 63.39825,11.1855 63.39825,10.101 C63.39825,9.525 62.6655,8.39325 60.9705,8.39325 L60.9705,8.39325 Z" id="Shape" fill="#000000"></path>
                <path d="M70.0725,51.55575 L70.0725,51.55575 L69.51375,51.54825 C67.52325,51.54825 64.7475,49.73475 64.7475,46.782 C64.7475,43.5 66.66375,41.295 69.51375,41.295 C72.903,41.295 75,43.77 75,46.062 C75,48.1785 74.3895,49.72125 73.1835,50.64525 C72.12,51.4605 70.89825,51.55575 70.0725,51.55575 L70.0725,51.55575 Z M69.51375,44.35425 C68.028,44.35425 67.80675,45.8745 67.80675,46.782 C67.80675,47.9595 69.1635,48.489 69.51375,48.489 L70.0725,48.4965 L70.0725,48.4965 C70.48575,48.4965 71.00025,48.465 71.322,48.21825 C71.72175,47.91225 71.94075,47.1465 71.94075,46.062 C71.94075,45.4845 71.20725,44.35425 69.51375,44.35425 L69.51375,44.35425 Z" id="Shape" fill="#000000"></path>
                <path d="M57.93225,74.59275 L57.93225,74.59275 L57.37275,74.58525 C55.383,74.58525 52.6065,72.7725 52.6065,69.81975 C52.6065,66.53775 54.522,64.33275 57.37275,64.33275 C60.76125,64.33275 62.859,66.80775 62.859,69.09975 C62.859,71.21625 62.2485,72.75825 61.0425,73.68225 C59.97975,74.49825 58.75875,74.59275 57.93225,74.59275 L57.93225,74.59275 Z M57.37275,67.3905 C55.887,67.3905 55.66575,68.9115 55.66575,69.819 C55.66575,70.9965 57.02325,71.526 57.37275,71.526 L57.93225,71.5335 L57.93225,71.5335 C58.34475,71.5335 58.8585,71.50125 59.181,71.25525 C59.58,70.94925 59.79975,70.18275 59.79975,69.099 C59.79975,68.52225 59.06775,67.3905 57.37275,67.3905 L57.37275,67.3905 Z" id="Shape" fill="#DC471F"></path>
                <path d="M33.78375,72.309 L33.78375,72.309 L33.22425,72.3015 C31.23375,72.3015 28.458,70.48725 28.458,67.5345 C28.458,64.25325 30.3735,62.049 33.22425,62.049 C36.61275,62.049 38.7105,64.524 38.7105,66.816 C38.7105,68.9325 38.1,70.4745 36.894,71.3985 C35.8305,72.2145 34.6095,72.309 33.78375,72.309 L33.78375,72.309 Z M33.22425,65.1075 C31.81275,65.1075 31.5165,66.4275 31.5165,67.5345 C31.5165,68.7135 32.87475,69.243 33.22425,69.243 L33.78375,69.2505 L33.78375,69.2505 C34.19625,69.2505 34.71075,69.21825 35.0325,68.97225 C35.4315,68.66625 35.652,67.89975 35.652,66.816 C35.652,66.2385 34.91925,65.1075 33.22425,65.1075 L33.22425,65.1075 Z" id="Shape" fill="#000000"></path>
                <path d="M14.8215,66.4995 L14.8215,66.4995 L14.262,66.49125 C12.2715,66.49125 9.49575,64.6785 9.49575,61.72575 C9.49575,58.44375 11.41125,56.23875 14.262,56.23875 C17.6505,56.23875 19.74825,58.71375 19.74825,61.00575 C19.74825,63.12225 19.13775,64.66425 17.93175,65.589 C16.86825,66.40425 15.64725,66.4995 14.8215,66.4995 L14.8215,66.4995 Z M14.262,59.2965 C12.77625,59.2965 12.55425,60.8175 12.55425,61.725 C12.55425,62.9025 13.91175,63.432 14.262,63.432 L14.8215,63.4395 L14.8215,63.4395 C15.234,63.4395 15.7485,63.40725 16.07025,63.16125 C16.46925,62.85525 16.68975,62.0895 16.68975,61.005 C16.689,60.42825 15.95625,59.2965 14.262,59.2965 L14.262,59.2965 Z" id="Shape" fill="#000000"></path>
                <path d="M19.092,47.44575 L19.092,47.44575 L18.5325,47.43825 C16.542,47.43825 13.7655,45.62475 13.7655,42.672 C13.7655,39.39 15.681,37.185 18.5325,37.185 C21.921,37.185 24.01875,39.66 24.01875,41.952 C24.01875,44.0685 23.40825,45.61125 22.203,46.53525 C21.13875,47.3505 19.91775,47.44575 19.092,47.44575 L19.092,47.44575 Z M18.5325,40.24275 C17.04675,40.24275 16.82475,41.76375 16.82475,42.67125 C16.82475,43.84875 18.18225,44.37825 18.5325,44.37825 L19.092,44.38575 L19.092,44.38575 C19.5045,44.38575 20.019,44.35425 20.3415,44.1075 C20.7405,43.8015 20.96025,43.03575 20.96025,41.95125 C20.9595,41.3745 20.22675,40.24275 18.5325,40.24275 L18.5325,40.24275 Z" id="Shape" fill="#000000"></path>
                <path d="M8.6775,23.7555 L9.71625,22.97775 L7.88325,20.529 L6.765,21.366 C7.863,21.91275 8.5275,22.85775 8.6775,23.7555 L8.6775,23.7555 Z" id="Shape" fill="#000000"></path>
                <path d="M5.3265,29.63475 L5.3265,29.63475 L4.767,29.6265 C2.77575,29.6265 0,27.81375 0,24.8595 C0,21.57825 1.9155,19.37325 4.76625,19.37325 C8.15475,19.37325 10.2525,21.84825 10.2525,24.14025 C10.2525,26.2575 9.64125,27.79875 8.436,28.72425 C7.37325,29.5395 6.15225,29.63475 5.3265,29.63475 L5.3265,29.63475 Z M4.76625,22.43175 C3.2805,22.43175 3.0585,23.95275 3.0585,24.8595 C3.0585,26.03775 4.41675,26.568 4.76625,26.568 L5.32575,26.5755 L5.32575,26.5755 C5.73825,26.5755 6.25275,26.544 6.5745,26.2965 C6.9735,25.9905 7.194,25.22475 7.194,24.14025 C7.194,23.56275 6.46125,22.43175 4.76625,22.43175 L4.76625,22.43175 Z" id="Shape" fill="#DC471F"></path>
                <path d="M29.091,5.487 C29.091,5.18025 29.1165,4.88475 29.15775,4.59825 L26.247,6.7785 L28.08075,9.22725 L30.087,7.725 C29.5185,7.19175 29.091,6.447 29.091,5.487 L29.091,5.487 Z" id="Shape" fill="#000000"></path>
                <path d="M32.88825,10.2615 L32.88825,10.2615 L32.32875,10.254 C30.33825,10.254 27.5625,8.4405 27.5625,5.48775 C27.56175,2.205 29.47725,0 32.328,0 C35.7165,0 37.81425,2.475 37.81425,4.76775 C37.81425,6.88425 37.203,8.42625 35.99775,9.35025 C34.935,10.167 33.714,10.2615 32.88825,10.2615 L32.88825,10.2615 Z M32.328,3.05925 C30.84225,3.05925 30.62025,4.58025 30.62025,5.487 C30.62025,6.66525 31.9785,7.19475 32.328,7.19475 L32.8875,7.20225 L32.8875,7.20225 C33.3,7.20225 33.8145,7.17075 34.13625,6.92325 C34.53525,6.61725 34.75575,5.8515 34.75575,4.767 C34.75575,4.19025 34.023,3.05925 32.328,3.05925 L32.328,3.05925 Z" id="Shape" fill="#000000"></path>
                <path d="M14.262,57.76725 C15.2775,57.76725 16.10625,58.0665 16.7475,58.5105 L19.269,45.9135 C18.98325,45.9195 18.7275,45.9075 18.5325,45.9075 C17.94675,45.9075 17.04525,45.58725 16.34175,44.95275 L13.7655,57.81975 C13.92825,57.79725 14.085,57.76725 14.262,57.76725 L14.262,57.76725 Z" id="Shape" fill="#000000"></path>
                <path d="M33.03,63.597 L31.4025,60.699 L28.73475,62.1975 L30.46275,65.27475 C30.942,64.30275 31.79625,63.66225 33.03,63.597 L33.03,63.597 Z" id="Shape" fill="#000000"></path>
                <path d="M30.05925,68.1735 C30.01575,67.97025 29.98725,67.76025 29.98725,67.5345 C29.98725,66.6165 30.18375,65.784 30.5595,65.11275 L18.21075,60.93675 C18.21075,60.95925 18.219,60.98325 18.219,61.00575 C18.219,62.41725 17.9085,63.32325 17.45625,63.9105 L30.05925,68.1735 L30.05925,68.1735 Z" id="Shape" fill="#000000"></path>
                <path d="M37.18125,66.816 C37.18125,66.91875 37.17225,67.00575 37.16925,67.10325 L38.541,66.372 L37.10325,63.67125 L35.78175,64.3755 C36.6825,65.03175 37.18125,65.9805 37.18125,66.816 L37.18125,66.816 Z" id="Shape" fill="#000000"></path>
                <path d="M66.53025,47.98425 L57.813,65.90175 C59.03625,66.01125 59.9685,66.546 60.5625,67.242 L68.9775,49.947 C68.121,49.7415 67.01775,49.0875 66.53025,47.98425 L66.53025,47.98425 Z" id="Shape" fill="#000000"></path>
                <path d="M33.393,7.641 L30.39075,8.22975 L32.68575,19.93725 C33.945,19.99875 35.02725,20.26725 35.9475,20.67525 L33.393,7.641 L33.393,7.641 Z" id="Shape" fill="#000000"></path>
                <path d="M21.4245,39.7695 C22.11675,40.40325 22.48875,41.223 22.48875,41.95125 C22.48875,42.20475 22.47675,42.438 22.458,42.66 L28.71975,39.807 C28.0965,39.03075 27.47325,38.181 26.88525,37.28175 L21.4245,39.7695 L21.4245,39.7695 Z" id="Shape" fill="#000000"></path>
                <path d="M23.75775,27.8745 L8.65275,25.16025 C8.39325,27.11475 7.38675,27.78375 6.40875,28.0005 L15.702,40.61775 C16.14375,39.609 16.962,38.922 18.162,38.79975 L10.67325,28.63125 L24.0585,31.0365 C23.8515,30.1425 23.73375,29.235 23.73375,28.32525 C23.7345,28.173 23.75025,28.0245 23.75775,27.8745 L23.75775,27.8745 Z" id="Shape" fill="#000000"></path>
                <path d="M32.5245,63.65025 C32.74425,63.606 32.97525,63.57675 33.22425,63.57675 C34.149,63.57675 34.9245,63.822 35.54025,64.2 L37.49775,47.259 C36.80175,47.1705 35.9925,46.8 34.59825,45.70275 L32.5245,63.65025 L32.5245,63.65025 Z" id="Shape" fill="#000000"></path>
                <path d="M54.66975,67.461 C55.173,66.51825 56.0355,65.90025 57.285,65.87025 L43.22325,44.0715 C42.47625,44.7705 41.66025,45.46875 40.8495,46.03425 L54.66975,67.461 L54.66975,67.461 Z" id="Shape" fill="#000000"></path>
                <polygon id="Shape" fill="#000000" points="38.127 41.814 38.16225 41.5095 37.99875 41.6145"></polygon>
                <path d="M64.10625,13.1805 C63.261,14.20275 61.9635,14.18175 61.19625,14.166 L67.695,42.00525 L50.45475,34.578 C50.01075,35.51175 49.49925,36.4095 48.95325,37.2615 L66.61275,44.87025 C67.07475,43.65525 68.02425,42.82425 69.5145,42.82425 C70.1025,42.82425 70.62525,42.93 71.09175,43.09875 L64.10625,13.1805 L64.10625,13.1805 Z" id="Shape" fill="#000000"></path>
                <path d="M50.6535,23.72775 L60.05175,13.9755 C59.19225,13.6605 58.2255,12.9435 57.8745,11.82675 L48.53625,21.516 C49.36875,22.119 50.088,22.86675 50.6535,23.72775 L50.6535,23.72775 Z" id="Shape" fill="#000000"></path>
                <path d="M43.61775,22.59075 C38.83725,22.59075 37.8825,26.796 37.8825,26.796 C37.8825,26.796 37.1175,22.59075 32.14725,22.59075 C28.97925,22.59075 26.412,25.158 26.412,28.32525 C26.412,35.814 36.86325,44.6085 37.8825,44.6085 C39.28425,44.6085 49.35375,35.71875 49.35375,28.32525 C49.35375,25.158 46.785,22.59075 43.61775,22.59075 L43.61775,22.59075 Z" id="Shape" fill="#DC471F"></path>
            </g>
        </g>
    </g>
</svg>