<?xml version="1.0" encoding="UTF-8" standalone="no"?>
<svg width="68px" height="75px" viewBox="0 0 68 75" version="1.1" xmlns="http://www.w3.org/2000/svg" xmlns:xlink="http://www.w3.org/1999/xlink">
    <!-- Generator: Sketch 42 (36781) - http://www.bohemiancoding.com/sketch -->
    <title>Group</title>
    <desc>Created with Sketch.</desc>
    <defs></defs>
    <g id="Page-1" stroke="none" stroke-width="1" fill="none" fill-rule="evenodd">
        <g id="Artboard" transform="translate(-121.000000, -85.000000)">
            <g id="Group" transform="translate(121.000000, 85.000000)">
                <path d="M40.4615414,1.32218496 C39.6496059,1.01641319 38.9298099,0.617520003 36.8868086,0.381241812 C35.2816427,0.196388873 32.6650214,0.261712844 31.052235,2.57445938 C29.6341191,4.60853663 29.4720092,8.10684374 33.0266514,12.4203106 C36.5806008,16.7351674 38.2245623,17.5760397 35.7471893,19.1730023 C35.7471893,19.1730023 36.6838247,25.3530669 41.6794445,27.9104309 C41.6794445,27.9104309 42.8107505,27.7672741 44.4623324,25.4475782 C46.1132216,23.1292722 45.2015262,18.0972416 45.2015262,18.0972416 C45.2015262,18.0972416 42.7858105,16.500974 40.0396398,13.9144227 C37.8677818,11.8706163 36.4891542,9.99289966 36.4891542,9.99289966 C33.2019241,4.41117485 37.4507296,3.10886505 40.0922909,2.85938308 C41.8297773,2.69537822 42.6119233,1.22628381 42.2870105,1.2957774 C41.9309228,1.37291528 41.2720912,1.62656687 40.4615414,1.32218496" id="Fill-650" fill="#413630"></path>
                <path d="M38.4779111,11.4700553 C38.4779111,11.4700553 37.9257673,11.1086887 37.0798857,9.74244478 C36.2360825,8.37481101 37.0126863,7.2893212 39.0459887,7.35464517 C41.0785984,7.4171894 43.8074497,8.61595375 45.4527967,12.1121761 C45.4527967,12.1121761 40.3220852,9.80776875 38.4779111,11.4700553" id="Fill-652" fill="#413630"></path>
                <path d="M47.714023,6.81787671 C47.714023,6.81787671 49.13491,6.09375355 50.6070625,7.22371925 C52.0369557,8.32241284 52.3778023,10.4100002 51.7543024,11.8922983 C51.2658941,12.946516 50.3673615,13.3947497 50.3673615,13.3947497 C50.3673615,13.3947497 50.4705853,12.0493538 49.3392794,10.7706719 C48.2107446,9.48921015 47.7285713,7.58786564 47.714023,6.81787671" id="Fill-654" fill="#413630"></path>
                <path d="M49.1699645,11.4130011 C49.1699645,11.4130011 48.9898423,13.0620839 47.460882,12.9654878 C46.4231011,12.9022486 46.0891822,12.4164885 46.0891822,12.4164885 C46.0891822,12.4164885 45.7815889,10.8640018 44.4583836,9.56377677 C44.4583836,9.56377677 47.077776,11.5950743 49.1699645,11.4130011" id="Fill-656" fill="#413630"></path>
                <path d="M27.3433805,43.088247 C27.3433805,43.088247 26.4095162,44.2772822 24.2044049,43.8742194 C24.2044049,43.8742194 26.8736772,46.5775199 26.3312323,46.7331855 C25.861529,46.8666132 25.3301686,46.4989922 24.1988626,46.3655645 C22.1233007,46.1174724 22.0748063,49.3100077 22.9996645,49.3044482 C22.9996645,49.3044482 24.2951587,48.1466851 27.918386,48.722092 C31.4189915,49.2801255 35.5902059,49.1703256 37.1732029,48.6803958 C37.1732029,48.6803958 36.6757885,46.1084382 34.7166132,46.4864833 C30.5932005,47.2835747 30.5744955,46.9263777 29.8062051,46.46772 C28.077032,45.4461643 27.3433805,43.088247 27.3433805,43.088247" id="Fill-658" fill="#413630"></path>
                <path d="M40.4371556,36.8222883 C40.4371556,36.8222883 40.1046223,37.6124304 38.2507493,38.191312 C38.2507493,38.191312 41.5913232,39.6472026 41.0010766,40.2900182 C40.6727,40.6527748 39.9826934,40.2441525 39.282988,40.5429749 C37.3591444,41.3629992 38.5105409,43.9252277 39.3778985,43.5993028 C39.3778985,43.5993028 39.5781113,42.3206208 43.1757057,41.6110913 C46.6562208,40.9244947 49.8547753,39.8125973 51.1738239,38.8056353 C51.1738239,38.8056353 49.8152869,36.5505684 48.1103611,37.5943621 C45.0198799,39.4894521 44.1268895,39.1558829 43.3218818,38.8230087 C41.4680088,38.0544096 40.4371556,36.8222883 40.4371556,36.8222883" id="Fill-660" fill="#413630"></path>
                <path d="M46.1133602,7.49314589 L46.8712589,7.58001287 C46.8061378,8.12275777 46.9682478,8.92679856 46.9682478,8.92679856 C46.3572179,8.6446546 46.1133602,7.49314589 46.1133602,7.49314589 M42.0744663,5.94065918 C41.8860308,5.84545297 41.5631964,5.85796181 41.1544576,5.75650118 C41.121897,5.74816195 40.3099616,5.36594723 40.6362599,4.70575816 C40.8122254,4.349951 41.3290376,4.20540434 41.7294631,4.4312585 C42.3314869,4.76969226 42.1894674,5.53829132 42.2788358,5.75650118 C42.415313,6.08937545 42.2635946,6.04072994 42.0744663,5.94065918 M47.3284922,6.99626675 C47.3284922,6.99626675 46.0496246,6.83226188 44.9481081,6.30897518 C42.9875473,5.37845607 41.5749736,2.93784134 41.5749736,2.93784134 C41.5749736,2.93784134 39.3546212,3.48684067 37.7820159,4.09490954 C35.161238,5.10812602 36.3105561,7.6620153 36.3105561,7.6620153 C36.3105561,7.6620153 37.202161,6.78917586 38.5697041,6.60988241 C41.1045776,6.53760908 42.798419,8.14569066 44.939102,9.47649282 C47.0756284,10.8052102 48.6745592,10.8253633 48.6745592,10.8253633 C47.3756011,9.61895467 47.3284922,6.99626675 47.3284922,6.99626675" id="Fill-662" fill="#413630"></path>
                <path d="M30.0806836,30.7062968 C29.640077,31.2407025 28.5323255,31.4019276 28.5323255,31.4019276 C28.5323255,31.4019276 28.3986194,30.9905256 28.5413316,30.195519 C28.6840438,29.3998174 30.095232,28.8216308 30.095232,28.8216308 C30.0502014,29.6597234 30.923794,29.7201828 30.923794,29.7201828 C30.923794,29.7201828 30.5212902,30.1753658 30.0806836,30.7062968 M27.0428535,28.7514423 C27.0428535,28.7514423 27.5596657,27.8758231 27.817379,27.7674131 C28.0743995,27.6631727 29.3110076,27.6353753 29.3110076,27.6353753 C29.051216,28.2524783 29.7121259,28.613845 29.7121259,28.613845 C29.7121259,28.613845 28.5704283,29.1996759 27.9711756,29.1253177 C27.3698446,29.0530444 27.0428535,28.7514423 27.0428535,28.7514423 M25.6427499,33.8404575 C24.1823745,33.9926485 22.4247976,32.9273118 22.4247976,32.9273118 C23.4570363,32.470044 26.8343275,31.3275695 27.8450901,30.3984402 C27.5707501,32.2831063 29.0228121,31.8862979 29.0228121,31.8862979 C29.0228121,31.8862979 28.6099166,33.0211282 25.6427499,33.8404575 M20.4171279,30.1711962 C20.4171279,30.1711962 20.4628512,29.8862725 22.4247976,29.1857772 C22.9984175,28.9807711 25.5575382,28.3025137 26.4449864,28.4123136 C26.4449864,28.4123136 26.4013414,29.4852945 27.1377641,29.5374147 C27.1377641,29.5374147 26.1276942,31.2837885 22.566817,31.408877 C21.6156332,31.3463327 20.4171279,30.1711962 20.4171279,30.1711962 M19.6647713,26.013395 C19.6647713,26.013395 20.9720428,25.7020637 22.1878676,25.6290954 C22.7982047,25.5929588 25.7847693,25.1593188 26.5911625,25.5512626 C26.5911625,25.5512626 25.533291,26.305963 26.4221247,27.1732429 C26.4221247,27.1732429 24.2800562,28.4123136 21.2463827,27.8799927 C20.0852874,27.5610171 19.6647713,26.013395 19.6647713,26.013395 M23.3288724,21.9695632 C23.9135768,22.1516364 26.0216992,22.4845107 26.6715247,22.8896583 C26.6715247,22.8896583 26.2891114,23.0640872 26.1948937,23.5415081 C26.1124531,23.9536051 26.6680608,24.6381169 26.6680608,24.6381169 C26.6680608,24.6381169 24.5059017,25.6951144 22.1934098,23.9536051 C21.5470483,23.4664551 21.8539488,21.7437091 21.8539488,21.7437091 C21.8539488,21.7437091 22.7427825,21.7812356 23.3288724,21.9695632 M27.7965956,25.731251 L29.069921,25.7402852 C28.6272361,26.5839373 29.3151643,26.9779659 29.3151643,26.9779659 C29.3151643,26.9779659 28.0023506,27.15031 27.5652079,27.1642088 C27.128758,27.1753277 26.6604403,26.55475 26.6604403,26.55475 C26.885593,25.8625939 27.7965956,25.731251 27.7965956,25.731251 M27.6684318,23.2371262 C28.2510578,23.2419908 29.7481503,23.9626393 29.7481503,23.9626393 C28.764406,24.1864086 29.2929954,25.1190125 29.2929954,25.1190125 C28.2780761,25.2128289 27.3649951,24.6971865 27.0754141,24.4755019 C26.7872186,24.2538174 26.6812236,23.7437345 26.6812236,23.7437345 C26.6812236,23.7437345 27.085113,23.2322617 27.6684318,23.2371262 M34.9044945,19.2544488 C34.9044945,19.2544488 29.4204665,16.5205712 27.4502068,16.077897 C23.8900223,15.2828904 17.3550506,18.6067686 13.0605218,23.1467846 C8.76530021,27.6881904 12.1993991,31.3261796 15.3903331,34.5207997 C19.0204881,38.1622636 20.569539,39.6473416 23.6641768,42.8231984 C24.3327073,43.5097951 26.7816763,42.8537756 27.2146624,42.1928916 C27.6476484,41.5333975 27.7280106,38.125432 31.1323201,37.0045005 C36.0261016,35.3964189 40.0532182,33.6604692 40.6496998,29.2239986 C40.6496998,29.2239986 35.9194138,25.9091546 34.9044945,19.2544488" id="Fill-664" fill="#413630"></path>
                <path d="M33.8070654,36.5108181 C33.8070654,36.5108181 37.0070055,37.9701834 37.6360476,37.8999948 C38.2664753,37.8298063 40.3669772,36.6372964 40.15568,35.8645277 C39.9457684,35.092454 39.1324474,33.5573407 39.1324474,33.5573407 C39.1324474,33.5573407 38.2657825,34.4690965 37.226616,35.1647273 C36.1888351,35.8596632 33.8070654,36.5108181 33.8070654,36.5108181" id="Fill-666" fill="#413630"></path>
                <path d="M6.27725848,32.5651113 C8.96177196,30.4844733 10.4734128,30.4191493 10.4734128,30.4191493 C10.4734128,30.4191493 6.9686506,28.9854967 4.54808542,33.0126499 C4.17883492,33.6255834 3.59690167,34.6457492 3.59690167,34.6457492 C3.59690167,34.6457492 6.06457574,34.7492947 6.79961285,34.3580458 C7.54088496,33.9640171 10.8301933,32.6151466 11.4038133,31.5338264 C9.14189416,31.0598802 6.27725848,32.5651113 6.27725848,32.5651113" id="Fill-668" fill="#413630"></path>
                <path d="M9.81832228,28.8176696 C7.67209705,27.9344062 4.33152312,28.7731937 4.33152312,28.7731937 C7.3541121,27.2241817 9.61395286,27.4875624 9.61395286,27.4875624 C9.61395286,27.4875624 5.87156788,25.3812118 1.92966293,27.9232872 C1.32763913,28.3089766 0.356364834,28.9677758 0.356364834,28.9677758 C0.356364834,28.9677758 1.27914469,30.3701563 3.36163437,30.1283187 C4.19088925,30.0296378 8.96828407,29.6140661 9.95757059,28.8975873 L9.94717892,28.8663152 C9.90214837,28.8489418 9.86820227,28.8392127 9.81832228,28.8176696" id="Fill-670" fill="#413630"></path>
                <path d="M4.86329926,22.8808326 C8.17962597,23.374932 9.65732074,24.7515999 9.69542352,24.7877366 L9.7238274,24.7092088 C9.7238274,24.7092088 7.52495107,21.023964 2.84038845,21.0010311 C2.12336356,20.9968615 0.952569299,21.0204893 0.952569299,21.0204893 C0.952569299,21.0204893 0.652596567,22.3283586 2.84038845,23.6341431 C3.5587989,24.0629185 8.02167266,26.1435565 9.24442525,26.0810122 C8.005046,24.111564 4.86329926,22.8808326 4.86329926,22.8808326" id="Fill-672" fill="#413630"></path>
                <path d="M8.62078679,17.6905652 C8.00767855,17.3250289 6.9823676,16.7461473 6.9823676,16.7461473 C6.9823676,16.7461473 6.22862549,18.1520026 7.29619588,19.9637004 C7.71809749,20.6773995 9.32603446,23.3424785 10.4081532,23.9540221 C10.4178521,21.6621236 8.54873791,19.1686937 8.54873791,19.1686937 C11.0385809,21.4911694 11.5567786,23.0429611 11.5567786,23.0429611 C11.5567786,23.0429611 12.6451323,20.0901787 8.62078679,17.6905652" id="Fill-674" fill="#413630"></path>
                <path d="M13.111718,58.9835843 L13.111718,53.1231903 C13.111718,51.8403387 13.0736153,51.3997493 12.635087,51.1509623 C12.4050848,51.0168397 12.1196604,50.95916 11.8141455,50.95916 C11.4130272,50.95916 11.145615,51.0550611 10.9925112,51.1315041 C10.6301884,51.3233064 10.5920857,51.5908567 10.4770846,53.1231903 C10.1528646,57.1830055 9.77114412,59.6924189 8.72089317,61.0899349 L11.3361289,61.0899349 C12.1764682,61.0899349 12.4251754,61.013492 12.5962915,60.9175908 C13.0168075,60.6875671 13.111718,60.189993 13.111718,58.9835843 M18.5915894,64.9774061 C18.0186623,65.2261931 17.1208224,65.2261931 16.4723825,64.9774061 C16.4723825,64.3074879 16.414882,63.4457675 16.2617781,62.5263673 L8.12995381,62.5263673 C7.97684995,63.4457675 7.9193494,64.3074879 7.9193494,64.9774061 C7.27021672,65.2261931 6.37306964,65.2261931 5.8001425,64.9774061 C5.81954028,64.1351439 5.74264195,63.2546601 5.60893586,62.5263673 C5.60893586,61.9516554 5.72393696,61.4916078 5.97195136,61.0899349 L6.56427627,61.0899349 C7.5376289,60.6688038 8.01495272,59.864763 8.2823649,59.0600273 C8.62598262,58.044726 8.95020258,56.3212851 9.04580589,53.1231903 C9.10261366,51.3809861 8.98899812,51.1891838 7.36582004,51.0168397 C7.27021672,50.6332351 7.19401118,50.0209966 7.19401118,49.5234225 C8.20546658,49.5804072 9.88614521,49.5804072 12.4438804,49.5804072 C16.0331615,49.5804072 17.5794413,49.560949 18.3428822,49.5234225 C18.3428822,50.0404548 18.3428822,50.5185707 18.1710734,51.0168397 C17.1208224,51.1315041 16.9303086,51.3997493 16.9303086,53.1231903 L16.9303086,58.9835843 C16.9303086,60.7063303 17.1021174,60.937049 18.1710734,61.0899349 L18.4197806,61.0899349 C18.667795,61.4916078 18.7827961,61.9516554 18.7827961,62.5263673 C18.6483972,63.2546601 18.5721917,64.1351439 18.5915894,64.9774061" id="Fill-676" fill="#413630"></path>
                <path d="M24.3760752,58.3517487 L24.3760752,60.6874281 C24.7196929,61.1280174 25.0633106,61.3392779 25.5787372,61.3392779 C26.4571793,61.3392779 27.582943,60.8222456 27.582943,58.0070605 C27.582943,56.7811936 27.2968258,55.4601206 26.0941638,55.4601206 C25.2545172,55.4601206 24.3760752,56.2064817 24.3760752,58.3517487 L24.3760752,58.3517487 Z M24.3760752,63.3879488 C24.3760752,65.0349468 24.8527062,65.6089638 26.4571793,65.7243232 C26.6102832,66.1461492 26.6289881,66.7389295 26.6289881,67.2184353 C25.9029571,67.1795189 24.3947802,67.1607556 23.1921181,67.1607556 C21.8176472,67.1607556 20.2138669,67.1795189 19.3361176,67.2184353 C19.3361176,66.5290589 19.3735276,66.0884696 19.4698237,65.7243232 C20.5006769,65.6478802 20.7486913,65.3414135 20.7486913,63.5790562 L20.7486913,57.3552106 C20.7486913,56.1105805 20.634383,55.7658923 19.3929254,55.6512279 C19.3929254,55.1724171 19.4310281,54.6171634 19.6416326,54.2147955 C21.53153,54.2147955 23.1166054,53.8895655 23.7269425,53.5830988 C24.1467658,53.7742062 24.3760752,54.1383526 24.3760752,54.8082707 C24.547884,54.6171634 24.7009879,54.4635825 24.8727968,54.3301548 C25.3494278,53.9653135 26.2666654,53.5830988 27.3162236,53.5830988 C29.5109433,53.5830988 31.2297247,54.7318278 31.2297247,57.4511118 C31.2297247,60.6304433 28.9768117,62.6985724 25.598135,62.6985724 C25.1776189,62.6985724 24.8146034,62.660351 24.3760752,62.5644498 L24.3760752,63.3879488 Z" id="Fill-678" fill="#413630"></path>
                <path d="M36.0078815,57.5855819 C36.0078815,59.5578098 36.6189115,61.2235711 37.8596763,61.2235711 C38.7187206,61.2235711 39.2154422,60.0748421 39.2154422,58.6196464 C39.2154422,56.1296913 38.3182951,54.962199 37.3823524,54.962199 C36.4471026,54.962199 36.0078815,56.1491495 36.0078815,57.5855819 M42.8428261,57.9872548 C42.8428261,60.9942423 40.8185297,62.698225 37.4966608,62.698225 C34.0798813,62.698225 32.3811904,61.0137005 32.3811904,58.3131797 C32.3811904,55.0768634 34.7283212,53.5827513 37.6684696,53.5827513 C41.1815452,53.5827513 42.8428261,55.4403149 42.8428261,57.9872548" id="Fill-680" fill="#413630"></path>
                <path d="M54.4726927,59.4240347 C54.4726927,60.6874281 54.6632065,61.0897959 55.2936342,61.0897959 C55.4654431,61.511622 55.5035458,61.9522113 55.5035458,62.583908 C54.9299259,62.5651448 53.7466617,62.5262284 52.6583079,62.5262284 C51.570647,62.5262284 50.38669,62.5651448 49.8137628,62.583908 C49.8137628,61.9522113 49.8518656,61.511622 50.0236745,61.0897959 C50.6541021,61.0897959 50.8453088,60.6874281 50.8453088,59.4240347 L50.8453088,58.542856 C50.0049695,58.542856 49.2034257,58.5623142 48.4780875,58.6575204 L48.4780875,59.4240347 C48.4780875,60.6874281 48.6686013,61.0897959 49.2983362,61.0897959 C49.4701451,61.511622 49.5082479,61.9522113 49.5082479,62.583908 C48.9360135,62.5651448 47.7520565,62.5262284 46.6643955,62.5262284 C45.5760418,62.5262284 44.3920848,62.5651448 43.8198504,62.583908 C43.8198504,61.9522113 43.8579532,61.511622 44.029762,61.0897959 C44.6594969,61.0897959 44.8500108,60.6874281 44.8500108,59.4240347 L44.8500108,56.8576366 C44.8500108,55.5935482 44.6594969,55.1911804 44.029762,55.1911804 C43.8579532,54.7707442 43.8198504,54.3301548 43.8198504,53.6977632 C44.3920848,53.7172214 45.5760418,53.7554429 46.6643955,53.7554429 C47.7520565,53.7554429 48.9360135,53.7172214 49.5082479,53.6977632 C49.5082479,54.3301548 49.4701451,54.7707442 49.2983362,55.1911804 C48.6686013,55.1911804 48.4780875,55.5935482 48.4780875,56.8576366 L48.4780875,57.3176841 L50.8453088,57.3176841 L50.8453088,56.8576366 C50.8453088,55.5935482 50.6541021,55.1911804 50.0236745,55.1911804 C49.8518656,54.7707442 49.8137628,54.3301548 49.8137628,53.6977632 C50.38669,53.7172214 51.570647,53.7554429 52.6583079,53.7554429 C53.7466617,53.7554429 54.9299259,53.7172214 55.5035458,53.6977632 C55.5035458,54.3301548 55.4654431,54.7707442 55.2936342,55.1911804 C54.6632065,55.1911804 54.4726927,55.5935482 54.4726927,56.8576366 L54.4726927,59.4240347 Z" id="Fill-682" fill="#413630"></path>
                <path d="M63.6574005,59.4240347 C63.6574005,60.8597722 63.9241199,61.0515745 65.260488,61.1092541 C65.3948869,61.511622 65.4516947,62.1433187 65.4516947,62.583908 C64.9168703,62.5449916 63.6574005,62.5262284 62.1111207,62.5262284 C60.583546,62.5262284 58.751149,62.5449916 58.043823,62.583908 C58.043823,62.2009984 58.1588241,61.5303853 58.2738252,61.1092541 C59.6295911,61.0515745 60.0300166,60.9556733 60.0300166,59.4240347 L60.0300166,55.076516 C59.1515745,55.1341956 58.5980451,55.5935482 58.2544274,56.9340795 C57.548487,56.9340795 56.8799565,56.9153162 56.3645299,56.6859874 C56.5931466,55.8041138 56.8030582,54.5407204 56.8030582,53.7172214 C58.2357224,53.7554429 59.0947667,53.7554429 61.9012091,53.7554429 C64.3065332,53.7554429 65.4329897,53.7172214 66.8455633,53.7172214 C66.8642683,54.5212622 67.0360772,55.7283658 67.3228871,56.6658343 C66.8261656,56.8381784 66.1770329,56.9340795 65.4135919,56.9340795 C65.0699742,55.498342 64.6882537,55.076516 63.7142083,55.076516 L63.6574005,55.076516 L63.6574005,59.4240347 Z" id="Fill-684" fill="#413630"></path>
                <path d="M33.3916759,70.7106269 C33.3916759,72.3610996 32.5728127,73.3312301 31.182408,73.3312301 C30.5041786,73.3312301 29.8682087,73.1331733 29.4657049,72.8002991 L29.8044732,72.2123833 C30.150862,72.4952222 30.6233364,72.6515828 31.1110519,72.6515828 C31.9306078,72.6515828 32.4460344,72.042124 32.5229327,70.9941608 L30.6593608,70.9941608 L30.6593608,70.3353616 L32.516005,70.3353616 C32.4245583,69.3436881 31.9721745,68.7696711 31.2523785,68.7696711 C30.8775858,68.7696711 30.5748419,68.9607784 30.3767075,69.3082464 L29.6070315,68.9892708 C30.0240837,68.2950299 30.6309569,68.0900238 31.2523785,68.0900238 C32.5942888,68.0900238 33.3916759,69.0601543 33.3916759,70.7106269" id="Fill-686" fill="#9C9604"></path>
                <path d="M38.452209,73.1897411 C38.3531418,73.2752182 38.1764835,73.331508 38.006753,73.331508 C37.6402736,73.331508 37.4781636,73.2182335 37.3008125,73.0055831 L35.373505,70.6824125 L37.3153608,68.0896069 L38.1058202,68.2313738 L36.3198393,70.6191734 L38.452209,73.1897411 Z M35.3381734,68.5857911 L35.3381734,73.2613195 L34.5047618,73.2613195 L34.5047618,68.195932 C34.6315401,68.1257435 34.7513907,68.0896069 34.8788618,68.0896069 C35.1545873,68.0896069 35.3381734,68.2814092 35.3381734,68.5857911 L35.3381734,68.5857911 Z" id="Fill-688" fill="#9C9604"></path>
                <path d="M42.5621818,70.7106269 C42.5621818,69.4924044 42.003803,68.7696711 41.0650893,68.7696711 C40.1256828,68.7696711 39.5686895,69.4924044 39.5686895,70.7106269 C39.5686895,71.9288495 40.1256828,72.6515828 41.0650893,72.6515828 C42.003803,72.6515828 42.5621818,71.9288495 42.5621818,70.7106269 M38.7131091,70.7106269 C38.7131091,69.0601543 39.5887801,68.0900238 41.0720171,68.0900238 C42.5545613,68.0900238 43.4302322,69.0601543 43.4302322,70.7106269 C43.4302322,72.3610996 42.5545613,73.3312301 41.0720171,73.3312301 C39.5887801,73.3312301 38.7131091,72.3610996 38.7131091,70.7106269" id="Fill-690" fill="#9C9604"></path>
                <path d="M48.7031709,72.61628 L48.7031709,74.0047619 C48.5763926,74.0756453 48.4496143,74.1103921 48.3221432,74.1103921 C48.0540383,74.1103921 47.8704522,73.9192848 47.8704522,73.6149029 L47.8704522,73.2611805 L44.530571,73.2611805 L44.530571,68.196488 C44.6573493,68.1256045 44.7778927,68.0894679 44.9053637,68.0894679 C45.1797037,68.0894679 45.3639826,68.2812702 45.3639826,68.5856521 L45.3639826,72.6016864 L47.4326167,72.6016864 L47.4326167,68.196488 C47.5600878,68.1256045 47.6799383,68.0894679 47.8067166,68.0894679 C48.0824421,68.0894679 48.2660282,68.2812702 48.2660282,68.5856521 L48.2660282,72.61628 L48.7031709,72.61628 Z" id="Fill-692" fill="#9C9604"></path>
                <polygon id="Fill-694" fill="#9C9604" points="52.8692587 72.6020339 52.8692587 73.2608331 49.7912475 73.2608331 49.7912475 68.1606988 52.7923604 68.1606988 52.7923604 68.819498 50.6246591 68.819498 50.6246591 70.3066607 52.544346 70.3066607 52.544346 70.9661549 50.6246591 70.9661549 50.6246591 72.6020339"></polygon>
                <path d="M57.9730904,68.5857911 L57.9730904,73.2613195 L57.1396789,73.2613195 L57.1396789,71.0013881 L54.7537526,71.0013881 L54.7537526,73.2613195 L53.9196483,73.2613195 L53.9196483,68.195932 C54.0471193,68.1257435 54.1669699,68.0896069 54.2937482,68.0896069 C54.5701665,68.0896069 54.7537526,68.2814092 54.7537526,68.5857911 L54.7537526,70.341894 L57.1396789,70.341894 L57.1396789,68.195932 C57.2664572,68.1257435 57.3870005,68.0896069 57.5144716,68.0896069 C57.7895043,68.0896069 57.9730904,68.2814092 57.9730904,68.5857911" id="Fill-696" fill="#9C9604"></path>
                <polygon id="Fill-698" fill="#9C9604" points="62.4612506 68.81922 61.1124124 68.81922 61.1124124 73.26125 60.2790009 73.26125 60.2790009 68.81922 58.92947 68.81922 58.92947 68.1611158 62.4612506 68.1611158"></polygon>
                <path d="M66.1180082,69.6763539 C66.1180082,69.0953875 65.7085766,68.7486145 65.0026362,68.7486145 C64.7760979,68.7486145 64.5218485,68.7555639 64.2544363,68.7694626 L64.2544363,70.6186869 C64.5003724,70.6325856 64.7622423,70.6402299 64.9957084,70.6402299 C65.7085766,70.6402299 66.1180082,70.2788633 66.1180082,69.6763539 M66.9791309,69.6763539 C66.9791309,70.6965197 66.2447865,71.2990291 64.9957084,71.2990291 C64.7622423,71.2990291 64.5079929,71.2913848 64.2544363,71.2774861 L64.2544363,73.2608331 L63.420332,73.2608331 L63.420332,68.1606988 C63.9364513,68.1183077 64.5925118,68.0898153 65.0026362,68.0898153 C66.2447865,68.0898153 66.9791309,68.6777311 66.9791309,69.6763539" id="Fill-700" fill="#9C9604"></path>
            </g>
        </g>
    </g>
</svg>