<?xml version="1.0" encoding="UTF-8" standalone="no"?>
<svg width="46px" height="74px" viewBox="0 0 46 74" version="1.1" xmlns="http://www.w3.org/2000/svg" xmlns:xlink="http://www.w3.org/1999/xlink">
    <!-- Generator: Sketch 39.1 (31720) - http://www.bohemiancoding.com/sketch -->
    <title>Group</title>
    <desc>Created with Sketch.</desc>
    <defs></defs>
    <g id="Page-1" stroke="none" stroke-width="1" fill="none" fill-rule="evenodd">
        <g id="Artboard" transform="translate(-540.000000, -733.000000)">
            <g id="Group" transform="translate(540.000000, 733.000000)">
                <path d="M38.2211538,16.30625 L7.93269231,16.30625 C3.94903846,16.30625 0.721153846,19.5355769 0.721153846,23.5177885 L0.721153846,37.9408654 C0.721153846,41.9245192 3.95048077,45.1524038 7.93269231,45.1524038 L7.93269231,74 L19.4711538,74 L19.4711538,56.6923077 L16.5865385,56.6923077 L16.5865385,45.1524038 C16.5865385,41.5697115 19.4927885,38.6620192 23.0769231,38.6620192 C26.6610577,38.6620192 29.5673077,41.5697115 29.5673077,45.1524038 L29.5673077,56.6923077 L26.6826923,56.6923077 L26.6826923,74 L38.2211538,74 L38.2211538,45.1524038 C42.2048077,45.1524038 45.4326923,41.9245192 45.4326923,37.9408654 L45.4326923,23.5177885 C45.4326923,19.5355769 42.2048077,16.30625 38.2211538,16.30625 L38.2211538,16.30625 Z M23.0783654,37.2197115 C19.4942308,37.2197115 16.5879808,34.3134615 16.5879808,30.7293269 C16.5879808,27.1466346 19.4942308,24.2389423 23.0783654,24.2389423 C26.6625,24.2389423 29.56875,27.1466346 29.56875,30.7293269 C29.56875,34.3134615 26.6625,37.2197115 23.0783654,37.2197115 L23.0783654,37.2197115 Z" id="Shape" fill="#000000"></path>
                <circle id="Oval" fill="#000000" cx="15.1442308" cy="7.65240385" r="7.21153846"></circle>
                <circle id="Oval" fill="#DC471F" cx="31.0096154" cy="7.65240385" r="7.21153846"></circle>
            </g>
        </g>
    </g>
</svg>