<?xml version="1.0" encoding="UTF-8" standalone="no"?>
<svg width="35px" height="46px" viewBox="0 0 35 46" version="1.1" xmlns="http://www.w3.org/2000/svg" xmlns:xlink="http://www.w3.org/1999/xlink" xmlns:sketch="http://www.bohemiancoding.com/sketch/ns">
    <!-- Generator: Sketch 3.4.2 (15855) - http://www.bohemiancoding.com/sketch -->
    <title>Group</title>
    <desc>Created with Sketch.</desc>
    <defs></defs>
    <g id="Page-1" stroke="none" stroke-width="1" fill="none" fill-rule="evenodd" sketch:type="MSPage">
        <g id="Group" sketch:type="MSLayerGroup" fill="#FFFFFF">
            <path d="M17.1525424,0 C8.17552542,0 0,12.8207458 0,26.8983051 C0,32.7403051 1.84311864,37.6708814 5.32976271,41.1575254 C8.45230508,44.2800678 12.6507797,46 17.1525424,46 C21.6543051,46 25.8527797,44.2800678 28.975322,41.1575254 C32.4619661,37.6708814 34.3050847,32.7403051 34.3050847,26.8983051 C34.3050847,12.8207458 26.1295593,0 17.1525424,0 L17.1525424,0 Z M17.1525424,44.440678 C9.3559322,44.440678 1.55932203,38.5932203 1.55932203,26.8983051 C1.55932203,13.2542373 9.3559322,1.55932203 17.1525424,1.55932203 C24.9491525,1.55932203 32.7457627,13.2542373 32.7457627,26.8983051 C32.7457627,38.5932203 24.9491525,44.440678 17.1525424,44.440678 L17.1525424,44.440678 Z" id="Shape" sketch:type="MSShapeGroup"></path>
            <path d="M16.470339,17.9197288 L17.1525424,17.526 L17.1525424,13.2542373 C12.9875932,13.2542373 9.07213559,14.8759322 6.12657627,17.8207119 L9.97498305,21.6698983 L16.470339,17.9197288 L16.470339,17.9197288 Z" id="Shape" sketch:type="MSShapeGroup"></path>
            <path d="M25.5923729,33.720339 L25.5923729,23.9745763 L17.1525424,19.1016949 L8.71271186,23.9745763 L8.71271186,33.720339 L17.1525424,38.5932203 L25.5923729,33.720339 L25.5923729,33.720339 Z M15.2033898,28.8474576 C15.2033898,26.1560678 16.0758305,23.9745763 17.1525424,23.9745763 C18.2292542,23.9745763 19.1016949,26.1560678 19.1016949,28.8474576 C19.1016949,31.5388475 18.2292542,33.720339 17.1525424,33.720339 C16.0758305,33.720339 15.2033898,31.5388475 15.2033898,28.8474576 L15.2033898,28.8474576 Z" id="Shape" sketch:type="MSShapeGroup"></path>
            <path d="M17.1525424,40.1525424 L17.1525424,42.1016949 C20.6929831,42.1016949 24.0213559,40.7224746 26.5248475,38.2197627 L25.1464068,36.841322 C23.0109153,38.9768136 20.1721695,40.1525424 17.1525424,40.1525424 L17.1525424,40.1525424 Z" id="Shape" sketch:type="MSShapeGroup"></path>
        </g>
    </g>
</svg>