<?xml version="1.0" encoding="UTF-8" standalone="no"?>
<svg width="74px" height="74px" viewBox="0 0 74 74" version="1.1" xmlns="http://www.w3.org/2000/svg" xmlns:xlink="http://www.w3.org/1999/xlink">
    <!-- Generator: Sketch 41.2 (35397) - http://www.bohemiancoding.com/sketch -->
    <title>Group 3</title>
    <desc>Created with Sketch.</desc>
    <defs></defs>
    <g id="Page-1" stroke="none" stroke-width="1" fill="none" fill-rule="evenodd">
        <g id="Artboard" transform="translate(-855.000000, -247.000000)">
            <g id="Group-3" transform="translate(855.000000, 247.000000)">
                <circle id="Oval-2" fill="#FFFFFF" cx="37" cy="37" r="37"></circle>
                <g id="Group" transform="translate(37.174988, 37.061314) rotate(8.000000) translate(-37.174988, -37.061314) translate(20.174988, 4.061314)" fill="#D02139">
                    <path d="M23.7310604,32.4549652 C27.0905202,26.1105582 30.6112764,18.7884822 31.2220873,14.94046 C30.9642775,13.960833 28.6360568,9.0130962 26.5967153,4.81133796 C26.4896251,4.58878445 26.3818738,4.36818887 26.2761057,4.1502039 C26.1981017,5.38697493 25.9819381,6.57022869 25.6725664,7.70257577 C25.667278,7.93230844 25.5463057,8.35653069 25.4874722,8.33890915 C25.3988914,8.62868558 25.3037001,8.91454611 25.2032203,9.1971434 C24.5553906,11.0291309 23.6960247,12.7116616 22.8386419,14.2421249 C22.3230223,15.1610556 20.5652884,18.3264063 18.2357456,22.5235959 C18.0645334,22.8316466 17.8906771,23.1449184 17.7141766,23.464064 C16.0556003,26.4525466 14.1511131,29.8867889 12.2188618,33.3719379 C12.0317844,33.7100104 11.844046,34.0480829 11.6563076,34.3861554 C6.35269757,43.9533461 1.00016976,53.6132131 0.110395473,55.2193839 C0.858704905,56.415038 4.25452253,61.8600937 5.40475081,64.070618 C7.53002893,61.0867039 12.9618828,51.5488824 15.6768182,46.7832349 C15.9498321,46.3041901 16.195743,45.872136 16.4092624,45.4968625 C16.6346807,45.1026621 16.8237412,44.7717688 16.9724776,44.5146248 C17.0789068,44.3286197 17.1661655,44.1798156 17.2269822,44.0760443 C17.4689267,43.6687909 20.2175757,39.0271468 23.2233734,33.4084863 C23.3919413,33.0945618 23.5618314,32.7760688 23.7310604,32.4549652 Z" id="Shape"></path>
                    <path d="M23.7555192,34.36266 C21.0392618,39.4076416 18.5814751,43.5767673 18.0136325,44.532899 C17.8992708,44.7254306 17.6976503,45.0752508 17.4266195,45.5497271 C18.266815,47.4541587 18.9245605,48.8952091 19.2656626,49.5687435 C19.6398174,50.3075428 20.1964221,51.3576561 20.8416076,52.5735423 C23.6001723,57.7771177 26.1326577,62.6556736 27.0045836,65.3543798 C28.0754858,62.9930934 29.0042621,61.5148421 30.0559938,59.8421011 C31.0012963,58.3377437 32.0695543,56.6375915 33.4524725,53.9525909 C31.6841618,50.6025405 30.0751643,47.163077 28.6525831,44.1223824 C27.218103,41.0536239 25.8622879,38.1552069 24.5791884,35.8428693 C24.3689743,35.4643326 24.0900109,34.9637503 23.7555192,34.36266 Z" id="Shape"></path>
                    <path d="M17.1972349,22.521638 C14.7255662,18.0085659 12.4541959,13.7780911 10.7989248,10.5174536 C10.65746,10.2381195 10.5206225,9.9666173 10.3877513,9.70164155 C9.80933186,8.54710438 9.32279852,7.53745542 8.94864381,6.70663246 C8.85874091,6.50626902 8.77412641,6.31569533 8.69744453,6.13621669 C8.57581119,6.74709673 8.43170213,7.46762191 8.27569416,8.2475382 C8.18909651,8.68089755 8.09919361,9.13253108 8.00664651,9.59460701 C7.31518744,13.0608291 6.51267185,17.0909405 6.35005337,18.0092185 C6.34278181,18.5874661 7.7706514,22.6508626 11.7733136,32.2996346 C13.694327,28.8366757 15.5743553,25.4468136 17.1972349,22.521638 Z" id="Shape"></path>
                    <path d="M17.4014996,7.4030096 C17.8080458,7.38212481 18.2231856,7.37102977 18.6350202,7.37102977 C21.1529625,7.37102977 23.2531207,7.75935629 24.6069526,8.09808144 C25.1562857,6.32156918 25.4762343,4.41256905 25.3770767,2.37695489 C23.5942229,0.44772262 22.097604,0.0887653301 19.8288779,0.0887653301 C19.2511195,0.0887653301 18.6251045,0.112260716 17.9620706,0.137061402 C14.6026107,0.262370128 10.7942975,2.49508447 9.06498874,4.55484667 C9.28842388,5.34259475 10.071108,7.03883111 11.1816732,9.25261861 C12.8085191,8.38133137 14.9827149,7.52831832 17.4014996,7.4030096 Z" id="Shape"></path>
                </g>
            </g>
        </g>
    </g>
</svg>