<?xml version="1.0" encoding="UTF-8" standalone="no"?>
<svg width="483px" height="260px" viewBox="0 0 483 260" version="1.1" xmlns="http://www.w3.org/2000/svg" xmlns:xlink="http://www.w3.org/1999/xlink" xmlns:sketch="http://www.bohemiancoding.com/sketch/ns">
    <!-- Generator: Sketch 3.4.2 (15855) - http://www.bohemiancoding.com/sketch -->
    <title>giger_Logo-2</title>
    <desc>Created with Sketch.</desc>
    <defs>
        <radialGradient cx="50.0209765%" cy="49.959606%" fx="50.0209765%" fy="49.959606%" r="63.1823462%" id="radialGradient-1">
            <stop stop-color="#4A96DD" offset="0%"></stop>
            <stop stop-color="#4D9AE1" offset="10%"></stop>
            <stop stop-color="#5FB2F7" offset="60%"></stop>
            <stop stop-color="#66BBFF" offset="100%"></stop>
        </radialGradient>
        <radialGradient cx="49.8568288%" cy="50.039331%" fx="49.8568288%" fy="50.039331%" r="63.1823462%" id="radialGradient-2">
            <stop stop-color="#4A96DD" offset="0%"></stop>
            <stop stop-color="#4D9AE1" offset="10%"></stop>
            <stop stop-color="#5FB2F7" offset="60%"></stop>
            <stop stop-color="#66BBFF" offset="100%"></stop>
        </radialGradient>
        <radialGradient cx="49.9192079%" cy="50.0512503%" fx="49.9192079%" fy="50.0512503%" r="63.5158025%" id="radialGradient-3">
            <stop stop-color="#4A96DD" offset="0%"></stop>
            <stop stop-color="#4D9AE1" offset="10%"></stop>
            <stop stop-color="#5FB2F7" offset="60%"></stop>
            <stop stop-color="#66BBFF" offset="100%"></stop>
        </radialGradient>
        <radialGradient cx="50.084222%" cy="50.1313288%" fx="50.084222%" fy="50.1313288%" r="63.5158025%" id="radialGradient-4">
            <stop stop-color="#4A96DD" offset="0%"></stop>
            <stop stop-color="#4D9AE1" offset="10%"></stop>
            <stop stop-color="#5FB2F7" offset="60%"></stop>
            <stop stop-color="#66BBFF" offset="100%"></stop>
        </radialGradient>
        <radialGradient cx="50.049%" cy="50.0014286%" fx="50.049%" fy="50.0014286%" r="50%" id="radialGradient-5">
            <stop stop-color="#4A96DD" offset="0%"></stop>
            <stop stop-color="#4D9AE1" offset="10%"></stop>
            <stop stop-color="#5FB2F7" offset="60%"></stop>
            <stop stop-color="#66BBFF" offset="100%"></stop>
        </radialGradient>
        <radialGradient cx="50.049%" cy="49.7871429%" fx="50.049%" fy="49.7871429%" r="50%" id="radialGradient-6">
            <stop stop-color="#4A96DD" offset="0%"></stop>
            <stop stop-color="#4D9AE1" offset="10%"></stop>
            <stop stop-color="#5FB2F7" offset="60%"></stop>
            <stop stop-color="#66BBFF" offset="100%"></stop>
        </radialGradient>
        <linearGradient x1="50.1381062%" y1="58.003%" x2="59.8378753%" y2="34.003%" id="linearGradient-7">
            <stop stop-color="#4A96DD" offset="0%"></stop>
            <stop stop-color="#57A7ED" offset="30%"></stop>
            <stop stop-color="#62B6FA" offset="70%"></stop>
            <stop stop-color="#66BBFF" offset="100%"></stop>
        </linearGradient>
        <linearGradient x1="1.29885057%" y1="49.9786%" x2="97.1057471%" y2="50.053%" id="linearGradient-8">
            <stop stop-color="#4A96DD" offset="0%"></stop>
            <stop stop-color="#57A7ED" offset="30%"></stop>
            <stop stop-color="#62B6FA" offset="70%"></stop>
            <stop stop-color="#66BBFF" offset="100%"></stop>
        </linearGradient>
        <linearGradient x1="50.3362587%" y1="42.1106667%" x2="59.8863741%" y2="66.2346667%" id="linearGradient-9">
            <stop stop-color="#4A96DD" offset="0%"></stop>
            <stop stop-color="#57A7ED" offset="30%"></stop>
            <stop stop-color="#62B6FA" offset="70%"></stop>
            <stop stop-color="#66BBFF" offset="100%"></stop>
        </linearGradient>
        <linearGradient x1="49.8547344%" y1="42.0273333%" x2="40.1549654%" y2="66.0273333%" id="linearGradient-10">
            <stop stop-color="#4A96DD" offset="0%"></stop>
            <stop stop-color="#57A7ED" offset="30%"></stop>
            <stop stop-color="#62B6FA" offset="70%"></stop>
            <stop stop-color="#66BBFF" offset="100%"></stop>
        </linearGradient>
        <linearGradient x1="99.1091954%" y1="49.9606%" x2="2.30689655%" y2="49.9862%" id="linearGradient-11">
            <stop stop-color="#4A96DD" offset="0%"></stop>
            <stop stop-color="#57A7ED" offset="30%"></stop>
            <stop stop-color="#62B6FA" offset="70%"></stop>
            <stop stop-color="#66BBFF" offset="100%"></stop>
        </linearGradient>
        <linearGradient x1="49.9600462%" y1="58.139%" x2="40.2099307%" y2="33.8483333%" id="linearGradient-12">
            <stop stop-color="#4A96DD" offset="0%"></stop>
            <stop stop-color="#57A7ED" offset="30%"></stop>
            <stop stop-color="#62B6FA" offset="70%"></stop>
            <stop stop-color="#66BBFF" offset="100%"></stop>
        </linearGradient>
    </defs>
    <g id="Page-1" stroke="none" stroke-width="1" fill="none" fill-rule="evenodd" sketch:type="MSPage">
        <g id="Artboard-1" sketch:type="MSArtboardGroup" transform="translate(-89.000000, -70.000000)">
            <g id="giger_Logo-2" sketch:type="MSLayerGroup" transform="translate(89.000000, 70.000000)">
                <path d="M213.6,108.6 L213.6,165 L200.3,165 L200.3,96.7 L243.3,96.7 L243.3,108.6 L213.6,108.6 L213.6,108.6 Z" id="Shape" fill="#333333" sketch:type="MSShapeGroup"></path>
                <path d="M292.3,165 L292.3,121.1 L265.7,165 L253.8,165 L253.8,96.7 L267.1,96.7 L267.1,140.5 L293.7,96.7 L305.6,96.7 L305.6,165 L292.3,165 L292.3,165 Z" id="Shape" fill="#333333" sketch:type="MSShapeGroup"></path>
                <path d="M335.2,108.6 L335.2,165 L321.9,165 L321.9,96.7 L364.9,96.7 L364.9,108.6 L335.2,108.6 L335.2,108.6 Z" id="Shape" fill="#333333" sketch:type="MSShapeGroup"></path>
                <path d="M375.5,165 L375.5,96.7 L420.5,96.7 L420.5,108.6 L388.8,108.6 L388.8,124.6 L415.8,124.6 L415.8,136.5 L388.8,136.5 L388.8,153.1 L420.5,153.1 L420.5,165 L375.5,165 L375.5,165 Z" id="Shape" fill="#333333" sketch:type="MSShapeGroup"></path>
                <path d="M460,96.7 C473.2,96.7 482.6,105.5 482.6,118 C482.6,130.5 473.3,139.3 460,139.3 L446.9,139.3 L446.9,165 L433.6,165 L433.6,96.7 L460,96.7 L460,96.7 Z M459.4,127.3 C465.4,127.3 469.3,123.7 469.3,118 C469.3,112.3 465.4,108.6 459.4,108.6 L446.9,108.6 L446.9,127.3 L459.4,127.3 L459.4,127.3 Z" id="Shape" fill="#333333" sketch:type="MSShapeGroup"></path>
                <path d="M209,219.7 C208.3,220 207.5,220.2 206.5,220.2 C202.4,220.2 199.9,217.3 199.9,212.6 C199.9,207.9 202.4,205 206.5,205 C207.5,205 208.3,205.1 209,205.5 C209.8,205.9 210.3,206.2 211.3,207.2 L209.8,208.6 C209.1,207.8 208.7,207.5 208.1,207.3 C207.6,207.1 207.1,207 206.5,207 C203.6,207 202.1,208.9 202.1,212.6 C202.1,216.3 203.6,218.2 206.5,218.2 C207.1,218.2 207.6,218.1 208.1,217.9 C208.7,217.6 209.1,217.3 209.8,216.5 L211.3,217.9 C210.3,219 209.8,219.4 209,219.7 L209,219.7 Z" id="Shape" fill="#777777" sketch:type="MSShapeGroup"></path>
                <path d="M224.2,220 L224.2,218.6 C223.5,219.3 223.1,219.6 222.5,219.8 C221.8,220.1 221,220.2 219.9,220.2 C216.5,220.2 214.7,218.7 214.7,215.8 C214.7,213.1 216.6,211.5 219.8,211.5 L224.2,211.5 L224.2,210.1 C224.2,207.9 223,206.9 220.3,206.9 C219.3,206.9 218.6,207 218,207.4 C217.5,207.6 217.2,207.9 216.6,208.6 L215.1,207.2 C215.9,206.3 216.2,206 217,205.6 C217.8,205.2 218.9,205 220.3,205 C224.3,205 226.3,206.6 226.3,209.9 L226.3,220 L224.2,220 L224.2,220 Z M224.2,213.2 L220.1,213.2 C217.9,213.2 216.8,214.1 216.8,215.8 C216.8,217.6 217.9,218.3 220.4,218.3 C223.2,218.3 224.3,217.3 224.3,214.8 L224.3,213.2 L224.2,213.2 L224.2,213.2 Z" id="Shape" fill="#777777" sketch:type="MSShapeGroup"></path>
                <path d="M241.3,220 L241.3,208.6 L233.7,220 L231.6,220 L231.6,205.2 L233.7,205.2 L233.7,216.6 L241.3,205.2 L243.5,205.2 L243.5,220 L241.3,220 L241.3,220 Z M237.5,202.7 C235,202.7 233.3,201.6 233.1,198.9 L235,198.9 C235.1,200.4 236,201.2 237.5,201.2 C239,201.2 239.8,200.5 240,199 L241.9,199 C241.7,201.6 240,202.7 237.5,202.7 L237.5,202.7 Z" id="Shape" fill="#777777" sketch:type="MSShapeGroup"></path>
                <path d="M254.2,207.1 L254.2,220 L252,220 L252,207.1 L246.9,207.1 L246.9,205.2 L259,205.2 L259,207.1 L254.2,207.1 L254.2,207.1 Z" id="Shape" fill="#777777" sketch:type="MSShapeGroup"></path>
                <path d="M260.2,212.9 L260.2,210.9 L268.4,210.9 L268.4,212.9 L260.2,212.9 L260.2,212.9 Z" id="Shape" fill="#777777" sketch:type="MSShapeGroup"></path>
                <path d="M273.4,220 L273.4,205.2 L275.6,205.2 L275.6,212.3 L282.1,205.2 L284.8,205.2 L278.1,212.2 L285.4,220 L282.6,220 L275.6,212.4 L275.6,220 L273.4,220 L273.4,220 Z" id="Shape" fill="#777777" sketch:type="MSShapeGroup"></path>
                <path d="M297.4,218.5 C296.3,219.6 294.9,220.2 293.2,220.2 C291.5,220.2 290.1,219.6 289,218.5 C287.7,217.2 287.2,215.5 287.2,212.6 C287.2,209.8 287.7,208 289,206.7 C290.1,205.6 291.5,205 293.2,205 C294.9,205 296.4,205.6 297.4,206.7 C298.7,208 299.2,209.7 299.2,212.5 C299.2,215.5 298.7,217.2 297.4,218.5 L297.4,218.5 Z M295.8,208.1 C295.1,207.4 294.2,207 293.1,207 C292.1,207 291.1,207.4 290.4,208.1 C289.5,209 289.2,210.3 289.2,212.7 C289.2,215.1 289.5,216.4 290.4,217.3 C291.1,218 292,218.4 293.1,218.4 C294.2,218.4 295.1,218 295.8,217.3 C296.6,216.4 297,215.2 297,212.8 C297,210.2 296.7,208.9 295.8,208.1 L295.8,208.1 Z" id="Shape" fill="#777777" sketch:type="MSShapeGroup"></path>
                <path d="M313.1,220 L313.1,213.3 L306,213.3 L306,220 L303.9,220 L303.9,205.2 L306,205.2 L306,211.4 L313.1,211.4 L313.1,205.2 L315.3,205.2 L315.3,220 L313.1,220 L313.1,220 Z" id="Shape" fill="#777777" sketch:type="MSShapeGroup"></path>
                <path d="M328.9,219.7 C328.2,220 327.4,220.2 326.4,220.2 C322.3,220.2 319.8,217.3 319.8,212.6 C319.8,207.9 322.3,205 326.4,205 C327.4,205 328.2,205.1 328.9,205.5 C329.7,205.9 330.2,206.2 331.2,207.2 L329.7,208.6 C329,207.8 328.6,207.5 328,207.3 C327.5,207.1 327,207 326.3,207 C323.4,207 321.9,208.9 321.9,212.6 C321.9,216.3 323.4,218.2 326.3,218.2 C326.9,218.2 327.4,218.1 327.9,217.9 C328.5,217.6 328.9,217.3 329.6,216.5 L331.1,217.9 C330.2,219 329.7,219.4 328.9,219.7 L328.9,219.7 Z" id="Shape" fill="#777777" sketch:type="MSShapeGroup"></path>
                <path d="M341.3,207.1 L341.3,220 L339.1,220 L339.1,207.1 L334,207.1 L334,205.2 L346.1,205.2 L346.1,207.1 L341.3,207.1 L341.3,207.1 Z" id="Shape" fill="#777777" sketch:type="MSShapeGroup"></path>
                <path d="M355.9,220.2 C355,220.2 354.2,220 353.5,219.7 C352.9,219.4 352.5,219.1 351.8,218.3 L351.8,226.6 L349.6,226.6 L349.6,205.2 L351.8,205.2 L351.8,206.9 C352.5,206.1 352.9,205.8 353.5,205.5 C354.2,205.2 354.9,205 355.9,205 C359.7,205 361.4,207.4 361.4,212.6 C361.4,217.8 359.7,220.2 355.9,220.2 L355.9,220.2 Z M355.5,207 C352.9,207 351.8,208.7 351.8,212.6 C351.8,216.6 352.9,218.2 355.5,218.2 C358.1,218.2 359.2,216.5 359.2,212.6 C359.3,208.6 358.2,207 355.5,207 L355.5,207 Z" id="Shape" fill="#777777" sketch:type="MSShapeGroup"></path>
                <path d="M369.9,223.6 C369.2,225.5 368,226.4 366,226.4 L365.1,226.4 L365.1,224.5 L365.8,224.5 C367.2,224.5 367.7,224.1 368.2,222.7 L369.2,219.8 L363.9,205.3 L366.2,205.3 L370.2,217.1 L374.2,205.3 L376.5,205.3 L369.9,223.6 L369.9,223.6 Z" id="Shape" fill="#777777" sketch:type="MSShapeGroup"></path>
                <path d="M380.2,220 L380.2,205.2 L382.4,205.2 L382.4,212.3 L388.9,205.2 L391.6,205.2 L385,212.2 L392.2,220 L389.4,220 L382.4,212.4 L382.4,220 L380.2,220 L380.2,220 Z" id="Shape" fill="#777777" sketch:type="MSShapeGroup"></path>
                <path d="M401.4,207.1 L401.4,220 L399.2,220 L399.2,207.1 L394.1,207.1 L394.1,205.2 L406.2,205.2 L406.2,207.1 L401.4,207.1 L401.4,207.1 Z" id="Shape" fill="#777777" sketch:type="MSShapeGroup"></path>
                <path d="M419.1,218.5 C418,219.6 416.6,220.2 414.9,220.2 C413.2,220.2 411.8,219.6 410.7,218.5 C409.4,217.2 408.9,215.5 408.9,212.6 C408.9,209.8 409.4,208 410.7,206.7 C411.8,205.6 413.2,205 414.9,205 C416.6,205 418.1,205.6 419.1,206.7 C420.4,208 420.9,209.7 420.9,212.5 C420.9,215.5 420.4,217.2 419.1,218.5 L419.1,218.5 Z M417.5,208.1 C416.8,207.4 415.9,207 414.8,207 C413.8,207 412.8,207.4 412.1,208.1 C411.2,209 410.9,210.3 410.9,212.7 C410.9,215.1 411.2,216.4 412.1,217.3 C412.8,218 413.7,218.4 414.8,218.4 C415.9,218.4 416.8,218 417.5,217.3 C418.3,216.4 418.7,215.2 418.7,212.8 C418.7,210.2 418.4,208.9 417.5,208.1 L417.5,208.1 Z" id="Shape" fill="#777777" sketch:type="MSShapeGroup"></path>
                <path d="M431.7,220.2 C430.8,220.2 430,220 429.3,219.7 C428.7,219.4 428.3,219.1 427.6,218.3 L427.6,226.6 L425.5,226.6 L425.5,205.2 L427.7,205.2 L427.7,206.9 C428.4,206.1 428.8,205.8 429.4,205.5 C430.1,205.2 430.8,205 431.8,205 C435.6,205 437.3,207.4 437.3,212.6 C437.2,217.8 435.5,220.2 431.7,220.2 L431.7,220.2 Z M431.3,207 C428.7,207 427.6,208.7 427.6,212.6 C427.6,216.6 428.7,218.2 431.3,218.2 C433.9,218.2 435,216.5 435,212.6 C435,208.6 434,207 431.3,207 L431.3,207 Z" id="Shape" fill="#777777" sketch:type="MSShapeGroup"></path>
                <path d="M211.6,259.4 L211.6,255 L200.6,255 L200.6,259.4 L198.5,259.4 L198.5,253.1 L200.2,253.1 C201.3,250.6 202.2,248.4 202.2,243 L202.2,240.2 L211.5,240.2 L211.5,253.1 L213.7,253.1 L213.7,259.4 L211.6,259.4 L211.6,259.4 Z M209.3,242.1 L204.3,242.1 L204.3,244.9 C204.3,248.8 203.6,251 202.6,253.1 L209.3,253.1 L209.3,242.1 L209.3,242.1 Z" id="Shape" fill="#777777" sketch:type="MSShapeGroup"></path>
                <path d="M227.5,255 L227.5,242.1 L222.3,242.1 L222.3,247.2 C222.3,253.4 220.3,255 217.6,255 L216.6,255 L216.6,253.1 L217.1,253.1 C218.4,253.1 220.2,252.7 220.2,246.5 L220.2,240.2 L229.6,240.2 L229.6,255 L227.5,255 L227.5,255 Z" id="Shape" fill="#777777" sketch:type="MSShapeGroup"></path>
                <path d="M234,255 L237.4,248.9 C235.3,248.5 234,246.9 234,244.6 C234,242 235.9,240.2 238.6,240.2 L245.3,240.2 L245.3,255 L243.2,255 L243.2,249.2 L239.7,249.2 L236.5,255 L234,255 L234,255 Z M243.3,242 L239.1,242 C237.2,242 236.2,243 236.2,244.7 C236.2,246.4 237.2,247.4 239.1,247.4 L243.3,247.4 L243.3,242 L243.3,242 Z" id="Shape" fill="#777777" sketch:type="MSShapeGroup"></path>
                <path d="M271.1,255 L271.1,245.3 L261,245.3 L261,255 L258.7,255 L258.7,233.6 L261,233.6 L261,243.2 L271.1,243.2 L271.1,233.6 L273.4,233.6 L273.4,255 L271.1,255 L271.1,255 Z" id="Shape" fill="#777777" sketch:type="MSShapeGroup"></path>
                <path d="M279.1,255 L279.1,233.6 L281.4,233.6 L281.4,243.8 L290.5,233.6 L293.4,233.6 L284,243.7 L294.2,255 L291.2,255 L281.4,243.9 L281.4,255 L279.1,255 L279.1,255 Z" id="Shape" fill="#777777" sketch:type="MSShapeGroup"></path>
                <path d="M310.7,244.3 C310.7,248.6 310.6,251 308.7,252.9 C307.3,254.3 305.4,255.1 303.2,255.1 C301,255.1 299.2,254.3 297.7,252.9 C295.7,251 295.7,248.5 295.7,244.3 L295.7,242.7 C295.7,240.2 295.9,237.5 297.7,235.7 C299.1,234.3 301.1,233.5 303.2,233.5 C305.3,233.5 307.2,234.3 308.7,235.7 C310.6,237.6 310.7,240.3 310.7,242.9 L310.7,244.3 L310.7,244.3 Z M308.4,243.2 C308.4,240.7 308.3,238.5 306.9,237.1 C305.9,236.1 304.6,235.6 303.2,235.6 C301.8,235.6 300.5,236.1 299.5,237.1 C298,238.6 298,240.8 298,243.8 L298,245.9 C298,248.2 298.1,250.3 299.5,251.7 C300.5,252.7 301.8,253.2 303.2,253.2 C304.6,253.2 305.9,252.7 306.9,251.7 C308.4,250.2 308.4,247.9 308.4,245.5 L308.4,243.2 L308.4,243.2 Z" id="Shape" fill="#777777" sketch:type="MSShapeGroup"></path>
                <path d="M160,130 C160,190 120,220 80,220 C40,220 0,190 0,130 C0,60 40,0 80,0 C120,0 160,60 160,130 L160,130 Z" id="Shape" fill="#66BBFF" sketch:type="MSShapeGroup"></path>
                <path d="M117.2,118.5 C114.4,113.7 114.9,108.3 118.3,106.3 C121.7,104.3 126.6,106.7 129.4,111.5 C132.2,116.3 131.7,121.7 128.3,123.7 C124.9,125.7 120,123.3 117.2,118.5 L117.2,118.5 Z" id="Shape" fill="url(#radialGradient-1)" sketch:type="MSShapeGroup"></path>
                <path d="M30.6,168.5 C27.8,163.7 28.3,158.3 31.7,156.3 C35.1,154.3 40,156.7 42.8,161.5 C45.6,166.3 45.1,171.7 41.7,173.7 C38.3,175.7 33.4,173.3 30.6,168.5 L30.6,168.5 Z" id="Shape" fill="url(#radialGradient-2)" sketch:type="MSShapeGroup"></path>
                <path d="M42.8,118.5 C40,123.3 35.1,125.6 31.7,123.7 C28.3,121.8 27.9,116.3 30.6,111.5 C33.4,106.7 38.3,104.4 41.7,106.3 C45.1,108.2 45.5,113.7 42.8,118.5 L42.8,118.5 Z" id="Shape" fill="url(#radialGradient-3)" sketch:type="MSShapeGroup"></path>
                <path d="M129.4,168.5 C126.6,173.3 121.7,175.6 118.3,173.7 C114.9,171.8 114.5,166.3 117.2,161.5 C120,156.7 124.9,154.4 128.3,156.3 C131.7,158.2 132.1,163.7 129.4,168.5 L129.4,168.5 Z" id="Shape" fill="url(#radialGradient-4)" sketch:type="MSShapeGroup"></path>
                <ellipse id="Oval" fill="url(#radialGradient-5)" sketch:type="MSShapeGroup" cx="80" cy="190" rx="10" ry="7"></ellipse>
                <ellipse id="Oval" fill="url(#radialGradient-6)" sketch:type="MSShapeGroup" cx="80" cy="90" rx="10" ry="7"></ellipse>
                <path d="M123.3,105 L88.7,85 L80,90 L123.3,115 L123.3,105 Z" id="Shape" fill="url(#linearGradient-7)" sketch:type="MSShapeGroup"></path>
                <path d="M132,160 L132,120 L123.3,115 L123.3,165 L132,160 Z" id="Shape" fill="url(#linearGradient-8)" sketch:type="MSShapeGroup"></path>
                <path d="M88.7,195 L123.3,175 L123.3,165 L80,190 L88.7,195 Z" id="Shape" fill="url(#linearGradient-9)" sketch:type="MSShapeGroup"></path>
                <path d="M36.7,175 L71.3,195 L80,190 L36.7,165 L36.7,175 Z" id="Shape" fill="url(#linearGradient-10)" sketch:type="MSShapeGroup"></path>
                <path d="M28,120 L28,160 L36.7,165 L36.7,115 L28,120 Z" id="Shape" fill="url(#linearGradient-11)" sketch:type="MSShapeGroup"></path>
                <path d="M71.3,85 L36.7,105 L36.7,115 L80,90 L71.3,85 Z" id="Shape" fill="url(#linearGradient-12)" sketch:type="MSShapeGroup"></path>
                <path d="M80,208 L80,198 C95.5,198 110.1,192 121,181 L128.1,188.1 C115.2,200.9 98.2,208 80,208 L80,208 Z" id="Shape" fill="#CBE8FF" sketch:type="MSShapeGroup"></path>
                <path d="M48.3,108.3 L23.4,83.4 C38.5,68.3 58.6,60 80,60 L80,90" id="Shape" fill="#2E71BC" sketch:type="MSShapeGroup"></path>
                <path d="M36.7,115 L80,90 L123.3,115 L123.3,165 L80,190 L36.7,165 L36.7,115 Z" id="Shape" fill="#FFFFFF" sketch:type="MSShapeGroup"></path>
                <ellipse id="Oval" fill="#333333" sketch:type="MSShapeGroup" cx="80" cy="140" rx="10" ry="25"></ellipse>
            </g>
        </g>
    </g>
</svg>