<?xml version="1.0" encoding="UTF-8" standalone="no"?>
<svg width="486px" height="810px" viewBox="0 0 486 810" version="1.1" xmlns="http://www.w3.org/2000/svg" xmlns:xlink="http://www.w3.org/1999/xlink">
    <!-- Generator: Sketch 41.2 (35397) - http://www.bohemiancoding.com/sketch -->
    <title>Group 2</title>
    <desc>Created with Sketch.</desc>
    <defs>
        <polygon id="path-1" points="0.782194512 810 530.6797 810 530.6797 0.388426704 0.782194512 0.388426704 0.782194512 810"></polygon>
    </defs>
    <g id="Page-1" stroke="none" stroke-width="1" fill="none" fill-rule="evenodd">
        <g id="Artboard" transform="translate(-189.000000, -65.000000)">
            <g id="Group-2" transform="translate(133.000000, 65.000000)">
                <g id="Fill-4" transform="translate(56.000000, 0.000000)">
                    <mask id="mask-2" fill="white">
                        <use xlink:href="#path-1"></use>
                    </mask>
                    <g id="Mask"></g>
                    <path d="M292.0677,1144.2409 L530.6797,1144.2409 C530.6797,1144.2409 430.9467,875.9209 420.2167,835.3379 C409.4857,794.7539 397.1037,740.1809 389.9717,698.6299 C380.0467,640.8059 388.3647,634.6389 391.5477,627.2719 C394.7317,619.9049 409.1497,576.8269 411.2707,558.1609 C413.3917,539.4939 409.9537,477.0429 414.7597,462.6839 C419.5657,448.3239 421.6217,395.0089 422.7457,385.9359 C423.8687,376.8619 435.0407,347.7689 436.7257,334.1589 C438.4107,320.5489 442.7147,276.5979 451.0787,256.4319 C459.4427,236.2669 474.0887,205.3759 476.8287,197.3729 C483.6537,177.4419 489.8397,149.7359 481.4107,135.2529 C472.9817,120.7699 465.7187,120.3119 459.9967,121.6859 C454.2737,123.0599 437.5847,131.4689 428.5337,155.6509 C419.4837,179.8329 403.2657,233.2469 394.2407,248.6189 C385.2157,263.9909 369.5487,301.8669 366.3857,307.0279 C363.2227,312.1889 353.7347,327.6719 346.5747,316.1859 C339.4157,304.6989 337.3327,277.6879 337.9127,243.4339 C338.4927,209.1809 335.2337,163.5179 335.0497,151.2949 C334.8667,139.0719 330.3267,97.2439 328.8897,84.3829 C327.4527,71.5229 323.0577,49.2319 310.2817,34.3779 C300.8677,23.4329 292.3117,23.2859 288.5767,24.1829 C283.3737,25.4319 271.1797,34.2279 271.0557,47.4639 C270.9367,60.2089 269.5617,96.2429 269.4927,103.5949 C269.4587,107.1839 273.6447,163.6739 273.5217,176.9089 C273.3977,190.1439 276.5837,270.5119 277.2327,274.8759 C279.0237,286.9179 266.8427,294.2439 264.3517,283.1039 C259.0867,259.5559 253.6717,217.9899 252.5477,213.3079 C251.4237,208.6249 248.4227,154.8729 246.9237,148.6299 C245.4247,142.3869 240.1147,85.8879 239.8017,77.7099 C239.4887,69.5319 240.9227,41.1259 235.6147,25.8929 C230.3067,10.6609 214.1067,-3.4241 194.3187,1.3259 C174.5317,6.0769 178.4917,28.6029 178.8667,43.9189 C179.2427,59.2349 177.6217,93.7379 176.8737,104.3719 C176.1257,115.0059 184.9117,174.5229 185.9107,178.6849 C186.9097,182.8469 193.8437,232.3529 193.5737,247.2739 C193.3047,262.1949 199.5917,288.3809 191.7877,290.2539 C183.9837,292.1279 178.4467,269.0629 172.0147,249.1489 C165.5837,229.2339 146.5437,170.5009 144.8847,161.0149 C142.3077,146.2879 123.5307,74.0679 123.5307,74.0679 C114.6977,56.3899 112.1927,54.9739 101.9537,53.5809 C91.7147,52.1869 83.7447,57.9519 80.0617,63.2379 C76.3787,68.5239 75.7767,77.4719 75.1937,84.2149 C74.6117,90.9579 78.7987,142.7739 80.7967,151.0979 C82.7957,159.4219 95.9177,215.6969 98.6657,227.1419 C101.4127,238.5869 124.9887,309.9589 128.7357,325.5669 C132.4827,341.1739 140.4767,374.4689 140.4767,374.4689 C140.4767,374.4689 155.7477,420.4889 145.0107,421.8009 C126.3427,424.0819 110.0327,396.6339 105.0587,387.3739 C100.0837,378.1139 73.5917,326.6829 70.0507,319.4799 C63.5987,306.3569 56.7297,282.3279 41.7457,274.9209 C26.7617,267.5139 17.6887,266.3909 10.1137,271.5109 C2.5397,276.6309 -2.1793,284.3729 2.8957,307.9079 C6.3177,323.7769 16.0297,346.5719 18.1947,351.0049 C19.8377,354.3699 32.8477,393.7059 42.7967,412.2259 C52.7447,430.7459 65.1507,464.0829 67.5237,473.9679 C69.8967,483.8519 82.8017,519.2699 86.5057,525.5339 C90.2107,531.7969 127.8397,587.6909 132.5847,593.7039 C137.3297,599.7179 176.0397,637.1939 186.6537,653.9039 C197.2687,670.6139 229.7557,788.4119 245.0527,865.8819 C260.6017,944.6309 292.0677,1144.2409 292.0677,1144.2409" fill="#FFFFFF" mask="url(#mask-2)"></path>
                </g>
                <text id="Право-на-здоровье" transform="translate(319.486657, 447.471833) rotate(-9.000000) translate(-319.486657, -447.471833) " font-family="Zhizn" font-size="60" font-weight="normal" line-spacing="78" letter-spacing="-4.71999979" fill="#D02139">
                    <tspan x="242.116656" y="375.471833">Право </tspan>
                    <tspan x="289.436657" y="453.471833">на</tspan>
                    <tspan x="189.036656" y="531.471833">здоровь</tspan>
                    <tspan x="413.936658" y="531.471833">е</tspan>
                </text>
            </g>
        </g>
    </g>
</svg>