<?xml version="1.0" encoding="UTF-8" standalone="no"?>
<svg width="253px" height="90px" viewBox="0 0 253 90" version="1.1" xmlns="http://www.w3.org/2000/svg" xmlns:xlink="http://www.w3.org/1999/xlink">
    <!-- Generator: Sketch 41.2 (35397) - http://www.bohemiancoding.com/sketch -->
    <title>Group 4</title>
    <desc>Created with Sketch.</desc>
    <defs></defs>
    <g id="Page-1" stroke="none" stroke-width="1" fill="none" fill-rule="evenodd">
        <g id="Artboard" transform="translate(-956.000000, -741.000000)">
            <g id="Group-4" transform="translate(956.000000, 741.000000)">
                <path d="M2.256,0.536 L7.05,0.536 L7.05,14.871 L12.972,14.871 L12.972,0.536 L17.766,0.536 L17.766,34 L12.972,34 L12.972,19.101 L7.05,19.101 L7.05,34 L2.256,34 L2.256,0.536 Z M29.4725,10.171 L29.3785,10.171 L27.0285,22.297 L31.8225,22.297 L29.4725,10.171 Z M27.4515,0.536 L31.4465,0.536 L38.9195,34 L34.1255,34 L32.7155,26.809 L26.1825,26.809 L24.7725,34 L19.9785,34 L27.4515,0.536 Z M40.944,0.536 L45.55,0.536 L52.788,20.699 L52.882,20.699 L52.882,0.536 L57.676,0.536 L57.676,34 L53.164,34 L45.832,13.884 L45.738,13.884 L45.738,34 L40.944,34 L40.944,0.536 Z M61.8625,0.536 L68.9595,0.536 C71.6855136,0.536 73.7691595,1.29582574 75.2105,2.8155 C76.6518405,4.33517427 77.3725,6.45798637 77.3725,9.184 L77.3725,24.835 C77.3725,27.968349 76.6126743,30.2791592 75.093,31.7675 C73.5733257,33.2558408 71.3878476,34 68.5365,34 L61.8625,34 L61.8625,0.536 Z M66.6565,29.488 L68.8655,29.488 C70.2128401,29.488 71.1684972,29.15117 71.7325,28.4775 C72.2965028,27.80383 72.5785,26.7463405 72.5785,25.305 L72.5785,9.184 C72.5785,7.86799342 72.3121693,6.84967027 71.7795,6.129 C71.2468307,5.40832973 70.275507,5.048 68.8655,5.048 L66.6565,5.048 L66.6565,29.488 Z M97.257,10.171 L92.463,10.171 L92.463,9.09 C92.463,7.99332785 92.2045026,7.045504 91.6875,6.2465 C91.1704974,5.44749601 90.3010061,5.048 89.079,5.048 C88.4209967,5.048 87.8805021,5.17333208 87.4575,5.424 C87.0344979,5.67466792 86.7055012,5.99583138 86.4705,6.3875 C86.2354988,6.77916863 86.0710005,7.23349742 85.977,7.7505 C85.8829995,8.26750259 85.836,8.80799718 85.836,9.372 C85.836,10.0300033 85.8594998,10.5861644 85.9065,11.0405 C85.9535002,11.4948356 86.070999,11.8864984 86.259,12.2155 C86.4470009,12.5445016 86.7211649,12.8343321 87.0815,13.085 C87.4418351,13.3356679 87.9353302,13.5863321 88.562,13.837 L92.228,15.294 C93.2933386,15.7013354 94.1549967,16.1791639 94.813,16.7275 C95.4710033,17.2758361 95.9801649,17.918163 96.3405,18.6545 C96.7008351,19.390837 96.943666,20.2368286 97.069,21.1925 C97.1943339,22.1481714 97.257,23.2369939 97.257,24.459 C97.257,25.8690071 97.1160014,27.1771606 96.834,28.3835 C96.5519986,29.5898394 96.0898365,30.623829 95.4475,31.4855 C94.8051634,32.347171 93.9513386,33.0286642 92.886,33.53 C91.8206613,34.0313358 90.520341,34.282 88.985,34.282 C87.8256609,34.282 86.7446717,34.0783354 85.742,33.671 C84.7393283,33.2636646 83.8776703,32.7075035 83.157,32.0025 C82.4363297,31.2974965 81.8645021,30.4593382 81.4415,29.488 C81.0184979,28.5166618 80.807,27.4670056 80.807,26.339 L80.807,24.553 L85.601,24.553 L85.601,26.057 C85.601,26.9343377 85.8594974,27.7254965 86.3765,28.4305 C86.8935026,29.1355035 87.7629939,29.488 88.985,29.488 C89.7996707,29.488 90.4341644,29.3705012 90.8885,29.1355 C91.3428356,28.9004988 91.6874988,28.5715021 91.9225,28.1485 C92.1575012,27.7254979 92.306333,27.2006698 92.369,26.574 C92.431667,25.9473302 92.463,25.2580038 92.463,24.506 C92.463,23.6286623 92.431667,22.9080028 92.369,22.344 C92.306333,21.7799972 92.1731677,21.3256684 91.9695,20.981 C91.7658323,20.6363316 91.4838351,20.3543344 91.1235,20.135 C90.7631649,19.9156656 90.2853363,19.6806679 89.69,19.43 L86.259,18.02 C84.1909896,17.1739958 82.8045035,16.0538403 82.0995,14.6595 C81.3944965,13.2651597 81.042,11.5183438 81.042,9.419 C81.042,8.1656604 81.2143316,6.97500564 81.559,5.847 C81.9036684,4.71899436 82.41283,3.74767074 83.0865,2.933 C83.76017,2.11832926 84.6139948,1.4681691 85.648,0.9825 C86.6820052,0.496830905 87.8883264,0.254 89.267,0.254 C90.4576726,0.254 91.5464951,0.47333114 92.5335,0.912 C93.5205049,1.35066886 94.3664965,1.93032973 95.0715,2.651 C95.7765035,3.37167027 96.3169981,4.17849554 96.693,5.0715 C97.0690019,5.96450447 97.257,6.8809953 97.257,7.821 L97.257,10.171 Z M124.806,26.48 C124.806,27.5766722 124.602335,28.5949953 124.195,29.535 C123.787665,30.4750047 123.231504,31.2974965 122.5265,32.0025 C121.821496,32.7075035 120.999005,33.2636646 120.059,33.671 C119.118995,34.0783354 118.116339,34.282 117.051,34.282 C115.985661,34.282 114.983005,34.0783354 114.043,33.671 C113.102995,33.2636646 112.280504,32.7075035 111.5755,32.0025 C110.870496,31.2974965 110.314335,30.4750047 109.907,29.535 C109.499665,28.5949953 109.296,27.5766722 109.296,26.48 L109.296,0.536 L114.09,0.536 L114.09,26.01 C114.09,27.2006726 114.371997,28.0779972 114.936,28.642 C115.500003,29.2060028 116.204996,29.488 117.051,29.488 C117.897004,29.488 118.601997,29.2060028 119.166,28.642 C119.730003,28.0779972 120.012,27.2006726 120.012,26.01 L120.012,0.536 L124.806,0.536 L124.806,26.48 Z M129.1805,0.536 L136.3715,0.536 C137.687507,0.536 138.846828,0.70833161 139.8495,1.053 C140.852172,1.39766839 141.760829,2.00866228 142.5755,2.886 C143.390171,3.76333772 143.954165,4.78949413 144.2675,5.9645 C144.580835,7.13950588 144.7375,8.72965664 144.7375,10.735 C144.7375,12.207674 144.651334,13.4688281 144.479,14.5185 C144.306666,15.5681719 143.938503,16.5473288 143.3745,17.456 C142.716497,18.5526722 141.839172,19.4064969 140.7425,20.0175 C139.645828,20.6285031 138.204509,20.934 136.4185,20.934 L133.9745,20.934 L133.9745,34 L129.1805,34 L129.1805,0.536 Z M133.9745,16.422 L136.2775,16.422 C137.248838,16.422 138.000831,16.2810014 138.5335,15.999 C139.066169,15.7169986 139.457832,15.3331691 139.7085,14.8475 C139.959168,14.3618309 140.108,13.7743368 140.155,13.085 C140.202,12.3956632 140.2255,11.6280042 140.2255,10.782 C140.2255,9.99866275 140.202,9.25450353 140.155,8.5495 C140.108,7.84449648 139.967001,7.23350259 139.732,6.7165 C139.496999,6.19949742 139.128836,5.79216816 138.6275,5.4945 C138.126164,5.19683185 137.405505,5.048 136.4655,5.048 L133.9745,5.048 L133.9745,16.422 Z M156.7765,0.536 L171.0645,0.536 L171.0645,5.048 L161.5705,5.048 L161.5705,15.2 L169.8425,15.2 L169.8425,19.712 L161.5705,19.712 L161.5705,34 L156.7765,34 L156.7765,0.536 Z M173.747,8.432 C173.747,7.08465993 173.981998,5.89400517 174.452,4.86 C174.922002,3.82599483 175.540829,2.97217004 176.3085,2.2985 C177.07617,1.62482997 177.937829,1.11566839 178.8935,0.771 C179.849171,0.42633161 180.812662,0.254 181.784,0.254 C182.755338,0.254 183.718829,0.42633161 184.6745,0.771 C185.630171,1.11566839 186.491829,1.62482997 187.2595,2.2985 C188.02717,2.97217004 188.645998,3.82599483 189.116,4.86 C189.586002,5.89400517 189.821,7.08465993 189.821,8.432 L189.821,26.104 C189.821,27.4826736 189.586002,28.6811616 189.116,29.6995 C188.645998,30.7178384 188.02717,31.56383 187.2595,32.2375 C186.491829,32.91117 185.630171,33.4203316 184.6745,33.765 C183.718829,34.1096684 182.755338,34.282 181.784,34.282 C180.812662,34.282 179.849171,34.1096684 178.8935,33.765 C177.937829,33.4203316 177.07617,32.91117 176.3085,32.2375 C175.540829,31.56383 174.922002,30.7178384 174.452,29.6995 C173.981998,28.6811616 173.747,27.4826736 173.747,26.104 L173.747,8.432 Z M178.541,26.104 C178.541,27.2633391 178.862163,28.1171639 179.5045,28.6655 C180.146837,29.2138361 180.906662,29.488 181.784,29.488 C182.661338,29.488 183.421163,29.2138361 184.0635,28.6655 C184.705837,28.1171639 185.027,27.2633391 185.027,26.104 L185.027,8.432 C185.027,7.27266087 184.705837,6.41883608 184.0635,5.8705 C183.421163,5.32216393 182.661338,5.048 181.784,5.048 C180.906662,5.048 180.146837,5.32216393 179.5045,5.8705 C178.862163,6.41883608 178.541,7.27266087 178.541,8.432 L178.541,26.104 Z M198.7075,15.482 L201.4335,15.482 C202.279504,15.482 202.953164,15.3645012 203.4545,15.1295 C203.955836,14.8944988 204.339665,14.5576689 204.606,14.119 C204.872335,13.6803311 205.052499,13.1398365 205.1465,12.4975 C205.2405,11.8551635 205.2875,11.1110042 205.2875,10.265 C205.2875,9.41899577 205.2405,8.67483655 205.1465,8.0325 C205.052499,7.39016346 204.856668,6.84183561 204.559,6.3875 C204.261332,5.9331644 203.846169,5.59633443 203.3135,5.377 C202.780831,5.15766557 202.075838,5.048 201.1985,5.048 L198.7075,5.048 L198.7075,15.482 Z M193.9135,0.536 L201.6215,0.536 C207.261528,0.536 210.0815,3.81030059 210.0815,10.359 C210.0815,12.3016764 209.776003,13.9701597 209.165,15.3645 C208.553997,16.7588403 207.480841,17.8789958 205.9455,18.725 L211.1155,34 L206.0395,34 L201.5745,19.712 L198.7075,19.712 L198.7075,34 L193.9135,34 L193.9135,0.536 Z" id="HANDS-UP-FOR" fill="#FFFFFF"></path>
                <path d="M9.823,78.895 L5.875,78.895 L4.512,89 L1.316,89 L2.679,78.895 L0.282,78.895 L0.282,76.075 L3.055,76.075 L4.089,68.461 L1.739,68.461 L1.739,65.641 L4.465,65.641 L5.828,55.536 L9.024,55.536 L7.661,65.641 L11.609,65.641 L12.972,55.536 L16.168,55.536 L14.805,65.641 L17.202,65.641 L17.202,68.461 L14.429,68.461 L13.395,76.075 L15.745,76.075 L15.745,78.895 L13.019,78.895 L11.656,89 L8.46,89 L9.823,78.895 Z M11.233,68.461 L7.285,68.461 L6.251,76.075 L10.199,76.075 L11.233,68.461 Z M20.4183,55.536 L25.2123,55.536 L25.2123,69.871 L31.1343,69.871 L31.1343,55.536 L35.9283,55.536 L35.9283,89 L31.1343,89 L31.1343,74.101 L25.2123,74.101 L25.2123,89 L20.4183,89 L20.4183,55.536 Z M41.2596,55.536 L46.0536,55.536 L46.0536,89 L41.2596,89 L41.2596,55.536 Z M60.7849001,89 L56.5549001,89 L49.7399001,55.536 L54.8159001,55.536 L58.6229001,78.895 L58.7169001,78.895 L62.5709001,55.536 L67.6469001,55.536 L60.7849001,89 Z M71.1922001,55.536 L78.3832001,55.536 C79.6992067,55.536 80.8585284,55.7083316 81.8612001,56.053 C82.8638718,56.3976684 83.7725294,57.0086623 84.5872001,57.886 C85.4018708,58.7633377 85.9658652,59.7894941 86.2792001,60.9645 C86.592535,62.1395059 86.7492001,63.7296566 86.7492001,65.735 C86.7492001,67.207674 86.6630343,68.4688281 86.4907001,69.5185 C86.3183659,70.5681719 85.9502029,71.5473288 85.3862001,72.456 C84.7281968,73.5526722 83.8508722,74.4064969 82.7542001,75.0175 C81.6575279,75.6285031 80.216209,75.934 78.4302001,75.934 L75.9862001,75.934 L75.9862001,89 L71.1922001,89 L71.1922001,55.536 Z M75.9862001,71.422 L78.2892001,71.422 C79.2605383,71.422 80.0125308,71.2810014 80.5452001,70.999 C81.0778694,70.7169986 81.4695322,70.3331691 81.7202001,69.8475 C81.970868,69.3618309 82.1196999,68.7743368 82.1667001,68.085 C82.2137003,67.3956632 82.2372001,66.6280042 82.2372001,65.782 C82.2372001,64.9986628 82.2137003,64.2545035 82.1667001,63.5495 C82.1196999,62.8444965 81.9787013,62.2335026 81.7437001,61.7165 C81.5086989,61.1994974 81.1405359,60.7921682 80.6392001,60.4945 C80.1378643,60.1968318 79.4172048,60.048 78.4772001,60.048 L75.9862001,60.048 L75.9862001,71.422 Z M95.7935001,70.482 L98.5195001,70.482 C99.3655043,70.482 100.039164,70.3645012 100.5405,70.1295 C101.041836,69.8944988 101.425665,69.5576689 101.692,69.119 C101.958335,68.6803311 102.1385,68.1398365 102.2325,67.4975 C102.326501,66.8551635 102.3735,66.1110042 102.3735,65.265 C102.3735,64.4189958 102.326501,63.6748365 102.2325,63.0325 C102.1385,62.3901635 101.942668,61.8418356 101.645,61.3875 C101.347332,60.9331644 100.932169,60.5963344 100.3995,60.377 C99.8668308,60.1576656 99.1618378,60.048 98.2845001,60.048 L95.7935001,60.048 L95.7935001,70.482 Z M90.9995001,55.536 L98.7075001,55.536 C104.347528,55.536 107.1675,58.8103006 107.1675,65.359 C107.1675,67.3016764 106.862003,68.9701597 106.251,70.3645 C105.639997,71.7588403 104.566841,72.8789958 103.0315,73.725 L108.2015,89 L103.1255,89 L98.6605001,74.712 L95.7935001,74.712 L95.7935001,89 L90.9995001,89 L90.9995001,55.536 Z M111.6998,55.536 L125.9878,55.536 L125.9878,60.048 L116.4938,60.048 L116.4938,69.871 L124.7658,69.871 L124.7658,74.383 L116.4938,74.383 L116.4938,84.206 L125.9878,84.206 L125.9878,89 L111.6998,89 L111.6998,55.536 Z M139.1681,89 L134.9381,89 L128.1231,55.536 L133.1991,55.536 L137.0061,78.895 L137.1001,78.895 L140.9541,55.536 L146.0301,55.536 L139.1681,89 Z M149.5754,55.536 L163.8634,55.536 L163.8634,60.048 L154.3694,60.048 L154.3694,69.871 L162.6414,69.871 L162.6414,74.383 L154.3694,74.383 L154.3694,84.206 L163.8634,84.206 L163.8634,89 L149.5754,89 L149.5754,55.536 Z M167.4557,55.536 L172.0617,55.536 L179.2997,75.699 L179.3937,75.699 L179.3937,55.536 L184.1877,55.536 L184.1877,89 L179.6757,89 L172.3437,68.884 L172.2497,68.884 L172.2497,89 L167.4557,89 L167.4557,55.536 Z M192.339,60.048 L186.793,60.048 L186.793,55.536 L202.679,55.536 L202.679,60.048 L197.133,60.048 L197.133,89 L192.339,89 L192.339,60.048 Z M205.6133,55.536 L210.4073,55.536 L210.4073,89 L205.6133,89 L205.6133,55.536 Z M215.4566,63.432 C215.4566,62.0846599 215.691598,60.8940052 216.1616,59.86 C216.631603,58.8259948 217.25043,57.97217 218.0181,57.2985 C218.785771,56.62483 219.647429,56.1156684 220.6031,55.771 C221.558772,55.4263316 222.522262,55.254 223.4936,55.254 C224.464938,55.254 225.428429,55.4263316 226.3841,55.771 C227.339772,56.1156684 228.20143,56.62483 228.9691,57.2985 C229.736771,57.97217 230.355598,58.8259948 230.8256,59.86 C231.295603,60.8940052 231.5306,62.0846599 231.5306,63.432 L231.5306,81.104 C231.5306,82.4826736 231.295603,83.6811616 230.8256,84.6995 C230.355598,85.7178384 229.736771,86.56383 228.9691,87.2375 C228.20143,87.91117 227.339772,88.4203316 226.3841,88.765 C225.428429,89.1096684 224.464938,89.282 223.4936,89.282 C222.522262,89.282 221.558772,89.1096684 220.6031,88.765 C219.647429,88.4203316 218.785771,87.91117 218.0181,87.2375 C217.25043,86.56383 216.631603,85.7178384 216.1616,84.6995 C215.691598,83.6811616 215.4566,82.4826736 215.4566,81.104 L215.4566,63.432 Z M220.2506,81.104 C220.2506,82.2633391 220.571764,83.1171639 221.2141,83.6655 C221.856437,84.2138361 222.616263,84.488 223.4936,84.488 C224.370938,84.488 225.130764,84.2138361 225.7731,83.6655 C226.415437,83.1171639 226.7366,82.2633391 226.7366,81.104 L226.7366,63.432 C226.7366,62.2726609 226.415437,61.4188361 225.7731,60.8705 C225.130764,60.3221639 224.370938,60.048 223.4936,60.048 C222.616263,60.048 221.856437,60.3221639 221.2141,60.8705 C220.571764,61.4188361 220.2506,62.2726609 220.2506,63.432 L220.2506,81.104 Z M236.2509,55.536 L240.8569,55.536 L248.0949,75.699 L248.1889,75.699 L248.1889,55.536 L252.9829,55.536 L252.9829,89 L248.4709,89 L241.1389,68.884 L241.0449,68.884 L241.0449,89 L236.2509,89 L236.2509,55.536 Z" id="#HIVPREVENTION" fill="#D12138"></path>
            </g>
        </g>
    </g>
</svg>