<?xml version="1.0" encoding="UTF-8" standalone="no"?>
<svg width="160px" height="194px" viewBox="0 0 160 194" version="1.1" xmlns="http://www.w3.org/2000/svg" xmlns:xlink="http://www.w3.org/1999/xlink">
    <!-- Generator: Sketch 41.2 (35397) - http://www.bohemiancoding.com/sketch -->
    <title>Group 6</title>
    <desc>Created with Sketch.</desc>
    <defs></defs>
    <g id="Page-1" stroke="none" stroke-width="1" fill="none" fill-rule="evenodd">
        <g id="Artboard" transform="translate(-1052.000000, 0.000000)">
            <g id="Group-6" transform="translate(1052.000000, 0.000000)">
                <polygon id="Fill-2" fill="#D12138" points="0 193.256 159.93 193.256 159.93 0 0 0"></polygon>
                <text id="-" font-family="LucidaGrande, Lucida Grande" font-size="41.5724" font-weight="normal"></text>
                <path d="M34.4799999,132 L27.1359999,98.4 L22.9119999,98.4 L15.5679999,132 L20.3679999,132 L21.9519999,124.8 L28.0959999,124.8 L29.6799999,132 L34.4799999,132 Z M27.5199999,120.528 L22.4319999,120.528 L24.9279999,107.76 L27.5199999,120.528 Z M36.4399999,98.4 L36.4399999,132 L41.2399999,132 L41.2399999,98.4 L36.4399999,98.4 Z M45.6,98.4 L45.6,132 L52.752,132 C54.624,132 57.408,131.664 59.52,129.36 C61.44,127.248 61.68,124.8 61.68,122.496 L61.68,107.664 C61.68,106.224 61.536,102.672 59.088,100.416 C56.976,98.496 54.096,98.4 52.08,98.4 L45.6,98.4 Z M50.4,103.104 L52.848,103.104 C54.048,103.104 55.056,103.104 55.968,104.208 C56.736,105.168 56.88,106.368 56.88,107.328 L56.88,122.208 C56.88,123.312 56.784,125.04 55.776,126.144 C54.816,127.152 53.568,127.296 52.56,127.296 L50.4,127.296 L50.4,103.104 Z M76.936,107.712 L81.736,107.712 L81.736,106.608 C81.736,101.04 78.52,97.92 73.72,97.92 C71.512,97.92 69.496,98.448 67.912,99.984 C66.52,101.328 65.416,103.44 65.416,106.224 L65.416,107.184 C65.416,108.864 65.464,110.544 66.136,112.08 C67.096,114.336 68.824,115.2 70.552,115.824 L74.056,117.072 C74.584,117.264 75.736,117.696 76.36,118.56 C76.984,119.424 77.128,120.864 77.128,122.016 L77.128,123.264 C77.128,124.272 77.08,125.664 76.36,126.576 C75.976,127.056 75.16,127.776 73.336,127.776 C72.712,127.776 71.512,127.68 70.696,126.672 C70.024,125.808 69.928,124.464 69.928,123.696 L69.928,122.784 L65.128,122.784 L65.128,123.888 C65.128,124.32 65.128,127.488 66.664,129.552 C67.768,131.088 69.976,132.48 73.384,132.48 C76.168,132.48 78.376,131.568 79.624,130.272 C81.016,128.832 81.928,126.24 81.928,122.832 L81.928,121.68 C81.928,119.568 81.784,117.648 80.488,115.872 C79.24,114.144 77.56,113.52 76.12,112.992 L73.192,111.936 C72.472,111.648 71.512,111.264 70.984,110.448 C70.36,109.536 70.216,107.856 70.216,106.944 C70.216,105.84 70.312,104.496 71.224,103.536 C71.992,102.768 72.904,102.624 73.576,102.624 C74.968,102.624 75.688,103.2 76.12,103.728 C76.888,104.688 76.936,106.08 76.936,106.8 L76.936,107.712 Z M95.352,98.4 L95.352,132 L102.504,132 C104.376,132 107.16,131.664 109.272,129.36 C111.192,127.248 111.432,124.8 111.432,122.496 L111.432,107.664 C111.432,106.224 111.288,102.672 108.84,100.416 C106.728,98.496 103.848,98.4 101.832,98.4 L95.352,98.4 Z M100.152,103.104 L102.6,103.104 C103.8,103.104 104.808,103.104 105.72,104.208 C106.488,105.168 106.632,106.368 106.632,107.328 L106.632,122.208 C106.632,123.312 106.536,125.04 105.528,126.144 C104.568,127.152 103.32,127.296 102.312,127.296 L100.152,127.296 L100.152,103.104 Z M130.768,132 L123.424,98.4 L119.2,98.4 L111.856,132 L116.656,132 L118.24,124.8 L124.384,124.8 L125.968,132 L130.768,132 Z M123.808,120.528 L118.72,120.528 L121.216,107.76 L123.808,120.528 Z M145.832,98.4 L140.744,98.4 L136.664,111.744 L136.376,111.744 L132.2,98.4 L126.92,98.4 L133.976,117.696 L133.976,132 L138.776,132 L138.776,117.84 L145.832,98.4 Z" id="AIDS-DAY" fill="#FFFFFF"></path>
                <path d="M22.221861,159.445135 L20.1016686,161.0041 L20.1016686,158.759191 L22.221861,157.200226 L24.3420534,157.200226 L24.3420534,172 L22.221861,172 L22.221861,159.445135 Z M31.7938716,157.200226 L34.9325878,157.200226 C36.1381934,157.200226 37.0597057,157.536266 37.6971524,158.208356 C38.334599,158.880447 38.6533176,159.819281 38.6533176,161.024886 L38.6533176,167.946691 C38.6533176,169.332445 38.3172774,170.354423 37.6451869,171.012655 C36.9730964,171.670888 36.0065478,172 34.745512,172 L31.7938716,172 L31.7938716,157.200226 Z M33.914064,170.004525 L34.8910154,170.004525 C35.4868894,170.004525 35.9095379,169.855559 36.1589736,169.557622 C36.4084092,169.259684 36.5331252,168.792 36.5331252,168.154553 L36.5331252,161.024886 C36.5331252,160.44287 36.4153379,159.992507 36.1797598,159.673783 C35.9441817,159.35506 35.5146045,159.195701 34.8910154,159.195701 L33.914064,159.195701 L33.914064,170.004525 Z M40.74751,157.200226 L47.0665148,157.200226 L47.0665148,159.195701 L42.8677024,159.195701 L42.8677024,163.540017 L46.5260736,163.540017 L46.5260736,165.535492 L42.8677024,165.535492 L42.8677024,169.879808 L47.0665148,169.879808 L47.0665148,172 L40.74751,172 L40.74751,157.200226 Z M55.27185,168.694994 C55.27185,169.152293 55.1852417,169.588799 55.0120225,170.004525 C54.8388033,170.420251 54.5997644,170.784006 54.2948986,171.0958 C53.9900328,171.407595 53.6332066,171.657027 53.2244093,171.844103 C52.815612,172.03118 52.3756418,172.124717 51.9044856,172.124717 C51.502617,172.124717 51.0938259,172.069288 50.6780998,171.958428 C50.2623737,171.847567 49.8882259,171.657029 49.555645,171.386807 C49.2230641,171.116585 48.9493819,170.759759 48.7345901,170.316318 C48.5197983,169.872877 48.412404,169.311655 48.412404,168.632636 L48.412404,160.484445 C48.412404,159.999431 48.495548,159.549068 48.6618384,159.133342 C48.8281288,158.717616 49.0637034,158.357326 49.3685692,158.05246 C49.673435,157.747594 50.0371898,157.508555 50.4598447,157.335336 C50.8824995,157.162117 51.3501844,157.075508 51.8629132,157.075508 C52.3479269,157.075508 52.7982901,157.162117 53.2140162,157.335336 C53.6297423,157.508555 53.9900328,157.751058 54.2948986,158.062853 C54.5997644,158.374647 54.8388033,158.748795 55.0120225,159.185308 C55.1852417,159.62182 55.27185,160.096434 55.27185,160.609162 L55.27185,161.44061 L53.1516576,161.44061 L53.1516576,160.73388 C53.1516576,160.318154 53.0338703,159.957863 52.7982922,159.652997 C52.5627141,159.348131 52.2439955,159.195701 51.842127,159.195701 C51.3155406,159.195701 50.9656431,159.358524 50.7924239,159.684177 C50.6192047,160.009829 50.5325964,160.422084 50.5325964,160.920955 L50.5325964,168.487132 C50.5325964,168.916716 50.6261334,169.277006 50.8132101,169.568015 C51.0002868,169.859023 51.336327,170.004525 51.8213408,170.004525 C51.9599162,170.004525 52.1088824,169.980274 52.2682441,169.931773 C52.4276058,169.883272 52.5731077,169.803592 52.7047543,169.692732 C52.8364009,169.581872 52.9437952,169.429441 53.0269404,169.235435 C53.1100856,169.04143 53.1516576,168.798927 53.1516576,168.507918 L53.1516576,167.780401 L55.27185,167.780401 L55.27185,168.694994 Z M57.0958218,157.200226 L63.4148266,157.200226 L63.4148266,159.195701 L59.2160142,159.195701 L59.2160142,163.540017 L62.8743854,163.540017 L62.8743854,165.535492 L59.2160142,165.535492 L59.2160142,169.879808 L63.4148266,169.879808 L63.4148266,172 L57.0958218,172 L57.0958218,157.200226 Z M64.885433,157.200226 L66.9224806,157.200226 L69.6454728,165.036623 L69.6870452,165.036623 L72.3892512,157.200226 L74.447085,157.200226 L74.447085,172 L72.3268926,172 L72.3268926,162.999575 L72.2853202,162.999575 L70.185914,169.360153 L69.1258178,169.360153 L67.0471978,162.999575 L67.0056254,162.999575 L67.0056254,172 L64.885433,172 L64.885433,157.200226 Z M76.5412774,157.200226 L79.6384212,157.200226 C80.3174404,157.200226 80.8959839,157.304156 81.3740689,157.512019 C81.8521539,157.719882 82.2436234,157.997028 82.5484892,158.343467 C82.853355,158.689905 83.0716079,159.088303 83.2032545,159.538673 C83.3349011,159.989043 83.4007234,160.456728 83.4007234,160.941742 L83.4007234,161.482183 C83.4007234,161.884051 83.3695444,162.223556 83.3071855,162.500707 C83.2448266,162.777857 83.1512896,163.020361 83.0265718,163.228224 C82.901854,163.436087 82.7494234,163.619696 82.5692754,163.779058 C82.3891274,163.93842 82.1812675,164.087386 81.9456894,164.225961 C82.4445607,164.461539 82.8117799,164.811437 83.047358,165.275664 C83.2829361,165.739892 83.4007234,166.360007 83.4007234,167.136029 L83.4007234,167.967477 C83.4007234,169.270086 83.0854692,170.267813 82.4549513,170.96069 C81.8244334,171.653567 80.8163128,172 79.4305592,172 L76.5412774,172 L76.5412774,157.200226 Z M78.6614698,169.879808 L79.5760626,169.879808 C80.0056462,169.879808 80.3416864,169.81745 80.5841933,169.692732 C80.8267002,169.568014 81.0103098,169.394797 81.1350276,169.173077 C81.2597454,168.951356 81.3359607,168.688067 81.3636758,168.383201 C81.3913909,168.078335 81.4052482,167.74576 81.4052482,167.385464 C81.4052482,167.01131 81.3844622,166.685663 81.3428896,166.408512 C81.301317,166.131361 81.2147087,165.899251 81.0830621,165.712175 C80.9514155,165.525098 80.7678059,165.38306 80.5322278,165.286057 C80.2966497,165.189055 79.9848598,165.140554 79.5968488,165.140554 L78.6614698,165.140554 L78.6614698,169.879808 Z M78.6614698,163.269796 L79.617635,163.269796 C80.3243693,163.269796 80.7989828,163.093115 81.0414897,162.739748 C81.2839966,162.386381 81.4052482,161.870195 81.4052482,161.191176 C81.4052482,160.526014 81.2701392,160.02715 80.9999173,159.69457 C80.7296953,159.361989 80.2412245,159.195701 79.5344902,159.195701 L78.6614698,159.195701 L78.6614698,163.269796 Z M85.4949158,157.200226 L91.8139206,157.200226 L91.8139206,159.195701 L87.6151082,159.195701 L87.6151082,163.540017 L91.2734794,163.540017 L91.2734794,165.535492 L87.6151082,165.535492 L87.6151082,169.879808 L91.8139206,169.879808 L91.8139206,172 L85.4949158,172 L85.4949158,157.200226 Z M95.4047194,163.810237 L96.610319,163.810237 C96.9844725,163.810237 97.282405,163.758272 97.5041256,163.654341 C97.7258462,163.550409 97.8955984,163.401443 98.0133875,163.207437 C98.1311765,163.013432 98.2108562,162.774393 98.2524288,162.490314 C98.2940014,162.206234 98.3147874,161.877122 98.3147874,161.502969 C98.3147874,161.128816 98.2940014,160.799704 98.2524288,160.515625 C98.2108562,160.231545 98.1242479,159.989042 97.9926013,159.788107 C97.8609547,159.587173 97.6773451,159.438207 97.441767,159.341204 C97.2061889,159.244201 96.894399,159.195701 96.506388,159.195701 L95.4047194,159.195701 L95.4047194,163.810237 Z M93.284527,157.200226 L96.6934638,157.200226 C99.1878203,157.200226 100.43498,158.648316 100.43498,161.544541 C100.43498,162.403709 100.299871,163.141611 100.029649,163.758272 C99.7594269,164.374932 99.2848134,164.870332 98.6057942,165.244485 L100.892276,172 L98.6473666,172 L96.6726776,165.680995 L95.4047194,165.680995 L95.4047194,172 L93.284527,172 L93.284527,157.200226 Z M105.912109,170.004525 L109.73677,162.791713 C109.930775,162.431417 110.041634,162.116163 110.069349,161.845941 C110.097064,161.575719 110.110921,161.239679 110.110921,160.837811 C110.110921,160.657663 110.103993,160.467124 110.090135,160.26619 C110.076278,160.065256 110.03817,159.888575 109.975811,159.736142 C109.913452,159.583709 109.812987,159.455529 109.674411,159.351597 C109.535836,159.247666 109.334905,159.195701 109.071611,159.195701 C108.752888,159.195701 108.499992,159.285773 108.312915,159.465921 C108.125838,159.646069 108.032301,159.909359 108.032301,160.255797 L108.032301,161.461397 L105.912109,161.461397 L105.912109,160.297369 C105.912109,159.853928 105.995253,159.438208 106.161543,159.050197 C106.327834,158.662186 106.553015,158.322682 106.837095,158.031674 C107.121174,157.740665 107.457215,157.508555 107.845226,157.335336 C108.233237,157.162117 108.648956,157.075508 109.092398,157.075508 C109.646699,157.075508 110.121313,157.175974 110.516252,157.376908 C110.911192,157.577843 111.236839,157.851525 111.493204,158.197963 C111.749568,158.544402 111.936642,158.939335 112.054431,159.382777 C112.17222,159.826218 112.231114,160.297367 112.231114,160.796238 C112.231114,161.156534 112.224185,161.457931 112.210328,161.700438 C112.19647,161.942945 112.168755,162.175055 112.127183,162.396776 C112.08561,162.618496 112.016324,162.840213 111.919321,163.061934 C111.822318,163.283655 111.690673,163.553872 111.524383,163.872596 L108.406453,169.879808 L112.231114,169.879808 L112.231114,172 L105.912109,172 L105.912109,170.004525 Z M113.743293,160.255797 C113.743293,159.756926 113.829901,159.313491 114.00312,158.92548 C114.176339,158.537469 114.40845,158.204893 114.699458,157.927743 C114.990466,157.650592 115.326506,157.439268 115.707588,157.293764 C116.088671,157.148259 116.487069,157.075508 116.902795,157.075508 C117.318521,157.075508 117.716919,157.148259 118.098001,157.293764 C118.479084,157.439268 118.815124,157.650592 119.106132,157.927743 C119.39714,158.204893 119.629251,158.537469 119.80247,158.92548 C119.975689,159.313491 120.062297,159.756926 120.062297,160.255797 L120.062297,168.944429 C120.062297,169.4433 119.975689,169.886734 119.80247,170.274745 C119.629251,170.662756 119.39714,170.995332 119.106132,171.272483 C118.815124,171.549634 118.479084,171.760958 118.098001,171.906462 C117.716919,172.051966 117.318521,172.124717 116.902795,172.124717 C116.487069,172.124717 116.088671,172.051966 115.707588,171.906462 C115.326506,171.760958 114.990466,171.549634 114.699458,171.272483 C114.40845,170.995332 114.176339,170.662756 114.00312,170.274745 C113.829901,169.886734 113.743293,169.4433 113.743293,168.944429 L113.743293,160.255797 Z M115.863485,168.944429 C115.863485,169.249294 115.960486,169.502191 116.154492,169.703125 C116.348497,169.904059 116.597929,170.004525 116.902795,170.004525 C117.207661,170.004525 117.457093,169.904059 117.651098,169.703125 C117.845104,169.502191 117.942105,169.249294 117.942105,168.944429 L117.942105,160.255797 C117.942105,159.950931 117.845104,159.698035 117.651098,159.497101 C117.457093,159.296166 117.207661,159.195701 116.902795,159.195701 C116.597929,159.195701 116.348497,159.296166 116.154492,159.497101 C115.960486,159.698035 115.863485,159.950931 115.863485,160.255797 L115.863485,168.944429 Z M124.089606,159.445135 L121.969414,161.0041 L121.969414,158.759191 L124.089606,157.200226 L126.209799,157.200226 L126.209799,172 L124.089606,172 L124.089606,159.445135 Z M132.544376,163.415299 L132.585948,163.456872 C132.655236,163.401442 132.76263,163.356405 132.908134,163.321762 C133.053639,163.287118 133.244177,163.269796 133.479755,163.269796 C133.853908,163.269796 134.200342,163.359869 134.519065,163.540017 C134.837788,163.720165 135.08722,163.94881 135.267368,164.225961 C135.364371,164.378394 135.440586,164.530825 135.496016,164.683258 C135.551447,164.83569 135.596483,165.036622 135.631127,165.286057 C135.665771,165.535493 135.690021,165.850747 135.703878,166.23183 C135.717736,166.612912 135.724665,167.094454 135.724665,167.67647 C135.724665,168.161484 135.717736,168.559882 135.703878,168.871677 C135.690021,169.183471 135.665771,169.446761 135.631127,169.661552 C135.596483,169.876344 135.547982,170.059954 135.485623,170.212387 C135.423264,170.36482 135.343585,170.524179 135.246582,170.690469 C134.969431,171.147768 134.598748,171.50113 134.13452,171.750566 C133.670293,172.000001 133.147179,172.124717 132.565162,172.124717 C131.983146,172.124717 131.463496,171.996537 131.006197,171.740172 C130.548898,171.483808 130.181679,171.133911 129.904529,170.690469 C129.793668,170.524179 129.70706,170.36482 129.644701,170.212387 C129.582342,170.059954 129.533842,169.876344 129.499198,169.661552 C129.464554,169.446761 129.440304,169.183471 129.426446,168.871677 C129.412588,168.559882 129.40566,168.161484 129.40566,167.67647 C129.40566,167.219172 129.412588,166.84156 129.426446,166.543622 C129.440304,166.245685 129.461089,165.989325 129.488805,165.774533 C129.51652,165.559741 129.558092,165.365739 129.613522,165.19252 C129.668952,165.0193 129.73131,164.835691 129.800598,164.641685 L132.585948,157.200226 L134.955575,157.200226 L132.544376,163.415299 Z M133.604472,166.20065 C133.604472,165.881927 133.500542,165.625566 133.292679,165.431561 C133.084816,165.237555 132.842313,165.140554 132.565162,165.140554 C132.288011,165.140554 132.045508,165.237555 131.837645,165.431561 C131.629782,165.625566 131.525852,165.881927 131.525852,166.20065 L131.525852,168.944429 C131.525852,169.263152 131.629782,169.519512 131.837645,169.713518 C132.045508,169.907524 132.288011,170.004525 132.565162,170.004525 C132.842313,170.004525 133.084816,169.907524 133.292679,169.713518 C133.500542,169.519512 133.604472,169.263152 133.604472,168.944429 L133.604472,166.20065 Z" id="1-DECEMBER-2016-" fill="#FFFFFF"></path>
                <path d="M13.7919,145.2695 L145.6639,145.2695" id="Stroke-3" stroke="#FFFFFF" stroke-width="1.485"></path>
                <path d="M46.688245,80 L41.888245,80 L37.988245,56.9 L37.888245,56.9 L34.038245,80 L29.238245,80 L23.938245,44.4 L29.338245,44.4 L31.888245,67 L31.988245,67 L35.988245,44.4 L39.888245,44.4 L44.038245,67.55 L44.138245,67.55 L46.588245,44.4 L51.988245,44.4 L46.688245,80 Z M54.6671633,52.8 C54.6671633,51.3666595 54.9171608,50.1000055 55.4171633,49 C55.9171658,47.8999945 56.5754926,46.9916702 57.3921633,46.275 C58.2088341,45.5583297 59.1254916,45.0166685 60.1421633,44.65 C61.1588351,44.2833315 62.1838248,44.1 63.2171633,44.1 C64.2505018,44.1 65.2754916,44.2833315 66.2921633,44.65 C67.3088351,45.0166685 68.2254926,45.5583297 69.0421633,46.275 C69.8588341,46.9916702 70.5171608,47.8999945 71.0171633,49 C71.5171658,50.1000055 71.7671633,51.3666595 71.7671633,52.8 L71.7671633,71.6 C71.7671633,73.066674 71.5171658,74.3416612 71.0171633,75.425 C70.5171608,76.5083388 69.8588341,77.4083298 69.0421633,78.125 C68.2254926,78.8416702 67.3088351,79.3833315 66.2921633,79.75 C65.2754916,80.1166685 64.2505018,80.3 63.2171633,80.3 C62.1838248,80.3 61.1588351,80.1166685 60.1421633,79.75 C59.1254916,79.3833315 58.2088341,78.8416702 57.3921633,78.125 C56.5754926,77.4083298 55.9171658,76.5083388 55.4171633,75.425 C54.9171608,74.3416612 54.6671633,73.066674 54.6671633,71.6 L54.6671633,52.8 Z M59.7671633,71.6 C59.7671633,72.8333395 60.1088266,73.7416637 60.7921633,74.325 C61.4755001,74.9083362 62.2838253,75.2 63.2171633,75.2 C64.1505013,75.2 64.9588266,74.9083362 65.6421633,74.325 C66.3255001,73.7416637 66.6671633,72.8333395 66.6671633,71.6 L66.6671633,52.8 C66.6671633,51.5666605 66.3255001,50.6583362 65.6421633,50.075 C64.9588266,49.4916637 64.1505013,49.2 63.2171633,49.2 C62.2838253,49.2 61.4755001,49.4916637 60.7921633,50.075 C60.1088266,50.6583362 59.7671633,51.5666605 59.7671633,52.8 L59.7671633,71.6 Z M81.7460817,60.3 L84.6460817,60.3 C85.5460862,60.3 86.2627457,60.1750012 86.7960817,59.925 C87.3294177,59.6749987 87.7377469,59.316669 88.0210817,58.85 C88.3044164,58.383331 88.4960812,57.8083367 88.5960817,57.125 C88.6960822,56.4416632 88.7460817,55.6500045 88.7460817,54.75 C88.7460817,53.8499955 88.6960822,53.0583367 88.5960817,52.375 C88.4960812,51.6916632 88.2877499,51.1083357 87.9710817,50.625 C87.6544134,50.1416642 87.2127512,49.7833345 86.6460817,49.55 C86.0794122,49.3166655 85.3294197,49.2 84.3960817,49.2 L81.7460817,49.2 L81.7460817,60.3 Z M76.6460817,44.4 L84.8460817,44.4 C90.8461117,44.4 93.8460817,47.8832985 93.8460817,54.85 C93.8460817,56.916677 93.5210849,58.6916592 92.8710817,60.175 C92.2210784,61.6583407 91.0794232,62.8499955 89.4460817,63.75 L94.9460817,80 L89.5460817,80 L84.7960817,64.8 L81.7460817,64.8 L81.7460817,80 L76.6460817,80 L76.6460817,44.4 Z M98.325,44.4 L103.425,44.4 L103.425,74.9 L113.525,74.9 L113.525,80 L98.325,80 L98.325,44.4 Z M117.203918,44.4 L124.753918,44.4 C127.653933,44.4 129.870577,45.2083252 131.403918,46.825 C132.937259,48.4416747 133.703918,50.6999855 133.703918,53.6 L133.703918,70.25 C133.703918,73.58335 132.895593,76.0416587 131.278918,77.625 C129.662244,79.2083412 127.337267,80 124.303918,80 L117.203918,80 L117.203918,44.4 Z M122.303918,75.2 L124.653918,75.2 C126.087259,75.2 127.103915,74.8416702 127.703918,74.125 C128.303921,73.4083298 128.603918,72.283341 128.603918,70.75 L128.603918,53.6 C128.603918,52.199993 128.320588,51.1166705 127.753918,50.35 C127.187249,49.5833295 126.153926,49.2 124.653918,49.2 L122.303918,49.2 L122.303918,75.2 Z" id="WORLD-" fill="#FFFFFF"></path>
            </g>
        </g>
    </g>
</svg>