<svg xmlns="http://www.w3.org/2000/svg" version="1.1" x="0px" y="0px" width="440px" height="180px" viewBox="0 0 440 180" enable-background="new 0 0 440 180" xml:space="preserve"><path fill-rule="evenodd" clip-rule="evenodd" fill="#FF7F2F" d="M93.5209961 59.2573242C75.644043 56.9692383 59.2973633 69.605957 57.0092773 87.480957c-1.1953125 9.3164063 1.6748047 18.2119141 7.2177734 24.921875 2.2421875-2.1914063 6.1337891-5.9550781 6.8808594-6.3925781 1.0625-0.6210938 1.984375-1.3183594 1.984375-1.3183594s-0.4355469-2.5556641 0.2519531-5.5429688c0.6806641-2.9667969 1.3417969-3.8173828 1.4658203-4.7460938 0.171875-1.2822266 0.2685547-4.0019531-0.2460938-5.1845703 -0.6230469-1.4296875-0.796875-2.4804688 0.1748047-3.1875 0.9707031-0.7070313 2.7998047 0.4931641 3.6240234 2.3964844 0.8222656 1.9013672 0.734375 2.5810547 0.734375 2.5810547s0.8476563-3.3691406 1.8427734-5.2597656c0.9960938-1.8867188 2.2216797-4.6552734 2.6904297-5.8447266 0.4697266-1.1904297 0.984375-2.5283203 2.265625-2.453125 1.2822266 0.0722656 2.6035156 0.8125 1.5224609 3.3408203 -1.0830078 2.5302734-1.2470703 3.2373047-1.4257813 4.1240234 -0.1787109 0.8886719-0.8027344 4.3945313-0.9433594 4.6894531 -0.1445313 0.3017578 0.2021484 0.390625 0.3496094 0.2412109 0.1435547-0.1513672 1.96875-2.4492188 3.0761719-3.7480469 1.1044922-1.2998047 3.1914063-3.5615234 3.6240234-4.1123047 0.4335938-0.5498047 1.4345703-2.1416016 2.7138672-2.0673828 1.2822266 0.0712891 1.8925781 1.1923828 1.6679688 2.2304688 -0.2285156 1.0361328-1.0478516 1.9384766-1.5742188 2.5390625 -0.5302734 0.5996094-2.3535156 3.7412109-2.6884766 4.2402344 -0.3330078 0.4960938-2.1865234 3.2773438-2.1865234 3.2773438l0.2402344 0.4501953c0 0 2.1904297-1.3203125 3.0625-1.8798828 0.8769531-0.5585938 4.5878906-3.6210938 5.4628906-3.9521484 1.5117188-0.5712891 3.1796875 1.2783203 2.1650391 2.6152344 -0.9121094 1.1982422-2.1035156 2.125-2.5390625 2.5292969 -0.4345703 0.4013672-2.6328125 2.5585938-3.5566406 3.2148438 -0.9189453 0.6582031-2.0810547 2.3076172-1.8886719 2.6318359 0.1542969 0.2578125 1.7783203 0.3886719 2.7607422 0.0537109 1.3769531-0.4707031 4.9707031-1.4257813 5.6777344-1.2431641 0.9912109 0.2626953 1.6113281 1.8916016 0.6396484 2.6953125 -0.9658203 0.8056641-2.921875 1.4921875-3.4580078 1.75 -0.5332031 0.2568359-4.0820313 1.5634766-4.0820313 1.5634766s-2.703125 1.6132813-4.0693359 2.9111328c-0.4589844 0.8007813-2.4384766 3.7294922-3.8417969 4.6220703 -0.7822266 0.5-1.4814453 0.8564453-1.4814453 0.8564453s-1.3222656 3.0410156-1.9492188 3.7607422c-1.0986328 2.0839844-3.0712891 4.9335938-4.9853516 7.4902344 2.2324219 0.8125 4.5859375 1.4013672 7.0419922 1.7158203 17.8769531 2.2900391 34.2255859-10.3466797 36.5107422-28.2226563C124.0307617 77.8911133 111.3930664 61.5463867 93.5209961 59.2573242zM108.8422852 45.6147461c0 0-0.6621094 2.3964844-1.3251953 4.7919922 -0.7744141 2.4189453-1.5478516 4.8349609-1.5478516 4.8349609l-0.0048828 0.0166016c-0.5537109 1.7275391-2.4013672 2.6806641-4.1308594 2.1289063 -1.7255859-0.5527344-2.6787109-2.4023438-2.1259766-4.1298828 0.0771484-0.2431641 0.1904297-0.4824219 0.3125-0.6933594 0 0 1.2578125-2.0849609 2.5136719-4.1689453 1.1923828-2.1806641 2.3896484-4.3603516 2.3896484-4.3603516l0.0058594-0.0097656c0.5654297-1.0273438 1.8564453-1.40625 2.8867188-0.8408203C108.6977539 43.6674805 109.1000977 44.6870117 108.8422852 45.6147461zM71.847168 137.5864258c0 0 0.5380859-2.3876953 1.0791016-4.7763672 0.6728516-2.4638672 1.3466797-4.9248047 1.3466797-4.9248047 0.4824219-1.7597656 2.296875-2.7910156 4.0527344-2.3105469 1.7548828 0.4814453 2.7880859 2.2939453 2.3076172 4.0498047 -0.0693359 0.2490234-0.1630859 0.484375-0.2822266 0.703125l-0.1289063 0.2304688c0 0-1.125 2.0439453-2.2470703 4.0888672 -1.0771484 2.1875-2.15625 4.3779297-2.15625 4.3779297 -0.5185547 1.0527344-1.7910156 1.4863281-2.8457031 0.9658203 -0.8964844-0.4433594-1.3457031-1.4355469-1.1347656-2.3740234L71.847168 137.5864258zM135.2026367 111.1303711c0 0-0.5917969-0.1503906-1.4785156-0.3740234 -0.2226563-0.0546875-0.4619141-0.1152344-0.7158203-0.1796875 -0.2519531-0.0556641-0.5488281-0.1689453-0.8359375-0.2558594 -0.5878906-0.1923828-1.2119141-0.3955078-1.8378906-0.6015625 -0.5771484-0.1923828-1.1523438-0.3886719-1.6943359-0.5703125 -0.5458984-0.1914063-1.0224609-0.3251953-1.4443359-0.4570313 -0.8339844-0.2558594-1.390625-0.4248047-1.390625-0.4248047l-0.1005859-0.0302734c-1.7050781-0.5224609-2.6640625-2.3291016-2.1396484-4.0361328 0.5205078-1.7050781 2.3271484-2.6640625 4.0351563-2.1425781 0.2373047 0.0722656 0.4726563 0.1796875 0.6806641 0.2998047 0 0 0.5527344 0.3232422 1.3828125 0.8066406 0.4072266 0.2421875 0.9101563 0.5224609 1.3847656 0.8271484 0.4882813 0.3046875 1.0087891 0.6279297 1.53125 0.9521484 0.4814453 0.2949219 0.9580078 0.5878906 1.4091797 0.8642578 0.234375 0.1367188 0.4257813 0.2773438 0.6679688 0.3974609 0.2324219 0.1191406 0.4550781 0.2333984 0.6572266 0.3378906 0.8144531 0.4238281 1.3554688 0.7060547 1.3554688 0.7060547h0.0048828c1.0234375 0.53125 1.4238281 1.7939453 0.8935547 2.8154297C137.112793 110.9448242 136.1206055 111.3608398 135.2026367 111.1303711zM44.5678711 73.0698242c0 0 0.5458984 0.1142578 1.3613281 0.2832031 0.4052734 0.0800781 0.8867188 0.1904297 1.3876953 0.2744141 0.5048828 0.0957031 1.0410156 0.1923828 1.578125 0.2949219 0.5771484 0.1259766 1.1542969 0.2539063 1.6943359 0.3710938 0.5429688 0.1181641 1.0341797 0.2783203 1.4667969 0.3925781 0.8642578 0.2441406 1.4365234 0.40625 1.4365234 0.40625 1.7529297 0.4951172 2.7705078 2.3154297 2.2753906 4.0673828 -0.4951172 1.7509766-2.3164063 2.7705078-4.0654297 2.2753906 -0.2773438-0.078125-0.5322266-0.1884766-0.7685547-0.3251953l-0.1152344-0.0703125c0 0-0.4414063-0.2597656-1.1054688-0.6523438 -0.3349609-0.1923828-0.7158203-0.4453125-1.1523438-0.6650391 -0.4306641-0.2226563-0.8935547-0.4619141-1.3574219-0.7011719 -0.5087891-0.2412109-1.0195313-0.4824219-1.4960938-0.7099609 -0.4853516-0.2216797-0.9111328-0.4453125-1.2861328-0.6298828 -0.7441406-0.3730469-1.2421875-0.6191406-1.2421875-0.6191406 -1.0527344-0.5283203-1.4765625-1.8066406-0.953125-2.8583984 0.4404297-0.8837891 1.4140625-1.3251953 2.3369141-1.1347656L44.5678711 73.0698242zM129.3139648 62.612793c0 0-0.4169922 0.4052734-1.0429688 1.0117188 -0.625 0.609375-1.4511719 1.421875-2.2949219 2.2275391 -1.7832031 1.5849609-3.5625 3.1699219-3.5625 3.1699219 -1.3564453 1.2060547-3.4365234 1.0849609-4.6445313-0.2705078 -1.2050781-1.3583984-1.0820313-3.4345703 0.2734375-4.6445313 0.203125-0.1796875 0.4238281-0.3310547 0.65625-0.453125l0.03125-0.0146484c0 0 2.0078125-1.0410156 4.0185547-2.0839844 1.0068359-0.5703125 2.0107422-1.1582031 2.7646484-1.5898438 0.7578125-0.4355469 1.2578125-0.7236328 1.2578125-0.7236328 1.0185547-0.5917969 2.3222656-0.2412109 2.9091797 0.7773438 0.4951172 0.8613281 0.3232422 1.9267578-0.359375 2.5888672L129.3139648 62.612793zM48.8481445 119.2875977c0 0 0.4101563-0.4443359 1.0234375-1.1074219 0.1523438-0.1660156 0.3193359-0.3447266 0.4970703-0.5351563 0.1835938-0.1904297 0.3398438-0.390625 0.5175781-0.5996094 0.3496094-0.4140625 0.7246094-0.8564453 1.0976563-1.2978516 0.4326172-0.4755859 0.8652344-0.9511719 1.2685547-1.3974609 0.3886719-0.4560547 0.8505859-0.8339844 1.203125-1.1806641 0.7333984-0.6884766 1.2226563-1.1435547 1.2226563-1.1435547 1.3291016-1.2402344 3.4150391-1.1679688 4.65625 0.1591797 1.2431641 1.3310547 1.1708984 3.4179688-0.1591797 4.6582031 -0.1923828 0.1757813-0.3984375 0.328125-0.6132813 0.4521484l-0.1992188 0.1123047c0 0-0.4648438 0.2636719-1.1679688 0.6591797 -0.3486328 0.2119141-0.7773438 0.3994141-1.2060547 0.7138672 -0.4394531 0.2958984-0.90625 0.6123047-1.3740234 0.9277344 -0.5058594 0.3671875-1.015625 0.7363281-1.4882813 1.0820313 -0.2382813 0.1679688-0.4707031 0.3505859-0.6865234 0.4873047 -0.2138672 0.140625-0.4179688 0.2763672-0.6054688 0.4023438 -0.7558594 0.4970703-1.2578125 0.8320313-1.2578125 0.8320313 -0.9794922 0.6474609-2.2988281 0.3818359-2.9492188-0.5966797 -0.5517578-0.8339844-0.4375-1.9169922 0.2119141-2.6220703L48.8481445 119.2875977zM119.7680664 129.9155273c0 0-1.7207031-1.7285156-3.4433594-3.4560547 -1.7060547-1.8642578-3.4072266-3.7265625-3.4072266-3.7265625 -1.2294922-1.3408203-1.1357422-3.4248047 0.2060547-4.6513672 1.3417969-1.2275391 3.4238281-1.1337891 4.6474609 0.2070313 0.1787109 0.1904297 0.3271484 0.3994141 0.4492188 0.6171875l0.0761719 0.1367188c0 0 1.1337891 2.0605469 2.2714844 4.1171875 1.2675781 2.0820313 2.5351563 4.1591797 2.5351563 4.1591797 0.6113281 1.0039063 0.2919922 2.3105469-0.7099609 2.9238281 -0.8544922 0.5195313-1.9345703 0.3662109-2.6103516-0.3144531L119.7680664 129.9155273zM59.7700195 51.4086914c0 0 0.4599609 0.4335938 1.1494141 1.0869141 0.3466797 0.3251953 0.7480469 0.7148438 1.1806641 1.0839844 0.4296875 0.3818359 0.8935547 0.7900391 1.3535156 1.2011719 0.4863281 0.4521484 0.9726563 0.9091797 1.4287109 1.3359375 0.4628906 0.4111328 0.8583984 0.8857422 1.2138672 1.2558594 0.7070313 0.765625 1.1787109 1.2763672 1.1787109 1.2763672 1.2304688 1.3378906 1.1445313 3.4189453-0.1933594 4.6513672 -1.3359375 1.2324219-3.4179688 1.1494141-4.6523438-0.1884766 -0.1650391-0.1845703-0.3085938-0.3779297-0.4296875-0.5859375l-0.1064453-0.1914063c0 0-0.2851563-0.4951172-0.7089844-1.2392578 -0.2216797-0.3720703-0.4345703-0.8203125-0.7666016-1.28125 -0.3125-0.46875-0.6474609-0.9667969-0.9804688-1.4667969 -0.3759766-0.5302734-0.7529297-1.0595703-1.1044922-1.5566406 -0.3662109-0.4970703-0.6660156-0.9570313-0.9267578-1.3544922 -0.5244141-0.7890625-0.875-1.3173828-0.875-1.3173828 -0.6494141-0.9765625-0.3828125-2.296875 0.59375-2.9453125 0.8398438-0.5585938 1.9345703-0.4404297 2.6357422 0.2236328L59.7700195 51.4086914zM138.652832 85.5727539c0 0-0.5820313 0.1533203-1.4560547 0.3808594 -0.2207031 0.0585938-0.4580078 0.1181641-0.7070313 0.1845703 -0.2421875 0.0693359-0.5458984 0.1162109-0.8378906 0.1806641 -0.6005859 0.1162109-1.234375 0.2392578-1.8691406 0.3623047 -0.5947266 0.1054688-1.1865234 0.2158203-1.7421875 0.3173828 -0.5654297 0.0966797-1.0400391 0.2109375-1.4765625 0.2958984 -0.8486328 0.1757813-1.4160156 0.2900391-1.4160156 0.2900391l-0.0839844 0.0185547c-1.7802734 0.3671875-3.5195313-0.7763672-3.8867188-2.5546875 -0.3632813-1.7802734 0.7744141-3.5185547 2.5576172-3.8867188 0.2558594-0.0537109 0.5273438-0.0742188 0.7792969-0.0664063 0 0 0.6259766 0.0195313 1.5664063 0.0527344 0.4619141 0.0224609 1.0273438 0.0283203 1.5859375 0.0673828 0.5625 0.03125 1.1669922 0.0673828 1.7685547 0.1025391 0.5576172 0.0273438 1.1142578 0.0527344 1.6367188 0.0810547 0.265625 0.0107422 0.5048828 0.0361328 0.7734375 0.0244141 0.2587891-0.0039063 0.5039063-0.0087891 0.7304688-0.0126953 0.9052734-0.0126953 1.5078125-0.0244141 1.5078125-0.0244141 1.1738281-0.0175781 2.1416016 0.9169922 2.1611328 2.0917969C140.2612305 84.4799805 139.5805664 85.3325195 138.652832 85.5727539zM41.2202148 97.2143555c0 0 0.5126953-0.171875 1.28125-0.4267578 0.3818359-0.1289063 0.84375-0.2705078 1.3027344-0.4414063 0.2314453-0.0869141 0.4736328-0.1738281 0.7158203-0.2617188 0.2460938-0.0878906 0.4980469-0.1777344 0.7490234-0.2666016 0.5488281-0.1767578 1.0996094-0.3515625 1.6132813-0.5166016 0.5195313-0.1640625 1.0126953-0.265625 1.4345703-0.3808594 0.8476563-0.2148438 1.4121094-0.3583984 1.4121094-0.3583984 1.7636719-0.4492188 3.5585938 0.6210938 4.0048828 2.3857422 0.4462891 1.7666016-0.6230469 3.5585938-2.3876953 4.0058594 -0.2861328 0.0732422-0.5712891 0.1074219-0.8535156 0.1015625l-0.1298828-0.0019531c0 0-0.4980469-0.0107422-1.2451172-0.0224609 -0.3740234 0-0.8193359-0.0302734-1.2871094-0.0117188 -0.4697266 0.0205078-0.9726563 0.0419922-1.4765625 0.0605469 -0.5478516 0.0429688-1.0966797 0.0849609-1.6103516 0.1269531 -0.5234375 0.046875-0.984375 0.0605469-1.3925781 0.0859375 -0.8085938 0.0449219-1.3466797 0.0712891-1.3466797 0.0712891 -1.1748047 0.0654297-2.1787109-0.8359375-2.2460938-2.0117188C39.706543 98.371582 40.331543 97.5083008 41.2202148 97.2143555zM97.2983398 139.0776367c0 0-0.1591797-0.5576172-0.3984375-1.3935547 -0.2363281-0.8369141-0.5585938-1.9462891-0.8701172-3.0673828 -0.5517578-2.3242188-1.1025391-4.6484375-1.1025391-4.6484375 -0.4169922-1.7675781 0.6787109-3.5400391 2.4443359-3.9589844 1.7685547-0.4199219 3.5439453 0.6728516 3.9609375 2.4423828 0.0644531 0.2666016 0.0917969 0.5341797 0.0908203 0.796875l-0.0019531 0.0849609c0 0-0.0390625 2.2421875-0.0800781 4.4853516 0.0273438 1.1523438 0.0673828 2.3144531 0.0917969 3.1796875 0.0253906 0.8701172 0.0429688 1.4453125 0.0429688 1.4453125 0.0332031 1.1757813-0.8916016 2.15625-2.0654297 2.1875 -0.9941406 0.0332031-1.8476563-0.625-2.109375-1.5380859L97.2983398 139.0776367zM82.5737305 42.7905273c0 0 0.1972656 0.5478516 0.4892578 1.3710938 0.0732422 0.2050781 0.1533203 0.4277344 0.2382813 0.6630859 0.0771484 0.2470703 0.1855469 0.4541016 0.2861328 0.6875 0.1044922 0.2275391 0.2128906 0.4638672 0.3183594 0.7021484 0.1103516 0.2490234 0.2138672 0.4648438 0.3291016 0.7402344 0.2314453 0.5917969 0.4638672 1.1816406 0.6816406 1.7353516 0.1181641 0.2734375 0.2070313 0.5566406 0.2763672 0.8339844 0.0742188 0.2744141 0.1474609 0.5351563 0.2109375 0.7744141 0.2626953 0.9716797 0.4335938 1.6181641 0.4335938 1.6181641 0.4716797 1.7626953-0.5751953 3.5703125-2.3339844 4.0390625 -1.7607422 0.4707031-3.5703125-0.5742188-4.0400391-2.3349609 -0.0712891-0.2607422-0.1083984-0.5234375-0.1123047-0.7832031l-0.0058594-0.2861328c0 0-0.0058594-0.4931641-0.0175781-1.2324219 0-0.1865234-0.0029297-0.3916016-0.0058594-0.6064453 0.0058594-0.2148438-0.0019531-0.4453125-0.0449219-0.6914063 -0.0634766-0.4951172-0.1298828-1.0175781-0.1962891-1.5410156 -0.1035156-0.6181641-0.2089844-1.2373047-0.3085938-1.8144531 -0.046875-0.2890625-0.1064453-0.5761719-0.1181641-0.8183594 -0.0244141-0.2490234-0.0488281-0.484375-0.0683594-0.7011719 -0.0830078-0.8691406-0.1367188-1.4482422-0.1367188-1.4482422 -0.1113281-1.1708984 0.7460938-2.2089844 1.9169922-2.3203125 0.9902344-0.0957031 1.8867188 0.5048828 2.2060547 1.4023438L82.5737305 42.7905273z"/><path fill="#007CBA" d="M161.9628906 79.5244141c0-1.9199219 1.3193359-2.9995117 3.1591797-2.9995117h7.6787109c4.1591797 0 7.5185547 2.7993164 7.5185547 7.0385742 0 2.7998047-1.1591797 4.6791992-3.71875 5.8789063v0.0800781c3.3994141 0.4799805 6.0791016 3.3193359 6.0791016 6.7988281 0 5.6391602-3.7597656 8.6787109-9.2792969 8.6787109h-8.2382813c-1.8398438 0-3.1992188-1.159668-3.1992188-3.0395508V79.5244141zM167.9619141 87.8027344h3.1191406c1.9599609 0 3.2392578-1.159668 3.2392578-3.1591797 0-1.8798828-1.4794922-2.8398438-3.2392578-2.8398438h-3.1191406V87.8027344zM167.9619141 99.7207031h4.71875c2.1601563 0 3.7597656-1.2397461 3.7597656-3.4790039 0-1.8798828-1.4394531-3.159668-4.2392578-3.159668h-4.2392578V99.7207031zM189.8017578 96.28125c0.3994141 2.8398438 2.7587891 4.159668 5.4384766 4.159668 2.9599609 0 4.9990234-2.3198242 6.5195313-2.3198242 1.2392578 0 2.359375 1.2397461 2.359375 2.4794922 0 2.4794922-5.1191406 4.8793945-9.3984375 4.8793945 -6.4794922 0-10.7978516-4.7192383-10.7978516-11.078125 0-5.8388672 4.2392578-11.1582031 10.3173828-11.1582031 6.2392578 0 10.3583984 5.6791992 10.3583984 10.4780273 0 1.7197266-0.7597656 2.5595703-2.5195313 2.5595703H189.8017578zM198.8398438 92.4418945c-0.3203125-2.5195313-1.9199219-4.3989258-4.5996094-4.3989258 -2.5595703 0-4.2792969 1.9594727-4.5585938 4.3989258H198.8398438zM207.0419922 86.6831055c0-1.9199219 1.2001953-3.199707 2.8798828-3.199707 1.5996094 0 2.5195313 0.8798828 2.8789063 2.3999023 1.0800781-1.7597656 3.3193359-2.6396484 5.4794922-2.6396484 6.1992188 0 9.2783203 5.7988281 9.2783203 11.3979492 0 5.4394531-3.6796875 10.8383789-9.4785156 10.8383789 -1.7998047 0-3.7587891-0.6801758-5.2792969-1.9995117v7.0385742c0 1.9199219-1.1992188 3.199707-2.8789063 3.199707s-2.8798828-1.2797852-2.8798828-3.199707V86.6831055zM217.3203125 100.2006836c3 0 4.4794922-3.1191406 4.4794922-5.7988281 0-2.7197266-1.4794922-5.8789063-4.4794922-5.8789063 -3.0791016 0-4.5195313 2.8793945-4.5195313 5.6787109C212.8007813 97.0014648 214.1611328 100.2006836 217.3203125 100.2006836zM248.5986328 105.4799805c-5.4794922 0-9.3183594-3.9594727-10.1582031-9.0385742h-2.2802734v5.5991211c0 1.9194336-1.1992188 3.1992188-2.8789063 3.1992188s-2.8798828-1.2797852-2.8798828-3.1992188V86.6831055c0-1.9199219 1.2001953-3.199707 2.8798828-3.199707s2.8789063 1.2797852 2.8789063 3.199707v4.7192383h2.4794922c1.2001953-4.559082 4.9599609-8.1586914 9.9589844-8.1586914 6.0791016 0 10.3183594 5.3193359 10.3183594 11.1582031C258.9169922 100.4008789 254.796875 105.4799805 248.5986328 105.4799805zM248.5986328 88.5229492c-3.1601563 0-4.5595703 3.1191406-4.5595703 5.8789063 0 2.7592773 1.4394531 5.7988281 4.5595703 5.7988281 3.1191406 0 4.5585938-3.0395508 4.5585938-5.7988281C253.1572266 91.6420898 251.7578125 88.5229492 248.5986328 88.5229492zM273.0410156 86.3632813c0-1.4799805 1.2802734-2.6396484 2.7597656-2.6396484h7.71875c3.1191406 0 5.5986328 2.0795898 5.5986328 5.2792969 0 2.0795898-0.8398438 3.4790039-2.7597656 4.3588867v0.0800781c2.5595703 0.3598633 4.5595703 2.4794922 4.5595703 5.0791016 0 4.1992188-2.8398438 6.4790039-6.9589844 6.4790039h-8.1582031c-1.4794922 0-2.7597656-1.199707-2.7597656-2.6796875V86.3632813zM278.7197266 92.1621094h2.3203125c1.4794922 0 2.3994141-0.8798828 2.3994141-2.359375 0-1.3999023-1.0800781-2.1196289-2.3994141-2.1196289h-2.3203125V92.1621094zM278.7197266 101.0405273h3.5195313c1.5996094 0 2.7998047-0.9199219 2.7998047-2.5996094 0-1.3994141-1.0800781-2.359375-3.1591797-2.359375h-3.1601563V101.0405273zM314.3193359 92.6020508h2.9189453v-5.9189453c0-1.9199219 1.2001953-3.199707 2.8798828-3.199707s2.8789063 1.2797852 2.8789063 3.199707v15.3574219c0 1.9194336-1.1992188 3.1992188-2.8789063 3.1992188s-2.8798828-1.2797852-2.8798828-3.1992188v-4.3994141h-3.6787109c-4.6796875 0-8.3193359-2.9194336-8.3193359-7.1987305v-3.7592773c0-1.9199219 1.2001953-3.199707 2.8798828-3.199707S311 84.7631836 311 86.6831055v3.5195313C311 91.8022461 312.359375 92.6020508 314.3193359 92.6020508zM325.2011719 87.4428711c-0.1601563-0.4399414-0.2802734-0.8798828-0.2802734-1.4794922 0-1.4399414 1.5195313-2.4799805 2.7197266-2.4799805 1.3994141 0 2.3994141 0.7602539 2.8798828 2.0400391l3.9589844 10.8378906 4.2392578-10.8378906c0.4794922-1.2797852 1.4794922-2.0400391 2.8798828-2.0400391 1.1992188 0 2.71875 1.0400391 2.71875 2.4799805 0 0.5996094-0.0800781 1.0395508-0.2792969 1.4794922l-9.6386719 23.9960938c-0.4794922 1.199707-1.359375 2.2797852-2.7197266 2.2797852 -1.9599609 0-2.9990234-1.2402344-2.9990234-2.4799805 0-0.5595703 0.1591797-1.159668 0.359375-1.6796875l2.5195313-6.2387695L325.2011719 87.4428711zM364.5566406 111.0791016c-1.6796875 0-2.8789063-1.2797852-2.8789063-3.199707V105H349.359375v2.8793945c0 1.9199219-1.2001953 3.199707-2.8798828 3.199707s-2.8789063-1.2797852-2.8789063-3.199707v-4.7192383c0-1.9194336 1.1992188-3.1992188 2.8789063-3.1992188h0.3203125c1.0800781-3.7592773 1.4394531-8.0786133 1.4394531-13.0380859 0-2.0795898 1.2001953-3.1992188 2.8798828-3.1992188h10.2382813c1.6796875 0 2.8798828 1.2797852 2.8798828 3.1992188v13.0380859h0.3193359c1.6796875 0 2.8798828 1.2797852 2.8798828 3.1992188v4.7192383C367.4365234 109.7993164 366.2363281 111.0791016 364.5566406 111.0791016zM358.7978516 88.362793h-4.9189453c-0.1201172 4.3994141-0.5605469 8.5185547-1.4804688 11.9179688h6.3994141V88.362793zM389.1962891 94.4018555c0 5.9990234-4.1191406 11.078125-10.3183594 11.078125s-10.3183594-5.0791016-10.3183594-11.078125c0-5.8388672 4.2392578-11.1582031 10.3183594-11.1582031S389.1962891 88.5629883 389.1962891 94.4018555zM374.3183594 94.4018555c0 2.7592773 1.4404297 5.7988281 4.5595703 5.7988281s4.5595703-3.0395508 4.5595703-5.7988281c0-2.7597656-1.4003906-5.8789063-4.5595703-5.8789063S374.3183594 91.6420898 374.3183594 94.4018555z"/><path fill="#007CBA" d="M191.7885742 75h-2.0263672c-0.3964844 0-0.5644531-0.2519531-0.5644531-0.5756836v-7.3881836c0-0.3237305 0.1679688-0.5751953 0.5644531-0.5751953h3.6337891c0.2998047 0 0.515625 0.1557617 0.515625 0.4916992 0 0.3354492-0.2158203 0.4916992-0.515625 0.4916992h-3.1425781v2.5063477h1.4873047c1.9189453 0 2.8427734 1.0673828 2.8427734 2.4584961C194.5834961 73.8725586 193.5874023 75 191.7885742 75zM191.7885742 70.934082h-1.5351563v3.0825195h1.4873047c1.03125 0 1.7871094-0.5878906 1.7871094-1.6074219C193.527832 71.5336914 192.8920898 70.934082 191.7885742 70.934082zM200.6557617 75.0717773c-0.3242188 0-0.5283203-0.2158203-0.5283203-0.5634766V69.53125h-2.0390625v2.0864258c0 2.3510742-0.9951172 3.418457-2.0869141 3.418457 -0.3115234 0-0.515625-0.144043-0.515625-0.4677734s0.2041016-0.4799805 0.515625-0.4799805c0.4804688 0 1.0322266-0.7553711 1.0322266-2.4707031v-2.4223633c0-0.3837891 0.2158203-0.5756836 0.5273438-0.5756836h3.0947266c0.3232422 0 0.5273438 0.2158203 0.5273438 0.5634766v5.3251953C201.1831055 74.855957 200.9790039 75.0717773 200.6557617 75.0717773zM207.3266602 75.0717773c-0.3232422 0-0.5273438-0.2158203-0.5273438-0.5634766v-0.2519531l-0.0244141-0.0239258c-0.4667969 0.5996094-1.1269531 0.8393555-1.7626953 0.8393555 -1.1513672 0-2.2070313-0.5634766-2.2070313-1.8706055 0-1.9912109 2.2314453-2.1469727 3.8623047-2.1469727h0.1435547v-0.7915039c0-0.5400391-0.4433594-0.8037109-1.1269531-0.8037109 -1.0078125 0-1.1875 0.6474609-1.6435547 0.6474609 -0.3232422 0-0.4794922-0.2036133-0.4794922-0.4316406 0-0.659668 1.2470703-1.1274414 2.1230469-1.1274414 1.3916016 0 2.1708984 0.6240234 2.1708984 1.7993164v4.1616211C207.8549805 74.855957 207.6508789 75.0717773 207.3266602 75.0717773zM206.8110352 71.8696289h-0.2275391c-1.34375 0-2.7226563 0-2.7226563 1.331543 0 0.6953125 0.6474609 0.9594727 1.34375 0.9594727 0.8994141 0 1.6064453-0.5756836 1.6064453-1.6914063V71.8696289zM210.5932617 68.6196289h2.8779297c0.3476563 0 0.5273438 0.1679688 0.5273438 0.4555664 0 0.2880859-0.1796875 0.4560547-0.5273438 0.4560547h-2.3505859v4.9770508c0 0.3476563-0.2041016 0.5634766-0.5273438 0.5634766 -0.3242188 0-0.5283203-0.2158203-0.5283203-0.5634766v-5.3251953C210.0649414 68.8354492 210.293457 68.6196289 210.5932617 68.6196289zM217.5649414 68.5473633c1.7988281 0 2.8056641 1.5712891 2.8056641 3.262207 0 1.6914063-1.0068359 3.262207-2.8056641 3.262207 -1.7998047 0-2.8066406-1.5708008-2.8066406-3.262207C214.7583008 70.1186523 215.7651367 68.5473633 217.5649414 68.5473633zM217.5649414 74.1606445c1.2949219 0 1.7509766-1.2714844 1.7509766-2.3510742 0-1.0791016-0.4560547-2.3505859-1.7509766-2.3505859 -1.2958984 0-1.7509766 1.2714844-1.7509766 2.3505859C215.8139648 72.8891602 216.269043 74.1606445 217.5649414 74.1606445zM226.2875977 69.0751953c0 0.2880859-0.1796875 0.4560547-0.5273438 0.4560547h-1.5351563v4.9770508c0 0.3476563-0.2041016 0.5634766-0.5283203 0.5634766 -0.3232422 0-0.5273438-0.2158203-0.5273438-0.5634766V69.53125h-1.5351563c-0.3476563 0-0.5273438-0.1679688-0.5273438-0.4560547 0-0.2875977 0.1796875-0.4555664 0.5273438-0.4555664h4.1259766C226.1079102 68.6196289 226.2875977 68.7875977 226.2875977 69.0751953zM230.4760742 75h-2.4101563c-0.3242188 0-0.5283203-0.2158203-0.5283203-0.5634766v-5.253418c0-0.3476563 0.2041016-0.5634766 0.5283203-0.5634766h2.2783203c1.1279297 0 1.7275391 0.8032227 1.7275391 1.5229492 0 0.6958008-0.3720703 1.2353516-0.8876953 1.4033203v0.012207c0.7675781 0.0834961 1.3789063 0.7314453 1.3789063 1.5830078C232.5629883 74.1367188 231.8198242 75 230.4760742 75zM230.1645508 69.5068359h-1.5712891v1.6791992h1.5595703c0.5517578 0 0.8632813-0.3955078 0.8632813-0.8632813C231.0161133 69.8666992 230.7524414 69.5068359 230.1645508 69.5068359zM230.4047852 72.0498047h-1.8115234v2.0625h1.7753906c0.6591797 0 1.1386719-0.4077148 1.1386719-1.03125C231.5073242 72.5053711 231.1000977 72.0498047 230.4047852 72.0498047zM236.668457 68.5473633c1.7988281 0 2.8056641 1.5712891 2.8056641 3.262207 0 1.6914063-1.0068359 3.262207-2.8056641 3.262207 -1.7998047 0-2.8066406-1.5708008-2.8066406-3.262207C233.8618164 70.1186523 234.8686523 68.5473633 236.668457 68.5473633zM236.668457 74.1606445c1.2949219 0 1.7509766-1.2714844 1.7509766-2.3510742 0-1.0791016-0.4560547-2.3505859-1.7509766-2.3505859 -1.2958984 0-1.7509766 1.2714844-1.7509766 2.3505859C234.9174805 72.8891602 235.3725586 74.1606445 236.668457 74.1606445zM241.121582 69.1113281c0-0.3476563 0.2041016-0.5639648 0.5283203-0.5639648 0.3232422 0 0.5273438 0.2163086 0.5273438 0.5639648v0.3115234h0.0244141c0.2998047-0.5756836 0.8632813-0.8754883 1.703125-0.8754883 1.7265625 0 2.7226563 1.5712891 2.7226563 3.262207 0 1.6914063-0.9960938 3.262207-2.7226563 3.262207 -0.8398438 0-1.4277344-0.4677734-1.703125-0.8632813h-0.0244141v2.8183594c0 0.3476563-0.2041016 0.5639648-0.5273438 0.5639648 -0.3242188 0-0.5283203-0.2163086-0.5283203-0.5639648V69.1113281zM243.8208008 74.1606445c1.2949219 0 1.7509766-1.2714844 1.7509766-2.3510742 0-1.0791016-0.4560547-2.3505859-1.7509766-2.3505859 -1.2958984 0-1.7509766 1.2714844-1.7509766 2.3505859C242.0698242 72.8891602 242.5249023 74.1606445 243.8208008 74.1606445zM252.7592773 75.0717773c-0.3242188 0-0.5283203-0.2158203-0.5283203-0.5634766v-3.9936523h-0.0234375l-2.9267578 4.1972656c-0.1435547 0.2041016-0.2041016 0.3598633-0.5273438 0.3598633 -0.3242188 0-0.5283203-0.2158203-0.5283203-0.5634766v-5.3969727c0-0.3476563 0.2041016-0.5639648 0.5283203-0.5639648 0.3232422 0 0.5273438 0.2163086 0.5273438 0.5639648v3.9819336h0.0244141l2.9257813-4.1977539c0.1318359-0.1918945 0.2041016-0.3481445 0.5283203-0.3481445 0.3232422 0 0.5273438 0.2163086 0.5273438 0.5639648v5.3969727C253.2866211 74.855957 253.0825195 75.0717773 252.7592773 75.0717773zM259.7192383 69.0751953c0 0.2880859-0.1796875 0.4560547-0.5273438 0.4560547h-1.5351563v4.9770508c0 0.3476563-0.2041016 0.5634766-0.5283203 0.5634766 -0.3232422 0-0.5273438-0.2158203-0.5273438-0.5634766V69.53125h-1.5351563c-0.3476563 0-0.5273438-0.1679688-0.5273438-0.4560547 0-0.2875977 0.1796875-0.4555664 0.5273438-0.4555664h4.1259766C259.5395508 68.6196289 259.7192383 68.7875977 259.7192383 69.0751953zM261.6411133 72.2177734c0 1.0913086 0.6953125 1.9428711 1.8828125 1.9428711 1.4033203 0 1.7636719-0.8637695 2.1591797-0.8637695 0.1914063 0 0.3837891 0.1679688 0.3837891 0.4677734 0 0.515625-1.3076172 1.3071289-2.5546875 1.3071289 -2.0390625 0-2.9267578-1.5708008-2.9267578-3.262207 0-1.7270508 1.0800781-3.262207 2.8671875-3.262207 1.7382813 0 2.7460938 1.5712891 2.7460938 3.1064453 0 0.371582-0.1318359 0.5639648-0.5878906 0.5639648H261.6411133zM265.1430664 71.4257813c0-0.9111328-0.5273438-1.9428711-1.6904297-1.9667969 -1.3076172-0.0239258-1.7753906 0.9956055-1.8115234 1.9667969H265.1430664zM272.2231445 75.0717773c-0.3242188 0-0.5283203-0.2158203-0.5283203-0.5634766V69.53125h-2.0390625v2.0864258c0 2.3510742-0.9951172 3.418457-2.0859375 3.418457 -0.3125 0-0.5166016-0.144043-0.5166016-0.4677734s0.2041016-0.4799805 0.5166016-0.4799805c0.4794922 0 1.03125-0.7553711 1.03125-2.4707031v-2.4223633c0-0.3837891 0.2158203-0.5756836 0.5273438-0.5756836h3.0947266c0.3232422 0 0.5273438 0.2158203 0.5273438 0.5634766v5.3251953C272.7504883 74.855957 272.5463867 75.0717773 272.2231445 75.0717773zM277.0239258 71.0664063c1.4863281 0 2.21875 0.8271484 2.21875 1.9189453 0 1.1391602-0.7802734 2.0146484-2.1835938 2.0146484h-1.90625c-0.3242188 0-0.5283203-0.2158203-0.5283203-0.5634766v-5.3251953c0-0.3476563 0.2041016-0.5639648 0.5283203-0.5639648 0.3232422 0 0.5273438 0.2163086 0.5273438 0.5639648v1.9550781H277.0239258zM276.9750977 71.9658203h-1.2949219v2.1225586h1.2597656c0.7314453 0 1.2470703-0.3955078 1.2470703-1.1152344C278.1870117 72.3613281 277.7553711 71.9658203 276.9750977 71.9658203zM281.7280273 74.5083008c0 0.3476563-0.2041016 0.5634766-0.5273438 0.5634766 -0.3242188 0-0.5283203-0.2158203-0.5283203-0.5634766v-5.3969727c0-0.3476563 0.2041016-0.5639648 0.5283203-0.5639648 0.3232422 0 0.5273438 0.2163086 0.5273438 0.5639648v2.0507813h2.9501953v-2.0507813c0-0.3476563 0.2041016-0.5639648 0.5283203-0.5639648 0.3232422 0 0.5273438 0.2163086 0.5273438 0.5639648v5.3969727c0 0.3476563-0.2041016 0.5634766-0.5273438 0.5634766 -0.3242188 0-0.5283203-0.2158203-0.5283203-0.5634766v-2.4345703h-2.9501953V74.5083008zM290.0083008 71.0664063c1.4863281 0 2.21875 0.8271484 2.21875 1.9189453 0 1.1391602-0.7802734 2.0146484-2.1835938 2.0146484h-1.90625c-0.3242188 0-0.5283203-0.2158203-0.5283203-0.5634766v-5.3251953c0-0.3476563 0.2041016-0.5639648 0.5283203-0.5639648 0.3232422 0 0.5273438 0.2163086 0.5273438 0.5639648v1.9550781H290.0083008zM289.9594727 71.9658203h-1.2949219v2.1225586h1.2597656c0.7314453 0 1.2470703-0.3955078 1.2470703-1.1152344C291.1713867 72.3613281 290.7397461 71.9658203 289.9594727 71.9658203zM294.1811523 74.5083008c0 0.3476563-0.203125 0.5634766-0.5273438 0.5634766s-0.5273438-0.2158203-0.5273438-0.5634766v-5.3969727c0-0.3476563 0.203125-0.5639648 0.5273438-0.5639648s0.5273438 0.2163086 0.5273438 0.5639648V74.5083008zM300.4711914 75.0717773c-0.3242188 0-0.5283203-0.2158203-0.5283203-0.5634766v-3.9936523h-0.0234375l-2.9267578 4.1972656c-0.1435547 0.2041016-0.2041016 0.3598633-0.5273438 0.3598633 -0.3242188 0-0.5283203-0.2158203-0.5283203-0.5634766v-5.3969727c0-0.3476563 0.2041016-0.5639648 0.5283203-0.5639648 0.3232422 0 0.5273438 0.2163086 0.5273438 0.5639648v3.9819336h0.0244141l2.9257813-4.1977539c0.1318359-0.1918945 0.2041016-0.3481445 0.5283203-0.3481445 0.3232422 0 0.5273438 0.2163086 0.5273438 0.5639648v5.3969727C300.9985352 74.855957 300.7944336 75.0717773 300.4711914 75.0717773zM297.2563477 66.3886719c0.3720703 0 0.5761719 0.6835938 1.2470703 0.6835938 0.671875 0 0.8759766-0.6835938 1.2480469-0.6835938 0.2275391 0 0.3710938 0.1918945 0.3710938 0.4316406 0 0.7080078-0.9589844 1.1635742-1.6191406 1.1635742 -0.6591797 0-1.6181641-0.4555664-1.6181641-1.1635742C296.8852539 66.5805664 297.0288086 66.3886719 297.2563477 66.3886719zM311.940918 76.9790039c-0.3232422 0-0.5273438-0.2158203-0.5273438-0.5639648V75h-4.59375v1.4150391c0 0.3481445-0.203125 0.5639648-0.5273438 0.5639648s-0.5273438-0.2158203-0.5273438-0.5639648v-1.7626953c0-0.3481445 0.203125-0.5639648 0.5273438-0.5639648h0.4072266c0.5400391-1.4272461 0.6357422-3.0102539 0.6357422-4.9052734 0-0.2998047 0.2041016-0.5634766 0.5283203-0.5634766h3.0224609c0.3232422 0 0.5273438 0.2158203 0.5273438 0.5634766v4.9052734h0.5273438c0.3242188 0 0.5283203 0.2158203 0.5283203 0.5639648v1.7626953C312.4692383 76.7631836 312.2651367 76.9790039 311.940918 76.9790039zM310.3579102 69.53125h-1.9785156c0 1.8105469-0.1679688 3.2617188-0.5996094 4.5571289h2.578125V69.53125zM314.3920898 72.2177734c0 1.0913086 0.6953125 1.9428711 1.8828125 1.9428711 1.4033203 0 1.7636719-0.8637695 2.1591797-0.8637695 0.1914063 0 0.3837891 0.1679688 0.3837891 0.4677734 0 0.515625-1.3076172 1.3071289-2.5546875 1.3071289 -2.0390625 0-2.9267578-1.5708008-2.9267578-3.262207 0-1.7270508 1.0800781-3.262207 2.8671875-3.262207 1.7382813 0 2.7460938 1.5712891 2.7460938 3.1064453 0 0.371582-0.1318359 0.5639648-0.5878906 0.5639648H314.3920898zM317.894043 71.4257813c0-0.9111328-0.5273438-1.9428711-1.6904297-1.9667969 -1.3076172-0.0239258-1.7753906 0.9956055-1.8115234 1.9667969H317.894043zM324.7583008 69.0751953c0 0.2880859-0.1796875 0.4560547-0.5273438 0.4560547h-1.5351563v4.9770508c0 0.3476563-0.2041016 0.5634766-0.5283203 0.5634766 -0.3232422 0-0.5273438-0.2158203-0.5273438-0.5634766V69.53125h-1.5351563c-0.3476563 0-0.5273438-0.1679688-0.5273438-0.4560547 0-0.2875977 0.1796875-0.4555664 0.5273438-0.4555664h4.1259766C324.5786133 68.6196289 324.7583008 68.7875977 324.7583008 69.0751953zM328.6108398 68.5473633c1.0800781 0 1.7158203 0.3720703 1.7158203 0.8037109 0 0.2158203-0.1806641 0.4438477-0.4326172 0.4438477 -0.4072266 0-0.5634766-0.3359375-1.2832031-0.3359375 -1.3066406 0-1.8222656 1.2714844-1.8222656 2.3505859 0 1.0795898 0.515625 2.3510742 1.8222656 2.3510742 0.7441406 0 0.9355469-0.3598633 1.2714844-0.3598633 0.2402344 0 0.4082031 0.1557617 0.4082031 0.4438477 0 0.3955078-0.5878906 0.8271484-1.6796875 0.8271484 -1.9423828 0-2.8779297-1.5708008-2.8779297-3.262207C325.7329102 70.1186523 326.668457 68.5473633 328.6108398 68.5473633zM336.2895508 75.0717773c-0.2519531 0-0.4199219-0.1557617-0.6113281-0.3237305l-2.8066406-2.5185547v2.2788086c0 0.3476563-0.2041016 0.5634766-0.5273438 0.5634766 -0.3242188 0-0.5283203-0.2158203-0.5283203-0.5634766v-5.3969727c0-0.3476563 0.2041016-0.5639648 0.5283203-0.5639648 0.3232422 0 0.5273438 0.2163086 0.5273438 0.5639648v1.9667969l2.5302734-2.206543c0.2041016-0.1801758 0.4199219-0.3242188 0.5996094-0.3242188 0.2763672 0 0.4443359 0.2041016 0.4443359 0.4677734 0 0.15625-0.0605469 0.2758789-0.2636719 0.4560547l-2.4707031 2.1586914 2.7705078 2.4824219c0.1679688 0.15625 0.2519531 0.3359375 0.2519531 0.5400391C336.7338867 74.8920898 336.5180664 75.0717773 336.2895508 75.0717773zM342.5541992 75.0717773c-0.3242188 0-0.5283203-0.2158203-0.5283203-0.5634766v-3.9936523h-0.0234375l-2.9267578 4.1972656c-0.1435547 0.2041016-0.2041016 0.3598633-0.5273438 0.3598633 -0.3242188 0-0.5283203-0.2158203-0.5283203-0.5634766v-5.3969727c0-0.3476563 0.2041016-0.5639648 0.5283203-0.5639648 0.3232422 0 0.5273438 0.2163086 0.5273438 0.5639648v3.9819336h0.0244141l2.9257813-4.1977539c0.1318359-0.1918945 0.2041016-0.3481445 0.5283203-0.3481445 0.3232422 0 0.5273438 0.2163086 0.5273438 0.5639648v5.3969727C343.081543 74.855957 342.8774414 75.0717773 342.5541992 75.0717773zM349.4897461 75.0717773c-0.3242188 0-0.5283203-0.2158203-0.5283203-0.5634766v-3.9936523h-0.0234375l-2.9267578 4.1972656c-0.1435547 0.2041016-0.2041016 0.3598633-0.5273438 0.3598633 -0.3242188 0-0.5283203-0.2158203-0.5283203-0.5634766v-5.3969727c0-0.3476563 0.2041016-0.5639648 0.5283203-0.5639648 0.3232422 0 0.5273438 0.2163086 0.5273438 0.5639648v3.9819336h0.0244141l2.9257813-4.1977539c0.1318359-0.1918945 0.2041016-0.3481445 0.5283203-0.3481445 0.3232422 0 0.5273438 0.2163086 0.5273438 0.5639648v5.3969727C350.0170898 74.855957 349.8129883 75.0717773 349.4897461 75.0717773zM346.2749023 66.3886719c0.3720703 0 0.5761719 0.6835938 1.2480469 0.6835938 0.6708984 0 0.875-0.6835938 1.2470703-0.6835938 0.2275391 0 0.3710938 0.1918945 0.3710938 0.4316406 0 0.7080078-0.9589844 1.1635742-1.6181641 1.1635742 -0.6601563 0-1.6191406-0.4555664-1.6191406-1.1635742C345.9038086 66.5805664 346.0473633 66.3886719 346.2749023 66.3886719zM360.9604492 76.9790039c-0.3232422 0-0.5273438-0.2158203-0.5273438-0.5639648V75h-4.5332031c-0.3242188 0-0.5283203-0.2158203-0.5283203-0.5634766v-5.3251953c0-0.3476563 0.2041016-0.5639648 0.5283203-0.5639648 0.3232422 0 0.5273438 0.2163086 0.5273438 0.5639648v4.9770508h2.9501953v-4.9770508c0-0.3476563 0.2041016-0.5639648 0.5283203-0.5639648 0.3232422 0 0.5273438 0.2163086 0.5273438 0.5639648v4.9770508h0.5273438c0.3242188 0 0.5283203 0.2158203 0.5283203 0.5639648v1.7626953C361.4887695 76.7631836 361.284668 76.9790039 360.9604492 76.9790039zM363.2319336 72.2177734c0 1.0913086 0.6953125 1.9428711 1.8828125 1.9428711 1.4033203 0 1.7636719-0.8637695 2.1591797-0.8637695 0.1914063 0 0.3837891 0.1679688 0.3837891 0.4677734 0 0.515625-1.3076172 1.3071289-2.5546875 1.3071289 -2.0390625 0-2.9267578-1.5708008-2.9267578-3.262207 0-1.7270508 1.0800781-3.262207 2.8671875-3.262207 1.7382813 0 2.7460938 1.5712891 2.7460938 3.1064453 0 0.371582-0.1318359 0.5639648-0.5878906 0.5639648H363.2319336zM366.7338867 71.4257813c0-0.9111328-0.5273438-1.9428711-1.6904297-1.9667969 -1.3076172-0.0239258-1.7753906 0.9956055-1.8115234 1.9667969H366.7338867zM370.3354492 74.5083008c0 0.3476563-0.2041016 0.5634766-0.5273438 0.5634766 -0.3242188 0-0.5283203-0.2158203-0.5283203-0.5634766v-5.3969727c0-0.3476563 0.2041016-0.5639648 0.5283203-0.5639648 0.3232422 0 0.5273438 0.2163086 0.5273438 0.5639648v2.0507813h2.9501953v-2.0507813c0-0.3476563 0.2041016-0.5639648 0.5283203-0.5639648 0.3232422 0 0.5273438 0.2163086 0.5273438 0.5639648v5.3969727c0 0.3476563-0.2041016 0.5634766-0.5273438 0.5634766 -0.3242188 0-0.5283203-0.2158203-0.5283203-0.5634766v-2.4345703h-2.9501953V74.5083008zM380.7729492 69.0751953c0 0.2880859-0.1796875 0.4560547-0.5273438 0.4560547h-1.5351563v4.9770508c0 0.3476563-0.2041016 0.5634766-0.5283203 0.5634766 -0.3232422 0-0.5273438-0.2158203-0.5273438-0.5634766V69.53125h-1.5351563c-0.3476563 0-0.5273438-0.1679688-0.5273438-0.4560547 0-0.2875977 0.1796875-0.4555664 0.5273438-0.4555664h4.1259766C380.5932617 68.6196289 380.7729492 68.7875977 380.7729492 69.0751953zM382.0708008 69.1113281c0-0.3476563 0.2041016-0.5639648 0.5283203-0.5639648 0.3232422 0 0.5273438 0.2163086 0.5273438 0.5639648v0.3115234h0.0244141c0.2998047-0.5756836 0.8632813-0.8754883 1.703125-0.8754883 1.7265625 0 2.7226563 1.5712891 2.7226563 3.262207 0 1.6914063-0.9960938 3.262207-2.7226563 3.262207 -0.8398438 0-1.4277344-0.4677734-1.703125-0.8632813h-0.0244141v2.8183594c0 0.3476563-0.2041016 0.5639648-0.5273438 0.5639648 -0.3242188 0-0.5283203-0.2163086-0.5283203-0.5639648V69.1113281zM384.7700195 74.1606445c1.2949219 0 1.7509766-1.2714844 1.7509766-2.3510742 0-1.0791016-0.4560547-2.3505859-1.7509766-2.3505859 -1.2958984 0-1.7509766 1.2714844-1.7509766 2.3505859C383.019043 72.8891602 383.4741211 74.1606445 384.7700195 74.1606445z"/></svg>