<svg xmlns="http://www.w3.org/2000/svg" version="1.1" x="0px" y="0px" width="120px" height="120px" viewBox="0 0 120 120" enable-background="new 0 0 120 120" xml:space="preserve"><path fill-rule="evenodd" clip-rule="evenodd" fill="#FFFFFF" d="M63.5209961 29.2573242C45.644043 26.9692383 29.2973633 39.605957 27.0092773 57.480957c-1.1953125 9.3164063 1.6748047 18.2119141 7.2177734 24.921875 2.2421875-2.1914063 6.1337891-5.9550781 6.8808594-6.3925781 1.0625-0.6210938 1.984375-1.3183594 1.984375-1.3183594s-0.4355469-2.5556641 0.2519531-5.5429688c0.6806641-2.9667969 1.3417969-3.8173828 1.4658203-4.7460938 0.171875-1.2822266 0.2685547-4.0019531-0.2460938-5.1845703 -0.6230469-1.4296875-0.796875-2.4804688 0.1748047-3.1875 0.9707031-0.7070313 2.7998047 0.4931641 3.6240234 2.3964844 0.8222656 1.9013672 0.734375 2.5810547 0.734375 2.5810547s0.8476563-3.3691406 1.8427734-5.2597656c0.9960938-1.8867188 2.2216797-4.6552734 2.6904297-5.8447266 0.4697266-1.1904297 0.984375-2.5283203 2.265625-2.453125 1.2822266 0.0722656 2.6035156 0.8125 1.5224609 3.3408203 -1.0830078 2.5302734-1.2470703 3.2373047-1.4257813 4.1240234 -0.1787109 0.8886719-0.8027344 4.3945313-0.9433594 4.6894531 -0.1445313 0.3017578 0.2021484 0.390625 0.3496094 0.2412109 0.1435547-0.1513672 1.96875-2.4492188 3.0761719-3.7480469 1.1044922-1.2998047 3.1914063-3.5615234 3.6240234-4.1123047 0.4335938-0.5498047 1.4345703-2.1416016 2.7138672-2.0673828 1.2822266 0.0712891 1.8925781 1.1923828 1.6679688 2.2304688 -0.2285156 1.0361328-1.0478516 1.9384766-1.5742188 2.5390625 -0.5302734 0.5996094-2.3535156 3.7412109-2.6884766 4.2402344 -0.3330078 0.4960938-2.1865234 3.2773438-2.1865234 3.2773438l0.2402344 0.4501953c0 0 2.1904297-1.3203125 3.0625-1.8798828 0.8769531-0.5585938 4.5878906-3.6210938 5.4628906-3.9521484 1.5117188-0.5712891 3.1796875 1.2783203 2.1650391 2.6152344 -0.9121094 1.1982422-2.1035156 2.125-2.5390625 2.5292969 -0.4345703 0.4013672-2.6328125 2.5585938-3.5566406 3.2148438 -0.9189453 0.6582031-2.0810547 2.3076172-1.8886719 2.6318359 0.1542969 0.2578125 1.7783203 0.3886719 2.7607422 0.0537109 1.3769531-0.4707031 4.9707031-1.4257813 5.6777344-1.2431641 0.9912109 0.2626953 1.6113281 1.8916016 0.6396484 2.6953125 -0.9658203 0.8056641-2.921875 1.4921875-3.4580078 1.75 -0.5332031 0.2568359-4.0820313 1.5634766-4.0820313 1.5634766s-2.703125 1.6132813-4.0693359 2.9111328c-0.4589844 0.8007813-2.4384766 3.7294922-3.8417969 4.6220703 -0.7822266 0.5-1.4814453 0.8564453-1.4814453 0.8564453s-1.3222656 3.0410156-1.9492188 3.7607422c-1.0986328 2.0839844-3.0712891 4.9335938-4.9853516 7.4902344 2.2324219 0.8125 4.5859375 1.4013672 7.0419922 1.7158203C73.1079102 96.2807617 89.456543 83.644043 91.7416992 65.7680664 94.0307617 47.8911133 81.3930664 31.5463867 63.5209961 29.2573242zM78.8422852 15.6147461c0 0-0.6621094 2.3964844-1.3251953 4.7919922 -0.7744141 2.4189453-1.5478516 4.8349609-1.5478516 4.8349609l-0.0048828 0.0166016c-0.5537109 1.7275391-2.4013672 2.6806641-4.1308594 2.1289063 -1.7255859-0.5527344-2.6787109-2.4023438-2.1259766-4.1298828 0.0771484-0.2431641 0.1904297-0.4824219 0.3125-0.6933594 0 0 1.2578125-2.0849609 2.5136719-4.1689453 1.1923828-2.1806641 2.3896484-4.3603516 2.3896484-4.3603516l0.0058594-0.0097656c0.5654297-1.0273438 1.8564453-1.40625 2.8867188-0.8408203C78.6977539 13.6674805 79.1000977 14.6870117 78.8422852 15.6147461zM41.847168 107.5864258c0 0 0.5380859-2.3876953 1.0791016-4.7763672 0.6728516-2.4638672 1.3466797-4.9248047 1.3466797-4.9248047 0.4824219-1.7597656 2.296875-2.7910156 4.0527344-2.3105469 1.7548828 0.4814453 2.7880859 2.2939453 2.3076172 4.0498047 -0.0693359 0.2490234-0.1630859 0.484375-0.2822266 0.703125l-0.1289063 0.2304688c0 0-1.125 2.0439453-2.2470703 4.0888672 -1.0771484 2.1875-2.15625 4.3779297-2.15625 4.3779297 -0.5185547 1.0527344-1.7910156 1.4863281-2.8457031 0.9658203 -0.8964844-0.4433594-1.3457031-1.4355469-1.1347656-2.3740234L41.847168 107.5864258zM105.2026367 81.1303711c0 0-0.5917969-0.1503906-1.4785156-0.3740234 -0.2226563-0.0546875-0.4619141-0.1152344-0.7158203-0.1796875 -0.2519531-0.0556641-0.5488281-0.1689453-0.8359375-0.2558594 -0.5878906-0.1923828-1.2119141-0.3955078-1.8378906-0.6015625 -0.5771484-0.1923828-1.1523438-0.3886719-1.6943359-0.5703125 -0.5458984-0.1914063-1.0224609-0.3251953-1.4443359-0.4570313 -0.8339844-0.2558594-1.390625-0.4248047-1.390625-0.4248047l-0.1005859-0.0302734c-1.7050781-0.5224609-2.6640625-2.3291016-2.1396484-4.0361328 0.5205078-1.7050781 2.3271484-2.6640625 4.0351563-2.1425781 0.2373047 0.0722656 0.4726563 0.1796875 0.6806641 0.2998047 0 0 0.5527344 0.3232422 1.3828125 0.8066406 0.4072266 0.2421875 0.9101563 0.5224609 1.3847656 0.8271484 0.4882813 0.3046875 1.0087891 0.6279297 1.53125 0.9521484 0.4814453 0.2949219 0.9580078 0.5878906 1.4091797 0.8642578 0.234375 0.1367188 0.4257813 0.2773438 0.6679688 0.3974609 0.2324219 0.1191406 0.4550781 0.2333984 0.6572266 0.3378906 0.8144531 0.4238281 1.3554688 0.7060547 1.3554688 0.7060547h0.0048828c1.0234375 0.53125 1.4238281 1.7939453 0.8935547 2.8154297C107.112793 80.9448242 106.1206055 81.3608398 105.2026367 81.1303711zM14.5678711 43.0698242c0 0 0.5458984 0.1142578 1.3613281 0.2832031 0.4052734 0.0800781 0.8867188 0.1904297 1.3876953 0.2744141 0.5048828 0.0957031 1.0410156 0.1923828 1.578125 0.2949219 0.5771484 0.1259766 1.1542969 0.2539063 1.6943359 0.3710938 0.5429688 0.1181641 1.0341797 0.2783203 1.4667969 0.3925781 0.8642578 0.2441406 1.4365234 0.40625 1.4365234 0.40625 1.7529297 0.4951172 2.7705078 2.3154297 2.2753906 4.0673828 -0.4951172 1.7509766-2.3164063 2.7705078-4.0654297 2.2753906 -0.2773438-0.078125-0.5322266-0.1884766-0.7685547-0.3251953l-0.1152344-0.0703125c0 0-0.4414063-0.2597656-1.1054688-0.6523438 -0.3349609-0.1923828-0.7158203-0.4453125-1.1523438-0.6650391 -0.4306641-0.2226563-0.8935547-0.4619141-1.3574219-0.7011719 -0.5087891-0.2412109-1.0195313-0.4824219-1.4960938-0.7099609 -0.4853516-0.2216797-0.9111328-0.4453125-1.2861328-0.6298828 -0.7441406-0.3730469-1.2421875-0.6191406-1.2421875-0.6191406 -1.0527344-0.5283203-1.4765625-1.8066406-0.953125-2.8583984 0.4404297-0.8837891 1.4140625-1.3251953 2.3369141-1.1347656L14.5678711 43.0698242zM99.3139648 32.612793c0 0-0.4169922 0.4052734-1.0429688 1.0117188 -0.625 0.609375-1.4511719 1.421875-2.2949219 2.2275391 -1.7832031 1.5849609-3.5625 3.1699219-3.5625 3.1699219 -1.3564453 1.2060547-3.4365234 1.0849609-4.6445313-0.2705078 -1.2050781-1.3583984-1.0820313-3.4345703 0.2734375-4.6445313 0.203125-0.1796875 0.4238281-0.3310547 0.65625-0.453125l0.03125-0.0146484c0 0 2.0078125-1.0410156 4.0185547-2.0839844 1.0068359-0.5703125 2.0107422-1.1582031 2.7646484-1.5898438 0.7578125-0.4355469 1.2578125-0.7236328 1.2578125-0.7236328 1.0185547-0.5917969 2.3222656-0.2412109 2.9091797 0.7773438 0.4951172 0.8613281 0.3232422 1.9267578-0.359375 2.5888672L99.3139648 32.612793zM18.8481445 89.2875977c0 0 0.4101563-0.4443359 1.0234375-1.1074219 0.1523438-0.1660156 0.3193359-0.3447266 0.4970703-0.5351563 0.1835938-0.1904297 0.3398438-0.390625 0.5175781-0.5996094 0.3496094-0.4140625 0.7246094-0.8564453 1.0976563-1.2978516 0.4326172-0.4755859 0.8652344-0.9511719 1.2685547-1.3974609 0.3886719-0.4560547 0.8505859-0.8339844 1.203125-1.1806641 0.7333984-0.6884766 1.2226563-1.1435547 1.2226563-1.1435547 1.3291016-1.2402344 3.4150391-1.1679688 4.65625 0.1591797 1.2431641 1.3310547 1.1708984 3.4179688-0.1591797 4.6582031 -0.1923828 0.1757813-0.3984375 0.328125-0.6132813 0.4521484l-0.1992188 0.1123047c0 0-0.4648438 0.2636719-1.1679688 0.6591797 -0.3486328 0.2119141-0.7773438 0.3994141-1.2060547 0.7138672 -0.4394531 0.2958984-0.90625 0.6123047-1.3740234 0.9277344 -0.5058594 0.3671875-1.015625 0.7363281-1.4882813 1.0820313 -0.2382813 0.1679688-0.4707031 0.3505859-0.6865234 0.4873047 -0.2138672 0.140625-0.4179688 0.2763672-0.6054688 0.4023438 -0.7558594 0.4970703-1.2578125 0.8320313-1.2578125 0.8320313 -0.9794922 0.6474609-2.2988281 0.3818359-2.9492188-0.5966797 -0.5517578-0.8339844-0.4375-1.9169922 0.2119141-2.6220703L18.8481445 89.2875977zM89.7680664 99.9155273c0 0-1.7207031-1.7285156-3.4433594-3.4560547 -1.7060547-1.8642578-3.4072266-3.7265625-3.4072266-3.7265625 -1.2294922-1.3408203-1.1357422-3.4248047 0.2060547-4.6513672 1.3417969-1.2275391 3.4238281-1.1337891 4.6474609 0.2070313 0.1787109 0.1904297 0.3271484 0.3994141 0.4492188 0.6171875l0.0761719 0.1367188c0 0 1.1337891 2.0605469 2.2714844 4.1171875 1.2675781 2.0820313 2.5351563 4.1591797 2.5351563 4.1591797 0.6113281 1.0039063 0.2919922 2.3105469-0.7099609 2.9238281 -0.8544922 0.5195313-1.9345703 0.3662109-2.6103516-0.3144531L89.7680664 99.9155273zM29.7700195 21.4086914c0 0 0.4599609 0.4335938 1.1494141 1.0869141 0.3466797 0.3251953 0.7480469 0.7148438 1.1806641 1.0839844 0.4296875 0.3818359 0.8935547 0.7900391 1.3535156 1.2011719 0.4863281 0.4521484 0.9726563 0.9091797 1.4287109 1.3359375 0.4628906 0.4111328 0.8583984 0.8857422 1.2138672 1.2558594 0.7070313 0.765625 1.1787109 1.2763672 1.1787109 1.2763672 1.2304688 1.3378906 1.1445313 3.4189453-0.1933594 4.6513672 -1.3359375 1.2324219-3.4179688 1.1494141-4.6523438-0.1884766 -0.1650391-0.1845703-0.3085938-0.3779297-0.4296875-0.5859375l-0.1064453-0.1914063c0 0-0.2851563-0.4951172-0.7089844-1.2392578 -0.2216797-0.3720703-0.4345703-0.8203125-0.7666016-1.28125 -0.3125-0.46875-0.6474609-0.9667969-0.9804688-1.4667969 -0.3759766-0.5302734-0.7529297-1.0595703-1.1044922-1.5566406 -0.3662109-0.4970703-0.6660156-0.9570313-0.9267578-1.3544922 -0.5244141-0.7890625-0.875-1.3173828-0.875-1.3173828 -0.6494141-0.9765625-0.3828125-2.296875 0.59375-2.9453125 0.8398438-0.5585938 1.9345703-0.4404297 2.6357422 0.2236328L29.7700195 21.4086914zM108.652832 55.5727539c0 0-0.5820313 0.1533203-1.4560547 0.3808594 -0.2207031 0.0585938-0.4580078 0.1181641-0.7070313 0.1845703 -0.2421875 0.0693359-0.5458984 0.1162109-0.8378906 0.1806641 -0.6005859 0.1162109-1.234375 0.2392578-1.8691406 0.3623047 -0.5947266 0.1054688-1.1865234 0.2158203-1.7421875 0.3173828 -0.5654297 0.0966797-1.0400391 0.2109375-1.4765625 0.2958984 -0.8486328 0.1757813-1.4160156 0.2900391-1.4160156 0.2900391l-0.0839844 0.0185547c-1.7802734 0.3671875-3.5195313-0.7763672-3.8867188-2.5546875 -0.3632813-1.7802734 0.7744141-3.5185547 2.5576172-3.8867188 0.2558594-0.0537109 0.5273438-0.0742188 0.7792969-0.0664063 0 0 0.6259766 0.0195313 1.5664063 0.0527344 0.4619141 0.0224609 1.0273438 0.0283203 1.5859375 0.0673828 0.5625 0.03125 1.1669922 0.0673828 1.7685547 0.1025391 0.5576172 0.0273438 1.1142578 0.0527344 1.6367188 0.0810547 0.265625 0.0107422 0.5048828 0.0361328 0.7734375 0.0244141 0.2587891-0.0039063 0.5039063-0.0087891 0.7304688-0.0126953 0.9052734-0.0126953 1.5078125-0.0244141 1.5078125-0.0244141 1.1738281-0.0175781 2.1416016 0.9169922 2.1611328 2.0917969C110.2612305 54.4799805 109.5805664 55.3325195 108.652832 55.5727539zM11.2202148 67.2143555c0 0 0.5126953-0.171875 1.28125-0.4267578 0.3818359-0.1289063 0.84375-0.2705078 1.3027344-0.4414063 0.2314453-0.0869141 0.4736328-0.1738281 0.7158203-0.2617188 0.2460938-0.0878906 0.4980469-0.1777344 0.7490234-0.2666016 0.5488281-0.1767578 1.0996094-0.3515625 1.6132813-0.5166016 0.5195313-0.1640625 1.0126953-0.265625 1.4345703-0.3808594 0.8476563-0.2148438 1.4121094-0.3583984 1.4121094-0.3583984 1.7636719-0.4492188 3.5585938 0.6210938 4.0048828 2.3857422 0.4462891 1.7666016-0.6230469 3.5585938-2.3876953 4.0058594 -0.2861328 0.0732422-0.5712891 0.1074219-0.8535156 0.1015625l-0.1298828-0.0019531c0 0-0.4980469-0.0107422-1.2451172-0.0224609 -0.3740234 0-0.8193359-0.0302734-1.2871094-0.0117188 -0.4697266 0.0205078-0.9726563 0.0419922-1.4765625 0.0605469 -0.5478516 0.0429688-1.0966797 0.0849609-1.6103516 0.1269531 -0.5234375 0.046875-0.984375 0.0605469-1.3925781 0.0859375 -0.8085938 0.0449219-1.3466797 0.0712891-1.3466797 0.0712891 -1.1748047 0.0654297-2.1787109-0.8359375-2.2460938-2.0117188C9.706543 68.371582 10.331543 67.5083008 11.2202148 67.2143555zM67.2983398 109.0776367c0 0-0.1591797-0.5576172-0.3984375-1.3935547 -0.2363281-0.8369141-0.5585938-1.9462891-0.8701172-3.0673828 -0.5517578-2.3242188-1.1025391-4.6484375-1.1025391-4.6484375 -0.4169922-1.7675781 0.6787109-3.5400391 2.4443359-3.9589844 1.7685547-0.4199219 3.5439453 0.6728516 3.9609375 2.4423828 0.0644531 0.2666016 0.0917969 0.5341797 0.0908203 0.796875l-0.0019531 0.0849609c0 0-0.0390625 2.2421875-0.0800781 4.4853516 0.0273438 1.1523438 0.0673828 2.3144531 0.0917969 3.1796875 0.0253906 0.8701172 0.0429688 1.4453125 0.0429688 1.4453125 0.0332031 1.1757813-0.8916016 2.15625-2.0654297 2.1875 -0.9941406 0.0332031-1.8476563-0.625-2.109375-1.5380859L67.2983398 109.0776367zM52.5737305 12.7905273c0 0 0.1972656 0.5478516 0.4892578 1.3710938 0.0732422 0.2050781 0.1533203 0.4277344 0.2382813 0.6630859 0.0771484 0.2470703 0.1855469 0.4541016 0.2861328 0.6875 0.1044922 0.2275391 0.2128906 0.4638672 0.3183594 0.7021484 0.1103516 0.2490234 0.2138672 0.4648438 0.3291016 0.7402344 0.2314453 0.5917969 0.4638672 1.1816406 0.6816406 1.7353516 0.1181641 0.2734375 0.2070313 0.5566406 0.2763672 0.8339844 0.0742188 0.2744141 0.1474609 0.5351563 0.2109375 0.7744141 0.2626953 0.9716797 0.4335938 1.6181641 0.4335938 1.6181641 0.4716797 1.7626953-0.5751953 3.5703125-2.3339844 4.0390625 -1.7607422 0.4707031-3.5703125-0.5742188-4.0400391-2.3349609 -0.0712891-0.2607422-0.1083984-0.5234375-0.1123047-0.7832031l-0.0058594-0.2861328c0 0-0.0058594-0.4931641-0.0175781-1.2324219 0-0.1865234-0.0029297-0.3916016-0.0058594-0.6064453 0.0058594-0.2148438-0.0019531-0.4453125-0.0449219-0.6914063 -0.0634766-0.4951172-0.1298828-1.0175781-0.1962891-1.5410156 -0.1035156-0.6181641-0.2089844-1.2373047-0.3085938-1.8144531 -0.046875-0.2890625-0.1064453-0.5761719-0.1181641-0.8183594 -0.0244141-0.2490234-0.0488281-0.484375-0.0683594-0.7011719 -0.0830078-0.8691406-0.1367188-1.4482422-0.1367188-1.4482422 -0.1113281-1.1708984 0.7460938-2.2089844 1.9169922-2.3203125 0.9902344-0.0957031 1.8867188 0.5048828 2.2060547 1.4023438L52.5737305 12.7905273z"/></svg>